<svg xmlns="http://www.w3.org/2000/svg" viewBox="0 0 1024 1024">
  <!-- Layer 1: Background -->
  <rect width="1024" height="1024" rx="180" fill="#0D47A1"/>
  <!-- Layer 2: Client (left) -->
  <rect x="120" y="380" width="200" height="160" rx="16" fill="white"/>
  <rect x="120" y="380" width="200" height="36" rx="16" fill="#BBDEFB"/>
  <!-- Screen -->
  <rect x="145" y="432" width="150" height="88" rx="8" fill="#E3F2FD"/>
  <!-- Server (right) -->
  <rect x="704" y="340" width="200" height="240" rx="16" fill="white"/>
  <rect x="730" y="380" width="148" height="24" rx="6" fill="#E3F2FD"/>
  <rect x="730" y="416" width="148" height="24" rx="6" fill="#E3F2FD"/>
  <rect x="730" y="452" width="148" height="24" rx="6" fill="#E3F2FD"/>
  <!-- Bidirectional arrows -->
  <line x1="340" y1="450" x2="684" y2="450" stroke="#00E5FF" stroke-width="40" stroke-linecap="round"/>
  <polygon points="684,400 764,450 684,500" fill="#00E5FF"/>
  <line x1="340" y1="550" x2="684" y2="550" stroke="#00E5FF" stroke-width="24" stroke-linecap="round" opacity="0.5"/>
  <polygon points="340,500 260,550 340,600" fill="#00E5FF" opacity="0.5"/>
  <!-- Layer 3: JSON brackets -->
  <text x="512" y="390" font-family="Consolas" font-size="48" fill="white" text-anchor="middle" opacity="0.8">&#123;&#160;&#125;</text>
</svg>