<svg xmlns="http://www.w3.org/2000/svg" viewBox="0 0 1024 1024">
  <defs>
    <linearGradient id="bg_fp10" x1="0%" y1="0%" x2="100%" y2="100%">
      <stop offset="0%" style="stop-color:#14B8A6"/>
      <stop offset="100%" style="stop-color:#0D9488"/>
    </linearGradient>
    <linearGradient id="folder10" x1="0%" y1="0%" x2="100%" y2="100%">
      <stop offset="0%" style="stop-color:#FFFFFF"/>
      <stop offset="100%" style="stop-color:#F0FDFA"/>
    </linearGradient>
  </defs>
  <!-- 배경 -->
  <rect width="1024" height="1024" rx="185" fill="url(#bg_fp10)"/>
  <!-- 폴더 아이콘 (흰색) -->
  <path d="M 390 400 L 390 370 Q 390 340 420 340 L 560 340 Q 590 340 602 370 L 618 400 Z" fill="url(#folder10)"/>
  <rect x="320" y="400" width="424" height="300" rx="28" fill="url(#folder10)"/>
  <!-- 폴더 내부 줄 -->
  <rect x="360" y="440" width="300" height="22" rx="7" fill="#CCFBF1" opacity="0.9"/>
  <rect x="360" y="476" width="240" height="18" rx="6" fill="#CCFBF1" opacity="0.7"/>
  <rect x="360" y="508" width="270" height="18" rx="6" fill="#CCFBF1" opacity="0.6"/>
  <!-- 반시계 화살표 (새로고침/정리) -->
  <!-- 원호 -->
  <path d="M 512 250 A 160 160 0 1 0 370 300" fill="none" stroke="white" stroke-width="42" stroke-linecap="round"/>
  <!-- 화살표 머리 (반시계 방향) -->
  <polygon points="322,262 370,300 408,252" fill="white"/>
  <!-- 작은 반짝이 별들 -->
  <circle cx="700" cy="260" r="16" fill="white" opacity="0.9"/>
  <line x1="700" y1="234" x2="700" y2="222" stroke="white" stroke-width="8" stroke-linecap="round" opacity="0.8"/>
  <line x1="700" y1="286" x2="700" y2="298" stroke="white" stroke-width="8" stroke-linecap="round" opacity="0.8"/>
  <line x1="674" y1="260" x2="662" y2="260" stroke="white" stroke-width="8" stroke-linecap="round" opacity="0.8"/>
  <line x1="726" y1="260" x2="738" y2="260" stroke="white" stroke-width="8" stroke-linecap="round" opacity="0.8"/>
  <line x1="681" y1="241" x2="672" y2="232" stroke="white" stroke-width="6" stroke-linecap="round" opacity="0.6"/>
  <line x1="719" y1="241" x2="728" y2="232" stroke="white" stroke-width="6" stroke-linecap="round" opacity="0.6"/>
  <line x1="681" y1="279" x2="672" y2="288" stroke="white" stroke-width="6" stroke-linecap="round" opacity="0.6"/>
  <line x1="719" y1="279" x2="728" y2="288" stroke="white" stroke-width="6" stroke-linecap="round" opacity="0.6"/>
  <!-- 두 번째 반짝이 -->
  <circle cx="786" cy="440" r="11" fill="#FDE68A" opacity="0.9"/>
  <line x1="786" y1="420" x2="786" y2="410" stroke="#FDE68A" stroke-width="6" stroke-linecap="round" opacity="0.8"/>
  <line x1="786" y1="460" x2="786" y2="470" stroke="#FDE68A" stroke-width="6" stroke-linecap="round" opacity="0.8"/>
  <line x1="766" y1="440" x2="756" y2="440" stroke="#FDE68A" stroke-width="6" stroke-linecap="round" opacity="0.8"/>
  <line x1="806" y1="440" x2="816" y2="440" stroke="#FDE68A" stroke-width="6" stroke-linecap="round" opacity="0.8"/>
</svg>
