<svg xmlns="http://www.w3.org/2000/svg" viewBox="0 0 1024 1024">
  <defs>
    <linearGradient id="bg_fp9" x1="0%" y1="0%" x2="100%" y2="100%">
      <stop offset="0%" style="stop-color:#F43F5E"/>
      <stop offset="100%" style="stop-color:#E11D48"/>
    </linearGradient>
  </defs>
  <!-- 배경 -->
  <rect width="1024" height="1024" rx="185" fill="url(#bg_fp9)"/>
  <!-- 빗자루 손잡이 -->
  <line x1="512" y1="220" x2="512" y2="680" stroke="white" stroke-width="56" stroke-linecap="round"/>
  <!-- 빗자루 헤드 -->
  <ellipse cx="512" cy="700" rx="220" ry="70" fill="white"/>
  <!-- 빗자루 솔 (세로 줄들) -->
  <line x1="340" y1="760" x2="330" y2="850" stroke="white" stroke-width="24" stroke-linecap="round"/>
  <line x1="375" y1="766" x2="368" y2="858" stroke="white" stroke-width="22" stroke-linecap="round"/>
  <line x1="410" y1="770" x2="406" y2="862" stroke="white" stroke-width="22" stroke-linecap="round"/>
  <line x1="445" y1="772" x2="444" y2="864" stroke="white" stroke-width="22" stroke-linecap="round"/>
  <line x1="480" y1="773" x2="480" y2="865" stroke="white" stroke-width="22" stroke-linecap="round"/>
  <line x1="515" y1="773" x2="516" y2="865" stroke="white" stroke-width="22" stroke-linecap="round"/>
  <line x1="550" y1="772" x2="552" y2="864" stroke="white" stroke-width="22" stroke-linecap="round"/>
  <line x1="585" y1="770" x2="588" y2="862" stroke="white" stroke-width="22" stroke-linecap="round"/>
  <line x1="620" y1="766" x2="625" y2="858" stroke="white" stroke-width="22" stroke-linecap="round"/>
  <line x1="655" y1="760" x2="662" y2="852" stroke="white" stroke-width="24" stroke-linecap="round"/>
  <line x1="688" y1="752" x2="698" y2="840" stroke="white" stroke-width="22" stroke-linecap="round"/>
  <!-- 먼지 입자들 (빗자루 아래) -->
  <circle cx="360" cy="890" r="18" fill="#FB7185" opacity="0.8"/>
  <circle cx="420" cy="910" r="14" fill="#FDA4AF" opacity="0.7"/>
  <circle cx="480" cy="895" r="22" fill="#FB7185" opacity="0.85"/>
  <circle cx="545" cy="908" r="16" fill="#FCA5A5" opacity="0.7"/>
  <circle cx="610" cy="893" r="20" fill="#FB7185" opacity="0.8"/>
  <circle cx="670" cy="912" r="13" fill="#FECDD3" opacity="0.65"/>
  <circle cx="728" cy="894" r="16" fill="#FB7185" opacity="0.7"/>
  <!-- 작은 먼지 -->
  <circle cx="390" cy="930" r="9" fill="#FDA4AF" opacity="0.6"/>
  <circle cx="512" cy="938" r="11" fill="#FB7185" opacity="0.6"/>
  <circle cx="640" cy="930" r="9" fill="#FDA4AF" opacity="0.55"/>
  <!-- 빗자루 상단 리본/끈 -->
  <ellipse cx="512" cy="220" rx="40" ry="18" fill="#FECDD3"/>
</svg>
