<svg xmlns="http://www.w3.org/2000/svg" viewBox="0 0 1024 1024">
  <defs>
    <linearGradient id="bg09" x1="0%" y1="0%" x2="100%" y2="100%">
      <stop offset="0%" style="stop-color:#EC4899"/>
      <stop offset="100%" style="stop-color:#F43F5E"/>
    </linearGradient>
  </defs>
  <!-- Background -->
  <rect width="1024" height="1024" rx="185" fill="url(#bg09)"/>
  <!-- Microscope body -->
  <!-- Eyepiece -->
  <rect x="462" y="200" width="100" height="50" rx="12" fill="#FFFFFF"/>
  <!-- Tube -->
  <rect x="482" y="248" width="60" height="180" rx="10" fill="#FFFFFF"/>
  <!-- Arm -->
  <rect x="442" y="370" width="140" height="60" rx="10" fill="#FFFFFF"/>
  <!-- Objective lens -->
  <ellipse cx="512" cy="480" rx="50" ry="35" fill="#F0F9FF"/>
  <ellipse cx="512" cy="490" rx="35" ry="24" fill="#BAE6FD"/>
  <!-- Stage -->
  <rect x="350" y="540" width="324" height="28" rx="8" fill="#FFFFFF"/>
  <!-- Base -->
  <ellipse cx="512" cy="720" rx="200" ry="44" fill="#FFFFFF"/>
  <!-- Stand -->
  <rect x="490" y="566" width="44" height="160" rx="8" fill="#FFFFFF"/>
  <!-- Server mini icon under microscope -->
  <rect x="420" y="580" width="184" height="100" rx="14" fill="#F9A8D4"/>
  <rect x="434" y="596" width="156" height="22" rx="6" fill="#9D174D"/>
  <circle cx="576" cy="642" r="11" fill="#22C55E"/>
  <rect x="434" y="636" width="100" height="12" rx="6" fill="#9D174D"/>
  <rect x="434" y="656" width="76" height="12" rx="6" fill="#FBCFE8"/>
</svg>
