<svg xmlns="http://www.w3.org/2000/svg" viewBox="0 0 1024 1024">
  <!-- Layer 1: Background — warm amber/earth tone -->
  <defs>
    <linearGradient id="bg3" x1="0" y1="0" x2="0.6" y2="1">
      <stop offset="0%" stop-color="#2C1A0A"/>
      <stop offset="100%" stop-color="#1A1006"/>
    </linearGradient>
  </defs>
  <rect width="1024" height="1024" rx="190" fill="url(#bg3)"/>

  <!-- Layer 2: Grid map of keyboard keys -->
  <!-- Grid lines (map feel) -->
  <line x1="160" y1="240" x2="864" y2="240" stroke="#3A2810" stroke-width="2"/>
  <line x1="160" y1="320" x2="864" y2="320" stroke="#3A2810" stroke-width="2"/>
  <line x1="160" y1="400" x2="864" y2="400" stroke="#3A2810" stroke-width="2"/>
  <line x1="160" y1="480" x2="864" y2="480" stroke="#3A2810" stroke-width="2"/>
  <line x1="160" y1="560" x2="864" y2="560" stroke="#3A2810" stroke-width="2"/>
  <line x1="160" y1="640" x2="864" y2="640" stroke="#3A2810" stroke-width="2"/>
  <line x1="160" y1="240" x2="160" y2="640" stroke="#3A2810" stroke-width="2"/>
  <line x1="260" y1="240" x2="260" y2="640" stroke="#3A2810" stroke-width="2"/>
  <line x1="360" y1="240" x2="360" y2="640" stroke="#3A2810" stroke-width="2"/>
  <line x1="460" y1="240" x2="460" y2="640" stroke="#3A2810" stroke-width="2"/>
  <line x1="560" y1="240" x2="560" y2="640" stroke="#3A2810" stroke-width="2"/>
  <line x1="660" y1="240" x2="660" y2="640" stroke="#3A2810" stroke-width="2"/>
  <line x1="760" y1="240" x2="760" y2="640" stroke="#3A2810" stroke-width="2"/>
  <line x1="864" y1="240" x2="864" y2="640" stroke="#3A2810" stroke-width="2"/>

  <!-- Key cells with colors -->
  <rect x="168" y="248" width="84" height="64" rx="8" fill="#1A3A1A" opacity="0.9"/>
  <rect x="268" y="248" width="84" height="64" rx="8" fill="#3A1A1A" opacity="0.9"/>
  <rect x="368" y="248" width="84" height="64" rx="8" fill="#1A3A1A" opacity="0.9"/>
  <rect x="468" y="248" width="84" height="64" rx="8" fill="#1A2A40" opacity="0.9"/>
  <rect x="568" y="248" width="84" height="64" rx="8" fill="#3A1A1A" opacity="0.9"/>
  <rect x="668" y="248" width="84" height="64" rx="8" fill="#1A3A1A" opacity="0.9"/>
  <rect x="768" y="248" width="88" height="64" rx="8" fill="#1A3A1A" opacity="0.9"/>

  <rect x="168" y="328" width="84" height="64" rx="8" fill="#1A2A40" opacity="0.9"/>
  <rect x="268" y="328" width="84" height="64" rx="8" fill="#1A3A1A" opacity="0.9"/>
  <rect x="368" y="328" width="84" height="64" rx="8" fill="#3A1A1A" opacity="0.9"/>
  <rect x="468" y="328" width="84" height="64" rx="8" fill="#1A3A1A" opacity="0.9"/>
  <rect x="568" y="328" width="84" height="64" rx="8" fill="#1A3A1A" opacity="0.9"/>
  <rect x="668" y="328" width="84" height="64" rx="8" fill="#1A2A40" opacity="0.9"/>
  <rect x="768" y="328" width="88" height="64" rx="8" fill="#1A3A1A" opacity="0.9"/>

  <rect x="168" y="408" width="84" height="64" rx="8" fill="#1A3A1A" opacity="0.9"/>
  <rect x="268" y="408" width="84" height="64" rx="8" fill="#1A3A1A" opacity="0.9"/>
  <rect x="368" y="408" width="84" height="64" rx="8" fill="#1A2A40" opacity="0.9"/>
  <rect x="468" y="408" width="84" height="64" rx="8" fill="#3A1A1A" opacity="0.9"/>
  <rect x="568" y="408" width="84" height="64" rx="8" fill="#1A3A1A" opacity="0.9"/>
  <rect x="668" y="408" width="84" height="64" rx="8" fill="#1A3A1A" opacity="0.9"/>
  <rect x="768" y="408" width="88" height="64" rx="8" fill="#3A1A1A" opacity="0.9"/>

  <rect x="168" y="488" width="84" height="64" rx="8" fill="#1A3A1A" opacity="0.9"/>
  <rect x="268" y="488" width="84" height="64" rx="8" fill="#1A2A40" opacity="0.9"/>
  <rect x="368" y="488" width="284" height="64" rx="8" fill="#2A2010" opacity="0.9"/>
  <rect x="668" y="488" width="84" height="64" rx="8" fill="#1A3A1A" opacity="0.9"/>
  <rect x="768" y="488" width="88" height="64" rx="8" fill="#1A3A1A" opacity="0.9"/>

  <rect x="168" y="568" width="584" height="64" rx="8" fill="#2A2010" opacity="0.9"/>
  <rect x="768" y="568" width="88" height="64" rx="8" fill="#1A3A1A" opacity="0.9"/>

  <!-- Layer 3: Location pins on occupied keys -->
  <!-- Pin on D (268,328) -->
  <ellipse cx="310" cy="392" rx="16" ry="6" fill="#00000044"/>
  <path d="M310 340 C295 340 282 353 282 368 C282 388 310 408 310 408 C310 408 338 388 338 368 C338 353 325 340 310 340Z" fill="#00E5FF" stroke="#FFFFFF" stroke-width="3"/>
  <circle cx="310" cy="368" r="8" fill="#FFFFFF"/>

  <!-- Pin on P (568,248) -->
  <ellipse cx="610" cy="312" rx="16" ry="6" fill="#00000044"/>
  <path d="M610 256 C595 256 582 269 582 284 C582 304 610 324 610 324 C610 324 638 304 638 284 C638 269 625 256 610 256Z" fill="#FF6B35" stroke="#FFFFFF" stroke-width="3"/>
  <circle cx="610" cy="284" r="8" fill="#FFFFFF"/>

  <!-- Pin on H (468,408) — red occupied -->
  <ellipse cx="510" cy="472" rx="16" ry="6" fill="#00000044"/>
  <path d="M510 416 C495 416 482 429 482 444 C482 464 510 484 510 484 C510 484 538 464 538 444 C538 429 525 416 510 416Z" fill="#EF5350" stroke="#FFFFFF" stroke-width="3"/>
  <circle cx="510" cy="444" r="8" fill="#FFFFFF"/>

  <!-- Title label -->
  <text x="512" y="730" text-anchor="middle" font-family="'Segoe UI',Arial,sans-serif" font-size="52" font-weight="bold" fill="#E8A030">Hotkey</text>
  <text x="512" y="790" text-anchor="middle" font-family="'Segoe UI',Arial,sans-serif" font-size="38" fill="#A07020">.Map</text>
</svg>
