<svg xmlns="http://www.w3.org/2000/svg" viewBox="0 0 1024 1024">
<rect x="80" y="80" width="864" height="864" rx="180" ry="180" fill="#000A14"/>
<!-- 컨셉: 즐겨찾기 별 링크 -->
<!-- 별 -->
<polygon points="512,200 568,370 750,370 606,476 660,646 512,540 364,646 418,476 274,370 456,370" fill="#1565C0"/>
<polygon points="512,240 558,386 726,386 596,476 642,618 512,524 382,618 428,476 298,386 466,386" fill="#000A14"/>
<polygon points="512,240 558,386 726,386 596,476 642,618 512,524 382,618 428,476 298,386 466,386" fill="#42A5F5" opacity="0.15"/>
<!-- 별 하이라이트 -->
<polygon points="512,240 558,386 726,386 596,476 642,618 512,524 382,618 428,476 298,386 466,386" fill="none" stroke="#42A5F5" stroke-width="20"/>
<!-- 링크 체인 (별 하단에 연결) -->
<path d="M 460 700 Q 440 720 440 745 Q 440 770 460 780 L 490 780 Q 510 780 510 758 L 510 730" fill="none" stroke="#42A5F5" stroke-width="24" stroke-linecap="round"/>
<path d="M 514 700 Q 534 720 534 745 Q 534 770 554 780 L 570 780 Q 590 780 590 758 L 590 730" fill="none" stroke="#42A5F5" stroke-width="24" stroke-linecap="round"/>
<!-- 연결 라인 -->
<line x1="490" y1="760" x2="555" y2="760" stroke="#1565C0" stroke-width="20"/>
<!-- 빛 효과 -->
<circle cx="512" cy="420" r="140" fill="#42A5F5" opacity="0.05"/>
</svg>
