<svg xmlns="http://www.w3.org/2000/svg" viewBox="0 0 1024 1024">
  <!-- Layer 1: Background dark navy -->
  <rect width="1024" height="1024" rx="190" fill="#1A1A2E"/>
  <!-- Layer 2: 4x3 category badge grid -->
  <!-- Row 1 -->
  <rect x="80" y="100" width="190" height="80" rx="14" fill="#E53935"/>
  <text x="175" y="151" font-family="Arial Black, sans-serif" font-size="38" font-weight="900" fill="#FFFFFF" text-anchor="middle">과학</text>
  <rect x="293" y="100" width="190" height="80" rx="14" fill="#1565C0"/>
  <text x="388" y="151" font-family="Arial Black, sans-serif" font-size="38" font-weight="900" fill="#FFFFFF" text-anchor="middle">역사</text>
  <rect x="506" y="100" width="190" height="80" rx="14" fill="#00838F"/>
  <text x="601" y="151" font-family="Arial Black, sans-serif" font-size="38" font-weight="900" fill="#FFFFFF" text-anchor="middle">IT</text>
  <rect x="719" y="100" width="225" height="80" rx="14" fill="#6A1B9A"/>
  <text x="831" y="151" font-family="Arial Black, sans-serif" font-size="36" font-weight="900" fill="#FFFFFF" text-anchor="middle">스포츠</text>
  <!-- Row 2 -->
  <rect x="80" y="210" width="190" height="80" rx="14" fill="#EF6C00"/>
  <text x="175" y="261" font-family="Arial Black, sans-serif" font-size="38" font-weight="900" fill="#FFFFFF" text-anchor="middle">영화</text>
  <rect x="293" y="210" width="190" height="80" rx="14" fill="#C62828"/>
  <text x="388" y="261" font-family="Arial Black, sans-serif" font-size="38" font-weight="900" fill="#FFFFFF" text-anchor="middle">음악</text>
  <rect x="506" y="210" width="190" height="80" rx="14" fill="#2E7D32"/>
  <text x="601" y="261" font-family="Arial Black, sans-serif" font-size="38" font-weight="900" fill="#FFFFFF" text-anchor="middle">음식</text>
  <rect x="719" y="210" width="225" height="80" rx="14" fill="#1565C0"/>
  <text x="831" y="261" font-family="Arial Black, sans-serif" font-size="38" font-weight="900" fill="#FFFFFF" text-anchor="middle">지리</text>
  <!-- Row 3 -->
  <rect x="80" y="320" width="190" height="80" rx="14" fill="#AD1457"/>
  <text x="175" y="371" font-family="Arial Black, sans-serif" font-size="38" font-weight="900" fill="#FFFFFF" text-anchor="middle">수학</text>
  <rect x="293" y="320" width="190" height="80" rx="14" fill="#F57F17"/>
  <text x="388" y="371" font-family="Arial Black, sans-serif" font-size="38" font-weight="900" fill="#FFFFFF" text-anchor="middle">예술</text>
  <rect x="506" y="320" width="190" height="80" rx="14" fill="#4527A0"/>
  <text x="601" y="371" font-family="Arial Black, sans-serif" font-size="38" font-weight="900" fill="#FFFFFF" text-anchor="middle">게임</text>
  <rect x="719" y="320" width="225" height="80" rx="14" fill="#37474F"/>
  <text x="831" y="371" font-family="Arial Black, sans-serif" font-size="34" font-weight="900" fill="#FFFFFF" text-anchor="middle">일반상식</text>
  <!-- Layer 3: Title -->
  <rect x="100" y="470" width="824" height="140" rx="24" fill="#7B1FA2"/>
  <text x="512" y="556" font-family="Arial Black, sans-serif" font-size="90" font-weight="900" fill="#FFFFFF" text-anchor="middle">TRIVIA</text>
  <!-- Score + streak -->
  <rect x="100" y="650" width="824" height="100" rx="20" fill="#311B92"/>
  <text x="512" y="714" font-family="Arial Black, sans-serif" font-size="62" font-weight="900" fill="#FFD740" text-anchor="middle">CAST</text>
</svg>
