<svg xmlns="http://www.w3.org/2000/svg" viewBox="0 0 512 512">
  <defs>
    <linearGradient id="bg" x1="0%" y1="0%" x2="100%" y2="100%">
      <stop offset="0%" stop-color="#1E293B"/>
      <stop offset="100%" stop-color="#334155"/>
    </linearGradient>
    <linearGradient id="header" x1="0%" y1="0%" x2="100%" y2="0%">
      <stop offset="0%" stop-color="#3B82F6"/>
      <stop offset="100%" stop-color="#6366F1"/>
    </linearGradient>
  </defs>
  <rect width="512" height="512" rx="80" fill="url(#bg)"/>
  <!-- MD heading above table -->
  <rect x="60" y="70" width="16" height="18" rx="3" fill="#3B82F6"/>
  <rect x="82" y="70" width="160" height="18" rx="5" fill="white" opacity="0.6"/>
  <rect x="60" y="100" width="380" height="8" rx="4" fill="white" opacity="0.2"/>
  <!-- MD Table -->
  <!-- Header row -->
  <rect x="60" y="120" width="390" height="44" rx="8" fill="url(#header)" opacity="0.9"/>
  <line x1="190" y1="120" x2="190" y2="164" stroke="white" stroke-width="1" opacity="0.3"/>
  <line x1="320" y1="120" x2="320" y2="164" stroke="white" stroke-width="1" opacity="0.3"/>
  <rect x="76" y="136" width="80" height="10" rx="4" fill="white" opacity="0.9"/>
  <rect x="206" y="136" width="80" height="10" rx="4" fill="white" opacity="0.9"/>
  <rect x="336" y="136" width="80" height="10" rx="4" fill="white" opacity="0.9"/>
  <!-- Separator -->
  <rect x="60" y="164" width="390" height="3" rx="1" fill="#3B82F6" opacity="0.5"/>
  <!-- Data row 1 -->
  <rect x="60" y="167" width="390" height="40" rx="0" fill="white" opacity="0.04"/>
  <line x1="190" y1="167" x2="190" y2="207" stroke="#475569" stroke-width="1"/>
  <line x1="320" y1="167" x2="320" y2="207" stroke="#475569" stroke-width="1"/>
  <rect x="76" y="182" width="70" height="9" rx="3" fill="#94A3B8" opacity="0.7"/>
  <rect x="206" y="182" width="60" height="9" rx="3" fill="#94A3B8" opacity="0.7"/>
  <rect x="336" y="182" width="80" height="9" rx="3" fill="#94A3B8" opacity="0.7"/>
  <!-- Data row 2 -->
  <rect x="60" y="207" width="390" height="40" rx="0" fill="white" opacity="0.07"/>
  <line x1="190" y1="207" x2="190" y2="247" stroke="#475569" stroke-width="1"/>
  <line x1="320" y1="207" x2="320" y2="247" stroke="#475569" stroke-width="1"/>
  <rect x="76" y="222" width="90" height="9" rx="3" fill="#94A3B8" opacity="0.7"/>
  <rect x="206" y="222" width="50" height="9" rx="3" fill="#94A3B8" opacity="0.7"/>
  <rect x="336" y="222" width="70" height="9" rx="3" fill="#94A3B8" opacity="0.7"/>
  <!-- Data row 3 -->
  <rect x="60" y="247" width="390" height="40" rx="0" fill="white" opacity="0.04"/>
  <line x1="190" y1="247" x2="190" y2="287" stroke="#475569" stroke-width="1"/>
  <line x1="320" y1="247" x2="320" y2="287" stroke="#475569" stroke-width="1"/>
  <rect x="76" y="262" width="75" height="9" rx="3" fill="#94A3B8" opacity="0.7"/>
  <rect x="206" y="262" width="85" height="9" rx="3" fill="#94A3B8" opacity="0.7"/>
  <rect x="336" y="262" width="55" height="9" rx="3" fill="#94A3B8" opacity="0.7"/>
  <!-- Data row 4 -->
  <rect x="60" y="287" width="390" height="40" rx="0" fill="white" opacity="0.07"/>
  <line x1="190" y1="287" x2="190" y2="327" stroke="#475569" stroke-width="1"/>
  <line x1="320" y1="287" x2="320" y2="327" stroke="#475569" stroke-width="1"/>
  <rect x="76" y="302" width="85" height="9" rx="3" fill="#94A3B8" opacity="0.7"/>
  <rect x="206" y="302" width="65" height="9" rx="3" fill="#94A3B8" opacity="0.7"/>
  <rect x="336" y="302" width="90" height="9" rx="3" fill="#94A3B8" opacity="0.7"/>
  <!-- Table border -->
  <rect x="60" y="120" width="390" height="207" rx="8" fill="none" stroke="#3B82F6" stroke-width="2" opacity="0.5"/>
  <!-- More content below -->
  <rect x="60" y="350" width="380" height="8" rx="4" fill="white" opacity="0.2"/>
  <rect x="60" y="370" width="280" height="8" rx="4" fill="white" opacity="0.15"/>
  <!-- Blockquote -->
  <rect x="60" y="400" width="4" height="60" rx="2" fill="#3B82F6"/>
  <rect x="74" y="408" width="280" height="8" rx="4" fill="white" opacity="0.25"/>
  <rect x="74" y="424" width="220" height="8" rx="4" fill="white" opacity="0.2"/>
  <rect x="74" y="440" width="250" height="8" rx="4" fill="white" opacity="0.15"/>
</svg>
