<svg viewBox="0 0 1024 1024" xmlns="http://www.w3.org/2000/svg">
  <defs>
    <linearGradient id="bg" x1="0" y1="0" x2="1" y2="1">
      <stop offset="0%" stop-color="#1DE9B6"/>
      <stop offset="100%" stop-color="#0288D1"/>
    </linearGradient>
  </defs>
  <!-- Layer 1: Background -->
  <rect width="1024" height="1024" rx="200" fill="url(#bg)"/>
  <!-- Layer 2: 3×3 white cells -->
  <rect x="126" y="141" width="240" height="220" rx="22" fill="white" opacity="0.92"/>
  <rect x="392" y="141" width="240" height="220" rx="22" fill="white" opacity="0.92"/>
  <rect x="658" y="141" width="240" height="220" rx="22" fill="white" opacity="0.92"/>
  <rect x="126" y="387" width="240" height="220" rx="22" fill="white" opacity="0.92"/>
  <rect x="392" y="387" width="240" height="220" rx="22" fill="white" opacity="0.92"/>
  <rect x="658" y="387" width="240" height="220" rx="22" fill="white" opacity="0.92"/>
  <rect x="126" y="633" width="240" height="220" rx="22" fill="white" opacity="0.92"/>
  <rect x="392" y="633" width="240" height="220" rx="22" fill="white" opacity="0.92"/>
  <rect x="658" y="633" width="240" height="220" rx="22" fill="white" opacity="0.92"/>
  <!-- Layer 3: Special characters -->
  <text x="246" y="265" text-anchor="middle" dominant-baseline="middle" font-size="128" font-family="Segoe UI,Arial,sans-serif" fill="#E53935">©</text>
  <text x="512" y="265" text-anchor="middle" dominant-baseline="middle" font-size="128" font-family="Segoe UI,Arial,sans-serif" fill="#8E24AA">∑</text>
  <text x="778" y="265" text-anchor="middle" dominant-baseline="middle" font-size="128" font-family="Segoe UI,Arial,sans-serif" fill="#F57C00">→</text>
  <text x="246" y="511" text-anchor="middle" dominant-baseline="middle" font-size="128" font-family="Segoe UI,Arial,sans-serif" fill="#2E7D32">★</text>
  <text x="512" y="511" text-anchor="middle" dominant-baseline="middle" font-size="128" font-family="Segoe UI,Arial,sans-serif" fill="#1565C0">²</text>
  <text x="778" y="511" text-anchor="middle" dominant-baseline="middle" font-size="128" font-family="Segoe UI,Arial,sans-serif" fill="#C62828">€</text>
  <text x="246" y="757" text-anchor="middle" dominant-baseline="middle" font-size="128" font-family="Segoe UI,Arial,sans-serif" fill="#E65100">♪</text>
  <text x="512" y="757" text-anchor="middle" dominant-baseline="middle" font-size="128" font-family="Segoe UI,Arial,sans-serif" fill="#00838F">%</text>
  <text x="778" y="757" text-anchor="middle" dominant-baseline="middle" font-size="128" font-family="Segoe UI,Arial,sans-serif" fill="#558B2F">∞</text>
</svg>
