<svg xmlns="http://www.w3.org/2000/svg" viewBox="0 0 512 512">
  <defs>
    <linearGradient id="bg" x1="0%" y1="0%" x2="100%" y2="100%">
      <stop offset="0%" stop-color="#0a0a0a"/>
      <stop offset="100%" stop-color="#1a1a2e"/>
    </linearGradient>
  </defs>
  <rect width="512" height="512" rx="80" fill="url(#bg)"/>
  <!-- terminal window -->
  <rect x="72" y="80" width="368" height="360" rx="10" fill="#0d0d0d" stroke="#2a2a4a" stroke-width="2"/>
  <!-- title bar -->
  <rect x="72" y="80" width="368" height="34" rx="10" fill="#1a1a2e"/>
  <circle cx="100" cy="97" r="7" fill="#ff5f56"/>
  <circle cx="122" cy="97" r="7" fill="#ffbd2e"/>
  <circle cx="144" cy="97" r="7" fill="#27c93f"/>
  <text x="256" y="97" font-family="monospace" font-size="14" fill="#4a4a6a" text-anchor="middle" dominant-baseline="central">diff output</text>
  <!-- terminal content -->
  <text x="90" y="140" font-family="'Courier New',monospace" font-size="14" fill="#6b6b9a">@@ -12,7 +12,7 @@</text>
  <text x="90" y="162" font-family="'Courier New',monospace" font-size="14" fill="#aaaacc"> function init() {</text>
  <rect x="86" y="170" width="340" height="20" fill="#3d0000"/>
  <text x="90" y="182" font-family="'Courier New',monospace" font-size="14" fill="#ff6b6b">-  const x = old_val;</text>
  <rect x="86" y="192" width="340" height="20" fill="#003d00"/>
  <text x="90" y="204" font-family="'Courier New',monospace" font-size="14" fill="#4ade80">+  const x = new_val;</text>
  <text x="90" y="226" font-family="'Courier New',monospace" font-size="14" fill="#aaaacc">   return process(x);</text>
  <text x="90" y="248" font-family="'Courier New',monospace" font-size="14" fill="#aaaacc"> }</text>
  <rect x="86" y="256" width="340" height="20" fill="#3d0000"/>
  <text x="90" y="268" font-family="'Courier New',monospace" font-size="14" fill="#ff6b6b">-  legacy_fn();</text>
  <rect x="86" y="278" width="340" height="20" fill="#003d00"/>
  <text x="90" y="290" font-family="'Courier New',monospace" font-size="14" fill="#4ade80">+  modern_fn();</text>
  <!-- cursor blink -->
  <rect x="90" y="320" width="10" height="18" fill="#ffffff" opacity="0.8"/>
  <!-- stats bar -->
  <rect x="72" y="400" width="368" height="40" rx="4" fill="#111122"/>
  <text x="110" y="420" font-family="monospace" font-size="13" fill="#ff6b6b">-2 removed</text>
  <text x="256" y="420" font-family="monospace" font-size="13" fill="#4ade80" text-anchor="middle">+2 added</text>
  <text x="400" y="420" font-family="monospace" font-size="13" fill="#6b6b9a" text-anchor="middle">0 conflicts</text>
</svg>
