<svg xmlns="http://www.w3.org/2000/svg" viewBox="0 0 1024 1024">
<rect x="80" y="80" width="864" height="864" rx="180" ry="180" fill="#000A14"/>
<!-- 컨셉: 화살표 + 링크 연결 -->
<!-- 왼쪽 노드 -->
<circle cx="280" cy="400" r="72" fill="#1565C0"/>
<circle cx="280" cy="400" r="50" fill="#000A14"/>
<!-- 오른쪽 노드 -->
<circle cx="744" cy="620" r="72" fill="#1565C0"/>
<circle cx="744" cy="620" r="50" fill="#000A14"/>
<!-- 연결 곡선 -->
<path d="M 340 420 Q 512 360 684 600" fill="none" stroke="#42A5F5" stroke-width="32" stroke-linecap="round"/>
<!-- 화살표 머리 -->
<path d="M 648 580 L 692 604 L 668 648" fill="none" stroke="#42A5F5" stroke-width="28" stroke-linecap="round" stroke-linejoin="round"/>
<!-- 단축 꺾임 표시 (지름길) -->
<path d="M 280 472 L 280 640 Q 280 680 320 680 L 744 680" fill="none" stroke="#1565C0" stroke-width="20" stroke-linecap="round" stroke-linejoin="round" stroke-dasharray="18 12" opacity="0.5"/>
<!-- 링크 아이콘 (중앙) -->
<path d="M 470 490 Q 490 460 530 470 L 554 494 Q 564 534 534 554 Q 514 564 494 554" fill="none" stroke="#42A5F5" stroke-width="22" stroke-linecap="round"/>
<path d="M 494 554 Q 474 584 434 574 L 410 550 Q 400 510 430 490 Q 450 480 470 490" fill="none" stroke="#42A5F5" stroke-width="22" stroke-linecap="round"/>
</svg>
