<svg xmlns="http://www.w3.org/2000/svg" viewBox="0 0 1024 1024">
  <defs>
    <radialGradient id="bg04" cx="20%" cy="20%" r="90%">
      <stop offset="0%" stop-color="#0A3A20"/>
      <stop offset="60%" stop-color="#040E08"/>
      <stop offset="100%" stop-color="#020604"/>
    </radialGradient>
    <clipPath id="frame04">
      <rect width="1024" height="1024" rx="190"/>
    </clipPath>
  </defs>
  <!-- Layer 1: Dark green background (mint flood emanating from top-left) -->
  <rect width="1024" height="1024" rx="190" fill="url(#bg04)"/>
  <g clip-path="url(#frame04)">
    <!-- Layer 2: 8x8 grid showing flood-fill with green taking over -->
    <!-- Cell: 112px, gap: 6px. 8 cols = 8*112+7*6=938, start x=43, y=80 -->
    <!-- Colors: G=mint, all others -->
    <!-- Row 0: all Green (flood complete on row 0) -->
    <rect x="43" y="80" width="112" height="112" rx="6" fill="#A6E3A1"/>
    <rect x="161" y="80" width="112" height="112" rx="6" fill="#A6E3A1"/>
    <rect x="279" y="80" width="112" height="112" rx="6" fill="#A6E3A1"/>
    <rect x="397" y="80" width="112" height="112" rx="6" fill="#A6E3A1"/>
    <rect x="515" y="80" width="112" height="112" rx="6" fill="#A6E3A1"/>
    <rect x="633" y="80" width="112" height="112" rx="6" fill="#A6E3A1"/>
    <rect x="751" y="80" width="112" height="112" rx="6" fill="#A6E3A1"/>
    <rect x="869" y="80" width="112" height="112" rx="6" fill="#A6E3A1"/>

    <!-- Row 1: G G G G G colored colored colored -->
    <rect x="43" y="198" width="112" height="112" rx="6" fill="#A6E3A1"/>
    <rect x="161" y="198" width="112" height="112" rx="6" fill="#A6E3A1"/>
    <rect x="279" y="198" width="112" height="112" rx="6" fill="#A6E3A1"/>
    <rect x="397" y="198" width="112" height="112" rx="6" fill="#A6E3A1"/>
    <rect x="515" y="198" width="112" height="112" rx="6" fill="#A6E3A1"/>
    <rect x="633" y="198" width="112" height="112" rx="6" fill="#FAB387"/>
    <rect x="751" y="198" width="112" height="112" rx="6" fill="#89DCEB"/>
    <rect x="869" y="198" width="112" height="112" rx="6" fill="#CBA6F7"/>

    <!-- Row 2: G G G G F B M R -->
    <rect x="43" y="316" width="112" height="112" rx="6" fill="#A6E3A1"/>
    <rect x="161" y="316" width="112" height="112" rx="6" fill="#A6E3A1"/>
    <rect x="279" y="316" width="112" height="112" rx="6" fill="#A6E3A1"/>
    <rect x="397" y="316" width="112" height="112" rx="6" fill="#A6E3A1"/>
    <rect x="515" y="316" width="112" height="112" rx="6" fill="#FAB387"/>
    <rect x="633" y="316" width="112" height="112" rx="6" fill="#89B4FA"/>
    <rect x="751" y="316" width="112" height="112" rx="6" fill="#F38BA8"/>
    <rect x="869" y="316" width="112" height="112" rx="6" fill="#89DCEB"/>

    <!-- Row 3: G G G B R M S F -->
    <rect x="43" y="434" width="112" height="112" rx="6" fill="#A6E3A1"/>
    <rect x="161" y="434" width="112" height="112" rx="6" fill="#A6E3A1"/>
    <rect x="279" y="434" width="112" height="112" rx="6" fill="#A6E3A1"/>
    <rect x="397" y="434" width="112" height="112" rx="6" fill="#89B4FA"/>
    <rect x="515" y="434" width="112" height="112" rx="6" fill="#F38BA8"/>
    <rect x="633" y="434" width="112" height="112" rx="6" fill="#CBA6F7"/>
    <rect x="751" y="434" width="112" height="112" rx="6" fill="#89DCEB"/>
    <rect x="869" y="434" width="112" height="112" rx="6" fill="#FAB387"/>

    <!-- Row 4: G G R S F M B R -->
    <rect x="43" y="552" width="112" height="112" rx="6" fill="#A6E3A1"/>
    <rect x="161" y="552" width="112" height="112" rx="6" fill="#A6E3A1"/>
    <rect x="279" y="552" width="112" height="112" rx="6" fill="#F38BA8"/>
    <rect x="397" y="552" width="112" height="112" rx="6" fill="#89DCEB"/>
    <rect x="515" y="552" width="112" height="112" rx="6" fill="#FAB387"/>
    <rect x="633" y="552" width="112" height="112" rx="6" fill="#CBA6F7"/>
    <rect x="751" y="552" width="112" height="112" rx="6" fill="#89B4FA"/>
    <rect x="869" y="552" width="112" height="112" rx="6" fill="#F38BA8"/>

    <!-- Row 5: M B R S G F M B -->
    <rect x="43" y="670" width="112" height="112" rx="6" fill="#CBA6F7"/>
    <rect x="161" y="670" width="112" height="112" rx="6" fill="#89B4FA"/>
    <rect x="279" y="670" width="112" height="112" rx="6" fill="#F38BA8"/>
    <rect x="397" y="670" width="112" height="112" rx="6" fill="#89DCEB"/>
    <rect x="515" y="670" width="112" height="112" rx="6" fill="#A6E3A1"/>
    <rect x="633" y="670" width="112" height="112" rx="6" fill="#FAB387"/>
    <rect x="751" y="670" width="112" height="112" rx="6" fill="#CBA6F7"/>
    <rect x="869" y="670" width="112" height="112" rx="6" fill="#89B4FA"/>

    <!-- Row 6: R M S B R G F R -->
    <rect x="43" y="788" width="112" height="112" rx="6" fill="#F38BA8"/>
    <rect x="161" y="788" width="112" height="112" rx="6" fill="#CBA6F7"/>
    <rect x="279" y="788" width="112" height="112" rx="6" fill="#89DCEB"/>
    <rect x="397" y="788" width="112" height="112" rx="6" fill="#89B4FA"/>
    <rect x="515" y="788" width="112" height="112" rx="6" fill="#F38BA8"/>
    <rect x="633" y="788" width="112" height="112" rx="6" fill="#A6E3A1"/>
    <rect x="751" y="788" width="112" height="112" rx="6" fill="#FAB387"/>
    <rect x="869" y="788" width="112" height="112" rx="6" fill="#F38BA8"/>

    <!-- Layer 3: Diagonal flood boundary highlight -->
    <!-- Shows the "wavefront" where green is taking over -->
    <polyline points="43,434 43,316 279,316 279,198 633,198 633,80" fill="none" stroke="#A6E3A1" stroke-width="10" stroke-linecap="round" stroke-linejoin="round" opacity="0.75"/>

    <!-- Green glow on the filled area -->
    <rect x="39" y="76" width="452" height="458" rx="6" fill="#A6E3A1" opacity="0.07"/>

    <!-- Move counter (top overlay) -->
    <text x="900" y="970" font-family="'Segoe UI',Arial" font-size="40" font-weight="900" fill="#A6E3A1" text-anchor="end" opacity="0.8">이동: 12 / 30</text>
  </g>
</svg>
