<svg xmlns="http://www.w3.org/2000/svg" viewBox="0 0 1024 1024">
  <defs>
    <linearGradient id="bg02" x1="0" y1="0" x2="1" y2="1">
      <stop offset="0%" stop-color="#E3F2FD"/>
      <stop offset="100%" stop-color="#1565C0"/>
    </linearGradient>
  </defs>
  <!-- Layer 1: 배경 -->
  <rect width="1024" height="1024" rx="190" fill="url(#bg02)"/>
  <!-- Layer 2: 국기 격자 (2×2) — 각각 단순화된 국기 색상 표현 -->
  <!-- 국기 1 — 일장기 스타일 (흰+빨강) -->
  <rect x="140" y="180" width="320" height="230" rx="16" fill="white"/>
  <circle cx="300" cy="295" r="72" fill="#E53935"/>
  <!-- 국기 2 — 프랑스 스타일 (파·흰·빨) -->
  <rect x="564" y="180" width="320" height="230" rx="16" fill="white"/>
  <rect x="564" y="180" width="107" height="230" rx="0" fill="#1565C0"/>
  <rect x="564" y="180" width="107" height="230" rx="16" fill="#1565C0"/>
  <rect x="777" y="180" width="107" height="230" rx="0" fill="#E53935"/>
  <path d="M777,180 H884 Q884,180 884,196 V394 Q884,410 884,410 H777 Z" fill="#E53935"/>
  <!-- 국기 3 — 독일 스타일 (흑·적·금) -->
  <rect x="140" y="614" width="320" height="230" rx="16" fill="#FDD835"/>
  <rect x="140" y="614" width="320" height="77" rx="16" fill="#212121"/>
  <rect x="140" y="614" width="320" height="77" rx="0" fill="#212121"/>
  <path d="M140,614 H460 V691 H140 Z" fill="#212121"/>
  <rect x="140" y="691" width="320" height="76" fill="#E53935"/>
  <!-- 국기 4 — 브라질 스타일 (녹+노랑+파랑) -->
  <rect x="564" y="614" width="320" height="230" rx="16" fill="#4CAF50"/>
  <polygon points="724,640 858,729 724,818 590,729" fill="#FDD835"/>
  <circle cx="724" cy="729" r="46" fill="#1565C0"/>
  <!-- Layer 3: 물음표 오버레이 (중앙) -->
  <circle cx="512" cy="512" r="72" fill="white" opacity="0.95"/>
  <text x="512" y="548" font-family="Arial Black, Arial, sans-serif" font-size="96" font-weight="900" fill="#1565C0" text-anchor="middle">?</text>
</svg>
