<svg xmlns="http://www.w3.org/2000/svg" viewBox="0 0 1024 1024">
  <rect x="80" y="80" width="864" height="864" rx="180" fill="#000A08"/>
  <!-- 로켓 몸체 -->
  <path d="M512 200 Q600 280 620 440 L620 660 Q620 700 512 740 Q404 700 404 660 L404 440 Q424 280 512 200 Z" fill="#00695C"/>
  <!-- 로켓 창문 -->
  <circle cx="512" cy="400" r="72" fill="#000A08"/>
  <circle cx="512" cy="400" r="48" fill="#4DB6AC" opacity="0.5"/>
  <!-- 로켓 날개 (좌) -->
  <path d="M404 580 L260 700 L404 680 Z" fill="#00695C" opacity="0.8"/>
  <!-- 로켓 날개 (우) -->
  <path d="M620 580 L764 700 L620 680 Z" fill="#00695C" opacity="0.8"/>
  <!-- 로켓 불꽃 -->
  <path d="M440 740 Q512 840 512 900 Q512 840 584 740" fill="#4DB6AC" opacity="0.7"/>
  <path d="M460 740 Q512 820 512 880 Q512 820 564 740" fill="#4DB6AC" opacity="0.4"/>
  <!-- 속도선 -->
  <line x1="200" y1="480" x2="340" y2="480" stroke="#4DB6AC" stroke-width="16" stroke-linecap="round" opacity="0.4"/>
  <line x1="180" y1="540" x2="340" y2="540" stroke="#4DB6AC" stroke-width="12" stroke-linecap="round" opacity="0.3"/>
</svg>
