<svg xmlns="http://www.w3.org/2000/svg" viewBox="0 0 1024 1024">
  <rect x="80" y="80" width="864" height="864" rx="180" fill="#0A0010"/>
  <!-- 마법봉 -->
  <line x1="680" y1="200" x2="280" y2="760" stroke="#6A1B9A" stroke-width="36" stroke-linecap="round"/>
  <polygon points="700,180 720,244 780,220 742,274 762,334 700,298 638,334 658,274 618,220 678,244" fill="#CE93D8"/>
  <!-- 변환 파티클: 왼쪽 (사진 느낌) -->
  <rect x="200" y="380" width="140" height="108" rx="12" fill="#6A1B9A" opacity="0.5" stroke="#6A1B9A" stroke-width="16"/>
  <circle cx="235" cy="410" r="18" fill="#6A1B9A" opacity="0.7"/>
  <!-- 변환 파티클: 오른쪽 (만화 느낌) -->
  <rect x="660" y="580" width="140" height="108" rx="4" fill="none" stroke="#CE93D8" stroke-width="20"/>
  <!-- 만화 스타일 선들 -->
  <line x1="680" y1="600" x2="780" y2="600" stroke="#CE93D8" stroke-width="14" stroke-linecap="round" opacity="0.8"/>
  <line x1="680" y1="630" x2="760" y2="630" stroke="#CE93D8" stroke-width="10" stroke-linecap="round" opacity="0.6"/>
  <!-- 마법 스파크 -->
  <circle cx="440" cy="440" r="20" fill="#CE93D8" opacity="0.7"/>
  <circle cx="380" cy="520" r="14" fill="#CE93D8" opacity="0.5"/>
  <circle cx="500" cy="500" r="12" fill="#6A1B9A" opacity="0.7"/>
  <!-- 액션선 -->
  <line x1="520" y1="360" x2="600" y2="280" stroke="#CE93D8" stroke-width="10" stroke-linecap="round" opacity="0.4"/>
  <line x1="540" y1="400" x2="640" y2="340" stroke="#CE93D8" stroke-width="8" stroke-linecap="round" opacity="0.3"/>
</svg>
