<svg xmlns="http://www.w3.org/2000/svg" viewBox="0 0 512 512">
  <defs>
    <linearGradient id="bg" x1="0%" y1="0%" x2="100%" y2="100%">
      <stop offset="0%" stop-color="#001A10"/>
      <stop offset="100%" stop-color="#003320"/>
    </linearGradient>
    <linearGradient id="gem" x1="0%" y1="0%" x2="100%" y2="100%">
      <stop offset="0%" stop-color="#00FF88"/>
      <stop offset="100%" stop-color="#006644"/>
    </linearGradient>
  </defs>
  <rect width="512" height="512" rx="80" fill="url(#bg)"/>
  <!-- Gemstone / diamond mosaic shape -->
  <polygon points="256,80 380,200 380,320 256,440 132,320 132,200" fill="none" stroke="#00FF88" stroke-width="3" opacity="0.5"/>
  <!-- Pixel tiles inside gem -->
  <rect x="220" y="140" width="36" height="36" rx="2" fill="#00FF88" opacity="0.9"/>
  <rect x="260" y="140" width="36" height="36" rx="2" fill="#00CC66" opacity="0.9"/>
  <rect x="184" y="180" width="36" height="36" rx="2" fill="#00AA44"/>
  <rect x="224" y="180" width="36" height="36" rx="2" fill="#00FF88" opacity="0.8"/>
  <rect x="264" y="180" width="36" height="36" rx="2" fill="#33FFAA"/>
  <rect x="304" y="180" width="36" height="36" rx="2" fill="#00BB55"/>
  <rect x="168" y="220" width="36" height="36" rx="2" fill="#009944"/>
  <rect x="208" y="220" width="36" height="36" rx="2" fill="#33FFAA"/>
  <rect x="248" y="220" width="36" height="36" rx="2" fill="#00FF88" opacity="0.9"/>
  <rect x="288" y="220" width="36" height="36" rx="2" fill="#00CC66"/>
  <rect x="328" y="220" width="36" height="36" rx="2" fill="#00AA44"/>
  <rect x="184" y="260" width="36" height="36" rx="2" fill="#00BB55"/>
  <rect x="224" y="260" width="36" height="36" rx="2" fill="#009944"/>
  <rect x="264" y="260" width="36" height="36" rx="2" fill="#33FFAA"/>
  <rect x="304" y="260" width="36" height="36" rx="2" fill="#00FF88" opacity="0.8"/>
  <rect x="220" y="300" width="36" height="36" rx="2" fill="#006633"/>
  <rect x="260" y="300" width="36" height="36" rx="2" fill="#009944"/>
  <!-- Gem highlight -->
  <polygon points="256,80 380,200 256,200" fill="#00FF88" opacity="0.1"/>
  <!-- Title -->
  <text x="256" y="460" text-anchor="middle" font-family="sans-serif" font-size="22" font-weight="bold" fill="#00FF88">MOSAIC.FORGE</text>
</svg>