<svg xmlns="http://www.w3.org/2000/svg" viewBox="0 0 1024 1024">
  <rect x="80" y="80" width="864" height="864" rx="180" fill="#000A10"/>
  <!-- 로켓 본체 -->
  <ellipse cx="512" cy="480" rx="90" ry="200" fill="#01579B" stroke="#29B6F6" stroke-width="14"/>
  <!-- 로켓 상단 뾰족 -->
  <path d="M422 320 Q512 180 602 320 Z" fill="#29B6F6"/>
  <!-- 날개 왼쪽 -->
  <path d="M422 560 L320 680 L422 640 Z" fill="#01579B" stroke="#29B6F6" stroke-width="10"/>
  <!-- 날개 오른쪽 -->
  <path d="M602 560 L704 680 L602 640 Z" fill="#01579B" stroke="#29B6F6" stroke-width="10"/>
  <!-- 창문 -->
  <circle cx="512" cy="460" r="50" fill="#000A10" stroke="#29B6F6" stroke-width="10"/>
  <circle cx="512" cy="460" r="28" fill="#29B6F6" opacity="0.5"/>
  <!-- 불꽃 -->
  <path d="M462 680 Q512 760 562 680 Q540 720 512 750 Q484 720 462 680 Z" fill="#29B6F6"/>
  <path d="M472 680 Q512 740 552 680 Q535 710 512 730 Q489 710 472 680 Z" fill="#29B6F6" opacity="0.5"/>
  <!-- 시계 (작은, 오른쪽 상단) -->
  <circle cx="760" cy="260" r="90" fill="#01579B" stroke="#29B6F6" stroke-width="12"/>
  <circle cx="760" cy="260" r="65" fill="#000A10"/>
  <line x1="760" y1="260" x2="760" y2="200" stroke="#29B6F6" stroke-width="10" stroke-linecap="round"/>
  <line x1="760" y1="260" x2="800" y2="280" stroke="#29B6F6" stroke-width="8" stroke-linecap="round"/>
  <circle cx="760" cy="260" r="10" fill="#29B6F6"/>
</svg>
