<svg xmlns="http://www.w3.org/2000/svg" viewBox="0 0 1024 1024">
  <rect x="80" y="80" width="864" height="864" rx="180" fill="#000A10"/>
  <!-- 달력 -->
  <rect x="200" y="300" width="380" height="360" rx="24" fill="#01579B" stroke="#29B6F6" stroke-width="14"/>
  <rect x="200" y="300" width="380" height="80" rx="24" fill="#01579B"/>
  <rect x="200" y="340" width="380" height="40" fill="#01579B"/>
  <!-- 달력 상단 바 -->
  <rect x="200" y="300" width="380" height="72" rx="24" fill="#0277BD"/>
  <rect x="200" y="352" width="380" height="20" fill="#0277BD"/>
  <!-- 달력 고리 -->
  <rect x="290" y="268" width="28" height="60" rx="14" fill="#29B6F6"/>
  <rect x="460" y="268" width="28" height="60" rx="14" fill="#29B6F6"/>
  <!-- 날짜 칸 -->
  <rect x="222" y="398" width="46" height="40" rx="6" fill="#01579B" stroke="#29B6F6" stroke-width="3"/>
  <rect x="284" y="398" width="46" height="40" rx="6" fill="#01579B" stroke="#29B6F6" stroke-width="3"/>
  <rect x="346" y="398" width="46" height="40" rx="6" fill="#29B6F6" stroke="#29B6F6" stroke-width="3"/>
  <rect x="408" y="398" width="46" height="40" rx="6" fill="#01579B" stroke="#29B6F6" stroke-width="3"/>
  <rect x="470" y="398" width="46" height="40" rx="6" fill="#01579B" stroke="#29B6F6" stroke-width="3"/>
  <rect x="222" y="454" width="46" height="40" rx="6" fill="#01579B" stroke="#29B6F6" stroke-width="3"/>
  <rect x="284" y="454" width="46" height="40" rx="6" fill="#01579B" stroke="#29B6F6" stroke-width="3"/>
  <!-- 시계 -->
  <circle cx="680" cy="560" r="160" fill="#000A10" stroke="#29B6F6" stroke-width="18"/>
  <circle cx="680" cy="560" r="130" fill="#01579B"/>
  <circle cx="680" cy="560" r="14" fill="#29B6F6"/>
  <!-- 시침 분침 -->
  <line x1="680" y1="560" x2="680" y2="460" stroke="#29B6F6" stroke-width="16" stroke-linecap="round"/>
  <line x1="680" y1="560" x2="760" y2="600" stroke="#29B6F6" stroke-width="12" stroke-linecap="round"/>
  <!-- 시계 눈금 -->
  <line x1="680" y1="445" x2="680" y2="465" stroke="#29B6F6" stroke-width="8" stroke-linecap="round"/>
  <line x1="680" y1="655" x2="680" y2="675" stroke="#29B6F6" stroke-width="8" stroke-linecap="round"/>
  <line x1="565" y1="560" x2="585" y2="560" stroke="#29B6F6" stroke-width="8" stroke-linecap="round"/>
  <line x1="775" y1="560" x2="795" y2="560" stroke="#29B6F6" stroke-width="8" stroke-linecap="round"/>
</svg>
