<svg xmlns="http://www.w3.org/2000/svg" viewBox="0 0 1024 1024">
  <defs>
    <clipPath id="c_cc05">
      <rect width="1024" height="1024" rx="190"/>
    </clipPath>
  </defs>
  <!-- Layer 1: Teal background -->
  <rect width="1024" height="1024" rx="190" fill="#0D9488"/>
  <g clip-path="url(#c_cc05)">
    <!-- Layer 2: Crossword grid (3x3) classic B&W style -->
    <!-- Row 1 -->
    <rect x="152" y="152" width="212" height="212" rx="14" fill="white"/>
    <rect x="406" y="152" width="212" height="212" rx="14" fill="#0A3330"/>
    <rect x="660" y="152" width="212" height="212" rx="14" fill="white"/>
    <!-- Row 2 -->
    <rect x="152" y="406" width="212" height="212" rx="14" fill="white"/>
    <rect x="406" y="406" width="212" height="212" rx="14" fill="white"/>
    <rect x="660" y="406" width="212" height="212" rx="14" fill="white"/>
    <!-- Row 3 -->
    <rect x="152" y="660" width="212" height="212" rx="14" fill="white"/>
    <rect x="406" y="660" width="212" height="212" rx="14" fill="white"/>
    <rect x="660" y="660" width="212" height="212" rx="14" fill="#0A3330"/>
    <!-- Layer 3: Letters in white cells -->
    <text x="258" y="298" font-family="Arial Black" font-size="148" font-weight="900" fill="#0D4F4A" text-anchor="middle">C</text>
    <text x="766" y="298" font-family="Arial Black" font-size="148" font-weight="900" fill="#0D4F4A" text-anchor="middle">A</text>
    <text x="258" y="552" font-family="Arial Black" font-size="148" font-weight="900" fill="#0D4F4A" text-anchor="middle">S</text>
    <text x="512" y="552" font-family="Arial Black" font-size="148" font-weight="900" fill="#EF4444" text-anchor="middle">T</text>
    <text x="766" y="552" font-family="Arial Black" font-size="148" font-weight="900" fill="#0D4F4A" text-anchor="middle">S</text>
    <text x="258" y="806" font-family="Arial Black" font-size="148" font-weight="900" fill="#0D4F4A" text-anchor="middle">T</text>
    <text x="512" y="806" font-family="Arial Black" font-size="148" font-weight="900" fill="#0D4F4A" text-anchor="middle">S</text>
    <!-- Cell number indicators -->
    <text x="166" y="188" font-family="Arial" font-size="36" fill="#5EEAD4">1</text>
    <text x="674" y="188" font-family="Arial" font-size="36" fill="#5EEAD4">2</text>
    <text x="166" y="442" font-family="Arial" font-size="36" fill="#5EEAD4">3</text>
    <text x="420" y="442" font-family="Arial" font-size="36" fill="#5EEAD4">4</text>
  </g>
</svg>
