<svg xmlns="http://www.w3.org/2000/svg" viewBox="0 0 1024 1024">
  <defs>
    <clipPath id="c_cc02">
      <rect width="1024" height="1024" rx="190"/>
    </clipPath>
  </defs>
  <!-- Layer 1: Background warm yellow -->
  <rect width="1024" height="1024" rx="190" fill="#CA8A04"/>
  <g clip-path="url(#c_cc02)">
    <!-- Layer 2: Letter tiles in cross (+) pattern -->
    <!-- Center tile -->
    <rect x="412" y="412" width="200" height="200" rx="24" fill="#FEF08A"/>
    <rect x="418" y="418" width="188" height="188" rx="20" fill="#FDE047"/>
    <text x="512" y="534" font-family="Arial Black" font-size="140" font-weight="900" fill="#92400E" text-anchor="middle">W</text>
    <!-- Left tile -->
    <rect x="180" y="412" width="200" height="200" rx="24" fill="#FEF08A"/>
    <rect x="186" y="418" width="188" height="188" rx="20" fill="#FDE047"/>
    <text x="280" y="534" font-family="Arial Black" font-size="140" font-weight="900" fill="#DC2626" text-anchor="middle">O</text>
    <!-- Right tile -->
    <rect x="644" y="412" width="200" height="200" rx="24" fill="#FEF08A"/>
    <rect x="650" y="418" width="188" height="188" rx="20" fill="#FDE047"/>
    <text x="744" y="534" font-family="Arial Black" font-size="140" font-weight="900" fill="#1D4ED8" text-anchor="middle">R</text>
    <!-- Top tile -->
    <rect x="412" y="180" width="200" height="200" rx="24" fill="#FEF08A"/>
    <rect x="418" y="186" width="188" height="188" rx="20" fill="#FDE047"/>
    <text x="512" y="302" font-family="Arial Black" font-size="140" font-weight="900" fill="#15803D" text-anchor="middle">D</text>
    <!-- Bottom tile -->
    <rect x="412" y="644" width="200" height="200" rx="24" fill="#FEF08A"/>
    <rect x="418" y="650" width="188" height="188" rx="20" fill="#FDE047"/>
    <text x="512" y="766" font-family="Arial Black" font-size="140" font-weight="900" fill="#7C3AED" text-anchor="middle">S</text>
    <!-- Layer 3: Shadow/3D effect under tiles -->
    <rect x="180" y="422" width="200" height="200" rx="24" fill="#B45309" transform="translate(10,10)" opacity="0.5"/>
    <rect x="644" y="422" width="200" height="200" rx="24" fill="#B45309" transform="translate(10,10)" opacity="0.5"/>
    <rect x="412" y="180" width="200" height="200" rx="24" fill="#B45309" transform="translate(10,10)" opacity="0.5"/>
    <rect x="412" y="654" width="200" height="200" rx="24" fill="#B45309" transform="translate(10,10)" opacity="0.5"/>
    <rect x="412" y="422" width="200" height="200" rx="24" fill="#B45309" transform="translate(10,10)" opacity="0.5"/>
    <!-- Re-render tiles on top of shadows -->
    <rect x="180" y="412" width="200" height="200" rx="24" fill="#FDE047"/>
    <text x="280" y="534" font-family="Arial Black" font-size="140" font-weight="900" fill="#DC2626" text-anchor="middle">O</text>
    <rect x="644" y="412" width="200" height="200" rx="24" fill="#FDE047"/>
    <text x="744" y="534" font-family="Arial Black" font-size="140" font-weight="900" fill="#1D4ED8" text-anchor="middle">R</text>
    <rect x="412" y="180" width="200" height="200" rx="24" fill="#FDE047"/>
    <text x="512" y="302" font-family="Arial Black" font-size="140" font-weight="900" fill="#15803D" text-anchor="middle">D</text>
    <rect x="412" y="644" width="200" height="200" rx="24" fill="#FDE047"/>
    <text x="512" y="766" font-family="Arial Black" font-size="140" font-weight="900" fill="#7C3AED" text-anchor="middle">S</text>
    <rect x="412" y="412" width="200" height="200" rx="24" fill="#FDE047"/>
    <text x="512" y="534" font-family="Arial Black" font-size="140" font-weight="900" fill="#92400E" text-anchor="middle">W</text>
  </g>
</svg>
