<svg xmlns="http://www.w3.org/2000/svg" viewBox="0 0 1024 1024">
  <defs>
    <clipPath id="c_cc01">
      <rect width="1024" height="1024" rx="190"/>
    </clipPath>
  </defs>
  <!-- Layer 1: Background -->
  <rect width="1024" height="1024" rx="190" fill="#0369A1"/>
  <!-- Layer 2: Crossword grid 3x3 -->
  <g clip-path="url(#c_cc01)">
    <!-- Grid cells (white) -->
    <!-- Row 1 -->
    <rect x="192" y="192" width="180" height="180" rx="12" fill="white"/>
    <rect x="422" y="192" width="180" height="180" rx="12" fill="white"/>
    <rect x="652" y="192" width="180" height="180" rx="12" fill="#0C4A6E"/>
    <!-- Row 2 -->
    <rect x="192" y="422" width="180" height="180" rx="12" fill="white"/>
    <rect x="422" y="422" width="180" height="180" rx="12" fill="white"/>
    <rect x="652" y="422" width="180" height="180" rx="12" fill="white"/>
    <!-- Row 3 -->
    <rect x="192" y="652" width="180" height="180" rx="12" fill="#0C4A6E"/>
    <rect x="422" y="652" width="180" height="180" rx="12" fill="white"/>
    <rect x="652" y="652" width="180" height="180" rx="12" fill="white"/>
    <!-- Layer 3: Letters in cells -->
    <text x="282" y="318" font-family="Arial Black" font-size="128" font-weight="900" fill="#0369A1" text-anchor="middle">A</text>
    <text x="512" y="318" font-family="Arial Black" font-size="128" font-weight="900" fill="#0369A1" text-anchor="middle">I</text>
    <text x="282" y="548" font-family="Arial Black" font-size="128" font-weight="900" fill="#0369A1" text-anchor="middle">R</text>
    <text x="512" y="548" font-family="Arial Black" font-size="128" font-weight="900" fill="#F97316" text-anchor="middle">R</text>
    <text x="742" y="548" font-family="Arial Black" font-size="128" font-weight="900" fill="#0369A1" text-anchor="middle">T</text>
    <text x="512" y="778" font-family="Arial Black" font-size="128" font-weight="900" fill="#0369A1" text-anchor="middle">O</text>
    <text x="742" y="778" font-family="Arial Black" font-size="128" font-weight="900" fill="#0369A1" text-anchor="middle">P</text>
    <!-- Cell number badges -->
    <text x="204" y="224" font-family="Arial" font-size="36" fill="#93C5FD">1</text>
    <text x="434" y="224" font-family="Arial" font-size="36" fill="#93C5FD">2</text>
    <text x="204" y="454" font-family="Arial" font-size="36" fill="#93C5FD">3</text>
  </g>
</svg>
