<svg viewBox="0 0 1024 1024" xmlns="http://www.w3.org/2000/svg">
  <defs>
    <linearGradient id="bg" x1="0%" y1="0%" x2="100%" y2="100%">
      <stop offset="0%" stop-color="#FAFAFA"/>
      <stop offset="100%" stop-color="#F5F5F5"/>
    </linearGradient>
    <clipPath id="cp"><rect width="1024" height="1024" rx="190"/></clipPath>
  </defs>
  <rect width="1024" height="1024" rx="190" fill="url(#bg)"/>
  <g clip-path="url(#cp)">
    <!-- 좌측: 혼란스러운 파일 더미 -->
    <rect x="60" y="160" width="400" height="640" rx="24" fill="#FFCDD2" stroke="#EF9A9A" stroke-width="4"/>
    <!-- 무질서한 파일들 -->
    <rect x="80" y="180" width="140" height="110" rx="14" fill="#EF5350" transform="rotate(-8 150 235)"/>
    <text x="150" y="245" font-family="'Segoe UI',Arial,sans-serif" font-weight="900" font-size="36" fill="#FFFFFF" text-anchor="middle" transform="rotate(-8 150 245)">IMG_001</text>
    <rect x="200" y="200" width="140" height="110" rx="14" fill="#E91E63" transform="rotate(6 270 255)"/>
    <text x="270" y="262" font-family="'Segoe UI',Arial,sans-serif" font-weight="900" font-size="36" fill="#FFFFFF" text-anchor="middle" transform="rotate(6 270 262)">IMG_045</text>
    <rect x="90" y="320" width="140" height="110" rx="14" fill="#FF7043" transform="rotate(4 160 375)"/>
    <text x="160" y="382" font-family="'Segoe UI',Arial,sans-serif" font-weight="900" font-size="36" fill="#FFFFFF" text-anchor="middle" transform="rotate(4 160 382)">VID_003</text>
    <rect x="220" y="340" width="140" height="110" rx="14" fill="#EF5350" transform="rotate(-5 290 395)"/>
    <text x="290" y="402" font-family="'Segoe UI',Arial,sans-serif" font-weight="900" font-size="36" fill="#FFFFFF" text-anchor="middle" transform="rotate(-5 290 402)">IMG_999</text>
    <rect x="80" y="460" width="140" height="110" rx="14" fill="#D32F2F" transform="rotate(7 150 515)"/>
    <text x="150" y="522" font-family="'Segoe UI',Arial,sans-serif" font-weight="900" font-size="36" fill="#FFFFFF" text-anchor="middle" transform="rotate(7 150 522)">MOV_07</text>
    <rect x="210" y="475" width="140" height="110" rx="14" fill="#FF8F00" transform="rotate(-4 280 530)"/>
    <text x="280" y="537" font-family="'Segoe UI',Arial,sans-serif" font-weight="900" font-size="36" fill="#FFFFFF" text-anchor="middle" transform="rotate(-4 280 537)">IMG_112</text>

    <!-- 혼란 라벨 -->
    <rect x="90" y="660" width="280" height="60" rx="18" fill="#C62828"/>
    <text x="230" y="698" font-family="'Segoe UI',Arial,sans-serif" font-weight="900" font-size="40" fill="#FFFFFF" text-anchor="middle">뒤죽박죽!</text>

    <!-- 중앙 변환 화살표 -->
    <text x="512" y="540" font-family="'Segoe UI',Arial,sans-serif" font-size="100" fill="#4CAF50" text-anchor="middle">→</text>

    <!-- 우측: 정돈된 날짜 폴더들 -->
    <rect x="564" y="160" width="400" height="640" rx="24" fill="#C8E6C9" stroke="#81C784" stroke-width="4"/>
    <!-- 정돈된 폴더들 -->
    <rect x="584" y="186" width="360" height="72" rx="16" fill="#2E7D32"/>
    <text x="764" y="230" font-family="'Segoe UI',Arial,sans-serif" font-weight="900" font-size="44" fill="#FFFFFF" text-anchor="middle">📁 2024/01</text>
    <rect x="604" y="272" width="200" height="42" rx="10" fill="#42A5F5" opacity="0.8"/>
    <rect x="812" y="272" width="120" height="42" rx="10" fill="#E91E63" opacity="0.8"/>

    <rect x="584" y="326" width="360" height="72" rx="16" fill="#388E3C"/>
    <text x="764" y="370" font-family="'Segoe UI',Arial,sans-serif" font-weight="900" font-size="44" fill="#FFFFFF" text-anchor="middle">📁 2024/02</text>
    <rect x="604" y="412" width="160" height="42" rx="10" fill="#FF7043" opacity="0.8"/>
    <rect x="772" y="412" width="160" height="42" rx="10" fill="#7E57C2" opacity="0.8"/>

    <rect x="584" y="466" width="360" height="72" rx="16" fill="#2E7D32"/>
    <text x="764" y="510" font-family="'Segoe UI',Arial,sans-serif" font-weight="900" font-size="44" fill="#FFFFFF" text-anchor="middle">📁 2024/03</text>
    <rect x="604" y="552" width="100" height="42" rx="10" fill="#26C6DA" opacity="0.8"/>
    <rect x="712" y="552" width="100" height="42" rx="10" fill="#FF8F00" opacity="0.8"/>
    <rect x="820" y="552" width="100" height="42" rx="10" fill="#42A5F5" opacity="0.8"/>

    <rect x="584" y="606" width="360" height="72" rx="16" fill="#1B5E20"/>
    <text x="764" y="650" font-family="'Segoe UI',Arial,sans-serif" font-weight="900" font-size="44" fill="#A5D6A7" text-anchor="middle">📁 2024/12</text>

    <!-- 정돈 라벨 -->
    <rect x="594" y="690" width="280" height="60" rx="18" fill="#2E7D32"/>
    <text x="734" y="728" font-family="'Segoe UI',Arial,sans-serif" font-weight="900" font-size="40" fill="#FFFFFF" text-anchor="middle">깔끔 정리!</text>

    <!-- 타이틀 -->
    <rect x="180" y="860" width="664" height="70" rx="24" fill="#1B5E20"/>
    <text x="512" y="907" font-family="'Segoe UI',Arial,sans-serif" font-weight="900" font-size="42" fill="#FFFFFF" text-anchor="middle">PHOTO·VIDEO ORGANIZER</text>
  </g>
</svg>
