<svg xmlns="http://www.w3.org/2000/svg" viewBox="0 0 1024 1024">
  <!-- Layer 1: Background fresh green -->
  <defs>
    <linearGradient id="bg07" x1="0" y1="0" x2="0" y2="1">
      <stop offset="0%" stop-color="#E8F5E9"/>
      <stop offset="100%" stop-color="#1B5E20"/>
    </linearGradient>
  </defs>
  <rect width="1024" height="1024" rx="190" fill="url(#bg07)"/>
  <!-- Layer 2: Shield with checkmark (protect + clean) -->
  <!-- Shield shape -->
  <path d="M512 180 L820 300 L820 560 Q820 780 512 880 Q204 780 204 560 L204 300 Z" fill="#2E7D32" opacity="0.9"/>
  <path d="M512 220 L786 328 L786 558 Q786 752 512 840 Q238 752 238 558 L238 328 Z" fill="#43A047" opacity="0.9"/>
  <path d="M512 260 L752 356 L752 556 Q752 724 512 800 Q272 724 272 556 L272 356 Z" fill="#66BB6A" opacity="0.85"/>
  <!-- Big checkmark inside shield -->
  <path d="M360 530 L460 640 L670 420" stroke="#FFFFFF" stroke-width="52" stroke-linecap="round" stroke-linejoin="round" fill="none"/>
  <!-- Layer 3: Clean sparkles around shield -->
  <path d="M180 400 L188 424 L214 424 L194 438 L202 462 L180 448 L158 462 L166 438 L146 424 L172 424 Z" fill="#FFD740" opacity="0.9"/>
  <path d="M844 400 L852 424 L878 424 L858 438 L866 462 L844 448 L822 462 L830 438 L810 424 L836 424 Z" fill="#FFD740" opacity="0.9"/>
  <circle cx="512" cy="940" r="24" fill="#A5D6A7" opacity="0.8"/>
  <!-- SYS CLEAN text below shield -->
  <rect x="320" y="880" width="384" height="80" rx="16" fill="#1B5E20" opacity="0.9"/>
  <text x="512" y="933" font-family="Arial Black, sans-serif" font-size="48" font-weight="900" fill="#A5D6A7" text-anchor="middle">SYS.CLEAN</text>
</svg>
