<svg xmlns="http://www.w3.org/2000/svg" viewBox="0 0 1024 1024">
  <rect x="80" y="80" width="864" height="864" rx="180" fill="#0A0A00"/>
  <!-- Calendar grid (activity heatmap) -->
  <!-- 7 columns x 7 rows of cells -->
  <g fill="#1a1500">
  <!-- Row headers treated as cells below -->
  </g>
  <!-- Cells: vary opacity to simulate heatmap -->
  <!-- Row 1 -->
  <rect x="168" y="240" width="80" height="80" rx="8" fill="#F9A825" opacity="0.1"/>
  <rect x="264" y="240" width="80" height="80" rx="8" fill="#F9A825" opacity="0.4"/>
  <rect x="360" y="240" width="80" height="80" rx="8" fill="#F9A825" opacity="0.2"/>
  <rect x="456" y="240" width="80" height="80" rx="8" fill="#F9A825" opacity="0.7"/>
  <rect x="552" y="240" width="80" height="80" rx="8" fill="#FFD54F" opacity="0.9"/>
  <rect x="648" y="240" width="80" height="80" rx="8" fill="#F9A825" opacity="0.3"/>
  <rect x="744" y="240" width="80" height="80" rx="8" fill="#F9A825" opacity="0.5"/>
  <!-- Row 2 -->
  <rect x="168" y="336" width="80" height="80" rx="8" fill="#FFD54F" opacity="0.8"/>
  <rect x="264" y="336" width="80" height="80" rx="8" fill="#F9A825" opacity="0.2"/>
  <rect x="360" y="336" width="80" height="80" rx="8" fill="#FFD54F" opacity="1.0"/>
  <rect x="456" y="336" width="80" height="80" rx="8" fill="#F9A825" opacity="0.4"/>
  <rect x="552" y="336" width="80" height="80" rx="8" fill="#F9A825" opacity="0.1"/>
  <rect x="648" y="336" width="80" height="80" rx="8" fill="#FFD54F" opacity="0.7"/>
  <rect x="744" y="336" width="80" height="80" rx="8" fill="#F9A825" opacity="0.3"/>
  <!-- Row 3 -->
  <rect x="168" y="432" width="80" height="80" rx="8" fill="#F9A825" opacity="0.3"/>
  <rect x="264" y="432" width="80" height="80" rx="8" fill="#FFD54F" opacity="0.9"/>
  <rect x="360" y="432" width="80" height="80" rx="8" fill="#F9A825" opacity="0.5"/>
  <rect x="456" y="432" width="80" height="80" rx="8" fill="#FFD54F" opacity="0.8"/>
  <rect x="552" y="432" width="80" height="80" rx="8" fill="#F9A825" opacity="0.6"/>
  <rect x="648" y="432" width="80" height="80" rx="8" fill="#F9A825" opacity="0.2"/>
  <rect x="744" y="432" width="80" height="80" rx="8" fill="#FFD54F" opacity="0.95"/>
  <!-- Row 4 -->
  <rect x="168" y="528" width="80" height="80" rx="8" fill="#F9A825" opacity="0.6"/>
  <rect x="264" y="528" width="80" height="80" rx="8" fill="#F9A825" opacity="0.1"/>
  <rect x="360" y="528" width="80" height="80" rx="8" fill="#FFD54F" opacity="0.7"/>
  <rect x="456" y="528" width="80" height="80" rx="8" fill="#F9A825" opacity="0.3"/>
  <rect x="552" y="528" width="80" height="80" rx="8" fill="#FFD54F" opacity="1.0"/>
  <rect x="648" y="528" width="80" height="80" rx="8" fill="#F9A825" opacity="0.5"/>
  <rect x="744" y="528" width="80" height="80" rx="8" fill="#F9A825" opacity="0.2"/>
  <!-- Row 5 -->
  <rect x="168" y="624" width="80" height="80" rx="8" fill="#FFD54F" opacity="0.9"/>
  <rect x="264" y="624" width="80" height="80" rx="8" fill="#F9A825" opacity="0.4"/>
  <rect x="360" y="624" width="80" height="80" rx="8" fill="#F9A825" opacity="0.2"/>
  <rect x="456" y="624" width="80" height="80" rx="8" fill="#FFD54F" opacity="0.85"/>
  <rect x="552" y="624" width="80" height="80" rx="8" fill="#F9A825" opacity="0.4"/>
  <rect x="648" y="624" width="80" height="80" rx="8" fill="#FFD54F" opacity="0.7"/>
  <rect x="744" y="624" width="80" height="80" rx="8" fill="#F9A825" opacity="0.15"/>
  <!-- Calendar header bar -->
  <rect x="168" y="180" width="656" height="44" rx="8" fill="#F9A825" opacity="0.3"/>
</svg>