<svg xmlns="http://www.w3.org/2000/svg" viewBox="0 0 1024 1024">
  <!-- icon_01: ANSI 키보드 + 다색 하이라이트 (literal) | 중앙 심볼 | 다크 네이비 + 6색 키 -->
  <!-- Layer 1: 배경 -->
  <rect width="1024" height="1024" rx="190" fill="#0F0F1E"/>

  <!-- Layer 2: 키보드 바디 -->
  <rect x="100" y="320" width="824" height="380" rx="20" fill="#1A1A2E" stroke="#2A2A45" stroke-width="3"/>

  <!-- === 1행: 숫자 행 === -->
  <!-- 일반 키들 (회색) -->
  <rect x="120" y="340" width="54" height="50" rx="6" fill="#1E1E30" stroke="#35354A" stroke-width="1.5"/>
  <text x="147" y="371" text-anchor="middle" font-family="Segoe UI,Arial" font-size="16" fill="#CCCCDD">`</text>

  <!-- 색상 하이라이트 키들 - 1행 -->
  <rect x="182" y="340" width="54" height="50" rx="6" fill="#3B82F6" stroke="#60A5FA" stroke-width="1.5"/>
  <text x="209" y="371" text-anchor="middle" font-family="Segoe UI,Arial" font-size="16" fill="white">1</text>
  <rect x="244" y="340" width="54" height="50" rx="6" fill="#1E1E30" stroke="#35354A" stroke-width="1.5"/>
  <text x="271" y="371" text-anchor="middle" font-family="Segoe UI,Arial" font-size="16" fill="#CCCCDD">2</text>
  <rect x="306" y="340" width="54" height="50" rx="6" fill="#F59E0B" stroke="#FCD34D" stroke-width="1.5"/>
  <text x="333" y="371" text-anchor="middle" font-family="Segoe UI,Arial" font-size="16" fill="white">3</text>
  <rect x="368" y="340" width="54" height="50" rx="6" fill="#1E1E30" stroke="#35354A" stroke-width="1.5"/>
  <text x="395" y="371" text-anchor="middle" font-family="Segoe UI,Arial" font-size="16" fill="#CCCCDD">4</text>
  <rect x="430" y="340" width="54" height="50" rx="6" fill="#8B5CF6" stroke="#A78BFA" stroke-width="1.5"/>
  <text x="457" y="371" text-anchor="middle" font-family="Segoe UI,Arial" font-size="16" fill="white">5</text>
  <rect x="492" y="340" width="54" height="50" rx="6" fill="#1E1E30" stroke="#35354A" stroke-width="1.5"/>
  <text x="519" y="371" text-anchor="middle" font-family="Segoe UI,Arial" font-size="16" fill="#CCCCDD">6</text>
  <rect x="554" y="340" width="54" height="50" rx="6" fill="#10B981" stroke="#34D399" stroke-width="1.5"/>
  <text x="581" y="371" text-anchor="middle" font-family="Segoe UI,Arial" font-size="16" fill="white">7</text>
  <rect x="616" y="340" width="54" height="50" rx="6" fill="#1E1E30" stroke="#35354A" stroke-width="1.5"/>
  <text x="643" y="371" text-anchor="middle" font-family="Segoe UI,Arial" font-size="16" fill="#CCCCDD">8</text>
  <rect x="678" y="340" width="54" height="50" rx="6" fill="#06B6D4" stroke="#22D3EE" stroke-width="1.5"/>
  <text x="705" y="371" text-anchor="middle" font-family="Segoe UI,Arial" font-size="16" fill="white">9</text>
  <rect x="740" y="340" width="54" height="50" rx="6" fill="#1E1E30" stroke="#35354A" stroke-width="1.5"/>
  <text x="767" y="371" text-anchor="middle" font-family="Segoe UI,Arial" font-size="16" fill="#CCCCDD">0</text>
  <rect x="802" y="340" width="54" height="50" rx="6" fill="#1E1E30" stroke="#35354A" stroke-width="1.5"/>
  <text x="829" y="371" text-anchor="middle" font-family="Segoe UI,Arial" font-size="16" fill="#CCCCDD">-</text>
  <rect x="864" y="340" width="56" height="50" rx="6" fill="#1E1E30" stroke="#35354A" stroke-width="1.5"/>
  <text x="892" y="371" text-anchor="middle" font-family="Segoe UI,Arial" font-size="14" fill="#CCCCDD">Back</text>

  <!-- === 2행: QWERTY 행 === -->
  <rect x="120" y="398" width="76" height="50" rx="6" fill="#161622" stroke="#35354A" stroke-width="1.5"/>
  <text x="158" y="429" text-anchor="middle" font-family="Segoe UI,Arial" font-size="13" fill="#AAAACC">Tab</text>

  <rect x="204" y="398" width="54" height="50" rx="6" fill="#1E1E30" stroke="#35354A" stroke-width="1.5"/>
  <text x="231" y="429" text-anchor="middle" font-family="Segoe UI,Arial" font-size="16" fill="#CCCCDD">Q</text>
  <rect x="266" y="398" width="54" height="50" rx="6" fill="#8B5CF6" stroke="#A78BFA" stroke-width="1.5"/>
  <text x="293" y="429" text-anchor="middle" font-family="Segoe UI,Arial" font-size="16" fill="white">W</text>
  <rect x="328" y="398" width="54" height="50" rx="6" fill="#3B82F6" stroke="#60A5FA" stroke-width="1.5"/>
  <text x="355" y="429" text-anchor="middle" font-family="Segoe UI,Arial" font-size="16" fill="white">E</text>
  <rect x="390" y="398" width="54" height="50" rx="6" fill="#1E1E30" stroke="#35354A" stroke-width="1.5"/>
  <text x="417" y="429" text-anchor="middle" font-family="Segoe UI,Arial" font-size="16" fill="#CCCCDD">R</text>
  <rect x="452" y="398" width="54" height="50" rx="6" fill="#1E1E30" stroke="#35354A" stroke-width="1.5"/>
  <text x="479" y="429" text-anchor="middle" font-family="Segoe UI,Arial" font-size="16" fill="#CCCCDD">T</text>
  <rect x="514" y="398" width="54" height="50" rx="6" fill="#1E1E30" stroke="#35354A" stroke-width="1.5"/>
  <text x="541" y="429" text-anchor="middle" font-family="Segoe UI,Arial" font-size="16" fill="#CCCCDD">Y</text>
  <rect x="576" y="398" width="54" height="50" rx="6" fill="#1E1E30" stroke="#35354A" stroke-width="1.5"/>
  <text x="603" y="429" text-anchor="middle" font-family="Segoe UI,Arial" font-size="16" fill="#CCCCDD">U</text>
  <rect x="638" y="398" width="54" height="50" rx="6" fill="#1E1E30" stroke="#35354A" stroke-width="1.5"/>
  <text x="665" y="429" text-anchor="middle" font-family="Segoe UI,Arial" font-size="16" fill="#CCCCDD">I</text>
  <rect x="700" y="398" width="54" height="50" rx="6" fill="#1E1E30" stroke="#35354A" stroke-width="1.5"/>
  <text x="727" y="429" text-anchor="middle" font-family="Segoe UI,Arial" font-size="16" fill="#CCCCDD">O</text>
  <rect x="762" y="398" width="54" height="50" rx="6" fill="#06B6D4" stroke="#22D3EE" stroke-width="1.5"/>
  <text x="789" y="429" text-anchor="middle" font-family="Segoe UI,Arial" font-size="16" fill="white">P</text>
  <rect x="824" y="398" width="54" height="50" rx="6" fill="#1E1E30" stroke="#35354A" stroke-width="1.5"/>
  <text x="851" y="429" text-anchor="middle" font-family="Segoe UI,Arial" font-size="16" fill="#CCCCDD">[</text>
  <rect x="886" y="398" width="34" height="50" rx="6" fill="#1E1E30" stroke="#35354A" stroke-width="1.5"/>
  <text x="903" y="429" text-anchor="middle" font-family="Segoe UI,Arial" font-size="16" fill="#CCCCDD">]</text>

  <!-- === 3행: ASDF 행 === -->
  <rect x="120" y="456" width="84" height="50" rx="6" fill="#161622" stroke="#35354A" stroke-width="1.5"/>
  <text x="162" y="487" text-anchor="middle" font-family="Segoe UI,Arial" font-size="13" fill="#AAAACC">Caps</text>

  <rect x="212" y="456" width="54" height="50" rx="6" fill="#1E1E30" stroke="#35354A" stroke-width="1.5"/>
  <text x="239" y="487" text-anchor="middle" font-family="Segoe UI,Arial" font-size="16" fill="#CCCCDD">A</text>
  <rect x="274" y="456" width="54" height="50" rx="6" fill="#F59E0B" stroke="#FCD34D" stroke-width="1.5"/>
  <text x="301" y="487" text-anchor="middle" font-family="Segoe UI,Arial" font-size="16" fill="white">S</text>
  <rect x="336" y="456" width="54" height="50" rx="6" fill="#10B981" stroke="#34D399" stroke-width="1.5"/>
  <text x="363" y="487" text-anchor="middle" font-family="Segoe UI,Arial" font-size="16" fill="white">D</text>
  <rect x="398" y="456" width="54" height="50" rx="6" fill="#3B82F6" stroke="#60A5FA" stroke-width="1.5"/>
  <text x="425" y="487" text-anchor="middle" font-family="Segoe UI,Arial" font-size="16" fill="white">F</text>
  <rect x="460" y="456" width="54" height="50" rx="6" fill="#1E1E30" stroke="#35354A" stroke-width="1.5"/>
  <text x="487" y="487" text-anchor="middle" font-family="Segoe UI,Arial" font-size="16" fill="#CCCCDD">G</text>
  <rect x="522" y="456" width="54" height="50" rx="6" fill="#1E1E30" stroke="#35354A" stroke-width="1.5"/>
  <text x="549" y="487" text-anchor="middle" font-family="Segoe UI,Arial" font-size="16" fill="#CCCCDD">H</text>
  <rect x="584" y="456" width="54" height="50" rx="6" fill="#1E1E30" stroke="#35354A" stroke-width="1.5"/>
  <text x="611" y="487" text-anchor="middle" font-family="Segoe UI,Arial" font-size="16" fill="#CCCCDD">J</text>
  <rect x="646" y="456" width="54" height="50" rx="6" fill="#8B5CF6" stroke="#A78BFA" stroke-width="1.5"/>
  <text x="673" y="487" text-anchor="middle" font-family="Segoe UI,Arial" font-size="16" fill="white">K</text>
  <rect x="708" y="456" width="54" height="50" rx="6" fill="#1E1E30" stroke="#35354A" stroke-width="1.5"/>
  <text x="735" y="487" text-anchor="middle" font-family="Segoe UI,Arial" font-size="16" fill="#CCCCDD">L</text>
  <rect x="770" y="456" width="54" height="50" rx="6" fill="#1E1E30" stroke="#35354A" stroke-width="1.5"/>
  <text x="797" y="487" text-anchor="middle" font-family="Segoe UI,Arial" font-size="16" fill="#CCCCDD">;</text>
  <rect x="832" y="456" width="88" height="50" rx="6" fill="#161622" stroke="#35354A" stroke-width="1.5"/>
  <text x="876" y="487" text-anchor="middle" font-family="Segoe UI,Arial" font-size="14" fill="#AAAACC">Enter</text>

  <!-- === 4행: ZXCV 행 === -->
  <rect x="120" y="514" width="106" height="50" rx="6" fill="#161622" stroke="#35354A" stroke-width="1.5"/>
  <text x="173" y="545" text-anchor="middle" font-family="Segoe UI,Arial" font-size="13" fill="#AAAACC">Shift</text>
  <rect x="234" y="514" width="54" height="50" rx="6" fill="#1E1E30" stroke="#35354A" stroke-width="1.5"/>
  <text x="261" y="545" text-anchor="middle" font-family="Segoe UI,Arial" font-size="16" fill="#CCCCDD">Z</text>
  <rect x="296" y="514" width="54" height="50" rx="6" fill="#F59E0B" stroke="#FCD34D" stroke-width="1.5"/>
  <text x="323" y="545" text-anchor="middle" font-family="Segoe UI,Arial" font-size="16" fill="white">X</text>
  <rect x="358" y="514" width="54" height="50" rx="6" fill="#06B6D4" stroke="#22D3EE" stroke-width="1.5"/>
  <text x="385" y="545" text-anchor="middle" font-family="Segoe UI,Arial" font-size="16" fill="white">C</text>
  <rect x="420" y="514" width="54" height="50" rx="6" fill="#8B5CF6" stroke="#A78BFA" stroke-width="1.5"/>
  <text x="447" y="545" text-anchor="middle" font-family="Segoe UI,Arial" font-size="16" fill="white">V</text>
  <rect x="482" y="514" width="54" height="50" rx="6" fill="#1E1E30" stroke="#35354A" stroke-width="1.5"/>
  <text x="509" y="545" text-anchor="middle" font-family="Segoe UI,Arial" font-size="16" fill="#CCCCDD">B</text>
  <rect x="544" y="514" width="54" height="50" rx="6" fill="#10B981" stroke="#34D399" stroke-width="1.5"/>
  <text x="571" y="545" text-anchor="middle" font-family="Segoe UI,Arial" font-size="16" fill="white">N</text>
  <rect x="606" y="514" width="54" height="50" rx="6" fill="#1E1E30" stroke="#35354A" stroke-width="1.5"/>
  <text x="633" y="545" text-anchor="middle" font-family="Segoe UI,Arial" font-size="16" fill="#CCCCDD">M</text>
  <rect x="668" y="514" width="54" height="50" rx="6" fill="#1E1E30" stroke="#35354A" stroke-width="1.5"/>
  <text x="695" y="545" text-anchor="middle" font-family="Segoe UI,Arial" font-size="16" fill="#CCCCDD">,</text>
  <rect x="730" y="514" width="54" height="50" rx="6" fill="#1E1E30" stroke="#35354A" stroke-width="1.5"/>
  <text x="757" y="545" text-anchor="middle" font-family="Segoe UI,Arial" font-size="16" fill="#CCCCDD">.</text>
  <rect x="792" y="514" width="128" height="50" rx="6" fill="#161622" stroke="#35354A" stroke-width="1.5"/>
  <text x="856" y="545" text-anchor="middle" font-family="Segoe UI,Arial" font-size="13" fill="#AAAACC">Shift</text>

  <!-- === 5행: 하단 수식키 행 === -->
  <rect x="120" y="572" width="84" height="50" rx="6" fill="#161622" stroke="#35354A" stroke-width="1.5"/>
  <text x="162" y="603" text-anchor="middle" font-family="Segoe UI,Arial" font-size="13" fill="#3B82F6">Ctrl</text>
  <rect x="212" y="572" width="54" height="50" rx="6" fill="#161622" stroke="#35354A" stroke-width="1.5"/>
  <text x="239" y="603" text-anchor="middle" font-family="Segoe UI,Arial" font-size="13" fill="#AAAACC">Win</text>
  <rect x="274" y="572" width="54" height="50" rx="6" fill="#161622" stroke="#35354A" stroke-width="1.5"/>
  <text x="301" y="603" text-anchor="middle" font-family="Segoe UI,Arial" font-size="13" fill="#F59E0B">Alt</text>
  <rect x="336" y="572" width="268" height="50" rx="6" fill="#1E1E30" stroke="#35354A" stroke-width="1.5"/>
  <text x="470" y="603" text-anchor="middle" font-family="Segoe UI,Arial" font-size="13" fill="#CCCCDD">Space</text>
  <rect x="612" y="572" width="54" height="50" rx="6" fill="#161622" stroke="#35354A" stroke-width="1.5"/>
  <text x="639" y="603" text-anchor="middle" font-family="Segoe UI,Arial" font-size="13" fill="#F59E0B">Alt</text>
  <rect x="674" y="572" width="54" height="50" rx="6" fill="#161622" stroke="#35354A" stroke-width="1.5"/>
  <text x="701" y="603" text-anchor="middle" font-family="Segoe UI,Arial" font-size="13" fill="#AAAACC">Win</text>
  <rect x="736" y="572" width="54" height="50" rx="6" fill="#161622" stroke="#35354A" stroke-width="1.5"/>
  <text x="763" y="603" text-anchor="middle" font-family="Segoe UI,Arial" font-size="11" fill="#AAAACC">Menu</text>
  <rect x="798" y="572" width="122" height="50" rx="6" fill="#161622" stroke="#35354A" stroke-width="1.5"/>
  <text x="859" y="603" text-anchor="middle" font-family="Segoe UI,Arial" font-size="13" fill="#3B82F6">Ctrl</text>

  <!-- Layer 3: 하단 범례 -->
  <rect x="150" y="735" width="724" height="36" rx="8" fill="#131326" stroke="#222240" stroke-width="1"/>
  <!-- File=파랑 -->
  <circle cx="175" cy="753" r="7" fill="#3B82F6"/>
  <text x="188" y="758" font-family="Segoe UI,Arial" font-size="18" fill="#6688AA">File</text>
  <!-- Edit=주황 -->
  <circle cx="245" cy="753" r="7" fill="#F59E0B"/>
  <text x="258" y="758" font-family="Segoe UI,Arial" font-size="18" fill="#6688AA">Edit</text>
  <!-- View=보라 -->
  <circle cx="315" cy="753" r="7" fill="#8B5CF6"/>
  <text x="328" y="758" font-family="Segoe UI,Arial" font-size="18" fill="#6688AA">View</text>
  <!-- Run=초록 -->
  <circle cx="393" cy="753" r="7" fill="#10B981"/>
  <text x="406" y="758" font-family="Segoe UI,Arial" font-size="18" fill="#6688AA">Run</text>
  <!-- Navigate=시안 -->
  <circle cx="453" cy="753" r="7" fill="#06B6D4"/>
  <text x="466" y="758" font-family="Segoe UI,Arial" font-size="18" fill="#6688AA">Navigate</text>
  <!-- Other=회색 -->
  <circle cx="569" cy="753" r="7" fill="#6B7280"/>
  <text x="582" y="758" font-family="Segoe UI,Arial" font-size="18" fill="#6688AA">Other</text>
</svg>
