<svg xmlns="http://www.w3.org/2000/svg" viewBox="0 0 1024 1024">
  <defs>
    <linearGradient id="bg9" x1="0%" y1="0%" x2="100%" y2="100%">
      <stop offset="0%" stop-color="#00838F"/>
      <stop offset="100%" stop-color="#006064"/>
    </linearGradient>
    <clipPath id="padShape9">
      <rect x="242" y="358" width="540" height="230" rx="88"/>
      <rect x="256" y="536" width="164" height="148" rx="56"/>
      <rect x="604" y="536" width="164" height="148" rx="56"/>
    </clipPath>
  </defs>

  <!-- Layer 1: 배경 -->
  <rect width="1024" height="1024" rx="190" fill="url(#bg9)"/>

  <!-- Layer 2: 게임패드 실루엣 (진한 색) -->
  <!-- 어깨 버튼 -->
  <rect x="260" y="336" width="138" height="36" rx="12" fill="#004D40"/>
  <rect x="626" y="336" width="138" height="36" rx="12" fill="#004D40"/>
  <!-- 패드 몸체 -->
  <rect x="242" y="358" width="540" height="230" rx="88" fill="#004D40"/>
  <!-- 왼쪽 그립 -->
  <rect x="256" y="536" width="164" height="148" rx="56" fill="#004D40"/>
  <!-- 오른쪽 그립 -->
  <rect x="604" y="536" width="164" height="148" rx="56" fill="#004D40"/>

  <!-- Layer 3: 패드 내부에 키보드 키 그리드 (클립 영역 안) -->
  <g clip-path="url(#padShape9)">
    <!-- 행 1 키들 (상단) -->
    <rect x="282" y="376" width="54" height="46" rx="9" fill="#00BCD4" opacity="0.88"/>
    <text x="309" y="399" text-anchor="middle" dominant-baseline="middle" fill="white" font-size="19" font-family="Arial" font-weight="bold">Q</text>
    <rect x="346" y="376" width="54" height="46" rx="9" fill="#00BCD4" opacity="0.88"/>
    <text x="373" y="399" text-anchor="middle" dominant-baseline="middle" fill="white" font-size="19" font-family="Arial" font-weight="bold">W</text>
    <rect x="410" y="376" width="54" height="46" rx="9" fill="#00BCD4" opacity="0.88"/>
    <text x="437" y="399" text-anchor="middle" dominant-baseline="middle" fill="white" font-size="19" font-family="Arial" font-weight="bold">E</text>
    <rect x="474" y="376" width="54" height="46" rx="9" fill="#00BCD4" opacity="0.88"/>
    <text x="501" y="399" text-anchor="middle" dominant-baseline="middle" fill="white" font-size="19" font-family="Arial" font-weight="bold">R</text>
    <rect x="538" y="376" width="54" height="46" rx="9" fill="#00BCD4" opacity="0.88"/>
    <text x="565" y="399" text-anchor="middle" dominant-baseline="middle" fill="white" font-size="19" font-family="Arial" font-weight="bold">T</text>
    <rect x="602" y="376" width="54" height="46" rx="9" fill="#00BCD4" opacity="0.88"/>
    <text x="629" y="399" text-anchor="middle" dominant-baseline="middle" fill="white" font-size="19" font-family="Arial" font-weight="bold">Y</text>
    <rect x="666" y="376" width="54" height="46" rx="9" fill="#00BCD4" opacity="0.88"/>
    <text x="693" y="399" text-anchor="middle" dominant-baseline="middle" fill="white" font-size="19" font-family="Arial" font-weight="bold">U</text>

    <!-- 행 2 키들 (중간) -->
    <rect x="302" y="432" width="54" height="46" rx="9" fill="#00ACC1" opacity="0.88"/>
    <text x="329" y="455" text-anchor="middle" dominant-baseline="middle" fill="white" font-size="19" font-family="Arial" font-weight="bold">A</text>
    <rect x="366" y="432" width="54" height="46" rx="9" fill="#00ACC1" opacity="0.88"/>
    <text x="393" y="455" text-anchor="middle" dominant-baseline="middle" fill="white" font-size="19" font-family="Arial" font-weight="bold">S</text>
    <rect x="430" y="432" width="54" height="46" rx="9" fill="#00ACC1" opacity="0.88"/>
    <text x="457" y="455" text-anchor="middle" dominant-baseline="middle" fill="white" font-size="19" font-family="Arial" font-weight="bold">D</text>
    <rect x="494" y="432" width="54" height="46" rx="9" fill="#00ACC1" opacity="0.88"/>
    <text x="521" y="455" text-anchor="middle" dominant-baseline="middle" fill="white" font-size="19" font-family="Arial" font-weight="bold">F</text>
    <rect x="558" y="432" width="54" height="46" rx="9" fill="#00ACC1" opacity="0.88"/>
    <text x="585" y="455" text-anchor="middle" dominant-baseline="middle" fill="white" font-size="19" font-family="Arial" font-weight="bold">G</text>
    <rect x="622" y="432" width="54" height="46" rx="9" fill="#00ACC1" opacity="0.88"/>
    <text x="649" y="455" text-anchor="middle" dominant-baseline="middle" fill="white" font-size="19" font-family="Arial" font-weight="bold">H</text>

    <!-- 행 3 키들 (하단) -->
    <rect x="330" y="488" width="54" height="46" rx="9" fill="#0097A7" opacity="0.88"/>
    <text x="357" y="511" text-anchor="middle" dominant-baseline="middle" fill="white" font-size="19" font-family="Arial" font-weight="bold">Z</text>
    <rect x="394" y="488" width="54" height="46" rx="9" fill="#0097A7" opacity="0.88"/>
    <text x="421" y="511" text-anchor="middle" dominant-baseline="middle" fill="white" font-size="19" font-family="Arial" font-weight="bold">X</text>
    <rect x="458" y="488" width="54" height="46" rx="9" fill="#0097A7" opacity="0.88"/>
    <text x="485" y="511" text-anchor="middle" dominant-baseline="middle" fill="white" font-size="19" font-family="Arial" font-weight="bold">C</text>
    <rect x="522" y="488" width="54" height="46" rx="9" fill="#0097A7" opacity="0.88"/>
    <text x="549" y="511" text-anchor="middle" dominant-baseline="middle" fill="white" font-size="19" font-family="Arial" font-weight="bold">V</text>
    <rect x="586" y="488" width="54" height="46" rx="9" fill="#0097A7" opacity="0.88"/>
    <text x="613" y="511" text-anchor="middle" dominant-baseline="middle" fill="white" font-size="19" font-family="Arial" font-weight="bold">B</text>

    <!-- 그립 안 특수 키들 -->
    <rect x="314" y="556" width="96" height="38" rx="9" fill="#006064" opacity="0.9" stroke="#4DD0E1" stroke-width="2"/>
    <text x="362" y="575" text-anchor="middle" dominant-baseline="middle" fill="#4DD0E1" font-size="18" font-family="Arial" font-weight="bold">SPC</text>
    <rect x="614" y="556" width="96" height="38" rx="9" fill="#006064" opacity="0.9" stroke="#4DD0E1" stroke-width="2"/>
    <text x="662" y="575" text-anchor="middle" dominant-baseline="middle" fill="#4DD0E1" font-size="18" font-family="Arial" font-weight="bold">ENT</text>
  </g>

  <!-- 패드 외곽선 강조 -->
  <rect x="242" y="358" width="540" height="230" rx="88" fill="none" stroke="#4DD0E1" stroke-width="3" opacity="0.6"/>
  <rect x="256" y="536" width="164" height="148" rx="56" fill="none" stroke="#4DD0E1" stroke-width="3" opacity="0.6"/>
  <rect x="604" y="536" width="164" height="148" rx="56" fill="none" stroke="#4DD0E1" stroke-width="3" opacity="0.6"/>
</svg>
