<svg viewBox="0 0 1024 1024" xmlns="http://www.w3.org/2000/svg">
  <defs>
    <linearGradient id="bg3" x1="0" y1="0" x2="1" y2="1">
      <stop offset="0" stop-color="#FFC36B"/>
      <stop offset="1" stop-color="#FF7A59"/>
    </linearGradient>
  </defs>
  <rect x="62" y="62" width="900" height="900" rx="195" fill="url(#bg3)"/>
  <!-- 울림 파동 -->
  <g fill="none" stroke="#FFFFFF" stroke-width="20" stroke-linecap="round" opacity="0.85">
    <path d="M300 360 C 250 430, 250 600, 300 670"/>
    <path d="M232 312 C 158 410, 158 620, 232 718"/>
    <path d="M724 360 C 774 430, 774 600, 724 670"/>
    <path d="M792 312 C 866 410, 866 620, 792 718"/>
  </g>
  <!-- 알림 벨 -->
  <g>
    <path d="M512 250c-86 0-146 62-146 160v92l-52 66c-18 24 0 58 32 58h332c32 0 50-34 32-58l-52-66v-92c0-98-60-160-146-160z" fill="#FFFFFF"/>
    <circle cx="512" cy="232" r="34" fill="#FFFFFF"/>
    <path d="M470 706a44 44 0 0 0 84 0z" fill="#FFFFFF"/>
    <!-- 벨 안 상승 신호 -->
    <polyline points="430,520 488,560 560,440 612,486" fill="none" stroke="#FF7A59" stroke-width="26" stroke-linecap="round" stroke-linejoin="round"/>
    <polygon points="612,440 612,506 558,470" fill="#FF7A59"/>
  </g>
</svg>
