<svg xmlns="http://www.w3.org/2000/svg" viewBox="0 0 512 512">
  <defs>
    <linearGradient id="bg" x1="0%" y1="0%" x2="100%" y2="100%">
      <stop offset="0%" stop-color="#1a2a4a"/>
      <stop offset="100%" stop-color="#0d1a33"/>
    </linearGradient>
    <linearGradient id="tower" x1="0%" y1="0%" x2="0%" y2="100%">
      <stop offset="0%" stop-color="#7ab3e0"/>
      <stop offset="100%" stop-color="#3a6fa8"/>
    </linearGradient>
    <linearGradient id="shield" x1="0%" y1="0%" x2="100%" y2="100%">
      <stop offset="0%" stop-color="#f0c040"/>
      <stop offset="100%" stop-color="#c07010"/>
    </linearGradient>
  </defs>
  <rect width="512" height="512" rx="80" fill="url(#bg)"/>
  <!-- Tower body -->
  <rect x="196" y="200" width="120" height="200" rx="8" fill="url(#tower)"/>
  <!-- Tower battlements -->
  <rect x="184" y="160" width="32" height="56" rx="6" fill="url(#tower)"/>
  <rect x="228" y="160" width="32" height="56" rx="6" fill="url(#tower)"/>
  <rect x="272" y="160" width="32" height="56" rx="6" fill="url(#tower)"/>
  <rect x="316" y="160" width="32" height="56" rx="6" fill="url(#tower)"/>
  <!-- Tower base platform -->
  <rect x="160" y="390" width="192" height="24" rx="6" fill="#2a5080"/>
  <!-- Tower gate -->
  <path d="M232 400 L232 320 Q256 290 280 320 L280 400Z" fill="#0d1a33"/>
  <!-- Tower windows -->
  <ellipse cx="256" cy="265" rx="16" ry="20" fill="#f0e0a0" opacity="0.9"/>
  <ellipse cx="256" cy="265" rx="10" ry="14" fill="#f8c030"/>
  <!-- Shield -->
  <path d="M256 70 L330 105 L330 170 Q330 220 256 250 Q182 220 182 170 L182 105Z" fill="url(#shield)" stroke="#f0c040" stroke-width="3"/>
  <path d="M256 90 L316 120 L316 168 Q316 210 256 235 Q196 210 196 168 L196 120Z" fill="none" stroke="#fff8e0" stroke-width="2" opacity="0.4"/>
  <!-- Shield cross -->
  <rect x="249" y="110" width="14" height="100" rx="4" fill="#fff8e0" opacity="0.7"/>
  <rect x="216" y="155" width="80" height="14" rx="4" fill="#fff8e0" opacity="0.7"/>
  <!-- Ground -->
  <rect x="100" y="410" width="312" height="18" rx="9" fill="#1a3a60" opacity="0.8"/>
  <!-- Stars -->
  <circle cx="110" cy="120" r="3" fill="#ffffff" opacity="0.6"/>
  <circle cx="390" cy="90" r="2" fill="#ffffff" opacity="0.5"/>
  <circle cx="420" cy="160" r="2.5" fill="#ffffff" opacity="0.4"/>
  <circle cx="80" cy="200" r="2" fill="#ffffff" opacity="0.5"/>
</svg>