<svg xmlns="http://www.w3.org/2000/svg" viewBox="0 0 512 512">
  <defs>
    <linearGradient id="bg" x1="0%" y1="0%" x2="100%" y2="100%">
      <stop offset="0%" stop-color="#3E1A00"/>
      <stop offset="100%" stop-color="#4E2600"/>
    </linearGradient>
    <linearGradient id="b1" x1="0%" y1="100%" x2="0%" y2="0%">
      <stop offset="0%" stop-color="#E65100"/>
      <stop offset="100%" stop-color="#FF6D00"/>
    </linearGradient>
    <linearGradient id="b2" x1="0%" y1="100%" x2="0%" y2="0%">
      <stop offset="0%" stop-color="#F57C00"/>
      <stop offset="100%" stop-color="#FF9100"/>
    </linearGradient>
    <linearGradient id="b3" x1="0%" y1="100%" x2="0%" y2="0%">
      <stop offset="0%" stop-color="#FB8C00"/>
      <stop offset="100%" stop-color="#FFAB40"/>
    </linearGradient>
  </defs>
  <rect width="512" height="512" rx="80" fill="url(#bg)"/>
  <!-- Skill level bars (horizontal) -->
  <text x="80" y="145" font-family="monospace" font-size="14" fill="#FFB74D">C#</text>
  <rect x="130" y="128" width="260" height="22" rx="6" fill="url(#b1)"/>
  <text x="398" y="144" font-family="monospace" font-size="12" fill="#FFCC80">95%</text>

  <text x="80" y="195" font-family="monospace" font-size="14" fill="#FFB74D">.NET</text>
  <rect x="130" y="178" width="230" height="22" rx="6" fill="url(#b2)"/>
  <text x="368" y="194" font-family="monospace" font-size="12" fill="#FFCC80">90%</text>

  <text x="80" y="245" font-family="monospace" font-size="14" fill="#FFB74D">SQL</text>
  <rect x="130" y="228" width="200" height="22" rx="6" fill="url(#b3)"/>
  <text x="338" y="244" font-family="monospace" font-size="12" fill="#FFCC80">80%</text>

  <text x="80" y="295" font-family="monospace" font-size="14" fill="#FFB74D">TS</text>
  <rect x="130" y="278" width="170" height="22" rx="6" fill="url(#b2)"/>
  <text x="308" y="294" font-family="monospace" font-size="12" fill="#FFCC80">68%</text>

  <text x="80" y="345" font-family="monospace" font-size="14" fill="#FFB74D">Docker</text>
  <rect x="130" y="328" width="140" height="22" rx="6" fill="url(#b1)"/>
  <text x="278" y="344" font-family="monospace" font-size="12" fill="#FFCC80">55%</text>

  <text x="80" y="395" font-family="monospace" font-size="14" fill="#FFB74D">Rust</text>
  <rect x="130" y="378" width="90" height="22" rx="6" fill="#3E1A00" stroke="#FF6D00" stroke-width="1"/>
  <text x="228" y="394" font-family="monospace" font-size="12" fill="#FFCC80">35%</text>

  <!-- Title -->
  <text x="165" y="455" font-family="monospace" font-size="18" fill="#FFCC80" letter-spacing="1">SKILL VISUALIZER</text>
</svg>
