<svg xmlns="http://www.w3.org/2000/svg" viewBox="0 0 512 512">
  <defs>
    <linearGradient id="bg" x1="0%" y1="0%" x2="100%" y2="100%">
      <stop offset="0%" stop-color="#1A0033"/>
      <stop offset="100%" stop-color="#2D004D"/>
    </linearGradient>
  </defs>
  <rect width="512" height="512" rx="80" fill="url(#bg)"/>
  <!-- Radar grid hexagon layers -->
  <polygon points="256,130 346,183 346,289 256,342 166,289 166,183" fill="none" stroke="#6A1B9A" stroke-width="1.5" opacity="0.5"/>
  <polygon points="256,162 322,199 322,273 256,310 190,273 190,199" fill="none" stroke="#6A1B9A" stroke-width="1.5" opacity="0.5"/>
  <polygon points="256,195 298,219 298,267 256,291 214,267 214,219" fill="none" stroke="#6A1B9A" stroke-width="1.5" opacity="0.5"/>
  <!-- Radar axes -->
  <line x1="256" y1="130" x2="256" y2="342" stroke="#6A1B9A" stroke-width="1" opacity="0.4"/>
  <line x1="166" y1="183" x2="346" y2="289" stroke="#6A1B9A" stroke-width="1" opacity="0.4"/>
  <line x1="346" y1="183" x2="166" y2="289" stroke="#6A1B9A" stroke-width="1" opacity="0.4"/>
  <!-- Skill area fill -->
  <polygon points="256,145 336,204 320,285 256,318 185,272 192,195" fill="#AB47BC" opacity="0.35"/>
  <polygon points="256,145 336,204 320,285 256,318 185,272 192,195" fill="none" stroke="#CE93D8" stroke-width="2.5"/>
  <!-- Skill dots -->
  <circle cx="256" cy="145" r="7" fill="#E040FB"/>
  <circle cx="336" cy="204" r="7" fill="#E040FB"/>
  <circle cx="320" cy="285" r="7" fill="#E040FB"/>
  <circle cx="256" cy="318" r="7" fill="#E040FB"/>
  <circle cx="185" cy="272" r="7" fill="#E040FB"/>
  <circle cx="192" cy="195" r="7" fill="#E040FB"/>
  <!-- Skill labels -->
  <text x="238" y="128" font-family="monospace" font-size="13" fill="#CE93D8">CS</text>
  <text x="345" y="200" font-family="monospace" font-size="13" fill="#CE93D8">NET</text>
  <text x="325" y="298" font-family="monospace" font-size="13" fill="#CE93D8">DB</text>
  <text x="232" y="338" font-family="monospace" font-size="13" fill="#CE93D8">UX</text>
  <text x="155" y="280" font-family="monospace" font-size="13" fill="#CE93D8">OPS</text>
  <text x="162" y="193" font-family="monospace" font-size="13" fill="#CE93D8">SEC</text>
  <!-- Title -->
  <text x="165" y="430" font-family="monospace" font-size="18" fill="#CE93D8" letter-spacing="2">SKILL RADAR CAST</text>
</svg>
