<svg xmlns="http://www.w3.org/2000/svg" viewBox="0 0 1024 1024">
  <rect x="80" y="80" width="864" height="864" rx="180" fill="#0A0010"/>
  <!-- 카메라 렌즈 외곽 -->
  <circle cx="512" cy="512" r="280" fill="none" stroke="#AD1457" stroke-width="32"/>
  <!-- 렌즈 조리개 -->
  <circle cx="512" cy="512" r="220" fill="#AD1457" opacity="0.15"/>
  <!-- 조리개 날 -->
  <path d="M512 292 L570 460 L740 400 Z" fill="#AD1457" opacity="0.5"/>
  <path d="M740 400 L600 512 L760 620 Z" fill="#AD1457" opacity="0.5"/>
  <path d="M760 620 L570 560 L640 740 Z" fill="#AD1457" opacity="0.5"/>
  <path d="M640 740 L512 580 L384 740 Z" fill="#AD1457" opacity="0.5"/>
  <path d="M384 740 L454 560 L264 620 Z" fill="#AD1457" opacity="0.5"/>
  <path d="M264 620 L424 512 L264 400 Z" fill="#AD1457" opacity="0.5"/>
  <path d="M264 400 L454 460 L384 292 Z" fill="#AD1457" opacity="0.5"/>
  <path d="M384 292 L512 440 L640 292 Z" fill="#AD1457" opacity="0.5"/>
  <!-- 렌즈 중심 -->
  <circle cx="512" cy="512" r="100" fill="none" stroke="#F48FB1" stroke-width="24"/>
  <circle cx="512" cy="512" r="48" fill="#F48FB1"/>
  <!-- LUT 필터 링 -->
  <circle cx="512" cy="512" r="160" fill="none" stroke="#F48FB1" stroke-width="16" stroke-dasharray="40,20" opacity="0.6"/>
</svg>
