<svg xmlns="http://www.w3.org/2000/svg" viewBox="0 0 1024 1024">
  <rect x="80" y="80" width="864" height="864" rx="180" fill="#0A0010"/>
  <!-- 무지개 아치 (색조 표현) -->
  <path d="M180 680 A340 340 0 0 1 844 680" fill="none" stroke="#F48FB1" stroke-width="48" opacity="0.9"/>
  <path d="M220 680 A300 300 0 0 1 804 680" fill="none" stroke="#AD1457" stroke-width="48" opacity="0.8"/>
  <path d="M260 680 A260 260 0 0 1 764 680" fill="none" stroke="#F48FB1" stroke-width="48" opacity="0.6"/>
  <path d="M300 680 A220 220 0 0 1 724 680" fill="none" stroke="#AD1457" stroke-width="48" opacity="0.5"/>
  <path d="M340 680 A180 180 0 0 1 684 680" fill="none" stroke="#F48FB1" stroke-width="48" opacity="0.35"/>
  <!-- 아치 끝 받침 -->
  <rect x="160" y="660" width="60" height="80" rx="12" fill="#AD1457"/>
  <rect x="804" y="660" width="60" height="80" rx="12" fill="#AD1457"/>
  <!-- LUT 필터 라벨 사각형 -->
  <rect x="360" y="340" width="304" height="180" rx="20" fill="#AD1457" opacity="0.3" stroke="#AD1457" stroke-width="20"/>
  <line x1="360" y1="430" x2="664" y2="430" stroke="#F48FB1" stroke-width="16" opacity="0.5"/>
</svg>
