<svg xmlns="http://www.w3.org/2000/svg" viewBox="0 0 1024 1024">
  <rect x="80" y="80" width="864" height="864" rx="180" fill="#0A0010"/>
  <!-- 그라데이션 원 (색상 휠) -->
  <circle cx="512" cy="512" r="280" fill="none" stroke="#AD1457" stroke-width="80" opacity="0.5"/>
  <circle cx="512" cy="512" r="240" fill="none" stroke="#F48FB1" stroke-width="40" opacity="0.4"/>
  <circle cx="512" cy="512" r="200" fill="none" stroke="#AD1457" stroke-width="40" opacity="0.6"/>
  <!-- 색상 섹터 표시 -->
  <path d="M512 512 L512 232 A280 280 0 0 1 756 348 Z" fill="#F48FB1" opacity="0.4"/>
  <path d="M512 512 L756 348 A280 280 0 0 1 792 512 Z" fill="#AD1457" opacity="0.5"/>
  <path d="M512 512 L792 512 A280 280 0 0 1 756 676 Z" fill="#F48FB1" opacity="0.3"/>
  <!-- 중심 -->
  <circle cx="512" cy="512" r="60" fill="#AD1457"/>
  <circle cx="512" cy="512" r="32" fill="#F48FB1"/>
  <!-- 색상 선택 포인터 -->
  <line x1="512" y1="512" x2="756" y2="348" stroke="#F48FB1" stroke-width="20" stroke-linecap="round"/>
  <circle cx="756" cy="348" r="28" fill="#F48FB1"/>
</svg>
