<svg xmlns="http://www.w3.org/2000/svg" viewBox="0 0 1024 1024">
  <rect x="80" y="80" width="864" height="864" rx="180" fill="#0A0010"/>
  <!-- 다이아몬드 외곽 -->
  <polygon points="512,180 800,420 512,844 224,420" fill="none" stroke="#AD1457" stroke-width="28"/>
  <polygon points="512,180 800,420 512,844 224,420" fill="#AD1457" opacity="0.12"/>
  <!-- 다이아몬드 내부 팔각면 -->
  <polygon points="512,180 680,300 680,560 512,680 344,560 344,300" fill="none" stroke="#AD1457" stroke-width="20" opacity="0.5"/>
  <!-- 색상 면들 -->
  <polygon points="512,180 680,300 512,300" fill="#F48FB1" opacity="0.5"/>
  <polygon points="680,300 800,420 680,420" fill="#AD1457" opacity="0.6"/>
  <polygon points="224,420 344,300 344,420" fill="#F48FB1" opacity="0.4"/>
  <polygon points="512,680 680,560 512,560" fill="#AD1457" opacity="0.5"/>
  <polygon points="512,680 344,560 512,560" fill="#F48FB1" opacity="0.4"/>
  <!-- 빛 반사 -->
  <polygon points="512,180 344,300 512,300" fill="#F48FB1" opacity="0.3"/>
  <!-- 중심 포인트 -->
  <circle cx="512" cy="512" r="36" fill="#F48FB1"/>
  <!-- 상단 광채 -->
  <line x1="512" y1="180" x2="512" y2="140" stroke="#F48FB1" stroke-width="20" stroke-linecap="round" opacity="0.7"/>
  <line x1="460" y1="200" x2="430" y2="164" stroke="#F48FB1" stroke-width="14" stroke-linecap="round" opacity="0.5"/>
  <line x1="564" y1="200" x2="594" y2="164" stroke="#F48FB1" stroke-width="14" stroke-linecap="round" opacity="0.5"/>
</svg>
