<svg xmlns="http://www.w3.org/2000/svg" viewBox="0 0 1024 1024">
  <rect x="80" y="80" width="864" height="864" rx="180" fill="#100000"/>
  <!-- 화면 -->
  <rect x="200" y="300" width="624" height="400" rx="28" fill="#1A0000"/>
  <rect x="220" y="320" width="584" height="360" rx="16" fill="#0A0000"/>
  <!-- 화면 파형 -->
  <polyline points="240,500 300,440 360,560 420,420 480,540 540,460 600,520 660,460 720,500 780,480" fill="none" stroke="#B71C1C" stroke-width="12" stroke-linecap="round" stroke-linejoin="round"/>
  <!-- 마이크 -->
  <rect x="460" y="160" width="104" height="180" rx="52" fill="#B71C1C"/>
  <rect x="480" y="180" width="64" height="120" rx="32" fill="#1A0000" opacity="0.5"/>
  <path d="M380,300 Q380,380 512,380 Q644,380 644,300" fill="none" stroke="#EF9A9A" stroke-width="16" stroke-linecap="round"/>
  <line x1="512" y1="380" x2="512" y2="440" stroke="#EF9A9A" stroke-width="16" stroke-linecap="round"/>
  <line x1="440" y1="440" x2="584" y2="440" stroke="#EF9A9A" stroke-width="16" stroke-linecap="round"/>
</svg>