<svg xmlns="http://www.w3.org/2000/svg" viewBox="0 0 1024 1024">
  <!-- Layer 1: Background -->
  <rect width="1024" height="1024" rx="190" fill="#1A0A3C"/>
  <!-- Layer 2: 문서 -->
  <rect x="100" y="140" width="620" height="780" rx="28" fill="#2D1060"/>
  <rect x="100" y="140" width="620" height="780" rx="28" fill="none" stroke="#7C3AED" stroke-width="12"/>
  <!-- 페이지 접힌 모서리 -->
  <path d="M620,140 L720,240 L620,240 Z" fill="#1A0A3C"/>
  <path d="M620,140 L720,240" stroke="#7C3AED" stroke-width="12" stroke-linecap="round"/>
  <!-- 텍스트 라인 (H1) -->
  <rect x="160" y="210" width="380" height="52" rx="8" fill="#A78BFA"/>
  <rect x="160" y="290" width="500" height="32" rx="6" fill="#6D28D9" opacity="0.7"/>
  <rect x="160" y="340" width="440" height="32" rx="6" fill="#6D28D9" opacity="0.7"/>
  <rect x="160" y="390" width="460" height="32" rx="6" fill="#6D28D9" opacity="0.6"/>
  <!-- 코드블록 -->
  <rect x="160" y="460" width="520" height="140" rx="12" fill="#0D0520"/>
  <rect x="160" y="460" width="520" height="140" rx="12" fill="none" stroke="#4C1D95" stroke-width="6"/>
  <rect x="190" y="490" width="180" height="24" rx="5" fill="#C4B5FD" opacity="0.6"/>
  <rect x="190" y="528" width="280" height="24" rx="5" fill="#DDD6FE" opacity="0.5"/>
  <rect x="190" y="566" width="220" height="24" rx="5" fill="#C4B5FD" opacity="0.4"/>
  <!-- Layer 3: 눈 아이콘 (우측) -->
  <ellipse cx="840" cy="512" rx="100" ry="70" fill="none" stroke="#FFFFFF" stroke-width="40" stroke-linecap="round"/>
  <circle cx="840" cy="512" r="36" fill="#FFFFFF"/>
  <circle cx="840" cy="512" r="18" fill="#1A0A3C"/>
</svg>
