<svg xmlns="http://www.w3.org/2000/svg" viewBox="0 0 1024 1024">
  <rect width="1024" height="1024" rx="180" fill="#050005"/>
  <!-- 폭발 중심 -->
  <circle cx="512" cy="512" r="140" fill="#880E4F"/>
  <!-- 폭발 광선 -->
  <path d="M512 512 L440 200 L512 300 L584 200 Z" fill="#F48FB1" opacity="0.85"/>
  <path d="M512 512 L800 440 L700 512 L800 584 Z" fill="#F48FB1" opacity="0.85"/>
  <path d="M512 512 L584 824 L512 724 L440 824 Z" fill="#F48FB1" opacity="0.85"/>
  <path d="M512 512 L224 584 L324 512 L224 440 Z" fill="#F48FB1" opacity="0.85"/>
  <path d="M512 512 L270 270 L400 380 L380 400 Z" fill="#F48FB1" opacity="0.65"/>
  <path d="M512 512 L754 270 L644 400 L624 380 Z" fill="#F48FB1" opacity="0.65"/>
  <path d="M512 512 L754 754 L624 644 L644 624 Z" fill="#F48FB1" opacity="0.65"/>
  <path d="M512 512 L270 754 L400 624 L380 644 Z" fill="#F48FB1" opacity="0.65"/>
  <!-- 중심 코어 -->
  <circle cx="512" cy="512" r="70" fill="#F48FB1"/>
  <!-- 탈출 화살표 -->
  <path d="M512 300 L512 180 L560 180 L512 80 L464 180 L512 180 Z" fill="#F48FB1"/>
</svg>
