<svg xmlns="http://www.w3.org/2000/svg" viewBox="0 0 1024 1024">
  <rect width="1024" height="1024" rx="180" fill="#050005"/>
  <!-- 방패 -->
  <path d="M512 160 L760 260 L760 540 Q760 720 512 860 Q264 720 264 540 L264 260 Z" fill="#880E4F" opacity="0.7" stroke="#880E4F" stroke-width="20"/>
  <path d="M512 200 L720 290 L720 540 Q720 700 512 820 Q304 700 304 540 L304 290 Z" fill="#050005"/>
  <!-- 방패 내부 탈출 화살표 -->
  <path d="M420 560 L420 440 L480 440 L512 380 L544 440 L604 440 L604 560 Z" fill="#F48FB1" opacity="0.9"/>
  <!-- 방패 테두리 빛 -->
  <path d="M512 160 L760 260 L760 540 Q760 720 512 860" fill="none" stroke="#F48FB1" stroke-width="14" opacity="0.5"/>
  <!-- 탈출 별표 -->
  <circle cx="512" cy="620" r="36" fill="#F48FB1"/>
</svg>
