<svg xmlns="http://www.w3.org/2000/svg" viewBox="0 0 1024 1024">
  <rect x="80" y="80" width="864" height="864" rx="180" fill="#00100A"/>
  <!-- 스프링 압축 해제 -->
  <!-- 위 판 -->
  <rect x="280" y="240" width="464" height="60" rx="14" fill="#00695C"/>
  <!-- 스프링 -->
  <path d="M350 300 Q512 350 674 300 Q836 250 674 400 Q512 450 350 400 Q188 350 350 500 Q512 550 674 500 Q836 450 674 600 Q512 650 350 600 Q188 550 350 700" fill="none" stroke="#26A69A" stroke-width="22" stroke-linecap="round"/>
  <!-- 아래 판 -->
  <rect x="280" y="700" width="464" height="60" rx="14" fill="#00695C"/>
  <!-- 화살표 (해제 방향) -->
  <line x1="800" y1="300" x2="800" y2="440" stroke="#26A69A" stroke-width="14" stroke-linecap="round" opacity="0.7"/>
  <polygon points="772,440 800,480 828,440" fill="#26A69A" opacity="0.7"/>
  <line x1="800" y1="620" x2="800" y2="760" stroke="#26A69A" stroke-width="14" stroke-linecap="round" opacity="0.7"/>
  <polygon points="772,620 800,580 828,620" fill="#26A69A" opacity="0.7"/>
</svg>