<svg xmlns="http://www.w3.org/2000/svg" viewBox="0 0 512 512">
  <defs>
    <linearGradient id="bg" x1="0" y1="0" x2="0" y2="1">
      <stop offset="0%" stop-color="#004D40"/>
      <stop offset="100%" stop-color="#00251A"/>
    </linearGradient>
    <linearGradient id="teal" x1="0" y1="0" x2="1" y2="1">
      <stop offset="0%" stop-color="#80CBC4"/>
      <stop offset="100%" stop-color="#00BFA5"/>
    </linearGradient>
  </defs>
  <rect width="512" height="512" rx="80" fill="url(#bg)"/>
  <!-- Full QR grid minimal -->
  <g fill="url(#teal)">
    <!-- TL finder -->
    <rect x="76" y="76" width="140" height="140" rx="14" fill="none" stroke="url(#teal)" stroke-width="18"/>
    <rect x="102" y="102" width="88" height="88" rx="6" fill="url(#teal)"/>
    <!-- TR finder -->
    <rect x="296" y="76" width="140" height="140" rx="14" fill="none" stroke="url(#teal)" stroke-width="18"/>
    <rect x="322" y="102" width="88" height="88" rx="6" fill="url(#teal)"/>
    <!-- BL finder -->
    <rect x="76" y="296" width="140" height="140" rx="14" fill="none" stroke="url(#teal)" stroke-width="18"/>
    <rect x="102" y="322" width="88" height="88" rx="6" fill="url(#teal)"/>
    <!-- Data modules -->
    <rect x="296" y="296" width="22" height="22" rx="4" opacity="0.9"/>
    <rect x="328" y="296" width="22" height="22" rx="4" opacity="0.7"/>
    <rect x="360" y="296" width="22" height="22" rx="4" opacity="0.9"/>
    <rect x="392" y="296" width="22" height="22" rx="4" opacity="0.5"/>
    <rect x="296" y="328" width="22" height="22" rx="4" opacity="0.5"/>
    <rect x="360" y="328" width="22" height="22" rx="4" opacity="0.9"/>
    <rect x="392" y="328" width="22" height="22" rx="4" opacity="0.7"/>
    <rect x="328" y="360" width="22" height="22" rx="4" opacity="0.9"/>
    <rect x="360" y="360" width="22" height="22" rx="4" opacity="0.5"/>
    <rect x="296" y="392" width="22" height="22" rx="4" opacity="0.7"/>
    <rect x="360" y="392" width="22" height="22" rx="4" opacity="0.9"/>
    <rect x="392" y="392" width="22" height="22" rx="4" opacity="0.6"/>
  </g>
</svg>
