<svg xmlns="http://www.w3.org/2000/svg" viewBox="0 0 1024 1024">
  <rect width="1024" height="1024" rx="200" fill="#0EA5E9"/>
  <rect x="360" y="340" width="304" height="304" rx="30" fill="#0F172A" stroke="#FFFFFF" stroke-width="14"/>
  <g fill="#FFE066">
    <rect x="400" y="380" width="30" height="30"/>
    <rect x="450" y="380" width="30" height="30"/>
    <rect x="544" y="380" width="30" height="30"/>
    <rect x="594" y="380" width="30" height="30"/>
    <rect x="380" y="430" width="20" height="20"/>
    <rect x="624" y="430" width="20" height="20"/>
    <rect x="380" y="554" width="20" height="20"/>
    <rect x="624" y="554" width="20" height="20"/>
    <rect x="400" y="604" width="30" height="30"/>
    <rect x="450" y="604" width="30" height="30"/>
    <rect x="544" y="604" width="30" height="30"/>
    <rect x="594" y="604" width="30" height="30"/>
  </g>
  <rect x="460" y="440" width="104" height="104" rx="10" fill="#FF6B9D"/>
  <text x="512" y="510" font-family="Arial Black, sans-serif" font-size="62" font-weight="900" fill="#FFFFFF" text-anchor="middle">AI</text>
  <rect x="120" y="160" width="200" height="140" rx="18" fill="#FFFFFF" stroke="#0F172A" stroke-width="12"/>
  <circle cx="170" cy="210" r="20" fill="#FFC93C"/>
  <path d="M130 280 L200 220 L260 260 L310 210 L310 290 L120 290 Z" fill="#5BC0A5"/>
  <rect x="704" y="160" width="200" height="140" rx="18" fill="#FFFFFF" stroke="#0F172A" stroke-width="12"/>
  <circle cx="754" cy="210" r="20" fill="#FF6B9D"/>
  <path d="M714 280 L784 220 L844 260 L894 210 L894 290 L704 290 Z" fill="#7C6BFF"/>
  <rect x="120" y="724" width="200" height="140" rx="18" fill="#FFFFFF" stroke="#0F172A" stroke-width="12"/>
  <circle cx="170" cy="774" r="20" fill="#FF8A3D"/>
  <path d="M130 844 L200 784 L260 824 L310 774 L310 854 L120 854 Z" fill="#FFC93C"/>
  <rect x="704" y="724" width="200" height="140" rx="18" fill="#FFFFFF" stroke="#0F172A" stroke-width="12"/>
  <circle cx="754" cy="774" r="20" fill="#5BC0A5"/>
  <path d="M714 844 L784 784 L844 824 L894 774 L894 854 L704 854 Z" fill="#FF6B9D"/>
  <line x1="320" y1="300" x2="400" y2="380" stroke="#FFFFFF" stroke-width="10"/>
  <line x1="704" y1="300" x2="624" y2="380" stroke="#FFFFFF" stroke-width="10"/>
  <line x1="320" y1="724" x2="400" y2="644" stroke="#FFFFFF" stroke-width="10"/>
  <line x1="704" y1="724" x2="624" y2="644" stroke="#FFFFFF" stroke-width="10"/>
</svg>
