<svg xmlns="http://www.w3.org/2000/svg" viewBox="0 0 1024 1024">
  <defs>
    <linearGradient id="bgBS1" x1="0" y1="0" x2="1" y2="1">
      <stop offset="0" stop-color="#5EEAD4"/>
      <stop offset="1" stop-color="#6366F1"/>
    </linearGradient>
    <linearGradient id="sharpBS1" x1="0" y1="0" x2="1" y2="1">
      <stop offset="0" stop-color="#FF6B9D"/>
      <stop offset="1" stop-color="#FFC93C"/>
    </linearGradient>
  </defs>
  <rect width="1024" height="1024" rx="200" fill="url(#bgBS1)"/>
  <rect x="140" y="260" width="360" height="504" rx="24" fill="#FFFFFF" stroke="#1E1B4B" stroke-width="14"/>
  <g>
    <rect x="170" y="290" width="100" height="100" fill="#7CC7FF"/>
    <rect x="270" y="290" width="100" height="100" fill="#FFC93C"/>
    <rect x="370" y="290" width="100" height="100" fill="#FF6B9D"/>
    <rect x="170" y="390" width="100" height="100" fill="#FFC93C"/>
    <rect x="270" y="390" width="100" height="100" fill="#FF6B9D"/>
    <rect x="370" y="390" width="100" height="100" fill="#5BC0A5"/>
    <rect x="170" y="490" width="100" height="100" fill="#FF6B9D"/>
    <rect x="270" y="490" width="100" height="100" fill="#5BC0A5"/>
    <rect x="370" y="490" width="100" height="100" fill="#7CC7FF"/>
    <rect x="170" y="590" width="100" height="100" fill="#5BC0A5"/>
    <rect x="270" y="590" width="100" height="100" fill="#7CC7FF"/>
    <rect x="370" y="590" width="100" height="100" fill="#FFC93C"/>
  </g>
  <rect x="524" y="260" width="360" height="504" rx="24" fill="url(#sharpBS1)" stroke="#1E1B4B" stroke-width="14"/>
  <circle cx="620" cy="380" r="40" fill="#FFFFFF"/>
  <path d="M540 640 L660 470 L740 560 L820 430 L870 720 L540 720 Z" fill="#FFFFFF" opacity="0.85"/>
  <text x="512" y="900" font-family="Arial Black, sans-serif" font-size="130" font-weight="900" fill="#FFFFFF" text-anchor="middle" stroke="#1E1B4B" stroke-width="8">4× AI</text>
</svg>
