<svg xmlns="http://www.w3.org/2000/svg" viewBox="0 0 512 512">
  <defs>
    <linearGradient id="bg" x1="0%" y1="0%" x2="100%" y2="100%">
      <stop offset="0%" stop-color="#0D0D2E"/>
      <stop offset="100%" stop-color="#1A1A4A"/>
    </linearGradient>
    <linearGradient id="castle" x1="0%" y1="0%" x2="0%" y2="100%">
      <stop offset="0%" stop-color="#5C6BC0"/>
      <stop offset="100%" stop-color="#283593"/>
    </linearGradient>
  </defs>
  <rect width="512" height="512" rx="80" fill="url(#bg)"/>
  <rect x="156" y="220" width="200" height="200" rx="8" fill="url(#castle)"/>
  <rect x="136" y="180" width="50" height="60" rx="4" fill="url(#castle)"/>
  <rect x="326" y="180" width="50" height="60" rx="4" fill="url(#castle)"/>
  <rect x="136" y="160" width="14" height="28" rx="2" fill="url(#castle)"/>
  <rect x="158" y="160" width="14" height="28" rx="2" fill="url(#castle)"/>
  <rect x="180" y="160" width="14" height="28" rx="2" fill="url(#castle)"/>
  <rect x="326" y="160" width="14" height="28" rx="2" fill="url(#castle)"/>
  <rect x="348" y="160" width="14" height="28" rx="2" fill="url(#castle)"/>
  <rect x="370" y="160" width="14" height="28" rx="2" fill="url(#castle)"/>
  <rect x="216" y="140" width="80" height="80" rx="4" fill="url(#castle)"/>
  <rect x="214" y="120" width="18" height="30" rx="2" fill="url(#castle)"/>
  <rect x="240" y="120" width="18" height="30" rx="2" fill="url(#castle)"/>
  <rect x="266" y="120" width="18" height="30" rx="2" fill="url(#castle)"/>
  <rect x="292" y="120" width="18" height="30" rx="2" fill="url(#castle)"/>
  <rect x="228" y="330" width="56" height="90" rx="6" fill="#0D0D2E"/>
  <circle cx="256" cy="330" r="28" fill="#0D0D2E"/>
  <circle cx="256" cy="230" r="20" fill="#9FA8DA" opacity="0.8"/>
  <path d="M248 230 L254 236 L266 224" stroke="#FFFFFF" stroke-width="5" stroke-linecap="round" stroke-linejoin="round" fill="none"/>
</svg>