<svg xmlns="http://www.w3.org/2000/svg" viewBox="0 0 512 512">
  <defs>
    <linearGradient id="bg" x1="0%" y1="0%" x2="100%" y2="100%">
      <stop offset="0%" stop-color="#120A1E"/>
      <stop offset="100%" stop-color="#1E0E38"/>
    </linearGradient>
    <linearGradient id="node" x1="0%" y1="0%" x2="100%" y2="100%">
      <stop offset="0%" stop-color="#7C4DFF"/>
      <stop offset="100%" stop-color="#4527A0"/>
    </linearGradient>
  </defs>
  <rect width="512" height="512" rx="80" fill="url(#bg)"/>
  <line x1="256" y1="256" x2="140" y2="150" stroke="#7C4DFF" stroke-width="4" opacity="0.7"/>
  <line x1="256" y1="256" x2="372" y2="150" stroke="#7C4DFF" stroke-width="4" opacity="0.7"/>
  <line x1="256" y1="256" x2="140" y2="362" stroke="#7C4DFF" stroke-width="4" opacity="0.7"/>
  <line x1="256" y1="256" x2="372" y2="362" stroke="#7C4DFF" stroke-width="4" opacity="0.7"/>
  <line x1="256" y1="256" x2="256" y2="100" stroke="#7C4DFF" stroke-width="4" opacity="0.7"/>
  <line x1="256" y1="256" x2="100" y2="256" stroke="#7C4DFF" stroke-width="4" opacity="0.7"/>
  <line x1="256" y1="256" x2="412" y2="256" stroke="#7C4DFF" stroke-width="4" opacity="0.7"/>
  <circle cx="256" cy="100" r="22" fill="url(#node)" stroke="#B39DDB" stroke-width="3"/>
  <circle cx="140" cy="150" r="18" fill="url(#node)" stroke="#B39DDB" stroke-width="3"/>
  <circle cx="372" cy="150" r="18" fill="url(#node)" stroke="#B39DDB" stroke-width="3"/>
  <circle cx="100" cy="256" r="18" fill="url(#node)" stroke="#B39DDB" stroke-width="3"/>
  <circle cx="412" cy="256" r="18" fill="url(#node)" stroke="#B39DDB" stroke-width="3"/>
  <circle cx="140" cy="362" r="18" fill="url(#node)" stroke="#B39DDB" stroke-width="3"/>
  <circle cx="372" cy="362" r="18" fill="url(#node)" stroke="#B39DDB" stroke-width="3"/>
  <circle cx="256" cy="256" r="38" fill="url(#node)" stroke="#E040FB" stroke-width="5"/>
  <path d="M240 256 L252 268 L276 244" stroke="#FFFFFF" stroke-width="7" stroke-linecap="round" stroke-linejoin="round" fill="none"/>
</svg>