<svg xmlns="http://www.w3.org/2000/svg" viewBox="0 0 1024 1024">
  <rect x="80" y="80" width="864" height="864" rx="180" fill="#00080A"/>
  <!-- 지도 배경 격자 -->
  <rect x="200" y="240" width="624" height="460" rx="20" fill="#006064" opacity="0.2" stroke="#006064" stroke-width="20"/>
  <!-- 지도 윤곽선 -->
  <path d="M240 360 Q320 300 400 380 Q480 460 560 340 Q640 220 720 340 Q760 400 740 500 Q720 600 640 680 Q560 760 480 700 Q400 640 320 700 Q260 740 240 660 Z" fill="#006064" opacity="0.3"/>
  <!-- GPS 핀 -->
  <circle cx="512" cy="440" r="60" fill="#26C6DA"/>
  <circle cx="512" cy="440" r="30" fill="#00080A"/>
  <path d="M512 490 L512 620" stroke="#26C6DA" stroke-width="28" stroke-linecap="round"/>
  <!-- 탐색 파동 -->
  <circle cx="512" cy="440" r="100" fill="none" stroke="#26C6DA" stroke-width="20" opacity="0.4"/>
  <circle cx="512" cy="440" r="150" fill="none" stroke="#26C6DA" stroke-width="14" opacity="0.2"/>
</svg>
