<svg xmlns="http://www.w3.org/2000/svg" viewBox="0 0 512 512">
  <defs>
    <linearGradient id="bg" x1="0%" y1="0%" x2="100%" y2="100%">
      <stop offset="0%" style="stop-color:#2d1b69"/>
      <stop offset="100%" style="stop-color:#11998e"/>
    </linearGradient>
    <linearGradient id="keys" x1="0%" y1="100%" x2="0%" y2="0%">
      <stop offset="0%" style="stop-color:#ffffff"/>
      <stop offset="100%" style="stop-color:#e8e8e8"/>
    </linearGradient>
  </defs>
  <rect width="512" height="512" rx="80" fill="url(#bg)"/>
  <!-- Piano keyboard -->
  <rect x="56" y="280" width="400" height="170" rx="12" fill="url(#keys)"/>
  <!-- White key separators -->
  <line x1="113" y1="280" x2="113" y2="450" stroke="#ccc" stroke-width="2"/>
  <line x1="170" y1="280" x2="170" y2="450" stroke="#ccc" stroke-width="2"/>
  <line x1="227" y1="280" x2="227" y2="450" stroke="#ccc" stroke-width="2"/>
  <line x1="284" y1="280" x2="284" y2="450" stroke="#ccc" stroke-width="2"/>
  <line x1="341" y1="280" x2="341" y2="450" stroke="#ccc" stroke-width="2"/>
  <line x1="398" y1="280" x2="398" y2="450" stroke="#ccc" stroke-width="2"/>
  <!-- Black keys -->
  <rect x="90" y="280" width="35" height="105" rx="5" fill="#1a1a1a"/>
  <rect x="147" y="280" width="35" height="105" rx="5" fill="#1a1a1a"/>
  <rect x="261" y="280" width="35" height="105" rx="5" fill="#1a1a1a"/>
  <rect x="318" y="280" width="35" height="105" rx="5" fill="#1a1a1a"/>
  <rect x="375" y="280" width="35" height="105" rx="5" fill="#1a1a1a"/>
  <!-- Ear shape above piano -->
  <path d="M256 60 C200 60 155 105 155 165 C155 215 182 255 222 272 C234 277 244 267 240 256 C208 240 190 204 190 165 C190 124 219 95 256 95 C293 95 322 124 322 165 C322 204 304 240 272 256 C268 267 278 277 290 272 C330 255 357 215 357 165 C357 105 312 60 256 60Z" fill="white" opacity="0.95"/>
  <path d="M256 115 C228 115 208 138 208 165 C208 188 220 208 240 218 C248 222 257 216 254 207 C240 199 243 183 243 165 C243 148 249 142 256 142 C263 142 269 148 269 165 L300 165 C300 138 284 115 256 115Z" fill="white" opacity="0.6"/>
  <!-- Glow highlight -->
  <circle cx="256" cy="165" r="20" fill="white" opacity="0.3"/>
</svg>
