<svg xmlns="http://www.w3.org/2000/svg" viewBox="0 0 512 512">
  <defs>
    <linearGradient id="bg" x1="0%" y1="0%" x2="100%" y2="100%">
      <stop offset="0%" style="stop-color:#0d0d0d"/>
      <stop offset="100%" style="stop-color:#1a0533"/>
    </linearGradient>
    <linearGradient id="bar1" x1="0%" y1="100%" x2="0%" y2="0%">
      <stop offset="0%" style="stop-color:#ff006e"/>
      <stop offset="100%" style="stop-color:#fb5607"/>
    </linearGradient>
    <linearGradient id="bar2" x1="0%" y1="100%" x2="0%" y2="0%">
      <stop offset="0%" style="stop-color:#8338ec"/>
      <stop offset="100%" style="stop-color:#3a86ff"/>
    </linearGradient>
    <linearGradient id="bar3" x1="0%" y1="100%" x2="0%" y2="0%">
      <stop offset="0%" style="stop-color:#06d6a0"/>
      <stop offset="100%" style="stop-color:#118ab2"/>
    </linearGradient>
  </defs>
  <rect width="512" height="512" rx="80" fill="url(#bg)"/>
  <!-- Spectrum bars -->
  <rect x="50" y="350" width="30" height="100" rx="5" fill="url(#bar1)" opacity="0.8"/>
  <rect x="90" y="290" width="30" height="160" rx="5" fill="url(#bar1)"/>
  <rect x="130" y="220" width="30" height="230" rx="5" fill="url(#bar2)"/>
  <rect x="170" y="170" width="30" height="280" rx="5" fill="url(#bar2)"/>
  <rect x="210" y="130" width="30" height="320" rx="5" fill="url(#bar3)"/>
  <rect x="250" y="110" width="30" height="340" rx="5" fill="url(#bar3)"/>
  <rect x="290" y="140" width="30" height="310" rx="5" fill="url(#bar2)"/>
  <rect x="330" y="190" width="30" height="260" rx="5" fill="url(#bar2)"/>
  <rect x="370" y="240" width="30" height="210" rx="5" fill="url(#bar1)"/>
  <rect x="410" y="310" width="30" height="140" rx="5" fill="url(#bar1)" opacity="0.8"/>
  <rect x="450" y="380" width="30" height="70" rx="5" fill="url(#bar1)" opacity="0.5"/>
  <!-- Ear listening icon -->
  <path d="M256 30 C226 30 200 53 200 82 C200 106 215 126 237 134 C243 136 248 131 246 125 C229 118 218 101 218 82 C218 63 235 48 256 48 C277 48 294 63 294 82 C294 101 283 118 266 125 C264 131 269 136 275 134 C297 126 312 106 312 82 C312 53 286 30 256 30Z" fill="white" opacity="0.8"/>
  <path d="M256 60 C244 60 235 70 235 82 C235 92 241 101 250 105 C254 107 257 104 256 100 C249 97 253 89 253 82 C253 75 254 72 256 72 C258 72 259 75 259 82 L271 82 C271 70 264 60 256 60Z" fill="white" opacity="0.6"/>
</svg>
