<svg xmlns="http://www.w3.org/2000/svg" viewBox="0 0 1024 1024">
  <defs>
    <linearGradient id="bg_fp6" x1="0%" y1="0%" x2="100%" y2="100%">
      <stop offset="0%" style="stop-color:#DC2626"/>
      <stop offset="100%" style="stop-color:#B91C1C"/>
    </linearGradient>
  </defs>
  <!-- 배경 -->
  <rect width="1024" height="1024" rx="185" fill="url(#bg_fp6)"/>
  <!-- 불꽃 1 (왼쪽) -->
  <path d="M 320 800 C 280 720 260 640 300 560 C 320 510 340 530 330 590 C 360 530 380 450 350 380 C 390 420 410 500 390 570 C 420 510 440 440 420 370 C 460 420 470 520 440 600 C 460 560 480 520 470 470 C 500 520 500 620 460 700 C 500 660 520 600 510 540 C 540 600 540 700 490 780 C 480 800 400 820 320 800 Z" fill="#FF6B00"/>
  <!-- 불꽃 2 (중앙) -->
  <path d="M 512 820 C 460 730 440 630 490 530 C 514 475 540 500 530 570 C 565 500 590 400 555 320 C 600 370 618 480 590 560 C 620 490 646 400 622 320 C 668 380 676 500 642 590 C 666 540 688 488 676 428 C 712 488 710 608 664 700 C 706 650 730 580 718 510 C 754 580 752 700 692 790 C 678 818 574 838 512 820 Z" fill="#FF8C00"/>
  <!-- 불꽃 3 (오른쪽) -->
  <path d="M 700 800 C 660 720 650 640 690 560 C 710 510 730 530 718 590 C 748 530 765 450 738 378 C 774 418 786 500 764 572 C 790 510 808 440 788 370 C 828 420 836 520 804 600 C 826 560 842 518 832 468 C 862 520 860 618 820 700 C 856 660 876 598 866 538 C 894 598 890 702 840 782 C 828 804 742 820 700 800 Z" fill="#FF6B00"/>
  <!-- 폴더 실루엣 (불꽃 위, 노란색) -->
  <path d="M 390 480 L 390 454 Q 390 428 416 428 L 520 428 Q 546 428 556 454 L 568 480 Z" fill="#FBBF24" opacity="0.92"/>
  <rect x="360" y="480" width="304" height="200" rx="22" fill="#FBBF24" opacity="0.92"/>
  <!-- 폴더 내부 (빈 폴더 표현) -->
  <rect x="380" y="510" width="200" height="16" rx="5" fill="#FDE68A" opacity="0.6"/>
  <rect x="380" y="540" width="160" height="14" rx="4" fill="#FDE68A" opacity="0.4"/>
</svg>
