<svg xmlns="http://www.w3.org/2000/svg" viewBox="0 0 1024 1024">
  <defs>
    <linearGradient id="bg_fp7" x1="0%" y1="0%" x2="100%" y2="100%">
      <stop offset="0%" style="stop-color:#C4B5FD"/>
      <stop offset="100%" style="stop-color:#A78BFA"/>
    </linearGradient>
  </defs>
  <!-- 배경 -->
  <rect width="1024" height="1024" rx="185" fill="url(#bg_fp7)"/>
  <!-- 청소기 몸통 -->
  <ellipse cx="500" cy="480" rx="180" ry="140" fill="#6B7280"/>
  <!-- 청소기 몸통 하이라이트 -->
  <ellipse cx="480" cy="440" rx="120" ry="80" fill="#9CA3AF" opacity="0.5"/>
  <!-- 청소기 바퀴 -->
  <ellipse cx="420" cy="610" rx="48" ry="28" fill="#4B5563"/>
  <ellipse cx="580" cy="610" rx="48" ry="28" fill="#4B5563"/>
  <!-- 청소기 로고 점 -->
  <circle cx="500" cy="480" r="36" fill="#7C3AED" opacity="0.7"/>
  <!-- 호스 (긴 곡선) -->
  <path d="M 330 460 Q 240 380 200 280 Q 175 210 220 190 Q 260 175 290 230" fill="none" stroke="#4B5563" stroke-width="44" stroke-linecap="round"/>
  <!-- 호스 헤드 (흡입구) -->
  <ellipse cx="290" cy="230" rx="52" ry="32" fill="#374151" transform="rotate(-30 290 230)"/>
  <!-- 흡입되는 폴더 (흰색) -->
  <path d="M 170 120 L 170 102 Q 170 84 188 84 L 250 84 Q 268 84 274 102 L 282 120 Z" fill="white" opacity="0.9"/>
  <rect x="155" y="120" width="160" height="110" rx="14" fill="white" opacity="0.9"/>
  <!-- 흡입 모션 라인 -->
  <line x1="240" y1="200" x2="268" y2="218" stroke="white" stroke-width="14" stroke-linecap="round" opacity="0.7"/>
  <line x1="230" y1="222" x2="258" y2="234" stroke="white" stroke-width="11" stroke-linecap="round" opacity="0.55"/>
  <line x1="228" y1="244" x2="256" y2="252" stroke="white" stroke-width="9" stroke-linecap="round" opacity="0.4"/>
  <!-- 청소기 전원 표시등 -->
  <circle cx="580" cy="440" r="20" fill="#4ADE80"/>
  <circle cx="580" cy="440" r="10" fill="#86EFAC"/>
</svg>
