<svg xmlns="http://www.w3.org/2000/svg" viewBox="0 0 1024 1024">
  <!-- icon_08: 게임 NPC (NPC character: mock response) -->
  <rect x="80" y="80" width="864" height="864" rx="180" fill="#050510"/>
  <!-- NPC 머리 (픽셀 스타일 사각형) -->
  <rect x="332" y="200" width="360" height="320" rx="20" fill="#283593"/>
  <!-- NPC 눈 (픽셀) -->
  <rect x="390" y="290" width="60" height="60" rx="8" fill="#5C6BC0"/>
  <rect x="574" y="290" width="60" height="60" rx="8" fill="#5C6BC0"/>
  <!-- NPC 눈 동공 -->
  <rect x="408" y="308" width="24" height="24" rx="4" fill="#050510"/>
  <rect x="592" y="308" width="24" height="24" rx="4" fill="#050510"/>
  <!-- NPC 입 (직선 = 무표정) -->
  <rect x="400" y="420" width="224" height="20" rx="10" fill="#5C6BC0" opacity="0.7"/>
  <!-- NPC 몸통 -->
  <rect x="292" y="540" width="440" height="260" rx="24" fill="#283593"/>
  <!-- 말풍선 -->
  <rect x="580" y="180" width="220" height="120" rx="20" fill="#283593"/>
  <polygon points="600,300 650,340 700,300" fill="#283593"/>
  <!-- 말풍선 내부 ... -->
  <circle cx="630" cy="240" r="14" fill="#5C6BC0"/>
  <circle cx="690" cy="240" r="14" fill="#5C6BC0"/>
  <circle cx="750" cy="240" r="14" fill="#5C6BC0"/>
  <!-- NPC 배지 -->
  <circle cx="512" cy="670" r="50" fill="#5C6BC0" opacity="0.4"/>
  <circle cx="512" cy="670" r="28" fill="#5C6BC0" opacity="0.8"/>
</svg>
