<svg xmlns="http://www.w3.org/2000/svg" viewBox="0 0 512 512">
  <defs>
    <linearGradient id="bg" x1="0%" y1="0%" x2="100%" y2="100%">
      <stop offset="0%" stop-color="#0C1A2E"/>
      <stop offset="100%" stop-color="#0A2540"/>
    </linearGradient>
    <linearGradient id="bar1" x1="0%" y1="100%" x2="0%" y2="0%">
      <stop offset="0%" stop-color="#0891B2"/>
      <stop offset="100%" stop-color="#22D3EE"/>
    </linearGradient>
    <linearGradient id="bar2" x1="0%" y1="100%" x2="0%" y2="0%">
      <stop offset="0%" stop-color="#0E7490"/>
      <stop offset="100%" stop-color="#06B6D4"/>
    </linearGradient>
    <linearGradient id="bar3" x1="0%" y1="100%" x2="0%" y2="0%">
      <stop offset="0%" stop-color="#F59E0B"/>
      <stop offset="100%" stop-color="#FCD34D"/>
    </linearGradient>
    <linearGradient id="bar4" x1="0%" y1="100%" x2="0%" y2="0%">
      <stop offset="0%" stop-color="#EF4444"/>
      <stop offset="100%" stop-color="#F87171"/>
    </linearGradient>
  </defs>
  <rect width="512" height="512" rx="80" fill="url(#bg)"/>
  <!-- Grid lines -->
  <line x1="68" y1="100" x2="68" y2="390" stroke="#1E3A5F" stroke-width="1.5"/>
  <line x1="68" y1="390" x2="460" y2="390" stroke="#1E3A5F" stroke-width="1.5"/>
  <line x1="68" y1="320" x2="460" y2="320" stroke="#1E3A5F" stroke-width="1" opacity="0.5"/>
  <line x1="68" y1="250" x2="460" y2="250" stroke="#1E3A5F" stroke-width="1" opacity="0.5"/>
  <line x1="68" y1="180" x2="460" y2="180" stroke="#1E3A5F" stroke-width="1" opacity="0.5"/>
  <line x1="68" y1="110" x2="460" y2="110" stroke="#1E3A5F" stroke-width="1" opacity="0.5"/>
  <!-- Y axis labels -->
  <text x="56" y="394" font-family="Arial" font-size="12" fill="#64748B" text-anchor="end">0</text>
  <text x="56" y="324" font-family="Arial" font-size="12" fill="#64748B" text-anchor="end">25</text>
  <text x="56" y="254" font-family="Arial" font-size="12" fill="#64748B" text-anchor="end">50</text>
  <text x="56" y="184" font-family="Arial" font-size="12" fill="#64748B" text-anchor="end">75</text>
  <text x="56" y="114" font-family="Arial" font-size="12" fill="#64748B" text-anchor="end">100</text>
  <!-- Bars -->
  <!-- System: 18% -->
  <rect x="88" y="342" width="60" height="48" rx="5" fill="url(#bar2)"/>
  <text x="118" y="408" font-family="Arial" font-size="11" fill="#64748B" text-anchor="middle">System</text>
  <text x="118" y="332" font-family="Arial" font-size="12" fill="#22D3EE" text-anchor="middle">4.5G</text>
  <!-- Apps: 48% -->
  <rect x="178" y="222" width="60" height="168" rx="5" fill="url(#bar1)"/>
  <text x="208" y="408" font-family="Arial" font-size="11" fill="#64748B" text-anchor="middle">Apps</text>
  <text x="208" y="212" font-family="Arial" font-size="12" fill="#22D3EE" text-anchor="middle">12.0G</text>
  <!-- Cache: 22% -->
  <rect x="268" y="310" width="60" height="80" rx="5" fill="url(#bar3)"/>
  <text x="298" y="408" font-family="Arial" font-size="11" fill="#64748B" text-anchor="middle">Cache</text>
  <text x="298" y="300" font-family="Arial" font-size="12" fill="#FCD34D" text-anchor="middle">5.5G</text>
  <!-- Free: 12% -->
  <rect x="358" y="350" width="60" height="40" rx="5" fill="url(#bar4)"/>
  <text x="388" y="408" font-family="Arial" font-size="11" fill="#64748B" text-anchor="middle">Free</text>
  <text x="388" y="340" font-family="Arial" font-size="12" fill="#F87171" text-anchor="middle">3.0G</text>
  <!-- Title -->
  <text x="256" y="68" font-family="Arial" font-size="18" fill="#E2E8F0" text-anchor="middle" font-weight="bold">Memory Usage</text>
  <!-- Total -->
  <text x="256" y="460" font-family="Arial" font-size="14" fill="#94A3B8" text-anchor="middle">Total: 32 GB  |  Used: 22.0 GB (68.8%)</text>
</svg>
