<svg xmlns="http://www.w3.org/2000/svg" viewBox="0 0 512 512">
  <defs>
    <linearGradient id="bg" x1="0%" y1="0%" x2="100%" y2="100%">
      <stop offset="0%" stop-color="#1a0000"/>
      <stop offset="100%" stop-color="#2d0a0a"/>
    </linearGradient>
    <linearGradient id="hot" x1="0%" y1="0%" x2="100%" y2="0%">
      <stop offset="0%" stop-color="#1E3A5F"/>
      <stop offset="30%" stop-color="#22C55E"/>
      <stop offset="60%" stop-color="#EAB308"/>
      <stop offset="80%" stop-color="#F97316"/>
      <stop offset="100%" stop-color="#EF4444"/>
    </linearGradient>
  </defs>
  <rect width="512" height="512" rx="80" fill="url(#bg)"/>
  <!-- Title -->
  <text x="256" y="65" font-family="Arial" font-size="16" fill="#E2E8F0" text-anchor="middle" font-weight="bold">MEMORY HEATMAP</text>
  <!-- Process heatmap grid -->
  <!-- Row labels -->
  <text x="78" y="118" font-family="Courier New" font-size="10" fill="#9CA3AF" text-anchor="end">chrome</text>
  <text x="78" y="146" font-family="Courier New" font-size="10" fill="#9CA3AF" text-anchor="end">vscode</text>
  <text x="78" y="174" font-family="Courier New" font-size="10" fill="#9CA3AF" text-anchor="end">dotnet</text>
  <text x="78" y="202" font-family="Courier New" font-size="10" fill="#9CA3AF" text-anchor="end">slack</text>
  <text x="78" y="230" font-family="Courier New" font-size="10" fill="#9CA3AF" text-anchor="end">explorer</text>
  <text x="78" y="258" font-family="Courier New" font-size="10" fill="#9CA3AF" text-anchor="end">discord</text>
  <text x="78" y="286" font-family="Courier New" font-size="10" fill="#9CA3AF" text-anchor="end">teams</text>
  <text x="78" y="314" font-family="Courier New" font-size="10" fill="#9CA3AF" text-anchor="end">system</text>
  <!-- Heatmap cells (8 rows x 12 cols) -->
  <!-- chrome row - high usage -->
  <rect x="86" y="104" width="24" height="22" rx="2" fill="#F97316"/>
  <rect x="114" y="104" width="24" height="22" rx="2" fill="#EF4444"/>
  <rect x="142" y="104" width="24" height="22" rx="2" fill="#F97316"/>
  <rect x="170" y="104" width="24" height="22" rx="2" fill="#EAB308"/>
  <rect x="198" y="104" width="24" height="22" rx="2" fill="#EF4444"/>
  <rect x="226" y="104" width="24" height="22" rx="2" fill="#F97316"/>
  <rect x="254" y="104" width="24" height="22" rx="2" fill="#EAB308"/>
  <rect x="282" y="104" width="24" height="22" rx="2" fill="#F97316"/>
  <rect x="310" y="104" width="24" height="22" rx="2" fill="#EF4444"/>
  <rect x="338" y="104" width="24" height="22" rx="2" fill="#F97316"/>
  <rect x="366" y="104" width="24" height="22" rx="2" fill="#EAB308"/>
  <rect x="394" y="104" width="24" height="22" rx="2" fill="#EF4444"/>
  <!-- vscode row - medium -->
  <rect x="86" y="132" width="24" height="22" rx="2" fill="#22C55E"/>
  <rect x="114" y="132" width="24" height="22" rx="2" fill="#EAB308"/>
  <rect x="142" y="132" width="24" height="22" rx="2" fill="#EAB308"/>
  <rect x="170" y="132" width="24" height="22" rx="2" fill="#F97316"/>
  <rect x="198" y="132" width="24" height="22" rx="2" fill="#EAB308"/>
  <rect x="226" y="132" width="24" height="22" rx="2" fill="#22C55E"/>
  <rect x="254" y="132" width="24" height="22" rx="2" fill="#EAB308"/>
  <rect x="282" y="132" width="24" height="22" rx="2" fill="#F97316"/>
  <rect x="310" y="132" width="24" height="22" rx="2" fill="#EAB308"/>
  <rect x="338" y="132" width="24" height="22" rx="2" fill="#22C55E"/>
  <rect x="366" y="132" width="24" height="22" rx="2" fill="#EAB308"/>
  <rect x="394" y="132" width="24" height="22" rx="2" fill="#EAB308"/>
  <!-- dotnet row - medium-low -->
  <rect x="86" y="160" width="24" height="22" rx="2" fill="#22C55E"/>
  <rect x="114" y="160" width="24" height="22" rx="2" fill="#22C55E"/>
  <rect x="142" y="160" width="24" height="22" rx="2" fill="#EAB308"/>
  <rect x="170" y="160" width="24" height="22" rx="2" fill="#22C55E"/>
  <rect x="198" y="160" width="24" height="22" rx="2" fill="#22C55E"/>
  <rect x="226" y="160" width="24" height="22" rx="2" fill="#EAB308"/>
  <rect x="254" y="160" width="24" height="22" rx="2" fill="#22C55E"/>
  <rect x="282" y="160" width="24" height="22" rx="2" fill="#22C55E"/>
  <rect x="310" y="160" width="24" height="22" rx="2" fill="#EAB308"/>
  <rect x="338" y="160" width="24" height="22" rx="2" fill="#22C55E"/>
  <rect x="366" y="160" width="24" height="22" rx="2" fill="#EAB308"/>
  <rect x="394" y="160" width="24" height="22" rx="2" fill="#22C55E"/>
  <!-- slack row -->
  <rect x="86" y="188" width="24" height="22" rx="2" fill="#1E3A5F"/>
  <rect x="114" y="188" width="24" height="22" rx="2" fill="#22C55E"/>
  <rect x="142" y="188" width="24" height="22" rx="2" fill="#22C55E"/>
  <rect x="170" y="188" width="24" height="22" rx="2" fill="#1E3A5F"/>
  <rect x="198" y="188" width="24" height="22" rx="2" fill="#22C55E"/>
  <rect x="226" y="188" width="24" height="22" rx="2" fill="#EAB308"/>
  <rect x="254" y="188" width="24" height="22" rx="2" fill="#22C55E"/>
  <rect x="282" y="188" width="24" height="22" rx="2" fill="#1E3A5F"/>
  <rect x="310" y="188" width="24" height="22" rx="2" fill="#22C55E"/>
  <rect x="338" y="188" width="24" height="22" rx="2" fill="#22C55E"/>
  <rect x="366" y="188" width="24" height="22" rx="2" fill="#1E3A5F"/>
  <rect x="394" y="188" width="24" height="22" rx="2" fill="#22C55E"/>
  <!-- explorer - low -->
  <rect x="86" y="216" width="24" height="22" rx="2" fill="#1E3A5F"/>
  <rect x="114" y="216" width="24" height="22" rx="2" fill="#1E3A5F"/>
  <rect x="142" y="216" width="24" height="22" rx="2" fill="#22C55E"/>
  <rect x="170" y="216" width="24" height="22" rx="2" fill="#1E3A5F"/>
  <rect x="198" y="216" width="24" height="22" rx="2" fill="#1E3A5F"/>
  <rect x="226" y="216" width="24" height="22" rx="2" fill="#22C55E"/>
  <rect x="254" y="216" width="24" height="22" rx="2" fill="#1E3A5F"/>
  <rect x="282" y="216" width="24" height="22" rx="2" fill="#1E3A5F"/>
  <rect x="310" y="216" width="24" height="22" rx="2" fill="#1E3A5F"/>
  <rect x="338" y="216" width="24" height="22" rx="2" fill="#22C55E"/>
  <rect x="366" y="216" width="24" height="22" rx="2" fill="#1E3A5F"/>
  <rect x="394" y="216" width="24" height="22" rx="2" fill="#1E3A5F"/>
  <!-- discord row -->
  <rect x="86" y="244" width="24" height="22" rx="2" fill="#22C55E"/>
  <rect x="114" y="244" width="24" height="22" rx="2" fill="#1E3A5F"/>
  <rect x="142" y="244" width="24" height="22" rx="2" fill="#22C55E"/>
  <rect x="170" y="244" width="24" height="22" rx="2" fill="#EAB308"/>
  <rect x="198" y="244" width="24" height="22" rx="2" fill="#22C55E"/>
  <rect x="226" y="244" width="24" height="22" rx="2" fill="#22C55E"/>
  <rect x="254" y="244" width="24" height="22" rx="2" fill="#1E3A5F"/>
  <rect x="282" y="244" width="24" height="22" rx="2" fill="#22C55E"/>
  <rect x="310" y="244" width="24" height="22" rx="2" fill="#EAB308"/>
  <rect x="338" y="244" width="24" height="22" rx="2" fill="#22C55E"/>
  <rect x="366" y="244" width="24" height="22" rx="2" fill="#1E3A5F"/>
  <rect x="394" y="244" width="24" height="22" rx="2" fill="#22C55E"/>
  <!-- teams row - high -->
  <rect x="86" y="272" width="24" height="22" rx="2" fill="#EAB308"/>
  <rect x="114" y="272" width="24" height="22" rx="2" fill="#F97316"/>
  <rect x="142" y="272" width="24" height="22" rx="2" fill="#EAB308"/>
  <rect x="170" y="272" width="24" height="22" rx="2" fill="#F97316"/>
  <rect x="198" y="272" width="24" height="22" rx="2" fill="#EF4444"/>
  <rect x="226" y="272" width="24" height="22" rx="2" fill="#F97316"/>
  <rect x="254" y="272" width="24" height="22" rx="2" fill="#EAB308"/>
  <rect x="282" y="272" width="24" height="22" rx="2" fill="#F97316"/>
  <rect x="310" y="272" width="24" height="22" rx="2" fill="#EF4444"/>
  <rect x="338" y="272" width="24" height="22" rx="2" fill="#F97316"/>
  <rect x="366" y="272" width="24" height="22" rx="2" fill="#EAB308"/>
  <rect x="394" y="272" width="24" height="22" rx="2" fill="#F97316"/>
  <!-- system row - low uniform -->
  <rect x="86" y="300" width="24" height="22" rx="2" fill="#1E3A5F"/>
  <rect x="114" y="300" width="24" height="22" rx="2" fill="#1E3A5F"/>
  <rect x="142" y="300" width="24" height="22" rx="2" fill="#1E3A5F"/>
  <rect x="170" y="300" width="24" height="22" rx="2" fill="#22C55E"/>
  <rect x="198" y="300" width="24" height="22" rx="2" fill="#1E3A5F"/>
  <rect x="226" y="300" width="24" height="22" rx="2" fill="#1E3A5F"/>
  <rect x="254" y="300" width="24" height="22" rx="2" fill="#1E3A5F"/>
  <rect x="282" y="300" width="24" height="22" rx="2" fill="#22C55E"/>
  <rect x="310" y="300" width="24" height="22" rx="2" fill="#1E3A5F"/>
  <rect x="338" y="300" width="24" height="22" rx="2" fill="#1E3A5F"/>
  <rect x="366" y="300" width="24" height="22" rx="2" fill="#1E3A5F"/>
  <rect x="394" y="300" width="24" height="22" rx="2" fill="#1E3A5F"/>
  <!-- Legend -->
  <rect x="86" y="360" width="20" height="14" rx="2" fill="#1E3A5F"/>
  <text x="112" y="373" font-family="Arial" font-size="11" fill="#9CA3AF">Low</text>
  <rect x="156" y="360" width="20" height="14" rx="2" fill="#22C55E"/>
  <text x="182" y="373" font-family="Arial" font-size="11" fill="#9CA3AF">Med</text>
  <rect x="226" y="360" width="20" height="14" rx="2" fill="#EAB308"/>
  <text x="252" y="373" font-family="Arial" font-size="11" fill="#9CA3AF">High</text>
  <rect x="296" y="360" width="20" height="14" rx="2" fill="#EF4444"/>
  <text x="322" y="373" font-family="Arial" font-size="11" fill="#9CA3AF">Critical</text>
  <!-- Colorbar legend -->
  <rect x="86" y="395" width="340" height="18" rx="6" fill="url(#hot)"/>
  <text x="86" y="430" font-family="Arial" font-size="11" fill="#6B7280">0 MB</text>
  <text x="420" y="430" font-family="Arial" font-size="11" fill="#6B7280" text-anchor="end">8192 MB</text>
</svg>
