<svg xmlns="http://www.w3.org/2000/svg" viewBox="0 0 512 512">
  <defs>
    <linearGradient id="bg" x1="0%" y1="0%" x2="100%" y2="100%">
      <stop offset="0%" stop-color="#6A1B9A"/>
      <stop offset="100%" stop-color="#1A237E"/>
    </linearGradient>
  </defs>
  <rect width="512" height="512" rx="80" fill="url(#bg)"/>
  <!-- 코드 프레임 -->
  <rect x="96" y="140" width="260" height="200" rx="12" fill="#1A0533" fill-opacity="0.8" stroke="#CE93D8" stroke-width="2"/>
  <!-- 코드 내용 -->
  <rect x="112" y="162" width="100" height="8" rx="3" fill="#CE93D8"/>
  <rect x="128" y="180" width="80" height="8" rx="3" fill="#80CBC4"/>
  <rect x="128" y="198" width="110" height="8" rx="3" fill="#FFCC80"/>
  <rect x="128" y="216" width="70" height="8" rx="3" fill="#CE93D8" fill-opacity="0.6"/>
  <rect x="112" y="234" width="60" height="8" rx="3" fill="#CE93D8" fill-opacity="0.8"/>
  <!-- 카메라 (겹침) -->
  <rect x="240" y="270" width="176" height="132" rx="16" fill="#4A148C" stroke="#E1BEE7" stroke-width="2.5"/>
  <circle cx="328" cy="336" r="36" fill="#3B0D6B" stroke="#CE93D8" stroke-width="3"/>
  <circle cx="328" cy="336" r="22" fill="#1A0533" stroke="#BA68C8" stroke-width="2"/>
  <rect x="272" y="278" width="26" height="18" rx="6" fill="#CE93D8"/>
  <!-- 플래시 -->
  <path d="M380 300 L368 320 L376 320 L364 342 L384 316 L374 316 Z" fill="#FFEE58"/>
</svg>
