<svg xmlns="http://www.w3.org/2000/svg" viewBox="0 0 1024 1024">
<rect x="80" y="80" width="864" height="864" rx="180" ry="180" fill="#050010"/>
<!-- 컨셉: 핀셋 세밀 비교 -->
<!-- 핀셋 왼쪽 팔 -->
<path d="M 380 200 Q 360 300 400 420 Q 440 540 460 600 L 500 600 Q 520 540 480 420 Q 440 300 460 200 Z" fill="#4527A0"/>
<path d="M 410 200 Q 395 300 422 400 Q 444 480 458 560 L 480 560 Q 495 480 480 400 Q 462 300 450 200 Z" fill="#CE93D8" opacity="0.3"/>
<!-- 핀셋 오른쪽 팔 -->
<path d="M 564 200 Q 584 300 544 420 Q 504 540 484 600 L 524 600 Q 544 540 564 420 Q 584 300 644 200 Z" fill="#4527A0"/>
<path d="M 574 200 Q 590 300 562 400 Q 540 480 508 560 L 530 560 Q 546 480 548 400 Q 562 300 604 200 Z" fill="#CE93D8" opacity="0.3"/>
<!-- 핀셋 끝 (집는 부분) -->
<ellipse cx="512" cy="600" rx="52" ry="24" fill="#CE93D8"/>
<!-- 집힌 대상 (두 이미지 픽셀) -->
<rect x="470" y="620" width="84" height="64" rx="8" fill="#1A0040" stroke="#CE93D8" stroke-width="16"/>
<!-- 차이점 강조 (깜빡이는 영역) -->
<rect x="482" y="630" width="60" height="42" rx="4" fill="#4527A0" opacity="0.7"/>
<circle cx="512" cy="651" r="12" fill="#CE93D8"/>
<!-- 배율 표시 선 -->
<line x1="380" y1="700" x2="180" y2="800" stroke="#4527A0" stroke-width="16" stroke-linecap="round" opacity="0.5"/>
<line x1="644" y1="700" x2="844" y2="800" stroke="#4527A0" stroke-width="16" stroke-linecap="round" opacity="0.5"/>
<!-- 확대된 이미지 영역 -->
<rect x="160" y="800" width="220" height="140" rx="12" fill="#1A0040" stroke="#4527A0" stroke-width="14" opacity="0.7"/>
<rect x="644" y="800" width="220" height="140" rx="12" fill="#1A0040" stroke="#CE93D8" stroke-width="14" opacity="0.7"/>
</svg>
