<svg xmlns="http://www.w3.org/2000/svg" viewBox="0 0 1024 1024">
<rect x="80" y="80" width="864" height="864" rx="180" ry="180" fill="#050010"/>
<!-- 컨셉: 퍼즐 맞추기 비교 -->
<!-- 왼쪽 퍼즐 조각 (이미지 A) -->
<path d="M 180 300 L 420 300 Q 440 300 440 340 Q 440 380 420 380 L 420 540 Q 420 560 380 560 Q 340 560 340 540 L 180 540 Z" fill="#4527A0"/>
<!-- 퍼즐 연결 볼록 -->
<circle cx="300" cy="540" r="44" fill="#4527A0"/>
<!-- 오른쪽 퍼즐 조각 (이미지 B) -->
<path d="M 604 300 L 844 300 L 844 540 L 684 540 Q 664 540 664 560 Q 664 580 684 580 Q 704 580 704 600 L 604 600 Z" fill="#CE93D8" opacity="0.7"/>
<!-- 퍼즐 연결 홈 -->
<circle cx="604" cy="560" r="44" fill="#050010"/>
<circle cx="604" cy="560" r="44" fill="#CE93D8" opacity="0.3"/>
<!-- 차이점 강조 영역 -->
<rect x="240" y="350" width="120" height="100" rx="8" fill="#CE93D8" opacity="0.2"/>
<rect x="660" y="340" width="120" height="100" rx="8" fill="#4527A0" opacity="0.4"/>
<!-- 가운데 맞춤 화살표 -->
<path d="M 440 450 L 554 450" fill="none" stroke="#CE93D8" stroke-width="24" stroke-linecap="round" stroke-dasharray="16 10"/>
<path d="M 510 410 L 556 450 L 510 490" fill="none" stroke="#CE93D8" stroke-width="24" stroke-linecap="round" stroke-linejoin="round"/>
</svg>
