<svg xmlns="http://www.w3.org/2000/svg" viewBox="0 0 512 512">
  <defs>
    <linearGradient id="bg" x1="0%" y1="0%" x2="100%" y2="100%">
      <stop offset="0%" style="stop-color:#1A1A1A"/>
      <stop offset="100%" style="stop-color:#2A2A3A"/>
    </linearGradient>
    <linearGradient id="highlight" x1="0%" y1="0%" x2="100%" y2="100%">
      <stop offset="0%" style="stop-color:#FF6B35"/>
      <stop offset="100%" style="stop-color:#FF3366"/>
    </linearGradient>
  </defs>
  <rect width="512" height="512" rx="80" fill="url(#bg)"/>
  <!-- App grid 3x3 -->
  <!-- Row 1 -->
  <rect x="100" y="100" width="90" height="90" rx="18" fill="#3A3A5A"/>
  <rect x="211" y="100" width="90" height="90" rx="18" fill="#3A5A3A"/>
  <rect x="322" y="100" width="90" height="90" rx="18" fill="#5A3A3A"/>
  <!-- Row 2 -->
  <rect x="100" y="211" width="90" height="90" rx="18" fill="#3A4A5A"/>
  <rect x="211" y="211" width="90" height="90" rx="18" fill="url(#highlight)"/>
  <rect x="322" y="211" width="90" height="90" rx="18" fill="#4A3A5A"/>
  <!-- Row 3 -->
  <rect x="100" y="322" width="90" height="90" rx="18" fill="#3A5A4A"/>
  <rect x="211" y="322" width="90" height="90" rx="18" fill="#5A4A3A"/>
  <rect x="322" y="322" width="90" height="90" rx="18" fill="#3A3A5A"/>
  <!-- Icons in cells (simple shapes) -->
  <circle cx="145" cy="145" r="18" fill="#6688FF" opacity="0.8"/>
  <rect x="228" y="128" width="56" height="36" rx="5" fill="#44CC88" opacity="0.8"/>
  <path d="M367 130 L367 162 L399 146 Z" fill="#FF6666" opacity="0.8"/>
  <rect x="120" y="228" width="50" height="8" rx="4" fill="#88AAFF" opacity="0.7"/>
  <rect x="120" y="242" width="40" height="8" rx="4" fill="#88AAFF" opacity="0.5"/>
  <!-- Highlighted center - launch icon -->
  <path d="M247 248 L247 264 L263 256 Z" fill="white"/>
  <circle cx="349" cy="256" r="20" fill="#CC88FF" opacity="0.8"/>
  <rect x="120" y="339" width="50" height="50" rx="8" fill="#44DDCC" opacity="0.7"/>
  <path d="M228 337 L248 367 L268 337 Z" fill="#FFAA33" opacity="0.8"/>
  <circle cx="345" cy="367" r="24" fill="#FF5588" opacity="0.7"/>
  <!-- Search bar overlay at bottom -->
  <rect x="100" y="430" width="312" height="30" rx="15" fill="#333344" stroke="#555566" stroke-width="1"/>
  <circle cx="122" cy="445" r="8" fill="none" stroke="#7777AA" stroke-width="2"/>
  <line x1="128" y1="451" x2="135" y2="458" stroke="#7777AA" stroke-width="2" stroke-linecap="round"/>
</svg>
