<svg xmlns="http://www.w3.org/2000/svg" viewBox="0 0 1024 1024">
  <!-- Layer 1: Background -->
  <rect width="1024" height="1024" rx="190" fill="#1A0A3C"/>
  <!-- Layer 2: 말풍선 모양 -->
  <path d="M80 200 Q80 140 140 140 L884 140 Q944 140 944 200 L944 680 Q944 740 884 740 L300 740 L180 900 L200 740 L140 740 Q80 740 80 680 Z" fill="#2D1060"/>
  <path d="M80 200 Q80 140 140 140 L884 140 Q944 140 944 200 L944 680 Q944 740 884 740 L300 740 L180 900 L200 740 L140 740 Q80 740 80 680 Z" fill="none" stroke="#7C3AED" stroke-width="14"/>
  <!-- 말풍선 안 단어들 -->
  <text x="512" y="280" font-size="100" fill="#FFFFFF" text-anchor="middle" font-weight="bold" font-family="Arial">word</text>
  <text x="280" y="390" font-size="64" fill="#A78BFA" text-anchor="middle" font-weight="bold" font-family="Arial">cloud</text>
  <text x="700" y="370" font-size="52" fill="#C4B5FD" text-anchor="middle" font-family="Arial">text</text>
  <text x="200" y="490" font-size="40" fill="#DDD6FE" text-anchor="middle" font-family="Arial">big</text>
  <text x="512" y="490" font-size="70" fill="#EDE9FE" text-anchor="middle" font-weight="bold" font-family="Arial">data</text>
  <text x="800" y="480" font-size="36" fill="#C4B5FD" text-anchor="middle" font-family="Arial">art</text>
  <text x="350" y="590" font-size="44" fill="#A78BFA" text-anchor="middle" font-family="Arial">visual</text>
  <text x="680" y="580" font-size="38" fill="#C4B5FD" text-anchor="middle" font-family="Arial">size</text>
  <text x="140" y="620" font-size="30" fill="#7C3AED" text-anchor="middle" font-family="Arial">color</text>
  <text x="880" y="620" font-size="28" fill="#6D28D9" text-anchor="middle" font-family="Arial">font</text>
  <!-- Layer 3: 작은 점 장식 -->
  <circle cx="512" cy="660" r="12" fill="#7C3AED"/>
  <circle cx="560" cy="660" r="8" fill="#A78BFA" opacity="0.7"/>
  <circle cx="464" cy="660" r="8" fill="#A78BFA" opacity="0.7"/>
</svg>
