<svg xmlns="http://www.w3.org/2000/svg" viewBox="0 0 512 512">
  <defs>
    <linearGradient id="bg" x1="0%" y1="0%" x2="100%" y2="100%">
      <stop offset="0%" stop-color="#111111"/>
      <stop offset="100%" stop-color="#222222"/>
    </linearGradient>
  </defs>
  <rect width="512" height="512" rx="80" fill="url(#bg)"/>
  <!-- Rainbow brick rows -->
  <!-- Row 1: red -->
  <rect x="68" y="96" width="80" height="30" rx="4" fill="#FF3333"/>
  <rect x="158" y="96" width="80" height="30" rx="4" fill="#FF3333"/>
  <rect x="248" y="96" width="80" height="30" rx="4" fill="#FF3333"/>
  <rect x="338" y="96" width="80" height="30" rx="4" fill="#FF3333"/>
  <!-- Row 2: orange -->
  <rect x="68" y="136" width="80" height="30" rx="4" fill="#FF7700"/>
  <rect x="158" y="136" width="80" height="30" rx="4" fill="#FF7700"/>
  <rect x="248" y="136" width="80" height="30" rx="4" fill="#FF7700"/>
  <rect x="338" y="136" width="80" height="30" rx="4" fill="#FF7700"/>
  <!-- Row 3: yellow -->
  <rect x="68" y="176" width="80" height="30" rx="4" fill="#FFDD00"/>
  <rect x="158" y="176" width="80" height="30" rx="4" fill="#FFDD00"/>
  <rect x="248" y="176" width="80" height="30" rx="4" fill="#FFDD00"/>
  <rect x="338" y="176" width="80" height="30" rx="4" fill="#FFDD00"/>
  <!-- Row 4: green -->
  <rect x="68" y="216" width="80" height="30" rx="4" fill="#33CC33"/>
  <rect x="158" y="216" width="80" height="30" rx="4" fill="#33CC33"/>
  <rect x="248" y="216" width="80" height="30" rx="4" fill="#33CC33"/>
  <rect x="338" y="216" width="80" height="30" rx="4" fill="#33CC33"/>
  <!-- Row 5: blue -->
  <rect x="68" y="256" width="80" height="30" rx="4" fill="#3388FF"/>
  <rect x="158" y="256" width="80" height="30" rx="4" fill="#3388FF"/>
  <rect x="248" y="256" width="80" height="30" rx="4" fill="#3388FF"/>
  <rect x="338" y="256" width="80" height="30" rx="4" fill="#3388FF"/>
  <!-- Ball -->
  <circle cx="208" cy="166" r="13" fill="white"/>
  <circle cx="198" cy="178" r="7" fill="white" opacity="0.4"/>
  <!-- Paddle gradient -->
  <rect x="152" y="388" width="148" height="22" rx="11" fill="#AA44FF"/>
  <text x="256" y="460" font-family="Arial" font-size="26" font-weight="bold" fill="#AA44FF" text-anchor="middle">Brick.Blitz</text>
</svg>
