<svg xmlns="http://www.w3.org/2000/svg" viewBox="0 0 512 512">
  <defs>
    <linearGradient id="bg" x1="0%" y1="0%" x2="100%" y2="100%">
      <stop offset="0%" stop-color="#001A08"/>
      <stop offset="100%" stop-color="#002E12"/>
    </linearGradient>
    <linearGradient id="bar" x1="0%" y1="100%" x2="0%" y2="0%">
      <stop offset="0%" stop-color="#1B5E20"/>
      <stop offset="100%" stop-color="#69F0AE"/>
    </linearGradient>
  </defs>
  <rect width="512" height="512" rx="80" fill="url(#bg)"/>
  <line x1="100" y1="380" x2="412" y2="380" stroke="#4CAF50" stroke-width="4" opacity="0.6"/>
  <line x1="100" y1="100" x2="100" y2="380" stroke="#4CAF50" stroke-width="4" opacity="0.6"/>
  <rect x="120" y="260" width="44" height="120" rx="6" fill="url(#bar)" opacity="0.9"/>
  <rect x="180" y="200" width="44" height="180" rx="6" fill="url(#bar)" opacity="0.85"/>
  <rect x="240" y="150" width="44" height="230" rx="6" fill="url(#bar)"/>
  <rect x="300" y="180" width="44" height="200" rx="6" fill="url(#bar)" opacity="0.9"/>
  <rect x="360" y="240" width="44" height="140" rx="6" fill="url(#bar)" opacity="0.75"/>
  <path d="M142 260 L202 200 L262 150 L322 180 L382 240" stroke="#69F0AE" stroke-width="5" fill="none" stroke-linejoin="round"/>
  <circle cx="142" cy="260" r="7" fill="#69F0AE"/>
  <circle cx="202" cy="200" r="7" fill="#69F0AE"/>
  <circle cx="262" cy="150" r="8" fill="#00E676"/>
  <circle cx="322" cy="180" r="7" fill="#69F0AE"/>
  <circle cx="382" cy="240" r="7" fill="#69F0AE"/>
</svg>