<svg xmlns="http://www.w3.org/2000/svg" viewBox="0 0 512 512">
  <defs>
    <radialGradient id="bg" cx="50%" cy="50%" r="50%">
      <stop offset="0%" stop-color="#04090f"/>
      <stop offset="100%" stop-color="#030508"/>
    </radialGradient>
    <filter id="glow">
      <feGaussianBlur stdDeviation="4" result="blur"/>
      <feMerge><feMergeNode in="blur"/><feMergeNode in="SourceGraphic"/></feMerge>
    </filter>
    <filter id="softglow">
      <feGaussianBlur stdDeviation="2" result="blur"/>
      <feMerge><feMergeNode in="blur"/><feMergeNode in="SourceGraphic"/></feMerge>
    </filter>
  </defs>

  <rect width="512" height="512" fill="url(#bg)"/>

  <!-- Binary grid map - disk sector visualization -->
  <!-- Row 1 -->
  <rect x="40" y="40" width="20" height="20" rx="2" fill="#06B6D4" fill-opacity="0.9" filter="url(#softglow)"/>
  <rect x="66" y="40" width="20" height="20" rx="2" fill="#06B6D4" fill-opacity="0.2"/>
  <rect x="92" y="40" width="20" height="20" rx="2" fill="#06B6D4" fill-opacity="0.8" filter="url(#softglow)"/>
  <rect x="118" y="40" width="20" height="20" rx="2" fill="#0EA5E9" fill-opacity="0.9" filter="url(#softglow)"/>
  <rect x="144" y="40" width="20" height="20" rx="2" fill="#06B6D4" fill-opacity="0.15"/>
  <rect x="170" y="40" width="20" height="20" rx="2" fill="#0EA5E9" fill-opacity="0.7"/>
  <rect x="196" y="40" width="20" height="20" rx="2" fill="#06B6D4" fill-opacity="0.85" filter="url(#softglow)"/>
  <rect x="222" y="40" width="20" height="20" rx="2" fill="#06B6D4" fill-opacity="0.2"/>
  <rect x="248" y="40" width="20" height="20" rx="2" fill="#3B82F6" fill-opacity="0.8" filter="url(#softglow)"/>
  <rect x="274" y="40" width="20" height="20" rx="2" fill="#06B6D4" fill-opacity="0.9" filter="url(#softglow)"/>
  <rect x="300" y="40" width="20" height="20" rx="2" fill="#06B6D4" fill-opacity="0.1"/>
  <rect x="326" y="40" width="20" height="20" rx="2" fill="#0EA5E9" fill-opacity="0.75"/>
  <rect x="352" y="40" width="20" height="20" rx="2" fill="#06B6D4" fill-opacity="0.85" filter="url(#softglow)"/>
  <rect x="378" y="40" width="20" height="20" rx="2" fill="#06B6D4" fill-opacity="0.2"/>
  <rect x="404" y="40" width="20" height="20" rx="2" fill="#3B82F6" fill-opacity="0.7"/>
  <rect x="430" y="40" width="20" height="20" rx="2" fill="#06B6D4" fill-opacity="0.9" filter="url(#softglow)"/>
  <rect x="456" y="40" width="20" height="20" rx="2" fill="#06B6D4" fill-opacity="0.15"/>

  <!-- Rows 2-16 with varying binary patterns and usage density -->
  <!-- Row 2 - high usage (bright) -->
  <g transform="translate(0,26)" fill-opacity="0.85">
    <rect x="40" y="40" width="20" height="20" rx="2" fill="#06B6D4" filter="url(#softglow)"/>
    <rect x="66" y="40" width="20" height="20" rx="2" fill="#06B6D4"/>
    <rect x="92" y="40" width="20" height="20" rx="2" fill="#0EA5E9" filter="url(#softglow)"/>
    <rect x="118" y="40" width="20" height="20" rx="2" fill="#06B6D4"/>
    <rect x="144" y="40" width="20" height="20" rx="2" fill="#06B6D4" filter="url(#softglow)"/>
    <rect x="170" y="40" width="20" height="20" rx="2" fill="#0EA5E9"/>
    <rect x="196" y="40" width="20" height="20" rx="2" fill="#06B6D4" filter="url(#softglow)"/>
    <rect x="222" y="40" width="20" height="20" rx="2" fill="#3B82F6"/>
    <rect x="248" y="40" width="20" height="20" rx="2" fill="#06B6D4" filter="url(#softglow)"/>
    <rect x="274" y="40" width="20" height="20" rx="2" fill="#06B6D4"/>
    <rect x="300" y="40" width="20" height="20" rx="2" fill="#0EA5E9" filter="url(#softglow)"/>
    <rect x="326" y="40" width="20" height="20" rx="2" fill="#06B6D4"/>
    <rect x="352" y="40" width="20" height="20" rx="2" fill="#06B6D4" filter="url(#softglow)"/>
    <rect x="378" y="40" width="20" height="20" rx="2" fill="#3B82F6"/>
    <rect x="404" y="40" width="20" height="20" rx="2" fill="#06B6D4" filter="url(#softglow)"/>
    <rect x="430" y="40" width="20" height="20" rx="2" fill="#0EA5E9"/>
    <rect x="456" y="40" width="20" height="20" rx="2" fill="#06B6D4" filter="url(#softglow)"/>
  </g>

  <!-- Rows 3-7: medium usage -->
  <g transform="translate(0,52)">
    <rect x="40" y="40" width="20" height="20" rx="2" fill="#06B6D4" fill-opacity="0.7"/>
    <rect x="66" y="40" width="20" height="20" rx="2" fill="#06B6D4" fill-opacity="0.1"/>
    <rect x="92" y="40" width="20" height="20" rx="2" fill="#0EA5E9" fill-opacity="0.6"/>
    <rect x="118" y="40" width="20" height="20" rx="2" fill="#06B6D4" fill-opacity="0.8"/>
    <rect x="144" y="40" width="20" height="20" rx="2" fill="#06B6D4" fill-opacity="0.1"/>
    <rect x="170" y="40" width="20" height="20" rx="2" fill="#0EA5E9" fill-opacity="0.7"/>
    <rect x="196" y="40" width="20" height="20" rx="2" fill="#06B6D4" fill-opacity="0.1"/>
    <rect x="222" y="40" width="20" height="20" rx="2" fill="#3B82F6" fill-opacity="0.6"/>
    <rect x="248" y="40" width="20" height="20" rx="2" fill="#06B6D4" fill-opacity="0.75"/>
    <rect x="274" y="40" width="20" height="20" rx="2" fill="#06B6D4" fill-opacity="0.1"/>
    <rect x="300" y="40" width="20" height="20" rx="2" fill="#0EA5E9" fill-opacity="0.65"/>
    <rect x="326" y="40" width="20" height="20" rx="2" fill="#06B6D4" fill-opacity="0.8"/>
    <rect x="352" y="40" width="20" height="20" rx="2" fill="#06B6D4" fill-opacity="0.1"/>
    <rect x="378" y="40" width="20" height="20" rx="2" fill="#3B82F6" fill-opacity="0.5"/>
    <rect x="404" y="40" width="20" height="20" rx="2" fill="#06B6D4" fill-opacity="0.7"/>
    <rect x="430" y="40" width="20" height="20" rx="2" fill="#0EA5E9" fill-opacity="0.1"/>
    <rect x="456" y="40" width="20" height="20" rx="2" fill="#06B6D4" fill-opacity="0.6"/>
  </g>

  <!-- Rows 4-16: sparse -->
  <g>
    <!-- Programmatically-like rows with varying patterns -->
    <!-- Row 4 -->
    <rect x="40" y="144" width="20" height="20" rx="2" fill="#06B6D4" fill-opacity="0.5"/>
    <rect x="92" y="144" width="20" height="20" rx="2" fill="#0EA5E9" fill-opacity="0.4"/>
    <rect x="144" y="144" width="20" height="20" rx="2" fill="#06B6D4" fill-opacity="0.6"/>
    <rect x="196" y="144" width="20" height="20" rx="2" fill="#06B6D4" fill-opacity="0.3"/>
    <rect x="248" y="144" width="20" height="20" rx="2" fill="#3B82F6" fill-opacity="0.5"/>
    <rect x="300" y="144" width="20" height="20" rx="2" fill="#0EA5E9" fill-opacity="0.4"/>
    <rect x="352" y="144" width="20" height="20" rx="2" fill="#06B6D4" fill-opacity="0.5"/>
    <rect x="404" y="144" width="20" height="20" rx="2" fill="#06B6D4" fill-opacity="0.3"/>
    <rect x="456" y="144" width="20" height="20" rx="2" fill="#0EA5E9" fill-opacity="0.4"/>
    <!-- Row 5 -->
    <rect x="66" y="170" width="20" height="20" rx="2" fill="#06B6D4" fill-opacity="0.6"/>
    <rect x="118" y="170" width="20" height="20" rx="2" fill="#3B82F6" fill-opacity="0.4"/>
    <rect x="170" y="170" width="20" height="20" rx="2" fill="#06B6D4" fill-opacity="0.5"/>
    <rect x="222" y="170" width="20" height="20" rx="2" fill="#0EA5E9" fill-opacity="0.45"/>
    <rect x="274" y="170" width="20" height="20" rx="2" fill="#06B6D4" fill-opacity="0.6"/>
    <rect x="326" y="170" width="20" height="20" rx="2" fill="#06B6D4" fill-opacity="0.3"/>
    <rect x="378" y="170" width="20" height="20" rx="2" fill="#0EA5E9" fill-opacity="0.5"/>
    <rect x="430" y="170" width="20" height="20" rx="2" fill="#06B6D4" fill-opacity="0.4"/>
    <!-- Row 6 -->
    <rect x="40" y="196" width="20" height="20" rx="2" fill="#0EA5E9" fill-opacity="0.35"/>
    <rect x="92" y="196" width="20" height="20" rx="2" fill="#06B6D4" fill-opacity="0.5"/>
    <rect x="144" y="196" width="20" height="20" rx="2" fill="#3B82F6" fill-opacity="0.3"/>
    <rect x="196" y="196" width="20" height="20" rx="2" fill="#06B6D4" fill-opacity="0.6"/>
    <rect x="248" y="196" width="20" height="20" rx="2" fill="#0EA5E9" fill-opacity="0.4"/>
    <rect x="300" y="196" width="20" height="20" rx="2" fill="#06B6D4" fill-opacity="0.5"/>
    <rect x="352" y="196" width="20" height="20" rx="2" fill="#06B6D4" fill-opacity="0.3"/>
    <rect x="404" y="196" width="20" height="20" rx="2" fill="#3B82F6" fill-opacity="0.4"/>
    <rect x="456" y="196" width="20" height="20" rx="2" fill="#06B6D4" fill-opacity="0.6"/>
  </g>

  <!-- Large bright sector (highlight block - big file) -->
  <rect x="40" y="240" width="200" height="90" rx="4" fill="#06B6D4" fill-opacity="0.12" stroke="#06B6D4" stroke-width="1.5" filter="url(#glow)"/>
  <!-- Fill within large sector -->
  <g>
    <rect x="48" y="248" width="20" height="20" rx="2" fill="#06B6D4" fill-opacity="0.8" filter="url(#softglow)"/>
    <rect x="74" y="248" width="20" height="20" rx="2" fill="#06B6D4" fill-opacity="0.8" filter="url(#softglow)"/>
    <rect x="100" y="248" width="20" height="20" rx="2" fill="#0EA5E9" fill-opacity="0.8" filter="url(#softglow)"/>
    <rect x="126" y="248" width="20" height="20" rx="2" fill="#06B6D4" fill-opacity="0.8" filter="url(#softglow)"/>
    <rect x="152" y="248" width="20" height="20" rx="2" fill="#06B6D4" fill-opacity="0.8" filter="url(#softglow)"/>
    <rect x="178" y="248" width="20" height="20" rx="2" fill="#3B82F6" fill-opacity="0.8" filter="url(#softglow)"/>
    <rect x="204" y="248" width="20" height="20" rx="2" fill="#06B6D4" fill-opacity="0.8" filter="url(#softglow)"/>
    <rect x="48" y="274" width="20" height="20" rx="2" fill="#0EA5E9" fill-opacity="0.7"/>
    <rect x="74" y="274" width="20" height="20" rx="2" fill="#06B6D4" fill-opacity="0.7"/>
    <rect x="100" y="274" width="20" height="20" rx="2" fill="#06B6D4" fill-opacity="0.7"/>
    <rect x="126" y="274" width="20" height="20" rx="2" fill="#3B82F6" fill-opacity="0.7"/>
    <rect x="152" y="274" width="20" height="20" rx="2" fill="#0EA5E9" fill-opacity="0.7"/>
    <rect x="178" y="274" width="20" height="20" rx="2" fill="#06B6D4" fill-opacity="0.7"/>
    <rect x="204" y="274" width="20" height="20" rx="2" fill="#06B6D4" fill-opacity="0.7"/>
    <rect x="48" y="300" width="20" height="20" rx="2" fill="#06B6D4" fill-opacity="0.75"/>
    <rect x="74" y="300" width="20" height="20" rx="2" fill="#06B6D4" fill-opacity="0.75"/>
    <rect x="100" y="300" width="20" height="20" rx="2" fill="#0EA5E9" fill-opacity="0.75"/>
    <rect x="126" y="300" width="20" height="20" rx="2" fill="#06B6D4" fill-opacity="0.75"/>
    <rect x="152" y="300" width="20" height="20" rx="2" fill="#3B82F6" fill-opacity="0.75"/>
    <rect x="178" y="300" width="20" height="20" rx="2" fill="#06B6D4" fill-opacity="0.75"/>
    <rect x="204" y="300" width="20" height="20" rx="2" fill="#0EA5E9" fill-opacity="0.75"/>
  </g>

  <!-- Sparse rows below -->
  <rect x="40" y="352" width="20" height="20" rx="2" fill="#06B6D4" fill-opacity="0.3"/>
  <rect x="118" y="352" width="20" height="20" rx="2" fill="#0EA5E9" fill-opacity="0.25"/>
  <rect x="196" y="352" width="20" height="20" rx="2" fill="#06B6D4" fill-opacity="0.3"/>
  <rect x="326" y="352" width="20" height="20" rx="2" fill="#3B82F6" fill-opacity="0.2"/>
  <rect x="430" y="352" width="20" height="20" rx="2" fill="#06B6D4" fill-opacity="0.25"/>

  <rect x="66" y="378" width="20" height="20" rx="2" fill="#06B6D4" fill-opacity="0.2"/>
  <rect x="248" y="378" width="20" height="20" rx="2" fill="#0EA5E9" fill-opacity="0.15"/>
  <rect x="404" y="378" width="20" height="20" rx="2" fill="#06B6D4" fill-opacity="0.2"/>

  <rect x="40" y="404" width="20" height="20" rx="2" fill="#06B6D4" fill-opacity="0.12"/>
  <rect x="170" y="404" width="20" height="20" rx="2" fill="#0EA5E9" fill-opacity="0.1"/>
  <rect x="352" y="404" width="20" height="20" rx="2" fill="#06B6D4" fill-opacity="0.1"/>
  <rect x="456" y="404" width="20" height="20" rx="2" fill="#3B82F6" fill-opacity="0.12"/>

  <rect x="92" y="430" width="20" height="20" rx="2" fill="#06B6D4" fill-opacity="0.08"/>
  <rect x="300" y="430" width="20" height="20" rx="2" fill="#0EA5E9" fill-opacity="0.06"/>

  <rect x="40" y="456" width="20" height="20" rx="2" fill="#06B6D4" fill-opacity="0.05"/>
  <rect x="196" y="456" width="20" height="20" rx="2" fill="#06B6D4" fill-opacity="0.04"/>
</svg>
