<svg xmlns="http://www.w3.org/2000/svg" viewBox="0 0 1024 1024">
  <rect x="80" y="80" width="864" height="864" rx="180" fill="#0A0000"/>
  <!-- Duel arena circle -->
  <circle cx="512" cy="512" r="320" fill="none" stroke="#C62828" stroke-width="22" stroke-dasharray="40,20"/>
  <!-- Left duelist position -->
  <circle cx="300" cy="512" r="55" fill="#C62828"/>
  <line x1="300" y1="567" x2="300" y2="680" stroke="#C62828" stroke-width="26" stroke-linecap="round"/>
  <line x1="300" y1="600" x2="240" y2="650" stroke="#C62828" stroke-width="20" stroke-linecap="round"/>
  <line x1="300" y1="600" x2="360" y2="630" stroke="#C62828" stroke-width="20" stroke-linecap="round"/>
  <line x1="300" y1="680" x2="260" y2="780" stroke="#C62828" stroke-width="20" stroke-linecap="round"/>
  <line x1="300" y1="680" x2="340" y2="775" stroke="#EF9A9A" stroke-width="20" stroke-linecap="round"/>
  <!-- Right duelist position -->
  <circle cx="724" cy="512" r="55" fill="#EF9A9A" fill-opacity="0.8"/>
  <line x1="724" y1="567" x2="724" y2="680" stroke="#EF9A9A" stroke-width="26" stroke-linecap="round"/>
  <line x1="724" y1="600" x2="664" y2="630" stroke="#EF9A9A" stroke-width="20" stroke-linecap="round"/>
  <line x1="724" y1="600" x2="784" y2="650" stroke="#EF9A9A" stroke-width="20" stroke-linecap="round"/>
  <line x1="724" y1="680" x2="684" y2="780" stroke="#EF9A9A" stroke-width="20" stroke-linecap="round"/>
  <line x1="724" y1="680" x2="764" y2="775" stroke="#C62828" stroke-width="20" stroke-linecap="round"/>
  <!-- Center flash -->
  <polygon points="512,400 490,500 518,490 490,624 542,500 510,510 538,400" fill="#C62828" fill-opacity="0.8"/>
</svg>