<svg xmlns="http://www.w3.org/2000/svg" viewBox="0 0 1024 1024">
  <rect x="80" y="80" width="864" height="864" rx="180" fill="#0A0000"/>
  <!-- Left hand -->
  <path d="M200 600 Q200 480 280 440 L340 420 Q360 415 370 440 L380 500" fill="none" stroke="#C62828" stroke-width="36" stroke-linecap="round"/>
  <path d="M300 430 Q310 380 350 380 Q390 380 385 430" fill="none" stroke="#C62828" stroke-width="28" stroke-linecap="round"/>
  <path d="M350 420 Q360 370 400 370 Q440 370 430 420" fill="none" stroke="#C62828" stroke-width="28" stroke-linecap="round"/>
  <!-- Right hand (mirrored) -->
  <path d="M824 600 Q824 480 744 440 L684 420 Q664 415 654 440 L644 500" fill="none" stroke="#EF9A9A" stroke-width="36" stroke-linecap="round"/>
  <path d="M724 430 Q714 380 674 380 Q634 380 639 430" fill="none" stroke="#EF9A9A" stroke-width="28" stroke-linecap="round"/>
  <path d="M674 420 Q664 370 624 370 Q584 370 594 420" fill="none" stroke="#EF9A9A" stroke-width="28" stroke-linecap="round"/>
  <!-- Lightning bolt between -->
  <polygon points="512,280 460,520 512,500 460,740 580,460 520,480 580,280" fill="#C62828"/>
  <polygon points="512,280 460,520 512,500 460,740 580,460 520,480 580,280" fill="none" stroke="#EF9A9A" stroke-width="10"/>
</svg>