<svg xmlns="http://www.w3.org/2000/svg" viewBox="0 0 1024 1024">
  <rect x="80" y="80" width="864" height="864" rx="180" fill="#0A0500"/>
  <!-- Trap box -->
  <rect x="320" y="580" width="384" height="260" rx="16" fill="#E65100" fill-opacity="0.4" stroke="#E65100" stroke-width="20"/>
  <!-- Trap door open -->
  <rect x="320" y="580" width="384" height="40" rx="10" fill="#FFAB40" fill-opacity="0.7" transform="rotate(-60,512,600)"/>
  <!-- Bait code -->
  <rect x="440" y="640" width="140" height="20" rx="7" fill="#FFAB40" fill-opacity="0.8"/>
  <rect x="460" y="676" width="100" height="20" rx="7" fill="#FFAB40" fill-opacity="0.6"/>
  <!-- Bug approaching trap from above -->
  <ellipse cx="512" cy="380" rx="80" ry="110" fill="#E65100" fill-opacity="0.85"/>
  <circle cx="512" cy="278" r="56" fill="#E65100" fill-opacity="0.85"/>
  <line x1="435" y1="330" x2="350" y2="300" stroke="#FFAB40" stroke-width="14"/>
  <line x1="435" y1="380" x2="345" y2="380" stroke="#FFAB40" stroke-width="14"/>
  <line x1="435" y1="430" x2="350" y2="460" stroke="#FFAB40" stroke-width="14"/>
  <line x1="589" y1="330" x2="674" y2="300" stroke="#FFAB40" stroke-width="14"/>
  <line x1="589" y1="380" x2="679" y2="380" stroke="#FFAB40" stroke-width="14"/>
  <line x1="589" y1="430" x2="674" y2="460" stroke="#FFAB40" stroke-width="14"/>
  <!-- Down arrow -->
  <polygon points="512,500 480,460 544,460" fill="#FFAB40" fill-opacity="0.7"/>
</svg>