<svg xmlns="http://www.w3.org/2000/svg" viewBox="0 0 1024 1024">
  <defs>
    <linearGradient id="bgPVO4" x1="0" y1="0" x2="1" y2="1">
      <stop offset="0" stop-color="#FBCFE8"/>
      <stop offset="1" stop-color="#A78BFA"/>
    </linearGradient>
  </defs>
  <rect width="1024" height="1024" rx="200" fill="url(#bgPVO4)"/>
  <path d="M440 560 L720 560 L780 680 L960 680 L960 900 Q960 920 940 920 L440 920 Z" fill="#FF6B9D" stroke="#1E1B4B" stroke-width="14"/>
  <rect x="100" y="180" width="180" height="180" rx="14" fill="#FFC93C" stroke="#1E1B4B" stroke-width="12" transform="rotate(-18 190 270)"/>
  <g transform="rotate(-18 190 270)">
    <circle cx="140" cy="220" r="20" fill="#FFFFFF"/>
    <path d="M110 330 L160 260 L200 290 L240 250 L240 340 L110 340 Z" fill="#5BC0A5"/>
  </g>
  <rect x="320" y="120" width="180" height="180" rx="14" fill="#7C6BFF" stroke="#1E1B4B" stroke-width="12" transform="rotate(-8 410 210)"/>
  <g transform="rotate(-8 410 210)">
    <polygon points="390,170 390,240 445,205" fill="#FFFFFF"/>
  </g>
  <rect x="540" y="180" width="180" height="180" rx="14" fill="#5BC0A5" stroke="#1E1B4B" stroke-width="12" transform="rotate(6 630 270)"/>
  <g transform="rotate(6 630 270)">
    <circle cx="580" cy="220" r="20" fill="#FFE066"/>
    <path d="M550 330 L600 260 L640 290 L680 250 L680 340 L550 340 Z" fill="#FFFFFF"/>
  </g>
  <rect x="740" y="260" width="180" height="180" rx="14" fill="#FFE066" stroke="#1E1B4B" stroke-width="12" transform="rotate(14 830 350)"/>
  <g transform="rotate(14 830 350)">
    <polygon points="810,310 810,380 865,345" fill="#1E1B4B"/>
  </g>
  <path d="M240 440 L440 560 M470 400 L520 560 M660 370 L640 560 M820 480 L740 600" stroke="#FFFFFF" stroke-width="12" stroke-linecap="round" stroke-dasharray="20 20"/>
</svg>
