<svg xmlns="http://www.w3.org/2000/svg" viewBox="0 0 1024 1024">
  <rect width="1024" height="1024" rx="200" fill="#FFFBEB"/>
  <rect x="140" y="200" width="440" height="320" rx="20" fill="#FF6B9D" stroke="#1E1B4B" stroke-width="16"/>
  <circle cx="230" cy="290" r="40" fill="#FFE066"/>
  <path d="M170 480 L310 310 L400 400 L500 300 L540 480 Z" fill="#FFFFFF"/>
  <rect x="440" y="340" width="444" height="280" rx="20" fill="#0F172A" stroke="#1E1B4B" stroke-width="16"/>
  <circle cx="540" cy="420" r="22" fill="#FFC93C"/>
  <path d="M560 400 L720 340 L720 500 L560 440 Z" fill="#FFC93C"/>
  <rect x="540" y="460" width="300" height="120" rx="14" fill="#FFFFFF"/>
  <polygon points="650,490 650,560 730,525" fill="#FF6B9D"/>
  <rect x="220" y="620" width="584" height="240" rx="18" fill="#5BC0A5" stroke="#1E1B4B" stroke-width="16"/>
  <rect x="220" y="620" width="584" height="60" rx="18" fill="#FF8A3D"/>
  <text x="512" y="670" font-family="Arial Black, sans-serif" font-size="44" font-weight="900" fill="#FFFFFF" text-anchor="middle">2026 / 04</text>
  <g fill="#FFFFFF">
    <rect x="260" y="710" width="50" height="50" rx="4"/>
    <rect x="330" y="710" width="50" height="50" rx="4"/>
    <rect x="400" y="710" width="50" height="50" rx="4"/>
    <rect x="470" y="710" width="50" height="50" rx="4"/>
    <rect x="540" y="710" width="50" height="50" rx="4"/>
    <rect x="610" y="710" width="50" height="50" rx="4"/>
    <rect x="680" y="710" width="50" height="50" rx="4"/>
    <rect x="260" y="780" width="50" height="50" rx="4"/>
    <rect x="330" y="780" width="50" height="50" rx="4"/>
    <rect x="400" y="780" width="50" height="50" rx="4" fill="#FFC93C"/>
    <rect x="470" y="780" width="50" height="50" rx="4"/>
    <rect x="540" y="780" width="50" height="50" rx="4"/>
    <rect x="610" y="780" width="50" height="50" rx="4"/>
    <rect x="680" y="780" width="50" height="50" rx="4"/>
  </g>
</svg>
