<svg viewBox="0 0 1024 1024" xmlns="http://www.w3.org/2000/svg">
  <!-- Layer 1: 골드-파랑 그라데이션 배경 -->
  <defs>
    <linearGradient id="bg05" x1="0%" y1="0%" x2="100%" y2="100%">
      <stop offset="0%" stop-color="#FFF8E1"/>
      <stop offset="50%" stop-color="#E3F2FD"/>
      <stop offset="100%" stop-color="#FCE4EC"/>
    </linearGradient>
    <clipPath id="clip05">
      <rect width="1024" height="1024" rx="190"/>
    </clipPath>
  </defs>
  <rect width="1024" height="1024" rx="190" fill="url(#bg05)"/>

  <g clip-path="url(#clip05)">
    <!-- Layer 2: 수평 타임라인 -->
    <rect x="120" y="490" width="784" height="44" rx="22" fill="#42A5F5"/>

    <!-- 타임라인 날짜 마커들 -->
    <circle cx="220" cy="512" r="30" fill="#FF6F00"/>
    <text x="220" y="610" font-family="'Segoe UI','Consolas',monospace" font-weight="700" font-size="38" fill="#E65100" text-anchor="middle">01</text>

    <circle cx="400" cy="512" r="30" fill="#7B1FA2"/>
    <text x="400" y="610" font-family="'Segoe UI','Consolas',monospace" font-weight="700" font-size="38" fill="#7B1FA2" text-anchor="middle">05</text>

    <circle cx="580" cy="512" r="30" fill="#1565C0"/>
    <text x="580" y="610" font-family="'Segoe UI','Consolas',monospace" font-weight="700" font-size="38" fill="#1565C0" text-anchor="middle">15</text>

    <circle cx="760" cy="512" r="30" fill="#2E7D32"/>
    <text x="760" y="610" font-family="'Segoe UI','Consolas',monospace" font-weight="700" font-size="38" fill="#2E7D32" text-anchor="middle">28</text>

    <!-- 월 레이블 -->
    <text x="512" y="700" font-family="'Segoe UI',Arial,sans-serif" font-weight="900" font-size="72" fill="#1565C0" text-anchor="middle">JUNE 2024</text>

    <!-- Layer 3: 타임라인 위에 사진/동영상 카드들 (날짜별 배치) -->
    <!-- 01일 사진 -->
    <rect x="140" y="240" width="160" height="230" rx="16" fill="#FFFFFF" stroke="#FF6F00" stroke-width="8"/>
    <rect x="152" y="252" width="136" height="150" rx="10" fill="#FFE082"/>
    <circle cx="196" cy="300" r="26" fill="#FFB300"/>
    <path d="M152 374 L216 330 L260 362 L288 344 L288 402 L152 402Z" fill="#66BB6A" opacity="0.7"/>
    <text x="220" y="456" font-family="'Segoe UI','Consolas',monospace" font-weight="800" font-size="46" fill="#E65100" text-anchor="middle">01</text>
    <path d="M220 478 L220 480" stroke="#FF6F00" stroke-width="14" stroke-linecap="round"/>

    <!-- 05일 동영상 -->
    <rect x="320" y="180" width="160" height="290" rx="16" fill="#FFFFFF" stroke="#7B1FA2" stroke-width="8"/>
    <rect x="332" y="192" width="136" height="150" rx="10" fill="#E1BEE7"/>
    <circle cx="400" cy="267" r="36" fill="rgba(0,0,0,0.15)"/>
    <path d="M388 250 L388 284 L422 267 Z" fill="#7B1FA2"/>
    <text x="400" y="450" font-family="'Segoe UI','Consolas',monospace" font-weight="800" font-size="46" fill="#7B1FA2" text-anchor="middle">05</text>
    <path d="M400 472 L400 480" stroke="#7B1FA2" stroke-width="14" stroke-linecap="round"/>

    <!-- 15일 사진 -->
    <rect x="500" y="220" width="160" height="250" rx="16" fill="#FFFFFF" stroke="#1565C0" stroke-width="8"/>
    <rect x="512" y="232" width="136" height="150" rx="10" fill="#BBDEFB"/>
    <circle cx="554" cy="270" r="20" fill="#FFD54F"/>
    <path d="M512 356 L560 324 L612 348 L648 330 L648 382 L512 382Z" fill="#42A5F5" opacity="0.7"/>
    <text x="580" y="452" font-family="'Segoe UI','Consolas',monospace" font-weight="800" font-size="46" fill="#1565C0" text-anchor="middle">15</text>
    <path d="M580 472 L580 480" stroke="#1565C0" stroke-width="14" stroke-linecap="round"/>

    <!-- 28일 사진 -->
    <rect x="680" y="200" width="160" height="270" rx="16" fill="#FFFFFF" stroke="#2E7D32" stroke-width="8"/>
    <rect x="692" y="212" width="136" height="150" rx="10" fill="#C8E6C9"/>
    <path d="M692 280 L740 248 L790 272 L828 254 L828 362 L692 362Z" fill="#66BB6A" opacity="0.8"/>
    <circle cx="750" cy="255" r="22" fill="#FFD54F"/>
    <text x="760" y="452" font-family="'Segoe UI','Consolas',monospace" font-weight="800" font-size="46" fill="#2E7D32" text-anchor="middle">28</text>
    <path d="M760 472 L760 480" stroke="#2E7D32" stroke-width="14" stroke-linecap="round"/>
  </g>
</svg>
