<svg viewBox="0 0 1024 1024" xmlns="http://www.w3.org/2000/svg">
  <!-- Layer 1: 코랄-퍼플 배경 -->
  <defs>
    <linearGradient id="bg06" x1="0%" y1="0%" x2="100%" y2="100%">
      <stop offset="0%" stop-color="#FF7043"/>
      <stop offset="100%" stop-color="#7B1FA2"/>
    </linearGradient>
    <clipPath id="clip06">
      <rect width="1024" height="1024" rx="190"/>
    </clipPath>
    <clipPath id="calClip">
      <rect x="212" y="270" width="600" height="540" rx="28"/>
    </clipPath>
  </defs>
  <rect width="1024" height="1024" rx="190" fill="url(#bg06)"/>

  <g clip-path="url(#clip06)">
    <!-- Layer 2: 달력 중앙 심볼 (크고 선명하게) -->
    <!-- 달력 본체 -->
    <rect x="212" y="270" width="600" height="540" rx="28" fill="#FFFFFF" opacity="0.95"/>
    <!-- 달력 헤더 -->
    <rect x="212" y="270" width="600" height="100" rx="28" fill="#FF7043"/>
    <!-- 링 -->
    <rect x="358" y="238" width="48" height="78" rx="24" fill="#BF360C"/>
    <rect x="618" y="238" width="48" height="78" rx="24" fill="#BF360C"/>
    <text x="512" y="340" font-family="'Segoe UI',Arial,sans-serif" font-weight="900" font-size="64" fill="#FFFFFF" text-anchor="middle">JUNE 2024</text>

    <!-- 달력 날짜 그리드 (3×3) -->
    <g clip-path="url(#calClip)">
      <!-- 배경 가이드 선 -->
      <line x1="212" y1="570" x2="812" y2="570" stroke="#F5F5F5" stroke-width="3"/>
      <line x1="212" y1="670" x2="812" y2="670" stroke="#F5F5F5" stroke-width="3"/>
      <line x1="412" y1="370" x2="412" y2="810" stroke="#F5F5F5" stroke-width="3"/>
      <line x1="612" y1="370" x2="612" y2="810" stroke="#F5F5F5" stroke-width="3"/>

      <!-- 사진 썸네일들이 날짜 칸에 배치 -->
      <rect x="222" y="380" width="178" height="178" rx="6" fill="#FF8A65" opacity="0.7"/>
      <circle cx="280" cy="430" r="24" fill="#FFD54F"/>
      <path d="M222 520 L290 474 L356 506 L400 490 L400 558 L222 558Z" fill="#66BB6A" opacity="0.6"/>
      <text x="311" y="554" font-family="'Segoe UI',Arial,sans-serif" font-weight="900" font-size="52" fill="#BF360C" text-anchor="middle">3</text>

      <rect x="422" y="380" width="178" height="178" rx="6" fill="#CE93D8" opacity="0.7"/>
      <circle cx="511" cy="469" r="42" fill="rgba(0,0,0,0.15)"/>
      <path d="M498 452 L498 486 L532 469 Z" fill="#FFFFFF"/>
      <text x="511" y="554" font-family="'Segoe UI',Arial,sans-serif" font-weight="900" font-size="52" fill="#6A1B9A" text-anchor="middle">8</text>

      <rect x="622" y="380" width="178" height="178" rx="6" fill="#80DEEA" opacity="0.7"/>
      <circle cx="672" cy="420" r="18" fill="#FFD54F"/>
      <path d="M622 470 L675 444 L730 464 L800 450 L800 558 L622 558Z" fill="#4DD0E1" opacity="0.6"/>
      <text x="711" y="554" font-family="'Segoe UI',Arial,sans-serif" font-weight="900" font-size="52" fill="#00838F" text-anchor="middle">14</text>

      <rect x="222" y="580" width="178" height="178" rx="6" fill="#A5D6A7" opacity="0.7"/>
      <rect x="230" y="590" width="75" height="75" rx="4" fill="#43A047" opacity="0.7"/>
      <rect x="315" y="590" width="75" height="75" rx="4" fill="#81C784" opacity="0.7"/>
      <text x="311" y="754" font-family="'Segoe UI',Arial,sans-serif" font-weight="900" font-size="52" fill="#2E7D32" text-anchor="middle">19</text>

      <rect x="422" y="580" width="178" height="178" rx="6" fill="#FFCC80" opacity="0.7"/>
      <circle cx="511" cy="650" r="32" fill="rgba(0,0,0,0.15)"/>
      <path d="M499 636 L499 664 L527 650 Z" fill="#FFFFFF"/>
      <text x="511" y="754" font-family="'Segoe UI',Arial,sans-serif" font-weight="900" font-size="52" fill="#E65100" text-anchor="middle">25</text>

      <rect x="622" y="580" width="178" height="178" rx="6" fill="#EF9A9A" opacity="0.7"/>
      <circle cx="680" cy="625" r="20" fill="#EF5350" opacity="0.7"/>
      <circle cx="740" cy="638" r="26" fill="#E53935" opacity="0.6"/>
      <circle cx="790" cy="618" r="16" fill="#FF5252" opacity="0.7"/>
      <text x="711" y="754" font-family="'Segoe UI',Arial,sans-serif" font-weight="900" font-size="52" fill="#B71C1C" text-anchor="middle">30</text>
    </g>

    <!-- Layer 3: 자동 정리 화살표 효과 (달력 밖으로 빠져나가는 폴더들) -->
    <path d="M812 590 Q880 590 910 640" stroke="#FFE082" stroke-width="28" stroke-linecap="round" fill="none"/>
    <rect x="880" y="640" width="120" height="88" rx="14" fill="#FFD54F"/>
    <rect x="880" y="622" width="88" height="36" rx="10" fill="#FFB300"/>
    <text x="940" y="694" font-family="'Segoe UI','Consolas',monospace" font-weight="800" font-size="30" fill="#BF360C" text-anchor="middle">06/30</text>

    <!-- 상단 EXIF 태그 -->
    <rect x="212" y="140" width="600" height="76" rx="22" fill="#FFFFFF" opacity="0.9"/>
    <text x="512" y="193" font-family="'Segoe UI',Arial,sans-serif" font-weight="900" font-size="60" fill="#FF7043" text-anchor="middle">EXIF 촬영 날짜 기준</text>
  </g>
</svg>
