<svg viewBox="0 0 1024 1024" xmlns="http://www.w3.org/2000/svg">
  <!-- Layer 1: 인디고 배경 -->
  <defs>
    <linearGradient id="bg02" x1="0%" y1="0%" x2="100%" y2="100%">
      <stop offset="0%" stop-color="#3949AB"/>
      <stop offset="100%" stop-color="#1A237E"/>
    </linearGradient>
    <clipPath id="clip02">
      <rect width="1024" height="1024" rx="190"/>
    </clipPath>
  </defs>
  <rect width="1024" height="1024" rx="190" fill="url(#bg02)"/>

  <g clip-path="url(#clip02)">
    <!-- Layer 2: 캘린더 본체 -->
    <rect x="140" y="160" width="744" height="680" rx="36" fill="#FFFFFF" opacity="0.12"/>
    <rect x="140" y="160" width="744" height="680" rx="36" fill="none" stroke="#FFFFFF" stroke-width="8" stroke-opacity="0.5"/>

    <!-- 캘린더 헤더 -->
    <rect x="140" y="160" width="744" height="120" rx="36" fill="#FF5252"/>
    <!-- 날짜 표시 -->
    <text x="512" y="240" font-family="'Segoe UI',Arial,sans-serif" font-weight="900" font-size="72" fill="#FFFFFF" text-anchor="middle">JUNE 2024</text>
    <!-- 상단 링 -->
    <rect x="320" y="130" width="50" height="80" rx="25" fill="#C62828"/>
    <rect x="654" y="130" width="50" height="80" rx="25" fill="#C62828"/>

    <!-- Layer 3: 날짜 그리드 안 사진/동영상 썸네일들 -->
    <!-- 3×3 그리드 (날짜 대신 미디어 파일들) -->
    <!-- 행 1 -->
    <rect x="158" y="302" width="210" height="150" rx="12" fill="#FF8A65" opacity="0.9"/>
    <!-- 사진 썸네일 1 -->
    <rect x="170" y="314" width="186" height="106" rx="8" fill="#FFCCBC"/>
    <circle cx="240" cy="360" r="28" fill="#FF8F00"/>
    <path d="M170 390 L240 350 L310 378 L356 358 L356 420 L170 420Z" fill="#66BB6A" opacity="0.7"/>
    <text x="263" y="462" font-family="'Segoe UI',Arial,sans-serif" font-weight="700" font-size="38" fill="#FFFFFF" text-anchor="middle">1</text>

    <rect x="406" y="302" width="210" height="150" rx="12" fill="#42A5F5" opacity="0.9"/>
    <rect x="418" y="314" width="186" height="106" rx="8" fill="#BBDEFB"/>
    <!-- 동영상 -->
    <circle cx="511" cy="367" r="36" fill="rgba(0,0,0,0.2)"/>
    <path d="M498 350 L498 384 L536 367 Z" fill="#FFFFFF"/>
    <text x="511" y="462" font-family="'Segoe UI',Arial,sans-serif" font-weight="700" font-size="38" fill="#FFFFFF" text-anchor="middle">5</text>

    <rect x="654" y="302" width="210" height="150" rx="12" fill="#AB47BC" opacity="0.9"/>
    <rect x="666" y="314" width="186" height="106" rx="8" fill="#E1BEE7"/>
    <circle cx="720" cy="350" r="22" fill="#CE93D8"/>
    <circle cx="788" cy="360" r="26" fill="#AB47BC"/>
    <text x="759" y="462" font-family="'Segoe UI',Arial,sans-serif" font-weight="700" font-size="38" fill="#FFFFFF" text-anchor="middle">10</text>

    <!-- 행 2 -->
    <rect x="158" y="498" width="210" height="150" rx="12" fill="#26A69A" opacity="0.9"/>
    <rect x="170" y="510" width="186" height="106" rx="8" fill="#B2DFDB"/>
    <rect x="180" y="522" width="82" height="82" rx="6" fill="#00897B" opacity="0.8"/>
    <rect x="272" y="522" width="74" height="82" rx="6" fill="#26A69A" opacity="0.8"/>
    <text x="263" y="658" font-family="'Segoe UI',Arial,sans-serif" font-weight="700" font-size="38" fill="#FFFFFF" text-anchor="middle">15</text>

    <rect x="406" y="498" width="210" height="150" rx="12" fill="#EF5350" opacity="0.9"/>
    <rect x="418" y="510" width="186" height="106" rx="8" fill="#FFCDD2"/>
    <circle cx="480" cy="548" r="20" fill="#EF9A9A"/>
    <circle cx="540" cy="555" r="26" fill="#E53935" opacity="0.7"/>
    <circle cx="590" cy="542" r="18" fill="#FF5252"/>
    <text x="511" y="658" font-family="'Segoe UI',Arial,sans-serif" font-weight="700" font-size="38" fill="#FFFFFF" text-anchor="middle">20</text>

    <rect x="654" y="498" width="210" height="150" rx="12" fill="#FFA726" opacity="0.9"/>
    <rect x="666" y="510" width="186" height="106" rx="8" fill="#FFE0B2"/>
    <!-- 동영상 2 -->
    <circle cx="759" cy="563" r="34" fill="rgba(0,0,0,0.2)"/>
    <path d="M747 548 L747 580 L781 563 Z" fill="#FFFFFF"/>
    <text x="759" y="658" font-family="'Segoe UI',Arial,sans-serif" font-weight="700" font-size="38" fill="#FFFFFF" text-anchor="middle">28</text>
  </g>
</svg>
