<svg xmlns="http://www.w3.org/2000/svg" viewBox="0 0 512 512">
  <defs>
    <linearGradient id="bg" x1="0%" y1="0%" x2="100%" y2="100%">
      <stop offset="0%" stop-color="#042f2e"/>
      <stop offset="100%" stop-color="#0f3d3d"/>
    </linearGradient>
    <linearGradient id="mainWin" x1="0%" y1="0%" x2="100%" y2="100%">
      <stop offset="0%" stop-color="#0f766e"/>
      <stop offset="100%" stop-color="#115e59"/>
    </linearGradient>
    <linearGradient id="sideWin" x1="0%" y1="0%" x2="100%" y2="100%">
      <stop offset="0%" stop-color="#134e4a"/>
      <stop offset="100%" stop-color="#0d3b37"/>
    </linearGradient>
  </defs>
  <rect width="512" height="512" rx="80" fill="url(#bg)"/>
  <!-- 메인 창 (좌측 2/3) -->
  <rect x="68" y="88" width="232" height="260" rx="10" fill="url(#mainWin)" stroke="#2dd4bf" stroke-width="2"/>
  <rect x="68" y="88" width="232" height="28" rx="10" fill="#0d5e58"/>
  <rect x="68" y="104" width="232" height="12" rx="0" fill="#0d5e58"/>
  <circle cx="88" cy="104" r="5" fill="#f87171"/>
  <circle cx="106" cy="104" r="5" fill="#fbbf24"/>
  <circle cx="124" cy="104" r="5" fill="#4ade80"/>
  <!-- 메인 창 내용 (코드 라인) -->
  <rect x="84" y="128" width="120" height="8" rx="2" fill="#2dd4bf" opacity="0.5"/>
  <rect x="84" y="144" width="160" height="8" rx="2" fill="#5eead4" opacity="0.3"/>
  <rect x="84" y="160" width="100" height="8" rx="2" fill="#2dd4bf" opacity="0.4"/>
  <rect x="84" y="176" width="140" height="8" rx="2" fill="#5eead4" opacity="0.3"/>
  <rect x="84" y="192" width="80" height="8" rx="2" fill="#2dd4bf" opacity="0.5"/>
  <!-- 사이드 창 (우측 1/3, 2개) -->
  <rect x="316" y="88" width="128" height="120" rx="10" fill="url(#sideWin)" stroke="#14b8a6" stroke-width="1.5"/>
  <rect x="316" y="88" width="128" height="24" rx="10" fill="#0a3d39"/>
  <rect x="316" y="100" width="128" height="12" rx="0" fill="#0a3d39"/>
  <rect x="316" y="228" width="128" height="120" rx="10" fill="url(#sideWin)" stroke="#14b8a6" stroke-width="1.5"/>
  <rect x="316" y="228" width="128" height="24" rx="10" fill="#0a3d39"/>
  <rect x="316" y="240" width="128" height="12" rx="0" fill="#0a3d39"/>
  <!-- 맞춤 가이드 라인 -->
  <line x1="68" y1="348" x2="444" y2="348" stroke="#2dd4bf" stroke-width="1.5" stroke-dasharray="6,4" opacity="0.5"/>
  <line x1="300" y1="88" x2="300" y2="420" stroke="#2dd4bf" stroke-width="1.5" stroke-dasharray="6,4" opacity="0.5"/>
  <!-- 하단 탭 바 -->
  <rect x="68" y="368" width="376" height="44" rx="8" fill="#0d3b37" stroke="#0f766e" stroke-width="1.5"/>
  <text x="256" y="394" font-family="Arial" font-weight="bold" font-size="16" fill="#2dd4bf" text-anchor="middle">WINDOW · PILOT</text>
</svg>
