<svg xmlns="http://www.w3.org/2000/svg" viewBox="0 0 1024 1024">
  <rect width="1024" height="1024" rx="200" fill="#DDD6FE"/>
  <g>
    <rect x="140" y="180" width="240" height="200" rx="20" fill="#3B82F6" stroke="#FFFFFF" stroke-width="10"/>
    <circle cx="260" cy="260" r="44" fill="#FDBA74"/>
    <circle cx="240" cy="290" r="10" fill="#FFFFFF"/>
    <circle cx="280" cy="290" r="10" fill="#FFFFFF"/>
    <text x="260" y="360" font-family="Arial Black, sans-serif" font-size="40" font-weight="900" fill="#FFFFFF" text-anchor="middle">SCIENCE</text>
  </g>
  <g>
    <rect x="392" y="180" width="240" height="200" rx="20" fill="#C2410C" stroke="#FFFFFF" stroke-width="10"/>
    <rect x="462" y="220" width="100" height="90" fill="#FFE066" stroke="#FFFFFF" stroke-width="6"/>
    <circle cx="512" cy="260" r="22" fill="#1E1B4B"/>
    <text x="512" y="360" font-family="Arial Black, sans-serif" font-size="40" font-weight="900" fill="#FFFFFF" text-anchor="middle">HISTORY</text>
  </g>
  <g>
    <rect x="644" y="180" width="240" height="200" rx="20" fill="#DC2626" stroke="#FFFFFF" stroke-width="10"/>
    <path d="M724 220 Q764 200 804 220 L804 300 Q784 320 764 310 Q744 320 724 300 Z" fill="#FFFFFF"/>
    <circle cx="764" cy="265" r="14" fill="#DC2626"/>
    <text x="764" y="360" font-family="Arial Black, sans-serif" font-size="44" font-weight="900" fill="#FFFFFF" text-anchor="middle">MOVIES</text>
  </g>
  <g>
    <rect x="140" y="420" width="240" height="200" rx="20" fill="#7C3AED" stroke="#FFFFFF" stroke-width="10"/>
    <path d="M240 450 L240 560 Q240 580 220 580 Q200 580 200 560 Q200 540 220 540 L220 470 L280 455 L280 540 Q280 560 260 560 Q240 560 240 540" fill="#FFE066" stroke="#FFFFFF" stroke-width="6"/>
    <text x="260" y="600" font-family="Arial Black, sans-serif" font-size="46" font-weight="900" fill="#FFFFFF" text-anchor="middle">MUSIC</text>
  </g>
  <g>
    <rect x="392" y="420" width="240" height="200" rx="20" fill="#FFC93C" stroke="#FFFFFF" stroke-width="10"/>
    <circle cx="512" cy="510" r="60" fill="#FF6B9D"/>
    <circle cx="512" cy="510" r="60" fill="none" stroke="#FFFFFF" stroke-width="8" stroke-dasharray="20 10"/>
    <text x="512" y="600" font-family="Arial Black, sans-serif" font-size="50" font-weight="900" fill="#1E1B4B" text-anchor="middle">FOOD</text>
  </g>
  <g>
    <rect x="644" y="420" width="240" height="200" rx="20" fill="#22C55E" stroke="#FFFFFF" stroke-width="10"/>
    <circle cx="764" cy="510" r="48" fill="#FFFFFF" stroke="#1E1B4B" stroke-width="8"/>
    <path d="M764 462 Q730 500 764 558 Q798 500 764 462" fill="none" stroke="#1E1B4B" stroke-width="6"/>
    <text x="764" y="600" font-family="Arial Black, sans-serif" font-size="42" font-weight="900" fill="#FFFFFF" text-anchor="middle">SPORTS</text>
  </g>
  <rect x="140" y="680" width="744" height="200" rx="20" fill="#FF6B9D" stroke="#FFFFFF" stroke-width="10"/>
  <text x="512" y="790" font-family="Arial Black, sans-serif" font-size="130" font-weight="900" fill="#FFFFFF" text-anchor="middle">TRIVIA</text>
  <text x="512" y="860" font-family="Arial Black, sans-serif" font-size="50" font-weight="900" fill="#FFE066" text-anchor="middle">12 CATEGORIES</text>
</svg>
