<svg xmlns="http://www.w3.org/2000/svg" viewBox="0 0 1024 1024">
  <defs>
    <radialGradient id="bg04" cx="50%" cy="50%" r="70%">
      <stop offset="0%" stop-color="#5B50D4"/>
      <stop offset="100%" stop-color="#4338CA"/>
    </radialGradient>
    <radialGradient id="mass04" cx="40%" cy="35%" r="60%">
      <stop offset="0%" stop-color="#DDD6FE"/>
      <stop offset="100%" stop-color="#7C3AED"/>
    </radialGradient>
    <radialGradient id="obj04" cx="40%" cy="35%" r="60%">
      <stop offset="0%" stop-color="#FEF3C7"/>
      <stop offset="100%" stop-color="#D97706"/>
    </radialGradient>
    <clipPath id="clip04">
      <rect width="1024" height="1024" rx="190"/>
    </clipPath>
  </defs>
  <!-- Layer 1: 배경 -->
  <rect width="1024" height="1024" rx="190" fill="url(#bg04)"/>
  <g clip-path="url(#clip04)">
    <!-- 별 -->
    <circle cx="150" cy="200" r="2" fill="#FFFFFF" opacity="0.4"/>
    <circle cx="820" cy="180" r="3" fill="#FFFFFF" opacity="0.5"/>
    <circle cx="200" cy="820" r="2" fill="#FFFFFF" opacity="0.4"/>
    <circle cx="850" cy="800" r="2" fill="#FFFFFF" opacity="0.5"/>
    <circle cx="120" cy="500" r="3" fill="#FFFFFF" opacity="0.3"/>
    <circle cx="900" cy="450" r="2" fill="#FFFFFF" opacity="0.4"/>
    <!-- Layer 2: 중력 파동 (동심원, 왜곡된) -->
    <ellipse cx="512" cy="512" rx="300" ry="290" fill="none" stroke="#A5B4FC" stroke-width="10" opacity="0.15"/>
    <ellipse cx="512" cy="512" rx="230" ry="215" fill="none" stroke="#A5B4FC" stroke-width="12" opacity="0.22"/>
    <ellipse cx="512" cy="512" rx="165" ry="148" fill="none" stroke="#A5B4FC" stroke-width="14" opacity="0.3"/>
    <ellipse cx="512" cy="512" rx="110" ry="95" fill="none" stroke="#A5B4FC" stroke-width="16" opacity="0.4"/>
    <!-- 중력 왜곡선 (방사형) -->
    <path d="M 512 512 Q 600 450 680 360" fill="none" stroke="#A5B4FC" stroke-width="8" opacity="0.35" stroke-linecap="round"/>
    <path d="M 512 512 Q 580 560 640 660" fill="none" stroke="#A5B4FC" stroke-width="8" opacity="0.35" stroke-linecap="round"/>
    <path d="M 512 512 Q 420 570 320 640" fill="none" stroke="#A5B4FC" stroke-width="8" opacity="0.35" stroke-linecap="round"/>
    <path d="M 512 512 Q 450 430 380 340" fill="none" stroke="#A5B4FC" stroke-width="8" opacity="0.35" stroke-linecap="round"/>
    <!-- Layer 2: 중앙 질량 (거대 천체) -->
    <circle cx="512" cy="512" r="80" fill="url(#mass04)"/>
    <circle cx="512" cy="512" r="60" fill="#6D28D9" opacity="0.7"/>
    <!-- Layer 2: 끌려오는 물체들 -->
    <circle cx="720" cy="310" r="35" fill="url(#obj04)"/>
    <!-- 끌림 화살표 1 -->
    <path d="M 695 335 Q 630 400 580 460" fill="none" stroke="#FDE68A" stroke-width="10" stroke-linecap="round"/>
    <polygon points="580,460 565,440 590,442" fill="#FDE68A"/>
    <!-- 물체 2 -->
    <circle cx="260" cy="700" r="28" fill="url(#obj04)" opacity="0.85"/>
    <!-- 끌림 화살표 2 -->
    <path d="M 280 680 Q 360 630 430 580" fill="none" stroke="#FDE68A" stroke-width="10" stroke-linecap="round"/>
    <polygon points="430,580 418,562 436,570" fill="#FDE68A"/>
    <!-- Layer 3: 포인트 광채 -->
    <circle cx="512" cy="512" r="88" fill="none" stroke="#FDE68A" stroke-width="4" opacity="0.3"/>
    <path d="M 512 430 L 518 508 L 596 512 L 518 516 L 512 594 L 506 516 L 428 512 L 506 508 Z" fill="#FDE68A" opacity="0.6"/>
  </g>
</svg>
