<svg xmlns="http://www.w3.org/2000/svg" viewBox="0 0 1024 1024">
  <defs>
    <radialGradient id="bg06" cx="50%" cy="50%" r="70%">
      <stop offset="0%" stop-color="#1A1040"/>
      <stop offset="100%" stop-color="#0F172A"/>
    </radialGradient>
    <radialGradient id="core06" cx="40%" cy="35%" r="60%">
      <stop offset="0%" stop-color="#E9D5FF"/>
      <stop offset="100%" stop-color="#7C3AED"/>
    </radialGradient>
    <clipPath id="clip06">
      <rect width="1024" height="1024" rx="190"/>
    </clipPath>
  </defs>
  <!-- Layer 1: 배경 -->
  <rect width="1024" height="1024" rx="190" fill="url(#bg06)"/>
  <g clip-path="url(#clip06)">
    <!-- 별 -->
    <circle cx="160" cy="180" r="3" fill="#FFFFFF" opacity="0.7"/>
    <circle cx="820" cy="200" r="2" fill="#FFFFFF" opacity="0.6"/>
    <circle cx="190" cy="830" r="2" fill="#FFFFFF" opacity="0.5"/>
    <circle cx="850" cy="780" r="3" fill="#FFFFFF" opacity="0.6"/>
    <circle cx="500" cy="130" r="2" fill="#FFFFFF" opacity="0.5"/>
    <circle cx="100" cy="400" r="3" fill="#FFFFFF" opacity="0.4"/>
    <circle cx="920" cy="600" r="2" fill="#FFFFFF" opacity="0.5"/>
    <circle cx="350" cy="900" r="2" fill="#FFFFFF" opacity="0.4"/>
    <!-- Layer 2: 나선 은하 팔 -->
    <!-- 나선 팔 1 -->
    <path d="M 512 512 Q 560 460 630 400 Q 700 340 780 300 Q 850 270 880 240" fill="none" stroke="#C4B5FD" stroke-width="30" opacity="0.5" stroke-linecap="round"/>
    <path d="M 512 512 Q 560 460 630 400 Q 700 340 780 300 Q 850 270 880 240" fill="none" stroke="#DDD6FE" stroke-width="14" opacity="0.7" stroke-linecap="round"/>
    <!-- 나선 팔 2 -->
    <path d="M 512 512 Q 464 564 394 624 Q 324 684 244 724 Q 174 754 144 784" fill="none" stroke="#C4B5FD" stroke-width="30" opacity="0.5" stroke-linecap="round"/>
    <path d="M 512 512 Q 464 564 394 624 Q 324 684 244 724 Q 174 754 144 784" fill="none" stroke="#DDD6FE" stroke-width="14" opacity="0.7" stroke-linecap="round"/>
    <!-- 나선 팔 3 -->
    <path d="M 512 512 Q 564 470 640 420 Q 710 380 740 310 Q 760 260 800 220" fill="none" stroke="#A78BFA" stroke-width="20" opacity="0.4" stroke-linecap="round"/>
    <!-- 나선 팔 4 -->
    <path d="M 512 512 Q 460 554 384 604 Q 314 644 284 714 Q 264 764 224 804" fill="none" stroke="#A78BFA" stroke-width="20" opacity="0.4" stroke-linecap="round"/>
    <!-- 별들 (팔 위) -->
    <circle cx="650" cy="410" r="8" fill="#FFFFFF" opacity="0.8"/>
    <circle cx="740" cy="330" r="6" fill="#FFFFFF" opacity="0.7"/>
    <circle cx="820" cy="270" r="5" fill="#FFFFFF" opacity="0.6"/>
    <circle cx="374" cy="614" r="8" fill="#FFFFFF" opacity="0.8"/>
    <circle cx="264" cy="694" r="6" fill="#FFFFFF" opacity="0.7"/>
    <circle cx="194" cy="754" r="5" fill="#FFFFFF" opacity="0.6"/>
    <!-- Layer 2: 은하 코어 -->
    <circle cx="512" cy="512" r="70" fill="url(#core06)"/>
    <circle cx="512" cy="512" r="50" fill="#EDE9FE" opacity="0.6"/>
    <circle cx="512" cy="512" r="30" fill="#FFFFFF" opacity="0.8"/>
    <!-- Layer 3: 청록 강조 별 -->
    <path d="M 760 760 L 770 785 L 795 795 L 770 805 L 760 830 L 750 805 L 725 795 L 750 785 Z" fill="#22D3EE" opacity="0.9"/>
    <circle cx="300" cy="260" r="18" fill="#22D3EE" opacity="0.7"/>
    <circle cx="760" cy="700" r="12" fill="#22D3EE" opacity="0.5"/>
  </g>
</svg>
