<svg xmlns="http://www.w3.org/2000/svg" viewBox="0 0 1024 1024">
  <defs>
    <radialGradient id="bg13" cx="50%" cy="50%" r="70%">
      <stop offset="0%" stop-color="#7A0B2E"/>
      <stop offset="100%" stop-color="#4C0519"/>
    </radialGradient>
    <radialGradient id="badge13" cx="40%" cy="35%" r="65%">
      <stop offset="0%" stop-color="#FBCFE8"/>
      <stop offset="100%" stop-color="#DB2777"/>
    </radialGradient>
    <clipPath id="clip13">
      <rect width="1024" height="1024" rx="190"/>
    </clipPath>
  </defs>
  <!-- Layer 1: 배경 -->
  <rect width="1024" height="1024" rx="190" fill="url(#bg13)"/>
  <g clip-path="url(#clip13)">
    <!-- 별 배경 -->
    <circle cx="160" cy="180" r="3" fill="#FFFFFF" opacity="0.6"/>
    <circle cx="820" cy="200" r="2" fill="#FFFFFF" opacity="0.5"/>
    <circle cx="190" cy="840" r="2" fill="#FFFFFF" opacity="0.5"/>
    <circle cx="840" cy="820" r="3" fill="#FFFFFF" opacity="0.6"/>
    <circle cx="500" cy="140" r="2" fill="#FFFFFF" opacity="0.4"/>
    <!-- Layer 2: 배지/리본 (상단) -->
    <path d="M 400 230 L 512 270 L 624 230 L 624 160 Q 512 130 400 160 Z" fill="url(#badge13)"/>
    <!-- 배지 광채 -->
    <path d="M 420 205 L 512 232 L 604 205 L 604 170 Q 512 148 420 170 Z" fill="#FBCFE8" opacity="0.3"/>
    <!-- Layer 2: 스코어판 (중앙) -->
    <rect x="260" y="285" width="504" height="260" rx="20" fill="#2D0A1A" stroke="#F9A8D4" stroke-width="8"/>
    <!-- 스코어 텍스트 -->
    <text x="512" y="360" text-anchor="middle" font-family="Arial Black, Arial" font-weight="900" font-size="48" fill="#F9A8D4" letter-spacing="2">SCORE</text>
    <text x="512" y="460" text-anchor="middle" font-family="Arial Black, Arial" font-weight="900" font-size="90" fill="#FDE68A">9850</text>
    <!-- Layer 2: 별 레이팅 ★★★ -->
    <!-- 별 1 (꽉 참) -->
    <path d="M 342 590 L 358 638 L 408 638 L 368 668 L 382 716 L 342 686 L 302 716 L 316 668 L 276 638 L 326 638 Z" fill="#FDE68A"/>
    <!-- 별 2 (꽉 참) -->
    <path d="M 512 582 L 530 634 L 584 634 L 540 664 L 556 716 L 512 684 L 468 716 L 484 664 L 440 634 L 494 634 Z" fill="#FDE68A"/>
    <!-- 별 3 (꽉 참) -->
    <path d="M 682 590 L 698 638 L 748 638 L 708 668 L 722 716 L 682 686 L 642 716 L 656 668 L 616 638 L 666 638 Z" fill="#FDE68A"/>
    <!-- 별 광채 -->
    <circle cx="342" cy="655" r="6" fill="#FFFFFF" opacity="0.4"/>
    <circle cx="512" cy="648" r="6" fill="#FFFFFF" opacity="0.4"/>
    <circle cx="682" cy="655" r="6" fill="#FFFFFF" opacity="0.4"/>
    <!-- Layer 3: 장식 요소 -->
    <!-- 좌우 리본 -->
    <path d="M 260 380 L 220 340 L 220 420 Z" fill="#F9A8D4" opacity="0.6"/>
    <path d="M 764 380 L 804 340 L 804 420 Z" fill="#F9A8D4" opacity="0.6"/>
    <!-- 작은 행성/원 장식 -->
    <circle cx="280" cy="780" r="22" fill="#F9A8D4" opacity="0.5"/>
    <circle cx="744" cy="790" r="18" fill="#F9A8D4" opacity="0.4"/>
    <circle cx="512" cy="820" r="14" fill="#FDE68A" opacity="0.6"/>
    <!-- 배지 텍스트 -->
    <text x="512" y="213" text-anchor="middle" font-family="Arial Black, Arial" font-weight="900" font-size="32" fill="#FFFFFF" opacity="0.9">CLEAR!</text>
  </g>
</svg>
