<svg xmlns="http://www.w3.org/2000/svg" viewBox="0 0 1024 1024">
  <rect x="80" y="80" width="864" height="864" rx="180" fill="#1A0000"/>
  <!-- 문서 -->
  <rect x="240" y="280" width="280" height="360" rx="16" fill="#B71C1C" opacity="0.8"/>
  <rect x="278" y="328" width="180" height="14" rx="3" fill="#EF9A9A" opacity="0.6"/>
  <rect x="278" y="356" width="140" height="14" rx="3" fill="#EF9A9A" opacity="0.4"/>
  <rect x="278" y="384" width="160" height="14" rx="3" fill="#EF9A9A" opacity="0.3"/>
  <!-- 돋보기 -->
  <circle cx="640" cy="520" r="180" fill="none" stroke="#B71C1C" stroke-width="36"/>
  <circle cx="640" cy="520" r="144" fill="#1A0000" opacity="0.8"/>
  <circle cx="640" cy="520" r="130" fill="#B71C1C" opacity="0.2"/>
  <!-- 돋보기 내 문서 내용 -->
  <rect x="570" y="460" width="140" height="12" rx="3" fill="#EF9A9A" opacity="0.6"/>
  <rect x="570" y="484" width="110" height="12" rx="3" fill="#EF9A9A" opacity="0.4"/>
  <rect x="570" y="508" width="130" height="12" rx="3" fill="#EF9A9A" opacity="0.3"/>
  <rect x="570" y="532" width="100" height="12" rx="3" fill="#EF9A9A" opacity="0.3"/>
  <!-- 돋보기 손잡이 -->
  <line x1="768" y1="648" x2="860" y2="740" stroke="#B71C1C" stroke-width="48" stroke-linecap="round"/>
  <line x1="768" y1="648" x2="860" y2="740" stroke="#EF9A9A" stroke-width="20" stroke-linecap="round" opacity="0.5"/>
  <!-- 돋보기 하이라이트 -->
  <ellipse cx="580" cy="460" rx="36" ry="24" fill="#EF9A9A" opacity="0.15"/>
</svg>