<svg xmlns="http://www.w3.org/2000/svg" viewBox="0 0 1024 1024">
  <rect x="80" y="80" width="864" height="864" rx="180" fill="#050A05"/>
  <!-- 지휘센터: command center with multiple screens -->
  <!-- Main large screen -->
  <rect x="240" y="280" width="544" height="300" rx="16" fill="#2E7D32"/>
  <rect x="256" y="296" width="512" height="268" rx="10" fill="#050A05"/>
  <!-- Main screen content -->
  <line x1="280" y1="328" x2="520" y2="328" stroke="#81C784" stroke-width="8" stroke-linecap="round"/>
  <line x1="280" y1="358" x2="480" y2="358" stroke="#2E7D32" stroke-width="5" stroke-linecap="round"/>
  <line x1="280" y1="383" x2="500" y2="383" stroke="#2E7D32" stroke-width="5" stroke-linecap="round"/>
  <!-- Graph on main screen -->
  <polyline points="560,540 590,490 620,510 650,470 680,480 710,450 740,460" fill="none" stroke="#81C784" stroke-width="6" stroke-linecap="round" stroke-linejoin="round"/>
  <line x1="560" y1="550" x2="744" y2="550" stroke="#2E7D32" stroke-width="3" opacity="0.5"/>
  <!-- Sub screens row -->
  <rect x="240" y="610" width="160" height="120" rx="10" fill="#2E7D32"/>
  <rect x="252" y="622" width="136" height="96" rx="6" fill="#050A05"/>
  <line x1="268" y1="645" x2="372" y2="645" stroke="#81C784" stroke-width="5" stroke-linecap="round"/>
  <line x1="268" y1="665" x2="352" y2="665" stroke="#2E7D32" stroke-width="4" stroke-linecap="round"/>
  <rect x="432" y="610" width="160" height="120" rx="10" fill="#2E7D32"/>
  <rect x="444" y="622" width="136" height="96" rx="6" fill="#050A05"/>
  <circle cx="512" cy="670" r="30" fill="none" stroke="#81C784" stroke-width="6"/>
  <line x1="512" y1="640" x2="512" y2="670" stroke="#81C784" stroke-width="5"/>
  <rect x="624" y="610" width="160" height="120" rx="10" fill="#2E7D32"/>
  <rect x="636" y="622" width="136" height="96" rx="6" fill="#050A05"/>
  <polyline points="652,695 672,665 692,675 712,650 732,660 752,642" fill="none" stroke="#81C784" stroke-width="5" stroke-linecap="round" stroke-linejoin="round"/>
</svg>