<svg xmlns="http://www.w3.org/2000/svg" viewBox="0 0 512 512">
  <defs>
    <linearGradient id="bg" x1="0%" y1="0%" x2="100%" y2="100%">
      <stop offset="0%" stop-color="#1a0500"/>
      <stop offset="100%" stop-color="#2d0a00"/>
    </linearGradient>
    <linearGradient id="folder" x1="0%" y1="0%" x2="100%" y2="100%">
      <stop offset="0%" stop-color="#ff8a65"/>
      <stop offset="100%" stop-color="#bf360c"/>
    </linearGradient>
    <linearGradient id="fire1" x1="0%" y1="100%" x2="0%" y2="0%">
      <stop offset="0%" stop-color="#ff3d00"/>
      <stop offset="50%" stop-color="#ff9800"/>
      <stop offset="100%" stop-color="#fff176" stop-opacity="0.8"/>
    </linearGradient>
    <linearGradient id="fire2" x1="0%" y1="100%" x2="0%" y2="0%">
      <stop offset="0%" stop-color="#ff6d00"/>
      <stop offset="100%" stop-color="#ffe57f" stop-opacity="0.6"/>
    </linearGradient>
    <filter id="fireglow"><feGaussianBlur stdDeviation="10"/></filter>
  </defs>
  <rect width="512" height="512" rx="80" fill="url(#bg)"/>
  <!-- fire glow underneath -->
  <ellipse cx="256" cy="370" rx="160" ry="60" fill="#ff5722" opacity="0.3" filter="url(#fireglow)"/>
  <!-- folder -->
  <path d="M90 240 L90 390 L420 390 L420 260 L230 260 L200 240 Z" fill="url(#folder)"/>
  <path d="M90 240 L90 268 L420 268 L420 260 L230 260 L200 240 Z" fill="#d84315"/>
  <!-- fire flames -->
  <path d="M150 265 Q140 220 160 195 Q155 235 175 225 Q165 200 185 175 Q182 210 205 200 Q195 165 215 145 Q220 185 240 170 Q232 205 255 195 Q248 165 268 148 Q270 182 290 170 Q282 200 305 195 Q295 168 315 155 Q318 190 335 178 Q328 210 350 200 Q342 228 360 218 Q355 250 370 265" fill="url(#fire1)"/>
  <path d="M180 268 Q175 235 190 215 Q188 238 205 228 Q200 210 218 195 Q218 222 235 215 Q230 200 248 188 Q249 215 265 208 Q262 193 278 183 Q278 208 294 200 Q290 222 310 215 Q305 238 320 230 Q316 252 335 248 Q332 268 350 265" fill="url(#fire2)" opacity="0.7"/>
</svg>
