<svg xmlns="http://www.w3.org/2000/svg" viewBox="0 0 1024 1024">
  <rect x="80" y="80" width="864" height="864" rx="180" fill="#0F0500"/>
  <!-- Source file (copy) -->
  <rect x="160" y="320" width="260" height="320" rx="20" fill="#E64A19" opacity="0.7"/>
  <path d="M200 400 L380 400 M200 450 L340 450 M200 500 L360 500 M200 550 L320 550" stroke="#FF8A65" stroke-width="20" stroke-linecap="round"/>
  <!-- Copy arrow -->
  <path d="M460 512 L564 512" stroke="#FF8A65" stroke-width="32" stroke-linecap="round"/>
  <path d="M530 460 L590 512 L530 564" stroke="#FF8A65" stroke-width="32" stroke-linecap="round" stroke-linejoin="round" fill="none"/>
  <!-- Destination file (paste/renamed) -->
  <rect x="604" y="320" width="260" height="320" rx="20" fill="#FF8A65" opacity="0.9"/>
  <path d="M644 400 L824 400 M644 450 L784 450 M644 500 L800 500 M644 550 L760 550" stroke="#0F0500" stroke-width="20" stroke-linecap="round"/>
  <!-- Rename indicator: different name lines -->
  <rect x="604" y="580" width="260" height="60" rx="0 0 20 20" fill="#E64A19"/>
</svg>