<svg xmlns="http://www.w3.org/2000/svg" viewBox="0 0 1024 1024">
  <rect x="80" y="80" width="864" height="864" rx="180" ry="180" fill="#000A14"/>
  <!-- 십자가 격자 크로스워드: + 모양 격자 -->
  <!-- 배경 격자 전체 (5x5) -->
  <rect x="190" y="190" width="130" height="130" rx="6" fill="#1565C0" opacity="0.3"/>
  <rect x="330" y="190" width="130" height="130" rx="6" fill="#1565C0" opacity="0.3"/>
  <rect x="470" y="190" width="130" height="130" rx="6" fill="#1565C0" opacity="0.3"/>
  <rect x="610" y="190" width="130" height="130" rx="6" fill="#1565C0" opacity="0.3"/>
  <rect x="750" y="190" width="80" height="130" rx="6" fill="#1565C0" opacity="0.3"/>
  <rect x="190" y="330" width="130" height="130" rx="6" fill="#1565C0" opacity="0.3"/>
  <rect x="750" y="330" width="80" height="130" rx="6" fill="#1565C0" opacity="0.3"/>
  <rect x="190" y="470" width="130" height="130" rx="6" fill="#1565C0" opacity="0.3"/>
  <rect x="750" y="470" width="80" height="130" rx="6" fill="#1565C0" opacity="0.3"/>
  <rect x="190" y="610" width="130" height="130" rx="6" fill="#1565C0" opacity="0.3"/>
  <rect x="750" y="610" width="80" height="130" rx="6" fill="#1565C0" opacity="0.3"/>
  <rect x="190" y="750" width="130" height="80" rx="6" fill="#1565C0" opacity="0.3"/>
  <rect x="330" y="750" width="130" height="80" rx="6" fill="#1565C0" opacity="0.3"/>
  <rect x="470" y="750" width="130" height="80" rx="6" fill="#1565C0" opacity="0.3"/>
  <rect x="610" y="750" width="130" height="80" rx="6" fill="#1565C0" opacity="0.3"/>
  <rect x="750" y="750" width="80" height="80" rx="6" fill="#1565C0" opacity="0.3"/>
  <!-- 크로스워드 채워진 칸 (십자형) -->
  <!-- 가로 중앙 행 -->
  <rect x="190" y="470" width="130" height="130" rx="6" fill="#1565C0"/>
  <rect x="330" y="470" width="130" height="130" rx="6" fill="#1565C0"/>
  <rect x="470" y="470" width="130" height="130" rx="6" fill="#42A5F5"/>
  <rect x="610" y="470" width="130" height="130" rx="6" fill="#1565C0"/>
  <rect x="750" y="470" width="80" height="130" rx="6" fill="#1565C0"/>
  <!-- 세로 중앙 열 -->
  <rect x="470" y="190" width="130" height="130" rx="6" fill="#1565C0"/>
  <rect x="470" y="330" width="130" height="130" rx="6" fill="#1565C0"/>
  <rect x="470" y="610" width="130" height="130" rx="6" fill="#1565C0"/>
  <rect x="470" y="750" width="130" height="80" rx="6" fill="#1565C0"/>
  <!-- 번호 마커 -->
  <rect x="192" y="192" width="24" height="24" rx="3" fill="#42A5F5" opacity="0.8"/>
  <rect x="332" y="192" width="24" height="24" rx="3" fill="#42A5F5" opacity="0.8"/>
  <rect x="192" y="472" width="24" height="24" rx="3" fill="#42A5F5" opacity="0.8"/>
</svg>
