<svg xmlns="http://www.w3.org/2000/svg" viewBox="0 0 1024 1024">
  <rect x="80" y="80" width="864" height="864" rx="180" ry="180" fill="#000A14"/>
  <!-- 알파벳 블록 쌓기 -->
  <!-- 블록 1 (하단 좌) -->
  <rect x="180" y="640" width="160" height="160" rx="16" fill="#1565C0"/>
  <rect x="190" y="650" width="140" height="140" rx="10" fill="#000A14" opacity="0.25"/>
  <!-- A 표시 -->
  <polygon points="260,680 220,780 300,780" fill="none" stroke="#42A5F5" stroke-width="14" stroke-linejoin="round"/>
  <line x1="234" y1="748" x2="286" y2="748" stroke="#42A5F5" stroke-width="12"/>
  <!-- 블록 2 (하단 중) -->
  <rect x="352" y="640" width="160" height="160" rx="16" fill="#1565C0"/>
  <rect x="362" y="650" width="140" height="140" rx="10" fill="#000A14" opacity="0.25"/>
  <!-- B 표시 -->
  <path d="M400,680 L400,780 L440,780 Q475,780 475,750 Q475,730 440,725 Q475,720 475,695 Q475,680 440,680 Z" fill="none" stroke="#42A5F5" stroke-width="12" stroke-linejoin="round"/>
  <!-- 블록 3 (하단 우) -->
  <rect x="524" y="640" width="160" height="160" rx="16" fill="#1565C0"/>
  <rect x="534" y="650" width="140" height="140" rx="10" fill="#000A14" opacity="0.25"/>
  <!-- C 표시 -->
  <path d="M670,695 Q650,675 610,675 Q572,675 558,720 Q550,765 580,790 Q600,800 630,795" stroke="#42A5F5" stroke-width="14" fill="none" stroke-linecap="round"/>
  <!-- 블록 4 (하단 우우) -->
  <rect x="696" y="640" width="160" height="160" rx="16" fill="#1565C0"/>
  <!-- 블록 중단 (두 개) -->
  <rect x="266" y="468" width="160" height="160" rx="16" fill="#42A5F5" opacity="0.7"/>
  <rect x="276" y="478" width="140" height="140" rx="10" fill="#000A14" opacity="0.2"/>
  <rect x="438" y="468" width="160" height="160" rx="16" fill="#42A5F5" opacity="0.7"/>
  <rect x="448" y="478" width="140" height="140" rx="10" fill="#000A14" opacity="0.2"/>
  <!-- 블록 상단 (하나) -->
  <rect x="352" y="296" width="160" height="160" rx="16" fill="#42A5F5"/>
  <rect x="362" y="306" width="140" height="140" rx="10" fill="#000A14" opacity="0.2"/>
  <!-- 상단 별 -->
  <polygon points="432,320 444,354 480,354 452,374 462,408 432,388 402,408 412,374 384,354 420,354" fill="#1565C0"/>
</svg>
