<svg xmlns="http://www.w3.org/2000/svg" viewBox="0 0 1024 1024">
  <defs>
    <linearGradient id="bg10" x1="0%" y1="0%" x2="100%" y2="100%">
      <stop offset="0%" style="stop-color:#EC4899"/>
      <stop offset="100%" style="stop-color:#9D174D"/>
    </linearGradient>
    <linearGradient id="starGold" x1="0%" y1="0%" x2="100%" y2="100%">
      <stop offset="0%" style="stop-color:#FDE047"/>
      <stop offset="100%" style="stop-color:#F59E0B"/>
    </linearGradient>
  </defs>
  <!-- 배경 -->
  <rect width="1024" height="1024" rx="185" fill="url(#bg10)"/>

  <!-- 격자 배경 -->
  <!-- 5x5 격자: x=205, y=205, 칸크기=115 -->
  <!-- 행 0 -->
  <rect x="205" y="205" width="113" height="113" rx="7" fill="white" stroke="rgba(255,255,255,0.3)" stroke-width="4"/>
  <rect x="320" y="205" width="113" height="113" rx="7" fill="rgba(0,0,0,0.3)" stroke="rgba(255,255,255,0.2)" stroke-width="4"/>
  <rect x="435" y="205" width="113" height="113" rx="7" fill="white" stroke="rgba(255,255,255,0.3)" stroke-width="4"/>
  <rect x="550" y="205" width="113" height="113" rx="7" fill="white" stroke="rgba(255,255,255,0.3)" stroke-width="4"/>
  <rect x="665" y="205" width="113" height="113" rx="7" fill="rgba(0,0,0,0.3)" stroke="rgba(255,255,255,0.2)" stroke-width="4"/>
  <!-- 행 1 -->
  <rect x="205" y="320" width="113" height="113" rx="7" fill="white" stroke="rgba(255,255,255,0.3)" stroke-width="4"/>
  <rect x="320" y="320" width="113" height="113" rx="7" fill="white" stroke="rgba(255,255,255,0.3)" stroke-width="4"/>
  <rect x="435" y="320" width="113" height="113" rx="7" fill="rgba(0,0,0,0.3)" stroke="rgba(255,255,255,0.2)" stroke-width="4"/>
  <rect x="550" y="320" width="113" height="113" rx="7" fill="white" stroke="rgba(255,255,255,0.3)" stroke-width="4"/>
  <rect x="665" y="320" width="113" height="113" rx="7" fill="white" stroke="rgba(255,255,255,0.3)" stroke-width="4"/>
  <!-- 행 2 -->
  <rect x="205" y="435" width="113" height="113" rx="7" fill="rgba(0,0,0,0.3)" stroke="rgba(255,255,255,0.2)" stroke-width="4"/>
  <rect x="320" y="435" width="113" height="113" rx="7" fill="white" stroke="rgba(255,255,255,0.3)" stroke-width="4"/>
  <!-- 중앙 (별 위치) - 특별 강조 -->
  <rect x="435" y="435" width="113" height="113" rx="7" fill="rgba(255,255,255,0.15)" stroke="rgba(255,255,255,0.2)" stroke-width="4"/>
  <rect x="550" y="435" width="113" height="113" rx="7" fill="white" stroke="rgba(255,255,255,0.3)" stroke-width="4"/>
  <rect x="665" y="435" width="113" height="113" rx="7" fill="rgba(0,0,0,0.3)" stroke="rgba(255,255,255,0.2)" stroke-width="4"/>
  <!-- 행 3 -->
  <rect x="205" y="550" width="113" height="113" rx="7" fill="white" stroke="rgba(255,255,255,0.3)" stroke-width="4"/>
  <rect x="320" y="550" width="113" height="113" rx="7" fill="rgba(0,0,0,0.3)" stroke="rgba(255,255,255,0.2)" stroke-width="4"/>
  <rect x="435" y="550" width="113" height="113" rx="7" fill="white" stroke="rgba(255,255,255,0.3)" stroke-width="4"/>
  <rect x="550" y="550" width="113" height="113" rx="7" fill="white" stroke="rgba(255,255,255,0.3)" stroke-width="4"/>
  <rect x="665" y="550" width="113" height="113" rx="7" fill="white" stroke="rgba(255,255,255,0.3)" stroke-width="4"/>
  <!-- 행 4 -->
  <rect x="205" y="665" width="113" height="113" rx="7" fill="rgba(0,0,0,0.3)" stroke="rgba(255,255,255,0.2)" stroke-width="4"/>
  <rect x="320" y="665" width="113" height="113" rx="7" fill="white" stroke="rgba(255,255,255,0.3)" stroke-width="4"/>
  <rect x="435" y="665" width="113" height="113" rx="7" fill="white" stroke="rgba(255,255,255,0.3)" stroke-width="4"/>
  <rect x="550" y="665" width="113" height="113" rx="7" fill="rgba(0,0,0,0.3)" stroke="rgba(255,255,255,0.2)" stroke-width="4"/>
  <rect x="665" y="665" width="113" height="113" rx="7" fill="white" stroke="rgba(255,255,255,0.3)" stroke-width="4"/>

  <!-- 격자 글자들 (흐리게) -->
  <text x="261" y="290" font-family="Arial Black" font-size="76" font-weight="900" text-anchor="middle" fill="rgba(255,255,255,0.7)">P</text>
  <text x="491" y="290" font-family="Arial Black" font-size="76" font-weight="900" text-anchor="middle" fill="rgba(255,255,255,0.7)">I</text>
  <text x="606" y="290" font-family="Arial Black" font-size="76" font-weight="900" text-anchor="middle" fill="rgba(255,255,255,0.7)">N</text>
  <text x="261" y="405" font-family="Arial Black" font-size="76" font-weight="900" text-anchor="middle" fill="rgba(255,255,255,0.7)">L</text>
  <text x="376" y="405" font-family="Arial Black" font-size="76" font-weight="900" text-anchor="middle" fill="rgba(255,255,255,0.7)">O</text>
  <text x="606" y="405" font-family="Arial Black" font-size="76" font-weight="900" text-anchor="middle" fill="rgba(255,255,255,0.7)">K</text>
  <text x="721" y="405" font-family="Arial Black" font-size="76" font-weight="900" text-anchor="middle" fill="rgba(255,255,255,0.7)">E</text>
  <text x="376" y="520" font-family="Arial Black" font-size="76" font-weight="900" text-anchor="middle" fill="rgba(255,255,255,0.7)">V</text>
  <text x="606" y="520" font-family="Arial Black" font-size="76" font-weight="900" text-anchor="middle" fill="rgba(255,255,255,0.7)">A</text>
  <text x="261" y="635" font-family="Arial Black" font-size="76" font-weight="900" text-anchor="middle" fill="rgba(255,255,255,0.7)">A</text>
  <text x="491" y="635" font-family="Arial Black" font-size="76" font-weight="900" text-anchor="middle" fill="rgba(255,255,255,0.7)">E</text>
  <text x="606" y="635" font-family="Arial Black" font-size="76" font-weight="900" text-anchor="middle" fill="rgba(255,255,255,0.7)">M</text>
  <text x="721" y="635" font-family="Arial Black" font-size="76" font-weight="900" text-anchor="middle" fill="rgba(255,255,255,0.7)">S</text>
  <text x="376" y="750" font-family="Arial Black" font-size="76" font-weight="900" text-anchor="middle" fill="rgba(255,255,255,0.7)">T</text>
  <text x="491" y="750" font-family="Arial Black" font-size="76" font-weight="900" text-anchor="middle" fill="rgba(255,255,255,0.7)">O</text>
  <text x="721" y="750" font-family="Arial Black" font-size="76" font-weight="900" text-anchor="middle" fill="rgba(255,255,255,0.7)">P</text>

  <!-- 중앙 황금 별 ★ (큼직하게) -->
  <polygon points="512,380 540,454 620,454 556,502 580,576 512,528 444,576 468,502 404,454 484,454"
           fill="url(#starGold)" stroke="#B45309" stroke-width="6" stroke-linejoin="round"/>
  <!-- 별 광채 -->
  <polygon points="512,380 540,454 620,454 556,502 580,576 512,528 444,576 468,502 404,454 484,454"
           fill="none" stroke="white" stroke-width="3" stroke-linejoin="round" opacity="0.6"/>
  <!-- 별 반짝이 -->
  <circle cx="512" cy="478" r="20" fill="white" opacity="0.4"/>
</svg>
