<svg xmlns="http://www.w3.org/2000/svg" viewBox="0 0 1024 1024">
  <defs>
    <linearGradient id="bg9" x1="0%" y1="0%" x2="100%" y2="100%">
      <stop offset="0%" style="stop-color:#84CC16"/>
      <stop offset="100%" style="stop-color:#3F6212"/>
    </linearGradient>
  </defs>
  <!-- 배경 -->
  <rect width="1024" height="1024" rx="185" fill="url(#bg9)"/>

  <!-- 완성된 십자말 격자 -->
  <!-- 격자: x=210, y=210, 칸크기=120, 4x4 가시 영역 -->

  <!-- 행 0: C A T -->
  <rect x="210" y="210" width="118" height="118" rx="8" fill="white" stroke="rgba(255,255,255,0.4)" stroke-width="4"/>
  <rect x="330" y="210" width="118" height="118" rx="8" fill="white" stroke="rgba(255,255,255,0.4)" stroke-width="4"/>
  <rect x="450" y="210" width="118" height="118" rx="8" fill="white" stroke="rgba(255,255,255,0.4)" stroke-width="4"/>
  <rect x="570" y="210" width="118" height="118" rx="8" fill="rgba(0,0,0,0.35)" stroke="rgba(255,255,255,0.2)" stroke-width="4"/>
  <rect x="690" y="210" width="118" height="118" rx="8" fill="rgba(0,0,0,0.35)" stroke="rgba(255,255,255,0.2)" stroke-width="4"/>

  <text x="269" y="300" font-family="Arial Black" font-size="88" font-weight="900" text-anchor="middle" fill="#F97316">C</text>
  <text x="389" y="300" font-family="Arial Black" font-size="88" font-weight="900" text-anchor="middle" fill="#F97316">A</text>
  <text x="509" y="300" font-family="Arial Black" font-size="88" font-weight="900" text-anchor="middle" fill="#F97316">T</text>

  <!-- 행 1: A (세로 교차) -->
  <rect x="210" y="330" width="118" height="118" rx="8" fill="rgba(0,0,0,0.35)" stroke="rgba(255,255,255,0.2)" stroke-width="4"/>
  <rect x="330" y="330" width="118" height="118" rx="8" fill="white" stroke="rgba(255,255,255,0.4)" stroke-width="4"/>
  <rect x="450" y="330" width="118" height="118" rx="8" fill="rgba(0,0,0,0.35)" stroke="rgba(255,255,255,0.2)" stroke-width="4"/>
  <rect x="570" y="330" width="118" height="118" rx="8" fill="white" stroke="rgba(255,255,255,0.4)" stroke-width="4"/>
  <rect x="690" y="330" width="118" height="118" rx="8" fill="white" stroke="rgba(255,255,255,0.4)" stroke-width="4"/>

  <text x="389" y="420" font-family="Arial Black" font-size="88" font-weight="900" text-anchor="middle" fill="#2563EB">A</text>
  <text x="629" y="420" font-family="Arial Black" font-size="88" font-weight="900" text-anchor="middle" fill="#7C3AED">B</text>
  <text x="749" y="420" font-family="Arial Black" font-size="88" font-weight="900" text-anchor="middle" fill="#7C3AED">I</text>

  <!-- 행 2: D O G -->
  <rect x="210" y="450" width="118" height="118" rx="8" fill="white" stroke="rgba(255,255,255,0.4)" stroke-width="4"/>
  <rect x="330" y="450" width="118" height="118" rx="8" fill="white" stroke="rgba(255,255,255,0.4)" stroke-width="4"/>
  <rect x="450" y="450" width="118" height="118" rx="8" fill="white" stroke="rgba(255,255,255,0.4)" stroke-width="4"/>
  <rect x="570" y="450" width="118" height="118" rx="8" fill="rgba(0,0,0,0.35)" stroke="rgba(255,255,255,0.2)" stroke-width="4"/>
  <rect x="690" y="450" width="118" height="118" rx="8" fill="white" stroke="rgba(255,255,255,0.4)" stroke-width="4"/>

  <text x="269" y="540" font-family="Arial Black" font-size="88" font-weight="900" text-anchor="middle" fill="#DC2626">D</text>
  <text x="389" y="540" font-family="Arial Black" font-size="88" font-weight="900" text-anchor="middle" fill="#DC2626">O</text>
  <text x="509" y="540" font-family="Arial Black" font-size="88" font-weight="900" text-anchor="middle" fill="#DC2626">G</text>
  <text x="749" y="540" font-family="Arial Black" font-size="88" font-weight="900" text-anchor="middle" fill="#7C3AED">T</text>

  <!-- 행 3 -->
  <rect x="210" y="570" width="118" height="118" rx="8" fill="rgba(0,0,0,0.35)" stroke="rgba(255,255,255,0.2)" stroke-width="4"/>
  <rect x="330" y="570" width="118" height="118" rx="8" fill="white" stroke="rgba(255,255,255,0.4)" stroke-width="4"/>
  <rect x="450" y="570" width="118" height="118" rx="8" fill="rgba(0,0,0,0.35)" stroke="rgba(255,255,255,0.2)" stroke-width="4"/>
  <rect x="570" y="570" width="118" height="118" rx="8" fill="white" stroke="rgba(255,255,255,0.4)" stroke-width="4"/>
  <rect x="690" y="570" width="118" height="118" rx="8" fill="white" stroke="rgba(255,255,255,0.4)" stroke-width="4"/>

  <text x="389" y="660" font-family="Arial Black" font-size="88" font-weight="900" text-anchor="middle" fill="#059669">W</text>
  <text x="629" y="660" font-family="Arial Black" font-size="88" font-weight="900" text-anchor="middle" fill="#D97706">S</text>
  <text x="749" y="660" font-family="Arial Black" font-size="88" font-weight="900" text-anchor="middle" fill="#D97706">U</text>

  <!-- 행 4: B I T / 하단 -->
  <rect x="210" y="690" width="118" height="118" rx="8" fill="rgba(0,0,0,0.35)" stroke="rgba(255,255,255,0.2)" stroke-width="4"/>
  <rect x="330" y="690" width="118" height="118" rx="8" fill="white" stroke="rgba(255,255,255,0.4)" stroke-width="4"/>
  <rect x="450" y="690" width="118" height="118" rx="8" fill="white" stroke="rgba(255,255,255,0.4)" stroke-width="4"/>
  <rect x="570" y="690" width="118" height="118" rx="8" fill="white" stroke="rgba(255,255,255,0.4)" stroke-width="4"/>
  <rect x="690" y="690" width="118" height="118" rx="8" fill="rgba(0,0,0,0.35)" stroke="rgba(255,255,255,0.2)" stroke-width="4"/>

  <text x="389" y="780" font-family="Arial Black" font-size="88" font-weight="900" text-anchor="middle" fill="#059669">I</text>
  <text x="509" y="780" font-family="Arial Black" font-size="88" font-weight="900" text-anchor="middle" fill="#D97706">N</text>
  <text x="629" y="780" font-family="Arial Black" font-size="88" font-weight="900" text-anchor="middle" fill="#D97706">N</text>

  <!-- 완성 체크 배지 -->
  <circle cx="830" cy="830" r="80" fill="#FDE047" stroke="white" stroke-width="8"/>
  <text x="830" y="870" font-family="Arial Black" font-size="90" font-weight="900" text-anchor="middle" fill="#166534">✓</text>
</svg>
