<svg xmlns="http://www.w3.org/2000/svg" viewBox="0 0 1024 1024">
<rect x="80" y="80" width="864" height="864" rx="180" ry="180" fill="#0A0800"/>
<!-- 컨셉: 동기화 클라우드 -->
<!-- 클라우드 모양 -->
<path d="M 340 480 Q 280 480 256 440 Q 232 400 264 368 Q 248 344 260 312 Q 280 272 328 268 Q 344 228 384 212 Q 424 196 460 220 Q 484 196 520 196 Q 572 196 600 236 Q 640 228 668 256 Q 712 284 704 332 Q 740 348 752 384 Q 768 432 744 468 Q 720 504 672 504 Z" fill="#F9A825"/>
<!-- 동기화 원형 화살표 -->
<path d="M 392 560 Q 392 640 480 680 Q 568 720 640 680 Q 712 640 712 560" fill="none" stroke="#FFE082" stroke-width="32" stroke-linecap="round"/>
<path d="M 360 540 L 392 580 L 432 548" fill="none" stroke="#FFE082" stroke-width="28" stroke-linecap="round" stroke-linejoin="round"/>
<path d="M 744 540 L 712 580 L 672 548" fill="none" stroke="#FFE082" stroke-width="28" stroke-linecap="round" stroke-linejoin="round"/>
<!-- 메모 아이콘 (클라우드 하단) -->
<rect x="420" y="720" width="184" height="140" rx="12" fill="#1A1200" stroke="#F9A825" stroke-width="18"/>
<line x1="456" y1="770" x2="568" y2="770" stroke="#FFE082" stroke-width="16" stroke-linecap="round" opacity="0.7"/>
<line x1="456" y1="816" x2="540" y2="816" stroke="#FFE082" stroke-width="16" stroke-linecap="round" opacity="0.5"/>
<!-- 업/다운 화살표 (클라우드↔메모) -->
<line x1="512" y1="520" x2="512" y2="710" stroke="#F9A825" stroke-width="20" stroke-linecap="round" stroke-dasharray="14 10"/>
</svg>
