<svg xmlns="http://www.w3.org/2000/svg" viewBox="0 0 1024 1024">
<rect x="80" y="80" width="864" height="864" rx="180" ry="180" fill="#0A0800"/>
<!-- 컨셉: 태그 분류 -->
<!-- 메모 카드들 (겹친) -->
<rect x="260" y="260" width="500" height="350" rx="16" fill="#1A1200" stroke="#F9A825" stroke-width="20" transform="rotate(5, 510, 435)"/>
<rect x="240" y="240" width="500" height="350" rx="16" fill="#1A1200" stroke="#F9A825" stroke-width="20"/>
<!-- 태그 1 (황색) -->
<path d="M 260 260 L 390 260 L 430 300 L 390 340 L 260 340 Z" fill="#F9A825"/>
<circle cx="286" cy="300" r="14" fill="#0A0800"/>
<!-- 태그 2 (노란) -->
<path d="M 260 360 L 370 360 L 405 396 L 370 432 L 260 432 Z" fill="#FFE082" opacity="0.8"/>
<circle cx="284" cy="396" r="12" fill="#0A0800"/>
<!-- 태그 3 (어두운) -->
<path d="M 260 452 L 340 452 L 368 480 L 340 508 L 260 508 Z" fill="#F9A825" opacity="0.5"/>
<circle cx="282" cy="480" r="10" fill="#0A0800"/>
<!-- 메모 내용 (오른쪽) -->
<line x1="460" y1="300" x2="720" y2="300" stroke="#FFE082" stroke-width="18" stroke-linecap="round" opacity="0.6"/>
<line x1="460" y1="400" x2="680" y2="400" stroke="#FFE082" stroke-width="18" stroke-linecap="round" opacity="0.5"/>
<line x1="460" y1="480" x2="700" y2="480" stroke="#FFE082" stroke-width="18" stroke-linecap="round" opacity="0.4"/>
<!-- 아래 태그들 (더 많은 분류) -->
<path d="M 310 620 L 490 620 L 530 660 L 490 700 L 310 700 Z" fill="#F9A825" opacity="0.6"/>
<circle cx="336" cy="660" r="14" fill="#0A0800"/>
<path d="M 560 620 L 720 620 L 754 656 L 720 692 L 560 692 Z" fill="#FFE082" opacity="0.5"/>
<circle cx="582" cy="656" r="12" fill="#0A0800"/>
</svg>
