<svg xmlns="http://www.w3.org/2000/svg" viewBox="0 0 1024 1024">
  <rect x="80" y="80" width="864" height="864" rx="180" fill="#00080A"/>
  <!-- 위성 본체 -->
  <rect x="420" y="380" width="184" height="144" rx="20" fill="#006064"/>
  <!-- 위성 패널 (왼쪽) -->
  <rect x="200" y="400" width="220" height="100" rx="12" fill="#006064" opacity="0.7"/>
  <line x1="260" y1="400" x2="260" y2="500" stroke="#26C6DA" stroke-width="14" opacity="0.5"/>
  <line x1="320" y1="400" x2="320" y2="500" stroke="#26C6DA" stroke-width="14" opacity="0.5"/>
  <!-- 위성 패널 (오른쪽) -->
  <rect x="604" y="400" width="220" height="100" rx="12" fill="#006064" opacity="0.7"/>
  <line x1="664" y1="400" x2="664" y2="500" stroke="#26C6DA" stroke-width="14" opacity="0.5"/>
  <line x1="724" y1="400" x2="724" y2="500" stroke="#26C6DA" stroke-width="14" opacity="0.5"/>
  <!-- 안테나 -->
  <line x1="512" y1="380" x2="512" y2="280" stroke="#26C6DA" stroke-width="20" stroke-linecap="round"/>
  <circle cx="512" cy="260" r="24" fill="#26C6DA"/>
  <!-- 탐지 신호 파동 (아래쪽) -->
  <path d="M512 524 A140 140 0 0 1 652 664" fill="none" stroke="#26C6DA" stroke-width="24" stroke-linecap="round" opacity="0.6"/>
  <path d="M512 524 A200 200 0 0 1 712 724" fill="none" stroke="#26C6DA" stroke-width="16" stroke-linecap="round" opacity="0.35"/>
  <!-- 탐지 점 -->
  <circle cx="680" cy="720" r="28" fill="#26C6DA"/>
</svg>
