<svg xmlns="http://www.w3.org/2000/svg" viewBox="0 0 1024 1024">
  <rect x="80" y="80" width="864" height="864" rx="180" fill="#00080A"/>
  <!-- 안테나 기둥 -->
  <rect x="488" y="480" width="48" height="280" rx="12" fill="#006064"/>
  <!-- 안테나 상단 -->
  <line x1="512" y1="480" x2="512" y2="240" stroke="#26C6DA" stroke-width="24" stroke-linecap="round"/>
  <line x1="512" y1="320" x2="420" y2="420" stroke="#26C6DA" stroke-width="16" stroke-linecap="round" opacity="0.7"/>
  <line x1="512" y1="320" x2="604" y2="420" stroke="#26C6DA" stroke-width="16" stroke-linecap="round" opacity="0.7"/>
  <!-- 안테나 베이스 -->
  <rect x="380" y="740" width="264" height="44" rx="12" fill="#006064"/>
  <path d="M440 740 L488 480 L536 480 L584 740 Z" fill="#006064" opacity="0.6"/>
  <!-- 신호 파동 -->
  <path d="M340 380 A200 140 0 0 1 512 240" fill="none" stroke="#26C6DA" stroke-width="28" stroke-linecap="round" opacity="0.7"/>
  <path d="M684 380 A200 140 0 0 0 512 240" fill="none" stroke="#26C6DA" stroke-width="28" stroke-linecap="round" opacity="0.7"/>
  <path d="M280 450 A260 190 0 0 1 512 240" fill="none" stroke="#006064" stroke-width="20" stroke-linecap="round" opacity="0.4"/>
  <path d="M744 450 A260 190 0 0 0 512 240" fill="none" stroke="#006064" stroke-width="20" stroke-linecap="round" opacity="0.4"/>
</svg>
