<svg xmlns="http://www.w3.org/2000/svg" viewBox="0 0 1024 1024">
<rect x="80" y="80" width="864" height="864" rx="180" ry="180" fill="#0A0000"/>
<!-- 컨셉: 지우개 쓸어내기 -->
<!-- 지우개 본체 -->
<rect x="180" y="420" width="400" height="180" rx="20" fill="#C62828" transform="rotate(-15, 380, 510)"/>
<rect x="192" y="432" width="376" height="156" rx="14" fill="#EF9A9A" opacity="0.3" transform="rotate(-15, 380, 510)"/>
<!-- 지우개 하이라이트 -->
<rect x="196" y="428" width="376" height="48" rx="10" fill="#EF9A9A" opacity="0.5" transform="rotate(-15, 380, 510)"/>
<!-- 지워진 영역 표시 (흐릿한 파일들) -->
<rect x="260" y="240" width="80" height="64" rx="8" fill="#EF9A9A" opacity="0.15"/>
<rect x="380" y="220" width="72" height="58" rx="8" fill="#EF9A9A" opacity="0.10"/>
<rect x="490" y="250" width="68" height="54" rx="8" fill="#EF9A9A" opacity="0.08"/>
<!-- 지워지는 찌꺼기 -->
<circle cx="560" cy="560" r="12" fill="#EF9A9A" opacity="0.6"/>
<circle cx="590" cy="600" r="8" fill="#EF9A9A" opacity="0.5"/>
<circle cx="620" cy="575" r="10" fill="#C62828" opacity="0.7"/>
<circle cx="650" cy="620" r="7" fill="#EF9A9A" opacity="0.4"/>
<circle cx="680" cy="590" r="11" fill="#EF9A9A" opacity="0.6"/>
<!-- 이동 방향 화살표 -->
<path d="M 620 740 L 780 680" fill="none" stroke="#EF9A9A" stroke-width="24" stroke-linecap="round"/>
<path d="M 740 660 L 784 682 L 762 726" fill="none" stroke="#EF9A9A" stroke-width="24" stroke-linecap="round" stroke-linejoin="round"/>
</svg>
