<svg xmlns="http://www.w3.org/2000/svg" viewBox="0 0 1024 1024">
  <rect x="80" y="80" width="864" height="864" rx="180" fill="#0A0000"/>
  <!-- 검 -->
  <rect x="490" y="160" width="44" height="540" rx="22" fill="#EF5350"/>
  <rect x="350" y="420" width="324" height="44" rx="22" fill="#B71C1C"/>
  <polygon points="512,160 480,240 544,240" fill="#EF5350"/>
  <ellipse cx="512" cy="700" rx="32" ry="40" fill="#B71C1C"/>
  <!-- 방패 -->
  <path d="M200,300 L200,580 Q200,720 512,780 Q824,720 824,580 L824,300 Z" fill="#B71C1C" opacity="0.15"/>
  <path d="M240,320 L240,560 Q240,680 512,740 Q784,680 784,560 L784,320 Z" fill="none" stroke="#EF5350" stroke-width="20"/>
  <!-- 방패 문양 -->
  <path d="M400,400 L512,350 L624,400 L624,520 Q624,580 512,620 Q400,580 400,520 Z" fill="#B71C1C" opacity="0.4"/>
</svg>