<svg xmlns="http://www.w3.org/2000/svg" viewBox="0 0 1024 1024">
  <rect x="80" y="80" width="864" height="864" rx="180" ry="180" fill="#080005"/>
  <!-- 주파수 스펙트럼 박자: 막대 EQ -->
  <!-- EQ 막대 (12개, 비트에 맞춘 높이) -->
  <rect x="148" y="640" width="52" height="240" rx="8" fill="#9C27B0"/>
  <rect x="212" y="420" width="52" height="460" rx="8" fill="#9C27B0"/>
  <rect x="276" y="280" width="52" height="600" rx="8" fill="#CE93D8"/>
  <rect x="340" y="380" width="52" height="500" rx="8" fill="#CE93D8"/>
  <rect x="404" y="200" width="52" height="680" rx="8" fill="#CE93D8"/>
  <rect x="468" y="160" width="52" height="720" rx="8" fill="#CE93D8"/>
  <rect x="532" y="200" width="52" height="680" rx="8" fill="#CE93D8"/>
  <rect x="596" y="320" width="52" height="560" rx="8" fill="#9C27B0"/>
  <rect x="660" y="440" width="52" height="440" rx="8" fill="#9C27B0"/>
  <rect x="724" y="560" width="52" height="320" rx="8" fill="#9C27B0"/>
  <rect x="788" y="500" width="52" height="380" rx="8" fill="#9C27B0"/>
  <rect x="852" y="660" width="52" height="220" rx="8" fill="#9C27B0"/>
  <!-- 피크 마커 -->
  <rect x="276" y="264" width="52" height="10" rx="3" fill="#CE93D8"/>
  <rect x="404" y="184" width="52" height="10" rx="3" fill="#CE93D8"/>
  <rect x="468" y="144" width="52" height="10" rx="3" fill="#CE93D8"/>
  <rect x="532" y="184" width="52" height="10" rx="3" fill="#CE93D8"/>
  <!-- 기준선 -->
  <line x1="148" y1="880" x2="904" y2="880" stroke="#CE93D8" stroke-width="6" opacity="0.3"/>
</svg>
