<svg xmlns="http://www.w3.org/2000/svg" viewBox="0 0 1024 1024">
  <!-- Layer 1: 다크 청록 배경 (스캔 화면 느낌) -->
  <defs>
    <linearGradient id="bg4" x1="0%" y1="0%" x2="100%" y2="100%">
      <stop offset="0%" stop-color="#E0F2F1"/>
      <stop offset="100%" stop-color="#B2DFDB"/>
    </linearGradient>
  </defs>
  <rect width="1024" height="1024" rx="190" fill="url(#bg4)"/>
  <!-- Layer 2: 스마트폰 외형 -->
  <rect x="300" y="120" width="424" height="760" rx="56" fill="#37474F"/>
  <rect x="320" y="140" width="384" height="720" rx="44" fill="#263238"/>
  <!-- 홈 버튼 -->
  <circle cx="512" cy="820" r="36" fill="#37474F"/>
  <!-- 카메라 (상단 노치) -->
  <rect x="460" y="152" width="104" height="24" rx="12" fill="#37474F"/>
  <!-- Layer 3: QR 코드 스캔 화면 -->
  <rect x="340" y="200" width="344" height="560" rx="24" fill="#1B5E20"/>
  <!-- 스캔 영역 (밝은 QR) -->
  <rect x="376" y="264" width="272" height="272" rx="12" fill="white"/>
  <!-- 미니 QR 위치 마커 3개 -->
  <rect x="390" y="278" width="72" height="72" rx="6" fill="#1B5E20"/>
  <rect x="402" y="290" width="48" height="48" rx="4" fill="white"/>
  <rect x="414" y="302" width="24" height="24" rx="2" fill="#1B5E20"/>
  <rect x="574" y="278" width="72" height="72" rx="6" fill="#1B5E20"/>
  <rect x="586" y="290" width="48" height="48" rx="4" fill="white"/>
  <rect x="598" y="302" width="24" height="24" rx="2" fill="#1B5E20"/>
  <rect x="390" y="462" width="72" height="72" rx="6" fill="#1B5E20"/>
  <rect x="402" y="474" width="48" height="48" rx="4" fill="white"/>
  <rect x="414" y="486" width="24" height="24" rx="2" fill="#1B5E20"/>
  <!-- 데이터 도트 -->
  <rect x="480" y="278" width="20" height="20" rx="3" fill="#1B5E20"/>
  <rect x="510" y="278" width="20" height="20" rx="3" fill="#1B5E20"/>
  <rect x="540" y="278" width="20" height="20" rx="3" fill="#1B5E20"/>
  <rect x="480" y="308" width="20" height="20" rx="3" fill="#1B5E20"/>
  <rect x="540" y="308" width="20" height="20" rx="3" fill="#1B5E20"/>
  <rect x="510" y="338" width="20" height="20" rx="3" fill="#1B5E20"/>
  <rect x="480" y="368" width="20" height="20" rx="3" fill="#1B5E20"/>
  <rect x="510" y="368" width="20" height="20" rx="3" fill="#1B5E20"/>
  <rect x="574" y="380" width="20" height="20" rx="3" fill="#1B5E20"/>
  <rect x="604" y="380" width="20" height="20" rx="3" fill="#1B5E20"/>
  <rect x="574" y="410" width="20" height="20" rx="3" fill="#1B5E20"/>
  <rect x="480" y="462" width="20" height="20" rx="3" fill="#1B5E20"/>
  <rect x="574" y="462" width="20" height="20" rx="3" fill="#1B5E20"/>
  <rect x="604" y="462" width="20" height="20" rx="3" fill="#1B5E20"/>
  <rect x="480" y="492" width="20" height="20" rx="3" fill="#1B5E20"/>
  <rect x="510" y="492" width="20" height="20" rx="3" fill="#1B5E20"/>
  <!-- 스캔 레이저 라인 -->
  <rect x="376" y="400" width="272" height="8" rx="4" fill="#00E5FF" opacity="0.9"/>
  <!-- 코너 스캔 표시 -->
  <rect x="376" y="264" width="36" height="8" rx="4" fill="#00E5FF"/>
  <rect x="376" y="264" width="8" height="36" rx="4" fill="#00E5FF"/>
  <rect x="612" y="264" width="36" height="8" rx="4" fill="#00E5FF"/>
  <rect x="640" y="264" width="8" height="36" rx="4" fill="#00E5FF"/>
  <rect x="376" y="528" width="36" height="8" rx="4" fill="#00E5FF"/>
  <rect x="376" y="500" width="8" height="36" rx="4" fill="#00E5FF"/>
  <rect x="612" y="528" width="36" height="8" rx="4" fill="#00E5FF"/>
  <rect x="640" y="500" width="8" height="36" rx="4" fill="#00E5FF"/>
  <!-- 하단 상태 텍스트 -->
  <text x="512" y="620" font-family="'Consolas', monospace" font-size="36" fill="#69F0AE" text-anchor="middle">SCANNING...</text>
  <rect x="388" y="650" width="248" height="60" rx="16" fill="#00897B"/>
  <text x="512" y="689" font-family="'Consolas', monospace" font-size="36" fill="white" text-anchor="middle" font-weight="700">QR READY</text>
</svg>
