<svg xmlns="http://www.w3.org/2000/svg" viewBox="0 0 1024 1024">
  <rect x="80" y="80" width="864" height="864" rx="180" ry="180" fill="#020A02"/>
  <!-- 깃털 펜 정의 작성 -->
  <path d="M700 200 Q820 240 780 400 Q760 480 640 540 L380 780 L320 820 L340 750 L560 520 Q420 480 380 380 Q340 260 700 200 Z" fill="#1B5E20"/>
  <path d="M700 200 Q820 240 780 400 Q760 480 640 540" fill="none" stroke="#66BB6A" stroke-width="18" stroke-linecap="round"/>
  <path d="M560 520 Q500 460 460 400 Q420 340 480 280" fill="none" stroke="#66BB6A" stroke-width="14" stroke-linecap="round" opacity="0.6"/>
  <path d="M340 750 L200 810" stroke="#66BB6A" stroke-width="20" stroke-linecap="round"/>
  <!-- 기록 라인들 -->
  <line x1="200" y1="680" x2="420" y2="680" stroke="#1B5E20" stroke-width="16" stroke-linecap="round"/>
  <line x1="200" y1="720" x2="380" y2="720" stroke="#1B5E20" stroke-width="14" stroke-linecap="round" opacity="0.6"/>
</svg>
