<svg xmlns="http://www.w3.org/2000/svg" viewBox="0 0 1024 1024">
  <rect x="80" y="80" width="864" height="864" rx="180" ry="180" fill="#020A02"/>
  <!-- A→B 변환 화살표 -->
  <!-- A 블록 -->
  <rect x="160" y="360" width="240" height="240" rx="28" fill="#1B5E20"/>
  <!-- A 글자 경로 -->
  <path d="M220 540 L280 400 L340 540 M240 490 L320 490" fill="none" stroke="#66BB6A" stroke-width="28" stroke-linecap="round" stroke-linejoin="round"/>
  <!-- 화살표 -->
  <path d="M430 512 L594 512" stroke="#66BB6A" stroke-width="32" stroke-linecap="round"/>
  <path d="M560 478 L594 512 L560 546" fill="none" stroke="#66BB6A" stroke-width="32" stroke-linecap="round" stroke-linejoin="round"/>
  <!-- B 블록 -->
  <rect x="624" y="360" width="240" height="240" rx="28" fill="#66BB6A" opacity="0.7"/>
  <!-- B 글자 경로 -->
  <path d="M690 400 L690 540 M690 400 Q800 400 800 450 Q800 500 690 500 Q800 500 800 555 Q800 610 690 610 L690 540" fill="none" stroke="#020A02" stroke-width="26" stroke-linecap="round" stroke-linejoin="round"/>
</svg>
