<svg xmlns="http://www.w3.org/2000/svg" viewBox="0 0 1024 1024">
  <rect x="80" y="80" width="864" height="864" rx="180" fill="#000A0F"/>
  <!-- 경보 종 -->
  <path d="M512 220 Q680 280 720 500 L720 580 L304 580 L304 500 Q344 280 512 220 Z" fill="#01579B"/>
  <rect x="304" y="560" width="416" height="48" rx="8" fill="#4FC3F7" opacity="0.6"/>
  <!-- 종 손잡이 -->
  <rect x="476" y="180" width="72" height="60" rx="20" fill="#01579B"/>
  <!-- 종 클래퍼 -->
  <circle cx="512" cy="620" r="44" fill="#01579B"/>
  <line x1="512" y1="580" x2="512" y2="620" stroke="#4FC3F7" stroke-width="20" stroke-linecap="round"/>
  <!-- 경보 파동 -->
  <path d="M240 360 A300 240 0 0 1 512 220" fill="none" stroke="#4FC3F7" stroke-width="24" stroke-linecap="round" opacity="0.5"/>
  <path d="M784 360 A300 240 0 0 0 512 220" fill="none" stroke="#4FC3F7" stroke-width="24" stroke-linecap="round" opacity="0.5"/>
  <!-- 포트 뱃지 -->
  <circle cx="720" cy="220" r="60" fill="#4FC3F7"/>
  <circle cx="720" cy="220" r="36" fill="#000A0F"/>
  <circle cx="720" cy="220" r="18" fill="#4FC3F7"/>
</svg>
