<svg xmlns="http://www.w3.org/2000/svg" viewBox="0 0 1024 1024">
  <defs>
    <linearGradient id="bg_lg09" x1="0" y1="0" x2="0" y2="1">
      <stop offset="0%" stop-color="#FDF4FF"/>
      <stop offset="100%" stop-color="#FAE8FF"/>
    </linearGradient>
  </defs>
  <!-- 배경 -->
  <rect width="1024" height="1024" rx="185" fill="url(#bg_lg09)"/>
  <!-- 4개 새싹 2×2 배치 -->
  <!-- 새싹 1 (좌상) -->
  <!-- 흙 -->
  <ellipse cx="322" cy="470" rx="115" ry="32" fill="#92400E"/>
  <ellipse cx="322" cy="464" rx="100" ry="24" fill="#A16207" opacity="0.7"/>
  <!-- 줄기 -->
  <line x1="322" y1="465" x2="322" y2="330" stroke="#16A34A" stroke-width="22" stroke-linecap="round"/>
  <!-- 잎 왼 -->
  <path d="M 322,380 Q 256,355 238,308 Q 274,308 322,340" fill="#4ADE80" stroke="#22C55E" stroke-width="10"/>
  <path d="M 266,338 Q 252,328 244,316" fill="none" stroke="#22C55E" stroke-width="5" stroke-linecap="round"/>
  <!-- 잎 오른 -->
  <path d="M 322,355 Q 388,330 406,283 Q 370,283 322,315" fill="#22C55E" stroke="#16A34A" stroke-width="10"/>
  <path d="M 378,318 Q 392,308 400,296" fill="none" stroke="#16A34A" stroke-width="5" stroke-linecap="round"/>
  <!-- 꼭대기 새잎 -->
  <ellipse cx="322" cy="310" rx="32" ry="20" fill="#86EFAC" stroke="#4ADE80" stroke-width="8"/>
  <!-- 새싹 2 (우상) -->
  <ellipse cx="702" cy="470" rx="115" ry="32" fill="#92400E"/>
  <ellipse cx="702" cy="464" rx="100" ry="24" fill="#A16207" opacity="0.7"/>
  <line x1="702" y1="465" x2="702" y2="330" stroke="#16A34A" stroke-width="22" stroke-linecap="round"/>
  <path d="M 702,380 Q 636,355 618,308 Q 654,308 702,340" fill="#4ADE80" stroke="#22C55E" stroke-width="10"/>
  <path d="M 702,355 Q 768,330 786,283 Q 750,283 702,315" fill="#22C55E" stroke="#16A34A" stroke-width="10"/>
  <ellipse cx="702" cy="310" rx="32" ry="20" fill="#86EFAC" stroke="#4ADE80" stroke-width="8"/>
  <!-- 새싹 3 (좌하) -->
  <ellipse cx="322" cy="810" rx="115" ry="32" fill="#92400E"/>
  <ellipse cx="322" cy="804" rx="100" ry="24" fill="#A16207" opacity="0.7"/>
  <line x1="322" y1="805" x2="322" y2="670" stroke="#16A34A" stroke-width="22" stroke-linecap="round"/>
  <path d="M 322,720 Q 256,695 238,648 Q 274,648 322,680" fill="#4ADE80" stroke="#22C55E" stroke-width="10"/>
  <path d="M 322,695 Q 388,670 406,623 Q 370,623 322,655" fill="#22C55E" stroke="#16A34A" stroke-width="10"/>
  <ellipse cx="322" cy="650" rx="32" ry="20" fill="#86EFAC" stroke="#4ADE80" stroke-width="8"/>
  <!-- 새싹 4 (우하) -->
  <ellipse cx="702" cy="810" rx="115" ry="32" fill="#92400E"/>
  <ellipse cx="702" cy="804" rx="100" ry="24" fill="#A16207" opacity="0.7"/>
  <line x1="702" y1="805" x2="702" y2="670" stroke="#16A34A" stroke-width="22" stroke-linecap="round"/>
  <path d="M 702,720 Q 636,695 618,648 Q 654,648 702,680" fill="#4ADE80" stroke="#22C55E" stroke-width="10"/>
  <path d="M 702,695 Q 768,670 786,623 Q 750,623 702,655" fill="#22C55E" stroke="#16A34A" stroke-width="10"/>
  <ellipse cx="702" cy="650" rx="32" ry="20" fill="#86EFAC" stroke="#4ADE80" stroke-width="8"/>
  <!-- 분홍 꽃 1개 (중앙) -->
  <!-- 꽃받침 -->
  <line x1="512" y1="640" x2="512" y2="540" stroke="#22C55E" stroke-width="16" stroke-linecap="round"/>
  <ellipse cx="490" cy="580" rx="28" ry="16" fill="#4ADE80" transform="rotate(-30 490 580)"/>
  <ellipse cx="534" cy="575" rx="26" ry="15" fill="#4ADE80" transform="rotate(30 534 575)"/>
  <!-- 꽃잎들 -->
  <ellipse cx="512" cy="490" rx="32" ry="50" fill="#F9A8D4" stroke="#EC4899" stroke-width="8"/>
  <ellipse cx="512" cy="490" rx="32" ry="50" fill="#F9A8D4" stroke="#EC4899" stroke-width="8" transform="rotate(60 512 490)"/>
  <ellipse cx="512" cy="490" rx="32" ry="50" fill="#F9A8D4" stroke="#EC4899" stroke-width="8" transform="rotate(120 512 490)"/>
  <ellipse cx="512" cy="490" rx="32" ry="50" fill="#FBCFE8" stroke="#F472B6" stroke-width="7" transform="rotate(30 512 490)"/>
  <ellipse cx="512" cy="490" rx="32" ry="50" fill="#FBCFE8" stroke="#F472B6" stroke-width="7" transform="rotate(90 512 490)"/>
  <ellipse cx="512" cy="490" rx="32" ry="50" fill="#FBCFE8" stroke="#F472B6" stroke-width="7" transform="rotate(150 512 490)"/>
  <!-- 꽃 중심 -->
  <circle cx="512" cy="490" r="32" fill="#FDE047" stroke="#F59E0B" stroke-width="8"/>
  <circle cx="505" cy="483" r="20" fill="#FBBF24" opacity="0.6"/>
  <!-- 꽃 중심 얼굴 -->
  <circle cx="506" cy="486" r="5" fill="#78350F"/>
  <circle cx="518" cy="486" r="5" fill="#78350F"/>
  <path d="M 507,497 Q 512,502 517,497" fill="none" stroke="#78350F" stroke-width="4" stroke-linecap="round"/>
  <!-- 반짝임들 -->
  <path d="M 200,220 L 210,238 L 220,220 L 210,238" stroke="#EC4899" stroke-width="8" stroke-linecap="round" opacity="0.6"/>
  <path d="M 820,300 L 830,318 L 840,300 L 830,318" stroke="#EC4899" stroke-width="8" stroke-linecap="round" opacity="0.6"/>
  <path d="M 780,750 L 790,768 L 800,750 L 790,768" stroke="#4ADE80" stroke-width="8" stroke-linecap="round" opacity="0.6"/>
</svg>
