<svg xmlns="http://www.w3.org/2000/svg" viewBox="0 0 512 512">
  <defs>
    <linearGradient id="bg" x1="0%" y1="0%" x2="0%" y2="100%">
      <stop offset="0%" style="stop-color:#2d2d2d"/>
      <stop offset="100%" style="stop-color:#111111"/>
    </linearGradient>
    <linearGradient id="knob" x1="0%" y1="0%" x2="100%" y2="100%">
      <stop offset="0%" style="stop-color:#555555"/>
      <stop offset="100%" style="stop-color:#222222"/>
    </linearGradient>
  </defs>
  <rect width="512" height="512" rx="80" fill="url(#bg)"/>
  <rect x="60" y="80" width="392" height="352" rx="16" fill="#1a1a1a" stroke="#444" stroke-width="2"/>
  <!-- Faders -->
  <rect x="90" y="120" width="20" height="240" rx="4" fill="#333"/>
  <rect x="90" y="200" width="20" height="40" rx="4" fill="#ff6b35"/>
  <rect x="150" y="120" width="20" height="240" rx="4" fill="#333"/>
  <rect x="150" y="160" width="20" height="40" rx="4" fill="#4ecdc4"/>
  <rect x="210" y="120" width="20" height="240" rx="4" fill="#333"/>
  <rect x="210" y="220" width="20" height="40" rx="4" fill="#ffe66d"/>
  <rect x="270" y="120" width="20" height="240" rx="4" fill="#333"/>
  <rect x="270" y="180" width="20" height="40" rx="4" fill="#a8e6cf"/>
  <rect x="330" y="120" width="20" height="240" rx="4" fill="#333"/>
  <rect x="330" y="240" width="20" height="40" rx="4" fill="#ff8b94"/>
  <rect x="390" y="120" width="20" height="240" rx="4" fill="#333"/>
  <rect x="390" y="195" width="20" height="40" rx="4" fill="#c3b1e1"/>
  <!-- Knobs -->
  <circle cx="100" cy="390" r="16" fill="url(#knob)" stroke="#666" stroke-width="2"/>
  <circle cx="160" cy="390" r="16" fill="url(#knob)" stroke="#666" stroke-width="2"/>
  <circle cx="220" cy="390" r="16" fill="url(#knob)" stroke="#666" stroke-width="2"/>
  <circle cx="280" cy="390" r="16" fill="url(#knob)" stroke="#666" stroke-width="2"/>
  <circle cx="340" cy="390" r="16" fill="url(#knob)" stroke="#666" stroke-width="2"/>
  <circle cx="400" cy="390" r="16" fill="url(#knob)" stroke="#666" stroke-width="2"/>
</svg>