<svg xmlns="http://www.w3.org/2000/svg" viewBox="0 0 512 512">
  <defs>
    <linearGradient id="bg" x1="0%" y1="0%" x2="100%" y2="100%">
      <stop offset="0%" style="stop-color:#2b1155"/>
      <stop offset="100%" style="stop-color:#110033"/>
    </linearGradient>
  </defs>
  <rect width="512" height="512" rx="80" fill="url(#bg)"/>
  <!-- Pixel art style sound icon -->
  <!-- Speaker body - pixel blocks -->
  <rect x="140" y="196" width="40" height="120" rx="0" fill="#cc44ff"/>
  <rect x="180" y="176" width="40" height="160" rx="0" fill="#cc44ff"/>
  <rect x="220" y="156" width="40" height="200" rx="0" fill="#dd66ff"/>
  <rect x="260" y="176" width="40" height="160" rx="0" fill="#cc44ff"/>
  <rect x="300" y="196" width="40" height="120" rx="0" fill="#cc44ff"/>
  <!-- Sound waves - pixel style -->
  <rect x="356" y="176" width="16" height="160" rx="0" fill="#ff88ff" opacity="0.6"/>
  <rect x="384" y="156" width="16" height="200" rx="0" fill="#ff88ff" opacity="0.4"/>
  <rect x="412" y="136" width="16" height="240" rx="0" fill="#ff88ff" opacity="0.2"/>
  <!-- Base line -->
  <rect x="100" y="388" width="312" height="16" rx="0" fill="#9900cc"/>
  <!-- Pixel dots decoration -->
  <rect x="100" y="96" width="16" height="16" fill="#ff44ff"/>
  <rect x="132" y="96" width="16" height="16" fill="#cc44ff"/>
  <rect x="164" y="80" width="16" height="16" fill="#ff44ff"/>
  <rect x="396" y="96" width="16" height="16" fill="#ff44ff"/>
</svg>