<svg xmlns="http://www.w3.org/2000/svg" viewBox="0 0 1024 1024">
  <defs>
    <linearGradient id="bg09" x1="0%" y1="0%" x2="100%" y2="100%">
      <stop offset="0%" style="stop-color:#65A30D"/>
      <stop offset="100%" style="stop-color:#4D7C0F"/>
    </linearGradient>
  </defs>
  <!-- Background -->
  <rect width="1024" height="1024" rx="185" fill="url(#bg09)"/>
  <!-- Left: image icon -->
  <rect x="140" y="340" width="280" height="220" rx="18" fill="#FFFFFF" opacity="0.95"/>
  <!-- Mountain landscape in image -->
  <rect x="155" y="355" width="250" height="190" rx="10" fill="#BAE6FD"/>
  <polygon points="165,530 280,400 395,530" fill="#22C55E"/>
  <polygon points="250,530 340,430 430,530" fill="#16A34A"/>
  <circle cx="380" cy="390" r="25" fill="#FEF3C7"/>
  <!-- Image icon corner marks -->
  <!-- Arrow -->
  <polygon points="466,455 594,480 466,505" fill="#FFFFFF"/>
  <rect x="420" y="474" width="158" height="12" rx="6" fill="#FFFFFF"/>
  <!-- Right: text/ASCII block -->
  <rect x="610" y="320" width="280" height="260" rx="18" fill="#FFFFFF" opacity="0.15"/>
  <text x="628" y="396" font-family="monospace" font-size="44" font-weight="900" fill="#FFFFFF">@#$%</text>
  <text x="628" y="446" font-family="monospace" font-size="44" font-weight="900" fill="rgba(255,255,255,0.85)">@#$.</text>
  <text x="628" y="496" font-family="monospace" font-size="44" font-weight="900" fill="rgba(255,255,255,0.70)">@# .</text>
  <text x="628" y="546" font-family="monospace" font-size="44" font-weight="900" fill="rgba(255,255,255,0.55)">@  .</text>
  <!-- Labels -->
  <text x="280" y="618" text-anchor="middle" font-family="'Segoe UI', sans-serif" font-size="36" font-weight="700" fill="rgba(255,255,255,0.7)">Image</text>
  <text x="750" y="636" text-anchor="middle" font-family="monospace" font-size="36" font-weight="700" fill="rgba(255,255,255,0.7)">ASCII</text>
</svg>
