<svg xmlns="http://www.w3.org/2000/svg" viewBox="0 0 512 512">
  <defs>
    <linearGradient id="bg" x1="0%" y1="0%" x2="100%" y2="100%">
      <stop offset="0%" stop-color="#1B5E20"/>
      <stop offset="100%" stop-color="#2E7D32"/>
    </linearGradient>
  </defs>
  <rect width="512" height="512" rx="80" fill="url(#bg)"/>
  <!-- 왼쪽 패널 -->
  <rect x="40" y="80" width="200" height="360" rx="12" fill="#0D3B11"/>
  <text x="140" y="110" font-size="14" text-anchor="middle" fill="#A5D6A7" font-family="Segoe UI">Input</text>
  <rect x="55" y="125" width="170" height="10" rx="5" fill="#2E7D32"/>
  <rect x="55" y="143" width="150" height="10" rx="5" fill="#388E3C" opacity="0.8"/>
  <rect x="55" y="161" width="130" height="10" rx="5" fill="#43A047" opacity="0.7"/>
  <rect x="55" y="179" width="160" height="10" rx="5" fill="#2E7D32"/>
  <rect x="55" y="197" width="120" height="10" rx="5" fill="#388E3C" opacity="0.8"/>
  <rect x="55" y="215" width="170" height="10" rx="5" fill="#43A047" opacity="0.6"/>
  <!-- 화살표 (포맷) -->
  <rect x="250" y="225" width="12" height="60" rx="6" fill="#66BB6A" transform="rotate(90 250 255)"/>
  <polygon points="240,255 256,235 272,255" fill="#A5D6A7"/>
  <!-- 오른쪽 패널 (포맷됨) -->
  <rect x="270" y="80" width="200" height="360" rx="12" fill="#0D3B11"/>
  <text x="370" y="110" font-size="14" text-anchor="middle" fill="#A5D6A7" font-family="Segoe UI">Formatted</text>
  <!-- 들여쓰기 적용 라인들 -->
  <rect x="285" y="125" width="60" height="10" rx="5" fill="#81C784"/>
  <rect x="305" y="143" width="130" height="10" rx="5" fill="#4CAF50"/>
  <rect x="325" y="161" width="100" height="10" rx="5" fill="#66BB6A"/>
  <rect x="325" y="179" width="90" height="10" rx="5" fill="#66BB6A"/>
  <rect x="305" y="197" width="120" height="10" rx="5" fill="#4CAF50"/>
  <rect x="285" y="215" width="70" height="10" rx="5" fill="#81C784"/>
  <rect x="305" y="233" width="130" height="10" rx="5" fill="#4CAF50"/>
  <rect x="325" y="251" width="95" height="10" rx="5" fill="#66BB6A"/>
  <rect x="305" y="269" width="110" height="10" rx="5" fill="#4CAF50"/>
  <rect x="285" y="287" width="60" height="10" rx="5" fill="#81C784"/>
</svg>