<svg xmlns="http://www.w3.org/2000/svg" viewBox="0 0 512 512">
  <defs>
    <linearGradient id="bg" x1="0" y1="0" x2="1" y2="1">
      <stop offset="0%" stop-color="#1b2838"/>
      <stop offset="100%" stop-color="#2a3a4a"/>
    </linearGradient>
    <linearGradient id="ruler" x1="0" y1="0" x2="0" y2="1">
      <stop offset="0%" stop-color="#4a6741"/>
      <stop offset="100%" stop-color="#2d4028"/>
    </linearGradient>
  </defs>
  <rect width="512" height="512" rx="80" fill="url(#bg)"/>
  <!-- Left ruler (indent guide) -->
  <rect x="60" y="70" width="28" height="372" rx="8" fill="url(#ruler)"/>
  <!-- Ruler tick marks -->
  <line x1="76" y1="100" x2="88" y2="100" stroke="#8bc34a" stroke-width="2"/>
  <line x1="76" y1="126" x2="88" y2="126" stroke="#8bc34a" stroke-width="2"/>
  <line x1="76" y1="152" x2="88" y2="152" stroke="#8bc34a" stroke-width="2"/>
  <line x1="76" y1="178" x2="88" y2="178" stroke="#8bc34a" stroke-width="2"/>
  <line x1="76" y1="204" x2="88" y2="204" stroke="#8bc34a" stroke-width="2"/>
  <line x1="76" y1="230" x2="88" y2="230" stroke="#8bc34a" stroke-width="2"/>
  <line x1="76" y1="256" x2="88" y2="256" stroke="#8bc34a" stroke-width="2"/>
  <line x1="76" y1="282" x2="88" y2="282" stroke="#8bc34a" stroke-width="2"/>
  <line x1="76" y1="308" x2="88" y2="308" stroke="#8bc34a" stroke-width="2"/>
  <line x1="76" y1="334" x2="88" y2="334" stroke="#8bc34a" stroke-width="2"/>
  <line x1="76" y1="360" x2="88" y2="360" stroke="#8bc34a" stroke-width="2"/>
  <!-- Indent lines (vertical dotted guides) -->
  <line x1="116" y1="90" x2="116" y2="420" stroke="#3a5a6a" stroke-width="1.5" stroke-dasharray="4,4"/>
  <line x1="152" y1="130" x2="152" y2="380" stroke="#3a5a6a" stroke-width="1.5" stroke-dasharray="4,4"/>
  <line x1="188" y1="170" x2="188" y2="340" stroke="#3a5a6a" stroke-width="1.5" stroke-dasharray="4,4"/>
  <!-- JSON code lines -->
  <text x="100" y="108" font-family="monospace" font-size="14" fill="#f7d774">{</text>
  <text x="124" y="134" font-family="monospace" font-size="14" fill="#79c0ff">"id"</text>
  <text x="164" y="134" font-family="monospace" font-size="14" fill="#e6edf3">: </text>
  <text x="178" y="134" font-family="monospace" font-size="14" fill="#f0883e">42</text>
  <text x="124" y="160" font-family="monospace" font-size="14" fill="#79c0ff">"data"</text>
  <text x="178" y="160" font-family="monospace" font-size="14" fill="#e6edf3">: {</text>
  <text x="160" y="186" font-family="monospace" font-size="14" fill="#79c0ff">"x"</text>
  <text x="186" y="186" font-family="monospace" font-size="14" fill="#e6edf3">: </text>
  <text x="200" y="186" font-family="monospace" font-size="14" fill="#56d364">true</text>
  <text x="160" y="212" font-family="monospace" font-size="14" fill="#79c0ff">"y"</text>
  <text x="186" y="212" font-family="monospace" font-size="14" fill="#e6edf3">: </text>
  <text x="200" y="212" font-family="monospace" font-size="14" fill="#ff7eb6">null</text>
  <text x="124" y="238" font-family="monospace" font-size="14" fill="#f7d774">}</text>
  <text x="124" y="264" font-family="monospace" font-size="14" fill="#79c0ff">"tags"</text>
  <text x="178" y="264" font-family="monospace" font-size="14" fill="#e6edf3">: [</text>
  <text x="160" y="290" font-family="monospace" font-size="14" fill="#a5d6ff">"fmt"</text>
  <text x="124" y="316" font-family="monospace" font-size="14" fill="#f7d774">]</text>
  <text x="100" y="342" font-family="monospace" font-size="14" fill="#f7d774">}</text>
</svg>
