<svg xmlns="http://www.w3.org/2000/svg" viewBox="0 0 1024 1024">
  <rect x="80" y="80" width="864" height="864" rx="180" ry="180" fill="#050010"/>
  <!-- 황금열쇠 발견 -->
  <!-- 빛 방사 (발견의 순간) -->
  <circle cx="512" cy="512" r="300" fill="#4527A0" opacity="0.2"/>
  <line x1="512" y1="212" x2="512" y2="150" stroke="#CE93D8" stroke-width="10" opacity="0.5" stroke-linecap="round"/>
  <line x1="636" y1="248" x2="668" y2="194" stroke="#CE93D8" stroke-width="10" opacity="0.5" stroke-linecap="round"/>
  <line x1="740" y1="336" x2="782" y2="296" stroke="#CE93D8" stroke-width="10" opacity="0.5" stroke-linecap="round"/>
  <line x1="776" y1="460" x2="838" y2="446" stroke="#CE93D8" stroke-width="10" opacity="0.5" stroke-linecap="round"/>
  <line x1="388" y1="248" x2="356" y2="194" stroke="#CE93D8" stroke-width="10" opacity="0.5" stroke-linecap="round"/>
  <line x1="284" y1="336" x2="242" y2="296" stroke="#CE93D8" stroke-width="10" opacity="0.5" stroke-linecap="round"/>
  <line x1="248" y1="460" x2="186" y2="446" stroke="#CE93D8" stroke-width="10" opacity="0.5" stroke-linecap="round"/>
  <!-- 열쇠 몸체 (크게) -->
  <circle cx="420" cy="440" r="130" fill="#CE93D8" opacity="0.85"/>
  <circle cx="420" cy="440" r="95" fill="#050010"/>
  <circle cx="420" cy="440" r="95" fill="#4527A0" opacity="0.5"/>
  <!-- 열쇠 손잡이 원형 세부 -->
  <circle cx="420" cy="440" r="55" fill="#CE93D8" opacity="0.5"/>
  <!-- 열쇠 봉 -->
  <rect x="550" y="422" width="260" height="36" rx="10" fill="#CE93D8" opacity="0.85"/>
  <!-- 열쇠 이빨 -->
  <rect x="710" y="458" width="36" height="50" rx="6" fill="#CE93D8" opacity="0.85"/>
  <rect x="760" y="458" width="30" height="40" rx="6" fill="#CE93D8" opacity="0.85"/>
  <!-- 열쇠 구멍 -->
  <circle cx="420" cy="440" r="22" fill="#050010"/>
  <!-- 별 반짝임 -->
  <polygon points="680,250 690,278 718,278 696,295 704,324 680,307 656,324 664,295 642,278 670,278" fill="#CE93D8" opacity="0.7"/>
  <polygon points="790,420 797,440 818,440 800,452 806,472 790,461 774,472 780,452 762,440 783,440" fill="#CE93D8" opacity="0.5"/>
</svg>
