<svg xmlns="http://www.w3.org/2000/svg" viewBox="0 0 1024 1024">
  <rect x="80" y="80" width="864" height="864" rx="180" ry="180" fill="#050010"/>
  <!-- 수수께끼 물음표 + 열쇠 -->
  <!-- 큰 물음표 -->
  <path d="M400,280 Q400,180 512,180 Q640,180 640,300 Q640,400 512,430 L512,560" stroke="#4527A0" stroke-width="70" fill="none" stroke-linecap="round" stroke-linejoin="round"/>
  <circle cx="512" cy="640" r="46" fill="#4527A0"/>
  <!-- 물음표 내부 (밝은 색) -->
  <path d="M420,290 Q420,200 512,200 Q610,200 610,305 Q610,390 512,418 L512,540" stroke="#CE93D8" stroke-width="36" fill="none" stroke-linecap="round" stroke-linejoin="round"/>
  <circle cx="512" cy="640" r="28" fill="#CE93D8"/>
  <!-- 열쇠 (작은, 우하단) -->
  <circle cx="750" cy="780" r="56" fill="none" stroke="#CE93D8" stroke-width="18"/>
  <circle cx="750" cy="780" r="28" fill="#CE93D8" opacity="0.3"/>
  <rect x="806" y="768" width="130" height="24" rx="6" fill="#CE93D8"/>
  <rect x="880" y="792" width="24" height="32" rx="4" fill="#CE93D8"/>
  <rect x="912" y="792" width="20" height="26" rx="4" fill="#CE93D8"/>
  <circle cx="750" cy="780" r="16" fill="#050010"/>
  <!-- 빛 방사 -->
  <line x1="512" y1="150" x2="512" y2="110" stroke="#CE93D8" stroke-width="8" opacity="0.4" stroke-linecap="round"/>
  <line x1="590" y1="170" x2="614" y2="138" stroke="#CE93D8" stroke-width="8" opacity="0.4" stroke-linecap="round"/>
  <line x1="434" y1="170" x2="410" y2="138" stroke="#CE93D8" stroke-width="8" opacity="0.4" stroke-linecap="round"/>
</svg>
