<svg xmlns="http://www.w3.org/2000/svg" viewBox="0 0 1024 1024">
  <rect x="80" y="80" width="864" height="864" rx="180" ry="180" fill="#050010"/>
  <!-- QR코드 미스터리 -->
  <!-- QR 외부 테두리 -->
  <rect x="200" y="200" width="624" height="624" rx="16" fill="none" stroke="#4527A0" stroke-width="12"/>
  <!-- 좌상 위치 마커 -->
  <rect x="224" y="224" width="160" height="160" rx="8" fill="#4527A0"/>
  <rect x="244" y="244" width="120" height="120" rx="4" fill="#050010"/>
  <rect x="264" y="264" width="80" height="80" rx="2" fill="#4527A0"/>
  <!-- 우상 위치 마커 -->
  <rect x="640" y="224" width="160" height="160" rx="8" fill="#4527A0"/>
  <rect x="660" y="244" width="120" height="120" rx="4" fill="#050010"/>
  <rect x="680" y="264" width="80" height="80" rx="2" fill="#4527A0"/>
  <!-- 좌하 위치 마커 -->
  <rect x="224" y="640" width="160" height="160" rx="8" fill="#4527A0"/>
  <rect x="244" y="660" width="120" height="120" rx="4" fill="#050010"/>
  <rect x="264" y="680" width="80" height="80" rx="2" fill="#4527A0"/>
  <!-- 중앙 데이터 셀 (랜덤 패턴) -->
  <rect x="430" y="224" width="184" height="24" rx="2" fill="#4527A0" opacity="0.6"/>
  <rect x="430" y="258" width="80" height="24" rx="2" fill="#CE93D8" opacity="0.8"/>
  <rect x="560" y="258" width="54" height="24" rx="2" fill="#4527A0" opacity="0.6"/>
  <rect x="430" y="292" width="140" height="24" rx="2" fill="#4527A0" opacity="0.6"/>
  <!-- 우하 데이터 -->
  <rect x="430" y="640" width="80" height="24" rx="2" fill="#CE93D8" opacity="0.8"/>
  <rect x="560" y="640" width="54" height="24" rx="2" fill="#4527A0" opacity="0.6"/>
  <rect x="430" y="674" width="184" height="24" rx="2" fill="#4527A0" opacity="0.6"/>
  <rect x="430" y="708" width="100" height="24" rx="2" fill="#CE93D8" opacity="0.8"/>
  <!-- 중앙 물음표 (미스터리) -->
  <circle cx="570" cy="530" r="90" fill="#4527A0" opacity="0.6"/>
  <circle cx="570" cy="530" r="90" fill="none" stroke="#CE93D8" stroke-width="6"/>
  <!-- 물음표 기호 -->
  <path d="M545,490 Q545,450 570,450 Q600,450 600,475 Q600,500 570,510 L570,530" stroke="#CE93D8" stroke-width="20" fill="none" stroke-linecap="round"/>
  <circle cx="570" cy="555" r="12" fill="#CE93D8"/>
</svg>
