<svg xmlns="http://www.w3.org/2000/svg" viewBox="0 0 512 512">
  <defs>
    <linearGradient id="bg" x1="0%" y1="0%" x2="0%" y2="100%">
      <stop offset="0%" stop-color="#0D1B2A"/>
      <stop offset="100%" stop-color="#1B2A3B"/>
    </linearGradient>
    <radialGradient id="moon" cx="50%" cy="50%" r="50%">
      <stop offset="0%" stop-color="#FFF9C4"/>
      <stop offset="100%" stop-color="#FDD835"/>
    </radialGradient>
  </defs>
  <rect width="512" height="512" rx="80" fill="url(#bg)"/>
  <!-- Stars -->
  <circle cx="100" cy="80" r="2.5" fill="white" opacity="0.8"/>
  <circle cx="180" cy="55" r="2" fill="white" opacity="0.6"/>
  <circle cx="300" cy="70" r="3" fill="white" opacity="0.9"/>
  <circle cx="420" cy="90" r="2" fill="white" opacity="0.7"/>
  <circle cx="140" cy="130" r="1.5" fill="white" opacity="0.5"/>
  <circle cx="380" cy="120" r="2.5" fill="white" opacity="0.8"/>
  <circle cx="450" cy="60" r="2" fill="white" opacity="0.6"/>
  <circle cx="70" cy="150" r="2" fill="white" opacity="0.7"/>
  <!-- Moon -->
  <circle cx="380" cy="100" r="48" fill="url(#moon)"/>
  <circle cx="400" cy="86" r="38" fill="#1B2A3B"/>
  <!-- City skyline silhouette -->
  <rect x="60" y="320" width="40" height="120" fill="#1E3A5F"/>
  <rect x="95" y="290" width="30" height="150" fill="#1E3A5F"/>
  <rect x="120" y="310" width="50" height="130" fill="#1E3A5F"/>
  <rect x="165" y="280" width="35" height="160" fill="#1E3A5F"/>
  <rect x="195" y="300" width="25" height="140" fill="#1E3A5F"/>
  <rect x="230" y="270" width="55" height="170" fill="#243B55"/>
  <rect x="280" y="295" width="30" height="145" fill="#1E3A5F"/>
  <rect x="305" y="310" width="45" height="130" fill="#1E3A5F"/>
  <rect x="345" y="285" width="35" height="155" fill="#1E3A5F"/>
  <rect x="375" y="305" width="30" height="135" fill="#1E3A5F"/>
  <rect x="400" y="275" width="52" height="165" fill="#243B55"/>
  <!-- Building windows (lit) -->
  <rect x="102" y="300" width="8" height="8" fill="#FFD740" opacity="0.8"/>
  <rect x="115" y="300" width="8" height="8" fill="#FFD740" opacity="0.6"/>
  <rect x="102" y="318" width="8" height="8" fill="#FFD740" opacity="0.9"/>
  <rect x="238" y="280" width="8" height="8" fill="#FFD740" opacity="0.7"/>
  <rect x="255" y="280" width="8" height="8" fill="#FFD740" opacity="0.5"/>
  <rect x="238" y="298" width="8" height="8" fill="#FFD740" opacity="0.8"/>
  <rect x="408" y="285" width="8" height="8" fill="#FFD740" opacity="0.7"/>
  <rect x="422" y="285" width="8" height="8" fill="#FFD740" opacity="0.9"/>
  <!-- Route/path -->
  <path d="M80,440 Q180,400 256,380 Q332,360 432,440" stroke="#64B5F6" stroke-width="5" fill="none" stroke-linecap="round" stroke-dasharray="10,6"/>
  <!-- Person walking -->
  <circle cx="256" cy="375" r="12" fill="#64B5F6"/>
  <line x1="256" y1="387" x2="256" y2="415" stroke="#64B5F6" stroke-width="4" stroke-linecap="round"/>
  <line x1="256" y1="395" x2="244" y2="410" stroke="#64B5F6" stroke-width="3" stroke-linecap="round"/>
  <line x1="256" y1="395" x2="268" y2="410" stroke="#64B5F6" stroke-width="3" stroke-linecap="round"/>
</svg>
