<svg xmlns="http://www.w3.org/2000/svg" viewBox="0 0 512 512">
  <defs>
    <linearGradient id="bg" x1="0%" y1="0%" x2="100%" y2="100%">
      <stop offset="0%" stop-color="#050D1F"/>
      <stop offset="100%" stop-color="#0A1F45"/>
    </linearGradient>
    <linearGradient id="chip" x1="0%" y1="0%" x2="100%" y2="100%">
      <stop offset="0%" stop-color="#1565C0"/>
      <stop offset="100%" stop-color="#0D47A1"/>
    </linearGradient>
  </defs>
  <rect width="512" height="512" rx="80" fill="url(#bg)"/>
  <!-- CPU chip -->
  <rect x="156" y="156" width="200" height="200" rx="16" fill="url(#chip)"/>
  <rect x="172" y="172" width="168" height="168" rx="10" fill="#0D47A1"/>
  <!-- Die grid -->
  <g stroke="#1976D2" stroke-width="1.5" opacity="0.5">
    <line x1="208" y1="172" x2="208" y2="340"/>
    <line x1="256" y1="172" x2="256" y2="340"/>
    <line x1="304" y1="172" x2="304" y2="340"/>
    <line x1="172" y1="208" x2="340" y2="208"/>
    <line x1="172" y1="256" x2="340" y2="256"/>
    <line x1="172" y1="304" x2="340" y2="304"/>
  </g>
  <!-- Core highlights -->
  <rect x="183" y="183" width="50" height="50" rx="6" fill="#1976D2" opacity="0.7"/>
  <rect x="231" y="183" width="50" height="50" rx="6" fill="#1976D2" opacity="0.5"/>
  <rect x="279" y="183" width="50" height="50" rx="6" fill="#1976D2" opacity="0.8"/>
  <rect x="183" y="231" width="50" height="50" rx="6" fill="#1976D2" opacity="0.6"/>
  <rect x="231" y="231" width="50" height="50" rx="6" fill="#1976D2" opacity="0.9"/>
  <rect x="279" y="231" width="50" height="50" rx="6" fill="#1976D2" opacity="0.4"/>
  <rect x="183" y="279" width="50" height="50" rx="6" fill="#1976D2" opacity="0.7"/>
  <rect x="231" y="279" width="50" height="50" rx="6" fill="#1976D2" opacity="0.5"/>
  <rect x="279" y="279" width="50" height="50" rx="6" fill="#1976D2" opacity="0.8"/>
  <!-- Pins top -->
  <g fill="#42A5F5">
    <rect x="188" y="138" width="8" height="18" rx="3"/>
    <rect x="208" y="138" width="8" height="18" rx="3"/>
    <rect x="228" y="138" width="8" height="18" rx="3"/>
    <rect x="248" y="138" width="8" height="18" rx="3"/>
    <rect x="268" y="138" width="8" height="18" rx="3"/>
    <rect x="288" y="138" width="8" height="18" rx="3"/>
    <rect x="308" y="138" width="8" height="18" rx="3"/>
  </g>
  <!-- Pins bottom -->
  <g fill="#42A5F5">
    <rect x="188" y="356" width="8" height="18" rx="3"/>
    <rect x="208" y="356" width="8" height="18" rx="3"/>
    <rect x="228" y="356" width="8" height="18" rx="3"/>
    <rect x="248" y="356" width="8" height="18" rx="3"/>
    <rect x="268" y="356" width="8" height="18" rx="3"/>
    <rect x="288" y="356" width="8" height="18" rx="3"/>
    <rect x="308" y="356" width="8" height="18" rx="3"/>
  </g>
  <!-- Pins left -->
  <g fill="#42A5F5">
    <rect x="138" y="188" width="18" height="8" rx="3"/>
    <rect x="138" y="208" width="18" height="8" rx="3"/>
    <rect x="138" y="228" width="18" height="8" rx="3"/>
    <rect x="138" y="248" width="18" height="8" rx="3"/>
    <rect x="138" y="268" width="18" height="8" rx="3"/>
    <rect x="138" y="288" width="18" height="8" rx="3"/>
    <rect x="138" y="308" width="18" height="8" rx="3"/>
  </g>
  <!-- Pins right -->
  <g fill="#42A5F5">
    <rect x="356" y="188" width="18" height="8" rx="3"/>
    <rect x="356" y="208" width="18" height="8" rx="3"/>
    <rect x="356" y="228" width="18" height="8" rx="3"/>
    <rect x="356" y="248" width="18" height="8" rx="3"/>
    <rect x="356" y="268" width="18" height="8" rx="3"/>
    <rect x="356" y="288" width="18" height="8" rx="3"/>
    <rect x="356" y="308" width="18" height="8" rx="3"/>
  </g>
  <!-- % usage -->
  <text x="256" y="265" text-anchor="middle" font-family="Arial" font-size="32" fill="#90CAF9" font-weight="bold">72%</text>
</svg>
