<svg xmlns="http://www.w3.org/2000/svg" viewBox="0 0 512 512">
  <defs>
    <linearGradient id="bg" x1="0" y1="0" x2="1" y2="1">
      <stop offset="0%" stop-color="#16213E"/>
      <stop offset="100%" stop-color="#0F3460"/>
    </linearGradient>
  </defs>
  <rect width="512" height="512" rx="80" fill="url(#bg)"/>
  <!-- Heatmap grid 6x5 -->
  <!-- Row 1 - cool -->
  <rect x="76" y="100" width="60" height="50" rx="6" fill="#1A5C3A"/>
  <rect x="146" y="100" width="60" height="50" rx="6" fill="#2E7D32"/>
  <rect x="216" y="100" width="60" height="50" rx="6" fill="#43A047"/>
  <rect x="286" y="100" width="60" height="50" rx="6" fill="#66BB6A"/>
  <rect x="356" y="100" width="60" height="50" rx="6" fill="#81C784"/>
  <rect x="426" y="100" width="60" height="50" rx="6" fill="#A5D6A7"/>
  <!-- Row 2 -->
  <rect x="76" y="160" width="60" height="50" rx="6" fill="#F9A825"/>
  <rect x="146" y="160" width="60" height="50" rx="6" fill="#FB8C00"/>
  <rect x="216" y="160" width="60" height="50" rx="6" fill="#E65100"/>
  <rect x="286" y="160" width="60" height="50" rx="6" fill="#43A047"/>
  <rect x="356" y="160" width="60" height="50" rx="6" fill="#2E7D32"/>
  <rect x="426" y="160" width="60" height="50" rx="6" fill="#66BB6A"/>
  <!-- Row 3 - hot -->
  <rect x="76" y="220" width="60" height="50" rx="6" fill="#B71C1C"/>
  <rect x="146" y="220" width="60" height="50" rx="6" fill="#C62828"/>
  <rect x="216" y="220" width="60" height="50" rx="6" fill="#E53935"/>
  <rect x="286" y="220" width="60" height="50" rx="6" fill="#EF5350"/>
  <rect x="356" y="220" width="60" height="50" rx="6" fill="#FB8C00"/>
  <rect x="426" y="220" width="60" height="50" rx="6" fill="#F9A825"/>
  <!-- Row 4 -->
  <rect x="76" y="280" width="60" height="50" rx="6" fill="#1565C0"/>
  <rect x="146" y="280" width="60" height="50" rx="6" fill="#1976D2"/>
  <rect x="216" y="280" width="60" height="50" rx="6" fill="#1E88E5"/>
  <rect x="286" y="280" width="60" height="50" rx="6" fill="#42A5F5"/>
  <rect x="356" y="280" width="60" height="50" rx="6" fill="#E53935"/>
  <rect x="426" y="280" width="60" height="50" rx="6" fill="#C62828"/>
  <!-- Row 5 -->
  <rect x="76" y="340" width="60" height="50" rx="6" fill="#4A148C"/>
  <rect x="146" y="340" width="60" height="50" rx="6" fill="#6A1B9A"/>
  <rect x="216" y="340" width="60" height="50" rx="6" fill="#8E24AA"/>
  <rect x="286" y="340" width="60" height="50" rx="6" fill="#1976D2"/>
  <rect x="356" y="340" width="60" height="50" rx="6" fill="#43A047"/>
  <rect x="426" y="340" width="60" height="50" rx="6" fill="#F9A825"/>
  <!-- Title -->
  <text x="256" y="455" text-anchor="middle" font-family="Segoe UI" font-size="26" font-weight="700" fill="#E0E0E0" opacity="0.8">HEATMAP</text>
</svg>
