<svg xmlns="http://www.w3.org/2000/svg" viewBox="0 0 1024 1024">
  <defs>
    <linearGradient id="bg01q" x1="0%" y1="0%" x2="100%" y2="100%">
      <stop offset="0%" style="stop-color:#5BBFEE;stop-opacity:1" />
      <stop offset="100%" style="stop-color:#2A9ACC;stop-opacity:1" />
    </linearGradient>
    <linearGradient id="calc01q" x1="0%" y1="0%" x2="100%" y2="100%">
      <stop offset="0%" style="stop-color:#FFFFFF;stop-opacity:1" />
      <stop offset="100%" style="stop-color:#E8F4FF;stop-opacity:1" />
    </linearGradient>
    <linearGradient id="btn01q" x1="0%" y1="0%" x2="100%" y2="100%">
      <stop offset="0%" style="stop-color:#3A8ACC;stop-opacity:1" />
      <stop offset="100%" style="stop-color:#1A6AAA;stop-opacity:1" />
    </linearGradient>
    <linearGradient id="btnOp01q" x1="0%" y1="0%" x2="100%" y2="100%">
      <stop offset="0%" style="stop-color:#FF8C40;stop-opacity:1" />
      <stop offset="100%" style="stop-color:#DD5500;stop-opacity:1" />
    </linearGradient>
    <filter id="calcshadow">
      <feDropShadow dx="0" dy="10" stdDeviation="18" flood-color="#1A5A88" flood-opacity="0.35"/>
    </filter>
  </defs>
  <!-- Layer 1: 배경 -->
  <rect width="1024" height="1024" rx="300" fill="url(#bg01q)"/>
  <!-- 배경 원 장식 -->
  <circle cx="300" cy="280" r="160" fill="#FFFFFF" opacity="0.08"/>
  <circle cx="780" cy="760" r="130" fill="#FFFFFF" opacity="0.06"/>
  <!-- Layer 2: 계산기 본체 (612x816, ~80% 높이) -->
  <rect x="206" y="104" width="612" height="816" rx="48" fill="url(#calc01q)" stroke="#C8E4F8" stroke-width="12" filter="url(#calcshadow)"/>
  <!-- 디스플레이 -->
  <rect x="248" y="152" width="528" height="150" rx="24" fill="#1A3A5A"/>
  <text x="758" y="260" font-family="'Courier New', monospace" font-size="69" fill="#FFFFFF" text-anchor="end" font-weight="bold">1,234</text>
  <!-- 버튼 그리드 (4x4) -->
  <!-- 행 1: C, ±, %, ÷ -->
  <rect x="248" y="332" width="108" height="84" rx="21" fill="#D0D8E0"/>
  <text x="302" y="386" font-family="sans-serif" font-size="42" fill="#1A3A5A" text-anchor="middle" font-weight="bold">C</text>
  <rect x="374" y="332" width="108" height="84" rx="21" fill="#D0D8E0"/>
  <text x="428" y="386" font-family="sans-serif" font-size="42" fill="#1A3A5A" text-anchor="middle">±</text>
  <rect x="500" y="332" width="108" height="84" rx="21" fill="#D0D8E0"/>
  <text x="554" y="386" font-family="sans-serif" font-size="42" fill="#1A3A5A" text-anchor="middle">%</text>
  <rect x="626" y="332" width="150" height="84" rx="21" fill="url(#btnOp01q)"/>
  <text x="701" y="386" font-family="sans-serif" font-size="48" fill="#FFFFFF" text-anchor="middle">÷</text>
  <!-- 행 2: 7, 8, 9, × -->
  <rect x="248" y="434" width="108" height="84" rx="21" fill="url(#btn01q)"/>
  <text x="302" y="491" font-family="sans-serif" font-size="45" fill="#FFFFFF" text-anchor="middle">7</text>
  <rect x="374" y="434" width="108" height="84" rx="21" fill="url(#btn01q)"/>
  <text x="428" y="491" font-family="sans-serif" font-size="45" fill="#FFFFFF" text-anchor="middle">8</text>
  <rect x="500" y="434" width="108" height="84" rx="21" fill="url(#btn01q)"/>
  <text x="554" y="491" font-family="sans-serif" font-size="45" fill="#FFFFFF" text-anchor="middle">9</text>
  <rect x="626" y="434" width="150" height="84" rx="21" fill="url(#btnOp01q)"/>
  <text x="701" y="491" font-family="sans-serif" font-size="48" fill="#FFFFFF" text-anchor="middle">×</text>
  <!-- 행 3: 4, 5, 6, − -->
  <rect x="248" y="536" width="108" height="84" rx="21" fill="url(#btn01q)"/>
  <text x="302" y="596" font-family="sans-serif" font-size="45" fill="#FFFFFF" text-anchor="middle">4</text>
  <rect x="374" y="536" width="108" height="84" rx="21" fill="url(#btn01q)"/>
  <text x="428" y="596" font-family="sans-serif" font-size="45" fill="#FFFFFF" text-anchor="middle">5</text>
  <rect x="500" y="536" width="108" height="84" rx="21" fill="url(#btn01q)"/>
  <text x="554" y="596" font-family="sans-serif" font-size="45" fill="#FFFFFF" text-anchor="middle">6</text>
  <rect x="626" y="536" width="150" height="84" rx="21" fill="url(#btnOp01q)"/>
  <text x="701" y="596" font-family="sans-serif" font-size="54" fill="#FFFFFF" text-anchor="middle">−</text>
  <!-- 행 4: 1, 2, 3, + -->
  <rect x="248" y="638" width="108" height="84" rx="21" fill="url(#btn01q)"/>
  <text x="302" y="701" font-family="sans-serif" font-size="45" fill="#FFFFFF" text-anchor="middle">1</text>
  <rect x="374" y="638" width="108" height="84" rx="21" fill="url(#btn01q)"/>
  <text x="428" y="701" font-family="sans-serif" font-size="45" fill="#FFFFFF" text-anchor="middle">2</text>
  <rect x="500" y="638" width="108" height="84" rx="21" fill="url(#btn01q)"/>
  <text x="554" y="701" font-family="sans-serif" font-size="45" fill="#FFFFFF" text-anchor="middle">3</text>
  <rect x="626" y="638" width="150" height="84" rx="21" fill="url(#btnOp01q)"/>
  <text x="701" y="701" font-family="sans-serif" font-size="54" fill="#FFFFFF" text-anchor="middle">+</text>
  <!-- 행 5: 0(넓), ., = -->
  <rect x="248" y="740" width="234" height="84" rx="21" fill="url(#btn01q)"/>
  <text x="365" y="806" font-family="sans-serif" font-size="45" fill="#FFFFFF" text-anchor="middle">0</text>
  <rect x="500" y="740" width="108" height="84" rx="21" fill="url(#btn01q)"/>
  <text x="554" y="806" font-family="sans-serif" font-size="45" fill="#FFFFFF" text-anchor="middle">.</text>
  <rect x="626" y="740" width="150" height="84" rx="21" fill="#2288DD"/>
  <text x="701" y="806" font-family="sans-serif" font-size="45" fill="#FFFFFF" text-anchor="middle">=</text>
  <!-- Layer 3: 계산기 상단 둥근 끝 광택 -->
  <ellipse cx="512" cy="127" rx="270" ry="18" fill="#FFFFFF" opacity="0.3"/>
</svg>
