<svg xmlns="http://www.w3.org/2000/svg" viewBox="0 0 1024 1024">
  <defs>
    <clipPath id="lm-bg-clip-02">
      <rect width="1024" height="1024" rx="160"/>
    </clipPath>
    <linearGradient id="lm-bg-02" x1="0%" y1="0%" x2="100%" y2="100%">
      <stop offset="0%" stop-color="#1E2535"/>
      <stop offset="100%" stop-color="#252D40"/>
    </linearGradient>
  </defs>

  <!-- 배경 -->
  <rect width="1024" height="1024" rx="160" fill="url(#lm-bg-02)"/>

  <g clip-path="url(#lm-bg-clip-02)">
    <!-- 타임라인 수직 축 (좌측) -->
    <line x1="270" y1="240" x2="270" y2="784" stroke="#3A4460" stroke-width="44" stroke-linecap="round"/>

    <!-- 타임라인 노드 + 색상 카드들 -->

    <!-- 노드 1 (오렌지) -->
    <circle cx="270" cy="290" r="26" fill="#FF6B35"/>
    <rect x="320" y="264" width="384" height="52" rx="14" fill="#FF6B35" opacity="0.9"/>
    <rect x="332" y="276" width="200" height="28" rx="8" fill="rgba(255,255,255,0.25)"/>

    <!-- 노드 2 (시안) -->
    <circle cx="270" cy="390" r="26" fill="#00D4FF"/>
    <rect x="320" y="364" width="340" height="52" rx="14" fill="#00D4FF" opacity="0.85"/>
    <rect x="332" y="376" width="160" height="28" rx="8" fill="rgba(255,255,255,0.25)"/>

    <!-- 노드 3 (그린) -->
    <circle cx="270" cy="490" r="26" fill="#4ADE80"/>
    <rect x="320" y="464" width="420" height="52" rx="14" fill="#4ADE80" opacity="0.85"/>
    <rect x="332" y="476" width="240" height="28" rx="8" fill="rgba(255,255,255,0.25)"/>

    <!-- 노드 4 (핑크) -->
    <circle cx="270" cy="590" r="26" fill="#F472B6"/>
    <rect x="320" y="564" width="300" height="52" rx="14" fill="#F472B6" opacity="0.85"/>
    <rect x="332" y="576" width="130" height="28" rx="8" fill="rgba(255,255,255,0.25)"/>

    <!-- 노드 5 (퍼플) -->
    <circle cx="270" cy="690" r="26" fill="#A78BFA"/>
    <rect x="320" y="664" width="360" height="52" rx="14" fill="#A78BFA" opacity="0.85"/>
    <rect x="332" y="676" width="180" height="28" rx="8" fill="rgba(255,255,255,0.25)"/>

    <!-- 연결선 -->
    <line x1="270" y1="316" x2="270" y2="364" stroke="#3A4460" stroke-width="36" stroke-linecap="round"/>
    <line x1="270" y1="416" x2="270" y2="464" stroke="#3A4460" stroke-width="36" stroke-linecap="round"/>
    <line x1="270" y1="516" x2="270" y2="564" stroke="#3A4460" stroke-width="36" stroke-linecap="round"/>
    <line x1="270" y1="616" x2="270" y2="664" stroke="#3A4460" stroke-width="36" stroke-linecap="round"/>
  </g>
</svg>
