<svg xmlns="http://www.w3.org/2000/svg" viewBox="0 0 1024 1024">
  <defs>
    <clipPath id="lm-bg-clip-04">
      <rect width="1024" height="1024" rx="160"/>
    </clipPath>
    <linearGradient id="lm-bg-04" x1="0%" y1="0%" x2="100%" y2="100%">
      <stop offset="0%" stop-color="#1E0A3C"/>
      <stop offset="100%" stop-color="#2D1060"/>
    </linearGradient>
  </defs>

  <!-- 배경 -->
  <rect width="1024" height="1024" rx="160" fill="url(#lm-bg-04)"/>

  <g clip-path="url(#lm-bg-clip-04)">
    <!-- 무지개 화살표들이 하나로 수렴 -->
    <!-- 화살표 1: 빨강 (좌상) -->
    <path d="M230 260 C340 290 430 370 510 490" fill="none" stroke="#FF4757" stroke-width="58" stroke-linecap="round"/>
    <polygon points="510,490 460,448 488,522" fill="#FF4757"/>

    <!-- 화살표 2: 오렌지 (좌) -->
    <path d="M220 440 C330 450 430 460 510 490" fill="none" stroke="#FF6B35" stroke-width="54" stroke-linecap="round"/>
    <polygon points="510,490 456,460 468,532" fill="#FF6B35"/>

    <!-- 화살표 3: 옐로 (좌하) -->
    <path d="M230 620 C340 600 430 560 510 490" fill="none" stroke="#FFD700" stroke-width="54" stroke-linecap="round"/>
    <polygon points="510,490 458,528 466,456" fill="#FFD700"/>

    <!-- 화살표 4: 그린 (하) -->
    <path d="M390 780 C420 700 460 600 510 490" fill="none" stroke="#2ED573" stroke-width="54" stroke-linecap="round"/>
    <polygon points="510,490 462,528 540,516" fill="#2ED573"/>

    <!-- 화살표 5: 시안 (우하) -->
    <path d="M680 720 C640 660 580 580 510 490" fill="none" stroke="#00D4FF" stroke-width="54" stroke-linecap="round"/>
    <polygon points="510,490 548,542 566,468" fill="#00D4FF"/>

    <!-- 화살표 6: 퍼플 (우) -->
    <path d="M790 490 C700 488 610 488 510 490" fill="none" stroke="#A78BFA" stroke-width="54" stroke-linecap="round"/>
    <polygon points="510,490 558,448 558,532" fill="#A78BFA"/>

    <!-- 화살표 7: 핑크 (우상) -->
    <path d="M710 280 C640 340 570 410 510 490" fill="none" stroke="#F472B6" stroke-width="54" stroke-linecap="round"/>
    <polygon points="510,490 556,444 540,524" fill="#F472B6"/>

    <!-- 중앙 수렴점 -->
    <circle cx="512" cy="490" r="66" fill="#FFFFFF"/>
    <circle cx="512" cy="490" r="44" fill="#2D1060"/>
    <circle cx="512" cy="490" r="22" fill="#FFFFFF"/>
  </g>
</svg>
