<svg viewBox="0 0 1024 1024" xmlns="http://www.w3.org/2000/svg">
  <rect x="72" y="72" width="880" height="880" rx="190" fill="#FEF3C7"/>
  <circle cx="512" cy="512" r="360" fill="#FFFFFF" stroke="#78350F" stroke-width="28"/>
  <circle cx="512" cy="512" r="340" fill="none" stroke="#F59E0B" stroke-width="12" stroke-dasharray="40 20"/>
  <path d="M 512 200 A 312 312 0 0 1 824 512 L 512 512 Z" fill="#EF4444"/>
  <path d="M 824 512 A 312 312 0 0 1 512 824 L 512 512 Z" fill="#FBBF24"/>
  <path d="M 512 824 A 312 312 0 0 1 200 512 L 512 512 Z" fill="#10B981"/>
  <path d="M 200 512 A 312 312 0 0 1 512 200 L 512 512 Z" fill="#3B82F6"/>
  <circle cx="512" cy="512" r="150" fill="#FFFFFF" stroke="#78350F" stroke-width="16"/>
  <text x="512" y="575" font-family="Segoe UI, sans-serif" font-size="200" font-weight="900" fill="#78350F" text-anchor="middle">?</text>
  <path d="M 512 512 L 512 260" stroke="#78350F" stroke-width="22" stroke-linecap="round"/>
  <circle cx="512" cy="512" r="24" fill="#78350F"/>
  <text x="340" y="420" font-family="Segoe UI, sans-serif" font-size="64" font-weight="900" fill="#FFFFFF" text-anchor="middle">A</text>
  <text x="680" y="420" font-family="Segoe UI, sans-serif" font-size="64" font-weight="900" fill="#FFFFFF" text-anchor="middle">B</text>
  <text x="680" y="660" font-family="Segoe UI, sans-serif" font-size="64" font-weight="900" fill="#FFFFFF" text-anchor="middle">C</text>
  <text x="340" y="660" font-family="Segoe UI, sans-serif" font-size="64" font-weight="900" fill="#FFFFFF" text-anchor="middle">D</text>
</svg>
