<svg viewBox="0 0 1024 1024" xmlns="http://www.w3.org/2000/svg">
  <defs>
    <linearGradient id="bgTC5" x1="0" y1="0" x2="0" y2="1">
      <stop offset="0" stop-color="#FBCFE8"/>
      <stop offset="1" stop-color="#F472B6"/>
    </linearGradient>
  </defs>
  <rect x="72" y="72" width="880" height="880" rx="190" fill="url(#bgTC5)"/>
  <g transform="translate(220 220)">
    <path d="M 300 80 Q 540 80 540 300 Q 540 440 440 500 Q 440 560 480 580 L 160 580 Q 200 560 200 500 Q 100 440 100 300 Q 100 80 300 80 Z" fill="#F9A8D4" stroke="#9D174D" stroke-width="20"/>
    <path d="M 180 240 Q 210 180 280 200 Q 320 210 300 260 M 340 240 Q 370 180 440 200 Q 480 210 460 260" stroke="#9D174D" stroke-width="14" fill="none" stroke-linecap="round"/>
    <circle cx="230" cy="340" r="30" fill="#9D174D"/>
    <circle cx="410" cy="340" r="30" fill="#9D174D"/>
    <path d="M 240 420 Q 320 480 400 420" stroke="#9D174D" stroke-width="14" fill="none" stroke-linecap="round"/>
  </g>
  <circle cx="512" cy="460" r="100" fill="#FDE047" stroke="#9D174D" stroke-width="14"/>
  <text x="512" y="520" font-family="Segoe UI, sans-serif" font-size="140" font-weight="900" fill="#9D174D" text-anchor="middle">?</text>
  <rect x="180" y="820" width="664" height="120" rx="24" fill="#FFFFFF" stroke="#9D174D" stroke-width="14"/>
  <text x="512" y="905" font-family="Segoe UI, sans-serif" font-size="84" font-weight="900" fill="#9D174D" text-anchor="middle">BRAIN QUIZ</text>
</svg>
