<svg viewBox="0 0 1024 1024" xmlns="http://www.w3.org/2000/svg">
  <defs>
    <linearGradient id="bgTC8" x1="0" y1="0" x2="0" y2="1">
      <stop offset="0" stop-color="#312E81"/>
      <stop offset="1" stop-color="#5B21B6"/>
    </linearGradient>
  </defs>
  <rect x="72" y="72" width="880" height="880" rx="190" fill="url(#bgTC8)"/>
  <path d="M 300 200 L 724 200 Q 780 200 780 260 L 780 420 Q 780 600 640 640 Q 600 660 560 680 L 560 740 L 464 740 L 464 680 Q 424 660 384 640 Q 244 600 244 420 L 244 260 Q 244 200 300 200 Z" fill="#FBBF24" stroke="#78350F" stroke-width="18"/>
  <path d="M 244 280 L 180 280 Q 130 280 130 340 L 130 440 Q 130 500 200 520" fill="none" stroke="#FBBF24" stroke-width="40" stroke-linecap="round"/>
  <path d="M 780 280 L 844 280 Q 894 280 894 340 L 894 440 Q 894 500 824 520" fill="none" stroke="#FBBF24" stroke-width="40" stroke-linecap="round"/>
  <rect x="400" y="740" width="224" height="60" fill="#78350F"/>
  <rect x="320" y="800" width="384" height="80" rx="16" fill="#FBBF24" stroke="#78350F" stroke-width="14"/>
  <text x="512" y="430" font-family="Segoe UI, sans-serif" font-size="200" font-weight="900" fill="#78350F" text-anchor="middle">Q</text>
  <circle cx="400" cy="320" r="18" fill="#FFFFFF"/>
  <circle cx="440" cy="300" r="12" fill="#FFFFFF"/>
  <circle cx="640" cy="310" r="16" fill="#FFFFFF"/>
  <text x="512" y="875" font-family="Segoe UI, sans-serif" font-size="60" font-weight="900" fill="#78350F" text-anchor="middle">CHAMPION</text>
</svg>
