<svg xmlns="http://www.w3.org/2000/svg" viewBox="0 0 512 512">
  <defs>
    <linearGradient id="bg" x1="0%" y1="0%" x2="100%" y2="100%">
      <stop offset="0%" style="stop-color:#100500"/>
      <stop offset="100%" style="stop-color:#200A00"/>
    </linearGradient>
    <linearGradient id="flame1" x1="0%" y1="100%" x2="0%" y2="0%">
      <stop offset="0%" style="stop-color:#FF6600"/>
      <stop offset="50%" style="stop-color:#FF4400"/>
      <stop offset="100%" style="stop-color:#FF0000;stop-opacity:0"/>
    </linearGradient>
    <linearGradient id="flame2" x1="0%" y1="100%" x2="0%" y2="0%">
      <stop offset="0%" style="stop-color:#FFAA00"/>
      <stop offset="100%" style="stop-color:#FFDD00;stop-opacity:0"/>
    </linearGradient>
  </defs>
  <rect width="512" height="512" rx="80" fill="url(#bg)"/>
  <!-- Flame (slow query) -->
  <path d="M200 400 C160 360 150 300 190 260 C180 300 210 290 200 250 C230 280 220 240 240 200 C250 240 260 220 256 180 C280 220 290 200 285 160 C310 200 320 240 300 280 C330 260 335 300 310 340 C340 310 360 360 320 400 Z" fill="url(#flame1)" opacity="0.9"/>
  <path d="M220 400 C200 370 195 330 215 300 C210 330 228 320 220 290 C240 308 235 280 248 255 C256 280 262 265 260 240 C276 265 282 255 278 225 C295 255 300 280 285 308 C305 292 308 325 292 352 C310 332 322 368 305 400 Z" fill="url(#flame2)" opacity="0.9"/>
  <!-- Query text -->
  <text x="130" y="100" font-family="monospace" font-size="14" fill="#FF6600" opacity="0.9">SLOW QUERY:</text>
  <text x="100" y="124" font-family="monospace" font-size="12" fill="#CC4400">SELECT * FROM big_table</text>
  <text x="100" y="144" font-family="monospace" font-size="12" fill="#CC4400">WHERE col LIKE '%data%'</text>
  <!-- Optimization arrow -->
  <path d="M370 250 L430 250 M415 234 L435 250 L415 266" stroke="#44FF44" stroke-width="4" stroke-linecap="round" stroke-linejoin="round" fill="none"/>
  <!-- Optimized -->
  <rect x="330" y="180" width="130" height="120" rx="10" fill="#003300" stroke="#44FF44" stroke-width="2"/>
  <text x="395" y="216" text-anchor="middle" font-family="monospace" font-size="11" fill="#44FF44">OPTIMIZED</text>
  <text x="395" y="238" text-anchor="middle" font-family="monospace" font-size="10" fill="#22CC22">USE INDEX</text>
  <text x="395" y="256" text-anchor="middle" font-family="monospace" font-size="10" fill="#22CC22">2ms ↓94%</text>
</svg>
