<svg xmlns="http://www.w3.org/2000/svg" viewBox="0 0 1024 1024">
  <rect x="80" y="80" width="864" height="864" rx="180" fill="#050010"/>
  <!-- Vortex / spiral center -->
  <!-- Outer spiral ring -->
  <path d="M512 150 Q840 150 874 512 Q874 874 512 874 Q148 874 148 512 Q148 150 512 150"
    fill="none" stroke="#1A237E" stroke-width="30" opacity="0.6"/>
  <!-- Middle spiral -->
  <path d="M512 250 Q780 250 780 512 Q780 780 512 780 Q244 780 244 512 Q244 244 512 244"
    fill="none" stroke="#5C6BC0" stroke-width="24" opacity="0.7"/>
  <!-- Inner spiral -->
  <path d="M512 360 Q660 360 660 512 Q660 664 512 664 Q360 664 360 512 Q360 360 512 360"
    fill="none" stroke="#5C6BC0" stroke-width="18" opacity="0.8"/>
  <!-- Vortex center -->
  <circle cx="512" cy="512" r="80" fill="#1A237E" opacity="0.9"/>
  <circle cx="512" cy="512" r="44" fill="#5C6BC0" opacity="0.85"/>
  <circle cx="512" cy="512" r="20" fill="#9FA8DA" opacity="0.9"/>
  <!-- Brick fragments being sucked into vortex -->
  <rect x="650" y="220" width="60" height="38" rx="6" fill="#1A237E" opacity="0.8" transform="rotate(30,680,239)"/>
  <rect x="760" y="400" width="52" height="34" rx="6" fill="#5C6BC0" opacity="0.7" transform="rotate(60,786,417)"/>
  <rect x="680" y="700" width="56" height="36" rx="6" fill="#1A237E" opacity="0.65" transform="rotate(-20,708,718)"/>
  <rect x="250" y="720" width="52" height="34" rx="6" fill="#5C6BC0" opacity="0.6" transform="rotate(15,276,737)"/>
  <rect x="170" y="350" width="48" height="32" rx="6" fill="#1A237E" opacity="0.7" transform="rotate(-40,194,366)"/>
  <rect x="300" y="200" width="54" height="36" rx="6" fill="#5C6BC0" opacity="0.55" transform="rotate(25,327,218)"/>
  <!-- Spiral motion lines -->
  <path d="M700 300 Q650 400 620 480" stroke="#5C6BC0" stroke-width="10" fill="none" opacity="0.4"/>
  <path d="M740 550 Q680 560 620 540" stroke="#5C6BC0" stroke-width="8" fill="none" opacity="0.35"/>
</svg>
