<svg xmlns="http://www.w3.org/2000/svg" viewBox="0 0 1024 1024">
  <rect x="80" y="80" width="864" height="864" rx="180" fill="#080500"/>
  <!-- Stamp / custom stamp tool -->
  <!-- Stamp handle -->
  <rect x="420" y="160" width="184" height="120" rx="20" fill="#4E342E"/>
  <rect x="380" y="260" width="264" height="60" rx="14" fill="#4E342E"/>
  <!-- Stamp body -->
  <rect x="320" y="320" width="384" height="140" rx="14" fill="#4E342E"/>
  <!-- Stamp impression surface -->
  <rect x="320" y="440" width="384" height="40" rx="8" fill="#A1887F" opacity="0.7"/>
  <!-- Stamp ink impression on paper -->
  <rect x="240" y="580" width="544" height="220" rx="16" fill="#080500"/>
  <rect x="240" y="580" width="544" height="220" rx="16" fill="none" stroke="#4E342E" stroke-width="12"/>
  <!-- Keyboard layout stamp impression -->
  <rect x="270" y="610" width="70" height="48" rx="8" fill="#A1887F" opacity="0.6"/>
  <rect x="354" y="610" width="70" height="48" rx="8" fill="#A1887F" opacity="0.6"/>
  <rect x="438" y="610" width="70" height="48" rx="8" fill="#A1887F" opacity="0.6"/>
  <rect x="522" y="610" width="70" height="48" rx="8" fill="#A1887F" opacity="0.6"/>
  <rect x="606" y="610" width="148" height="48" rx="8" fill="#4E342E" opacity="0.8"/>
  <rect x="270" y="672" width="484" height="48" rx="8" fill="#4E342E" opacity="0.5"/>
</svg>
