<svg xmlns="http://www.w3.org/2000/svg" viewBox="0 0 1024 1024">
  <rect x="80" y="80" width="864" height="864" rx="180" fill="#020510"/>
  <!-- 중력선 (행성에서 방사되는 곡선들) -->
  <circle cx="512" cy="512" r="100" fill="#0D47A1"/>
  <circle cx="512" cy="512" r="80" fill="#1565C0"/>
  <!-- 중력선들 -->
  <g fill="none" stroke="#42A5F5" stroke-width="10" stroke-linecap="round" opacity="0.8">
    <path d="M612,400 C680,340 760,310 820,290"/>
    <path d="M650,512 C720,510 790,490 840,460"/>
    <path d="M612,624 C680,684 760,714 820,734"/>
    <path d="M512,612 C510,680 490,750 460,810"/>
    <path d="M412,624 C344,684 264,714 204,734"/>
    <path d="M374,512 C304,510 234,490 184,460"/>
    <path d="M412,400 C344,340 264,310 204,290"/>
    <path d="M512,412 C510,344 490,274 460,214"/>
  </g>
</svg>
