<svg xmlns="http://www.w3.org/2000/svg" viewBox="0 0 1024 1024">
  <rect width="1024" height="1024" rx="180" fill="#0A0A0F"/>
  <!-- Bell -->
  <path d="M512 180 C380 180 290 290 290 430 L290 560 L220 640 L220 680 L804 680 L804 640 L734 560 L734 430 C734 290 644 180 512 180 Z" fill="#3949AB"/>
  <path d="M512 200 C392 200 310 300 310 430 L310 560 L252 630 L252 660 L772 660 L772 630 L714 560 L714 430 C714 300 632 200 512 200 Z" fill="#7986CB" opacity="0.25"/>
  <!-- Bell clapper -->
  <circle cx="512" cy="720" r="60" fill="#3949AB" stroke="#7986CB" stroke-width="8"/>
  <!-- Alert dot -->
  <circle cx="660" cy="230" r="55" fill="#7986CB"/>
  <rect x="643" y="180" width="34" height="90" rx="12" fill="#0A0A0F"/>
  <circle cx="660" cy="294" r="16" fill="#0A0A0F"/>
</svg>
