<svg viewBox="0 0 1024 1024" xmlns="http://www.w3.org/2000/svg">
  <defs>
    <linearGradient id="navyBg" x1="0" y1="0" x2="0.3" y2="1">
      <stop offset="0%" stop-color="#0A0A2E"/>
      <stop offset="100%" stop-color="#160D40"/>
    </linearGradient>
  </defs>

  <!-- Layer 1: 딥 네이비 배경 -->
  <rect width="1024" height="1024" rx="190" fill="url(#navyBg)"/>

  <!-- 별빛 장식 -->
  <g fill="rgba(255,255,255,0.5)">
    <circle cx="148" cy="145" r="3"/>
    <circle cx="810" cy="195" r="2"/>
    <circle cx="905" cy="98" r="3"/>
    <circle cx="195" cy="808" r="2"/>
    <circle cx="858" cy="752" r="3"/>
    <circle cx="95"  cy="498" r="2"/>
    <circle cx="958" cy="598" r="2"/>
    <circle cx="350" cy="880" r="2"/>
    <circle cx="680" cy="920" r="3"/>
  </g>

  <!-- Layer 2: 보라색 구름 (상단) -->
  <g fill="#6A0DAD">
    <circle cx="512" cy="310" r="172"/>
    <circle cx="325" cy="345" r="133"/>
    <circle cx="699" cy="345" r="133"/>
    <circle cx="512" cy="172" r="148"/>
    <circle cx="392" cy="218" r="123"/>
    <circle cx="638" cy="218" r="123"/>
  </g>
  <!-- 구름 하이라이트 -->
  <g fill="#9B30D0" opacity="0.55">
    <circle cx="462" cy="198" r="82"/>
    <circle cx="558" cy="178" r="72"/>
  </g>

  <!-- Layer 3: 단어들이 비처럼 쏟아짐 -->
  <g font-family="Arial" font-weight="bold" text-anchor="middle">
    <!-- 1열 -->
    <text x="215" y="535" font-size="60" fill="#64FFDA">Word</text>
    <text x="210" y="645" font-size="42" fill="#80D8FF">Text</text>
    <text x="213" y="740" font-size="33" fill="#B388FF">Data</text>
    <!-- 2열 -->
    <text x="415" y="505" font-size="50" fill="#FFFF00">Hello</text>
    <text x="412" y="608" font-size="65" fill="#64FFDA">Cloud</text>
    <text x="415" y="718" font-size="38" fill="#FF80AB">Love</text>
    <text x="413" y="808" font-size="29" fill="#CCFF90">Art</text>
    <!-- 3열 -->
    <text x="618" y="525" font-size="72" fill="#FF80AB">Web</text>
    <text x="615" y="635" font-size="46" fill="#FFFF00">News</text>
    <text x="618" y="728" font-size="36" fill="#64FFDA">Tech</text>
    <!-- 4열 -->
    <text x="808" y="548" font-size="54" fill="#80D8FF">AI</text>
    <text x="805" y="650" font-size="40" fill="#B388FF">Code</text>
    <text x="808" y="745" font-size="31" fill="#FF80AB">ML</text>
  </g>
</svg>
