<svg xmlns="http://www.w3.org/2000/svg" viewBox="0 0 1024 1024">
  <defs>
    <linearGradient id="bg_lg05" x1="0" y1="0" x2="1" y2="1">
      <stop offset="0%" stop-color="#D1FAE5"/>
      <stop offset="100%" stop-color="#A7F3D0"/>
    </linearGradient>
    <linearGradient id="leaf05" x1="0" y1="0" x2="1" y2="1">
      <stop offset="0%" stop-color="#4ADE80"/>
      <stop offset="100%" stop-color="#16A34A"/>
    </linearGradient>
  </defs>
  <!-- 배경 -->
  <rect width="1024" height="1024" rx="185" fill="url(#bg_lg05)"/>
  <!-- 큰 잎사귀 (메인) -->
  <path d="M 512,200 Q 780,280 800,512 Q 780,744 512,824 Q 244,744 224,512 Q 244,280 512,200 Z" fill="url(#leaf05)" stroke="#15803D" stroke-width="18"/>
  <!-- 잎 중앙 줄기 -->
  <line x1="512" y1="200" x2="512" y2="824" stroke="#166534" stroke-width="18" stroke-linecap="round"/>
  <!-- 잎 결 (좌측) -->
  <path d="M 512,340 Q 420,360 370,430" fill="none" stroke="#166534" stroke-width="12" stroke-linecap="round" opacity="0.7"/>
  <path d="M 512,420 Q 400,440 355,510" fill="none" stroke="#166534" stroke-width="11" stroke-linecap="round" opacity="0.7"/>
  <path d="M 512,510 Q 395,525 358,590" fill="none" stroke="#166534" stroke-width="11" stroke-linecap="round" opacity="0.7"/>
  <path d="M 512,595 Q 410,605 380,670" fill="none" stroke="#166534" stroke-width="10" stroke-linecap="round" opacity="0.6"/>
  <path d="M 512,675 Q 430,680 412,740" fill="none" stroke="#166534" stroke-width="9" stroke-linecap="round" opacity="0.6"/>
  <!-- 잎 결 (우측) -->
  <path d="M 512,340 Q 604,360 654,430" fill="none" stroke="#166534" stroke-width="12" stroke-linecap="round" opacity="0.7"/>
  <path d="M 512,420 Q 624,440 669,510" fill="none" stroke="#166534" stroke-width="11" stroke-linecap="round" opacity="0.7"/>
  <path d="M 512,510 Q 629,525 666,590" fill="none" stroke="#166534" stroke-width="11" stroke-linecap="round" opacity="0.7"/>
  <path d="M 512,595 Q 614,605 644,670" fill="none" stroke="#166534" stroke-width="10" stroke-linecap="round" opacity="0.6"/>
  <path d="M 512,675 Q 594,680 612,740" fill="none" stroke="#166534" stroke-width="9" stroke-linecap="round" opacity="0.6"/>
  <!-- 퍼즐 조각 윤곽선들 (잎 위에) -->
  <!-- 퍼즐 그리드 (3x4 대략) -->
  <rect x="340" y="290" width="344" height="444" rx="0" fill="none"/>
  <!-- 가로 퍼즐선 -->
  <path d="M 340,400 L 430,400 Q 450,380 470,400 L 560,400 Q 580,420 600,400 L 684,400" fill="none" stroke="white" stroke-width="10" opacity="0.6" stroke-linecap="round"/>
  <path d="M 340,512 L 430,512 Q 450,492 470,512 L 560,512 Q 580,532 600,512 L 684,512" fill="none" stroke="white" stroke-width="10" opacity="0.6" stroke-linecap="round"/>
  <path d="M 340,624 L 420,624 Q 440,604 460,624 L 560,624 Q 580,644 600,624 L 684,624" fill="none" stroke="white" stroke-width="10" opacity="0.6" stroke-linecap="round"/>
  <!-- 세로 퍼즐선 -->
  <path d="M 456,290 L 456,380 Q 436,400 456,420 L 456,512 Q 476,532 456,552 L 456,624 Q 436,644 456,664 L 456,734" fill="none" stroke="white" stroke-width="10" opacity="0.6" stroke-linecap="round"/>
  <path d="M 568,290 L 568,380 Q 588,400 568,420 L 568,512 Q 548,532 568,552 L 568,624 Q 588,644 568,664 L 568,734" fill="none" stroke="white" stroke-width="10" opacity="0.6" stroke-linecap="round"/>
  <!-- 퍼즐 조각 하이라이트 -->
  <rect x="456" y="400" width="112" height="112" rx="0" fill="white" opacity="0.15"/>
</svg>
