<svg xmlns="http://www.w3.org/2000/svg" viewBox="0 0 1024 1024">
  <!-- Layer 1: 흰 배경 -->
  <rect width="1024" height="1024" rx="196" fill="white"/>

  <!-- Layer 2: QR 코드 패턴 (중앙) -->
  <!-- QR 파인더 패턴 — 좌상 -->
  <rect x="140" y="140" width="210" height="210" rx="10" fill="#1A1A1A"/>
  <rect x="164" y="164" width="162" height="162" rx="6" fill="white"/>
  <rect x="188" y="188" width="114" height="114" rx="4" fill="#1A1A1A"/>

  <!-- QR 파인더 패턴 — 우상 -->
  <rect x="674" y="140" width="210" height="210" rx="10" fill="#1A1A1A"/>
  <rect x="698" y="164" width="162" height="162" rx="6" fill="white"/>
  <rect x="722" y="188" width="114" height="114" rx="4" fill="#1A1A1A"/>

  <!-- QR 파인더 패턴 — 좌하 -->
  <rect x="140" y="674" width="210" height="210" rx="10" fill="#1A1A1A"/>
  <rect x="164" y="698" width="162" height="162" rx="6" fill="white"/>
  <rect x="188" y="722" width="114" height="114" rx="4" fill="#1A1A1A"/>

  <!-- QR 데이터 모듈들 (중앙 영역 도트) -->
  <!-- 가로 줄 패턴 -->
  <rect x="380" y="140" width="40" height="40" rx="4" fill="#1A1A1A"/>
  <rect x="460" y="140" width="40" height="40" rx="4" fill="#1A1A1A"/>
  <rect x="540" y="140" width="40" height="40" rx="4" fill="#1A1A1A"/>
  <rect x="620" y="140" width="40" height="40" rx="4" fill="#1A1A1A"/>
  <rect x="380" y="220" width="40" height="40" rx="4" fill="#1A1A1A"/>
  <rect x="500" y="220" width="40" height="40" rx="4" fill="#1A1A1A"/>
  <rect x="580" y="220" width="40" height="40" rx="4" fill="#1A1A1A"/>
  <rect x="380" y="300" width="40" height="40" rx="4" fill="#1A1A1A"/>
  <rect x="440" y="300" width="40" height="40" rx="4" fill="#1A1A1A"/>
  <rect x="560" y="300" width="40" height="40" rx="4" fill="#1A1A1A"/>
  <rect x="620" y="300" width="40" height="40" rx="4" fill="#1A1A1A"/>

  <!-- 세로 (왼쪽) -->
  <rect x="140" y="380" width="40" height="40" rx="4" fill="#1A1A1A"/>
  <rect x="140" y="460" width="40" height="40" rx="4" fill="#1A1A1A"/>
  <rect x="140" y="540" width="40" height="40" rx="4" fill="#1A1A1A"/>
  <rect x="140" y="620" width="40" height="40" rx="4" fill="#1A1A1A"/>
  <rect x="220" y="380" width="40" height="40" rx="4" fill="#1A1A1A"/>
  <rect x="220" y="500" width="40" height="40" rx="4" fill="#1A1A1A"/>
  <rect x="220" y="580" width="40" height="40" rx="4" fill="#1A1A1A"/>
  <rect x="300" y="380" width="40" height="40" rx="4" fill="#1A1A1A"/>
  <rect x="300" y="440" width="40" height="40" rx="4" fill="#1A1A1A"/>
  <rect x="300" y="560" width="40" height="40" rx="4" fill="#1A1A1A"/>
  <rect x="300" y="620" width="40" height="40" rx="4" fill="#1A1A1A"/>

  <!-- 중앙 데이터 영역 -->
  <rect x="380" y="380" width="40" height="40" rx="4" fill="#1A1A1A"/>
  <rect x="460" y="380" width="40" height="40" rx="4" fill="#1A1A1A"/>
  <rect x="540" y="380" width="40" height="40" rx="4" fill="#1A1A1A"/>
  <rect x="380" y="460" width="40" height="40" rx="4" fill="#1A1A1A"/>
  <rect x="500" y="460" width="40" height="40" rx="4" fill="#1A1A1A"/>
  <rect x="580" y="460" width="40" height="40" rx="4" fill="#1A1A1A"/>
  <rect x="380" y="540" width="40" height="40" rx="4" fill="#1A1A1A"/>
  <rect x="440" y="540" width="40" height="40" rx="4" fill="#1A1A1A"/>
  <rect x="560" y="540" width="40" height="40" rx="4" fill="#1A1A1A"/>
  <rect x="620" y="540" width="40" height="40" rx="4" fill="#1A1A1A"/>
  <rect x="460" y="620" width="40" height="40" rx="4" fill="#1A1A1A"/>
  <rect x="580" y="620" width="40" height="40" rx="4" fill="#1A1A1A"/>

  <!-- 세로 (오른쪽) -->
  <rect x="844" y="380" width="40" height="40" rx="4" fill="#1A1A1A"/>
  <rect x="844" y="460" width="40" height="40" rx="4" fill="#1A1A1A"/>
  <rect x="844" y="540" width="40" height="40" rx="4" fill="#1A1A1A"/>
  <rect x="844" y="620" width="40" height="40" rx="4" fill="#1A1A1A"/>
  <rect x="764" y="380" width="40" height="40" rx="4" fill="#1A1A1A"/>
  <rect x="764" y="500" width="40" height="40" rx="4" fill="#1A1A1A"/>
  <rect x="764" y="580" width="40" height="40" rx="4" fill="#1A1A1A"/>
  <rect x="684" y="380" width="40" height="40" rx="4" fill="#1A1A1A"/>
  <rect x="684" y="440" width="40" height="40" rx="4" fill="#1A1A1A"/>
  <rect x="684" y="560" width="40" height="40" rx="4" fill="#1A1A1A"/>
  <rect x="684" y="620" width="40" height="40" rx="4" fill="#1A1A1A"/>

  <!-- 가로 하단 -->
  <rect x="380" y="764" width="40" height="40" rx="4" fill="#1A1A1A"/>
  <rect x="460" y="764" width="40" height="40" rx="4" fill="#1A1A1A"/>
  <rect x="540" y="764" width="40" height="40" rx="4" fill="#1A1A1A"/>
  <rect x="620" y="764" width="40" height="40" rx="4" fill="#1A1A1A"/>
  <rect x="380" y="844" width="40" height="40" rx="4" fill="#1A1A1A"/>
  <rect x="500" y="844" width="40" height="40" rx="4" fill="#1A1A1A"/>
  <rect x="580" y="844" width="40" height="40" rx="4" fill="#1A1A1A"/>

  <!-- Layer 3: 중앙 로고 배지 -->
  <rect x="440" y="440" width="144" height="144" rx="12" fill="white"/>
  <rect x="452" y="452" width="120" height="120" rx="8" fill="#1565C0"/>
  <text x="512" y="515" font-family="'Courier New',monospace" font-weight="900" font-size="34" fill="white" text-anchor="middle" dominant-baseline="middle">QR</text>
</svg>
