<svg xmlns="http://www.w3.org/2000/svg" viewBox="0 0 1024 1024">
  <rect x="80" y="80" width="864" height="864" rx="180" ry="180" fill="#020A02"/>
  <!-- 줄기 성장 나선: 나선형 줄기 -->
  <!-- spiral stem (Archimedean) -->
  <path d="M512 512
    Q512 460 555 440
    Q610 418 640 460
    Q670 510 640 560
    Q600 620 540 630
    Q460 642 410 590
    Q350 528 370 450
    Q392 360 470 320
    Q560 275 650 310
    Q750 352 770 460
    Q790 580 730 670
    Q660 770 540 790"
    fill="none" stroke="#2E7D32" stroke-width="22" stroke-linecap="round" opacity="0.8"/>
  <!-- small leaves along spiral -->
  <ellipse cx="555" cy="430" rx="36" ry="18" fill="#66BB6A" transform="rotate(-40 555 430)"/>
  <ellipse cx="648" cy="552" rx="36" ry="18" fill="#66BB6A" transform="rotate(30 648 552)"/>
  <ellipse cx="408" cy="472" rx="36" ry="18" fill="#66BB6A" transform="rotate(-120 408 472)"/>
  <ellipse cx="650" cy="358" rx="36" ry="18" fill="#66BB6A" transform="rotate(20 650 358)"/>
  <!-- tip bud -->
  <circle cx="512" cy="510" r="28" fill="#66BB6A"/>
</svg>
