<svg xmlns="http://www.w3.org/2000/svg" viewBox="0 0 512 512">
  <defs>
    <linearGradient id="bg" x1="0%" y1="0%" x2="100%" y2="100%">
      <stop offset="0%" stop-color="#212121"/>
      <stop offset="100%" stop-color="#424242"/>
    </linearGradient>
    <linearGradient id="tl" x1="0%" y1="0%" x2="100%" y2="0%">
      <stop offset="0%" stop-color="#ff5252"/>
      <stop offset="50%" stop-color="#ffab40"/>
      <stop offset="100%" stop-color="#69f0ae"/>
    </linearGradient>
  </defs>
  <rect width="512" height="512" rx="80" fill="url(#bg)"/>
  <!-- 타임라인 메인 라인 -->
  <line x1="80" y1="256" x2="432" y2="256" stroke="url(#tl)" stroke-width="8"/>
  <!-- 타임라인 화살표 -->
  <polygon points="432,256 412,244 412,268" fill="#69f0ae"/>
  <!-- 로그 이벤트 포인트들 -->
  <circle cx="130" cy="256" r="14" fill="#ff5252"/>
  <circle cx="185" cy="256" r="14" fill="#ff5252"/>
  <circle cx="240" cy="256" r="14" fill="#ffab40"/>
  <circle cx="295" cy="256" r="14" fill="#ffab40"/>
  <circle cx="350" cy="256" r="14" fill="#69f0ae"/>
  <!-- 이벤트 레이블 (위/아래 교대) -->
  <rect x="108" y="180" width="44" height="54" rx="6" fill="#ff5252" opacity="0.3"/>
  <line x1="130" y1="234" x2="130" y2="242" stroke="#ff5252" stroke-width="3"/>
  <rect x="163" y="292" width="44" height="54" rx="6" fill="#ff5252" opacity="0.3"/>
  <line x1="185" y1="270" x2="185" y2="278" stroke="#ff5252" stroke-width="3"/>
  <rect x="218" y="180" width="44" height="54" rx="6" fill="#ffab40" opacity="0.3"/>
  <line x1="240" y1="234" x2="240" y2="242" stroke="#ffab40" stroke-width="3"/>
  <rect x="273" y="292" width="44" height="54" rx="6" fill="#ffab40" opacity="0.3"/>
  <line x1="295" y1="270" x2="295" y2="278" stroke="#ffab40" stroke-width="3"/>
  <rect x="328" y="180" width="44" height="54" rx="6" fill="#69f0ae" opacity="0.3"/>
  <line x1="350" y1="234" x2="350" y2="242" stroke="#69f0ae" stroke-width="3"/>
  <!-- 소스 레이블 -->
  <rect x="80" y="80" width="80" height="20" rx="4" fill="#ff5252" opacity="0.7"/>
  <rect x="80" y="108" width="80" height="20" rx="4" fill="#ffab40" opacity="0.7"/>
  <rect x="80" y="136" width="80" height="20" rx="4" fill="#69f0ae" opacity="0.7"/>
</svg>
