<svg xmlns="http://www.w3.org/2000/svg" viewBox="0 0 1024 1024">
  <defs>
    <linearGradient id="bg_lm02" x1="0" y1="0" x2="0" y2="1">
      <stop offset="0%" stop-color="#F5F5F5"/>
      <stop offset="100%" stop-color="#E8E8E8"/>
    </linearGradient>
  </defs>

  <!-- Layer 1: Background -->
  <rect width="1024" height="1024" fill="url(#bg_lm02)" rx="120"/>

  <!-- Layer 2: Vertical timeline center line -->
  <rect x="180" y="140" width="12" height="750" rx="6" fill="#CCCCCC"/>

  <!-- Layer 3: Log rows with colored source dots -->
  <!-- Row 1 - Orange source -->
  <circle cx="186" cy="200" r="26" fill="#FF6B35" stroke="white" stroke-width="8"/>
  <rect x="240" y="180" width="680" height="40" rx="8" fill="#FFE0D0" opacity="0.9"/>
  <rect x="260" y="192" width="420" height="16" rx="4" fill="#FF6B35" opacity="0.4"/>

  <!-- Row 2 - Cyan source -->
  <circle cx="186" cy="300" r="26" fill="#00BCD4" stroke="white" stroke-width="8"/>
  <rect x="240" y="280" width="680" height="40" rx="8" fill="#E0F7FA" opacity="0.9"/>
  <rect x="260" y="292" width="380" height="16" rx="4" fill="#00BCD4" opacity="0.4"/>

  <!-- Row 3 - Orange source -->
  <circle cx="186" cy="400" r="26" fill="#FF6B35" stroke="white" stroke-width="8"/>
  <rect x="240" y="380" width="680" height="40" rx="8" fill="#FFE0D0" opacity="0.9"/>
  <rect x="260" y="392" width="500" height="16" rx="4" fill="#FF6B35" opacity="0.4"/>

  <!-- Row 4 - Green source -->
  <circle cx="186" cy="500" r="26" fill="#4CAF50" stroke="white" stroke-width="8"/>
  <rect x="240" y="480" width="680" height="40" rx="8" fill="#E8F5E9" opacity="0.9"/>
  <rect x="260" y="492" width="460" height="16" rx="4" fill="#4CAF50" opacity="0.4"/>

  <!-- Row 5 - Pink source -->
  <circle cx="186" cy="600" r="26" fill="#E91E8C" stroke="white" stroke-width="8"/>
  <rect x="240" y="580" width="680" height="40" rx="8" fill="#FCE4EC" opacity="0.9"/>
  <rect x="260" y="592" width="340" height="16" rx="4" fill="#E91E8C" opacity="0.4"/>

  <!-- Row 6 - Cyan source -->
  <circle cx="186" cy="700" r="26" fill="#00BCD4" stroke="white" stroke-width="8"/>
  <rect x="240" y="680" width="680" height="40" rx="8" fill="#E0F7FA" opacity="0.9"/>
  <rect x="260" y="692" width="480" height="16" rx="4" fill="#00BCD4" opacity="0.4"/>

  <!-- Row 7 - Green source -->
  <circle cx="186" cy="800" r="26" fill="#4CAF50" stroke="white" stroke-width="8"/>
  <rect x="240" y="780" width="680" height="40" rx="8" fill="#E8F5E9" opacity="0.9"/>
  <rect x="260" y="792" width="360" height="16" rx="4" fill="#4CAF50" opacity="0.4"/>

  <!-- Timestamp header -->
  <text x="240" y="140" font-family="'Segoe UI', Arial" font-size="36" font-weight="700"
    fill="#666666">TIMELINE</text>
  <rect x="540" y="110" width="380" height="40" rx="6" fill="#DDDDDD" opacity="0.7"/>
  <text x="730" y="138" font-family="monospace" font-size="28" fill="#888888"
    text-anchor="middle">2026-03-28</text>
</svg>
