<svg xmlns="http://www.w3.org/2000/svg" viewBox="0 0 512 512">
  <defs>
    <linearGradient id="bg" x1="0" y1="0" x2="0" y2="1">
      <stop offset="0%" stop-color="#0d0000"/>
      <stop offset="100%" stop-color="#200800"/>
    </linearGradient>
    <linearGradient id="flame" x1="0" y1="1" x2="0" y2="0">
      <stop offset="0%" stop-color="#FF4400"/>
      <stop offset="50%" stop-color="#FFAA00"/>
      <stop offset="100%" stop-color="#FFFF44"/>
    </linearGradient>
    <radialGradient id="glow" cx="50%" cy="80%" r="50%">
      <stop offset="0%" stop-color="#FF4400" stop-opacity="0.4"/>
      <stop offset="100%" stop-color="#FF4400" stop-opacity="0"/>
    </radialGradient>
  </defs>
  <rect width="512" height="512" rx="80" fill="url(#bg)"/>
  <circle cx="256" cy="350" r="200" fill="url(#glow)"/>
  <!-- Beat bars (fire colored) -->
  <rect x="72" y="300" width="30" height="100" rx="6" fill="url(#flame)" opacity="0.7"/>
  <rect x="112" y="260" width="30" height="140" rx="6" fill="url(#flame)" opacity="0.75"/>
  <rect x="152" y="220" width="30" height="180" rx="6" fill="url(#flame)" opacity="0.8"/>
  <rect x="192" y="190" width="30" height="210" rx="6" fill="url(#flame)" opacity="0.85"/>
  <rect x="232" y="170" width="30" height="230" rx="6" fill="url(#flame)" opacity="0.9"/>
  <rect x="272" y="185" width="30" height="215" rx="6" fill="url(#flame)" opacity="0.85"/>
  <rect x="312" y="210" width="30" height="190" rx="6" fill="url(#flame)" opacity="0.8"/>
  <rect x="352" y="245" width="30" height="155" rx="6" fill="url(#flame)" opacity="0.75"/>
  <rect x="392" y="285" width="30" height="115" rx="6" fill="url(#flame)" opacity="0.7"/>
  <!-- Flame on top of tallest bar -->
  <path d="M232,170 Q248,130 256,100 Q260,125 272,115 Q285,85 268,70 Q295,90 290,125 Q305,110 300,145 Q318,125 310,170 Z" fill="url(#flame)" opacity="0.9"/>
  <path d="M242,170 Q252,145 256,125 Q260,145 270,135 Q280,115 270,110 Q292,135 282,162 Q296,148 292,170 Z" fill="#FFFF88" opacity="0.6"/>
</svg>