<svg xmlns="http://www.w3.org/2000/svg" viewBox="0 0 1024 1024">
  <!-- icon_01: literal | 폴더 크기 막대 그래프 UI | 공간/장면 | 아이보리+파랑+주황 -->
  <defs>
    <linearGradient id="bg1" x1="0" y1="0" x2="0" y2="1">
      <stop offset="0%" stop-color="#FFFDE7"/>
      <stop offset="100%" stop-color="#FFF9C4"/>
    </linearGradient>
    <filter id="sh1" x="-10%" y="-10%" width="120%" height="120%">
      <feDropShadow dx="0" dy="5" stdDeviation="7" flood-color="#F57F17" flood-opacity="0.15"/>
    </filter>
  </defs>
  <rect width="1024" height="1024" rx="190" fill="url(#bg1)"/>

  <!-- Layer 2: Panel -->
  <rect x="60" y="80" width="904" height="864" rx="24" fill="white" filter="url(#sh1)"/>
  <rect x="60" y="80" width="904" height="76" rx="24" fill="#F57F17"/>
  <rect x="60" y="128" width="904" height="28" fill="#F57F17"/>
  <text x="512" y="116" font-family="Arial Black, sans-serif" font-size="34" fill="white"
        text-anchor="middle" dominant-baseline="middle">C:\Users\  — 디스크 분석</text>

  <!-- Layer 3: Folder size bars -->
  <!-- Row labels + bars -->
  <!-- Documents: 42.3 GB -->
  <text x="90" y="228" font-family="Arial, sans-serif" font-size="34" fill="#37474F"
        dominant-baseline="middle">📁 Documents</text>
  <rect x="380" y="205" width="530" height="46" rx="6" fill="#ECEFF1"/>
  <rect x="380" y="205" width="360" height="46" rx="6" fill="#1565C0"/>
  <text x="750" y="228" font-family="Arial, sans-serif" font-size="30" fill="white"
        text-anchor="middle" dominant-baseline="middle">42.3 GB</text>

  <!-- Downloads: 28.1 GB -->
  <text x="90" y="310" font-family="Arial, sans-serif" font-size="34" fill="#37474F"
        dominant-baseline="middle">📁 Downloads</text>
  <rect x="380" y="287" width="530" height="46" rx="6" fill="#ECEFF1"/>
  <rect x="380" y="287" width="238" height="46" rx="6" fill="#FF7043"/>
  <text x="599" y="310" font-family="Arial, sans-serif" font-size="30" fill="white"
        text-anchor="middle" dominant-baseline="middle">28.1 GB</text>

  <!-- Videos: 86.5 GB -->
  <text x="90" y="392" font-family="Arial, sans-serif" font-size="34" fill="#37474F"
        dominant-baseline="middle">📁 Videos</text>
  <rect x="380" y="369" width="530" height="46" rx="6" fill="#ECEFF1"/>
  <rect x="380" y="369" width="498" height="46" rx="6" fill="#7B1FA2"/>
  <text x="629" y="392" font-family="Arial, sans-serif" font-size="30" fill="white"
        text-anchor="middle" dominant-baseline="middle">86.5 GB</text>

  <!-- AppData: 15.2 GB -->
  <text x="90" y="474" font-family="Arial, sans-serif" font-size="34" fill="#37474F"
        dominant-baseline="middle">📁 AppData</text>
  <rect x="380" y="451" width="530" height="46" rx="6" fill="#ECEFF1"/>
  <rect x="380" y="451" width="130" height="46" rx="6" fill="#43A047"/>
  <text x="445" y="474" font-family="Arial, sans-serif" font-size="30" fill="white"
        text-anchor="middle" dominant-baseline="middle">15.2 GB</text>

  <!-- Pictures: 9.8 GB -->
  <text x="90" y="556" font-family="Arial, sans-serif" font-size="34" fill="#37474F"
        dominant-baseline="middle">📁 Pictures</text>
  <rect x="380" y="533" width="530" height="46" rx="6" fill="#ECEFF1"/>
  <rect x="380" y="533" width="84" height="46" rx="6" fill="#00838F"/>
  <text x="422" y="556" font-family="Arial, sans-serif" font-size="28" fill="white"
        text-anchor="middle" dominant-baseline="middle">9.8G</text>

  <!-- Other fading rows -->
  <text x="90" y="638" font-family="Arial, sans-serif" font-size="32" fill="#90A4AE"
        dominant-baseline="middle">📁 Desktop</text>
  <rect x="380" y="615" width="530" height="44" rx="6" fill="#ECEFF1"/>
  <rect x="380" y="615" width="46" height="44" rx="6" fill="#B0BEC5"/>

  <text x="90" y="718" font-family="Arial, sans-serif" font-size="32" fill="#90A4AE"
        dominant-baseline="middle">📁 Music</text>
  <rect x="380" y="695" width="530" height="44" rx="6" fill="#ECEFF1"/>
  <rect x="380" y="695" width="26" height="44" rx="6" fill="#B0BEC5"/>

  <!-- Status -->
  <text x="90" y="900" font-family="Arial, sans-serif" font-size="30" fill="#546E7A"
        dominant-baseline="middle">총 182.2 GB 사용 중  /  500 GB  (36%)</text>
</svg>
