<svg xmlns="http://www.w3.org/2000/svg" viewBox="0 0 1024 1024">
  <defs>
    <linearGradient id="bg2" x1="0" y1="0" x2="1" y2="1">
      <stop offset="0%" stop-color="#E3F2FD"/>
      <stop offset="100%" stop-color="#BBDEFB"/>
    </linearGradient>
  </defs>
  <!-- Layer 1: 하늘 배경 -->
  <rect width="1024" height="1024" rx="200" fill="url(#bg2)"/>

  <!-- Layer 2: PATH 변수 편집기 UI -->
  <!-- 창 -->
  <rect x="80" y="120" width="864" height="760" rx="24" fill="#1E1E2E" opacity="0.9"/>
  <!-- 헤더 -->
  <rect x="80" y="120" width="864" height="70" rx="24" fill="#12121E"/>
  <text x="200" y="157" font-family="'Segoe UI',Arial,sans-serif" font-weight="700" font-size="36" fill="#90CAF9" dominant-baseline="middle">Path.Guard</text>
  <!-- 관리자 배지 -->
  <rect x="720" y="132" width="200" height="46" rx="12" fill="#2E7D32"/>
  <text x="820" y="158" font-family="'Segoe UI',Arial,sans-serif" font-size="28" fill="white" text-anchor="middle" dominant-baseline="middle">🛡 Admin</text>

  <!-- PATH 항목 리스트 -->
  <rect x="100" y="220" width="824" height="56" rx="10" fill="#0D2A1A" opacity="0.9"/>
  <rect x="100" y="220" width="6" height="56" rx="3" fill="#00E676"/>
  <text x="130" y="250" font-family="'Courier New',monospace" font-size="28" fill="#69F0AE" dominant-baseline="middle">C:\Windows\system32</text>

  <rect x="100" y="290" width="824" height="56" rx="10" fill="#0D2A1A" opacity="0.7"/>
  <rect x="100" y="290" width="6" height="56" rx="3" fill="#00E676"/>
  <text x="130" y="320" font-family="'Courier New',monospace" font-size="28" fill="#69F0AE" dominant-baseline="middle">C:\Program Files\nodejs</text>

  <rect x="100" y="360" width="824" height="56" rx="10" fill="#2A0D0D" opacity="0.9"/>
  <rect x="100" y="360" width="6" height="56" rx="3" fill="#EF5350"/>
  <text x="130" y="390" font-family="'Courier New',monospace" font-size="28" fill="#EF9A9A" dominant-baseline="middle">C:\old\deleted\sdk   ⚠ missing</text>

  <rect x="100" y="430" width="824" height="56" rx="10" fill="#1A1A0D" opacity="0.7"/>
  <rect x="100" y="430" width="6" height="56" rx="3" fill="#FFD740"/>
  <text x="130" y="460" font-family="'Courier New',monospace" font-size="28" fill="#FFF59D" dominant-baseline="middle">C:\Users\admin\bin</text>

  <!-- 편집 폼 (하단) -->
  <rect x="100" y="530" width="824" height="80" rx="16" fill="#263238"/>
  <text x="130" y="572" font-family="'Courier New',monospace" font-size="30" fill="#90A4AE" dominant-baseline="middle">C:\new\path\to\add</text>
  <!-- 커서 -->
  <rect x="544" y="542" width="6" height="50" rx="2" fill="#42A5F5"/>

  <!-- 버튼 바 -->
  <rect x="100" y="644" width="180" height="60" rx="14" fill="#2E7D32"/>
  <text x="190" y="676" font-family="'Segoe UI',Arial,sans-serif" font-weight="700" font-size="30" fill="white" text-anchor="middle" dominant-baseline="middle">+ Add</text>
  <rect x="300" y="644" width="180" height="60" rx="14" fill="#D32F2F"/>
  <text x="390" y="676" font-family="'Segoe UI',Arial,sans-serif" font-weight="700" font-size="30" fill="white" text-anchor="middle" dominant-baseline="middle">- Remove</text>
  <rect x="700" y="644" width="220" height="60" rx="14" fill="#1565C0"/>
  <text x="810" y="676" font-family="'Segoe UI',Arial,sans-serif" font-weight="700" font-size="30" fill="white" text-anchor="middle" dominant-baseline="middle">💾 Save</text>

  <!-- Layer 3: 스냅샷 배지 -->
  <rect x="100" y="744" width="824" height="70" rx="16" fill="#0D2040" opacity="0.8"/>
  <text x="512" y="781" font-family="'Segoe UI',Arial,sans-serif" font-size="30" fill="#546E7A" text-anchor="middle" dominant-baseline="middle">📸 Snapshot: 2026-03-30 02:00</text>
</svg>
