<svg xmlns="http://www.w3.org/2000/svg" viewBox="0 0 512 512">
  <defs>
    <linearGradient id="bg" x1="0%" y1="0%" x2="100%" y2="100%">
      <stop offset="0%" style="stop-color:#030508"/>
      <stop offset="100%" style="stop-color:#04100e"/>
    </linearGradient>
    <radialGradient id="galaxyCore" cx="50%" cy="50%" r="50%">
      <stop offset="0%" style="stop-color:#22D3EE;stop-opacity:0.6"/>
      <stop offset="40%" style="stop-color:#06B6D4;stop-opacity:0.2"/>
      <stop offset="100%" style="stop-color:#06B6D4;stop-opacity:0"/>
    </radialGradient>
    <filter id="glow">
      <feGaussianBlur stdDeviation="4" result="blur"/>
      <feComposite in="SourceGraphic" in2="blur" operator="over"/>
    </filter>
  </defs>
  <rect width="512" height="512" rx="80" fill="url(#bg)"/>
  <!-- 은하 배경 -->
  <circle cx="256" cy="256" r="180" fill="url(#galaxyCore)" filter="url(#glow)"/>
  <!-- 은하 나선팔 -->
  <path d="M 256,256 Q 340,180 400,140 Q 440,120 445,150" fill="none" stroke="#06B6D4" stroke-width="2" opacity="0.4"/>
  <path d="M 256,256 Q 160,180 100,140 Q 65,120 70,155" fill="none" stroke="#22D3EE" stroke-width="2" opacity="0.4"/>
  <path d="M 256,256 Q 340,330 390,390 Q 420,430 400,445" fill="none" stroke="#06B6D4" stroke-width="2" opacity="0.35"/>
  <path d="M 256,256 Q 160,330 112,390 Q 85,430 105,445" fill="none" stroke="#22D3EE" stroke-width="2" opacity="0.35"/>
  <!-- 쌍 파일들 (은하에 쌍으로 배치) -->
  <!-- 쌍 1 (위) -->
  <g transform="translate(215, 100)">
    <rect x="0" y="0" width="36" height="45" rx="4" fill="#06B6D4" opacity="0.85"/>
    <polygon points="0,0 18,0 18,-14 36,0" fill="#22D3EE" opacity="0.8"/>
  </g>
  <g transform="translate(263, 95)">
    <rect x="0" y="0" width="36" height="45" rx="4" fill="#06B6D4" opacity="0.7"/>
    <polygon points="0,0 18,0 18,-14 36,0" fill="#22D3EE" opacity="0.65"/>
  </g>
  <line x1="251" y1="122" x2="263" y2="120" stroke="#67E8F9" stroke-width="1.5" opacity="0.6" stroke-dasharray="3,2"/>
  <!-- 쌍 2 (우) -->
  <g transform="translate(380, 218)">
    <rect x="0" y="0" width="32" height="40" rx="4" fill="#22D3EE" opacity="0.8"/>
    <polygon points="0,0 16,0 16,-12 32,0" fill="#67E8F9" opacity="0.75"/>
  </g>
  <g transform="translate(385, 260)">
    <rect x="0" y="0" width="32" height="40" rx="4" fill="#22D3EE" opacity="0.65"/>
    <polygon points="0,0 16,0 16,-12 32,0" fill="#67E8F9" opacity="0.6"/>
  </g>
  <line x1="401" y1="258" x2="402" y2="260" stroke="#22D3EE" stroke-width="1.5" opacity="0.5" stroke-dasharray="3,2"/>
  <!-- 쌍 3 (하) -->
  <g transform="translate(218, 370)">
    <rect x="0" y="0" width="32" height="40" rx="4" fill="#06B6D4" opacity="0.75"/>
    <polygon points="0,0 16,0 16,-12 32,0" fill="#22D3EE" opacity="0.7"/>
  </g>
  <g transform="translate(263, 378)">
    <rect x="0" y="0" width="32" height="40" rx="4" fill="#06B6D4" opacity="0.62"/>
    <polygon points="0,0 16,0 16,-12 32,0" fill="#22D3EE" opacity="0.58"/>
  </g>
  <!-- 쌍 4 (좌) -->
  <g transform="translate(98, 218)">
    <rect x="0" y="0" width="32" height="40" rx="4" fill="#22D3EE" opacity="0.78"/>
    <polygon points="0,0 16,0 16,-12 32,0" fill="#67E8F9" opacity="0.73"/>
  </g>
  <g transform="translate(92, 260)">
    <rect x="0" y="0" width="32" height="40" rx="4" fill="#22D3EE" opacity="0.65"/>
    <polygon points="0,0 16,0 16,-12 32,0" fill="#67E8F9" opacity="0.6"/>
  </g>
  <!-- 중심 - DNA 나선 표시 -->
  <circle cx="256" cy="256" r="26" fill="#06B6D4" opacity="0.85" filter="url(#glow)"/>
  <circle cx="256" cy="256" r="18" fill="#22D3EE" opacity="1" filter="url(#glow)"/>
  <text x="256" y="261" text-anchor="middle" font-family="Arial" font-size="11" fill="#030508" font-weight="bold">CLN</text>
  <!-- 배경 별들 -->
  <circle cx="180" cy="80" r="1.5" fill="#67E8F9" opacity="0.5"/>
  <circle cx="420" cy="110" r="1.5" fill="#22D3EE" opacity="0.4"/>
  <circle cx="460" cy="360" r="1.5" fill="#06B6D4" opacity="0.5"/>
  <circle cx="80" cy="400" r="1.5" fill="#67E8F9" opacity="0.4"/>
</svg>