<svg xmlns="http://www.w3.org/2000/svg" viewBox="0 0 512 512">
  <defs>
    <linearGradient id="bg" x1="0%" y1="0%" x2="100%" y2="100%">
      <stop offset="0%" stop-color="#1B5E20"/>
      <stop offset="100%" stop-color="#2E7D32"/>
    </linearGradient>
    <linearGradient id="paper" x1="0%" y1="0%" x2="100%" y2="100%">
      <stop offset="0%" stop-color="#F1F8E9"/>
      <stop offset="100%" stop-color="#DCEDC8"/>
    </linearGradient>
  </defs>
  <rect width="512" height="512" rx="80" fill="url(#bg)"/>
  <!-- 노트북 -->
  <rect x="60" y="70" width="340" height="380" rx="16" fill="url(#paper)"/>
  <!-- 바인더 링 -->
  <rect x="40" y="70" width="40" height="380" rx="12" fill="#388E3C"/>
  <circle cx="60" cy="130" r="14" fill="#2E7D32"/>
  <circle cx="60" cy="190" r="14" fill="#2E7D32"/>
  <circle cx="60" cy="250" r="14" fill="#2E7D32"/>
  <circle cx="60" cy="310" r="14" fill="#2E7D32"/>
  <circle cx="60" cy="370" r="14" fill="#2E7D32"/>
  <!-- 줄 -->
  <line x1="90" y1="150" x2="380" y2="150" stroke="#C8E6C9" stroke-width="2"/>
  <line x1="90" y1="200" x2="380" y2="200" stroke="#C8E6C9" stroke-width="2"/>
  <line x1="90" y1="250" x2="380" y2="250" stroke="#C8E6C9" stroke-width="2"/>
  <line x1="90" y1="300" x2="380" y2="300" stroke="#C8E6C9" stroke-width="2"/>
  <line x1="90" y1="350" x2="380" y2="350" stroke="#C8E6C9" stroke-width="2"/>
  <!-- 잉크 필기 스트로크들 -->
  <path d="M 100 170 Q 150 155 200 170 Q 250 185 310 165" fill="none" stroke="#1B5E20" stroke-width="5" stroke-linecap="round"/>
  <path d="M 100 220 Q 160 210 230 225 Q 280 235 340 218" fill="none" stroke="#2E7D32" stroke-width="4" stroke-linecap="round"/>
  <!-- 스타일러스 -->
  <g transform="rotate(-30 380 80)">
    <rect x="365" y="60" width="16" height="100" rx="5" fill="#81C784"/>
    <polygon points="365,160 381,160 373,185" fill="#4CAF50"/>
  </g>
</svg>