<svg xmlns="http://www.w3.org/2000/svg" viewBox="0 0 1024 1024">
  <rect x="80" y="80" width="864" height="864" rx="180" fill="#000A05"/>
  <!-- Moon -->
  <path d="M650 280 Q500 300 440 440 Q380 580 480 700 Q580 820 740 780 Q580 760 530 640 Q480 520 540 400 Q600 280 650 280Z" fill="#1B5E20" fill-opacity="0.85"/>
  <!-- Stars/code symbols -->
  <rect x="220" y="280" width="70" height="16" rx="6" fill="#66BB6A"/>
  <rect x="220" y="310" width="50" height="16" rx="6" fill="#A5D6A7" fill-opacity="0.7"/>
  <rect x="780" y="380" width="60" height="16" rx="6" fill="#66BB6A" fill-opacity="0.7"/>
  <rect x="780" y="410" width="45" height="16" rx="6" fill="#A5D6A7" fill-opacity="0.5"/>
  <!-- Falling code blocks -->
  <rect x="240" y="450" width="60" height="16" rx="6" fill="#A5D6A7" fill-opacity="0.6"/>
  <rect x="240" y="490" width="80" height="16" rx="6" fill="#66BB6A" fill-opacity="0.5"/>
  <rect x="240" y="530" width="45" height="16" rx="6" fill="#1B5E20" fill-opacity="0.8"/>
  <!-- Auto counter growing -->
  <circle cx="350" cy="730" r="60" fill="#1B5E20"/>
  <circle cx="512" cy="730" r="80" fill="#1B5E20"/>
  <circle cx="680" cy="730" r="60" fill="#1B5E20"/>
  <circle cx="350" cy="730" r="40" fill="#66BB6A" fill-opacity="0.5"/>
  <circle cx="512" cy="730" r="58" fill="#66BB6A" fill-opacity="0.6"/>
  <circle cx="680" cy="730" r="40" fill="#66BB6A" fill-opacity="0.5"/>
</svg>