<svg xmlns="http://www.w3.org/2000/svg" viewBox="0 0 512 512">
  <defs>
    <linearGradient id="bg" x1="0%" y1="0%" x2="100%" y2="100%">
      <stop offset="0%" stop-color="#1a1a2e"/>
      <stop offset="100%" stop-color="#16213e"/>
    </linearGradient>
    <filter id="shadow">
      <feDropShadow dx="0" dy="3" stdDeviation="4" flood-color="#000" flood-opacity="0.4"/>
    </filter>
  </defs>
  <rect width="512" height="512" rx="80" fill="url(#bg)"/>
  <!-- Mosaic flag tiles arranged in a circle -->
  <!-- Row 1 -->
  <rect x="136" y="96" width="70" height="46" rx="6" fill="#003399" filter="url(#shadow)"/>
  <rect x="136" y="96" width="70" height="15" rx="0" fill="#003399"/>
  <rect x="136" y="111" width="70" height="15" fill="#FFCC00"/>
  <rect x="136" y="126" width="70" height="16" rx="0" fill="#CC0000"/>
  <rect x="136" y="96" width="70" height="46" rx="6" fill="none" stroke="#ffffff" stroke-width="1.5" opacity="0.3"/>

  <rect x="218" y="96" width="70" height="46" rx="6" fill="#003580" filter="url(#shadow)"/>
  <rect x="218" y="96" width="70" height="46" rx="6" fill="#003580"/>
  <rect x="218" y="96" width="35" height="46" fill="#CC0000" rx="0"/>
  <rect x="218" y="96" width="70" height="46" rx="6" fill="none" stroke="#ffffff" stroke-width="1.5" opacity="0.3"/>

  <rect x="300" y="96" width="70" height="46" rx="6" fill="#EF3340" filter="url(#shadow)"/>
  <rect x="300" y="96" width="70" height="15" rx="0" fill="#EF3340"/>
  <rect x="300" y="111" width="70" height="16" fill="#ffffff"/>
  <rect x="300" y="127" width="70" height="15" rx="0" fill="#003DA5"/>
  <rect x="300" y="96" width="70" height="46" rx="6" fill="none" stroke="#ffffff" stroke-width="1.5" opacity="0.3"/>

  <!-- Row 2 -->
  <rect x="96" y="154" width="70" height="46" rx="6" fill="#002868" filter="url(#shadow)"/>
  <rect x="96" y="154" width="70" height="46" rx="6" fill="#BF0A30"/>
  <rect x="96" y="154" width="28" height="46" fill="#002868"/>
  <circle cx="114" cy="177" r="12" fill="#ffffff" opacity="0.9"/>
  <rect x="96" y="154" width="70" height="46" rx="6" fill="none" stroke="#ffffff" stroke-width="1.5" opacity="0.3"/>

  <rect x="178" y="154" width="70" height="46" rx="6" fill="#006847" filter="url(#shadow)"/>
  <rect x="178" y="154" width="70" height="46" rx="6" fill="#006847"/>
  <rect x="178" y="154" width="70" height="15" fill="#ffffff"/>
  <rect x="178" y="185" width="70" height="15" rx="0" fill="#006847"/>
  <rect x="178" y="154" width="70" height="46" rx="6" fill="none" stroke="#ffffff" stroke-width="1.5" opacity="0.3"/>

  <rect x="260" y="154" width="70" height="46" rx="6" fill="#d52b1e" filter="url(#shadow)"/>
  <circle cx="295" cy="177" r="16" fill="#ffffff"/>
  <circle cx="295" cy="177" r="12" fill="#d52b1e"/>
  <rect x="260" y="154" width="70" height="46" rx="6" fill="none" stroke="#ffffff" stroke-width="1.5" opacity="0.3"/>

  <rect x="342" y="154" width="70" height="46" rx="6" fill="#FFD700" filter="url(#shadow)"/>
  <rect x="342" y="154" width="70" height="46" rx="6" fill="#FFD700"/>
  <rect x="342" y="154" width="24" height="46" fill="#000000"/>
  <rect x="366" y="154" width="23" height="46" fill="#DD0000"/>
  <rect x="342" y="154" width="70" height="46" rx="6" fill="none" stroke="#ffffff" stroke-width="1.5" opacity="0.3"/>

  <!-- Row 3 -->
  <rect x="136" y="212" width="70" height="46" rx="6" fill="#009246" filter="url(#shadow)"/>
  <rect x="136" y="212" width="70" height="46" rx="6" fill="#009246"/>
  <rect x="160" y="212" width="24" height="46" fill="#ffffff"/>
  <rect x="184" y="212" width="22" height="46" fill="#CE2B37"/>
  <rect x="136" y="212" width="70" height="46" rx="6" fill="none" stroke="#ffffff" stroke-width="1.5" opacity="0.3"/>

  <rect x="218" y="212" width="70" height="46" rx="6" fill="#003087" filter="url(#shadow)"/>
  <rect x="218" y="212" width="70" height="15" rx="0" fill="#003087"/>
  <rect x="218" y="227" width="70" height="16" fill="#ffffff"/>
  <rect x="218" y="243" width="70" height="15" rx="0" fill="#CC0001"/>
  <rect x="218" y="212" width="70" height="46" rx="6" fill="none" stroke="#ffffff" stroke-width="1.5" opacity="0.3"/>

  <rect x="300" y="212" width="70" height="46" rx="6" fill="#BC0026" filter="url(#shadow)"/>
  <rect x="300" y="212" width="70" height="46" rx="6" fill="#BC0026"/>
  <rect x="300" y="212" width="24" height="46" fill="#ffffff"/>
  <rect x="300" y="212" width="70" height="46" rx="6" fill="none" stroke="#ffffff" stroke-width="1.5" opacity="0.3"/>

  <!-- Center language code badge -->
  <circle cx="256" cy="340" r="75" fill="#1a1a2e" stroke="#56CCF2" stroke-width="3"/>
  <circle cx="256" cy="340" r="68" fill="none" stroke="#56CCF2" stroke-width="1" opacity="0.4"/>
  <!-- L10N text as shapes -->
  <rect x="218" y="320" width="12" height="40" rx="3" fill="#56CCF2"/>
  <rect x="218" y="348" width="20" height="12" rx="3" fill="#56CCF2"/>
  <rect x="246" y="320" width="12" height="12" rx="3" fill="#ffd200"/>
  <rect x="246" y="338" width="12" height="22" rx="3" fill="#ffd200"/>
  <rect x="268" y="320" width="12" height="40" rx="3" fill="#56CCF2"/>
  <rect x="280" y="348" width="14" height="12" rx="3" fill="#56CCF2"/>
  <!-- Decorative dots around badge -->
  <circle cx="256" cy="270" r="4" fill="#56CCF2" opacity="0.7"/>
  <circle cx="256" cy="410" r="4" fill="#56CCF2" opacity="0.7"/>
  <circle cx="186" cy="340" r="4" fill="#56CCF2" opacity="0.7"/>
  <circle cx="326" cy="340" r="4" fill="#56CCF2" opacity="0.7"/>
</svg>
