<svg viewBox="0 0 1024 1024" xmlns="http://www.w3.org/2000/svg">
  <!-- Geo.Quiz | 리더보드 — 지식 퀴즈 순위판 | 대각선/동적 | #0A0A28 -->
  <!-- Layer 1: Background -->
  <rect width="1024" height="1024" rx="160" fill="#0A0A28"/>
  <!-- Stars decoration -->
  <circle cx="180" cy="200" r="2" fill="#FFD700" opacity="0.6"/>
  <circle cx="850" cy="250" r="2" fill="#FFD700" opacity="0.5"/>
  <circle cx="200" cy="800" r="2" fill="#FFD700" opacity="0.4"/>
  <circle cx="820" cy="820" r="2" fill="#FFD700" opacity="0.6"/>
  <!-- Layer 2: Leaderboard frame -->
  <rect x="200" y="180" width="624" height="600" rx="16" fill="#10103A" stroke="#4A4A88" stroke-width="4"/>
  <!-- Header -->
  <rect x="200" y="180" width="624" height="70" rx="16" fill="#1A1A5A"/>
  <rect x="200" y="220" width="624" height="30" fill="#1A1A5A"/>
  <text x="512" y="223" font-family="Arial,sans-serif" font-size="22" fill="#FFD700" text-anchor="middle" font-weight="bold">🏆 LEADERBOARD</text>
  <!-- Rank 1 (gold) -->
  <rect x="216" y="268" width="592" height="72" rx="10" fill="#2A2000" stroke="#FFD700" stroke-width="3"/>
  <!-- Rank badge -->
  <circle cx="256" cy="304" r="24" fill="#FFD700"/>
  <text x="256" y="311" font-family="Arial,sans-serif" font-size="18" fill="#1A1000" text-anchor="middle" font-weight="bold">1</text>
  <!-- Crown -->
  <text x="256" y="284" font-family="Arial,sans-serif" font-size="14" text-anchor="middle">👑</text>
  <!-- Player name and country flag -->
  <text x="298" y="296" font-family="Arial,sans-serif" font-size="18" fill="#FFD700" font-weight="bold">GeoMaster_KR</text>
  <text x="298" y="320" font-family="Arial,sans-serif" font-size="13" fill="#AA9900">🇰🇷  정답률 98%  |  2,450점</text>
  <!-- Score bar -->
  <rect x="660" y="288" width="130" height="32" rx="6" fill="#3A3000" stroke="#FFD700" stroke-width="1"/>
  <rect x="662" y="290" width="126" height="28" rx="5" fill="#FFD700" opacity="0.9"/>
  <text x="725" y="310" font-family="monospace" font-size="14" fill="#1A1000" text-anchor="middle" font-weight="bold">2450</text>
  <!-- Rank 2 (silver) -->
  <rect x="216" y="352" width="592" height="64" rx="10" fill="#1A1A1A" stroke="#C0C0C0" stroke-width="2"/>
  <circle cx="256" cy="384" r="22" fill="#C0C0C0"/>
  <text x="256" y="391" font-family="Arial,sans-serif" font-size="16" fill="#1A1A1A" text-anchor="middle" font-weight="bold">2</text>
  <text x="298" y="376" font-family="Arial,sans-serif" font-size="16" fill="#C0C0C0" font-weight="bold">QuizPro_JP</text>
  <text x="298" y="398" font-family="Arial,sans-serif" font-size="12" fill="#888888">🇯🇵  정답률 94%  |  2,180점</text>
  <rect x="660" y="368" width="130" height="30" rx="6" fill="#282828" stroke="#C0C0C0" stroke-width="1"/>
  <rect x="662" y="370" width="104" height="26" rx="5" fill="#C0C0C0" opacity="0.8"/>
  <text x="714" y="388" font-family="monospace" font-size="13" fill="#1A1A1A" text-anchor="middle" font-weight="bold">2180</text>
  <!-- Rank 3 (bronze) -->
  <rect x="216" y="428" width="592" height="64" rx="10" fill="#1A0E00" stroke="#CD7F32" stroke-width="2"/>
  <circle cx="256" cy="460" r="22" fill="#CD7F32"/>
  <text x="256" y="467" font-family="Arial,sans-serif" font-size="16" fill="#1A0000" text-anchor="middle" font-weight="bold">3</text>
  <text x="298" y="452" font-family="Arial,sans-serif" font-size="16" fill="#CD7F32" font-weight="bold">WorldWiz_US</text>
  <text x="298" y="474" font-family="Arial,sans-serif" font-size="12" fill="#886644">🇺🇸  정답률 91%  |  1,920점</text>
  <rect x="660" y="444" width="130" height="30" rx="6" fill="#221200" stroke="#CD7F32" stroke-width="1"/>
  <rect x="662" y="446" width="90" height="26" rx="5" fill="#CD7F32" opacity="0.8"/>
  <text x="707" y="464" font-family="monospace" font-size="13" fill="#1A0000" text-anchor="middle" font-weight="bold">1920</text>
  <!-- Rank 4 -->
  <rect x="216" y="504" width="592" height="56" rx="10" fill="#141428" stroke="#3A3A5A" stroke-width="1"/>
  <circle cx="256" cy="532" r="18" fill="#3A3A5A"/>
  <text x="256" y="539" font-family="Arial,sans-serif" font-size="14" fill="#AAAACC" text-anchor="middle" font-weight="bold">4</text>
  <text x="298" y="526" font-family="Arial,sans-serif" font-size="14" fill="#8888AA">MapExpert_DE</text>
  <text x="298" y="548" font-family="Arial,sans-serif" font-size="12" fill="#606090">🇩🇪  정답률 87%  |  1,640점</text>
  <!-- Rank 5 (current player highlighted) -->
  <rect x="216" y="572" width="592" height="56" rx="10" fill="#001A28" stroke="#22D3EE" stroke-width="2"/>
  <circle cx="256" cy="600" r="18" fill="#22D3EE" opacity="0.8"/>
  <text x="256" y="607" font-family="Arial,sans-serif" font-size="14" fill="#001A28" text-anchor="middle" font-weight="bold">5</text>
  <text x="298" y="594" font-family="Arial,sans-serif" font-size="14" fill="#22D3EE" font-weight="bold">나 (YOU) ▶</text>
  <text x="298" y="616" font-family="Arial,sans-serif" font-size="12" fill="#88DDEE">🇰🇷  정답률 83%  |  1,380점</text>
  <!-- Layer 3: Bottom stats -->
  <text x="512" y="820" font-family="Arial,sans-serif" font-size="15" fill="#4A4A88" text-anchor="middle">전 세계 1,247명 참여 중</text>
</svg>
