<svg xmlns="http://www.w3.org/2000/svg" viewBox="0 0 512 512">
  <defs>
    <linearGradient id="bg" x1="0" y1="0" x2="0" y2="1">
      <stop offset="0%" stop-color="#0a0000"/>
      <stop offset="100%" stop-color="#1a0000"/>
    </linearGradient>
    <radialGradient id="radar" cx="50%" cy="50%" r="50%">
      <stop offset="0%" stop-color="#ff1744" stop-opacity="0.08"/>
      <stop offset="100%" stop-color="#ff1744" stop-opacity="0"/>
    </radialGradient>
    <radialGradient id="sweep" cx="50%" cy="50%" r="50%">
      <stop offset="0%" stop-color="#ff1744" stop-opacity="0.5"/>
      <stop offset="100%" stop-color="#ff1744" stop-opacity="0"/>
    </radialGradient>
  </defs>
  <rect width="512" height="512" rx="80" fill="url(#bg)"/>
  <!-- Radar rings -->
  <circle cx="256" cy="256" r="160" fill="url(#radar)" stroke="#ff1744" stroke-width="1.5" opacity="0.5"/>
  <circle cx="256" cy="256" r="110" fill="none" stroke="#ff1744" stroke-width="1" opacity="0.4"/>
  <circle cx="256" cy="256" r="60" fill="none" stroke="#ff1744" stroke-width="1" opacity="0.4"/>
  <!-- Crosshairs -->
  <line x1="96" y1="256" x2="416" y2="256" stroke="#ff1744" stroke-width="1" opacity="0.3"/>
  <line x1="256" y1="96" x2="256" y2="416" stroke="#ff1744" stroke-width="1" opacity="0.3"/>
  <!-- Sweep line -->
  <line x1="256" y1="256" x2="390" y2="148" stroke="#ff1744" stroke-width="3" opacity="0.9"/>
  <!-- Signal blips -->
  <circle cx="330" cy="180" r="8" fill="#ff6659" opacity="0.95"/>
  <circle cx="330" cy="180" r="16" fill="none" stroke="#ff6659" stroke-width="1.5" opacity="0.5"/>
  <circle cx="196" cy="310" r="6" fill="#ff6659" opacity="0.75"/>
  <circle cx="196" cy="310" r="12" fill="none" stroke="#ff6659" stroke-width="1" opacity="0.4"/>
  <circle cx="350" cy="300" r="5" fill="#ff6659" opacity="0.55"/>
  <!-- Center dot -->
  <circle cx="256" cy="256" r="6" fill="#ff1744"/>
  <!-- Event list overlay -->
  <rect x="88" y="380" width="336" height="72" rx="8" fill="#1a0000" stroke="#ff1744" stroke-width="1" opacity="0.85"/>
  <text x="104" y="402" font-family="monospace" font-size="12" fill="#ff6659">12:00:01.342  EVT_SIGNAL_HIGH</text>
  <text x="104" y="420" font-family="monospace" font-size="12" fill="#ff6659" opacity="0.75">12:00:01.380  EVT_SIGNAL_LOW</text>
  <text x="104" y="438" font-family="monospace" font-size="12" fill="#ff6659" opacity="0.55">12:00:01.421  EVT_PULSE</text>
</svg>
