<svg xmlns="http://www.w3.org/2000/svg" viewBox="0 0 1024 1024">
  <!-- icon_07: 도장 가짜 (stamp: mock seal) -->
  <rect x="80" y="80" width="864" height="864" rx="180" fill="#050510"/>
  <!-- 도장 손잡이 -->
  <rect x="432" y="180" width="160" height="80" rx="16" fill="#283593"/>
  <rect x="392" y="240" width="240" height="60" rx="12" fill="#283593"/>
  <!-- 도장 몸통 -->
  <rect x="312" y="300" width="400" height="140" rx="20" fill="#5C6BC0"/>
  <!-- 도장 잉크 패드 -->
  <rect x="272" y="440" width="480" height="40" rx="10" fill="#283593" opacity="0.6"/>
  <!-- 도장 찍힌 결과 (원형 씰) -->
  <circle cx="512" cy="670" r="180" fill="none" stroke="#5C6BC0" stroke-width="16"/>
  <circle cx="512" cy="670" r="148" fill="none" stroke="#5C6BC0" stroke-width="6" opacity="0.5"/>
  <!-- 씰 내부 X 표시 (가짜/MOCK) -->
  <line x1="400" y1="558" x2="624" y2="782" stroke="#5C6BC0" stroke-width="20" stroke-linecap="round" opacity="0.8"/>
  <line x1="624" y1="558" x2="400" y2="782" stroke="#5C6BC0" stroke-width="20" stroke-linecap="round" opacity="0.8"/>
  <!-- 씰 별 장식 (상/하) -->
  <polygon points="512,510 525,545 562,545 533,565 543,600 512,580 481,600 491,565 462,545 499,545" fill="#283593" opacity="0.8"/>
  <polygon points="512,830 525,795 562,795 533,775 543,740 512,760 481,740 491,775 462,795 499,795" fill="#283593" opacity="0.8"/>
</svg>
