<svg xmlns="http://www.w3.org/2000/svg" viewBox="0 0 1024 1024">
  <defs>
    <clipPath id="sf-bg-clip-02">
      <rect width="1024" height="1024" rx="180"/>
    </clipPath>
    <linearGradient id="sf-bg-grad-02" x1="0%" y1="0%" x2="100%" y2="100%">
      <stop offset="0%" stop-color="#0A0E14"/>
      <stop offset="100%" stop-color="#080C10"/>
    </linearGradient>
  </defs>
  <!-- 배경 -->
  <rect width="1024" height="1024" rx="180" fill="url(#sf-bg-grad-02)"/>
  <g clip-path="url(#sf-bg-clip-02)">
    <!-- 터미널/콘솔 창 -->
    <rect x="180" y="220" width="664" height="580" rx="16" fill="#0D1218" stroke="#1E2A38" stroke-width="5"/>
    <!-- 타이틀바 -->
    <rect x="180" y="220" width="664" height="46" rx="16" fill="#141C26"/>
    <rect x="180" y="248" width="664" height="18" fill="#141C26"/>
    <!-- 타이틀바 버튼 -->
    <circle cx="214" cy="243" r="10" fill="#FF5544"/>
    <circle cx="248" cy="243" r="10" fill="#FFBB00"/>
    <circle cx="282" cy="243" r="10" fill="#22CC44"/>
    <!-- 타이틀 텍스트 -->
    <rect x="390" y="234" width="130" height="18" rx="5" fill="#253040" opacity="0.7"/>
    <!-- 콘솔 내용 영역 -->
    <!-- 프롬프트 라인들 -->
    <!-- 타임스탬프 + 이벤트 라인 1 -->
    <rect x="208" y="288" width="90" height="14" rx="4" fill="#405060" opacity="0.7"/>
    <rect x="308" y="288" width="60" height="14" rx="4" fill="#FFAA00" opacity="0.9"/>
    <rect x="378" y="288" width="200" height="14" rx="4" fill="#E0E8F0" opacity="0.85"/>
    <!-- 라인 2 -->
    <rect x="208" y="316" width="90" height="14" rx="4" fill="#405060" opacity="0.7"/>
    <rect x="308" y="316" width="60" height="14" rx="4" fill="#22DD66" opacity="0.9"/>
    <rect x="378" y="316" width="240" height="14" rx="4" fill="#E0E8F0" opacity="0.80"/>
    <!-- 라인 3 -->
    <rect x="208" y="344" width="90" height="14" rx="4" fill="#405060" opacity="0.7"/>
    <rect x="308" y="344" width="60" height="14" rx="4" fill="#FFAA00" opacity="0.8"/>
    <rect x="378" y="344" width="180" height="14" rx="4" fill="#E0E8F0" opacity="0.75"/>
    <!-- 라인 4 (강조) -->
    <rect x="200" y="366" width="648" height="34" rx="4" fill="#1A3020" opacity="0.6"/>
    <rect x="208" y="372" width="90" height="14" rx="4" fill="#405060" opacity="0.7"/>
    <rect x="308" y="372" width="60" height="14" rx="4" fill="#22DD66" opacity="1.0"/>
    <rect x="378" y="372" width="320" height="14" rx="4" fill="#44FF88" opacity="0.9"/>
    <!-- 라인 5 -->
    <rect x="208" y="414" width="90" height="14" rx="4" fill="#405060" opacity="0.7"/>
    <rect x="308" y="414" width="60" height="14" rx="4" fill="#00AAFF" opacity="0.8"/>
    <rect x="378" y="414" width="260" height="14" rx="4" fill="#E0E8F0" opacity="0.75"/>
    <!-- 라인 6 -->
    <rect x="208" y="442" width="90" height="14" rx="4" fill="#405060" opacity="0.7"/>
    <rect x="308" y="442" width="60" height="14" rx="4" fill="#FFAA00" opacity="0.85"/>
    <rect x="378" y="442" width="200" height="14" rx="4" fill="#E0E8F0" opacity="0.80"/>
    <!-- 라인 7 -->
    <rect x="208" y="470" width="90" height="14" rx="4" fill="#405060" opacity="0.7"/>
    <rect x="308" y="470" width="60" height="14" rx="4" fill="#22DD66" opacity="0.8"/>
    <rect x="378" y="470" width="280" height="14" rx="4" fill="#E0E8F0" opacity="0.75"/>
    <!-- 라인 8 (현재 수신) -->
    <rect x="200" y="492" width="648" height="34" rx="4" fill="#182810" opacity="0.7"/>
    <rect x="208" y="498" width="90" height="14" rx="4" fill="#405060" opacity="0.7"/>
    <rect x="308" y="498" width="60" height="14" rx="4" fill="#22DD66" opacity="1.0"/>
    <rect x="378" y="498" width="360" height="14" rx="4" fill="#AAFFCC" opacity="0.9"/>
    <!-- 커서 블링크 -->
    <rect x="746" y="498" width="8" height="16" rx="2" fill="#22DD66"/>
    <!-- 스크롤 내려오는 추가 라인들 -->
    <rect x="208" y="540" width="90" height="12" rx="3" fill="#405060" opacity="0.5"/>
    <rect x="308" y="540" width="60" height="12" rx="3" fill="#FFAA00" opacity="0.5"/>
    <rect x="378" y="540" width="140" height="12" rx="3" fill="#E0E8F0" opacity="0.4"/>
    <rect x="208" y="564" width="90" height="12" rx="3" fill="#405060" opacity="0.4"/>
    <rect x="308" y="564" width="60" height="12" rx="3" fill="#22DD66" opacity="0.5"/>
    <rect x="378" y="564" width="180" height="12" rx="3" fill="#E0E8F0" opacity="0.35"/>
    <rect x="208" y="588" width="90" height="12" rx="3" fill="#405060" opacity="0.35"/>
    <rect x="308" y="588" width="60" height="12" rx="3" fill="#00AAFF" opacity="0.5"/>
    <rect x="378" y="588" width="220" height="12" rx="3" fill="#E0E8F0" opacity="0.3"/>
    <!-- 하단 상태 표시 -->
    <rect x="180" y="736" width="664" height="40" rx="8" fill="#0D1218" stroke="#1E2A38" stroke-width="2"/>
    <rect x="200" y="748" width="100" height="16" rx="4" fill="#22DD66" opacity="0.7"/>
    <rect x="680" y="748" width="140" height="16" rx="4" fill="#FFAA00" opacity="0.5"/>
    <!-- 실시간 스트리밍 인디케이터 (우상단) -->
    <circle cx="804" cy="243" r="8" fill="#FF4444"/>
    <rect x="818" y="236" width="14" height="14" rx="3" fill="none" stroke="#FF4444" stroke-width="2" opacity="0.6"/>
  </g>
</svg>
