<svg xmlns="http://www.w3.org/2000/svg" viewBox="0 0 1024 1024">
  <rect x="80" y="80" width="864" height="864" rx="180" fill="#0A0500"/>
  <!-- Tree trunk -->
  <rect x="480" y="600" width="64" height="220" rx="16" fill="#E65100"/>
  <!-- Ground roots -->
  <path d="M480 820 C420 840 360 830 300 850" fill="none" stroke="#E65100" stroke-width="22" stroke-linecap="round"/>
  <path d="M544 820 C600 840 660 830 720 850" fill="none" stroke="#E65100" stroke-width="22" stroke-linecap="round"/>
  <!-- Main branches -->
  <path d="M512 600 C512 520 380 480 300 420" fill="none" stroke="#E65100" stroke-width="30" stroke-linecap="round"/>
  <path d="M512 600 C512 520 644 480 724 420" fill="none" stroke="#E65100" stroke-width="30" stroke-linecap="round"/>
  <path d="M512 600 C512 500 512 440 512 360" fill="none" stroke="#E65100" stroke-width="28" stroke-linecap="round"/>
  <!-- Sub-branches left -->
  <path d="M300 420 C260 370 220 340 200 290" fill="none" stroke="#FF8A65" stroke-width="18" stroke-linecap="round"/>
  <path d="M300 420 C300 360 320 320 330 270" fill="none" stroke="#FF8A65" stroke-width="18" stroke-linecap="round"/>
  <!-- Sub-branches right -->
  <path d="M724 420 C764 370 800 340 820 290" fill="none" stroke="#FF8A65" stroke-width="18" stroke-linecap="round"/>
  <path d="M724 420 C724 360 700 320 694 270" fill="none" stroke="#FF8A65" stroke-width="18" stroke-linecap="round"/>
  <!-- Top branch -->
  <path d="M512 360 C470 300 440 260 420 220" fill="none" stroke="#FF8A65" stroke-width="18" stroke-linecap="round"/>
  <path d="M512 360 C554 300 580 260 600 220" fill="none" stroke="#FF8A65" stroke-width="18" stroke-linecap="round"/>
  <!-- Leaf nodes -->
  <circle cx="200" cy="280" r="30" fill="#FF8A65"/>
  <circle cx="330" cy="256" r="30" fill="#FF8A65"/>
  <circle cx="420" cy="210" r="30" fill="#FF8A65"/>
  <circle cx="600" cy="210" r="30" fill="#FF8A65"/>
  <circle cx="694" cy="256" r="30" fill="#FF8A65"/>
  <circle cx="820" cy="280" r="30" fill="#FF8A65"/>
</svg>