<svg xmlns="http://www.w3.org/2000/svg" viewBox="0 0 1024 1024">
  <rect x="80" y="80" width="864" height="864" rx="180" fill="#0A0500"/>
  <!-- Root stem -->
  <rect x="484" y="400" width="56" height="500" rx="14" fill="#E65100"/>
  <!-- Main roots spreading down -->
  <path d="M512 700 C420 740 320 720 240 780" fill="none" stroke="#E65100" stroke-width="28" stroke-linecap="round"/>
  <path d="M512 700 C604 740 700 720 760 780" fill="none" stroke="#E65100" stroke-width="28" stroke-linecap="round"/>
  <!-- Sub-roots -->
  <path d="M240 780 C200 810 170 830 160 870" fill="none" stroke="#FF8A65" stroke-width="18" stroke-linecap="round"/>
  <path d="M240 780 C260 820 270 850 280 880" fill="none" stroke="#FF8A65" stroke-width="18" stroke-linecap="round"/>
  <path d="M760 780 C800 810 830 830 840 870" fill="none" stroke="#FF8A65" stroke-width="18" stroke-linecap="round"/>
  <path d="M760 780 C740 820 730 850 720 880" fill="none" stroke="#FF8A65" stroke-width="18" stroke-linecap="round"/>
  <!-- Above ground: leaves/canopy circle -->
  <circle cx="512" cy="300" r="180" fill="#E65100"/>
  <!-- Inner canopy circles -->
  <circle cx="420" cy="260" r="80" fill="#FF8A65"/>
  <circle cx="600" cy="250" r="70" fill="#FF8A65"/>
  <circle cx="512" cy="200" r="60" fill="#FF8A65"/>
  <!-- Trunk connecting roots and canopy -->
  <rect x="484" y="400" width="56" height="80" rx="10" fill="#E65100"/>
</svg>