<svg xmlns="http://www.w3.org/2000/svg" viewBox="0 0 1024 1024">
  <!-- icon_10: 거미줄 노드 (spider web nodes: JSON refs) -->
  <rect x="80" y="80" width="864" height="864" rx="180" fill="#0A0500"/>
  <!-- 거미줄 동심원 -->
  <circle cx="512" cy="512" r="280" fill="none" stroke="#E65100" stroke-width="6" opacity="0.35"/>
  <circle cx="512" cy="512" r="190" fill="none" stroke="#E65100" stroke-width="6" opacity="0.45"/>
  <circle cx="512" cy="512" r="100" fill="none" stroke="#E65100" stroke-width="6" opacity="0.55"/>
  <!-- 거미줄 방사선 (8방향) -->
  <line x1="512" y1="232" x2="512" y2="792" stroke="#FF8A65" stroke-width="5" opacity="0.3"/>
  <line x1="232" y1="512" x2="792" y2="512" stroke="#FF8A65" stroke-width="5" opacity="0.3"/>
  <line x1="314" y1="314" x2="710" y2="710" stroke="#FF8A65" stroke-width="5" opacity="0.3"/>
  <line x1="710" y1="314" x2="314" y2="710" stroke="#FF8A65" stroke-width="5" opacity="0.3"/>
  <!-- 중심 노드 -->
  <circle cx="512" cy="512" r="36" fill="#E65100"/>
  <!-- 교차점 노드들 (중간원) -->
  <circle cx="512" cy="322" r="20" fill="#FF8A65"/>
  <circle cx="647" cy="377" r="20" fill="#FF8A65"/>
  <circle cx="702" cy="512" r="20" fill="#FF8A65"/>
  <circle cx="647" cy="647" r="20" fill="#FF8A65"/>
  <circle cx="512" cy="702" r="20" fill="#FF8A65"/>
  <circle cx="377" cy="647" r="20" fill="#FF8A65"/>
  <circle cx="322" cy="512" r="20" fill="#FF8A65"/>
  <circle cx="377" cy="377" r="20" fill="#FF8A65"/>
  <!-- 외곽 노드들 -->
  <circle cx="512" cy="232" r="14" fill="#E65100" opacity="0.8"/>
  <circle cx="710" cy="314" r="14" fill="#E65100" opacity="0.8"/>
  <circle cx="792" cy="512" r="14" fill="#E65100" opacity="0.8"/>
  <circle cx="710" cy="710" r="14" fill="#E65100" opacity="0.8"/>
  <circle cx="512" cy="792" r="14" fill="#E65100" opacity="0.8"/>
  <circle cx="314" cy="710" r="14" fill="#E65100" opacity="0.8"/>
  <circle cx="232" cy="512" r="14" fill="#E65100" opacity="0.8"/>
  <circle cx="314" cy="314" r="14" fill="#E65100" opacity="0.8"/>
</svg>
