<svg xmlns="http://www.w3.org/2000/svg" viewBox="0 0 1024 1024">
  <defs>
    <linearGradient id="bg10" x1="0%" y1="0%" x2="100%" y2="100%">
      <stop offset="0%" stop-color="#0C4A6E"/>
      <stop offset="100%" stop-color="#020D18"/>
    </linearGradient>
    <clipPath id="clip10">
      <rect width="1024" height="1024" rx="190"/>
    </clipPath>
  </defs>
  <!-- Layer 1: 배경 -->
  <rect width="1024" height="1024" rx="190" fill="url(#bg10)"/>
  <!-- 구름 은은한 -->
  <ellipse cx="400" cy="220" rx="200" ry="80" fill="#BAE6FD" opacity="0.12"/>
  <ellipse cx="600" cy="195" rx="180" ry="70" fill="#BAE6FD" opacity="0.1"/>

  <!-- Layer 2: 무지개 아치 -->
  <path d="M 130 620 Q 130 260 512 260 Q 894 260 894 620" stroke="#EF4444" stroke-width="28" fill="none" stroke-linecap="round" opacity="0.85"/>
  <path d="M 160 620 Q 160 295 512 295 Q 864 295 864 620" stroke="#F97316" stroke-width="28" fill="none" stroke-linecap="round" opacity="0.85"/>
  <path d="M 190 620 Q 190 330 512 330 Q 834 330 834 620" stroke="#FDE68A" stroke-width="28" fill="none" stroke-linecap="round" opacity="0.9"/>
  <path d="M 220 620 Q 220 365 512 365 Q 804 365 804 620" stroke="#4ADE80" stroke-width="28" fill="none" stroke-linecap="round" opacity="0.85"/>
  <path d="M 250 620 Q 250 400 512 400 Q 774 400 774 620" stroke="#22D3EE" stroke-width="28" fill="none" stroke-linecap="round" opacity="0.85"/>
  <path d="M 280 620 Q 280 435 512 435 Q 744 435 744 620" stroke="#60A5FA" stroke-width="28" fill="none" stroke-linecap="round" opacity="0.8"/>
  <path d="M 310 620 Q 310 470 512 470 Q 714 470 714 620" stroke="#A78BFA" stroke-width="28" fill="none" stroke-linecap="round" opacity="0.8"/>

  <!-- 지면 -->
  <rect x="0" y="750" width="1024" height="274" fill="#0F3D20" opacity="0.85" clip-path="url(#clip10)"/>
  <ellipse cx="512" cy="758" rx="450" ry="35" fill="#145A32" opacity="0.7"/>

  <!-- Layer 2: 나무 -->
  <!-- 줄기 -->
  <rect x="486" y="580" width="52" height="200" rx="10" fill="#7C3B1A"/>
  <!-- 수관 -->
  <circle cx="512" cy="555" r="120" fill="#22C55E" opacity="0.9"/>
  <circle cx="400" cy="600" r="90" fill="#16A34A" opacity="0.85"/>
  <circle cx="624" cy="600" r="90" fill="#16A34A" opacity="0.85"/>
  <circle cx="512" cy="470" r="85" fill="#4ADE80" opacity="0.9"/>

  <!-- Layer 3: A7F3D0 하이라이트 -->
  <circle cx="480" cy="490" r="30" fill="#A7F3D0" opacity="0.5"/>
  <!-- 빛 반짝임 -->
  <circle cx="750" cy="290" r="18" fill="#FDE68A" opacity="0.7"/>
  <circle cx="780" cy="240" r="12" fill="#FDE68A" opacity="0.5"/>
</svg>
