<svg xmlns="http://www.w3.org/2000/svg" viewBox="0 0 1024 1024">
  <rect width="1024" height="1024" rx="180" fill="#000510"/>
  <!-- 레이더 프로세스 -->
  <!-- 동심원 -->
  <circle cx="512" cy="512" r="300" fill="none" stroke="#283593" stroke-width="3"/>
  <circle cx="512" cy="512" r="210" fill="none" stroke="#283593" stroke-width="3"/>
  <circle cx="512" cy="512" r="120" fill="none" stroke="#283593" stroke-width="3"/>
  <!-- 축선 -->
  <line x1="512" y1="212" x2="512" y2="812" stroke="#283593" stroke-width="2"/>
  <line x1="212" y1="512" x2="812" y2="512" stroke="#283593" stroke-width="2"/>
  <line x1="300" y1="300" x2="724" y2="724" stroke="#283593" stroke-width="2"/>
  <line x1="724" y1="300" x2="300" y2="724" stroke="#283593" stroke-width="2"/>
  <!-- 레이더 스윕 -->
  <path d="M512 512 L512 212 A300 300 0 0 1 788 662 Z" fill="#283593" opacity="0.4"/>
  <!-- 데이터 포인트 -->
  <polygon points="512,280 680,350 750,512 670,700 512,740 354,680 280,512 360,340" fill="none" stroke="#7986CB" stroke-width="16" stroke-linejoin="round"/>
  <!-- 스윕 라인 -->
  <line x1="512" y1="512" x2="788" y2="662" stroke="#7986CB" stroke-width="6" opacity="0.8"/>
  <!-- 중심점 -->
  <circle cx="512" cy="512" r="22" fill="#7986CB"/>
</svg>
