<svg xmlns="http://www.w3.org/2000/svg" viewBox="0 0 1024 1024">
  <rect x="80" y="80" width="864" height="864" rx="180" fill="#050500"/>
  <!-- Puzzle pieces forming keyboard -->
  <!-- Piece 1 top-left -->
  <path d="M230 300 L480 300 L480 260 Q510 240 540 260 L540 300 L780 300 L780 550 L540 550 L540 590 Q510 610 480 590 L480 550 L230 550 Z" fill="#5D4037" opacity="0.8"/>
  <!-- Puzzle notch vertical -->
  <path d="M230 550 L480 550 L480 590 Q510 610 480 590 L480 770 L780 770 L780 550 L540 550 L540 590 Q510 610 540 550 L780 550" fill="#5D4037" opacity="0.5"/>
  <!-- Keys on puzzle -->
  <rect x="280" y="360" width="80" height="64" rx="12" fill="#050500"/>
  <rect x="390" y="360" width="80" height="64" rx="12" fill="#050500"/>
  <rect x="500" y="360" width="80" height="64" rx="12" fill="#050500"/>
  <rect x="610" y="360" width="80" height="64" rx="12" fill="#050500"/>
  <rect x="280" y="450" width="180" height="64" rx="12" fill="#050500"/>
  <rect x="490" y="450" width="80" height="64" rx="12" fill="#050500"/>
  <rect x="600" y="450" width="130" height="64" rx="12" fill="#050500"/>
  <!-- Puzzle connector -->
  <circle cx="512" cy="300" r="30" fill="#BCAAA4" opacity="0.7"/>
  <circle cx="512" cy="550" r="30" fill="#BCAAA4" opacity="0.7"/>
</svg>
