<svg xmlns="http://www.w3.org/2000/svg" viewBox="0 0 1024 1024">
  <rect x="80" y="80" width="864" height="864" rx="180" fill="#050500"/>
  <!-- Hand/finger pointing down -->
  <path d="M512 200 L512 580 Q512 650 460 680 L380 720 Q350 740 360 780 Q370 820 420 820 L620 820 Q680 820 700 760 L760 560 Q780 500 740 470 Q700 450 670 490 L640 540 L640 280 Q640 230 610 200 Q580 170 540 190 Z" fill="#5D4037"/>
  <!-- Finger highlight -->
  <path d="M512 200 L512 580 Q512 650 460 680 L430 700" fill="none" stroke="#BCAAA4" stroke-width="12" stroke-linecap="round"/>
  <!-- Key beneath finger -->
  <rect x="340" y="560" width="200" height="160" rx="20" fill="#5D4037" opacity="0.7"/>
  <rect x="358" y="578" width="164" height="124" rx="14" fill="#050500"/>
  <!-- Key symbol -->
  <line x1="440" y1="620" x2="500" y2="620" stroke="#BCAAA4" stroke-width="16" stroke-linecap="round"/>
  <line x1="440" y1="658" x2="520" y2="658" stroke="#BCAAA4" stroke-width="16" stroke-linecap="round"/>
  <!-- Press indicator dots -->
  <circle cx="512" cy="760" r="16" fill="#BCAAA4" opacity="0.5"/>
  <circle cx="560" cy="780" r="10" fill="#BCAAA4" opacity="0.3"/>
</svg>
