<svg xmlns="http://www.w3.org/2000/svg" viewBox="0 0 512 512">
  <defs>
    <linearGradient id="bg" x1="0" y1="0" x2="0" y2="1">
      <stop offset="0%" stop-color="#111"/>
      <stop offset="100%" stop-color="#1e1e1e"/>
    </linearGradient>
  </defs>
  <rect width="512" height="512" rx="80" fill="url(#bg)"/>
  <!-- Treemap rectangles -->
  <!-- Large block top-left -->
  <rect x="56" y="80" width="200" height="160" rx="4" fill="#1565c0"/>
  <rect x="58" y="82" width="196" height="156" rx="3" fill="#1976d2" opacity="0.7"/>
  <text x="156" y="148" font-family="Arial Black, sans-serif" font-size="16" fill="#fff" text-anchor="middle">Category A</text>
  <text x="156" y="170" font-family="Arial, sans-serif" font-size="20" font-weight="bold" fill="#90caf9" text-anchor="middle">42%</text>
  <!-- Right top block -->
  <rect x="264" y="80" width="192" height="100" rx="4" fill="#4a148c"/>
  <rect x="266" y="82" width="188" height="96" rx="3" fill="#6a1b9a" opacity="0.7"/>
  <text x="360" y="126" font-family="Arial Black, sans-serif" font-size="15" fill="#fff" text-anchor="middle">Cat B</text>
  <text x="360" y="148" font-family="Arial, sans-serif" font-size="18" font-weight="bold" fill="#ce93d8" text-anchor="middle">28%</text>
  <!-- Right lower-top block -->
  <rect x="264" y="188" width="96" height="52" rx="4" fill="#006064"/>
  <text x="312" y="218" font-family="Arial, sans-serif" font-size="12" fill="#80cbc4" text-anchor="middle">C: 12%</text>
  <rect x="368" y="188" width="88" height="52" rx="4" fill="#bf360c"/>
  <text x="412" y="218" font-family="Arial, sans-serif" font-size="12" fill="#ffab91" text-anchor="middle">D: 8%</text>
  <!-- Bottom-left block -->
  <rect x="56" y="248" width="120" height="120" rx="4" fill="#1b5e20"/>
  <rect x="58" y="250" width="116" height="116" rx="3" fill="#2e7d32" opacity="0.7"/>
  <text x="116" y="304" font-family="Arial Black, sans-serif" font-size="12" fill="#fff" text-anchor="middle">Cat E</text>
  <text x="116" y="322" font-family="Arial, sans-serif" font-size="16" font-weight="bold" fill="#a5d6a7" text-anchor="middle">18%</text>
  <!-- Bottom middle -->
  <rect x="184" y="248" width="80" height="55" rx="4" fill="#e65100"/>
  <text x="224" y="280" font-family="Arial, sans-serif" font-size="11" fill="#ffe0b2" text-anchor="middle">F: 9%</text>
  <rect x="184" y="311" width="80" height="57" rx="4" fill="#37474f"/>
  <text x="224" y="343" font-family="Arial, sans-serif" font-size="11" fill="#b0bec5" text-anchor="middle">G: 7%</text>
  <!-- Bottom right -->
  <rect x="272" y="248" width="88" height="120" rx="4" fill="#880e4f"/>
  <rect x="274" y="250" width="84" height="116" rx="3" fill="#ad1457" opacity="0.7"/>
  <text x="316" y="308" font-family="Arial Black, sans-serif" font-size="12" fill="#fff" text-anchor="middle">Cat H</text>
  <text x="316" y="326" font-family="Arial, sans-serif" font-size="14" font-weight="bold" fill="#f48fb1" text-anchor="middle">11%</text>
  <!-- Right column blocks -->
  <rect x="368" y="248" width="88" height="56" rx="4" fill="#33691e"/>
  <text x="412" y="280" font-family="Arial, sans-serif" font-size="11" fill="#dcedc8" text-anchor="middle">I: 6%</text>
  <rect x="368" y="312" width="88" height="56" rx="4" fill="#4e342e"/>
  <text x="412" y="344" font-family="Arial, sans-serif" font-size="11" fill="#d7ccc8" text-anchor="middle">J: 5%</text>
  <!-- Bottom strip -->
  <rect x="56" y="376" width="200" height="52" rx="4" fill="#263238"/>
  <text x="156" y="406" font-family="Arial, sans-serif" font-size="13" fill="#90a4ae" text-anchor="middle">System: 14%</text>
  <rect x="264" y="376" width="192" height="52" rx="4" fill="#1c2833"/>
  <text x="360" y="406" font-family="Arial, sans-serif" font-size="13" fill="#85929e" text-anchor="middle">Other: 8%</text>
  <!-- Title -->
  <text x="256" y="458" font-family="Arial Black, sans-serif" font-size="36" font-weight="900" fill="#42a5f5" text-anchor="middle" letter-spacing="2">DATA MAP</text>
  <text x="256" y="484" font-family="Arial, sans-serif" font-size="13" fill="#555" text-anchor="middle">Treemap View</text>
</svg>
