<svg xmlns="http://www.w3.org/2000/svg" viewBox="0 0 1024 1024">
  <rect x="80" y="80" width="864" height="864" rx="180" fill="#000A10"/>
  <!-- Browser window frame -->
  <rect x="180" y="220" width="664" height="500" rx="24" fill="none" stroke="#0277BD" stroke-width="20"/>
  <!-- Browser top bar -->
  <rect x="180" y="220" width="664" height="70" rx="24" fill="#0277BD"/>
  <!-- Browser dots -->
  <circle cx="240" cy="255" r="14" fill="#4FC3F7"/>
  <circle cx="290" cy="255" r="14" fill="#4FC3F7" opacity="0.6"/>
  <circle cx="340" cy="255" r="14" fill="#4FC3F7" opacity="0.3"/>
  <!-- Capture frame corners -->
  <path d="M300 350 L300 310 L340 310" fill="none" stroke="#4FC3F7" stroke-width="22" stroke-linecap="round" stroke-linejoin="round"/>
  <path d="M724 350 L724 310 L684 310" fill="none" stroke="#4FC3F7" stroke-width="22" stroke-linecap="round" stroke-linejoin="round"/>
  <path d="M300 620 L300 660 L340 660" fill="none" stroke="#4FC3F7" stroke-width="22" stroke-linecap="round" stroke-linejoin="round"/>
  <path d="M724 620 L724 660 L684 660" fill="none" stroke="#4FC3F7" stroke-width="22" stroke-linecap="round" stroke-linejoin="round"/>
  <!-- Content lines -->
  <rect x="300" y="420" width="424" height="18" rx="9" fill="#0277BD" opacity="0.5"/>
  <rect x="300" y="460" width="320" height="18" rx="9" fill="#0277BD" opacity="0.5"/>
  <rect x="300" y="500" width="380" height="18" rx="9" fill="#0277BD" opacity="0.5"/>
  <rect x="300" y="540" width="260" height="18" rx="9" fill="#0277BD" opacity="0.3"/>
</svg>
