<svg xmlns="http://www.w3.org/2000/svg" viewBox="0 0 1024 1024">
  <!-- icon_05: literal · 레이어드 · 이미지가 단계적으로 커지는 스택 -->
  <rect x="0" y="0" width="1024" height="1024" rx="200" fill="#E0F7FA"/>
  <!-- 뒷 이미지 (가장 큼) -->
  <g>
    <rect x="260" y="140" width="720" height="560" rx="32" fill="#FFFFFF" stroke="#006064" stroke-width="16"/>
    <rect x="284" y="164" width="672" height="512" rx="18" fill="#81D4FA"/>
    <circle cx="780" cy="260" r="60" fill="#FFD93D"/>
    <path d="M 290 510 Q 430 340 570 460 Q 680 370 960 510 L 960 670 L 290 670 Z" fill="#2D8F47" stroke="#1A5028" stroke-width="12" stroke-linejoin="round"/>
  </g>
  <!-- 중간 이미지 -->
  <g>
    <rect x="140" y="250" width="480" height="380" rx="28" fill="#FFFFFF" stroke="#006064" stroke-width="14"/>
    <rect x="162" y="272" width="436" height="336" rx="14" fill="#4FC3F7"/>
    <circle cx="480" cy="340" r="46" fill="#FFD93D"/>
    <path d="M 168 480 Q 260 370 360 440 Q 440 380 594 460 L 594 600 L 168 600 Z" fill="#2D8F47"/>
  </g>
  <!-- 앞 이미지 (가장 작음) -->
  <g>
    <rect x="80" y="380" width="260" height="220" rx="22" fill="#FFFFFF" stroke="#006064" stroke-width="12"/>
    <rect x="96" y="396" width="228" height="188" rx="10" fill="#29B6F6"/>
    <circle cx="260" cy="430" r="26" fill="#FFD93D"/>
    <path d="M 100 520 Q 160 460 220 490 Q 260 450 324 500 L 324 580 L 100 580 Z" fill="#2D8F47"/>
  </g>
  <!-- 화살표들 -->
  <g stroke="#FF6B35" stroke-width="14" fill="#FF6B35" stroke-linecap="round">
    <path d="M 360 440 Q 420 380 470 410" fill="none"/>
    <path d="M 460 390 L 490 410 L 470 440" fill="#FF6B35"/>
    <path d="M 630 330 Q 690 260 740 280" fill="none"/>
    <path d="M 730 260 L 760 280 L 740 310" fill="#FF6B35"/>
  </g>
  <!-- 하단 라벨 -->
  <rect x="140" y="780" width="744" height="130" rx="40" fill="#00838F" stroke="#004D5B" stroke-width="14"/>
  <text x="512" y="872" font-family="Arial Black, sans-serif" font-weight="900" font-size="96" fill="#FFFFFF" text-anchor="middle">SUPER RES</text>
</svg>
