<svg xmlns="http://www.w3.org/2000/svg" viewBox="0 0 1024 1024">
  <rect x="80" y="80" width="864" height="864" rx="180" fill="#1A0000"/>
  <!-- 문서 -->
  <rect x="320" y="220" width="260" height="340" rx="16" fill="#B71C1C" opacity="0.8"/>
  <rect x="358" y="268" width="160" height="14" rx="3" fill="#EF9A9A" opacity="0.6"/>
  <rect x="358" y="296" width="120" height="14" rx="3" fill="#EF9A9A" opacity="0.4"/>
  <rect x="358" y="324" width="140" height="14" rx="3" fill="#EF9A9A" opacity="0.3"/>
  <!-- 나사(스크루) 드라이버 -->
  <rect x="560" y="350" width="60" height="380" rx="16" fill="#EF9A9A" transform="rotate(-30 590 540)"/>
  <!-- 나사 헤드 -->
  <ellipse cx="700" cy="400" rx="50" ry="24" fill="#EF9A9A" opacity="0.8" transform="rotate(-30 700 400)"/>
  <!-- 나사 -->
  <circle cx="380" cy="500" r="60" fill="#B71C1C"/>
  <circle cx="380" cy="500" r="44" fill="#1A0000"/>
  <line x1="350" y1="500" x2="410" y2="500" stroke="#EF9A9A" stroke-width="14"/>
  <line x1="380" y1="470" x2="380" y2="530" stroke="#EF9A9A" stroke-width="14"/>
  <!-- 조이기 화살표 -->
  <path d="M300 440 Q260 500 300 560" fill="none" stroke="#EF9A9A" stroke-width="12" stroke-linecap="round" opacity="0.6"/>
  <polygon points="290,556 298,590 322,566" fill="#EF9A9A" opacity="0.6"/>
</svg>