<svg xmlns="http://www.w3.org/2000/svg" viewBox="0 0 1024 1024">
  <rect x="80" y="80" width="864" height="864" rx="180" fill="#000D0D"/>
  <!-- Barcode bars (log lines as barcode) -->
  <rect x="180" y="280" width="16" height="400" rx="4" fill="#00838F"/>
  <rect x="212" y="280" width="8" height="400" rx="4" fill="#26C6DA"/>
  <rect x="236" y="280" width="24" height="400" rx="4" fill="#00838F"/>
  <rect x="276" y="280" width="10" height="400" rx="4" fill="#26C6DA"/>
  <rect x="302" y="280" width="18" height="400" rx="4" fill="#00838F"/>
  <rect x="336" y="280" width="28" height="400" rx="4" fill="#26C6DA"/>
  <rect x="380" y="280" width="8" height="400" rx="4" fill="#00838F"/>
  <rect x="404" y="280" width="20" height="400" rx="4" fill="#00838F"/>
  <rect x="440" y="280" width="12" height="400" rx="4" fill="#26C6DA"/>
  <rect x="468" y="280" width="26" height="400" rx="4" fill="#00838F"/>
  <rect x="510" y="280" width="8" height="400" rx="4" fill="#26C6DA"/>
  <rect x="534" y="280" width="22" height="400" rx="4" fill="#00838F"/>
  <rect x="572" y="280" width="14" height="400" rx="4" fill="#26C6DA"/>
  <rect x="602" y="280" width="20" height="400" rx="4" fill="#00838F"/>
  <rect x="638" y="280" width="8" height="400" rx="4" fill="#26C6DA"/>
  <rect x="662" y="280" width="28" height="400" rx="4" fill="#00838F"/>
  <rect x="706" y="280" width="10" height="400" rx="4" fill="#26C6DA"/>
  <rect x="732" y="280" width="18" height="400" rx="4" fill="#00838F"/>
  <rect x="766" y="280" width="8" height="400" rx="4" fill="#26C6DA"/>
  <rect x="790" y="280" width="22" height="400" rx="4" fill="#00838F"/>
  <!-- Scan beam (red-ish cyan line) -->
  <rect x="160" y="478" width="704" height="12" rx="6" fill="#26C6DA" opacity="0.85"/>
  <!-- Scanner body top/bottom brackets -->
  <rect x="160" y="260" width="704" height="20" rx="6" fill="#00838F"/>
  <rect x="160" y="680" width="704" height="20" rx="6" fill="#00838F"/>
</svg>