<svg xmlns="http://www.w3.org/2000/svg" viewBox="0 0 1024 1024">
  <rect x="80" y="80" width="864" height="864" rx="180" fill="#000D0D"/>
  <!-- Log lines background -->
  <rect x="160" y="300" width="440" height="20" rx="10" fill="#00838F" opacity="0.3"/>
  <rect x="160" y="350" width="380" height="20" rx="10" fill="#00838F" opacity="0.3"/>
  <rect x="160" y="400" width="410" height="20" rx="10" fill="#00838F" opacity="0.5"/>
  <rect x="160" y="450" width="360" height="20" rx="10" fill="#00838F" opacity="0.3"/>
  <rect x="160" y="500" width="430" height="20" rx="10" fill="#26C6DA" opacity="0.7"/>
  <rect x="160" y="550" width="390" height="20" rx="10" fill="#00838F" opacity="0.3"/>
  <rect x="160" y="600" width="350" height="20" rx="10" fill="#00838F" opacity="0.3"/>
  <!-- Magnifier circle -->
  <circle cx="580" cy="500" r="240" fill="none" stroke="#00838F" stroke-width="34"/>
  <circle cx="580" cy="500" r="206" fill="#000D0D" opacity="0.6"/>
  <!-- Magnified log lines inside -->
  <rect x="420" y="435" width="280" height="22" rx="11" fill="#26C6DA" opacity="0.8"/>
  <rect x="420" y="470" width="240" height="22" rx="11" fill="#00838F" opacity="0.5"/>
  <rect x="420" y="505" width="260" height="22" rx="11" fill="#26C6DA" opacity="0.9"/>
  <rect x="420" y="540" width="220" height="22" rx="11" fill="#00838F" opacity="0.4"/>
  <!-- Magnifier handle -->
  <line x1="772" y1="692" x2="880" y2="800" stroke="#00838F" stroke-width="40" stroke-linecap="round"/>
</svg>