<svg xmlns="http://www.w3.org/2000/svg" viewBox="0 0 1024 1024">
  <!-- icon_01: literal · 중앙심볼 · 사진 프레임 + 포맷 배지들 -->
  <defs>
    <linearGradient id="bg01" x1="0" y1="0" x2="1" y2="1">
      <stop offset="0" stop-color="#FFE0B2"/>
      <stop offset="1" stop-color="#FFAB91"/>
    </linearGradient>
    <linearGradient id="sky01" x1="0" y1="0" x2="0" y2="1">
      <stop offset="0" stop-color="#81D4FA"/>
      <stop offset="1" stop-color="#B3E5FC"/>
    </linearGradient>
  </defs>
  <rect x="0" y="0" width="1024" height="1024" rx="200" fill="url(#bg01)"/>
  <!-- 사진 프레임 -->
  <rect x="160" y="230" width="704" height="520" rx="38" fill="#FFFFFF" stroke="#4E342E" stroke-width="20"/>
  <rect x="200" y="270" width="624" height="440" rx="22" fill="url(#sky01)"/>
  <!-- 태양 -->
  <circle cx="720" cy="370" r="58" fill="#FFD93D" stroke="#FF9500" stroke-width="8"/>
  <!-- 산 -->
  <path d="M 200 620 Q 340 420 480 540 Q 580 460 720 560 Q 780 500 824 580 L 824 710 L 200 710 Z" fill="#66BB6A" stroke="#2E7D32" stroke-width="10" stroke-linejoin="round"/>
  <!-- 포맷 배지들 -->
  <g font-family="Arial Black, sans-serif" font-weight="900">
    <g>
      <rect x="100" y="780" width="180" height="130" rx="28" fill="#E91E63" stroke="#880E4F" stroke-width="12"/>
      <text x="190" y="868" font-size="68" fill="#FFFFFF" text-anchor="middle">PNG</text>
    </g>
    <g>
      <rect x="292" y="780" width="160" height="130" rx="28" fill="#FFD93D" stroke="#B88A00" stroke-width="12"/>
      <text x="372" y="868" font-size="68" fill="#5C4000" text-anchor="middle">JPG</text>
    </g>
    <g>
      <rect x="464" y="780" width="160" height="130" rx="28" fill="#06D6A0" stroke="#056B4F" stroke-width="12"/>
      <text x="544" y="868" font-size="68" fill="#FFFFFF" text-anchor="middle">ICO</text>
    </g>
    <g>
      <rect x="636" y="780" width="200" height="130" rx="28" fill="#3A86FF" stroke="#1A5CC9" stroke-width="12"/>
      <text x="736" y="868" font-size="66" fill="#FFFFFF" text-anchor="middle">WEBP</text>
    </g>
  </g>
  <!-- 상단 라벨 -->
  <rect x="362" y="120" width="300" height="100" rx="36" fill="#4E342E"/>
  <text x="512" y="198" font-family="Arial Black, sans-serif" font-weight="900" font-size="80" fill="#FFFFFF" text-anchor="middle">IMG</text>
</svg>
