<svg xmlns="http://www.w3.org/2000/svg" viewBox="0 0 1024 1024">
  <!-- icon_03: metaphor · 공간/장면 · 깔때기 변환기 -->
  <defs>
    <linearGradient id="bg03" x1="0" y1="0" x2="0" y2="1">
      <stop offset="0" stop-color="#FFF3E0"/>
      <stop offset="1" stop-color="#FFCC80"/>
    </linearGradient>
  </defs>
  <rect x="0" y="0" width="1024" height="1024" rx="200" fill="url(#bg03)"/>
  <!-- 입력 이미지 (상단) -->
  <g>
    <rect x="340" y="100" width="344" height="220" rx="24" fill="#FFFFFF" stroke="#5D4037" stroke-width="14"/>
    <rect x="364" y="124" width="296" height="172" rx="12" fill="#81D4FA"/>
    <circle cx="600" cy="170" r="28" fill="#FFD93D"/>
    <path d="M 364 270 Q 440 210 500 240 Q 560 200 660 260 L 660 296 L 364 296 Z" fill="#66BB6A"/>
  </g>
  <!-- 깔때기 -->
  <g>
    <path d="M 240 340 L 784 340 L 620 560 L 620 740 L 404 740 L 404 560 Z" fill="#9C27B0" stroke="#4A148C" stroke-width="18" stroke-linejoin="round"/>
    <!-- 깔대기 테두리 링 -->
    <ellipse cx="512" cy="340" rx="272" ry="36" fill="#BA68C8" stroke="#4A148C" stroke-width="14"/>
    <ellipse cx="512" cy="340" rx="240" ry="24" fill="#4A148C"/>
  </g>
  <!-- 출력 배지들 (하단) -->
  <g>
    <rect x="140" y="800" width="180" height="130" rx="28" fill="#E91E63" stroke="#880E4F" stroke-width="12"/>
    <text x="230" y="888" font-family="Arial Black, sans-serif" font-weight="900" font-size="68" fill="#FFFFFF" text-anchor="middle">PNG</text>
  </g>
  <g>
    <rect x="336" y="800" width="160" height="130" rx="28" fill="#FFD93D" stroke="#B88A00" stroke-width="12"/>
    <text x="416" y="888" font-family="Arial Black, sans-serif" font-weight="900" font-size="68" fill="#5C4000" text-anchor="middle">JPG</text>
  </g>
  <g>
    <rect x="512" y="800" width="160" height="130" rx="28" fill="#06D6A0" stroke="#056B4F" stroke-width="12"/>
    <text x="592" y="888" font-family="Arial Black, sans-serif" font-weight="900" font-size="68" fill="#FFFFFF" text-anchor="middle">ICO</text>
  </g>
  <g>
    <rect x="688" y="800" width="200" height="130" rx="28" fill="#3A86FF" stroke="#1A5CC9" stroke-width="12"/>
    <text x="788" y="888" font-family="Arial Black, sans-serif" font-weight="900" font-size="66" fill="#FFFFFF" text-anchor="middle">WEBP</text>
  </g>
  <!-- 하단 방울 연결 -->
  <g stroke="#9C27B0" stroke-width="10" stroke-linecap="round" fill="none">
    <line x1="440" y1="760" x2="230" y2="800"/>
    <line x1="480" y1="760" x2="416" y2="800"/>
    <line x1="540" y1="760" x2="592" y2="800"/>
    <line x1="580" y1="760" x2="788" y2="800"/>
  </g>
</svg>
