<svg xmlns="http://www.w3.org/2000/svg" viewBox="0 0 1024 1024">
  <rect width="1024" height="1024" rx="180" fill="#050005"/>
  <!-- 그림 프레임 -->
  <rect x="240" y="220" width="440" height="360" rx="14" fill="#6A1B9A" opacity="0.3"/>
  <rect x="240" y="220" width="440" height="360" rx="14" fill="none" stroke="#6A1B9A" stroke-width="18"/>
  <!-- 산 실루엣 (픽셀/문자 패턴으로) -->
  <rect x="280" y="420" width="24" height="120" rx="4" fill="#6A1B9A"/>
  <rect x="312" y="390" width="24" height="150" rx="4" fill="#6A1B9A"/>
  <rect x="344" y="350" width="24" height="190" rx="4" fill="#BA68C8"/>
  <rect x="376" y="310" width="24" height="230" rx="4" fill="#BA68C8"/>
  <rect x="408" y="340" width="24" height="200" rx="4" fill="#6A1B9A"/>
  <rect x="440" y="370" width="24" height="170" rx="4" fill="#6A1B9A"/>
  <rect x="472" y="330" width="24" height="210" rx="4" fill="#BA68C8"/>
  <rect x="504" y="280" width="24" height="260" rx="4" fill="#BA68C8"/>
  <rect x="536" y="320" width="24" height="220" rx="4" fill="#6A1B9A"/>
  <rect x="568" y="370" width="24" height="170" rx="4" fill="#6A1B9A"/>
  <rect x="600" y="400" width="24" height="140" rx="4" fill="#6A1B9A"/>
  <rect x="632" y="430" width="24" height="110" rx="4" fill="#6A1B9A"/>
  <!-- 문자 라인들 (하단) -->
  <rect x="160" y="650" width="704" height="20" rx="10" fill="#6A1B9A"/>
  <rect x="160" y="685" width="520" height="20" rx="10" fill="#6A1B9A" opacity="0.7"/>
  <rect x="160" y="720" width="610" height="20" rx="10" fill="#6A1B9A" opacity="0.5"/>
  <rect x="160" y="755" width="440" height="20" rx="10" fill="#6A1B9A" opacity="0.35"/>
  <rect x="160" y="790" width="560" height="20" rx="10" fill="#6A1B9A" opacity="0.2"/>
</svg>
