<svg xmlns="http://www.w3.org/2000/svg" viewBox="0 0 512 512">
  <defs>
    <linearGradient id="bg" x1="0" y1="0" x2="1" y2="1">
      <stop offset="0%" stop-color="#ffd700"/>
      <stop offset="100%" stop-color="#ff8c00"/>
    </linearGradient>
    <linearGradient id="sky" x1="0" y1="0" x2="0" y2="1">
      <stop offset="0%" stop-color="#87ceeb"/>
      <stop offset="100%" stop-color="#4682b4"/>
    </linearGradient>
  </defs>
  <rect width="512" height="512" rx="80" fill="url(#bg)"/>
  <!-- Comic-style halftone dots border -->
  <circle cx="100" cy="100" r="8" fill="#ff4500" opacity="0.3"/>
  <circle cx="140" cy="80" r="6" fill="#ff4500" opacity="0.25"/>
  <circle cx="80" cy="140" r="6" fill="#ff4500" opacity="0.25"/>
  <circle cx="412" cy="100" r="8" fill="#ff4500" opacity="0.3"/>
  <circle cx="432" cy="140" r="6" fill="#ff4500" opacity="0.25"/>
  <!-- Sky panel -->
  <rect x="60" y="60" width="392" height="240" rx="8" fill="url(#sky)" stroke="#000" stroke-width="4"/>
  <!-- Buildings comic style -->
  <rect x="68" y="140" width="72" height="160" fill="#cc6600" stroke="#000" stroke-width="3"/>
  <rect x="76" y="156" width="20" height="24" fill="#ffffcc" stroke="#000" stroke-width="2"/>
  <rect x="108" y="156" width="20" height="24" fill="#ffffcc" stroke="#000" stroke-width="2"/>
  <rect x="76" y="196" width="20" height="24" fill="#000" stroke="#000" stroke-width="1"/>
  <rect x="108" y="196" width="20" height="24" fill="#ffffcc" stroke="#000" stroke-width="2"/>
  <rect x="76" y="236" width="20" height="24" fill="#ffffcc" stroke="#000" stroke-width="2"/>
  <rect x="108" y="236" width="20" height="24" fill="#000" stroke="#000" stroke-width="1"/>

  <rect x="156" y="100" width="88" height="200" fill="#2244cc" stroke="#000" stroke-width="3"/>
  <rect x="172" y="116" width="22" height="26" fill="#ffffee" stroke="#000" stroke-width="2"/>
  <rect x="210" y="116" width="22" height="26" fill="#ffffee" stroke="#000" stroke-width="2"/>
  <rect x="172" y="158" width="22" height="26" fill="#ffffee" stroke="#000" stroke-width="2"/>
  <rect x="210" y="158" width="22" height="26" fill="#000" stroke="#000" stroke-width="1"/>
  <rect x="172" y="200" width="22" height="26" fill="#000" stroke="#000" stroke-width="1"/>
  <rect x="210" y="200" width="22" height="26" fill="#ffffee" stroke="#000" stroke-width="2"/>
  <rect x="172" y="242" width="22" height="26" fill="#ffffee" stroke="#000" stroke-width="2"/>
  <rect x="210" y="242" width="22" height="26" fill="#000" stroke="#000" stroke-width="1"/>

  <rect x="260" y="80" width="96" height="220" fill="#aa2222" stroke="#000" stroke-width="3"/>
  <rect x="278" y="96" width="24" height="28" fill="#ffffdd" stroke="#000" stroke-width="2"/>
  <rect x="318" y="96" width="24" height="28" fill="#ffffdd" stroke="#000" stroke-width="2"/>
  <rect x="278" y="140" width="24" height="28" fill="#000" stroke="#000" stroke-width="1"/>
  <rect x="318" y="140" width="24" height="28" fill="#ffffdd" stroke="#000" stroke-width="2"/>
  <rect x="278" y="184" width="24" height="28" fill="#ffffdd" stroke="#000" stroke-width="2"/>
  <rect x="318" y="184" width="24" height="28" fill="#000" stroke="#000" stroke-width="1"/>
  <rect x="278" y="228" width="24" height="28" fill="#000" stroke="#000" stroke-width="1"/>
  <rect x="318" y="228" width="24" height="28" fill="#ffffdd" stroke="#000" stroke-width="2"/>

  <rect x="372" y="120" width="72" height="180" fill="#116622" stroke="#000" stroke-width="3"/>
  <rect x="384" y="136" width="18" height="22" fill="#eeffee" stroke="#000" stroke-width="2"/>
  <rect x="414" y="136" width="18" height="22" fill="#eeffee" stroke="#000" stroke-width="2"/>
  <rect x="384" y="174" width="18" height="22" fill="#000" stroke="#000" stroke-width="1"/>
  <rect x="414" y="174" width="18" height="22" fill="#eeffee" stroke="#000" stroke-width="2"/>
  <rect x="384" y="212" width="18" height="22" fill="#eeffee" stroke="#000" stroke-width="2"/>
  <rect x="414" y="212" width="18" height="22" fill="#000" stroke="#000" stroke-width="1"/>
  <rect x="384" y="250" width="18" height="22" fill="#eeffee" stroke="#000" stroke-width="2"/>

  <!-- Road panel -->
  <rect x="60" y="300" width="392" height="100" rx="0" fill="#888" stroke="#000" stroke-width="4"/>
  <rect x="60" y="340" width="100" height="16" fill="#ffff00" stroke="#000" stroke-width="2"/>
  <rect x="216" y="340" width="80" height="16" fill="#ffff00" stroke="#000" stroke-width="2"/>
  <rect x="352" y="340" width="100" height="16" fill="#ffff00" stroke="#000" stroke-width="2"/>
  <!-- Comic runner bold -->
  <circle cx="200" cy="288" r="22" fill="#ff6600" stroke="#000" stroke-width="3"/>
  <rect x="182" y="310" width="36" height="40" rx="6" fill="#ff6600" stroke="#000" stroke-width="3"/>
  <line x1="182" y1="334" x2="158" y2="356" stroke="#ff6600" stroke-width="12" stroke-linecap="round"/>
  <line x1="218" y1="334" x2="234" y2="354" stroke="#ff6600" stroke-width="12" stroke-linecap="round"/>
  <line x1="190" y1="350" x2="172" y2="374" stroke="#ff6600" stroke-width="12" stroke-linecap="round"/>
  <line x1="214" y1="350" x2="228" y2="372" stroke="#ff6600" stroke-width="12" stroke-linecap="round"/>
  <!-- Speed effect bubble -->
  <ellipse cx="148" cy="296" rx="60" ry="24" fill="#ffff00" stroke="#000" stroke-width="3"/>
  <text x="148" y="303" font-family="Arial Black, sans-serif" font-size="18" font-weight="900" fill="#000" text-anchor="middle">ZOOM!</text>
  <!-- Title banner -->
  <rect x="60" y="400" width="392" height="80" rx="0" fill="#ff4500" stroke="#000" stroke-width="4"/>
  <text x="256" y="452" font-family="Arial Black, sans-serif" font-size="50" font-weight="900" fill="#ffff00" text-anchor="middle" stroke="#000" stroke-width="3" paint-order="stroke" letter-spacing="4">DASH CITY</text>
</svg>
