<svg xmlns="http://www.w3.org/2000/svg" viewBox="0 0 512 512">
  <defs>
    <linearGradient id="bg" x1="0%" y1="0%" x2="100%" y2="100%">
      <stop offset="0%" stop-color="#0A1428"/>
      <stop offset="100%" stop-color="#0D2050"/>
    </linearGradient>
    <linearGradient id="doc" x1="0%" y1="0%" x2="0%" y2="100%">
      <stop offset="0%" stop-color="#1E2E4A"/>
      <stop offset="100%" stop-color="#162040"/>
    </linearGradient>
  </defs>
  <rect width="512" height="512" rx="80" fill="url(#bg)"/>
  <rect x="120" y="100" width="272" height="330" rx="14" fill="url(#doc)" stroke="#2A4A80" stroke-width="3"/>
  <path d="M320 100 L392 172 L320 172 Z" fill="#0A1428" stroke="#2A4A80" stroke-width="2"/>
  <rect x="320" y="100" width="72" height="72" rx="0" fill="#0A1428" stroke="#2A4A80" stroke-width="2"/>
  <line x1="155" y1="195" x2="357" y2="195" stroke="#2196F3" stroke-width="4" opacity="0.9"/>
  <line x1="155" y1="230" x2="357" y2="230" stroke="#42A5F5" stroke-width="3" opacity="0.7"/>
  <line x1="155" y1="265" x2="310" y2="265" stroke="#64B5F6" stroke-width="3" opacity="0.6"/>
  <line x1="155" y1="300" x2="340" y2="300" stroke="#2196F3" stroke-width="3" opacity="0.8"/>
  <line x1="155" y1="335" x2="280" y2="335" stroke="#42A5F5" stroke-width="3" opacity="0.6"/>
  <circle cx="148" cy="195" r="6" fill="#F44336"/>
  <circle cx="148" cy="230" r="6" fill="#FF9800"/>
  <circle cx="148" cy="265" r="6" fill="#4CAF50"/>
  <circle cx="148" cy="300" r="6" fill="#2196F3"/>
  <circle cx="148" cy="335" r="6" fill="#4CAF50"/>
</svg>