<svg xmlns="http://www.w3.org/2000/svg" viewBox="0 0 1024 1024">
  <rect x="80" y="80" width="864" height="864" rx="180" fill="#050010"/>
  <!-- 폭발하는 벽돌들 -->
  <!-- 중심 폭발 -->
  <circle cx="512" cy="512" r="100" fill="#5C6BC0" opacity="0.3"/>
  <circle cx="512" cy="512" r="60" fill="#5C6BC0" opacity="0.5"/>
  <!-- 벽돌 파편 -->
  <rect x="240" y="240" width="120" height="60" rx="10" fill="#1A237E" transform="rotate(-25 300 270)"/>
  <rect x="660" y="200" width="120" height="60" rx="10" fill="#5C6BC0" transform="rotate(20 720 230)"/>
  <rect x="180" y="580" width="120" height="60" rx="10" fill="#1A237E" transform="rotate(15 240 610)"/>
  <rect x="700" y="620" width="120" height="60" rx="10" fill="#5C6BC0" transform="rotate(-30 760 650)"/>
  <rect x="380" y="180" width="120" height="60" rx="10" fill="#5C6BC0" transform="rotate(-10 440 210)"/>
  <rect x="520" y="750" width="120" height="60" rx="10" fill="#1A237E" transform="rotate(25 580 780)"/>
  <rect x="160" y="380" width="120" height="60" rx="10" fill="#5C6BC0" transform="rotate(-20 220 410)"/>
  <rect x="740" y="380" width="120" height="60" rx="10" fill="#1A237E" transform="rotate(15 800 410)"/>
  <!-- 폭발 선 -->
  <line x1="512" y1="512" x2="320" y2="320" stroke="#5C6BC0" stroke-width="14" opacity="0.6" stroke-linecap="round"/>
  <line x1="512" y1="512" x2="704" y2="320" stroke="#5C6BC0" stroke-width="14" opacity="0.6" stroke-linecap="round"/>
  <line x1="512" y1="512" x2="320" y2="704" stroke="#5C6BC0" stroke-width="14" opacity="0.6" stroke-linecap="round"/>
  <line x1="512" y1="512" x2="704" y2="704" stroke="#5C6BC0" stroke-width="14" opacity="0.6" stroke-linecap="round"/>
  <line x1="512" y1="512" x2="512" y2="260" stroke="#5C6BC0" stroke-width="12" opacity="0.5" stroke-linecap="round"/>
  <line x1="512" y1="512" x2="512" y2="764" stroke="#5C6BC0" stroke-width="12" opacity="0.5" stroke-linecap="round"/>
  <line x1="512" y1="512" x2="260" y2="512" stroke="#5C6BC0" stroke-width="12" opacity="0.5" stroke-linecap="round"/>
  <line x1="512" y1="512" x2="764" y2="512" stroke="#5C6BC0" stroke-width="12" opacity="0.5" stroke-linecap="round"/>
</svg>