<svg xmlns="http://www.w3.org/2000/svg" viewBox="0 0 1024 1024">
  <rect x="80" y="80" width="864" height="864" rx="180" fill="#050010"/>
  <!-- 벽돌 배열 -->
  <rect x="200" y="200" width="180" height="80" rx="12" fill="#1A237E"/>
  <rect x="400" y="200" width="180" height="80" rx="12" fill="#1A237E"/>
  <rect x="600" y="200" width="224" height="80" rx="12" fill="#1A237E"/>
  <rect x="280" y="300" width="180" height="80" rx="12" fill="#5C6BC0"/>
  <rect x="480" y="300" width="180" height="80" rx="12" fill="#1A237E"/>
  <rect x="680" y="300" width="144" height="80" rx="12" fill="#5C6BC0"/>
  <rect x="200" y="400" width="180" height="80" rx="12" fill="#5C6BC0"/>
  <rect x="400" y="400" width="180" height="80" rx="12" fill="#1A237E"/>
  <rect x="600" y="400" width="224" height="80" rx="12" fill="#5C6BC0"/>
  <!-- 공 -->
  <circle cx="460" cy="620" r="56" fill="#5C6BC0"/>
  <circle cx="460" cy="612" r="40" fill="#1A237E"/>
  <!-- 충돌 폭발 -->
  <circle cx="490" cy="440" r="80" fill="#5C6BC0" opacity="0.25"/>
  <line x1="490" y1="380" x2="490" y2="340" stroke="#5C6BC0" stroke-width="12" stroke-linecap="round"/>
  <line x1="540" y1="400" x2="580" y2="370" stroke="#5C6BC0" stroke-width="10" stroke-linecap="round"/>
  <line x1="440" y1="400" x2="400" y2="370" stroke="#5C6BC0" stroke-width="10" stroke-linecap="round"/>
  <!-- 패들 -->
  <rect x="280" y="780" width="360" height="60" rx="30" fill="#1A237E"/>
</svg>