<svg xmlns="http://www.w3.org/2000/svg" viewBox="0 0 512 512">
  <defs>
    <radialGradient id="bg" cx="50%" cy="50%" r="70%">
      <stop offset="0%" style="stop-color:#1a1035"/>
      <stop offset="100%" style="stop-color:#0a0820"/>
    </radialGradient>
  </defs>
  <rect width="512" height="512" rx="80" fill="url(#bg)"/>
  <!-- Pie chart -->
  <circle cx="220" cy="220" r="140" fill="#1a1035" stroke="#333" stroke-width="2"/>
  <!-- Pie slices using paths -->
  <path d="M220,220 L360,220 A140,140 0 0,0 290,95 Z" fill="#7c4dff"/>
  <path d="M220,220 L290,95 A140,140 0 0,0 110,110 Z" fill="#e040fb"/>
  <path d="M220,220 L110,110 A140,140 0 0,0 80,280 Z" fill="#00bcd4"/>
  <path d="M220,220 L80,280 A140,140 0 0,0 360,220 Z" fill="#ff6e40"/>
  <!-- Center hole -->
  <circle cx="220" cy="220" r="60" fill="#1a1035"/>
  <!-- Legend -->
  <rect x="380" y="120" width="14" height="14" rx="3" fill="#7c4dff"/>
  <rect x="380" y="148" width="14" height="14" rx="3" fill="#e040fb"/>
  <rect x="380" y="176" width="14" height="14" rx="3" fill="#00bcd4"/>
  <rect x="380" y="204" width="14" height="14" rx="3" fill="#ff6e40"/>
  <rect x="400" y="122" width="60" height="10" rx="3" fill="#7c4dff" opacity="0.4"/>
  <rect x="400" y="150" width="52" height="10" rx="3" fill="#e040fb" opacity="0.4"/>
  <rect x="400" y="178" width="56" height="10" rx="3" fill="#00bcd4" opacity="0.4"/>
  <rect x="400" y="206" width="48" height="10" rx="3" fill="#ff6e40" opacity="0.4"/>
  <!-- Report doc icon -->
  <rect x="100" y="380" width="312" height="80" rx="12" fill="#1e1840" stroke="#7c4dff" stroke-width="2"/>
  <rect x="120" y="396" width="180" height="8" rx="3" fill="#7c4dff" opacity="0.4"/>
  <rect x="120" y="414" width="140" height="8" rx="3" fill="#7c4dff" opacity="0.3"/>
  <rect x="120" y="432" width="200" height="8" rx="3" fill="#7c4dff" opacity="0.3"/>
  <circle cx="360" cy="420" r="24" fill="#7c4dff" opacity="0.3" stroke="#7c4dff" stroke-width="2"/>
  <text x="360" y="426" text-anchor="middle" fill="#b388ff" font-size="16" font-weight="bold">i</text>
</svg>