<svg xmlns="http://www.w3.org/2000/svg" viewBox="0 0 1024 1024">
  <defs>
    <radialGradient id="bg" cx="50%" cy="40%" r="65%">
      <stop offset="0%" stop-color="#FF8FB1"/>
      <stop offset="100%" stop-color="#E91E63"/>
    </radialGradient>
  </defs>
  <rect width="1024" height="1024" rx="190" fill="url(#bg)"/>
  <!-- White main card -->
  <rect x="100" y="138" width="824" height="538" rx="48" fill="#FFFFFF" stroke="#880E4F" stroke-width="16"/>
  <!-- Folder shape (empty folder — hollow) -->
  <path d="M 196,280 L 196,580 Q 196,608 224,608 L 828,608 Q 856,608 856,580 L 856,316 Q 856,288 828,288 L 540,288 L 496,256 Q 484,244 468,244 L 224,244 Q 196,244 196,272 Z"
        fill="#FCE4EC" stroke="#E91E63" stroke-width="16" stroke-linejoin="round"/>
  <!-- Folder tab top -->
  <!-- Large red X overlay on folder -->
  <line x1="296" y1="330" x2="748" y2="560" stroke="#D32F2F" stroke-width="28" stroke-linecap="round"/>
  <line x1="748" y1="330" x2="296" y2="560" stroke="#D32F2F" stroke-width="28" stroke-linecap="round"/>
  <!-- "0 files" label inside -->
  <text x="512" y="460" font-family="Arial Black, sans-serif" font-weight="900" font-size="88" fill="#EF9A9A" text-anchor="middle" opacity="0.5">EMPTY</text>
  <!-- PURGE badge -->
  <rect x="214" y="748" width="596" height="116" rx="36" fill="#880E4F" stroke="#4A0728" stroke-width="14"/>
  <text x="512" y="834" font-family="Arial Black, sans-serif" font-weight="900" font-size="88" fill="#FFFFFF" text-anchor="middle">PURGE</text>
</svg>
