<svg xmlns="http://www.w3.org/2000/svg" viewBox="0 0 1024 1024">
  <defs>
    <linearGradient id="bg12" x1="0%" y1="0%" x2="100%" y2="100%">
      <stop offset="0%" stop-color="#C026D3"/>
      <stop offset="100%" stop-color="#A21CAF"/>
    </linearGradient>
    <linearGradient id="funnel12" x1="0%" y1="0%" x2="0%" y2="100%">
      <stop offset="0%" stop-color="white"/>
      <stop offset="100%" stop-color="#E9D5FF"/>
    </linearGradient>
  </defs>
  <rect width="1024" height="1024" rx="190" fill="url(#bg12)"/>
  <!-- 깔때기 본체 -->
  <!-- 상단 입력 넓은 부분 -->
  <path d="M160,220 L864,220 L620,540 L620,820 L404,820 L404,540 Z" fill="url(#funnel12)" opacity="0.95"/>
  <!-- 깔때기 테두리 -->
  <path d="M160,220 L864,220 L620,540 L620,820 L404,820 L404,540 Z" fill="none" stroke="white" stroke-width="16" stroke-linejoin="round"/>
  <!-- 깔때기 안 입력 텍스트 점들 (컬러풀) -->
  <!-- 상단 넓은 구역 -->
  <circle cx="240" cy="290" r="22" fill="#FDE68A"/>
  <circle cx="300" cy="310" r="18" fill="#F9A8D4"/>
  <circle cx="370" cy="285" r="24" fill="#A7F3D0"/>
  <circle cx="440" cy="305" r="20" fill="#BFDBFE"/>
  <circle cx="510" cy="278" r="22" fill="#FCA5A5"/>
  <circle cx="580" cy="298" r="18" fill="#FDE68A"/>
  <circle cx="650" cy="282" r="24" fill="#A7F3D0"/>
  <circle cx="720" cy="308" r="20" fill="#BFDBFE"/>
  <circle cx="790" cy="285" r="18" fill="#F9A8D4"/>
  <!-- 중간층 -->
  <circle cx="280" cy="360" r="20" fill="#F9A8D4"/>
  <circle cx="350" cy="380" r="22" fill="#FDE68A"/>
  <circle cx="430" cy="355" r="18" fill="#BFDBFE"/>
  <circle cx="510" cy="375" r="22" fill="#A7F3D0"/>
  <circle cx="590" cy="358" r="20" fill="#FCA5A5"/>
  <circle cx="670" cy="370" r="18" fill="#FDE68A"/>
  <circle cx="750" cy="355" r="22" fill="#BFDBFE"/>
  <!-- 중간-하단 좁아지는 구역 -->
  <circle cx="360" cy="440" r="18" fill="#A7F3D0"/>
  <circle cx="430" cy="460" r="20" fill="#FDE68A"/>
  <circle cx="510" cy="442" r="22" fill="#BFDBFE"/>
  <circle cx="590" cy="458" r="18" fill="#F9A8D4"/>
  <circle cx="650" cy="436" r="16" fill="#FCA5A5"/>
  <!-- 좁은 깔때기 구역 -->
  <circle cx="450" cy="530" r="16" fill="#FDE68A"/>
  <circle cx="512" cy="548" r="18" fill="#A7F3D0"/>
  <circle cx="574" cy="528" r="14" fill="#BFDBFE"/>
  <!-- 출력 하단 (정제된 큰 점) -->
  <circle cx="512" cy="700" r="60" fill="#FDE68A"/>
  <circle cx="512" cy="700" r="42" fill="#FEF3C7"/>
  <text x="512" y="718" font-family="system-ui, monospace, sans-serif" font-weight="bold" font-size="38" text-anchor="middle" fill="#92400E">✓</text>
</svg>
