<svg xmlns="http://www.w3.org/2000/svg" viewBox="0 0 1024 1024">
  <defs>
    <linearGradient id="bg06s" x1="0%" y1="0%" x2="0%" y2="100%">
      <stop offset="0%" stop-color="#004D40"/>
      <stop offset="100%" stop-color="#00695C"/>
    </linearGradient>
  </defs>
  <!-- Layer 1: 배경 -->
  <rect width="1024" height="1024" rx="190" fill="url(#bg06s)"/>
  <!-- Layer 2: 모래시계 -->
  <!-- 위쪽 bulb -->
  <path d="M320,220 L704,220 L580,510 L444,510 Z" fill="#E8C878"/>
  <!-- 아래쪽 bulb -->
  <path d="M444,514 L580,514 L704,804 L320,804 Z" fill="#E8C878" opacity="0.85"/>
  <!-- 모래 흘러내리는 부분 (목 부분) -->
  <rect x="498" y="490" width="28" height="50" fill="#E8C878"/>
  <!-- 모래알 궤적 -->
  <circle cx="512" cy="555" r="8" fill="#D4A840"/>
  <circle cx="506" cy="575" r="6" fill="#D4A840"/>
  <circle cx="518" cy="590" r="7" fill="#D4A840"/>
  <circle cx="508" cy="610" r="8" fill="#D4A840"/>
  <circle cx="516" cy="630" r="6" fill="#D4A840"/>
  <!-- 모래시계 외형 테두리 -->
  <path d="M320,220 L704,220 L580,510 L444,510 Z" fill="none" stroke="white" stroke-width="16"/>
  <path d="M444,514 L580,514 L704,804 L320,804 Z" fill="none" stroke="white" stroke-width="16"/>
  <!-- 위아래 가로선 -->
  <rect x="310" y="207" width="404" height="26" rx="13" fill="#A7FFEB"/>
  <rect x="310" y="791" width="404" height="26" rx="13" fill="#A7FFEB"/>
  <!-- 아래 쌓인 모래 -->
  <path d="M320,804 L704,804 L704,790 Q512,760 320,790 Z" fill="#C89030"/>
  <!-- Layer 3: 글로우 효과 -->
  <circle cx="512" cy="512" r="100" fill="#E8C878" opacity="0.08"/>
  <text x="512" y="920" text-anchor="middle" font-family="Arial Black" font-size="72" font-weight="900" fill="#A7FFEB">Sand Fall</text>
</svg>