<svg xmlns="http://www.w3.org/2000/svg" viewBox="0 0 1024 1024">
  <rect x="80" y="80" width="864" height="864" rx="180" fill="#0A0D1A"/>
  <!-- Central explosion burst -->
  <circle cx="512" cy="512" r="100" fill="#42A5F5"/>
  <!-- Explosion rays / shards -->
  <polygon points="512,412 480,300 544,300" fill="#1565C0"/>
  <polygon points="512,612 480,724 544,724" fill="#1565C0"/>
  <polygon points="412,512 300,480 300,544" fill="#1565C0"/>
  <polygon points="612,512 724,480 724,544" fill="#1565C0"/>
  <!-- Diagonal shards -->
  <polygon points="441,441 340,330 400,290" fill="#42A5F5" opacity="0.8"/>
  <polygon points="583,441 684,330 724,390" fill="#42A5F5" opacity="0.8"/>
  <polygon points="441,583 330,684 290,624" fill="#42A5F5" opacity="0.8"/>
  <polygon points="583,583 684,694 624,734" fill="#42A5F5" opacity="0.8"/>
  <!-- Small debris fragments -->
  <rect x="210" y="200" width="36" height="36" rx="6" fill="#42A5F5" opacity="0.5" transform="rotate(25 228 218)"/>
  <rect x="780" y="200" width="28" height="28" rx="5" fill="#42A5F5" opacity="0.4" transform="rotate(-30 794 214)"/>
  <rect x="200" y="780" width="32" height="32" rx="5" fill="#42A5F5" opacity="0.45" transform="rotate(15 216 796)"/>
  <rect x="780" y="780" width="30" height="30" rx="5" fill="#42A5F5" opacity="0.4" transform="rotate(-20 795 795)"/>
</svg>