<svg xmlns="http://www.w3.org/2000/svg" viewBox="0 0 512 512">
  <defs>
    <linearGradient id="bg" x1="0%" y1="0%" x2="100%" y2="100%">
      <stop offset="0%" stop-color="#1B5E20"/>
      <stop offset="100%" stop-color="#66BB6A"/>
    </linearGradient>
    <linearGradient id="badge" x1="0%" y1="0%" x2="100%" y2="100%">
      <stop offset="0%" stop-color="#FF6F00"/>
      <stop offset="100%" stop-color="#FFA000"/>
    </linearGradient>
  </defs>
  <rect width="512" height="512" rx="80" fill="url(#bg)"/>
  <!-- Action star burst -->
  <g transform="translate(256,256)">
    <polygon points="0,-235 28,-95 70,-170 45,-35 130,-105 70,0 160,40 65,55 115,145 25,90 20,190 -15,85 -80,160 -30,55 -145,80 -55,15 -155,-40 -45,-30 -80,-130 -5,-50" fill="#FFD600" stroke="#1A1A1A" stroke-width="4" stroke-linejoin="round"/>
  </g>
  <!-- Camera -->
  <rect x="148" y="188" width="216" height="156" rx="18" fill="#FAFAFA" stroke="#1A1A1A" stroke-width="6"/>
  <rect x="196" y="166" width="100" height="30" rx="10" fill="#FAFAFA" stroke="#1A1A1A" stroke-width="5"/>
  <!-- Lens -->
  <circle cx="256" cy="266" r="58" fill="#E8F5E9" stroke="#1A1A1A" stroke-width="6"/>
  <circle cx="256" cy="266" r="40" fill="#A5D6A7" stroke="#1A1A1A" stroke-width="4"/>
  <circle cx="256" cy="266" r="22" fill="#2E7D32" stroke="#1A1A1A" stroke-width="3"/>
  <circle cx="243" cy="253" r="8" fill="white" opacity="0.5"/>
  <!-- KAPOW badge -->
  <polygon points="390,75 430,55 415,100 455,90 410,125 440,150 395,135 390,175 358,148 330,168 340,125 302,105 345,95 330,58" fill="url(#badge)" stroke="#1A1A1A" stroke-width="4"/>
  <text x="383" y="118" text-anchor="middle" font-family="Arial Black" font-size="16" font-weight="900" fill="white">KA!</text>
  <!-- Transform arrow -->
  <path d="M320,340 Q360,320 390,340" stroke="#1A1A1A" stroke-width="6" fill="none" stroke-linecap="round"/>
  <polygon points="390,340 372,326 378,350" fill="#1A1A1A"/>
</svg>
