<svg xmlns="http://www.w3.org/2000/svg" viewBox="0 0 1024 1024">
  <defs>
    <linearGradient id="bg6" x1="0" y1="1" x2="1" y2="0">
      <stop offset="0%" stop-color="#EDE9FE"/>
      <stop offset="100%" stop-color="#7C3AED"/>
    </linearGradient>
  </defs>
  <!-- Layer 1: Background -->
  <rect width="1024" height="1024" rx="190" fill="url(#bg6)"/>
  <!-- Layer 2: Diagonal PATH string flowing through shield guard -->
  <!-- PATH string diagonal banner -->
  <rect x="100" y="290" width="750" height="90" rx="18" fill="white" opacity="0.88" transform="rotate(-12, 512, 512)"/>
  <text x="290" y="375" font-family="monospace" font-size="56" fill="#7C3AED" transform="rotate(-12, 512, 512)">C:\Windows\System32</text>
  <!-- Second diagonal PATH strip -->
  <rect x="100" y="410" width="750" height="90" rx="18" fill="white" opacity="0.72" transform="rotate(-12, 512, 512)"/>
  <text x="290" y="495" font-family="monospace" font-size="56" fill="#6B7280" transform="rotate(-12, 512, 512)">C:\Python313\Scripts</text>
  <!-- Third diagonal strip (warned) -->
  <rect x="100" y="530" width="750" height="90" rx="18" fill="#FEE2E2" opacity="0.75" transform="rotate(-12, 512, 512)"/>
  <text x="290" y="615" font-family="monospace" font-size="56" fill="#EF4444" transform="rotate(-12, 512, 512)">C:\duppath\old</text>
  <!-- Layer 3: Large shield guard icon -->
  <path d="M 512 600 L 512 760 Q 512 870 620 900 Q 728 870 728 760 L 728 600 Z" fill="#7C3AED"/>
  <path d="M 536 620 L 536 754 Q 536 842 620 866 Q 704 842 704 754 L 704 620 Z" fill="white" opacity="0.2"/>
  <polyline points="566,738 604,782 682,690" stroke="white" stroke-width="30" stroke-linecap="round" stroke-linejoin="round" fill="none"/>
  <!-- Warning badge on shield -->
  <circle cx="728" cy="620" r="38" fill="#FBBF24"/>
  <text x="728" y="636" font-family="Arial" font-size="42" fill="white" text-anchor="middle" font-weight="bold">!</text>
</svg>
