<svg xmlns="http://www.w3.org/2000/svg" viewBox="0 0 1024 1024">
  <rect x="80" y="80" width="864" height="864" rx="180" fill="#050A05"/>
  <!-- 마법봉 -->
  <rect x="240" y="640" width="380" height="32" rx="16" fill="#1B5E20" transform="rotate(-45 430 656)"/>
  <polygon points="300,740 270,800 360,780" fill="#66BB6A"/>
  <!-- 별 파티클 -->
  <circle cx="580" cy="320" r="18" fill="#66BB6A"/>
  <circle cx="640" cy="280" r="12" fill="#66BB6A" opacity="0.7"/>
  <circle cx="620" cy="360" r="10" fill="#66BB6A" opacity="0.6"/>
  <circle cx="700" cy="320" r="8" fill="#1B5E20"/>
  <!-- 생성되는 QR -->
  <rect x="560" y="380" width="240" height="240" rx="20" fill="none" stroke="#66BB6A" stroke-width="16" stroke-dasharray="20,8"/>
  <rect x="580" y="400" width="56" height="56" rx="8" fill="none" stroke="#66BB6A" stroke-width="10"/>
  <rect x="596" y="416" width="24" height="24" rx="3" fill="#66BB6A"/>
  <rect x="700" y="400" width="56" height="56" rx="8" fill="none" stroke="#66BB6A" stroke-width="10"/>
  <rect x="716" y="416" width="24" height="24" rx="3" fill="#66BB6A"/>
  <rect x="580" y="500" width="56" height="56" rx="8" fill="none" stroke="#66BB6A" stroke-width="10"/>
  <rect x="596" y="516" width="24" height="24" rx="3" fill="#66BB6A"/>
  <rect x="660" y="400" width="24" height="24" rx="3" fill="#1B5E20"/>
  <rect x="660" y="440" width="24" height="24" rx="3" fill="#66BB6A"/>
  <rect x="660" y="500" width="24" height="24" rx="3" fill="#1B5E20"/>
  <rect x="700" y="500" width="24" height="24" rx="3" fill="#66BB6A"/>
  <rect x="740" y="500" width="24" height="24" rx="3" fill="#1B5E20"/>
</svg>