<svg xmlns="http://www.w3.org/2000/svg" viewBox="0 0 1024 1024">
  <defs>
    <linearGradient id="bg_mv7" x1="0%" y1="0%" x2="100%" y2="100%">
      <stop offset="0%" style="stop-color:#65A30D"/>
      <stop offset="100%" style="stop-color:#4D7C0F"/>
    </linearGradient>
  </defs>
  <!-- 배경 -->
  <rect width="1024" height="1024" rx="185" fill="url(#bg_mv7)"/>
  <!-- 왼쪽 파일 아이콘 (.md) -->
  <rect x="200" y="310" width="240" height="300" rx="20" fill="white"/>
  <!-- 파일 접힌 모서리 -->
  <polygon points="360,310 440,390 360,390" fill="#E2E8F0"/>
  <line x1="360" y1="310" x2="440" y2="390" stroke="#CBD5E1" stroke-width="6"/>
  <!-- .md 텍스트 -->
  <text x="280" y="540" font-family="'Arial Black', monospace" font-size="52" font-weight="900" fill="#4D7C0F" text-anchor="middle">.md</text>
  <!-- 화살표 -->
  <line x1="470" y1="470" x2="570" y2="470" stroke="white" stroke-width="36" stroke-linecap="round"/>
  <polygon points="564,440 620,470 564,500" fill="white"/>
  <!-- 오른쪽 렌더된 문서 -->
  <rect x="630" y="290" width="280" height="360" rx="20" fill="white"/>
  <!-- 렌더 문서 내용: 제목 (굵은 줄) -->
  <rect x="650" y="318" width="220" height="36" rx="8" fill="#166534"/>
  <rect x="650" y="368" width="180" height="22" rx="6" fill="#BBF7D0"/>
  <rect x="650" y="402" width="200" height="18" rx="5" fill="#D1FAE5"/>
  <rect x="650" y="432" width="150" height="18" rx="5" fill="#D1FAE5"/>
  <!-- 코드블록 -->
  <rect x="650" y="466" width="230" height="60" rx="10" fill="#F0FDF4" stroke="#86EFAC" stroke-width="4"/>
  <rect x="664" y="480" width="180" height="14" rx="4" fill="#4ADE80" opacity="0.7"/>
  <rect x="664" y="502" width="140" height="14" rx="4" fill="#4ADE80" opacity="0.5"/>
  <rect x="650" y="542" width="190" height="18" rx="5" fill="#D1FAE5"/>
  <rect x="650" y="572" width="210" height="18" rx="5" fill="#D1FAE5"/>
  <rect x="650" y="601" width="160" height="18" rx="5" fill="#D1FAE5"/>
</svg>
