<svg xmlns="http://www.w3.org/2000/svg" viewBox="0 0 512 512">
  <defs>
    <linearGradient id="bg" x1="0" y1="0" x2="0" y2="1">
      <stop offset="0%" stop-color="#000033"/>
      <stop offset="100%" stop-color="#000011"/>
    </linearGradient>
  </defs>
  <rect width="512" height="512" rx="80" fill="url(#bg)"/>
  <!-- Retro pixel art style - falling sand game logo feel -->
  <!-- Large blocky pixels in a pattern like falling sand game -->
  <!-- Column 1 -->
  <rect x="90" y="100" width="40" height="40" fill="#FF0066"/>
  <rect x="90" y="148" width="40" height="40" fill="#FF0066"/>
  <rect x="90" y="196" width="40" height="40" fill="#FF0066"/>
  <rect x="90" y="244" width="40" height="40" fill="#FF4400"/>
  <rect x="90" y="292" width="40" height="40" fill="#FF8800"/>
  <rect x="90" y="340" width="40" height="40" fill="#FFCC00"/>
  <rect x="90" y="388" width="40" height="40" fill="#FFFF00"/>
  <!-- Column 2 -->
  <rect x="138" y="148" width="40" height="40" fill="#FF0066"/>
  <rect x="138" y="196" width="40" height="40" fill="#00FFCC"/>
  <rect x="138" y="244" width="40" height="40" fill="#00FFCC"/>
  <rect x="138" y="292" width="40" height="40" fill="#FF8800"/>
  <rect x="138" y="340" width="40" height="40" fill="#FFFF00"/>
  <rect x="138" y="388" width="40" height="40" fill="#FFFF00"/>
  <!-- Column 3 -->
  <rect x="186" y="196" width="40" height="40" fill="#00FFCC"/>
  <rect x="186" y="244" width="40" height="40" fill="#00FF88"/>
  <rect x="186" y="292" width="40" height="40" fill="#00FF88"/>
  <rect x="186" y="340" width="40" height="40" fill="#FFCC00"/>
  <rect x="186" y="388" width="40" height="40" fill="#FFFF00"/>
  <!-- Column 4 (center) -->
  <rect x="234" y="100" width="40" height="40" fill="#00FFFF"/>
  <rect x="234" y="244" width="40" height="40" fill="#00FF88"/>
  <rect x="234" y="292" width="40" height="40" fill="#FFCC00"/>
  <rect x="234" y="340" width="40" height="40" fill="#FFCC00"/>
  <rect x="234" y="388" width="40" height="40" fill="#FFFF00"/>
  <!-- Column 5 -->
  <rect x="282" y="148" width="40" height="40" fill="#00FFFF"/>
  <rect x="282" y="196" width="40" height="40" fill="#00FFCC"/>
  <rect x="282" y="244" width="40" height="40" fill="#00FF88"/>
  <rect x="282" y="292" width="40" height="40" fill="#FF8800"/>
  <rect x="282" y="340" width="40" height="40" fill="#FFCC00"/>
  <rect x="282" y="388" width="40" height="40" fill="#FFFF00"/>
  <!-- Column 6 -->
  <rect x="330" y="196" width="40" height="40" fill="#FF0066"/>
  <rect x="330" y="244" width="40" height="40" fill="#00FFFF"/>
  <rect x="330" y="292" width="40" height="40" fill="#FF4400"/>
  <rect x="330" y="340" width="40" height="40" fill="#FF8800"/>
  <rect x="330" y="388" width="40" height="40" fill="#FFFF00"/>
  <!-- Column 7 -->
  <rect x="378" y="100" width="40" height="40" fill="#FF0066"/>
  <rect x="378" y="148" width="40" height="40" fill="#FF0066"/>
  <rect x="378" y="196" width="40" height="40" fill="#FF0066"/>
  <rect x="378" y="244" width="40" height="40" fill="#FF4400"/>
  <rect x="378" y="292" width="40" height="40" fill="#FF8800"/>
  <rect x="378" y="340" width="40" height="40" fill="#FFCC00"/>
  <rect x="378" y="388" width="40" height="40" fill="#FFFF00"/>
</svg>
