<svg xmlns="http://www.w3.org/2000/svg" viewBox="0 0 1024 1024">
  <defs>
    <linearGradient id="bg3" x1="0%" y1="0%" x2="100%" y2="100%">
      <stop offset="0%" stop-color="#7C3AED"/>
      <stop offset="100%" stop-color="#A855F7"/>
    </linearGradient>
  </defs>
  <!-- Background -->
  <rect width="1024" height="1024" rx="190" fill="url(#bg3)"/>
  <!-- File grid 3x3 -->
  <!-- Row 1 -->
  <rect x="170" y="180" width="195" height="200" rx="18" fill="#FFFFFF" opacity="0.9"/>
  <rect x="170" y="180" width="195" height="55" rx="18" fill="#3B82F6"/>
  <rect x="170" y="217" width="195" height="18" rx="0" fill="#3B82F6"/>
  <text x="267" y="350" font-family="Consolas,monospace" font-size="58" fill="#1E40AF" font-weight="bold" text-anchor="middle">.txt</text>
  <circle cx="365" cy="280" r="24" fill="#22C55E"/>

  <rect x="415" y="180" width="195" height="200" rx="18" fill="#FFFFFF" opacity="0.9"/>
  <rect x="415" y="180" width="195" height="55" rx="18" fill="#EF4444"/>
  <rect x="415" y="217" width="195" height="18" rx="0" fill="#EF4444"/>
  <text x="512" y="350" font-family="Consolas,monospace" font-size="58" fill="#B91C1C" font-weight="bold" text-anchor="middle">.jpg</text>
  <circle cx="610" cy="280" r="24" fill="#22C55E"/>

  <rect x="659" y="180" width="195" height="200" rx="18" fill="#FFFFFF" opacity="0.9"/>
  <rect x="659" y="180" width="195" height="55" rx="18" fill="#F59E0B"/>
  <rect x="659" y="217" width="195" height="18" rx="0" fill="#F59E0B"/>
  <text x="756" y="350" font-family="Consolas,monospace" font-size="58" fill="#B45309" font-weight="bold" text-anchor="middle">.pdf</text>
  <circle cx="854" cy="280" r="24" fill="#EF4444"/>

  <!-- Row 2 -->
  <rect x="170" y="420" width="195" height="200" rx="18" fill="#FFFFFF" opacity="0.9"/>
  <rect x="170" y="420" width="195" height="55" rx="18" fill="#10B981"/>
  <rect x="170" y="457" width="195" height="18" rx="0" fill="#10B981"/>
  <text x="267" y="590" font-family="Consolas,monospace" font-size="58" fill="#047857" font-weight="bold" text-anchor="middle">.mp4</text>
  <circle cx="365" cy="520" r="24" fill="#22C55E"/>

  <rect x="415" y="420" width="195" height="200" rx="18" fill="#FFFFFF" opacity="0.9"/>
  <rect x="415" y="420" width="195" height="55" rx="18" fill="#6366F1"/>
  <rect x="415" y="457" width="195" height="18" rx="0" fill="#6366F1"/>
  <text x="512" y="590" font-family="Consolas,monospace" font-size="58" fill="#4338CA" font-weight="bold" text-anchor="middle">.exe</text>
  <circle cx="610" cy="520" r="24" fill="#F59E0B"/>

  <rect x="659" y="420" width="195" height="200" rx="18" fill="#FFFFFF" opacity="0.9"/>
  <rect x="659" y="420" width="195" height="55" rx="18" fill="#0284C7"/>
  <rect x="659" y="457" width="195" height="18" rx="0" fill="#0284C7"/>
  <text x="756" y="590" font-family="Consolas,monospace" font-size="58" fill="#0C4A6E" font-weight="bold" text-anchor="middle">.zip</text>
  <circle cx="854" cy="520" r="24" fill="#22C55E"/>

  <!-- Label -->
  <text x="512" y="780" font-family="Arial,sans-serif" font-size="64" fill="#FFFFFF" font-weight="bold" text-anchor="middle">Ext Boss</text>
  <text x="512" y="850" font-family="Arial,sans-serif" font-size="48" fill="#DDD6FE" text-anchor="middle">파일 연결 관리</text>
</svg>
