<svg xmlns="http://www.w3.org/2000/svg" viewBox="0 0 1024 1024">
  <rect x="80" y="80" width="864" height="864" rx="180" fill="#000A08"/>
  <!-- 안테나 기둥 -->
  <rect x="488" y="500" width="48" height="280" rx="12" fill="#00695C"/>
  <rect x="380" y="760" width="264" height="44" rx="12" fill="#00695C"/>
  <path d="M440 760 L488 500 L536 500 L584 760 Z" fill="#00695C" opacity="0.6"/>
  <line x1="512" y1="500" x2="512" y2="260" stroke="#4DB6AC" stroke-width="24" stroke-linecap="round"/>
  <!-- 방송 파동 (좌) -->
  <path d="M360 400 A200 150 0 0 0 512 260" fill="none" stroke="#4DB6AC" stroke-width="28" stroke-linecap="round" opacity="0.8"/>
  <path d="M280 460 A280 220 0 0 0 512 260" fill="none" stroke="#00695C" stroke-width="20" stroke-linecap="round" opacity="0.5"/>
  <path d="M200 520 A360 290 0 0 0 512 260" fill="none" stroke="#00695C" stroke-width="14" stroke-linecap="round" opacity="0.3"/>
  <!-- 방송 파동 (우) -->
  <path d="M664 400 A200 150 0 0 1 512 260" fill="none" stroke="#4DB6AC" stroke-width="28" stroke-linecap="round" opacity="0.8"/>
  <path d="M744 460 A280 220 0 0 1 512 260" fill="none" stroke="#00695C" stroke-width="20" stroke-linecap="round" opacity="0.5"/>
  <path d="M824 520 A360 290 0 0 1 512 260" fill="none" stroke="#00695C" stroke-width="14" stroke-linecap="round" opacity="0.3"/>
  <!-- 안테나 꼭지 -->
  <circle cx="512" cy="250" r="28" fill="#4DB6AC"/>
</svg>
