<svg xmlns="http://www.w3.org/2000/svg" viewBox="0 0 512 512">
  <defs>
    <linearGradient id="bg" x1="0" y1="0" x2="1" y2="1">
      <stop offset="0%" stop-color="#311B92"/>
      <stop offset="100%" stop-color="#6A1B9A"/>
    </linearGradient>
  </defs>
  <rect width="512" height="512" rx="80" fill="url(#bg)"/>
  <!-- Painter's palette -->
  <path d="M160 200 C140 180 130 220 136 256 C142 292 160 320 200 336 C240 352 280 348 312 332 C344 316 368 288 372 256 C376 224 360 196 340 188 C320 180 300 192 288 208 C280 220 276 240 276 256 C276 272 268 280 256 280 C244 280 236 272 236 260 C236 248 228 236 216 228 C204 220 180 220 160 200Z" fill="#4A148C" stroke="#CE93D8" stroke-width="3"/>
  <!-- Color swatches on palette -->
  <circle cx="200" cy="220" r="18" fill="#FF1744"/>
  <circle cx="250" cy="200" r="18" fill="#FF6D00"/>
  <circle cx="300" cy="210" r="18" fill="#FFD600"/>
  <circle cx="340" cy="240" r="18" fill="#00E676"/>
  <circle cx="348" cy="288" r="18" fill="#00E5FF"/>
  <circle cx="320" cy="326" r="18" fill="#2979FF"/>
  <circle cx="270" cy="342" r="18" fill="#D500F9"/>
  <!-- Brush handle -->
  <rect x="134" y="128" width="16" height="100" rx="8" fill="#6D4C41" transform="rotate(-30 142 178)"/>
  <rect x="126" y="206" width="20" height="30" rx="4" fill="#CE93D8" transform="rotate(-30 136 221)"/>
  <!-- Hole in palette -->
  <circle cx="190" cy="310" r="16" fill="#311B92"/>
</svg>
