<svg xmlns="http://www.w3.org/2000/svg" viewBox="0 0 512 512">
  <defs>
    <linearGradient id="bg" x1="0" y1="0" x2="1" y2="1">
      <stop offset="0%" stop-color="#0f2027"/>
      <stop offset="50%" stop-color="#203a43"/>
      <stop offset="100%" stop-color="#2c5364"/>
    </linearGradient>
    <linearGradient id="bldg1" x1="0" y1="0" x2="0" y2="1">
      <stop offset="0%" stop-color="#4a9eff"/>
      <stop offset="100%" stop-color="#2266cc"/>
    </linearGradient>
    <linearGradient id="bldg2" x1="0" y1="0" x2="0" y2="1">
      <stop offset="0%" stop-color="#66bbff"/>
      <stop offset="100%" stop-color="#3388ee"/>
    </linearGradient>
    <linearGradient id="runner_g" x1="0" y1="0" x2="0" y2="1">
      <stop offset="0%" stop-color="#ff6600"/>
      <stop offset="100%" stop-color="#cc3300"/>
    </linearGradient>
  </defs>
  <rect width="512" height="512" rx="80" fill="url(#bg)"/>
  <!-- Isometric buildings -->
  <!-- Building 1 - left -->
  <polygon points="120,200 180,168 240,200 240,320 180,352 120,320" fill="#1a3a5c"/>
  <polygon points="120,200 180,168 240,200 180,232" fill="url(#bldg2)"/>
  <polygon points="120,200 180,232 180,352 120,320" fill="#1a2a44"/>
  <polygon points="240,200 180,232 180,352 240,320" fill="#142030"/>
  <!-- Windows building 1 -->
  <rect x="128" y="215" width="14" height="18" fill="#00ffff" opacity="0.7"/>
  <rect x="148" y="215" width="14" height="18" fill="#00ffff" opacity="0.4"/>
  <rect x="128" y="245" width="14" height="18" fill="#00ffff" opacity="0.5"/>
  <rect x="148" y="245" width="14" height="18" fill="#00ffff" opacity="0.8"/>
  <rect x="128" y="275" width="14" height="18" fill="#00ffff" opacity="0.3"/>
  <rect x="148" y="275" width="14" height="18" fill="#00ffff" opacity="0.6"/>
  <!-- Building 2 - center tall -->
  <polygon points="196,120 276,80 356,120 356,280 276,320 196,280" fill="#1a2a4a"/>
  <polygon points="196,120 276,80 356,120 276,160" fill="url(#bldg1)"/>
  <polygon points="196,120 276,160 276,320 196,280" fill="#122038"/>
  <polygon points="356,120 276,160 276,320 356,280" fill="#0e1828"/>
  <!-- Windows building 2 -->
  <rect x="204" y="136" width="16" height="20" fill="#66ccff" opacity="0.8"/>
  <rect x="232" y="136" width="16" height="20" fill="#66ccff" opacity="0.5"/>
  <rect x="204" y="168" width="16" height="20" fill="#66ccff" opacity="0.6"/>
  <rect x="232" y="168" width="16" height="20" fill="#66ccff" opacity="0.9"/>
  <rect x="204" y="200" width="16" height="20" fill="#66ccff" opacity="0.4"/>
  <rect x="232" y="200" width="16" height="20" fill="#66ccff" opacity="0.7"/>
  <rect x="204" y="232" width="16" height="20" fill="#66ccff" opacity="0.8"/>
  <rect x="232" y="232" width="16" height="20" fill="#66ccff" opacity="0.5"/>
  <rect x="204" y="264" width="16" height="20" fill="#66ccff" opacity="0.6"/>
  <!-- Building 3 - right -->
  <polygon points="308,188 364,160 420,188 420,300 364,328 308,300" fill="#1a3a2a"/>
  <polygon points="308,188 364,160 420,188 364,216" fill="#2a5a3a"/>
  <polygon points="308,188 364,216 364,328 308,300" fill="#122a1a"/>
  <polygon points="420,188 364,216 364,328 420,300" fill="#0e2016"/>
  <!-- Windows building 3 -->
  <rect x="316" y="204" width="14" height="16" fill="#00ff88" opacity="0.7"/>
  <rect x="340" y="204" width="14" height="16" fill="#00ff88" opacity="0.4"/>
  <rect x="316" y="232" width="14" height="16" fill="#00ff88" opacity="0.8"/>
  <rect x="340" y="232" width="14" height="16" fill="#00ff88" opacity="0.5"/>
  <rect x="316" y="260" width="14" height="16" fill="#00ff88" opacity="0.3"/>
  <rect x="340" y="260" width="14" height="16" fill="#00ff88" opacity="0.7"/>
  <!-- Road iso -->
  <polygon points="80,370 256,295 432,370 432,400 256,325 80,400" fill="#222"/>
  <line x1="256" y1="295" x2="256" y2="325" stroke="#ffcc00" stroke-width="4" opacity="0.6"/>
  <!-- Runner -->
  <ellipse cx="256" cy="350" rx="16" ry="16" fill="url(#runner_g)"/>
  <rect x="244" y="366" width="24" height="28" rx="6" fill="#ff6600"/>
  <line x1="244" y1="382" x2="228" y2="398" stroke="#ff6600" stroke-width="9" stroke-linecap="round"/>
  <line x1="268" y1="382" x2="280" y2="396" stroke="#ff6600" stroke-width="9" stroke-linecap="round"/>
  <line x1="250" y1="394" x2="238" y2="414" stroke="#ff6600" stroke-width="9" stroke-linecap="round"/>
  <line x1="262" y1="394" x2="274" y2="412" stroke="#ff6600" stroke-width="9" stroke-linecap="round"/>
  <!-- Title area -->
  <text x="256" y="468" font-family="Arial Black, sans-serif" font-size="40" font-weight="900" fill="#4a9eff" text-anchor="middle" letter-spacing="4">DASH CITY</text>
</svg>
