<svg xmlns="http://www.w3.org/2000/svg" viewBox="0 0 512 512">
  <defs>
    <linearGradient id="bg" x1="0%" y1="0%" x2="0%" y2="100%">
      <stop offset="0%" stop-color="#0A1E2E"/>
      <stop offset="100%" stop-color="#0D3A5C"/>
    </linearGradient>
    <linearGradient id="bigwave" x1="0%" y1="0%" x2="100%" y2="100%">
      <stop offset="0%" stop-color="#1565C0"/>
      <stop offset="100%" stop-color="#0288D1"/>
    </linearGradient>
  </defs>
  <rect width="512" height="512" rx="80" fill="url(#bg)"/>
  <path d="M60 350 Q100 200 200 180 Q260 170 280 220 Q300 270 340 240 Q390 200 460 260" fill="url(#bigwave)" opacity="0.9"/>
  <path d="M60 350 Q100 200 200 180 Q260 170 280 220 Q300 270 340 240 Q390 200 460 260 L460 512 L60 512 Z" fill="#0D47A1" opacity="0.6"/>
  <path d="M70 348 Q110 320 150 340 Q190 360 230 340 Q270 320 310 342 Q350 364 390 344 Q420 330 460 348" stroke="#FFFFFF" stroke-width="16" fill="none" stroke-linecap="round" opacity="0.9"/>
  <path d="M80 360 Q120 340 160 358 Q200 376 240 358 Q280 340 320 360 Q360 380 400 362 Q430 348 460 360" stroke="#BBDEFB" stroke-width="8" fill="none" stroke-linecap="round" opacity="0.6"/>
  <ellipse cx="260" cy="212" rx="36" ry="21" fill="#FFFFFF" opacity="0.9" transform="rotate(-22 260 212)"/>
  <rect x="253" y="184" width="8" height="55" rx="4" fill="#FFCA28"/>
</svg>