<svg xmlns="http://www.w3.org/2000/svg" viewBox="0 0 512 512">
  <defs>
    <linearGradient id="bg" x1="0%" y1="0%" x2="0%" y2="100%">
      <stop offset="0%" stop-color="#1A0A14"/>
      <stop offset="50%" stop-color="#4A1035"/>
      <stop offset="100%" stop-color="#0A2244"/>
    </linearGradient>
    <linearGradient id="sea" x1="0%" y1="0%" x2="100%" y2="0%">
      <stop offset="0%" stop-color="#880E4F"/>
      <stop offset="100%" stop-color="#1565C0"/>
    </linearGradient>
  </defs>
  <rect width="512" height="512" rx="80" fill="url(#bg)"/>
  <circle cx="256" cy="290" r="90" fill="#F48FB1" opacity="0.8"/>
  <path d="M0 290 L512 290 L512 512 L0 512 Z" fill="url(#sea)" opacity="0.7"/>
  <path d="M0 290 Q128 250 256 290 Q384 330 512 290" fill="#AD1457" opacity="0.4"/>
  <line x1="256" y1="200" x2="256" y2="290" stroke="#F8BBD9" stroke-width="4" opacity="0.7"/>
  <path d="M100 280 Q180 250 260 278 Q300 290 330 275 Q380 255 450 270" stroke="#F48FB1" stroke-width="8" fill="none" stroke-linecap="round" opacity="0.9"/>
  <ellipse cx="295" cy="265" rx="32" ry="19" fill="#F48FB1" opacity="0.9" transform="rotate(-18 295 265)"/>
  <rect x="289" y="238" width="7" height="52" rx="3" fill="#FCE4EC"/>
</svg>