<svg xmlns="http://www.w3.org/2000/svg" viewBox="0 0 512 512">
  <defs>
    <linearGradient id="bg" x1="0%" y1="0%" x2="0%" y2="100%">
      <stop offset="0%" stop-color="#1A1A2E"/>
      <stop offset="100%" stop-color="#0A0A18"/>
    </linearGradient>
    <linearGradient id="storm" x1="0%" y1="0%" x2="100%" y2="0%">
      <stop offset="0%" stop-color="#455A64"/>
      <stop offset="100%" stop-color="#78909C"/>
    </linearGradient>
  </defs>
  <rect width="512" height="512" rx="80" fill="url(#bg)"/>
  <path d="M60 260 Q90 160 180 140 Q250 128 280 180 Q300 210 340 190 Q400 165 450 220" stroke="url(#storm)" stroke-width="40" fill="none" stroke-linecap="round" opacity="0.7"/>
  <path d="M60 300 Q90 200 180 180 Q250 168 280 220 Q300 250 340 230 Q400 205 450 260" stroke="#546E7A" stroke-width="20" fill="none" stroke-linecap="round" opacity="0.6"/>
  <path d="M0 360 Q80 320 160 360 Q240 400 320 360 Q400 320 512 360 L512 512 L0 512 Z" fill="#37474F" opacity="0.8"/>
  <path d="M0 390 Q80 350 160 390 Q240 430 320 390 Q400 350 512 390 L512 512 L0 512 Z" fill="#263238" opacity="0.7"/>
  <path d="M260 180 L238 240 L260 240 L236 320" stroke="#FFEE58" stroke-width="8" fill="none" stroke-linecap="round"/>
  <ellipse cx="220" cy="350" rx="34" ry="20" fill="#546E7A" opacity="0.9" transform="rotate(-12 220 350)"/>
  <rect x="214" y="322" width="7" height="46" rx="3" fill="#78909C" opacity="0.9"/>
</svg>