<svg xmlns="http://www.w3.org/2000/svg" viewBox="0 0 1024 1024">
  <rect x="80" y="80" width="864" height="864" rx="180" fill="#0A0010"/>
  <!-- 만화 프레임 확대 -->
  <!-- 배경 작은 패널 -->
  <rect x="220" y="220" width="240" height="200" rx="10" fill="#6A1B9A" opacity="0.4"/>
  <rect x="480" y="220" width="300" height="200" rx="10" fill="#6A1B9A" opacity="0.4"/>
  <rect x="220" y="440" width="560" height="160" rx="10" fill="#6A1B9A" opacity="0.4"/>
  <!-- 확대된 중심 패널 (앞으로 튀어나온 느낌) -->
  <rect x="280" y="620" width="464" height="180" rx="14" fill="#6A1B9A"/>
  <rect x="320" y="650" width="150" height="16" rx="4" fill="#CE93D8" opacity="0.6"/>
  <rect x="320" y="678" width="120" height="12" rx="3" fill="#CE93D8" opacity="0.4"/>
  <rect x="320" y="702" width="136" height="12" rx="3" fill="#CE93D8" opacity="0.3"/>
  <!-- 확대 코너 화살표들 -->
  <polyline points="220,620 220,560 280,560" fill="none" stroke="#CE93D8" stroke-width="18" stroke-linecap="round" stroke-linejoin="round"/>
  <polyline points="804,620 804,560 744,560" fill="none" stroke="#CE93D8" stroke-width="18" stroke-linecap="round" stroke-linejoin="round"/>
  <polyline points="220,800 220,860 280,860" fill="none" stroke="#CE93D8" stroke-width="18" stroke-linecap="round" stroke-linejoin="round"/>
  <polyline points="804,800 804,860 744,860" fill="none" stroke="#CE93D8" stroke-width="18" stroke-linecap="round" stroke-linejoin="round"/>
</svg>