<svg xmlns="http://www.w3.org/2000/svg" viewBox="0 0 1024 1024">
  <rect x="80" y="80" width="864" height="864" rx="180" fill="#000508"/>
  <!-- 구형(sphere) 어군 - 위경도 타원들 -->
  <circle cx="512" cy="500" r="230" fill="none" stroke="#01579B" stroke-width="6"/>
  <ellipse cx="512" cy="500" rx="230" ry="80" fill="none" stroke="#01579B" stroke-width="4" opacity="0.7"/>
  <ellipse cx="512" cy="500" rx="140" ry="230" fill="none" stroke="#01579B" stroke-width="4" opacity="0.5"/>
  <!-- 단어들 구면에 배치 -->
  <rect x="400" y="280" width="224" height="34" rx="8" fill="#4FC3F7"/>
  <rect x="310" y="380" width="80" height="24" rx="6" fill="#4FC3F7" opacity="0.85"/>
  <rect x="634" y="380" width="80" height="24" rx="6" fill="#4FC3F7" opacity="0.85"/>
  <rect x="282" y="490" width="60" height="20" rx="5" fill="#81D4FA" opacity="0.7"/>
  <rect x="682" y="490" width="60" height="20" rx="5" fill="#81D4FA" opacity="0.7"/>
  <rect x="430" y="490" width="164" height="28" rx="7" fill="#4FC3F7" opacity="0.9"/>
  <rect x="350" y="580" width="100" height="22" rx="6" fill="#4FC3F7" opacity="0.75"/>
  <rect x="574" y="580" width="100" height="22" rx="6" fill="#4FC3F7" opacity="0.75"/>
  <rect x="400" y="670" width="224" height="28" rx="7" fill="#4FC3F7" opacity="0.6"/>
</svg>