<svg xmlns="http://www.w3.org/2000/svg" viewBox="0 0 1024 1024">
  <defs>
    <linearGradient id="bg2" x1="0" y1="0" x2="1" y2="1">
      <stop offset="0%" stop-color="#059669"/>
      <stop offset="100%" stop-color="#047857"/>
    </linearGradient>
  </defs>
  <rect width="1024" height="1024" rx="190" fill="url(#bg2)"/>
  <!-- 왼쪽: 어지러운 폴더들 (Before) -->
  <rect x="100" y="420" width="200" height="140" rx="20" fill="white" opacity="0.9"/>
  <path d="M100 420 L100 390 Q100 370 120 370 L195 370 Q215 370 225 390 L240 420 Z" fill="white" opacity="0.9"/>
  <rect x="130" y="300" width="160" height="110" rx="16" fill="white" opacity="0.7" transform="rotate(-15,210,355)"/>
  <path d="M120 295 L120 270 Q120 253 137 253 L193 253 Q210 253 218 270 L230 295 Z" fill="white" opacity="0.7" transform="rotate(-15,210,355)"/>
  <rect x="80" y="510" width="155" height="100" rx="14" fill="white" opacity="0.6" transform="rotate(10,157,560)"/>
  <!-- X 표시 (Before) -->
  <line x1="90" y1="600" x2="290" y2="650" stroke="#F87171" stroke-width="24" stroke-linecap="round" opacity="0.7"/>

  <!-- 화살표 -->
  <path d="M340 510 L510 510" stroke="white" stroke-width="40" stroke-linecap="round"/>
  <path d="M470 460 L530 510 L470 560" stroke="white" stroke-width="40" stroke-linecap="round" stroke-linejoin="round" fill="none"/>

  <!-- 오른쪽: 깔끔한 폴더 (After) -->
  <rect x="570" y="390" width="280" height="200" rx="28" fill="white" opacity="0.95"/>
  <path d="M570 390 L570 350 Q570 322 598 322 L700 322 Q728 322 745 350 L780 390 Z" fill="white" opacity="0.95"/>
  <!-- 체크 마크 -->
  <path d="M630 490 L690 555 L810 435" stroke="#6EE7B7" stroke-width="52" stroke-linecap="round" stroke-linejoin="round" fill="none"/>
</svg>