<svg xmlns="http://www.w3.org/2000/svg" viewBox="0 0 1024 1024">
  <!-- Metaphor: Brain + Clipboard scissors -->
  <rect x="80" y="80" width="864" height="864" rx="180" ry="180" fill="#0D1117"/>
  <!-- Brain outline -->
  <path d="M512 200 C380 200 280 300 280 420 C280 480 300 530 340 565 C340 620 360 680 400 720 L512 740 L624 720 C664 680 684 620 684 565 C724 530 744 480 744 420 C744 300 644 200 512 200 Z" fill="#1E3A5F" stroke="#4FC3F7" stroke-width="24"/>
  <!-- Brain wrinkles -->
  <path d="M420 300 Q480 340 440 400 Q400 450 460 490" fill="none" stroke="#4FC3F7" stroke-width="14" stroke-linecap="round"/>
  <path d="M600 300 Q545 340 580 400 Q615 450 560 490" fill="none" stroke="#4FC3F7" stroke-width="14" stroke-linecap="round"/>
  <path d="M380 480 Q440 500 512 490 Q584 500 640 480" fill="none" stroke="#4FC3F7" stroke-width="14" stroke-linecap="round"/>
  <!-- Clipboard small icon at bottom -->
  <rect x="440" y="720" width="144" height="104" rx="12" fill="#4FC3F7" opacity="0.8"/>
  <rect x="464" y="748" width="96" height="8" rx="4" fill="#0D1117"/>
  <rect x="464" y="768" width="72" height="8" rx="4" fill="#0D1117"/>
  <rect x="464" y="788" width="84" height="8" rx="4" fill="#0D1117"/>
</svg>
