<svg xmlns="http://www.w3.org/2000/svg" viewBox="0 0 1024 1024">
  <!-- Metaphor: Copy text becoming neural network -->
  <rect x="80" y="80" width="864" height="864" rx="180" ry="180" fill="#0F1923"/>
  <!-- Left: document/copy -->
  <rect x="180" y="280" width="260" height="340" rx="20" fill="#1A2F47" stroke="#3498DB" stroke-width="20"/>
  <rect x="210" y="340" width="180" height="16" rx="8" fill="#3498DB" opacity="0.9"/>
  <rect x="210" y="375" width="140" height="16" rx="8" fill="#3498DB" opacity="0.7"/>
  <rect x="210" y="410" width="160" height="16" rx="8" fill="#3498DB" opacity="0.7"/>
  <rect x="210" y="445" width="120" height="16" rx="8" fill="#3498DB" opacity="0.5"/>
  <rect x="210" y="480" width="150" height="16" rx="8" fill="#3498DB" opacity="0.5"/>
  <!-- Arrow dots (transform flow) -->
  <circle cx="490" cy="450" r="10" fill="#3498DB" opacity="0.9"/>
  <circle cx="530" cy="450" r="10" fill="#3498DB" opacity="0.7"/>
  <circle cx="570" cy="450" r="10" fill="#3498DB" opacity="0.5"/>
  <!-- Right: neural/AI result -->
  <circle cx="680" cy="340" r="36" fill="#1A2F47" stroke="#00E5FF" stroke-width="16"/>
  <circle cx="780" cy="380" r="28" fill="#1A2F47" stroke="#00E5FF" stroke-width="14"/>
  <circle cx="700" cy="480" r="32" fill="#1A2F47" stroke="#00E5FF" stroke-width="14"/>
  <circle cx="800" cy="500" r="24" fill="#1A2F47" stroke="#00E5FF" stroke-width="14"/>
  <circle cx="740" cy="580" r="30" fill="#1A2F47" stroke="#00E5FF" stroke-width="14"/>
  <line x1="680" y1="340" x2="780" y2="380" stroke="#00E5FF" stroke-width="8" opacity="0.6"/>
  <line x1="680" y1="340" x2="700" y2="480" stroke="#00E5FF" stroke-width="8" opacity="0.6"/>
  <line x1="780" y1="380" x2="800" y2="500" stroke="#00E5FF" stroke-width="8" opacity="0.6"/>
  <line x1="700" y1="480" x2="740" y2="580" stroke="#00E5FF" stroke-width="8" opacity="0.6"/>
  <line x1="800" y1="500" x2="740" y2="580" stroke="#00E5FF" stroke-width="8" opacity="0.6"/>
</svg>
