<svg viewBox="0 0 1024 1024" xmlns="http://www.w3.org/2000/svg">
  <defs>
    <linearGradient id="bg1" x1="0" y1="0" x2="1" y2="1">
      <stop offset="0" stop-color="#46E5C8"/>
      <stop offset="1" stop-color="#1C9C97"/>
    </linearGradient>
  </defs>
  <rect x="62" y="62" width="900" height="900" rx="195" fill="url(#bg1)"/>
  <!-- 상승 캔들 3개 -->
  <g stroke-linecap="round">
    <line x1="300" y1="540" x2="300" y2="760" stroke="#0E5C58" stroke-width="26"/>
    <rect x="262" y="590" width="76" height="150" rx="18" fill="#FF6B6B"/>
    <line x1="450" y1="430" x2="450" y2="680" stroke="#0E5C58" stroke-width="26"/>
    <rect x="412" y="480" width="76" height="170" rx="18" fill="#FF6B6B"/>
    <line x1="600" y1="320" x2="600" y2="600" stroke="#0E5C58" stroke-width="26"/>
    <rect x="562" y="380" width="76" height="190" rx="18" fill="#FF6B6B"/>
  </g>
  <!-- 알림 벨 배지 -->
  <circle cx="720" cy="710" r="155" fill="#FFD23F" stroke="#FFFFFF" stroke-width="20"/>
  <g fill="#0E5C58">
    <path d="M720 612c-46 0-78 34-78 86v50l-26 34c-10 13 0 32 18 32h172c18 0 28-19 18-32l-26-34v-50c0-52-32-86-78-86z"/>
    <circle cx="720" cy="600" r="20"/>
    <path d="M698 824a24 24 0 0 0 44 0z"/>
  </g>
</svg>
