<svg xmlns="http://www.w3.org/2000/svg" viewBox="0 0 1024 1024">
  <rect x="80" y="80" width="864" height="864" rx="180" fill="#080500"/>
  <!-- Keyboard layout -->
  <rect x="180" y="380" width="664" height="280" rx="28" fill="#4E342E"/>
  <!-- Row 1 keys -->
  <rect x="210" y="408" width="68" height="56" rx="10" fill="#080500"/>
  <rect x="290" y="408" width="68" height="56" rx="10" fill="#080500"/>
  <rect x="370" y="408" width="68" height="56" rx="10" fill="#080500"/>
  <rect x="450" y="408" width="68" height="56" rx="10" fill="#080500"/>
  <rect x="530" y="408" width="68" height="56" rx="10" fill="#080500"/>
  <rect x="610" y="408" width="68" height="56" rx="10" fill="#080500"/>
  <rect x="690" y="408" width="68" height="56" rx="10" fill="#080500"/>
  <rect x="762" y="408" width="62" height="56" rx="10" fill="#080500"/>
  <!-- Row 2 keys -->
  <rect x="210" y="476" width="100" height="56" rx="10" fill="#080500"/>
  <rect x="322" y="476" width="68" height="56" rx="10" fill="#080500"/>
  <rect x="402" y="476" width="68" height="56" rx="10" fill="#080500"/>
  <rect x="482" y="476" width="68" height="56" rx="10" fill="#080500"/>
  <rect x="562" y="476" width="68" height="56" rx="10" fill="#080500"/>
  <rect x="642" y="476" width="182" height="56" rx="10" fill="#080500"/>
  <!-- Row 3 - highlighted remap keys -->
  <rect x="210" y="544" width="140" height="56" rx="10" fill="#A1887F"/>
  <rect x="362" y="544" width="68" height="56" rx="10" fill="#080500"/>
  <rect x="442" y="544" width="68" height="56" rx="10" fill="#080500"/>
  <rect x="522" y="544" width="68" height="56" rx="10" fill="#080500"/>
  <rect x="602" y="544" width="222" height="56" rx="10" fill="#A1887F"/>
  <!-- Remap arrow above keyboard -->
  <path d="M330 260 Q330 200 430 200 Q530 200 530 260" fill="none" stroke="#A1887F" stroke-width="18" stroke-linecap="round"/>
  <polygon points="510,240 530,280 550,240" fill="#A1887F"/>
</svg>
