<svg xmlns="http://www.w3.org/2000/svg" viewBox="0 0 512 512">
  <defs>
    <linearGradient id="bg" x1="0%" y1="0%" x2="100%" y2="100%">
      <stop offset="0%" style="stop-color:#F57F17"/>
      <stop offset="100%" style="stop-color:#E65100"/>
    </linearGradient>
  </defs>
  <rect width="512" height="512" rx="80" fill="url(#bg)"/>
  <!-- Answer blocks A B C D -->
  <rect x="80" y="100" width="160" height="100" rx="16" fill="#FFFFFF" opacity="0.15"/>
  <rect x="272" y="100" width="160" height="100" rx="16" fill="#FFFFFF" opacity="0.15"/>
  <rect x="80" y="220" width="160" height="100" rx="16" fill="#FFFFFF" opacity="0.15"/>
  <rect x="272" y="220" width="160" height="100" rx="16" fill="#4CAF50" opacity="0.9"/>
  <!-- Answer labels -->
  <text x="160" y="160" text-anchor="middle" font-family="Arial Black,sans-serif" font-size="42" font-weight="900" fill="#FFF">A</text>
  <text x="352" y="160" text-anchor="middle" font-family="Arial Black,sans-serif" font-size="42" font-weight="900" fill="#FFF">B</text>
  <text x="160" y="280" text-anchor="middle" font-family="Arial Black,sans-serif" font-size="42" font-weight="900" fill="#FFF">C</text>
  <text x="352" y="280" text-anchor="middle" font-family="Arial Black,sans-serif" font-size="42" font-weight="900" fill="#FFF">D</text>
  <!-- Checkmark on D -->
  <path d="M318,268 L342,295 L390,248" fill="none" stroke="#FFFFFF" stroke-width="8" stroke-linecap="round" stroke-linejoin="round"/>
  <!-- Globe icon small -->
  <circle cx="256" cy="390" r="65" fill="#1565C0" stroke="#90CAF9" stroke-width="4"/>
  <ellipse cx="256" cy="390" rx="65" ry="22" fill="none" stroke="#BBDEFB" stroke-width="2"/>
  <line x1="256" y1="325" x2="256" y2="455" stroke="#BBDEFB" stroke-width="2"/>
  <path d="M256,325 Q285,390 256,455" fill="none" stroke="#BBDEFB" stroke-width="2"/>
  <path d="M256,325 Q227,390 256,455" fill="none" stroke="#BBDEFB" stroke-width="2"/>
</svg>
