<svg viewBox="0 0 1024 1024" xmlns="http://www.w3.org/2000/svg">
  <defs>
    <linearGradient id="bg" x1="0" y1="0" x2="1" y2="1" gradientUnits="objectBoundingBox">
      <stop offset="0%" stop-color="#FFE082"/>
      <stop offset="100%" stop-color="#FF8F00"/>
    </linearGradient>
  </defs>
  <!-- Layer 1: 배경 (앰버 그라데이션) -->
  <rect width="1024" height="1024" rx="190" fill="url(#bg)"/>

  <!-- Layer 2: 좌측 파일 아이콘 (SVG, 산호색) -->
  <path d="M 115,345 L 318,345 L 398,425 L 398,718 Q 398,748 368,748 L 145,748 Q 115,748 115,718 Z" fill="#FF7043"/>
  <path d="M 318,345 L 398,425 L 318,425 Z" fill="black" fill-opacity="0.22"/>
  <text x="256" y="622" font-family="Arial Black, Impact, sans-serif" font-size="96" font-weight="900" text-anchor="middle" fill="white">SVG</text>

  <!-- Layer 2: 우측 파일 아이콘 (ICO, 스카이블루) -->
  <path d="M 626,345 L 829,345 L 909,425 L 909,718 Q 909,748 879,748 L 656,748 Q 626,748 626,718 Z" fill="#29B6F6"/>
  <path d="M 829,345 L 909,425 L 829,425 Z" fill="black" fill-opacity="0.22"/>
  <text x="767" y="622" font-family="Arial Black, Impact, sans-serif" font-size="96" font-weight="900" text-anchor="middle" fill="white">ICO</text>

  <!-- Layer 3: 변환 화살표 (흰색) -->
  <path d="M 414,488 L 572,488 L 572,450 L 652,512 L 572,574 L 572,536 L 414,536 Z" fill="white"/>
</svg>
