<svg xmlns="http://www.w3.org/2000/svg" viewBox="0 0 1024 1024">
  <rect x="80" y="80" width="864" height="864" rx="180" fill="#010A08"/>
  <!-- Clipboard body -->
  <rect x="240" y="220" width="544" height="620" rx="20" fill="#0d2420"/>
  <rect x="240" y="220" width="544" height="620" rx="20" fill="none" stroke="#26A69A" stroke-width="18"/>
  <!-- Clipboard top clip -->
  <rect x="380" y="180" width="264" height="80" rx="16" fill="#26A69A"/>
  <rect x="430" y="195" width="164" height="50" rx="10" fill="#1a3530"/>
  <!-- Checklist items -->
  <!-- Item 1 (checked) -->
  <rect x="290" y="320" width="40" height="40" rx="6" fill="#26A69A"/>
  <path d="M296 340 L306 354 L326 328" stroke="#010A08" stroke-width="6" fill="none" stroke-linecap="round"/>
  <rect x="352" y="330" width="320" height="16" rx="8" fill="#4DB6AC"/>
  <!-- Item 2 (checked) -->
  <rect x="290" y="400" width="40" height="40" rx="6" fill="#26A69A"/>
  <path d="M296 420 L306 434 L326 408" stroke="#010A08" stroke-width="6" fill="none" stroke-linecap="round"/>
  <rect x="352" y="410" width="260" height="16" rx="8" fill="#4DB6AC"/>
  <!-- Item 3 (unchecked) -->
  <rect x="290" y="480" width="40" height="40" rx="6" fill="none" stroke="#26A69A" stroke-width="6"/>
  <rect x="352" y="490" width="300" height="16" rx="8" fill="#1a3530"/>
  <!-- Item 4 (checked) -->
  <rect x="290" y="560" width="40" height="40" rx="6" fill="#26A69A"/>
  <path d="M296 580 L306 594 L326 568" stroke="#010A08" stroke-width="6" fill="none" stroke-linecap="round"/>
  <rect x="352" y="570" width="280" height="16" rx="8" fill="#4DB6AC"/>
  <!-- Item 5 (unchecked) -->
  <rect x="290" y="640" width="40" height="40" rx="6" fill="none" stroke="#26A69A" stroke-width="6"/>
  <rect x="352" y="650" width="240" height="16" rx="8" fill="#1a3530"/>
  <!-- Item 6 (unchecked) -->
  <rect x="290" y="720" width="40" height="40" rx="6" fill="none" stroke="#26A69A" stroke-width="6"/>
  <rect x="352" y="730" width="200" height="16" rx="8" fill="#1a3530"/>
</svg>