<svg xmlns="http://www.w3.org/2000/svg" viewBox="0 0 1024 1024">
  <rect x="80" y="80" width="864" height="864" rx="180" fill="#010A08"/>
  <!-- Tag hierarchy tree -->
  <!-- Root tag -->
  <rect x="390" y="160" width="244" height="80" rx="14" fill="#26A69A"/>
  <circle cx="418" cy="200" r="16" fill="#010A08"/>
  <!-- Trunk line -->
  <line x1="512" y1="240" x2="512" y2="340" stroke="#26A69A" stroke-width="12"/>
  <!-- Branch lines -->
  <line x1="512" y1="340" x2="280" y2="420" stroke="#4DB6AC" stroke-width="10"/>
  <line x1="512" y1="340" x2="512" y2="420" stroke="#4DB6AC" stroke-width="10"/>
  <line x1="512" y1="340" x2="744" y2="420" stroke="#4DB6AC" stroke-width="10"/>
  <!-- Level 2 tags -->
  <rect x="168" y="420" width="224" height="70" rx="12" fill="#1a3530"/>
  <rect x="168" y="420" width="224" height="70" rx="12" fill="none" stroke="#26A69A" stroke-width="8"/>
  <circle cx="196" cy="455" r="14" fill="#26A69A"/>
  <rect x="400" y="420" width="224" height="70" rx="12" fill="#1a3530"/>
  <rect x="400" y="420" width="224" height="70" rx="12" fill="none" stroke="#26A69A" stroke-width="8"/>
  <circle cx="428" cy="455" r="14" fill="#26A69A"/>
  <rect x="632" y="420" width="224" height="70" rx="12" fill="#1a3530"/>
  <rect x="632" y="420" width="224" height="70" rx="12" fill="none" stroke="#26A69A" stroke-width="8"/>
  <circle cx="660" cy="455" r="14" fill="#26A69A"/>
  <!-- Level 3 branches from left node -->
  <line x1="280" y1="490" x2="220" y2="570" stroke="#4DB6AC" stroke-width="8"/>
  <line x1="280" y1="490" x2="340" y2="570" stroke="#4DB6AC" stroke-width="8"/>
  <rect x="168" y="570" width="110" height="60" rx="10" fill="#1a3530"/>
  <rect x="168" y="570" width="110" height="60" rx="10" fill="none" stroke="#4DB6AC" stroke-width="7"/>
  <rect x="288" y="570" width="110" height="60" rx="10" fill="#1a3530"/>
  <rect x="288" y="570" width="110" height="60" rx="10" fill="none" stroke="#4DB6AC" stroke-width="7"/>
  <!-- Level 3 from middle -->
  <line x1="512" y1="490" x2="512" y2="570" stroke="#4DB6AC" stroke-width="8"/>
  <rect x="452" y="570" width="120" height="60" rx="10" fill="#1a3530"/>
  <rect x="452" y="570" width="120" height="60" rx="10" fill="none" stroke="#4DB6AC" stroke-width="7"/>
</svg>