<svg xmlns="http://www.w3.org/2000/svg" viewBox="0 0 1024 1024">
  <rect x="80" y="80" width="864" height="864" rx="180" fill="#010A08"/>
  <!-- Crown body -->
  <path d="M180 680 L240 380 L400 560 L512 280 L624 560 L784 380 L844 680 Z" fill="#26A69A"/>
  <!-- Crown inner cutout -->
  <path d="M220 640 L264 420 L400 580 L512 340 L624 580 L760 420 L804 640 Z" fill="#1a3530"/>
  <!-- Crown jewels -->
  <circle cx="512" cy="280" r="36" fill="#4DB6AC"/>
  <circle cx="240" cy="380" r="26" fill="#4DB6AC"/>
  <circle cx="784" cy="380" r="26" fill="#4DB6AC"/>
  <!-- Badge band at bottom -->
  <rect x="180" y="680" width="664" height="80" rx="16" fill="#26A69A"/>
  <!-- Quality stars inside band -->
  <polygon points="400,690 414,724 452,724 422,746 434,780 400,758 366,780 378,746 348,724 386,724" fill="#4DB6AC" transform="scale(0.7) translate(170,230)"/>
  <polygon points="512,690 526,724 564,724 534,746 546,780 512,758 478,780 490,746 460,724 498,724" fill="#4DB6AC" transform="scale(0.7) translate(170,230)"/>
  <polygon points="624,690 638,724 676,724 646,746 658,780 624,758 590,780 602,746 572,724 610,724" fill="#4DB6AC" transform="scale(0.7) translate(170,230)"/>
</svg>