<svg xmlns="http://www.w3.org/2000/svg" viewBox="0 0 1024 1024">
  <!-- icon_06: literal · 공간/장면 · 폴더 → 화살표 → 클립보드 파이프라인 -->
  <rect x="0" y="0" width="1024" height="1024" rx="200" fill="#F0F4FF"/>
  <!-- 중앙 수평 선로 -->
  <rect x="80" y="500" width="864" height="24" rx="12" fill="#C9D5F5"/>
  <!-- 폴더 -->
  <g>
    <path d="M 130 360 L 270 360 L 320 410 L 440 410 L 440 620 L 130 620 Z" fill="#FFC93C" stroke="#B8860B" stroke-width="14"/>
    <rect x="130" y="440" width="310" height="180" rx="10" fill="#FFDF70"/>
    <text x="285" y="560" font-family="Consolas, monospace" font-weight="700" font-size="48" fill="#8B6914" text-anchor="middle">file.txt</text>
  </g>
  <!-- 화살표 -->
  <g>
    <rect x="460" y="498" width="130" height="28" rx="14" fill="#FF6B9D"/>
    <path d="M 580 460 L 660 512 L 580 564 Z" fill="#FF6B9D" stroke="#C73E6F" stroke-width="10" stroke-linejoin="round"/>
  </g>
  <!-- 클립보드 -->
  <g>
    <rect x="670" y="300" width="270" height="420" rx="34" fill="#3A86FF" stroke="#1E5CC9" stroke-width="14"/>
    <rect x="696" y="336" width="218" height="350" rx="18" fill="#EAF2FF"/>
    <rect x="760" y="274" width="90" height="54" rx="18" fill="#1E5CC9"/>
    <!-- 포맷 리스트 -->
    <rect x="720" y="370" width="160" height="16" rx="6" fill="#FF6B35"/>
    <rect x="720" y="410" width="130" height="16" rx="6" fill="#06D6A0"/>
    <rect x="720" y="450" width="170" height="16" rx="6" fill="#9B59B6"/>
    <rect x="720" y="490" width="110" height="16" rx="6" fill="#FFC93C"/>
    <rect x="720" y="530" width="150" height="16" rx="6" fill="#FF6B9D"/>
    <rect x="720" y="570" width="140" height="16" rx="6" fill="#3A86FF"/>
    <rect x="720" y="610" width="100" height="16" rx="6" fill="#E63946"/>
  </g>
  <!-- 상단 라벨 -->
  <text x="512" y="200" font-family="Arial Black, sans-serif" font-weight="900" font-size="100" fill="#2C3E50" text-anchor="middle">COPY PATH</text>
</svg>
