<svg xmlns="http://www.w3.org/2000/svg" viewBox="0 0 1024 1024">
  <!-- icon_03: metaphor · 대각선/동적 · 경로가 클립보드로 날아감 -->
  <defs>
    <linearGradient id="bg03" x1="0" y1="0" x2="1" y2="1">
      <stop offset="0" stop-color="#87CEEB"/>
      <stop offset="1" stop-color="#4A90E2"/>
    </linearGradient>
  </defs>
  <rect x="0" y="0" width="1024" height="1024" rx="200" fill="url(#bg03)"/>
  <!-- 트레일 곡선 -->
  <path d="M 140 820 Q 400 720 560 540 T 820 220" fill="none" stroke="#FFFFFF" stroke-width="28" stroke-linecap="round" opacity="0.55"/>
  <path d="M 140 820 Q 400 720 560 540 T 820 220" fill="none" stroke="#FFD93D" stroke-width="14" stroke-linecap="round" stroke-dasharray="40 24"/>
  <!-- 시작 파일 -->
  <g transform="rotate(-15 200 770)">
    <rect x="100" y="700" width="200" height="150" rx="20" fill="#FFFFFF" stroke="#1E3A5F" stroke-width="12"/>
    <path d="M 240 700 L 300 760 L 240 760 Z" fill="#1E3A5F"/>
    <rect x="130" y="760" width="140" height="12" rx="4" fill="#1E3A5F"/>
    <rect x="130" y="785" width="110" height="12" rx="4" fill="#1E3A5F"/>
  </g>
  <!-- 경로 텍스트 (동적) -->
  <g transform="rotate(-20 500 500)">
    <rect x="320" y="460" width="440" height="90" rx="20" fill="#1E3A5F"/>
    <text x="340" y="524" font-family="Consolas, monospace" font-weight="700" font-size="58" fill="#FFD93D">C:\docs\a.txt</text>
  </g>
  <!-- 도착 클립보드 -->
  <g>
    <rect x="680" y="130" width="260" height="320" rx="34" fill="#FF6B35" stroke="#A8421D" stroke-width="14"/>
    <rect x="706" y="170" width="208" height="250" rx="16" fill="#FFF4E6"/>
    <rect x="770" y="100" width="80" height="52" rx="16" fill="#1E3A5F"/>
    <rect x="726" y="210" width="168" height="14" rx="4" fill="#FF6B35"/>
    <rect x="726" y="250" width="140" height="14" rx="4" fill="#4A90E2"/>
    <rect x="726" y="290" width="156" height="14" rx="4" fill="#06D6A0"/>
    <rect x="726" y="330" width="120" height="14" rx="4" fill="#9B59B6"/>
  </g>
</svg>
