<svg xmlns="http://www.w3.org/2000/svg" viewBox="0 0 512 512">
  <defs>
    <linearGradient id="bg" x1="0%" y1="0%" x2="100%" y2="100%">
      <stop offset="0%" style="stop-color:#1a0000"/>
      <stop offset="100%" style="stop-color:#2d0808"/>
    </linearGradient>
    <linearGradient id="bar" x1="0%" y1="0%" x2="100%" y2="0%">
      <stop offset="0%" style="stop-color:#ff2200"/>
      <stop offset="100%" style="stop-color:#ff6644"/>
    </linearGradient>
  </defs>
  <rect width="512" height="512" rx="80" fill="url(#bg)"/>
  <!-- Inspector frame -->
  <rect x="56" y="80" width="400" height="352" rx="16" fill="#110000" stroke="#cc2200" stroke-width="3"/>
  <!-- Title bar -->
  <rect x="56" y="80" width="400" height="44" rx="16" fill="#cc2200"/>
  <rect x="56" y="108" width="400" height="16" fill="#cc2200"/>
  <circle cx="88" cy="102" r="8" fill="#ff6644"/>
  <circle cx="116" cy="102" r="8" fill="#ff4422"/>
  <circle cx="144" cy="102" r="8" fill="#ff2200"/>
  <text x="200" y="108" font-family="monospace" font-size="16" fill="white">Hex.Peek v1.0</text>
  <!-- Address bar -->
  <rect x="72" y="140" width="368" height="30" rx="4" fill="#220000"/>
  <text x="80" y="160" font-family="monospace" font-size="14" fill="#ff4422">Offset(h): 00 01 02 03 04 05 06 07</text>
  <!-- Hex rows -->
  <text x="72" y="196" font-family="monospace" font-size="15" fill="#884444">00000000:</text>
  <text x="158" y="196" font-family="monospace" font-size="15" fill="#ff6644">4D 5A 90 00 03 00 00 00</text>
  <text x="72" y="220" font-family="monospace" font-size="15" fill="#884444">00000008:</text>
  <text x="158" y="220" font-family="monospace" font-size="15" fill="#e0e0e0">04 00 00 00 FF FF 00 00</text>
  <text x="72" y="244" font-family="monospace" font-size="15" fill="#884444">00000010:</text>
  <text x="158" y="244" font-family="monospace" font-size="15" fill="#e0e0e0">B8 00 00 00 00 00 00 00</text>
  <!-- Highlighted row -->
  <rect x="72" y="254" width="368" height="24" rx="4" fill="#330000"/>
  <text x="72" y="272" font-family="monospace" font-size="15" fill="#884444">00000018:</text>
  <text x="158" y="272" font-family="monospace" font-size="15" fill="#ff2200" font-weight="bold">40 00 00 00 00 00 00 00</text>
  <text x="72" y="296" font-family="monospace" font-size="15" fill="#884444">00000020:</text>
  <text x="158" y="296" font-family="monospace" font-size="15" fill="#e0e0e0">00 00 00 00 00 00 00 00</text>
  <!-- Status bar -->
  <rect x="56" y="396" width="400" height="36" rx="16" fill="#220000"/>
  <rect x="56" y="396" width="400" height="16" fill="#220000"/>
  <text x="72" y="420" font-family="monospace" font-size="13" fill="#ff4422">Offset: 0x18  Value: 0x40  Size: 1024 bytes</text>
</svg>