<svg xmlns="http://www.w3.org/2000/svg" viewBox="0 0 1024 1024">
  <rect width="1024" height="1024" rx="180" fill="#050005"/>
  <!-- 행렬 코드 (Matrix 스타일) -->
  <!-- 세로 스트림들 -->
  <!-- 컬럼 1 -->
  <rect x="160" y="150" width="26" height="26" rx="4" fill="#BA68C8"/>
  <rect x="160" y="195" width="26" height="26" rx="4" fill="#6A1B9A" opacity="0.9"/>
  <rect x="160" y="240" width="26" height="26" rx="4" fill="#6A1B9A" opacity="0.7"/>
  <rect x="160" y="285" width="26" height="26" rx="4" fill="#6A1B9A" opacity="0.5"/>
  <rect x="160" y="330" width="26" height="26" rx="4" fill="#6A1B9A" opacity="0.3"/>
  <!-- 컬럼 2 -->
  <rect x="220" y="280" width="26" height="26" rx="4" fill="#BA68C8"/>
  <rect x="220" y="325" width="26" height="26" rx="4" fill="#6A1B9A" opacity="0.9"/>
  <rect x="220" y="370" width="26" height="26" rx="4" fill="#6A1B9A" opacity="0.7"/>
  <rect x="220" y="415" width="26" height="26" rx="4" fill="#6A1B9A" opacity="0.5"/>
  <rect x="220" y="460" width="26" height="26" rx="4" fill="#6A1B9A" opacity="0.3"/>
  <rect x="220" y="505" width="26" height="26" rx="4" fill="#6A1B9A" opacity="0.15"/>
  <!-- 컬럼 3 -->
  <rect x="280" y="180" width="26" height="26" rx="4" fill="#BA68C8"/>
  <rect x="280" y="225" width="26" height="26" rx="4" fill="#6A1B9A" opacity="0.9"/>
  <rect x="280" y="270" width="26" height="26" rx="4" fill="#6A1B9A" opacity="0.7"/>
  <rect x="280" y="315" width="26" height="26" rx="4" fill="#6A1B9A" opacity="0.5"/>
  <rect x="280" y="360" width="26" height="26" rx="4" fill="#6A1B9A" opacity="0.3"/>
  <rect x="280" y="405" width="26" height="26" rx="4" fill="#6A1B9A" opacity="0.15"/>
  <rect x="280" y="450" width="26" height="26" rx="4" fill="#6A1B9A" opacity="0.08"/>
  <!-- 컬럼 4 -->
  <rect x="340" y="350" width="26" height="26" rx="4" fill="#BA68C8"/>
  <rect x="340" y="395" width="26" height="26" rx="4" fill="#6A1B9A" opacity="0.9"/>
  <rect x="340" y="440" width="26" height="26" rx="4" fill="#6A1B9A" opacity="0.7"/>
  <rect x="340" y="485" width="26" height="26" rx="4" fill="#6A1B9A" opacity="0.5"/>
  <!-- 컬럼 5 -->
  <rect x="400" y="200" width="26" height="26" rx="4" fill="#BA68C8"/>
  <rect x="400" y="245" width="26" height="26" rx="4" fill="#6A1B9A" opacity="0.9"/>
  <rect x="400" y="290" width="26" height="26" rx="4" fill="#6A1B9A" opacity="0.7"/>
  <rect x="400" y="335" width="26" height="26" rx="4" fill="#6A1B9A" opacity="0.5"/>
  <rect x="400" y="380" width="26" height="26" rx="4" fill="#6A1B9A" opacity="0.3"/>
  <rect x="400" y="425" width="26" height="26" rx="4" fill="#6A1B9A" opacity="0.15"/>
  <!-- 컬럼 6~12 반복 패턴 -->
  <rect x="460" y="300" width="26" height="26" rx="4" fill="#BA68C8"/>
  <rect x="460" y="345" width="26" height="26" rx="4" fill="#6A1B9A" opacity="0.8"/>
  <rect x="460" y="390" width="26" height="26" rx="4" fill="#6A1B9A" opacity="0.6"/>
  <rect x="460" y="435" width="26" height="26" rx="4" fill="#6A1B9A" opacity="0.4"/>
  <rect x="520" y="160" width="26" height="26" rx="4" fill="#BA68C8"/>
  <rect x="520" y="205" width="26" height="26" rx="4" fill="#6A1B9A" opacity="0.9"/>
  <rect x="520" y="250" width="26" height="26" rx="4" fill="#6A1B9A" opacity="0.7"/>
  <rect x="520" y="295" width="26" height="26" rx="4" fill="#6A1B9A" opacity="0.5"/>
  <rect x="520" y="340" width="26" height="26" rx="4" fill="#6A1B9A" opacity="0.3"/>
  <rect x="520" y="385" width="26" height="26" rx="4" fill="#6A1B9A" opacity="0.15"/>
  <rect x="580" y="380" width="26" height="26" rx="4" fill="#BA68C8"/>
  <rect x="580" y="425" width="26" height="26" rx="4" fill="#6A1B9A" opacity="0.8"/>
  <rect x="580" y="470" width="26" height="26" rx="4" fill="#6A1B9A" opacity="0.6"/>
  <rect x="640" y="220" width="26" height="26" rx="4" fill="#BA68C8"/>
  <rect x="640" y="265" width="26" height="26" rx="4" fill="#6A1B9A" opacity="0.9"/>
  <rect x="640" y="310" width="26" height="26" rx="4" fill="#6A1B9A" opacity="0.7"/>
  <rect x="640" y="355" width="26" height="26" rx="4" fill="#6A1B9A" opacity="0.5"/>
  <rect x="640" y="400" width="26" height="26" rx="4" fill="#6A1B9A" opacity="0.3"/>
  <rect x="700" y="310" width="26" height="26" rx="4" fill="#BA68C8"/>
  <rect x="700" y="355" width="26" height="26" rx="4" fill="#6A1B9A" opacity="0.8"/>
  <rect x="700" y="400" width="26" height="26" rx="4" fill="#6A1B9A" opacity="0.6"/>
  <rect x="700" y="445" width="26" height="26" rx="4" fill="#6A1B9A" opacity="0.4"/>
  <rect x="760" y="180" width="26" height="26" rx="4" fill="#BA68C8"/>
  <rect x="760" y="225" width="26" height="26" rx="4" fill="#6A1B9A" opacity="0.9"/>
  <rect x="760" y="270" width="26" height="26" rx="4" fill="#6A1B9A" opacity="0.7"/>
  <rect x="760" y="315" width="26" height="26" rx="4" fill="#6A1B9A" opacity="0.5"/>
  <rect x="820" y="270" width="26" height="26" rx="4" fill="#BA68C8"/>
  <rect x="820" y="315" width="26" height="26" rx="4" fill="#6A1B9A" opacity="0.8"/>
  <rect x="820" y="360" width="26" height="26" rx="4" fill="#6A1B9A" opacity="0.6"/>
  <!-- 하단 래퍼 -->
  <rect x="160" y="700" width="704" height="16" rx="8" fill="#6A1B9A" opacity="0.6"/>
  <rect x="160" y="732" width="550" height="16" rx="8" fill="#6A1B9A" opacity="0.4"/>
  <rect x="160" y="764" width="640" height="16" rx="8" fill="#6A1B9A" opacity="0.25"/>
  <rect x="160" y="796" width="480" height="16" rx="8" fill="#6A1B9A" opacity="0.15"/>
  <rect x="160" y="828" width="580" height="16" rx="8" fill="#6A1B9A" opacity="0.1"/>
</svg>
