<svg xmlns="http://www.w3.org/2000/svg" viewBox="0 0 1024 1024">
  <rect x="80" y="80" width="864" height="864" rx="180" ry="180" fill="#0A0800"/>
  <!-- 손바닥 위 모래: 손 + 모래 -->
  <!-- 손바닥 (위를 향한 손) -->
  <!-- 손바닥 본체 -->
  <path d="M260,680 Q220,560 240,480 Q260,400 320,420 Q360,430 370,500 L380,500 L380,340 Q380,300 420,300 Q460,300 460,340 L460,380 L460,320 Q460,280 500,280 Q540,280 540,320 L540,380 L540,340 Q540,300 580,300 Q620,300 620,340 L620,480 L640,460 Q660,420 700,440 Q740,460 720,520 L660,680 Z" fill="#F9A825" opacity="0.85"/>
  <!-- 손 내부 음영 -->
  <path d="M290,670 Q260,560 278,490 Q296,420 330,434 L350,500 L370,500 L375,340 Q378,308 414,308 Q448,308 450,340 L450,380 L462,380 L462,326 Q462,292 498,292 Q532,292 532,326 L532,380 L548,380 L548,342 Q548,308 578,308 Q608,308 610,342 L610,476 L634,458 Q650,428 690,444 Q716,456 706,512 L648,666 Z" fill="#0A0800" opacity="0.2"/>
  <!-- 손가락 구분선 -->
  <line x1="380" y1="380" x2="380" y2="500" stroke="#0A0800" stroke-width="6" opacity="0.3"/>
  <line x1="460" y1="320" x2="460" y2="480" stroke="#0A0800" stroke-width="6" opacity="0.3"/>
  <line x1="540" y1="320" x2="540" y2="480" stroke="#0A0800" stroke-width="6" opacity="0.3"/>
  <!-- 손바닥 위 모래 알갱이들 -->
  <circle cx="380" cy="680" r="14" fill="#FFE082"/>
  <circle cx="420" cy="660" r="11" fill="#F9A825"/>
  <circle cx="460" cy="650" r="13" fill="#FFE082"/>
  <circle cx="500" cy="645" r="11" fill="#F9A825"/>
  <circle cx="540" cy="655" r="12" fill="#FFE082"/>
  <circle cx="580" cy="668" r="10" fill="#F9A825"/>
  <!-- 손바닥 안쪽 모래 쌓임 -->
  <ellipse cx="490" cy="690" rx="140" ry="30" fill="#FFE082" opacity="0.5"/>
  <!-- 낙하하는 모래 -->
  <circle cx="380" cy="500" r="8" fill="#FFE082" opacity="0.6"/>
  <line x1="380" y1="514" x2="380" y2="570" stroke="#FFE082" stroke-width="5" stroke-linecap="round" opacity="0.4" stroke-dasharray="8,6"/>
  <circle cx="540" cy="480" r="9" fill="#F9A825" opacity="0.6"/>
  <line x1="540" y1="495" x2="540" y2="555" stroke="#F9A825" stroke-width="5" stroke-linecap="round" opacity="0.4" stroke-dasharray="8,6"/>
</svg>
