<svg xmlns="http://www.w3.org/2000/svg" viewBox="0 0 1024 1024">
  <rect x="80" y="80" width="864" height="864" rx="180" fill="#050005"/>
  <!-- 금고 본체 -->
  <rect x="220" y="220" width="484" height="460" rx="35" fill="#4A148C" stroke="#9C27B0" stroke-width="16"/>
  <rect x="260" y="260" width="404" height="380" rx="22" fill="#050005" stroke="#9C27B0" stroke-width="8"/>
  <!-- 금고 다이얼 -->
  <circle cx="462" cy="450" r="95" fill="#4A148C" stroke="#9C27B0" stroke-width="12"/>
  <circle cx="462" cy="450" r="55" fill="#050005" stroke="#9C27B0" stroke-width="6"/>
  <circle cx="462" cy="450" r="18" fill="#9C27B0"/>
  <!-- 경보 (사이렌 아이콘) -->
  <path d="M720 300 Q780 300 780 370 Q780 430 720 430 L680 430 L680 300 Z" fill="#9C27B0"/>
  <!-- 사이렌 빛 방사 -->
  <path d="M760 340 Q820 320 840 280" fill="none" stroke="#9C27B0" stroke-width="14" stroke-linecap="round"/>
  <path d="M760 370 Q830 370 860 360" fill="none" stroke="#9C27B0" stroke-width="14" stroke-linecap="round"/>
  <path d="M760 400 Q820 420 840 460" fill="none" stroke="#9C27B0" stroke-width="14" stroke-linecap="round"/>
  <!-- 경보 베이스 -->
  <rect x="668" y="430" width="124" height="30" rx="10" fill="#9C27B0"/>
  <!-- 진동/경보 파형 -->
  <path d="M310 610 Q340 580 370 610 Q400 640 430 610 Q460 580 490 610 Q520 640 550 610 Q580 580 610 610" fill="none" stroke="#9C27B0" stroke-width="14" stroke-linecap="round"/>
  <!-- 손잡이 -->
  <rect x="392" y="682" width="140" height="24" rx="12" fill="#9C27B0"/>
</svg>
