<svg xmlns="http://www.w3.org/2000/svg" viewBox="0 0 1024 1024">
  <!-- Background -->
  <rect width="1024" height="1024" rx="190" fill="#0D47A1"/>

  <!-- World map simplified silhouette -->
  <!-- North America -->
  <path d="M210,280 Q230,260 260,265 Q290,255 310,270 Q330,290 325,320 Q340,345 330,375 Q315,410 295,430 Q270,455 250,445 Q225,435 215,410 Q200,380 205,350 Q195,320 210,295 Z" fill="#E3F2FD" opacity="0.9"/>
  <!-- South America -->
  <path d="M275,465 Q300,450 320,460 Q345,475 350,510 Q360,550 355,590 Q345,630 320,650 Q295,665 270,650 Q245,630 240,595 Q230,555 240,515 Q245,480 275,465 Z" fill="#E3F2FD" opacity="0.9"/>
  <!-- Europe -->
  <path d="M445,235 Q465,220 490,225 Q515,220 530,235 Q545,250 540,275 Q550,295 540,315 Q525,335 505,340 Q480,345 460,330 Q440,315 435,290 Q430,265 445,245 Z" fill="#E3F2FD" opacity="0.9"/>
  <!-- Africa -->
  <path d="M460,355 Q490,340 520,350 Q550,360 560,390 Q575,425 570,465 Q565,510 550,545 Q530,580 505,590 Q478,595 458,578 Q435,558 430,520 Q420,480 430,440 Q435,400 460,370 Z" fill="#E3F2FD" opacity="0.9"/>
  <!-- Asia -->
  <path d="M545,215 Q590,200 650,205 Q710,210 750,230 Q790,250 800,285 Q810,320 790,350 Q770,375 735,385 Q695,390 655,375 Q615,360 585,335 Q555,310 545,280 Q535,250 545,230 Z" fill="#E3F2FD" opacity="0.9"/>
  <!-- Australia -->
  <path d="M690,470 Q720,455 755,460 Q790,465 810,490 Q825,515 815,545 Q800,570 770,580 Q735,590 705,575 Q675,560 665,530 Q655,500 670,478 Z" fill="#E3F2FD" opacity="0.9"/>

  <!-- Location pins -->
  <!-- Pin 1 -->
  <ellipse cx="490" cy="288" rx="28" ry="12" fill="#B71C1C" opacity="0.5"/>
  <circle cx="490" cy="255" r="28" fill="#F44336"/>
  <circle cx="490" cy="255" r="14" fill="#FFFFFF"/>

  <!-- Pin 2 -->
  <ellipse cx="660" cy="290" rx="28" ry="12" fill="#F57F17" opacity="0.5"/>
  <circle cx="660" cy="257" r="28" fill="#FF9800"/>
  <circle cx="660" cy="257" r="14" fill="#FFFFFF"/>

  <!-- Pin 3 -->
  <ellipse cx="285" cy="303" rx="28" ry="12" fill="#F9A825" opacity="0.5"/>
  <circle cx="285" cy="270" r="28" fill="#FFD600"/>
  <circle cx="285" cy="270" r="14" fill="#FFFFFF"/>

  <!-- Pin 4 -->
  <ellipse cx="498" cy="400" rx="28" ry="12" fill="#1B5E20" opacity="0.5"/>
  <circle cx="498" cy="367" r="28" fill="#4CAF50"/>
  <circle cx="498" cy="367" r="14" fill="#FFFFFF"/>

  <!-- Ripple effects on pins -->
  <circle cx="490" cy="255" r="42" fill="none" stroke="#F44336" stroke-width="5" opacity="0.5"/>
  <circle cx="660" cy="257" r="42" fill="none" stroke="#FF9800" stroke-width="5" opacity="0.5"/>

  <!-- Bottom label -->
  <rect x="270" y="710" width="484" height="110" rx="20" fill="#FFFFFF" opacity="0.15"/>
  <text x="512" y="783" font-size="90" font-family="Arial Black, sans-serif" font-weight="900" text-anchor="middle" fill="#FFD600">GEO QUIZ</text>
</svg>
