<svg xmlns="http://www.w3.org/2000/svg" viewBox="0 0 1024 1024">
  <rect x="80" y="80" width="864" height="864" rx="180" fill="#00100A"/>
  <!-- 선물 박스 -->
  <rect x="260" y="520" width="504" height="300" rx="20" fill="#00695C"/>
  <rect x="260" y="460" width="504" height="80" rx="14" fill="#26A69A" opacity="0.9"/>
  <!-- 선물 박스 리본 세로 -->
  <rect x="484" y="460" width="56" height="360" rx="10" fill="#26A69A"/>
  <!-- 선물 박스 리본 가로 (뚜껑) -->
  <rect x="260" y="476" width="504" height="48" rx="8" fill="#26A69A" opacity="0.7"/>
  <!-- 선물 박스 리본 활 -->
  <path d="M484 460 Q400 380 340 420 Q380 480 484 460 Z" fill="#26A69A"/>
  <path d="M540 460 Q624 380 684 420 Q644 480 540 460 Z" fill="#26A69A"/>
  <!-- 열린 뚜껑 (오픈 애니메이션) -->
  <path d="M260 460 L260 380 L764 380 L764 460" fill="none" stroke="#26A69A" stroke-width="16" stroke-linecap="round" opacity="0.6"/>
  <!-- 내용물 빛 -->
  <ellipse cx="512" cy="520" rx="120" ry="30" fill="#26A69A" opacity="0.4"/>
  <!-- 팝업 내용 -->
  <rect x="390" y="580" width="80" height="100" rx="8" fill="#26A69A" opacity="0.4"/>
  <rect x="490" y="580" width="60" height="100" rx="8" fill="#26A69A" opacity="0.3"/>
  <rect x="566" y="580" width="80" height="100" rx="8" fill="#26A69A" opacity="0.4"/>
</svg>