<svg xmlns="http://www.w3.org/2000/svg" viewBox="0 0 1024 1024">
  <rect x="80" y="80" width="864" height="864" rx="180" fill="#00100A"/>
  <!-- 잠망경 -->
  <!-- 잠망경 몸체 -->
  <rect x="440" y="280" width="60" height="300" rx="16" fill="#00695C"/>
  <!-- 잠망경 수평부분 -->
  <rect x="380" y="280" width="184" height="60" rx="16" fill="#00695C"/>
  <!-- 잠망경 상단 렌즈 -->
  <circle cx="564" cy="310" r="50" fill="#26A69A" opacity="0.8"/>
  <circle cx="564" cy="310" r="36" fill="#00100A"/>
  <circle cx="564" cy="310" r="26" fill="#26A69A" opacity="0.4"/>
  <!-- 잠망경 하단 눈 부분 -->
  <rect x="380" y="520" width="80" height="60" rx="12" fill="#26A69A" opacity="0.9"/>
  <!-- 아카이브/ZIP 박스 -->
  <rect x="220" y="600" width="584" height="220" rx="18" fill="#00695C" opacity="0.7"/>
  <rect x="220" y="560" width="584" height="60" rx="12" fill="#26A69A" opacity="0.6"/>
  <!-- 내용물 -->
  <rect x="270" y="638" width="100" height="130" rx="8" fill="#26A69A" opacity="0.4"/>
  <rect x="390" y="638" width="100" height="130" rx="8" fill="#26A69A" opacity="0.3"/>
  <rect x="510" y="638" width="100" height="130" rx="8" fill="#26A69A" opacity="0.4"/>
  <rect x="630" y="638" width="130" height="130" rx="8" fill="#26A69A" opacity="0.3"/>
  <!-- 시야선 -->
  <line x1="418" y1="560" x2="370" y2="520" stroke="#26A69A" stroke-width="10" stroke-linecap="round" opacity="0.7"/>
</svg>