<svg xmlns="http://www.w3.org/2000/svg" viewBox="0 0 1024 1024">
  <rect x="80" y="80" width="864" height="864" rx="180" fill="#00100A"/>
  <!-- 아코디언 압축/해제 표현 -->
  <!-- 압축된 상태 (왼쪽) -->
  <rect x="200" y="380" width="60" height="260" rx="8" fill="#00695C"/>
  <rect x="272" y="380" width="60" height="260" rx="8" fill="#26A69A" opacity="0.7"/>
  <rect x="344" y="380" width="60" height="260" rx="8" fill="#00695C"/>
  <rect x="416" y="380" width="60" height="260" rx="8" fill="#26A69A" opacity="0.7"/>
  <!-- 화살표 (확장) -->
  <line x1="494" y1="512" x2="546" y2="512" stroke="#26A69A" stroke-width="18" stroke-linecap="round"/>
  <polygon points="546,484 600,512 546,540" fill="#26A69A"/>
  <!-- 해제된 상태 (오른쪽) - 넓은 간격 -->
  <rect x="610" y="340" width="54" height="340" rx="8" fill="#00695C"/>
  <rect x="692" y="340" width="54" height="340" rx="8" fill="#26A69A" opacity="0.7"/>
  <rect x="774" y="340" width="54" height="340" rx="8" fill="#00695C"/>
  <!-- 스프링 표시 -->
  <path d="M664 440 Q678 420 692 440 Q706 460 720 440 Q734 420 748 440 Q762 460 776 440" fill="none" stroke="#26A69A" stroke-width="10" stroke-linecap="round" opacity="0.6"/>
  <path d="M664 540 Q678 520 692 540 Q706 560 720 540 Q734 520 748 540 Q762 560 776 540" fill="none" stroke="#26A69A" stroke-width="10" stroke-linecap="round" opacity="0.6"/>
</svg>