<svg xmlns="http://www.w3.org/2000/svg" viewBox="0 0 1024 1024">
  <rect x="80" y="80" width="864" height="864" rx="180" fill="#0A0000"/>
  <!-- Left pistol -->
  <rect x="160" y="480" width="220" height="80" rx="16" fill="#C62828"/>
  <rect x="340" y="440" width="60" height="60" rx="8" fill="#C62828"/>
  <rect x="360" y="500" width="20" height="80" rx="6" fill="#EF9A9A" fill-opacity="0.6"/>
  <rect x="160" y="520" width="30" height="120" rx="10" fill="#EF9A9A" fill-opacity="0.5"/>
  <!-- Muzzle flash left -->
  <polygon points="400,510 460,480 430,530 480,520 440,560 460,600 400,570" fill="#EF9A9A" fill-opacity="0.8"/>
  <!-- Right pistol (flipped) -->
  <rect x="644" y="480" width="220" height="80" rx="16" fill="#C62828"/>
  <rect x="624" y="440" width="60" height="60" rx="8" fill="#C62828"/>
  <rect x="644" y="500" width="20" height="80" rx="6" fill="#EF9A9A" fill-opacity="0.6"/>
  <rect x="834" y="520" width="30" height="120" rx="10" fill="#EF9A9A" fill-opacity="0.5"/>
  <!-- Muzzle flash right -->
  <polygon points="624,510 564,480 594,530 544,520 584,560 564,600 624,570" fill="#EF9A9A" fill-opacity="0.8"/>
  <!-- VS center -->
  <line x1="480" y1="380" x2="544" y2="680" stroke="#EF9A9A" stroke-width="18" stroke-opacity="0.4"/>
  <line x1="544" y1="380" x2="480" y2="680" stroke="#EF9A9A" stroke-width="18" stroke-opacity="0.4"/>
</svg>