<svg xmlns="http://www.w3.org/2000/svg" viewBox="0 0 1024 1024">
<rect x="80" y="80" width="864" height="864" rx="180" ry="180" fill="#000A14"/>
<!-- 컨셉: 전원 버튼 원형 -->
<!-- 외부 링 -->
<circle cx="512" cy="512" r="300" fill="none" stroke="#1565C0" stroke-width="40"/>
<!-- 내부 원 (약간 작은) -->
<circle cx="512" cy="512" r="240" fill="#050E1A" stroke="#42A5F5" stroke-width="24"/>
<!-- 전원 심볼 -->
<!-- 수직선 (위에서 잘림) -->
<line x1="512" y1="272" x2="512" y2="460" stroke="#42A5F5" stroke-width="44" stroke-linecap="round"/>
<!-- 아치 (C 형태) -->
<path d="M 360 400 Q 280 460 280 548 Q 280 680 400 738 Q 512 784 624 738 Q 744 680 744 548 Q 744 460 664 400" fill="none" stroke="#42A5F5" stroke-width="44" stroke-linecap="round"/>
<!-- 빛 효과 -->
<circle cx="512" cy="512" r="160" fill="#42A5F5" opacity="0.05"/>
<circle cx="512" cy="512" r="80" fill="#42A5F5" opacity="0.05"/>
<!-- 외부 틱 마커 (각도 표시) -->
<line x1="512" y1="212" x2="512" y2="240" stroke="#1565C0" stroke-width="16"/>
<line x1="712" y1="262" x2="698" y2="286" stroke="#1565C0" stroke-width="16"/>
<line x1="812" y1="412" x2="788" y2="424" stroke="#1565C0" stroke-width="16"/>
<line x1="312" y1="262" x2="326" y2="286" stroke="#1565C0" stroke-width="16"/>
<line x1="212" y1="412" x2="236" y2="424" stroke="#1565C0" stroke-width="16"/>
</svg>
