<svg xmlns="http://www.w3.org/2000/svg" viewBox="0 0 1024 1024">
<rect x="80" y="80" width="864" height="864" rx="180" ry="180" fill="#000A14"/>
<!-- 컨셉: 나무 루트 부팅 트리 -->
<!-- 루트 노드 (최상단) -->
<circle cx="512" cy="220" r="52" fill="#1565C0"/>
<circle cx="512" cy="220" r="32" fill="#000A14"/>
<!-- 1레벨 연결선 -->
<line x1="484" y1="268" x2="340" y2="420" stroke="#1565C0" stroke-width="20" stroke-linecap="round"/>
<line x1="540" y1="268" x2="684" y2="420" stroke="#1565C0" stroke-width="20" stroke-linecap="round"/>
<!-- 1레벨 노드들 -->
<circle cx="320" cy="440" r="44" fill="#1565C0"/>
<circle cx="320" cy="440" r="26" fill="#000A14"/>
<circle cx="704" cy="440" r="44" fill="#1565C0"/>
<circle cx="704" cy="440" r="26" fill="#000A14"/>
<!-- 2레벨 연결선 (왼쪽) -->
<line x1="298" y1="482" x2="220" y2="620" stroke="#42A5F5" stroke-width="16" stroke-linecap="round"/>
<line x1="342" y1="482" x2="420" y2="620" stroke="#42A5F5" stroke-width="16" stroke-linecap="round"/>
<!-- 2레벨 연결선 (오른쪽) -->
<line x1="682" y1="482" x2="604" y2="620" stroke="#42A5F5" stroke-width="16" stroke-linecap="round"/>
<line x1="726" y1="482" x2="804" y2="620" stroke="#42A5F5" stroke-width="16" stroke-linecap="round"/>
<!-- 2레벨 노드들 -->
<circle cx="200" cy="640" r="36" fill="#42A5F5" opacity="0.7"/>
<circle cx="440" cy="640" r="36" fill="#42A5F5" opacity="0.7"/>
<circle cx="584" cy="640" r="36" fill="#42A5F5" opacity="0.7"/>
<circle cx="824" cy="640" r="36" fill="#42A5F5" opacity="0.7"/>
<!-- 3레벨 (잎) -->
<line x1="200" y1="676" x2="200" y2="780" stroke="#42A5F5" stroke-width="12" opacity="0.4"/>
<line x1="440" y1="676" x2="380" y2="780" stroke="#42A5F5" stroke-width="12" opacity="0.4"/>
<line x1="440" y1="676" x2="500" y2="780" stroke="#42A5F5" stroke-width="12" opacity="0.4"/>
<line x1="584" y1="676" x2="524" y2="780" stroke="#42A5F5" stroke-width="12" opacity="0.4"/>
<line x1="824" y1="676" x2="824" y2="780" stroke="#42A5F5" stroke-width="12" opacity="0.4"/>
<circle cx="200" cy="790" r="22" fill="#1565C0" opacity="0.5"/>
<circle cx="380" cy="790" r="22" fill="#1565C0" opacity="0.5"/>
<circle cx="500" cy="790" r="22" fill="#1565C0" opacity="0.5"/>
<circle cx="524" cy="790" r="22" fill="#1565C0" opacity="0.5"/>
<circle cx="824" cy="790" r="22" fill="#1565C0" opacity="0.5"/>
</svg>
