<svg xmlns="http://www.w3.org/2000/svg" viewBox="0 0 1024 1024">
  <defs>
    <linearGradient id="bg05" x1="0%" y1="0%" x2="100%" y2="100%">
      <stop offset="0%" style="stop-color:#6D28D9"/>
      <stop offset="100%" style="stop-color:#7C3AED"/>
    </linearGradient>
  </defs>
  <!-- Background -->
  <rect width="1024" height="1024" rx="185" fill="url(#bg05)"/>
  <!-- Left curly brace -->
  <path d="M 340 230 Q 280 230 280 300 L 280 450 Q 280 512 220 512 Q 280 512 280 574 L 280 724 Q 280 794 340 794" fill="none" stroke="#FFFFFF" stroke-width="68" stroke-linecap="round" stroke-linejoin="round"/>
  <!-- Right curly brace -->
  <path d="M 684 230 Q 744 230 744 300 L 744 450 Q 744 512 804 512 Q 744 512 744 574 L 744 724 Q 744 794 684 794" fill="none" stroke="#FFFFFF" stroke-width="68" stroke-linecap="round" stroke-linejoin="round"/>
  <!-- JSON text inside -->
  <text x="512" y="480" text-anchor="middle" dominant-baseline="middle" font-family="Arial Black, sans-serif" font-size="150" font-weight="900" fill="#FDE68A">JSON</text>
  <!-- Decorative dots -->
  <circle cx="512" cy="620" r="20" fill="rgba(255,255,255,0.4)"/>
  <circle cx="462" cy="620" r="14" fill="rgba(255,255,255,0.3)"/>
  <circle cx="562" cy="620" r="14" fill="rgba(255,255,255,0.3)"/>
</svg>
