<svg xmlns="http://www.w3.org/2000/svg" viewBox="0 0 1024 1024">
  <defs>
    <linearGradient id="bg07" x1="0%" y1="0%" x2="100%" y2="100%">
      <stop offset="0%" style="stop-color:#0D9488"/>
      <stop offset="100%" style="stop-color:#14B8A6"/>
    </linearGradient>
  </defs>
  <!-- Background -->
  <rect width="1024" height="1024" rx="185" fill="url(#bg07)"/>
  <!-- Top server box -->
  <rect x="260" y="200" width="504" height="170" rx="22" fill="#FFFFFF"/>
  <rect x="284" y="224" width="456" height="48" rx="10" fill="#E2E8F0"/>
  <!-- Server dots top -->
  <circle cx="720" cy="270" r="16" fill="#22C55E"/>
  <circle cx="680" cy="270" r="16" fill="#F59E0B"/>
  <!-- Server lines top -->
  <rect x="284" y="290" width="300" height="20" rx="10" fill="#94A3B8"/>
  <rect x="284" y="320" width="220" height="20" rx="10" fill="#CBD5E1"/>
  <!-- Bottom server box -->
  <rect x="260" y="654" width="504" height="170" rx="22" fill="#FFFFFF"/>
  <rect x="284" y="678" width="456" height="48" rx="10" fill="#E2E8F0"/>
  <!-- Server dots bottom -->
  <circle cx="720" cy="724" r="16" fill="#3B82F6"/>
  <circle cx="680" cy="724" r="16" fill="#EF4444"/>
  <!-- Server lines bottom -->
  <rect x="284" y="744" width="280" height="20" rx="10" fill="#94A3B8"/>
  <rect x="284" y="774" width="200" height="20" rx="10" fill="#CBD5E1"/>
  <!-- Bidirectional arrows -->
  <line x1="512" y1="388" x2="512" y2="638" stroke="#FFFFFF" stroke-width="10" stroke-dasharray="20,12"/>
  <!-- Up arrow -->
  <polyline points="452,440 512,380 572,440" fill="none" stroke="#FFFFFF" stroke-width="50" stroke-linecap="round" stroke-linejoin="round"/>
  <!-- Down arrow -->
  <polyline points="452,586 512,646 572,586" fill="none" stroke="#FFFFFF" stroke-width="50" stroke-linecap="round" stroke-linejoin="round"/>
</svg>
