<svg viewBox="0 0 1024 1024" xmlns="http://www.w3.org/2000/svg">
  <rect x="72" y="72" width="880" height="880" rx="190" fill="#FEF3C7"/>
  <rect x="180" y="180" width="664" height="620" rx="28" fill="#FFFFFF" stroke="#78350F" stroke-width="18"/>
  <rect x="200" y="200" width="624" height="560" rx="10" fill="#60A5FA"/>
  <circle cx="320" cy="340" r="90" fill="#FDE047"/>
  <path d="M 200 640 Q 360 480 520 520 Q 680 560 824 460 L 824 760 L 200 760 Z" fill="#34D399"/>
  <path d="M 200 700 Q 380 620 540 650 Q 700 680 824 630 L 824 760 L 200 760 Z" fill="#065F46"/>
  <rect x="200" y="200" width="624" height="560" rx="10" fill="url(#)" stroke="none"/>
  <rect x="540" y="660" width="284" height="100" rx="10" fill="rgba(0,0,0,0.65)"/>
  <text x="682" y="732" font-family="Consolas, monospace" font-size="56" font-weight="900" fill="#FB923C" text-anchor="middle">2026-04-14</text>
  <rect x="140" y="800" width="744" height="140" rx="24" fill="#78350F"/>
  <text x="512" y="900" font-family="Segoe UI, sans-serif" font-size="90" font-weight="900" fill="#FDE047" text-anchor="middle">DATE SORT</text>
</svg>
