<svg xmlns="http://www.w3.org/2000/svg" viewBox="0 0 1024 1024">
  <defs>
    <radialGradient id="bg03" cx="50%" cy="50%" r="50%">
      <stop offset="0%" stop-color="#1E6A9E"/>
      <stop offset="100%" stop-color="#0C4A6E"/>
    </radialGradient>
    <radialGradient id="center03" cx="50%" cy="50%" r="50%">
      <stop offset="0%" stop-color="#7DD3FC" stop-opacity="0.6"/>
      <stop offset="100%" stop-color="#38BDF8" stop-opacity="0"/>
    </radialGradient>
    <clipPath id="clip03">
      <rect width="1024" height="1024" rx="190"/>
    </clipPath>
  </defs>
  <!-- Layer 1: 배경 -->
  <rect width="1024" height="1024" rx="190" fill="url(#bg03)"/>
  <circle cx="512" cy="512" r="400" fill="url(#center03)" clip-path="url(#clip03)"/>
  <g clip-path="url(#clip03)">
    <!-- Layer 2: 탄막 원형 패턴 — 동심원 방사형 총알들 -->
    <!-- 중심 발사 포인트 -->
    <circle cx="512" cy="512" r="30" fill="#38BDF8"/>
    <circle cx="512" cy="512" r="18" fill="#FFFFFF"/>
    <!-- 1번 링 (가장 안쪽) -->
    <ellipse cx="512" cy="362" rx="11" ry="20" fill="#FDE68A"/>
    <ellipse cx="618" cy="406" rx="11" ry="20" fill="#FDE68A" transform="rotate(60 618 406)"/>
    <ellipse cx="618" cy="618" rx="11" ry="20" fill="#FDE68A" transform="rotate(120 618 618)"/>
    <ellipse cx="512" cy="662" rx="11" ry="20" fill="#FDE68A"/>
    <ellipse cx="406" cy="618" rx="11" ry="20" fill="#FDE68A" transform="rotate(240 406 618)"/>
    <ellipse cx="406" cy="406" rx="11" ry="20" fill="#FDE68A" transform="rotate(300 406 406)"/>
    <!-- 2번 링 -->
    <ellipse cx="512" cy="262" rx="13" ry="23" fill="#38BDF8"/>
    <ellipse cx="662" cy="325" rx="13" ry="23" fill="#38BDF8" transform="rotate(45 662 325)"/>
    <ellipse cx="750" cy="512" rx="13" ry="23" fill="#38BDF8" transform="rotate(90 750 512)"/>
    <ellipse cx="662" cy="699" rx="13" ry="23" fill="#38BDF8" transform="rotate(135 662 699)"/>
    <ellipse cx="512" cy="762" rx="13" ry="23" fill="#38BDF8"/>
    <ellipse cx="362" cy="699" rx="13" ry="23" fill="#38BDF8" transform="rotate(225 362 699)"/>
    <ellipse cx="274" cy="512" rx="13" ry="23" fill="#38BDF8" transform="rotate(270 274 512)"/>
    <ellipse cx="362" cy="325" rx="13" ry="23" fill="#38BDF8" transform="rotate(315 362 325)"/>
    <!-- 3번 링 (바깥쪽) -->
    <ellipse cx="512" cy="172" rx="11" ry="20" fill="#FDE68A" opacity="0.8"/>
    <ellipse cx="618" cy="196" rx="11" ry="20" fill="#FDE68A" opacity="0.8" transform="rotate(30 618 196)"/>
    <ellipse cx="706" cy="265" rx="11" ry="20" fill="#FDE68A" opacity="0.8" transform="rotate(60 706 265)"/>
    <ellipse cx="750" cy="362" rx="11" ry="20" fill="#FDE68A" opacity="0.8" transform="rotate(90 750 362)"/>
    <ellipse cx="840" cy="512" rx="11" ry="20" fill="#38BDF8" opacity="0.6" transform="rotate(90 840 512)"/>
    <ellipse cx="750" cy="662" rx="11" ry="20" fill="#FDE68A" opacity="0.8" transform="rotate(90 750 662)"/>
    <ellipse cx="706" cy="759" rx="11" ry="20" fill="#FDE68A" opacity="0.8" transform="rotate(60 706 759)"/>
    <ellipse cx="618" cy="828" rx="11" ry="20" fill="#FDE68A" opacity="0.8" transform="rotate(30 618 828)"/>
    <ellipse cx="512" cy="852" rx="11" ry="20" fill="#FDE68A" opacity="0.8"/>
    <ellipse cx="406" cy="828" rx="11" ry="20" fill="#FDE68A" opacity="0.8" transform="rotate(-30 406 828)"/>
    <ellipse cx="318" cy="759" rx="11" ry="20" fill="#FDE68A" opacity="0.8" transform="rotate(-60 318 759)"/>
    <ellipse cx="184" cy="512" rx="11" ry="20" fill="#38BDF8" opacity="0.6" transform="rotate(90 184 512)"/>
    <ellipse cx="274" cy="362" rx="11" ry="20" fill="#FDE68A" opacity="0.8" transform="rotate(-90 274 362)"/>
    <ellipse cx="318" cy="265" rx="11" ry="20" fill="#FDE68A" opacity="0.8" transform="rotate(-60 318 265)"/>
    <ellipse cx="406" cy="196" rx="11" ry="20" fill="#FDE68A" opacity="0.8" transform="rotate(-30 406 196)"/>
    <!-- Layer 3: 원형 궤도선 -->
    <circle cx="512" cy="512" r="150" fill="none" stroke="#38BDF8" stroke-width="2" stroke-dasharray="12 18" opacity="0.4"/>
    <circle cx="512" cy="512" r="250" fill="none" stroke="#38BDF8" stroke-width="2" stroke-dasharray="12 18" opacity="0.3"/>
    <circle cx="512" cy="512" r="340" fill="none" stroke="#38BDF8" stroke-width="1" stroke-dasharray="8 20" opacity="0.2"/>
  </g>
</svg>
