<svg xmlns="http://www.w3.org/2000/svg" viewBox="0 0 1024 1024">
  <defs>
    <radialGradient id="bg_sf01" cx="50%" cy="50%" r="50%">
      <stop offset="0%" stop-color="#A16207"/>
      <stop offset="100%" stop-color="#78350F"/>
    </radialGradient>
    <linearGradient id="sand01" x1="0" y1="0" x2="0" y2="1">
      <stop offset="0%" stop-color="#FDE68A"/>
      <stop offset="100%" stop-color="#F59E0B"/>
    </linearGradient>
  </defs>
  <!-- 배경 -->
  <rect width="1024" height="1024" rx="185" fill="url(#bg_sf01)"/>
  <!-- 모래시계 외곽 (흰 테두리) -->
  <path d="M 282,200 L 742,200 L 742,230 L 560,512 L 742,794 L 742,824 L 282,824 L 282,794 L 464,512 L 282,230 Z" fill="none" stroke="white" stroke-width="22" stroke-linejoin="round"/>
  <!-- 모래시계 상단 모래 (노란) -->
  <clipPath id="topClip">
    <polygon points="300,220 724,220 724,240 542,512 300,512"/>
  </clipPath>
  <polygon points="300,220 724,220 724,240 542,512 300,512" fill="#FDE047" opacity="0.85"/>
  <!-- 상단 모래 더미 (굵게) -->
  <polygon points="300,220 724,220 724,350 512,470 300,350" fill="#F59E0B" opacity="0.5"/>
  <!-- 모래시계 하단 (빈 공간 + 약간 쌓인) -->
  <polygon points="300,804 724,804 724,760 542,512 300,512" fill="none"/>
  <!-- 하단에 쌓인 모래 -->
  <polygon points="360,804 664,804 586,640 438,640" fill="#D97706" opacity="0.8"/>
  <polygon points="300,804 724,804 664,804 586,640 438,640 360,804" fill="#FDE047" opacity="0.9"/>
  <!-- 중간 구멍에서 흐르는 모래 (가는 스트림) -->
  <rect x="498" y="490" width="28" height="100" rx="10" fill="#FDE047" opacity="0.95"/>
  <rect x="504" y="560" width="16" height="80" rx="8" fill="#F59E0B" opacity="0.8"/>
  <!-- 모래 입자들 (낙하중) -->
  <circle cx="510" cy="540" r="7" fill="#FDE68A"/>
  <circle cx="520" cy="555" r="6" fill="#FDE68A" opacity="0.8"/>
  <circle cx="503" cy="567" r="5" fill="#FDE68A" opacity="0.7"/>
  <circle cx="516" cy="580" r="7" fill="#FDE68A"/>
  <circle cx="506" cy="595" r="5" fill="#FDE68A" opacity="0.8"/>
  <!-- 모래시계 내부 선 (디테일) -->
  <line x1="300" y1="220" x2="724" y2="220" stroke="white" stroke-width="14" stroke-linecap="round"/>
  <line x1="300" y1="804" x2="724" y2="804" stroke="white" stroke-width="14" stroke-linecap="round"/>
  <!-- 측면 장식선 -->
  <line x1="282" y1="200" x2="282" y2="824" stroke="white" stroke-width="14" stroke-linecap="round"/>
  <line x1="742" y1="200" x2="742" y2="824" stroke="white" stroke-width="14" stroke-linecap="round"/>
</svg>
