<svg xmlns="http://www.w3.org/2000/svg" viewBox="0 0 1024 1024">
<rect x="80" y="80" width="864" height="864" rx="180" ry="180" fill="#0A0000"/>
<!-- 컨셉: 빗자루 청소 -->
<!-- 빗자루 손잡이 -->
<line x1="340" y1="200" x2="660" y2="780" stroke="#EF9A9A" stroke-width="36" stroke-linecap="round"/>
<!-- 빗자루 솔 (부채꼴) -->
<path d="M 560 680 Q 480 720 420 800 Q 520 810 620 780 Q 720 750 780 680 Z" fill="#C62828"/>
<!-- 솔 세부 라인 -->
<line x1="560" y1="685" x2="440" y2="795" stroke="#EF9A9A" stroke-width="12" stroke-linecap="round" opacity="0.6"/>
<line x1="580" y1="680" x2="510" y2="800" stroke="#EF9A9A" stroke-width="12" stroke-linecap="round" opacity="0.6"/>
<line x1="600" y1="676" x2="580" y2="800" stroke="#EF9A9A" stroke-width="12" stroke-linecap="round" opacity="0.6"/>
<line x1="620" y1="675" x2="650" y2="795" stroke="#EF9A9A" stroke-width="12" stroke-linecap="round" opacity="0.6"/>
<line x1="640" y1="678" x2="720" y2="780" stroke="#EF9A9A" stroke-width="12" stroke-linecap="round" opacity="0.6"/>
<!-- 쓸려나가는 쓰레기들 -->
<circle cx="760" cy="860" r="16" fill="#EF9A9A" opacity="0.8"/>
<circle cx="800" cy="840" r="10" fill="#C62828" opacity="0.9"/>
<circle cx="820" cy="870" r="12" fill="#EF9A9A" opacity="0.7"/>
<rect x="830" y="820" width="40" height="32" rx="6" fill="#C62828" opacity="0.6"/>
<!-- 먼지 구름 -->
<circle cx="820" cy="790" r="30" fill="#EF9A9A" opacity="0.15"/>
<circle cx="855" cy="810" r="22" fill="#EF9A9A" opacity="0.12"/>
<!-- 빗자루 묶음 -->
<rect x="543" y="660" width="36" height="36" rx="6" fill="#EF9A9A"/>
</svg>
