<svg xmlns="http://www.w3.org/2000/svg" viewBox="0 0 1024 1024">
  <defs>
    <linearGradient id="bg07cp" x1="0" y1="0" x2="1" y2="1">
      <stop offset="0%" stop-color="#FFF9C4"/>
      <stop offset="100%" stop-color="#FCE4EC"/>
    </linearGradient>
  </defs>
  <!-- Layer 1: Background (pastel yellow-pink) -->
  <rect x="0" y="0" width="1024" height="1024" rx="190" fill="url(#bg07cp)"/>

  <!-- Layer 2: Emoji palette grid 3x3 -->
  <!-- Cell backgrounds -->
  <rect x="88"  y="100" width="260" height="220" rx="24" fill="#FFF176"/>
  <rect x="382" y="100" width="260" height="220" rx="24" fill="#FFCCBC"/>
  <rect x="676" y="100" width="260" height="220" rx="24" fill="#F8BBD0"/>

  <rect x="88"  y="352" width="260" height="220" rx="24" fill="#B2EBF2"/>
  <rect x="382" y="352" width="260" height="220" rx="24" fill="#C8E6C9"/>
  <rect x="676" y="352" width="260" height="220" rx="24" fill="#E1BEE7"/>

  <rect x="88"  y="604" width="260" height="220" rx="24" fill="#FFECB3"/>
  <rect x="382" y="604" width="260" height="220" rx="24" fill="#DCEDC8"/>
  <rect x="676" y="604" width="260" height="220" rx="24" fill="#FFE0B2"/>

  <!-- Emoji content -->
  <text x="218" y="244" font-size="130" text-anchor="middle">😀</text>
  <text x="512" y="244" font-size="130" text-anchor="middle">❤️</text>
  <text x="806" y="244" font-size="130" text-anchor="middle">⭐</text>

  <text x="218" y="496" font-size="130" text-anchor="middle">🔥</text>
  <text x="512" y="496" font-size="130" text-anchor="middle">👍</text>
  <text x="806" y="496" font-size="130" text-anchor="middle">🎉</text>

  <text x="218" y="748" font-size="130" text-anchor="middle">💡</text>
  <text x="512" y="748" font-size="130" text-anchor="middle">🎯</text>
  <text x="806" y="748" font-size="130" text-anchor="middle">💎</text>

  <!-- Layer 3: Title bar at bottom -->
  <rect x="88" y="862" width="848" height="80" rx="20" fill="#E91E63" opacity="0.85"/>
  <text x="512" y="916" font-family="'Segoe UI',Arial,sans-serif" font-size="56" font-weight="bold"
    fill="white" text-anchor="middle">😀 EMOJI PAD</text>
</svg>
