<svg xmlns="http://www.w3.org/2000/svg" viewBox="0 0 512 512">
  <defs>
    <linearGradient id="bg" x1="0" y1="0" x2="1" y2="1">
      <stop offset="0%" stop-color="#0a0a0a"/>
      <stop offset="100%" stop-color="#151520"/>
    </linearGradient>
    <linearGradient id="f1" x1="0" y1="0" x2="0" y2="1"><stop offset="0%" stop-color="#FF6666"/><stop offset="100%" stop-color="#AA2222"/></linearGradient>
    <linearGradient id="f2" x1="0" y1="0" x2="0" y2="1"><stop offset="0%" stop-color="#FFAA44"/><stop offset="100%" stop-color="#AA6600"/></linearGradient>
    <linearGradient id="f3" x1="0" y1="0" x2="0" y2="1"><stop offset="0%" stop-color="#FFEE44"/><stop offset="100%" stop-color="#AAAA00"/></linearGradient>
    <linearGradient id="f4" x1="0" y1="0" x2="0" y2="1"><stop offset="0%" stop-color="#44FF88"/><stop offset="100%" stop-color="#00AA44"/></linearGradient>
    <linearGradient id="f5" x1="0" y1="0" x2="0" y2="1"><stop offset="0%" stop-color="#44AAFF"/><stop offset="100%" stop-color="#0055AA"/></linearGradient>
    <linearGradient id="f6" x1="0" y1="0" x2="0" y2="1"><stop offset="0%" stop-color="#AA44FF"/><stop offset="100%" stop-color="#6600AA"/></linearGradient>
    <linearGradient id="arrow" x1="0" y1="0" x2="1" y2="0"><stop offset="0%" stop-color="#FFFFFF"/><stop offset="100%" stop-color="#AAAAAA"/></linearGradient>
  </defs>
  <rect width="512" height="512" rx="80" fill="url(#bg)"/>
  <!-- Before: scattered colored files -->
  <rect x="56" y="140" width="64" height="80" rx="6" fill="url(#f1)" opacity="0.75" transform="rotate(-8 88 180)"/>
  <rect x="100" y="160" width="64" height="80" rx="6" fill="url(#f2)" opacity="0.8" transform="rotate(5 132 200)"/>
  <rect x="70" y="195" width="64" height="80" rx="6" fill="url(#f3)" opacity="0.75" transform="rotate(-3 102 235)"/>
  <rect x="115" y="180" width="64" height="80" rx="6" fill="url(#f4)" opacity="0.7" transform="rotate(10 147 220)"/>
  <!-- Arrow -->
  <path d="M218,256 L260,256 L260,236 L300,262 L260,288 L260,268 L218,268 Z" fill="url(#arrow)" opacity="0.9"/>
  <!-- After: neat ordered files in a row -->
  <rect x="318" y="168" width="56" height="76" rx="6" fill="url(#f1)" opacity="0.9"/>
  <rect x="338" y="156" width="56" height="76" rx="6" fill="url(#f2)" opacity="0.9"/>
  <rect x="358" y="144" width="56" height="76" rx="6" fill="url(#f3)" opacity="0.9"/>
  <rect x="378" y="132" width="56" height="76" rx="6" fill="url(#f4)" opacity="0.9"/>
  <rect x="398" y="120" width="56" height="76" rx="6" fill="url(#f5)" opacity="0.9"/>
  <!-- Name labels below after -->
  <rect x="318" y="256" width="136" height="24" rx="4" fill="#222" stroke="#555" stroke-width="1"/>
  <text x="386" y="273" font-family="monospace" font-size="13" fill="#AAA" text-anchor="middle">file_001~005</text>
  <!-- Rename sparkle effect -->
  <circle cx="310" cy="200" r="4" fill="#FFFF88" opacity="0.8"/>
  <circle cx="310" cy="220" r="3" fill="#FF88FF" opacity="0.7"/>
  <circle cx="308" cy="240" r="4" fill="#88FFFF" opacity="0.6"/>
</svg>