<svg xmlns="http://www.w3.org/2000/svg" viewBox="0 0 1024 1024">
  <!-- Layer 1: Background -->
  <rect width="1024" height="1024" rx="190" fill="#0C1445"/>
  <!-- Layer 2: 빈 폴더 3개 스택 (아무것도 없는 폴더들) -->
  <!-- 폴더 3 (뒤) -->
  <path d="M180 540 Q180 500 220 500 L400 500 L440 460 L820 460 Q860 460 860 500 L860 780 Q860 820 820 820 L220 820 Q180 820 180 780 Z" fill="#1E3A8A" opacity="0.5"/>
  <!-- 폴더 2 (중간) -->
  <path d="M140 480 Q140 440 180 440 L380 440 L420 400 L800 400 Q840 400 840 440 L840 720 Q840 760 800 760 L180 760 Q140 760 140 720 Z" fill="#1D4ED8" opacity="0.7"/>
  <!-- 폴더 1 (앞) -->
  <path d="M100 420 Q100 380 140 380 L360 380 L400 340 L780 340 Q820 340 820 380 L820 660 Q820 700 780 700 L140 700 Q100 700 100 660 Z" fill="#2563EB"/>
  <path d="M100 420 Q100 380 140 380 L360 380 L400 340 L780 340 Q820 340 820 380 L820 660 Q820 700 780 700 L140 700 Q100 700 100 660 Z" fill="none" stroke="#60A5FA" stroke-width="12"/>
  <!-- Layer 3: 비어있음 텍스트 / 아이콘 -->
  <text x="460" y="570" font-size="100" fill="#93C5FD" text-anchor="middle" dominant-baseline="middle" opacity="0.5">∅</text>
  <!-- 0 바이트 배지 -->
  <rect x="580" y="800" width="260" height="70" rx="20" fill="#1D4ED8"/>
  <text x="710" y="848" font-size="36" fill="#BFDBFE" text-anchor="middle">0 bytes</text>
</svg>
