<svg xmlns="http://www.w3.org/2000/svg" viewBox="0 0 1024 1024">
  <rect x="80" y="80" width="864" height="864" rx="180" ry="180" fill="#050808"/>
  <!-- 파도 밀려오는 적: 파도 + 적 -->
  <!-- wave layers -->
  <path d="M130 620 Q230 560 330 620 Q430 680 530 620 Q630 560 730 620 Q810 668 894 640 L894 844 L130 844 Z" fill="#37474F" opacity="0.5"/>
  <path d="M130 700 Q230 640 330 700 Q430 760 530 700 Q630 640 730 700 Q810 748 894 720 L894 844 L130 844 Z" fill="#37474F" opacity="0.7"/>
  <path d="M130 770 Q230 720 330 770 Q430 820 530 770 Q630 720 730 770 Q810 808 894 790 L894 844 L130 844 Z" fill="#37474F"/>
  <!-- wave crests highlight -->
  <path d="M130 620 Q230 560 330 620 Q430 680 530 620 Q630 560 730 620 Q810 668 894 640" fill="none" stroke="#B0BEC5" stroke-width="5" opacity="0.5"/>
  <!-- enemy figures on waves -->
  <circle cx="280" cy="600" r="22" fill="#B0BEC5" opacity="0.5"/>
  <rect x="268" y="622" width="24" height="32" rx="4" fill="#B0BEC5" opacity="0.5"/>
  <circle cx="460" cy="590" r="22" fill="#B0BEC5" opacity="0.55"/>
  <rect x="448" y="612" width="24" height="32" rx="4" fill="#B0BEC5" opacity="0.55"/>
  <circle cx="640" cy="600" r="22" fill="#B0BEC5" opacity="0.5"/>
  <rect x="628" y="622" width="24" height="32" rx="4" fill="#B0BEC5" opacity="0.5"/>
  <!-- tower/base at top -->
  <rect x="430" y="200" width="164" height="220" rx="10" fill="#37474F"/>
  <rect x="430" y="165" width="44" height="60" rx="5" fill="#37474F"/>
  <rect x="496" y="165" width="44" height="60" rx="5" fill="#37474F"/>
  <rect x="550" y="165" width="44" height="60" rx="5" fill="#37474F"/>
  <!-- tower arrow slit -->
  <rect x="498" y="270" width="28" height="10" rx="3" fill="#050808"/>
  <!-- arrow -->
  <line x1="526" y1="275" x2="620" y2="360" stroke="#B0BEC5" stroke-width="6" stroke-linecap="round"/>
  <polygon points="620,360 600,346 606,368" fill="#B0BEC5"/>
</svg>
