<!-- AI.Clip icon_10: 벌집 패턴 (honeycomb: organized AI storage) -->
<svg xmlns="http://www.w3.org/2000/svg" viewBox="0 0 1024 1024">
  <rect x="80" y="80" width="864" height="864" rx="180" fill="#0D0520"/>
  <!-- Honeycomb hexagons (3x3 pattern) -->
  <!-- Row 1 -->
  <polygon points="310,200 390,200 430,268 390,336 310,336 270,268" fill="none" stroke="#9C27B0" stroke-width="24"/>
  <polygon points="510,200 590,200 630,268 590,336 510,336 470,268" fill="#4A0472" stroke="#9C27B0" stroke-width="24"/>
  <polygon points="710,200 790,200 830,268 790,336 710,336 670,268" fill="none" stroke="#9C27B0" stroke-width="24"/>
  <!-- Row 2 (offset) -->
  <polygon points="410,336 490,336 530,404 490,472 410,472 370,404" fill="none" stroke="#9C27B0" stroke-width="24"/>
  <polygon points="610,336 690,336 730,404 690,472 610,472 570,404" fill="#7B1FA2" stroke="#9C27B0" stroke-width="24"/>
  <!-- Row 3 -->
  <polygon points="310,472 390,472 430,540 390,608 310,608 270,540" fill="#4A0472" stroke="#9C27B0" stroke-width="24"/>
  <polygon points="510,472 590,472 630,540 590,608 510,608 470,540" fill="none" stroke="#9C27B0" stroke-width="24"/>
  <polygon points="710,472 790,472 830,540 790,608 710,608 670,540" fill="#4A0472" stroke="#9C27B0" stroke-width="24"/>
  <!-- Row 4 (offset) -->
  <polygon points="410,608 490,608 530,676 490,744 410,744 370,676" fill="none" stroke="#9C27B0" stroke-width="24"/>
  <polygon points="610,608 690,608 730,676 690,744 610,744 570,676" fill="#7B1FA2" stroke="#9C27B0" stroke-width="24"/>
  <!-- Center highlight dot in middle cells -->
  <circle cx="540" cy="268" r="18" fill="#CE93D8"/>
  <circle cx="650" cy="404" r="18" fill="#CE93D8"/>
  <circle cx="540" cy="540" r="18" fill="#CE93D8"/>
</svg>
