<svg xmlns="http://www.w3.org/2000/svg" viewBox="0 0 1024 1024">
  <!-- Literal: Audio file → arrow → clean metadata card (before/after) -->
  <rect x="80" y="80" width="864" height="864" rx="160" ry="160" fill="#010A08"/>
  <!-- Before: messy file (left) -->
  <rect x="120" y="280" width="300" height="380" rx="20" fill="#0D1A12" stroke="#388E3C" stroke-width="18"/>
  <!-- Messy metadata lines (different lengths, faded) -->
  <rect x="150" y="335" width="90" height="14" rx="7" fill="#81C784" opacity="0.7"/>
  <rect x="255" y="335" width="130" height="14" rx="7" fill="#81C784" opacity="0.4"/>
  <rect x="150" y="368" width="200" height="14" rx="7" fill="#81C784" opacity="0.5"/>
  <rect x="150" y="401" width="50" height="14" rx="7" fill="#81C784" opacity="0.3"/>
  <rect x="210" y="401" width="140" height="14" rx="7" fill="#81C784" opacity="0.4"/>
  <rect x="150" y="434" width="170" height="14" rx="7" fill="#81C784" opacity="0.6"/>
  <rect x="150" y="467" width="110" height="14" rx="7" fill="#81C784" opacity="0.35"/>
  <rect x="272" y="467" width="110" height="14" rx="7" fill="#81C784" opacity="0.25"/>
  <rect x="150" y="500" width="230" height="14" rx="7" fill="#81C784" opacity="0.4"/>
  <!-- Question mark on file -->
  <circle cx="270" cy="590" r="40" fill="#1B5E20" opacity="0.6"/>
  <path d="M256 568 Q256 548 270 540 Q290 530 300 548 Q310 566 290 578 Q280 584 278 598" fill="none" stroke="#81C784" stroke-width="14" stroke-linecap="round"/>
  <circle cx="278" cy="614" r="7" fill="#81C784"/>
  <!-- Arrow (forge transform) -->
  <path d="M444 460 L580 460 M550 430 L580 460 L550 490" fill="none" stroke="#FF8F00" stroke-width="28" stroke-linecap="round" stroke-linejoin="round"/>
  <!-- Forge spark on arrow -->
  <circle cx="512" cy="440" r="8" fill="#FFD740"/>
  <circle cx="512" cy="480" r="6" fill="#FFD740" opacity="0.7"/>
  <!-- After: clean card (right) -->
  <rect x="604" y="280" width="300" height="380" rx="20" fill="#143018" stroke="#4CAF50" stroke-width="18"/>
  <!-- Album thumb -->
  <rect x="634" y="316" width="80" height="80" rx="10" fill="#1B5E20"/>
  <rect x="652" y="334" width="14" height="46" rx="5" fill="#4CAF50"/>
  <ellipse cx="645" cy="380" rx="22" ry="16" fill="#4CAF50" transform="rotate(-12,645,380)"/>
  <!-- Clean lines -->
  <rect x="734" y="325" width="140" height="16" rx="8" fill="#4CAF50" opacity="0.9"/>
  <rect x="734" y="352" width="110" height="13" rx="7" fill="#4CAF50" opacity="0.6"/>
  <rect x="734" y="376" width="126" height="13" rx="7" fill="#4CAF50" opacity="0.6"/>
  <!-- More aligned rows -->
  <rect x="634" y="430" width="240" height="14" rx="7" fill="#4CAF50" opacity="0.7"/>
  <rect x="634" y="460" width="200" height="14" rx="7" fill="#4CAF50" opacity="0.55"/>
  <rect x="634" y="490" width="220" height="14" rx="7" fill="#4CAF50" opacity="0.55"/>
  <rect x="634" y="520" width="180" height="14" rx="7" fill="#4CAF50" opacity="0.45"/>
  <!-- Check mark bottom -->
  <path d="M680 600 L714 636 L790 560" fill="none" stroke="#00E676" stroke-width="24" stroke-linecap="round" stroke-linejoin="round"/>
</svg>
