<svg xmlns="http://www.w3.org/2000/svg" viewBox="0 0 1024 1024">
  <rect x="80" y="80" width="864" height="864" rx="180" ry="180" fill="#0A0015"/>
  <!-- 도장 반복 패턴 -->
  <!-- 도장 손잡이 -->
  <rect x="440" y="200" width="144" height="180" rx="20" fill="#6A1B9A"/>
  <rect x="380" y="360" width="264" height="80" rx="14" fill="#6A1B9A"/>
  <rect x="360" y="420" width="304" height="60" rx="10" fill="#CE93D8" opacity="0.8"/>
  <!-- 찍힌 패턴들 -->
  <rect x="200" y="560" width="140" height="140" rx="16" fill="#6A1B9A" opacity="0.7"/>
  <rect x="442" y="560" width="140" height="140" rx="16" fill="#6A1B9A" opacity="0.5"/>
  <rect x="684" y="560" width="140" height="140" rx="16" fill="#6A1B9A" opacity="0.3"/>
  <line x1="218" y1="600" x2="322" y2="600" stroke="#CE93D8" stroke-width="12" stroke-linecap="round"/>
  <line x1="218" y1="630" x2="290" y2="630" stroke="#CE93D8" stroke-width="12" stroke-linecap="round"/>
  <line x1="218" y1="660" x2="310" y2="660" stroke="#CE93D8" stroke-width="12" stroke-linecap="round"/>
  <line x1="460" y1="600" x2="564" y2="600" stroke="#CE93D8" stroke-width="12" stroke-linecap="round" opacity="0.7"/>
  <line x1="460" y1="630" x2="532" y2="630" stroke="#CE93D8" stroke-width="12" stroke-linecap="round" opacity="0.7"/>
  <line x1="702" y1="600" x2="806" y2="600" stroke="#CE93D8" stroke-width="12" stroke-linecap="round" opacity="0.4"/>
</svg>
