<svg xmlns="http://www.w3.org/2000/svg" viewBox="0 0 512 512">
  <defs>
    <linearGradient id="bg" x1="0%" y1="0%" x2="100%" y2="100%">
      <stop offset="0%" stop-color="#E65100"/>
      <stop offset="100%" stop-color="#BF360C"/>
    </linearGradient>
  </defs>
  <rect width="512" height="512" rx="80" fill="url(#bg)"/>
  <!-- 코드 카드 -->
  <rect x="90" y="128" width="260" height="200" rx="14" fill="#1A0A00" fill-opacity="0.7" stroke="#FF8A65" stroke-width="2"/>
  <rect x="90" y="128" width="260" height="26" rx="14" fill="#2D1000"/>
  <rect x="90" y="143" width="260" height="11" fill="#2D1000"/>
  <circle cx="110" cy="141" r="5.5" fill="#FF5F57"/>
  <circle cx="126" cy="141" r="5.5" fill="#FEBC2E"/>
  <circle cx="142" cy="141" r="5.5" fill="#28C840"/>
  <!-- 코드 -->
  <rect x="108" y="172" width="100" height="7" rx="3" fill="#FF8A65"/>
  <rect x="108" y="190" width="140" height="7" rx="3" fill="#FFCCBC" fill-opacity="0.6"/>
  <rect x="108" y="208" width="80" height="7" rx="3" fill="#FFAB91"/>
  <rect x="108" y="226" width="120" height="7" rx="3" fill="#FFCCBC" fill-opacity="0.5"/>
  <rect x="108" y="244" width="90" height="7" rx="3" fill="#FF8A65" fill-opacity="0.6"/>
  <rect x="108" y="262" width="110" height="7" rx="3" fill="#FFCCBC" fill-opacity="0.4"/>
  <!-- PNG 내보내기 화살표 -->
  <path d="M310 228 L380 228" stroke="#FFCCBC" stroke-width="5" stroke-linecap="round"/>
  <path d="M362 210 L382 228 L362 246" stroke="#FFCCBC" stroke-width="5" fill="none" stroke-linecap="round" stroke-linejoin="round"/>
  <!-- PNG 라벨 -->
  <rect x="390" y="200" width="32" height="56" rx="6" fill="#FF5722"/>
  <text x="406" y="232" text-anchor="middle" font-family="Arial" font-size="11" font-weight="bold" fill="#FFFFFF">PNG</text>
</svg>
