<svg xmlns="http://www.w3.org/2000/svg" viewBox="0 0 512 512">
  <defs>
    <linearGradient id="bg" x1="0%" y1="0%" x2="100%" y2="100%">
      <stop offset="0%" stop-color="#1A1A2E"/>
      <stop offset="100%" stop-color="#16213E"/>
    </linearGradient>
  </defs>
  <rect width="512" height="512" rx="80" fill="url(#bg)"/>
  <!-- 코드 에디터 스크린샷 -->
  <rect x="88" y="130" width="336" height="220" rx="14" fill="#0D1117" stroke="#30363D" stroke-width="2"/>
  <!-- 타이틀바 -->
  <rect x="88" y="130" width="336" height="28" rx="14" fill="#161B22"/>
  <rect x="88" y="148" width="336" height="10" fill="#161B22"/>
  <circle cx="110" cy="144" r="6" fill="#FF5F57"/>
  <circle cx="128" cy="144" r="6" fill="#FEBC2E"/>
  <circle cx="146" cy="144" r="6" fill="#28C840"/>
  <!-- 코드 라인 -->
  <rect x="108" y="178" width="90" height="8" rx="3" fill="#79B8FF"/>
  <rect x="204" y="178" width="70" height="8" rx="3" fill="#B392F0"/>
  <rect x="108" y="198" width="120" height="8" rx="3" fill="#3FB950"/>
  <rect x="108" y="218" width="80" height="8" rx="3" fill="#8B949E"/>
  <rect x="108" y="238" width="140" height="8" rx="3" fill="#FDFDFD" fill-opacity="0.5"/>
  <rect x="108" y="258" width="100" height="8" rx="3" fill="#79B8FF"/>
  <rect x="108" y="278" width="60" height="8" rx="3" fill="#8B949E"/>
  <!-- 캡처 프레임 모서리 -->
  <path d="M88 130 L88 110 L108 110" stroke="#58A6FF" stroke-width="4" fill="none" stroke-linecap="round"/>
  <path d="M424 130 L424 110 L404 110" stroke="#58A6FF" stroke-width="4" fill="none" stroke-linecap="round"/>
  <path d="M88 350 L88 370 L108 370" stroke="#58A6FF" stroke-width="4" fill="none" stroke-linecap="round"/>
  <path d="M424 350 L424 370 L404 370" stroke="#58A6FF" stroke-width="4" fill="none" stroke-linecap="round"/>
  <!-- 카메라 아이콘 -->
  <circle cx="388" cy="396" r="28" fill="#1F3A5F"/>
  <rect x="369" y="384" width="38" height="28" rx="7" fill="none" stroke="#58A6FF" stroke-width="2.5"/>
  <circle cx="388" cy="398" r="9" fill="none" stroke="#58A6FF" stroke-width="2.5"/>
  <rect x="381" y="378" width="14" height="8" rx="3" fill="#58A6FF"/>
</svg>
