<svg xmlns="http://www.w3.org/2000/svg" viewBox="0 0 512 512">
  <defs>
    <linearGradient id="bg" x1="0" y1="0" x2="1" y2="1">
      <stop offset="0%" stop-color="#004D40"/>
      <stop offset="100%" stop-color="#00897B"/>
    </linearGradient>
  </defs>
  <rect width="512" height="512" rx="80" fill="url(#bg)"/>
  <!-- Polaroid card - slight tilt -->
  <rect x="144" y="120" width="224" height="280" rx="8" fill="white" transform="rotate(4 256 260)"/>
  <rect x="152" y="128" width="208" height="220" rx="4" fill="#001A14" transform="rotate(4 256 238)"/>
  <!-- Code syntax lines in photo area -->
  <rect x="164" y="144" width="100" height="9" rx="3" fill="#26A69A" opacity="0.8" transform="rotate(4 214 148)"/>
  <rect x="175" y="160" width="80" height="9" rx="3" fill="#80CBC4" opacity="0.7" transform="rotate(4 215 164)"/>
  <rect x="164" y="176" width="110" height="9" rx="3" fill="#26A69A" opacity="0.65" transform="rotate(4 219 180)"/>
  <rect x="175" y="192" width="70" height="9" rx="3" fill="#4DB6AC" opacity="0.7" transform="rotate(4 210 196)"/>
  <rect x="164" y="208" width="90" height="9" rx="3" fill="#80CBC4" opacity="0.6" transform="rotate(4 209 212)"/>
  <rect x="175" y="224" width="100" height="9" rx="3" fill="#26A69A" opacity="0.55" transform="rotate(4 225 228)"/>
  <rect x="164" y="240" width="85" height="9" rx="3" fill="#4DB6AC" opacity="0.5" transform="rotate(4 207 244)"/>
  <!-- Bottom white area with camera icon -->
  <circle cx="262" cy="355" r="18" fill="#26A69A" transform="rotate(4 256 355)"/>
  <circle cx="262" cy="355" r="12" fill="#00695C" transform="rotate(4 256 355)"/>
  <circle cx="262" cy="355" r="5" fill="#80CBC4" transform="rotate(4 256 355)"/>
  <!-- Second polaroid behind (offset) -->
  <rect x="130" y="130" width="224" height="280" rx="8" fill="#E0F2F1" opacity="0.3" transform="rotate(-3 242 270)"/>
</svg>
