<svg xmlns="http://www.w3.org/2000/svg" viewBox="0 0 512 512">
  <defs>
    <linearGradient id="bg" x1="0" y1="0" x2="0" y2="1">
      <stop offset="0%" stop-color="#1e293b"/>
      <stop offset="100%" stop-color="#0f172a"/>
    </linearGradient>
    <linearGradient id="blue" x1="0" y1="0" x2="1" y2="1">
      <stop offset="0%" stop-color="#60a5fa"/>
      <stop offset="100%" stop-color="#3b82f6"/>
    </linearGradient>
  </defs>
  <rect width="512" height="512" rx="80" fill="url(#bg)"/>
  <!-- Three-panel layout -->
  <!-- Left panel: address -->
  <rect x="48" y="80" width="96" height="352" rx="8" fill="#0f172a" stroke="#1e3a5f" stroke-width="1.5"/>
  <rect x="48" y="80" width="96" height="32" rx="8" fill="#1e3a5f"/>
  <rect x="48" y="100" width="96" height="12" fill="#1e3a5f"/>
  <text x="60" y="101" font-family="monospace" font-size="12" fill="#60a5fa" opacity="0.7">ADDR</text>
  <text x="58" y="132" font-family="monospace" font-size="12" fill="#475569">0000</text>
  <text x="58" y="154" font-family="monospace" font-size="12" fill="#475569">0008</text>
  <text x="58" y="176" font-family="monospace" font-size="12" fill="#475569">0010</text>
  <text x="58" y="198" font-family="monospace" font-size="12" fill="#3b82f6" font-weight="bold">0018</text>
  <text x="58" y="220" font-family="monospace" font-size="12" fill="#475569">0020</text>
  <text x="58" y="242" font-family="monospace" font-size="12" fill="#475569">0028</text>
  <text x="58" y="264" font-family="monospace" font-size="12" fill="#475569">0030</text>
  <text x="58" y="286" font-family="monospace" font-size="12" fill="#475569">0038</text>
  <text x="58" y="308" font-family="monospace" font-size="12" fill="#475569">0040</text>
  <text x="58" y="330" font-family="monospace" font-size="12" fill="#475569">0048</text>
  <text x="58" y="352" font-family="monospace" font-size="12" fill="#475569">0050</text>
  <!-- Center panel: hex -->
  <rect x="152" y="80" width="220" height="352" rx="8" fill="#0f172a" stroke="#1e3a5f" stroke-width="1.5"/>
  <rect x="152" y="80" width="220" height="32" rx="8" fill="#1e3a5f"/>
  <rect x="152" y="100" width="220" height="12" fill="#1e3a5f"/>
  <text x="164" y="101" font-family="monospace" font-size="12" fill="#60a5fa" opacity="0.7">HEX</text>
  <text x="160" y="132" font-family="monospace" font-size="12" fill="#64748b">4D 5A 90 00 03 00</text>
  <text x="160" y="154" font-family="monospace" font-size="12" fill="#64748b">04 00 00 00 FF FF</text>
  <text x="160" y="176" font-family="monospace" font-size="12" fill="#64748b">B8 00 00 00 00 00</text>
  <!-- Highlighted row -->
  <rect x="156" y="183" width="212" height="20" rx="3" fill="#3b82f6" opacity="0.2"/>
  <text x="160" y="198" font-family="monospace" font-size="12" fill="#93c5fd" font-weight="bold">40 00 00 00 00 00</text>
  <text x="160" y="220" font-family="monospace" font-size="12" fill="#64748b">00 00 00 00 00 00</text>
  <text x="160" y="242" font-family="monospace" font-size="12" fill="#64748b">00 00 00 00 00 00</text>
  <text x="160" y="264" font-family="monospace" font-size="12" fill="#64748b">00 00 00 00 00 00</text>
  <text x="160" y="286" font-family="monospace" font-size="12" fill="#64748b">E8 00 00 00 0E 1F</text>
  <text x="160" y="308" font-family="monospace" font-size="12" fill="#475569">BA 0E 00 B4 09 CD</text>
  <text x="160" y="330" font-family="monospace" font-size="12" fill="#475569">21 B8 01 4C CD 21</text>
  <text x="160" y="352" font-family="monospace" font-size="12" fill="#475569">54 68 69 73 20 70</text>
  <!-- Right panel: ASCII -->
  <rect x="380" y="80" width="84" height="352" rx="8" fill="#0f172a" stroke="#1e3a5f" stroke-width="1.5"/>
  <rect x="380" y="80" width="84" height="32" rx="8" fill="#1e3a5f"/>
  <rect x="380" y="100" width="84" height="12" fill="#1e3a5f"/>
  <text x="392" y="101" font-family="monospace" font-size="12" fill="#60a5fa" opacity="0.7">ASCII</text>
  <text x="388" y="132" font-family="monospace" font-size="12" fill="#64748b">MZ....</text>
  <text x="388" y="154" font-family="monospace" font-size="12" fill="#64748b">....ÿÿ</text>
  <text x="388" y="176" font-family="monospace" font-size="12" fill="#64748b">¸.....</text>
  <text x="388" y="198" font-family="monospace" font-size="12" fill="#93c5fd">@.....</text>
  <text x="388" y="220" font-family="monospace" font-size="12" fill="#64748b">......</text>
  <text x="388" y="264" font-family="monospace" font-size="12" fill="#64748b">......</text>
  <text x="388" y="286" font-family="monospace" font-size="12" fill="#64748b">è.....</text>
  <text x="388" y="352" font-family="monospace" font-size="12" fill="#60a5fa">This p</text>
  <!-- Status bar -->
  <rect x="48" y="448" width="416" height="32" rx="8" fill="#1e3a5f"/>
  <text x="60" y="468" font-family="monospace" font-size="12" fill="#60a5fa">Row: 3  Col: 0  Sel: 6 bytes  |  sample.exe</text>
</svg>
