<svg xmlns="http://www.w3.org/2000/svg" viewBox="0 0 1024 1024">
  <defs>
    <linearGradient id="lbg2" x1="0%" y1="0%" x2="100%" y2="100%">
      <stop offset="0%" stop-color="#EDE7F6"/>
      <stop offset="100%" stop-color="#9C27B0"/>
    </linearGradient>
  </defs>
  <!-- Layer 1: 배경 -->
  <rect width="1024" height="1024" rx="190" fill="url(#lbg2)"/>
  <!-- Layer 2: 뱃지들 -->
  <!-- en-US 뱃지 (파랑) -->
  <rect x="112" y="220" width="800" height="156" rx="36" fill="#1565C0"/>
  <rect x="112" y="220" width="136" height="156" rx="36" fill="#0D47A1"/>
  <!-- 미국 국기 간략 -->
  <rect x="124" y="236" width="112" height="72" rx="10" fill="#B71C1C"/>
  <rect x="124" y="252" width="112" height="12" fill="white" opacity="0.7"/>
  <rect x="124" y="272" width="112" height="12" fill="white" opacity="0.7"/>
  <rect x="124" y="236" width="56" height="42" rx="6" fill="#0D47A1"/>
  <text x="270" y="312" font-family="'Courier New', monospace" font-size="96" fill="white" font-weight="bold">en-US</text>

  <!-- ja-JP 뱃지 (빨강) -->
  <rect x="112" y="428" width="800" height="156" rx="36" fill="#C62828"/>
  <rect x="112" y="428" width="136" height="156" rx="36" fill="#B71C1C"/>
  <!-- 일본 국기 간략 -->
  <circle cx="180" cy="506" r="52" fill="white"/>
  <circle cx="180" cy="506" r="32" fill="#C62828"/>
  <text x="270" y="520" font-family="'Courier New', monospace" font-size="96" fill="white" font-weight="bold">ja-JP</text>

  <!-- ko-KR 뱃지 (초록) -->
  <rect x="112" y="636" width="800" height="156" rx="36" fill="#1B5E20"/>
  <rect x="112" y="636" width="136" height="156" rx="36" fill="#2E7D32"/>
  <!-- 태극문양 간략 -->
  <circle cx="180" cy="714" r="50" fill="white"/>
  <circle cx="180" cy="714" r="32" fill="#C62828"/>
  <path d="M180 682 A32 32 0 0 1 180 746 A16 16 0 0 0 180 682Z" fill="#1565C0"/>
  <text x="270" y="728" font-family="'Courier New', monospace" font-size="96" fill="white" font-weight="bold">ko-KR</text>

  <!-- Layer 3: 제목 레이블 -->
  <text x="512" y="856" font-family="Arial" font-size="68" fill="white" text-anchor="middle" font-weight="bold" opacity="0.9">CultureInfo</text>
</svg>
