<?xml version="1.0" encoding="UTF-8"?>
<svg xmlns="http://www.w3.org/2000/svg" viewBox="0 0 512 512">
  <defs>
    <linearGradient id="bg" x1="0%" y1="0%" x2="100%" y2="100%">
      <stop offset="0%" stop-color="#0D0D0D"/>
      <stop offset="100%" stop-color="#1A1A1A"/>
    </linearGradient>
  </defs>
  <rect width="512" height="512" rx="80" fill="url(#bg)"/>
  <!-- Diff lines +/- style -->
  <rect x="72" y="110" width="368" height="34" rx="5" fill="#001A00" opacity="0.8"/>
  <text x="90" y="133" fill="#44FF44" font-size="20" font-family="monospace">+ 1,284 additions</text>
  <rect x="72" y="152" width="368" height="34" rx="5" fill="#1A0000" opacity="0.8"/>
  <text x="90" y="175" fill="#FF4444" font-size="20" font-family="monospace">- 392 deletions</text>
  <rect x="72" y="194" width="368" height="34" rx="5" fill="#001A00" opacity="0.8"/>
  <text x="90" y="217" fill="#44FF44" font-size="20" font-family="monospace">+ 47 files changed</text>
  <rect x="72" y="236" width="368" height="34" rx="5" fill="#001A00" opacity="0.7"/>
  <text x="90" y="259" fill="#44FF44" font-size="20" font-family="monospace">+ 12 branches merged</text>
  <rect x="72" y="278" width="368" height="34" rx="5" fill="#0A0A1A" opacity="0.8"/>
  <text x="90" y="301" fill="#8888FF" font-size="20" font-family="monospace">~ 128 commits total</text>
  <!-- Divider -->
  <line x1="72" y1="330" x2="440" y2="330" stroke="#333333" stroke-width="2"/>
  <!-- Stats bar: additions vs deletions -->
  <rect x="72" y="350" width="246" height="20" rx="4" fill="#44FF44" opacity="0.8"/>
  <rect x="318" y="350" width="122" height="20" rx="4" fill="#FF4444" opacity="0.8"/>
  <text x="72" y="395" fill="#888888" font-size="15" font-family="monospace">additions     deletions</text>
  <!-- Git hash label -->
  <rect x="72" y="420" width="368" height="36" rx="6" fill="#1A1A2A"/>
  <text x="90" y="444" fill="#6666FF" font-size="18" font-family="monospace">@ a3f9b2c  HEAD</text>
</svg>
