<?xml version="1.0" encoding="UTF-8"?>
<svg xmlns="http://www.w3.org/2000/svg" viewBox="0 0 512 512">
  <defs>
    <linearGradient id="bg" x1="0%" y1="0%" x2="100%" y2="100%">
      <stop offset="0%" stop-color="#001A00"/>
      <stop offset="100%" stop-color="#003300"/>
    </linearGradient>
    <radialGradient id="glow" cx="50%" cy="50%" r="50%">
      <stop offset="0%" stop-color="#00FF41" stop-opacity="0.3"/>
      <stop offset="100%" stop-color="#00FF41" stop-opacity="0"/>
    </radialGradient>
  </defs>
  <rect width="512" height="512" rx="80" fill="url(#bg)"/>
  <rect width="512" height="512" rx="80" fill="url(#glow)"/>
  <!-- Contribution grid (GitHub style) -->
  <!-- Row 1 -->
  <rect x="72" y="140" width="28" height="28" rx="4" fill="#003300"/>
  <rect x="108" y="140" width="28" height="28" rx="4" fill="#006600"/>
  <rect x="144" y="140" width="28" height="28" rx="4" fill="#00FF41" opacity="0.3"/>
  <rect x="180" y="140" width="28" height="28" rx="4" fill="#00FF41" opacity="0.6"/>
  <rect x="216" y="140" width="28" height="28" rx="4" fill="#00FF41"/>
  <rect x="252" y="140" width="28" height="28" rx="4" fill="#003300"/>
  <rect x="288" y="140" width="28" height="28" rx="4" fill="#006600"/>
  <rect x="324" y="140" width="28" height="28" rx="4" fill="#00FF41" opacity="0.5"/>
  <rect x="360" y="140" width="28" height="28" rx="4" fill="#00FF41"/>
  <rect x="396" y="140" width="28" height="28" rx="4" fill="#00FF41"/>
  <rect x="432" y="140" width="28" height="28" rx="4" fill="#00FF41" opacity="0.8"/>
  <!-- Row 2 -->
  <rect x="72" y="176" width="28" height="28" rx="4" fill="#006600"/>
  <rect x="108" y="176" width="28" height="28" rx="4" fill="#00FF41"/>
  <rect x="144" y="176" width="28" height="28" rx="4" fill="#00FF41" opacity="0.7"/>
  <rect x="180" y="176" width="28" height="28" rx="4" fill="#003300"/>
  <rect x="216" y="176" width="28" height="28" rx="4" fill="#00FF41" opacity="0.4"/>
  <rect x="252" y="176" width="28" height="28" rx="4" fill="#00FF41"/>
  <rect x="288" y="176" width="28" height="28" rx="4" fill="#00FF41"/>
  <rect x="324" y="176" width="28" height="28" rx="4" fill="#006600"/>
  <rect x="360" y="176" width="28" height="28" rx="4" fill="#00FF41" opacity="0.3"/>
  <rect x="396" y="176" width="28" height="28" rx="4" fill="#00FF41" opacity="0.9"/>
  <rect x="432" y="176" width="28" height="28" rx="4" fill="#003300"/>
  <!-- Row 3 -->
  <rect x="72" y="212" width="28" height="28" rx="4" fill="#00FF41" opacity="0.5"/>
  <rect x="108" y="212" width="28" height="28" rx="4" fill="#003300"/>
  <rect x="144" y="212" width="28" height="28" rx="4" fill="#00FF41"/>
  <rect x="180" y="212" width="28" height="28" rx="4" fill="#00FF41"/>
  <rect x="216" y="212" width="28" height="28" rx="4" fill="#006600"/>
  <rect x="252" y="212" width="28" height="28" rx="4" fill="#00FF41" opacity="0.6"/>
  <rect x="288" y="212" width="28" height="28" rx="4" fill="#00FF41" opacity="0.8"/>
  <rect x="324" y="212" width="28" height="28" rx="4" fill="#00FF41"/>
  <rect x="360" y="212" width="28" height="28" rx="4" fill="#003300"/>
  <rect x="396" y="212" width="28" height="28" rx="4" fill="#00FF41" opacity="0.4"/>
  <rect x="432" y="212" width="28" height="28" rx="4" fill="#00FF41"/>
  <!-- Row 4 -->
  <rect x="72" y="248" width="28" height="28" rx="4" fill="#00FF41"/>
  <rect x="108" y="248" width="28" height="28" rx="4" fill="#00FF41" opacity="0.7"/>
  <rect x="144" y="248" width="28" height="28" rx="4" fill="#006600"/>
  <rect x="180" y="248" width="28" height="28" rx="4" fill="#00FF41" opacity="0.3"/>
  <rect x="216" y="248" width="28" height="28" rx="4" fill="#00FF41"/>
  <rect x="252" y="248" width="28" height="28" rx="4" fill="#003300"/>
  <rect x="288" y="248" width="28" height="28" rx="4" fill="#00FF41" opacity="0.5"/>
  <rect x="324" y="248" width="28" height="28" rx="4" fill="#00FF41"/>
  <rect x="360" y="248" width="28" height="28" rx="4" fill="#00FF41" opacity="0.9"/>
  <rect x="396" y="248" width="28" height="28" rx="4" fill="#006600"/>
  <rect x="432" y="248" width="28" height="28" rx="4" fill="#00FF41" opacity="0.6"/>
  <!-- Branch lines bottom -->
  <circle cx="160" cy="370" r="16" fill="none" stroke="#00FF41" stroke-width="4"/>
  <circle cx="256" cy="370" r="16" fill="none" stroke="#00FF41" stroke-width="4"/>
  <circle cx="352" cy="370" r="16" fill="none" stroke="#00FF41" stroke-width="4"/>
  <line x1="176" y1="370" x2="240" y2="370" stroke="#00FF41" stroke-width="3"/>
  <line x1="272" y1="370" x2="336" y2="370" stroke="#00FF41" stroke-width="3"/>
  <path d="M256 354 L256 320 L340 290" fill="none" stroke="#00FF41" stroke-width="3" stroke-dasharray="6,4"/>
</svg>
