<svg xmlns="http://www.w3.org/2000/svg" viewBox="0 0 512 512">
  <defs>
    <linearGradient id="bg" x1="0%" y1="0%" x2="100%" y2="100%">
      <stop offset="0%" stop-color="#1e1b4b"/>
      <stop offset="100%" stop-color="#312e81"/>
    </linearGradient>
    <linearGradient id="shelf" x1="0%" y1="0%" x2="100%" y2="0%">
      <stop offset="0%" stop-color="#818cf8"/>
      <stop offset="100%" stop-color="#c084fc"/>
    </linearGradient>
    <linearGradient id="card1" x1="0%" y1="0%" x2="100%" y2="100%">
      <stop offset="0%" stop-color="#f472b6"/>
      <stop offset="100%" stop-color="#ec4899"/>
    </linearGradient>
    <linearGradient id="card2" x1="0%" y1="0%" x2="100%" y2="100%">
      <stop offset="0%" stop-color="#34d399"/>
      <stop offset="100%" stop-color="#10b981"/>
    </linearGradient>
    <linearGradient id="card3" x1="0%" y1="0%" x2="100%" y2="100%">
      <stop offset="0%" stop-color="#fbbf24"/>
      <stop offset="100%" stop-color="#f59e0b"/>
    </linearGradient>
  </defs>
  <rect width="512" height="512" rx="80" fill="url(#bg)"/>
  <!-- Shelf lines -->
  <rect x="60" y="290" width="392" height="10" rx="5" fill="url(#shelf)" opacity="0.8"/>
  <rect x="60" y="400" width="392" height="10" rx="5" fill="url(#shelf)" opacity="0.6"/>
  <!-- Cards on first shelf -->
  <rect x="80" y="208" width="72" height="80" rx="6" fill="url(#card1)"/>
  <circle cx="116" cy="238" r="14" fill="white" opacity="0.3"/>
  <path d="M80 274 L100 254 L116 266 L132 252 L152 274 Z" fill="white" opacity="0.3"/>
  <rect x="168" y="220" width="72" height="68" rx="6" fill="url(#card2)"/>
  <circle cx="204" cy="248" r="14" fill="white" opacity="0.3"/>
  <rect x="256" y="210" width="72" height="78" rx="6" fill="url(#card3)"/>
  <polygon points="278,236 302,252 278,268" fill="white" opacity="0.5"/>
  <rect x="344" y="216" width="72" height="72" rx="6" fill="url(#card1)" opacity="0.7"/>
  <!-- Cards on second shelf -->
  <rect x="80" y="316" width="60" height="78" rx="6" fill="url(#card3)" opacity="0.8"/>
  <rect x="156" y="316" width="60" height="78" rx="6" fill="url(#card2)" opacity="0.8"/>
  <rect x="232" y="316" width="60" height="78" rx="6" fill="url(#card1)" opacity="0.8"/>
  <rect x="308" y="316" width="60" height="78" rx="6" fill="#818cf8" opacity="0.8"/>
  <rect x="384" y="316" width="60" height="78" rx="6" fill="#c084fc" opacity="0.8"/>
  <!-- Sort indicator -->
  <path d="M240 424 L256 440 L272 424" stroke="url(#shelf)" stroke-width="4" fill="none" stroke-linecap="round"/>
  <line x1="256" y1="424" x2="256" y2="468" stroke="url(#shelf)" stroke-width="4" stroke-linecap="round"/>
</svg>