<svg xmlns="http://www.w3.org/2000/svg" viewBox="0 0 512 512">
  <defs>
    <linearGradient id="bg" x1="0%" y1="0%" x2="100%" y2="100%">
      <stop offset="0%" stop-color="#0A0A1E"/>
      <stop offset="100%" stop-color="#141428"/>
    </linearGradient>
    <radialGradient id="node" cx="50%" cy="50%" r="50%">
      <stop offset="0%" stop-color="#818CF8"/>
      <stop offset="100%" stop-color="#4338CA"/>
    </radialGradient>
  </defs>
  <rect width="512" height="512" rx="80" fill="url(#bg)"/>
  <!-- Connection lines -->
  <line x1="256" y1="256" x2="130" y2="160" stroke="#4338CA" stroke-width="2" opacity="0.6"/>
  <line x1="256" y1="256" x2="380" y2="160" stroke="#4338CA" stroke-width="2" opacity="0.6"/>
  <line x1="256" y1="256" x2="130" y2="350" stroke="#4338CA" stroke-width="2" opacity="0.6"/>
  <line x1="256" y1="256" x2="380" y2="350" stroke="#4338CA" stroke-width="2" opacity="0.6"/>
  <line x1="256" y1="256" x2="256" y2="110" stroke="#6366F1" stroke-width="2" opacity="0.5"/>
  <line x1="130" y1="160" x2="380" y2="160" stroke="#4338CA" stroke-width="1.5" opacity="0.3"/>
  <line x1="130" y1="350" x2="380" y2="350" stroke="#4338CA" stroke-width="1.5" opacity="0.3"/>
  <!-- Nodes -->
  <circle cx="256" cy="256" r="30" fill="url(#node)"/>
  <text x="256" y="262" font-family="monospace" font-size="12" fill="white" text-anchor="middle">API</text>
  <circle cx="130" cy="160" r="22" fill="#4338CA" stroke="#818CF8" stroke-width="2"/>
  <text x="130" y="165" font-family="monospace" font-size="10" fill="white" text-anchor="middle">GET</text>
  <circle cx="380" cy="160" r="22" fill="#D97706" stroke="#FBBF24" stroke-width="2"/>
  <text x="380" y="165" font-family="monospace" font-size="9" fill="white" text-anchor="middle">POST</text>
  <circle cx="130" cy="350" r="22" fill="#DC2626" stroke="#F87171" stroke-width="2"/>
  <text x="130" y="355" font-family="monospace" font-size="9" fill="white" text-anchor="middle">DEL</text>
  <circle cx="380" cy="350" r="22" fill="#2563EB" stroke="#60A5FA" stroke-width="2"/>
  <text x="380" y="355" font-family="monospace" font-size="10" fill="white" text-anchor="middle">PUT</text>
  <circle cx="256" cy="110" r="18" fill="#059669" stroke="#34D399" stroke-width="2"/>
  <text x="256" y="115" font-family="monospace" font-size="9" fill="white" text-anchor="middle">200</text>
</svg>