<svg xmlns="http://www.w3.org/2000/svg" viewBox="0 0 512 512">
  <defs>
    <linearGradient id="bg" x1="0%" y1="0%" x2="100%" y2="100%">
      <stop offset="0%" stop-color="#0F1923"/>
      <stop offset="100%" stop-color="#1A2535"/>
    </linearGradient>
  </defs>
  <rect width="512" height="512" rx="80" fill="url(#bg)"/>
  <!-- Clipboard -->
  <rect x="100" y="90" width="312" height="380" rx="12" fill="#1E2D3D" stroke="#2D4A5E" stroke-width="2"/>
  <rect x="190" y="80" width="132" height="28" rx="6" fill="#2D4A5E"/>
  <!-- Title -->
  <text x="256" y="140" font-family="monospace" font-weight="bold" font-size="18" fill="#60A5FA" text-anchor="middle">API Endpoints</text>
  <line x1="120" y1="155" x2="392" y2="155" stroke="#2D4A5E" stroke-width="1"/>
  <!-- Status items -->
  <!-- 200 OK -->
  <circle cx="135" cy="185" r="10" fill="#059669"/>
  <text x="152" y="189" font-family="monospace" font-size="9" fill="white">✓</text>
  <text x="152" y="192" font-family="monospace" font-size="14" fill="#34D399">/users</text>
  <rect x="340" y="175" width="50" height="20" rx="4" fill="#059669"/>
  <text x="365" y="190" font-family="monospace" font-size="10" fill="white" text-anchor="middle">200</text>
  <!-- 201 Created -->
  <circle cx="135" cy="225" r="10" fill="#059669"/>
  <text x="152" y="232" font-family="monospace" font-size="14" fill="#34D399">/create</text>
  <rect x="340" y="215" width="50" height="20" rx="4" fill="#0D9488"/>
  <text x="365" y="230" font-family="monospace" font-size="10" fill="white" text-anchor="middle">201</text>
  <!-- 404 -->
  <circle cx="135" cy="265" r="10" fill="#DC2626"/>
  <text x="152" y="272" font-family="monospace" font-size="14" fill="#F87171">/old-ep</text>
  <rect x="340" y="255" width="50" height="20" rx="4" fill="#DC2626"/>
  <text x="365" y="270" font-family="monospace" font-size="10" fill="white" text-anchor="middle">404</text>
  <!-- 401 -->
  <circle cx="135" cy="305" r="10" fill="#D97706"/>
  <text x="152" y="312" font-family="monospace" font-size="14" fill="#FBBF24">/secure</text>
  <rect x="340" y="295" width="50" height="20" rx="4" fill="#D97706"/>
  <text x="365" y="310" font-family="monospace" font-size="10" fill="white" text-anchor="middle">401</text>
  <!-- 500 -->
  <circle cx="135" cy="345" r="10" fill="#7C3AED"/>
  <text x="152" y="352" font-family="monospace" font-size="14" fill="#A78BFA">/data</text>
  <rect x="340" y="335" width="50" height="20" rx="4" fill="#7C3AED"/>
  <text x="365" y="350" font-family="monospace" font-size="10" fill="white" text-anchor="middle">500</text>
  <!-- Footer -->
  <line x1="120" y1="390" x2="392" y2="390" stroke="#2D4A5E" stroke-width="1"/>
  <text x="256" y="420" font-family="monospace" font-size="12" fill="#555" text-anchor="middle">5 endpoints tested</text>
  <text x="256" y="460" font-family="monospace" font-weight="bold" font-size="20" fill="#60A5FA" text-anchor="middle">Api.Probe</text>
</svg>