<svg xmlns="http://www.w3.org/2000/svg" viewBox="0 0 1024 1024">
  <rect x="80" y="80" width="864" height="864" rx="180" fill="#050A00"/>
  <!-- Telegraph key base -->
  <rect x="220" y="600" width="400" height="40" rx="10" fill="#F57F17" fill-opacity="0.8"/>
  <!-- Key lever -->
  <rect x="280" y="540" width="280" height="30" rx="10" fill="#FFD54F"/>
  <circle cx="280" cy="555" r="20" fill="#F57F17"/>
  <!-- Signal spark -->
  <path d="M580 555 L640 490 L680 530 L720 440 L760 510" fill="none" stroke="#FFD54F" stroke-width="20" stroke-linecap="round" stroke-linejoin="round"/>
  <!-- Dots/dashes above - SOS -->
  <circle cx="240" cy="350" r="28" fill="#F57F17"/>
  <circle cx="320" cy="350" r="28" fill="#F57F17"/>
  <circle cx="400" cy="350" r="28" fill="#F57F17"/>
  <rect x="460" y="324" width="120" height="52" rx="26" fill="#FFD54F"/>
  <rect x="610" y="324" width="120" height="52" rx="26" fill="#FFD54F"/>
  <rect x="760" y="324" width="120" height="52" rx="26" fill="#FFD54F"/>
  <!-- Running legs -->
  <line x1="460" y1="760" x2="420" y2="870" stroke="#FFD54F" stroke-width="24" stroke-linecap="round"/>
  <line x1="460" y1="760" x2="520" y2="860" stroke="#F57F17" stroke-width="24" stroke-linecap="round"/>
</svg>