<svg xmlns="http://www.w3.org/2000/svg" viewBox="0 0 1024 1024">
  <rect x="80" y="80" width="864" height="864" rx="180" fill="#050A00"/>
  <!-- Antenna tower -->
  <line x1="512" y1="200" x2="512" y2="560" stroke="#F57F17" stroke-width="24" stroke-linecap="round"/>
  <line x1="512" y1="300" x2="380" y2="420" stroke="#F57F17" stroke-width="18"/>
  <line x1="512" y1="300" x2="644" y2="420" stroke="#F57F17" stroke-width="18"/>
  <line x1="512" y1="420" x2="420" y2="500" stroke="#F57F17" stroke-width="14"/>
  <line x1="512" y1="420" x2="604" y2="500" stroke="#F57F17" stroke-width="14"/>
  <!-- Signal waves -->
  <path d="M340 230 Q280 270 340 310" fill="none" stroke="#FFD54F" stroke-width="18" stroke-linecap="round"/>
  <path d="M280 200 Q180 260 280 330" fill="none" stroke="#FFD54F" stroke-width="14" stroke-linecap="round" stroke-opacity="0.6"/>
  <path d="M684 230 Q744 270 684 310" fill="none" stroke="#FFD54F" stroke-width="18" stroke-linecap="round"/>
  <path d="M744 200 Q844 260 744 330" fill="none" stroke="#FFD54F" stroke-width="14" stroke-linecap="round" stroke-opacity="0.6"/>
  <!-- Feet/running -->
  <ellipse cx="420" cy="800" rx="50" ry="22" fill="#F57F17" fill-opacity="0.7"/>
  <ellipse cx="600" cy="820" rx="50" ry="22" fill="#F57F17" fill-opacity="0.5"/>
  <rect x="400" y="640" width="24" height="160" rx="10" fill="#FFD54F" transform="rotate(-15,412,720)"/>
  <rect x="580" y="640" width="24" height="160" rx="10" fill="#FFD54F" transform="rotate(10,592,720)"/>
</svg>