<svg xmlns="http://www.w3.org/2000/svg" viewBox="0 0 1024 1024">
  <rect x="80" y="80" width="864" height="864" rx="180" fill="#050A05"/>
  <!-- 눈+시스템: eye with system circuit inside iris -->
  <!-- Eye outline -->
  <path d="M180 512 Q360 280 512 280 Q664 280 844 512 Q664 744 512 744 Q360 744 180 512 Z" fill="none" stroke="#2E7D32" stroke-width="36"/>
  <!-- Eye iris outer -->
  <circle cx="512" cy="512" r="160" fill="#2E7D32"/>
  <!-- Eye iris inner -->
  <circle cx="512" cy="512" r="120" fill="#050A05"/>
  <!-- Circuit pattern in iris -->
  <circle cx="512" cy="512" r="80" fill="none" stroke="#81C784" stroke-width="6"/>
  <line x1="432" y1="512" x2="592" y2="512" stroke="#81C784" stroke-width="5"/>
  <line x1="512" y1="432" x2="512" y2="592" stroke="#81C784" stroke-width="5"/>
  <circle cx="462" cy="462" r="12" fill="#81C784"/>
  <circle cx="562" cy="462" r="12" fill="#81C784"/>
  <circle cx="462" cy="562" r="12" fill="#81C784"/>
  <circle cx="562" cy="562" r="12" fill="#81C784"/>
  <!-- Pupil -->
  <circle cx="512" cy="512" r="36" fill="#2E7D32"/>
  <circle cx="512" cy="512" r="20" fill="#81C784"/>
  <!-- Eye shine -->
  <circle cx="476" cy="480" r="16" fill="#81C784" opacity="0.5"/>
</svg>