<svg xmlns="http://www.w3.org/2000/svg" viewBox="0 0 1024 1024">
  <rect width="1024" height="1024" rx="180" fill="#0A0005"/>
  <!-- Pixel blocks forming an image shape -->
  <defs>
    <pattern id="px" x="0" y="0" width="80" height="80" patternUnits="userSpaceOnUse">
      <rect width="76" height="76" rx="4" fill="#880E4F" opacity="0.4"/>
    </pattern>
  </defs>
  <rect x="162" y="162" width="700" height="700" rx="12" fill="url(#px)"/>
  <!-- Center accent pixels forming a bold pattern -->
  <rect x="242" y="242" width="156" height="156" rx="8" fill="#F48FB1" opacity="0.85"/>
  <rect x="418" y="242" width="76" height="76" rx="6" fill="#880E4F" opacity="0.9"/>
  <rect x="514" y="242" width="156" height="156" rx="8" fill="#F48FB1" opacity="0.85"/>
  <rect x="690" y="242" width="76" height="76" rx="6" fill="#880E4F" opacity="0.9"/>

  <rect x="242" y="418" width="76" height="76" rx="6" fill="#880E4F" opacity="0.9"/>
  <rect x="338" y="418" width="76" height="156" rx="6" fill="#F48FB1" opacity="0.8"/>
  <rect x="434" y="418" width="156" height="76" rx="6" fill="#880E4F" opacity="0.85"/>
  <rect x="610" y="418" width="76" height="76" rx="6" fill="#F48FB1" opacity="0.8"/>
  <rect x="706" y="418" width="76" height="156" rx="6" fill="#880E4F" opacity="0.9"/>

  <rect x="242" y="594" width="156" height="76" rx="6" fill="#F48FB1" opacity="0.85"/>
  <rect x="418" y="594" width="76" height="76" rx="6" fill="#880E4F" opacity="0.9"/>
  <rect x="514" y="594" width="76" height="156" rx="6" fill="#F48FB1" opacity="0.8"/>
  <rect x="610" y="594" width="76" height="76" rx="6" fill="#880E4F" opacity="0.85"/>

  <rect x="242" y="690" width="76" height="76" rx="6" fill="#880E4F" opacity="0.9"/>
  <rect x="418" y="690" width="156" height="76" rx="6" fill="#F48FB1" opacity="0.85"/>
  <rect x="610" y="690" width="156" height="76" rx="6" fill="#880E4F" opacity="0.9"/>
</svg>
