<svg xmlns="http://www.w3.org/2000/svg" viewBox="0 0 1024 1024">
<rect x="80" y="80" width="864" height="864" rx="180" ry="180" fill="#030A03"/>
<!-- 컨셉: 도로 표지판 방향 -->
<!-- 도로 (세로) -->
<rect x="440" y="180" width="144" height="664" rx="8" fill="#1A2A1A"/>
<line x1="512" y1="180" x2="512" y2="844" stroke="#66BB6A" stroke-width="16" stroke-linecap="round" stroke-dasharray="20 16" opacity="0.5"/>
<!-- 왼쪽 방향판 -->
<path d="M 200 380 L 420 380 L 420 480 L 200 480 L 160 430 Z" fill="#2E7D32"/>
<line x1="360" y1="400" x2="280" y2="400" stroke="#66BB6A" stroke-width="18" stroke-linecap="round"/>
<path d="M 304 378 L 272 400 L 304 422" fill="none" stroke="#66BB6A" stroke-width="18" stroke-linecap="round" stroke-linejoin="round"/>
<!-- 오른쪽 방향판 -->
<path d="M 604 560 L 824 560 L 864 608 L 824 656 L 604 656 Z" fill="#66BB6A" opacity="0.8"/>
<line x1="664" y1="608" x2="744" y2="608" stroke="#030A03" stroke-width="18" stroke-linecap="round"/>
<path d="M 720 582 L 752 608 L 720 634" fill="none" stroke="#030A03" stroke-width="18" stroke-linecap="round" stroke-linejoin="round"/>
<!-- 지지대 -->
<line x1="512" y1="844" x2="512" y2="930" stroke="#2E7D32" stroke-width="28" stroke-linecap="round"/>
<rect x="380" y="920" width="264" height="32" rx="16" fill="#2E7D32"/>
</svg>
