<svg xmlns="http://www.w3.org/2000/svg" viewBox="0 0 1024 1024">
  <defs>
    <linearGradient id="bg14i" x1="0%" y1="0%" x2="0%" y2="100%">
      <stop offset="0%" stop-color="#1565C0"/>
      <stop offset="100%" stop-color="#0D47A1"/>
    </linearGradient>
  </defs>
  <!-- Layer 1: 배경 -->
  <rect width="1024" height="1024" rx="190" fill="url(#bg14i)"/>
  <!-- Layer 2: 배치 변환 장면 -->
  <!-- 왼쪽 파일들 (변환 전) -->
  <!-- 파일 1 -->
  <rect x="220" y="280" width="130" height="110" rx="12" fill="#546E7A"/>
  <text x="285" y="347" text-anchor="middle" font-family="Arial Black" font-size="52" fill="#B0BEC5">SVG</text>
  <!-- 파일 2 -->
  <rect x="220" y="416" width="130" height="110" rx="12" fill="#1B5E20"/>
  <text x="285" y="483" text-anchor="middle" font-family="Arial Black" font-size="52" fill="#69F0AE">SVG</text>
  <!-- 파일 3 -->
  <rect x="220" y="552" width="130" height="110" rx="12" fill="#4A148C"/>
  <text x="285" y="619" text-anchor="middle" font-family="Arial Black" font-size="52" fill="#EA80FC">PNG</text>
  <!-- 파일 4 -->
  <rect x="220" y="688" width="130" height="110" rx="12" fill="#0D47A1"/>
  <text x="285" y="755" text-anchor="middle" font-family="Arial Black" font-size="52" fill="#82B1FF">JPG</text>
  <!-- 중앙 화살표들 -->
  <path d="M356,335 L510,335" fill="none" stroke="white" stroke-width="16" stroke-linecap="round"/>
  <path d="M356,471 L510,471" fill="none" stroke="white" stroke-width="16" stroke-linecap="round"/>
  <path d="M356,607 L510,607" fill="none" stroke="white" stroke-width="16" stroke-linecap="round"/>
  <path d="M356,743 L510,743" fill="none" stroke="white" stroke-width="16" stroke-linecap="round"/>
  <polygon points="516,335 492,318 492,352" fill="white"/>
  <polygon points="516,471 492,454 492,488" fill="white"/>
  <polygon points="516,607 492,590 492,624" fill="white"/>
  <polygon points="516,743 492,726 492,760" fill="white"/>
  <!-- 오른쪽 파일들 (변환 완료 ICO) -->
  <rect x="524" y="280" width="130" height="110" rx="12" fill="#E65100"/>
  <text x="589" y="347" text-anchor="middle" font-family="Arial Black" font-size="52" fill="white">ICO</text>
  <text x="680" y="347" text-anchor="middle" font-size="52">✓</text>
  <rect x="524" y="416" width="130" height="110" rx="12" fill="#E65100"/>
  <text x="589" y="483" text-anchor="middle" font-family="Arial Black" font-size="52" fill="white">ICO</text>
  <text x="680" y="483" text-anchor="middle" font-size="52">✓</text>
  <rect x="524" y="552" width="130" height="110" rx="12" fill="#E65100"/>
  <text x="589" y="619" text-anchor="middle" font-family="Arial Black" font-size="52" fill="white">ICO</text>
  <text x="680" y="619" text-anchor="middle" font-size="52">✓</text>
  <rect x="524" y="688" width="130" height="110" rx="12" fill="#E65100"/>
  <text x="589" y="755" text-anchor="middle" font-family="Arial Black" font-size="52" fill="white">ICO</text>
  <text x="680" y="755" text-anchor="middle" font-size="52">✓</text>
  <!-- Layer 3: 체크 레이블 -->
  <text x="720" y="540" text-anchor="middle" font-family="Arial Black" font-size="68" font-weight="900" fill="#00E676">4</text>
  <text x="720" y="620" text-anchor="middle" font-family="Arial Black" font-size="56" font-weight="900" fill="#00E676">Done</text>
</svg>