<svg xmlns="http://www.w3.org/2000/svg" viewBox="0 0 1024 1024">
  <defs>
    <linearGradient id="bg06i" x1="0%" y1="0%" x2="100%" y2="100%">
      <stop offset="0%" stop-color="#4527A0"/>
      <stop offset="100%" stop-color="#7B1FA2"/>
    </linearGradient>
  </defs>
  <!-- Layer 1: 배경 -->
  <rect width="1024" height="1024" rx="190" fill="url(#bg06i)"/>
  <!-- Layer 2: 마법봉 변환 -->
  <!-- 왼쪽 SVG 파일 (회색, 변환 전) -->
  <rect x="220" y="420" width="150" height="180" rx="14" fill="#546E7A"/>
  <polygon points="370,420 370,480 310,420" fill="#455A64"/>
  <text x="295" y="525" text-anchor="middle" font-family="Arial Black" font-size="56" fill="#B0BEC5">SVG</text>
  <rect x="238" y="546" width="112" height="8" rx="4" fill="#455A64"/>
  <rect x="238" y="562" width="80" height="8" rx="4" fill="#455A64"/>
  <!-- 마법봉 -->
  <rect x="450" y="330" width="18" height="360" rx="9" fill="#FFD600" transform="rotate(-25,459,510)"/>
  <!-- 지팡이 끝 별 -->
  <polygon points="395,240 412,292 466,292 422,324 438,376 395,343 352,376 368,324 324,292 378,292" fill="#FFD600"/>
  <circle cx="395" cy="310" r="24" fill="#FFD600" opacity="0.4"/>
  <!-- 스파크들 -->
  <text x="490" y="340" font-size="52" fill="#FFD600">✦</text>
  <text x="530" y="420" font-size="44" fill="#FFE082">✨</text>
  <text x="570" y="380" font-size="40" fill="#FFD600">⭐</text>
  <!-- 오른쪽 ICO 파일 (빛나는, 변환 후) -->
  <rect x="660" y="390" width="160" height="200" rx="14" fill="#E65100"/>
  <polygon points="820,390 820,460 750,390" fill="#BF360C"/>
  <text x="740" y="508" text-anchor="middle" font-family="Arial Black" font-size="64" fill="white">ICO</text>
  <rect x="678" y="530" width="122" height="8" rx="4" fill="#FF8A50"/>
  <rect x="678" y="548" width="90" height="8" rx="4" fill="#FF8A50"/>
  <!-- ICO 글로우 -->
  <rect x="654" y="384" width="172" height="212" rx="18" fill="none" stroke="#FFD600" stroke-width="6"/>
  <!-- Layer 3: 화살표 방향 -->
  <path d="M376,505 L655,500" fill="none" stroke="#FFD600" stroke-width="8" stroke-dasharray="20,12"/>
</svg>