<svg xmlns="http://www.w3.org/2000/svg" viewBox="0 0 1024 1024">
  <defs>
    <linearGradient id="bg9" x1="0%" y1="0%" x2="100%" y2="100%">
      <stop offset="0%" stop-color="#001A0A"/>
      <stop offset="100%" stop-color="#003318"/>
    </linearGradient>
    <linearGradient id="scanLine" x1="0%" y1="0%" x2="100%" y2="0%">
      <stop offset="0%" stop-color="#00FF88" stop-opacity="0"/>
      <stop offset="30%" stop-color="#00FF88" stop-opacity="0.8"/>
      <stop offset="50%" stop-color="#00FFAA" stop-opacity="1"/>
      <stop offset="70%" stop-color="#00FF88" stop-opacity="0.8"/>
      <stop offset="100%" stop-color="#00FF88" stop-opacity="0"/>
    </linearGradient>
  </defs>

  <!-- 배경 -->
  <rect width="1024" height="1024" rx="150" fill="url(#bg9)"/>

  <!-- 왼쪽 (이미지 영역): 컬러 사각형들 = 픽셀 -->
  <rect x="80" y="160" width="420" height="420" rx="8" fill="#0A2010"/>
  <!-- 컬러 픽셀 격자 (간소화) -->
  <rect x="88" y="168" width="46" height="46" rx="2" fill="#FF6B35"/>
  <rect x="138" y="168" width="46" height="46" rx="2" fill="#FFD93D"/>
  <rect x="188" y="168" width="46" height="46" rx="2" fill="#6BCB77"/>
  <rect x="238" y="168" width="46" height="46" rx="2" fill="#4D96FF"/>
  <rect x="288" y="168" width="46" height="46" rx="2" fill="#FF6B97"/>
  <rect x="338" y="168" width="46" height="46" rx="2" fill="#A29BFE"/>
  <rect x="388" y="168" width="46" height="46" rx="2" fill="#FF7675"/>
  <rect x="438" y="168" width="46" height="46" rx="2" fill="#FDCB6E"/>

  <rect x="88" y="218" width="46" height="46" rx="2" fill="#E17055"/>
  <rect x="138" y="218" width="46" height="46" rx="2" fill="#00CEC9"/>
  <rect x="188" y="218" width="46" height="46" rx="2" fill="#6C5CE7"/>
  <rect x="238" y="218" width="46" height="46" rx="2" fill="#FD79A8"/>
  <rect x="288" y="218" width="46" height="46" rx="2" fill="#55EFC4"/>
  <rect x="338" y="218" width="46" height="46" rx="2" fill="#FDCB6E"/>
  <rect x="388" y="218" width="46" height="46" rx="2" fill="#74B9FF"/>
  <rect x="438" y="218" width="46" height="46" rx="2" fill="#A29BFE"/>

  <rect x="88" y="268" width="46" height="46" rx="2" fill="#FFD93D"/>
  <rect x="138" y="268" width="46" height="46" rx="2" fill="#FF7675"/>
  <rect x="188" y="268" width="46" height="46" rx="2" fill="#FDCB6E"/>
  <rect x="238" y="268" width="46" height="46" rx="2" fill="#6BCB77"/>
  <rect x="288" y="268" width="46" height="46" rx="2" fill="#4D96FF"/>
  <rect x="338" y="268" width="46" height="46" rx="2" fill="#E17055"/>
  <rect x="388" y="268" width="46" height="46" rx="2" fill="#00CEC9"/>
  <rect x="438" y="268" width="46" height="46" rx="2" fill="#FF6B35"/>

  <rect x="88" y="318" width="46" height="46" rx="2" fill="#6C5CE7"/>
  <rect x="138" y="318" width="46" height="46" rx="2" fill="#55EFC4"/>
  <rect x="188" y="318" width="46" height="46" rx="2" fill="#FD79A8"/>
  <rect x="238" y="318" width="46" height="46" rx="2" fill="#FF6B97"/>
  <rect x="288" y="318" width="46" height="46" rx="2" fill="#A29BFE"/>
  <rect x="338" y="318" width="46" height="46" rx="2" fill="#FFD93D"/>
  <rect x="388" y="318" width="46" height="46" rx="2" fill="#74B9FF"/>
  <rect x="438" y="318" width="46" height="46" rx="2" fill="#6BCB77"/>

  <rect x="88" y="368" width="46" height="46" rx="2" fill="#FF6B35"/>
  <rect x="138" y="368" width="46" height="46" rx="2" fill="#4D96FF"/>
  <rect x="188" y="368" width="46" height="46" rx="2" fill="#E17055"/>
  <rect x="238" y="368" width="46" height="46" rx="2" fill="#FDCB6E"/>
  <rect x="288" y="368" width="46" height="46" rx="2" fill="#00CEC9"/>
  <rect x="338" y="368" width="46" height="46" rx="2" fill="#FD79A8"/>
  <rect x="388" y="368" width="46" height="46" rx="2" fill="#6C5CE7"/>
  <rect x="438" y="368" width="46" height="46" rx="2" fill="#FF7675"/>

  <rect x="88" y="418" width="46" height="46" rx="2" fill="#55EFC4"/>
  <rect x="138" y="418" width="46" height="46" rx="2" fill="#A29BFE"/>
  <rect x="188" y="418" width="46" height="46" rx="2" fill="#FFD93D"/>
  <rect x="238" y="418" width="46" height="46" rx="2" fill="#6BCB77"/>
  <rect x="288" y="418" width="46" height="46" rx="2" fill="#FF6B97"/>
  <rect x="338" y="418" width="46" height="46" rx="2" fill="#74B9FF"/>
  <rect x="388" y="418" width="46" height="46" rx="2" fill="#FF6B35"/>
  <rect x="438" y="418" width="46" height="46" rx="2" fill="#FDCB6E"/>

  <rect x="88" y="468" width="46" height="46" rx="2" fill="#4D96FF"/>
  <rect x="138" y="468" width="46" height="46" rx="2" fill="#FD79A8"/>
  <rect x="188" y="468" width="46" height="46" rx="2" fill="#00CEC9"/>
  <rect x="238" y="468" width="46" height="46" rx="2" fill="#E17055"/>
  <rect x="288" y="468" width="46" height="46" rx="2" fill="#A29BFE"/>
  <rect x="338" y="468" width="46" height="46" rx="2" fill="#55EFC4"/>
  <rect x="388" y="468" width="46" height="46" rx="2" fill="#FFD93D"/>
  <rect x="438" y="468" width="46" height="46" rx="2" fill="#6C5CE7"/>

  <rect x="88" y="518" width="46" height="46" rx="2" fill="#FF7675"/>
  <rect x="138" y="518" width="46" height="46" rx="2" fill="#6BCB77"/>
  <rect x="188" y="518" width="46" height="46" rx="2" fill="#FDCB6E"/>
  <rect x="238" y="518" width="46" height="46" rx="2" fill="#74B9FF"/>
  <rect x="288" y="518" width="46" height="46" rx="2" fill="#FF6B35"/>
  <rect x="338" y="518" width="46" height="46" rx="2" fill="#FD79A8"/>
  <rect x="388" y="518" width="46" height="46" rx="2" fill="#6C5CE7"/>
  <rect x="438" y="518" width="46" height="46" rx="2" fill="#00CEC9"/>

  <!-- 스캔 라인 (대각선으로 처리 중) -->
  <line x1="80" y1="370" x2="500" y2="370" stroke="url(#scanLine)" stroke-width="3" opacity="0.9"/>

  <!-- 오른쪽 (ASCII 출력 영역) -->
  <rect x="524" y="160" width="420" height="420" rx="8" fill="#0A2010"/>
  <!-- ASCII 문자들 -->
  <text x="530" y="208" font-family="Consolas,monospace" font-size="16" fill="#00FF88">@ # % @ # @ @ %</text>
  <text x="530" y="228" font-family="Consolas,monospace" font-size="16" fill="#00EE77"># @ @ # @ % # @</text>
  <text x="530" y="248" font-family="Consolas,monospace" font-size="16" fill="#00DD66">% @ # @ @ @ # %</text>
  <text x="530" y="268" font-family="Consolas,monospace" font-size="16" fill="#00CC55">@ # @ % # @ @ #</text>
  <text x="530" y="288" font-family="Consolas,monospace" font-size="16" fill="#00BB44">@ @ % @ # @ % @</text>
  <text x="530" y="308" font-family="Consolas,monospace" font-size="16" fill="#00AA33">% # @ @ @ # @ @</text>
  <!-- 스캔 위치: 절반 변환됨 -->
  <text x="530" y="328" font-family="Consolas,monospace" font-size="16" fill="#00FF88">* ; @ # % * @ #</text>
  <!-- 스캔 라인 -->
  <line x1="524" y1="370" x2="944" y2="370" stroke="url(#scanLine)" stroke-width="3" opacity="0.9"/>
  <!-- 아래는 아직 미변환 (흐릿) -->
  <text x="530" y="388" font-family="Consolas,monospace" font-size="16" fill="#00FF88" opacity="0.3">. . . . . . . .</text>
  <text x="530" y="408" font-family="Consolas,monospace" font-size="16" fill="#00FF88" opacity="0.2">. . . . . . . .</text>
  <text x="530" y="428" font-family="Consolas,monospace" font-size="16" fill="#00FF88" opacity="0.15">. . . . . . . .</text>
  <text x="530" y="448" font-family="Consolas,monospace" font-size="16" fill="#00FF88" opacity="0.1">. . . . . . . .</text>
  <text x="530" y="468" font-family="Consolas,monospace" font-size="16" fill="#00FF88" opacity="0.08">. . . . . . . .</text>
  <text x="530" y="488" font-family="Consolas,monospace" font-size="16" fill="#00FF88" opacity="0.05">. . . . . . . .</text>

  <!-- 스캔 진행 표시 -->
  <text x="512" y="640" font-family="Consolas,monospace" font-size="26" fill="#00FF88" text-anchor="middle">▓▓▓▓▓▓▓░░░░░</text>
  <text x="512" y="678" font-family="Consolas,monospace" font-size="18" fill="#00AA44" text-anchor="middle" opacity="0.7">converting... 58%</text>

  <!-- 타이틀 -->
  <text x="512" y="780" font-family="Consolas,monospace" font-size="32" fill="#00FF88" text-anchor="middle" font-weight="bold">SCAN &amp; CONVERT</text>
  <text x="512" y="820" font-family="Consolas,monospace" font-size="20" fill="#00AA44" text-anchor="middle" opacity="0.7">pixel by pixel → char by char</text>
</svg>
