<svg xmlns="http://www.w3.org/2000/svg" viewBox="0 0 512 512">
  <defs>
    <linearGradient id="bg" x1="0%" y1="0%" x2="100%" y2="100%">
      <stop offset="0%" stop-color="#4E342E"/>
      <stop offset="100%" stop-color="#5D4037"/>
    </linearGradient>
    <linearGradient id="folder" x1="0%" y1="0%" x2="0%" y2="100%">
      <stop offset="0%" stop-color="#FFCA28"/>
      <stop offset="100%" stop-color="#FF8F00"/>
    </linearGradient>
    <linearGradient id="arrow" x1="0%" y1="100%" x2="0%" y2="0%">
      <stop offset="0%" stop-color="#80D8FF"/>
      <stop offset="100%" stop-color="#40C4FF"/>
    </linearGradient>
  </defs>
  <rect width="512" height="512" rx="80" fill="url(#bg)"/>
  <!-- Open folder -->
  <path d="M90 240 L90 390 Q90 410 110 410 L402 410 Q422 410 422 390 L422 200 Q422 180 402 180 L240 180 L215 155 Q210 145 198 145 L110 145 Q90 145 90 165 Z" fill="url(#folder)"/>
  <!-- Folder lip -->
  <path d="M90 240 L422 240 L422 200 Q422 180 402 180 L240 180 L215 155 Q210 145 198 145 L110 145 Q90 145 90 165 L90 240 Z" fill="#FFD54F"/>
  <!-- Upload arrow -->
  <polygon points="256,210 230,250 246,250 246,310 266,310 266,250 282,250" fill="url(#arrow)"/>
  <!-- Files inside -->
  <rect x="130" y="330" width="55" height="60" rx="6" fill="rgba(255,255,255,0.2)"/>
  <rect x="200" y="330" width="55" height="60" rx="6" fill="rgba(255,255,255,0.2)"/>
  <rect x="330" y="330" width="55" height="60" rx="6" fill="rgba(255,255,255,0.2)"/>
  <!-- Network icon -->
  <circle cx="380" cy="160" r="40" fill="#FF8F00" stroke="#FFCA28" stroke-width="3"/>
  <path d="M360 165 Q380 145 400 165" stroke="white" stroke-width="4" fill="none" stroke-linecap="round"/>
  <path d="M368 175 Q380 162 392 175" stroke="white" stroke-width="3" fill="none" stroke-linecap="round"/>
  <circle cx="380" cy="183" r="5" fill="white"/>
</svg>
