<svg xmlns="http://www.w3.org/2000/svg" viewBox="0 0 1024 1024">
  <defs>
    <linearGradient id="wand9" x1="0%" y1="0%" x2="100%" y2="100%">
      <stop offset="0%" stop-color="#F57F17"/>
      <stop offset="100%" stop-color="#FFD600"/>
    </linearGradient>
  </defs>
  <!-- Layer 1: Background -->
  <rect width="1024" height="1024" rx="180" fill="url(#wand9)"/>
  <!-- Layer 2: Magic wand (diagonal) -->
  <rect x="160" y="700" width="600" height="48" rx="24" fill="#1A1A2E" transform="rotate(-45,460,724)"/>
  <!-- Wand tip sparkles -->
  <polygon points="700,180 720,240 780,240 732,276 752,336 700,300 648,336 668,276 620,240 680,240" fill="white" transform="scale(0.5) translate(710,60)"/>
  <polygon points="780,300 795,340 835,340 804,364 818,404 780,380 742,404 756,364 725,340 765,340" fill="white" opacity="0.8" transform="scale(0.4) translate(560,200)"/>
  <polygon points="640,400 652,432 684,432 659,450 669,482 640,464 611,482 621,450 596,432 628,432" fill="white" opacity="0.6" transform="scale(0.35) translate(880,420)"/>
  <!-- Layer 3: Text lines (scattered) -->
  <rect x="620" y="500" width="120" height="12" rx="6" fill="#7C4DFF" opacity="0.8" transform="rotate(-10,680,506)"/>
  <rect x="680" y="560" width="100" height="12" rx="6" fill="#7C4DFF" opacity="0.6" transform="rotate(5,730,566)"/>
  <rect x="560" y="580" width="80" height="12" rx="6" fill="#7C4DFF" opacity="0.5" transform="rotate(-15,600,586)"/>
</svg>