<svg xmlns="http://www.w3.org/2000/svg" viewBox="0 0 1024 1024">
  <rect width="1024" height="1024" rx="180" fill="#050010"/>
  <!-- Infinity symbol -->
  <path d="M200 512 C200 380 340 300 440 380 C520 440 504 584 584 644 C684 724 824 644 824 512 C824 380 684 300 584 380 C504 440 520 584 440 644 C340 724 200 644 200 512 Z" fill="none" stroke="#4527A0" stroke-width="52"/>
  <path d="M220 512 C220 396 348 326 436 396 C508 450 498 578 572 634 C672 706 804 634 804 512 C804 390 672 318 572 388 C498 440 508 566 436 622 C348 694 220 628 220 512 Z" fill="#9575CD" opacity="0.2"/>
  <!-- Glow at crossing point -->
  <circle cx="512" cy="512" r="50" fill="#9575CD" opacity="0.5"/>
  <circle cx="512" cy="512" r="80" fill="none" stroke="#9575CD" stroke-width="12" opacity="0.3"/>
  <!-- Small calc dots -->
  <circle cx="200" cy="512" r="22" fill="#9575CD"/>
  <circle cx="824" cy="512" r="22" fill="#9575CD"/>
</svg>
