<svg xmlns="http://www.w3.org/2000/svg" viewBox="0 0 1024 1024">
  <rect width="1024" height="1024" rx="180" fill="#050010"/>
  <!-- Base conversion: left box (hex), right box (bin) -->
  <rect x="120" y="340" width="280" height="140" rx="20" fill="#4527A0"/>
  <!-- Hex label area -->
  <rect x="144" y="364" width="232" height="92" rx="10" fill="#050010" opacity="0.5"/>
  <rect x="164" y="390" width="80" height="40" rx="8" fill="#9575CD" opacity="0.6"/>
  <rect x="256" y="390" width="100" height="40" rx="8" fill="#9575CD" opacity="0.4"/>
  <!-- Conversion arrows (bidirectional) -->
  <path d="M440 440 L584 400" stroke="#9575CD" stroke-width="20" stroke-linecap="round"/>
  <polygon points="570,380 600,396 578,416" fill="#9575CD"/>
  <path d="M584 480 L440 520" stroke="#4527A0" stroke-width="16" stroke-linecap="round" opacity="0.7"/>
  <polygon points="454,502 424,518 446,538" fill="#4527A0" opacity="0.7"/>
  <!-- Right box (binary) -->
  <rect x="624" y="300" width="280" height="220" rx="20" fill="#4527A0" opacity="0.8"/>
  <rect x="648" y="324" width="232" height="172" rx="10" fill="#050010" opacity="0.5"/>
  <!-- Binary digits -->
  <rect x="664" y="350" width="26" height="34" rx="8" fill="#9575CD"/>
  <rect x="698" y="350" width="26" height="34" rx="8" fill="#4527A0" opacity="0.6"/>
  <rect x="732" y="350" width="26" height="34" rx="8" fill="#9575CD"/>
  <rect x="766" y="350" width="26" height="34" rx="8" fill="#9575CD"/>
  <rect x="800" y="350" width="26" height="34" rx="8" fill="#4527A0" opacity="0.6"/>
  <rect x="834" y="350" width="26" height="34" rx="8" fill="#9575CD"/>
  <rect x="664" y="396" width="26" height="34" rx="8" fill="#4527A0" opacity="0.6"/>
  <rect x="698" y="396" width="26" height="34" rx="8" fill="#9575CD"/>
  <rect x="732" y="396" width="26" height="34" rx="8" fill="#9575CD"/>
  <rect x="766" y="396" width="26" height="34" rx="8" fill="#4527A0" opacity="0.6"/>
  <rect x="800" y="396" width="26" height="34" rx="8" fill="#4527A0" opacity="0.6"/>
  <rect x="834" y="396" width="26" height="34" rx="8" fill="#9575CD"/>
  <rect x="664" y="442" width="26" height="34" rx="8" fill="#9575CD" opacity="0.5"/>
  <rect x="698" y="442" width="26" height="34" rx="8" fill="#4527A0" opacity="0.5"/>
  <rect x="732" y="442" width="26" height="34" rx="8" fill="#9575CD" opacity="0.5"/>
  <rect x="766" y="442" width="26" height="34" rx="8" fill="#9575CD" opacity="0.5"/>
  <rect x="800" y="442" width="26" height="34" rx="8" fill="#4527A0" opacity="0.5"/>
  <rect x="834" y="442" width="26" height="34" rx="8" fill="#4527A0" opacity="0.5"/>
  <!-- Oct box small -->
  <rect x="280" y="580" width="200" height="100" rx="16" fill="#4527A0" opacity="0.6"/>
  <rect x="310" y="604" width="140" height="52" rx="8" fill="#9575CD" opacity="0.3"/>
</svg>
