<svg xmlns="http://www.w3.org/2000/svg" viewBox="0 0 1024 1024">
  <defs>
    <linearGradient id="bg05" x1="0%" y1="0%" x2="0%" y2="100%">
      <stop offset="0%" stop-color="#071820"/>
      <stop offset="100%" stop-color="#040E14"/>
    </linearGradient>
    <clipPath id="frame05">
      <rect width="1024" height="1024" rx="190"/>
    </clipPath>
  </defs>
  <!-- Layer 1: Background -->
  <rect width="1024" height="1024" rx="190" fill="url(#bg05)"/>
  <g clip-path="url(#frame05)">
    <!-- Layer 2: Completed crossword grid (6x6) with green filled cells showing success -->
    <!-- cell=136px, gap=6px, total=6*136+5*6=846px, start x=89, y=108 -->

    <!-- Row 0: G-A-M-E-■-■ (green completed) -->
    <rect x="89" y="108" width="136" height="136" rx="7" fill="#1A3A2A"/>
    <rect x="89" y="108" width="136" height="136" rx="7" fill="none" stroke="#2ECC71" stroke-width="4"/>
    <text x="157" y="208" font-family="'Segoe UI',Arial" font-size="88" font-weight="900" fill="#2ECC71" text-anchor="middle">G</text>
    <text x="89" y="128" font-family="'Segoe UI',Arial" font-size="22" font-weight="700" fill="#2ECC71">1</text>

    <rect x="231" y="108" width="136" height="136" rx="7" fill="#1A3A2A"/>
    <rect x="231" y="108" width="136" height="136" rx="7" fill="none" stroke="#2ECC71" stroke-width="4"/>
    <text x="299" y="208" font-family="'Segoe UI',Arial" font-size="88" font-weight="900" fill="#2ECC71" text-anchor="middle">A</text>

    <rect x="373" y="108" width="136" height="136" rx="7" fill="#1A3A2A"/>
    <rect x="373" y="108" width="136" height="136" rx="7" fill="none" stroke="#2ECC71" stroke-width="4"/>
    <text x="441" y="208" font-family="'Segoe UI',Arial" font-size="88" font-weight="900" fill="#2ECC71" text-anchor="middle">M</text>

    <rect x="515" y="108" width="136" height="136" rx="7" fill="#1A3A2A"/>
    <rect x="515" y="108" width="136" height="136" rx="7" fill="none" stroke="#2ECC71" stroke-width="4"/>
    <text x="583" y="208" font-family="'Segoe UI',Arial" font-size="88" font-weight="900" fill="#2ECC71" text-anchor="middle">E</text>

    <rect x="657" y="108" width="136" height="136" rx="7" fill="#111"/> <!-- black -->
    <rect x="799" y="108" width="136" height="136" rx="7" fill="#111"/> <!-- black -->

    <!-- Row 1: ■-■-E-■-■-■ -->
    <rect x="89" y="250" width="136" height="136" rx="7" fill="#111"/>
    <rect x="231" y="250" width="136" height="136" rx="7" fill="#111"/>
    <rect x="373" y="250" width="136" height="136" rx="7" fill="#1A3A2A"/>
    <rect x="373" y="250" width="136" height="136" rx="7" fill="none" stroke="#2ECC71" stroke-width="4"/>
    <text x="441" y="350" font-family="'Segoe UI',Arial" font-size="88" font-weight="900" fill="#2ECC71" text-anchor="middle">E</text>
    <rect x="515" y="250" width="136" height="136" rx="7" fill="#111"/>
    <rect x="657" y="250" width="136" height="136" rx="7" fill="#111"/>
    <rect x="799" y="250" width="136" height="136" rx="7" fill="#111"/>

    <!-- Row 2: W-I-N-■-■-■ (another across word) -->
    <rect x="89" y="392" width="136" height="136" rx="7" fill="#1A3A2A"/>
    <rect x="89" y="392" width="136" height="136" rx="7" fill="none" stroke="#2ECC71" stroke-width="4"/>
    <text x="157" y="492" font-family="'Segoe UI',Arial" font-size="88" font-weight="900" fill="#2ECC71" text-anchor="middle">W</text>
    <text x="89" y="412" font-family="'Segoe UI',Arial" font-size="22" font-weight="700" fill="#2ECC71">2</text>

    <rect x="231" y="392" width="136" height="136" rx="7" fill="#1A3A2A"/>
    <rect x="231" y="392" width="136" height="136" rx="7" fill="none" stroke="#2ECC71" stroke-width="4"/>
    <text x="299" y="492" font-family="'Segoe UI',Arial" font-size="88" font-weight="900" fill="#2ECC71" text-anchor="middle">I</text>

    <rect x="373" y="392" width="136" height="136" rx="7" fill="#1A3A2A"/>
    <rect x="373" y="392" width="136" height="136" rx="7" fill="none" stroke="#2ECC71" stroke-width="4"/>
    <text x="441" y="492" font-family="'Segoe UI',Arial" font-size="88" font-weight="900" fill="#2ECC71" text-anchor="middle">N</text>

    <rect x="515" y="392" width="136" height="136" rx="7" fill="#111"/>
    <rect x="657" y="392" width="136" height="136" rx="7" fill="#111"/>
    <rect x="799" y="392" width="136" height="136" rx="7" fill="#111"/>

    <!-- Row 3: ■-■-■-■-■-■ - mostly black -->
    <rect x="89" y="534" width="136" height="136" rx="7" fill="#111"/>
    <rect x="231" y="534" width="136" height="136" rx="7" fill="#111"/>
    <rect x="373" y="534" width="136" height="136" rx="7" fill="#111"/>
    <rect x="515" y="534" width="136" height="136" rx="7" fill="#111"/>
    <rect x="657" y="534" width="136" height="136" rx="7" fill="#111"/>
    <rect x="799" y="534" width="136" height="136" rx="7" fill="#111"/>

    <!-- Layer 3: Completion overlay — "PUZZLE COMPLETE!" -->
    <!-- Success banner -->
    <rect x="89" y="700" width="846" height="110" rx="16" fill="#164A2A"/>
    <rect x="89" y="700" width="846" height="110" rx="16" fill="none" stroke="#2ECC71" stroke-width="5"/>
    <text x="512" y="769" font-family="'Segoe UI',Arial" font-size="54" font-weight="900" fill="#2ECC71" text-anchor="middle">✓ PUZZLE COMPLETE!</text>

    <!-- Big checkmark badge -->
    <circle cx="512" cy="876" r="100" fill="#164A2A"/>
    <circle cx="512" cy="876" r="100" fill="none" stroke="#2ECC71" stroke-width="7"/>
    <polyline points="445,876 494,928 579,820" fill="none" stroke="#2ECC71" stroke-width="18" stroke-linecap="round" stroke-linejoin="round"/>
  </g>
</svg>
