<svg xmlns="http://www.w3.org/2000/svg" viewBox="0 0 512 512">
  <defs>
    <linearGradient id="bg" x1="0" y1="0" x2="1" y2="1">
      <stop offset="0%" stop-color="#1A237E"/>
      <stop offset="100%" stop-color="#283593"/>
    </linearGradient>
    <linearGradient id="disk" x1="0" y1="0" x2="0" y2="1">
      <stop offset="0%" stop-color="#9FA8DA"/>
      <stop offset="100%" stop-color="#7986CB"/>
    </linearGradient>
  </defs>
  <rect width="512" height="512" rx="80" fill="url(#bg)"/>
  <!-- DB cylinder shape -->
  <ellipse cx="256" cy="178" rx="110" ry="32" fill="url(#disk)"/>
  <rect x="146" y="178" width="220" height="80" fill="#5C6BC0"/>
  <ellipse cx="256" cy="258" rx="110" ry="32" fill="url(#disk)"/>
  <rect x="146" y="258" width="220" height="80" fill="#3F51B5"/>
  <ellipse cx="256" cy="338" rx="110" ry="32" fill="url(#disk)"/>
  <!-- Clip icon floating above -->
  <rect x="222" y="110" width="68" height="55" rx="8" fill="#3949AB"/>
  <rect x="234" y="100" width="44" height="28" rx="6" fill="#5C6BC0"/>
  <rect x="244" y="108" width="24" height="12" rx="3" fill="#1A237E"/>
  <!-- DB rows detail -->
  <rect x="164" y="218" width="64" height="8" rx="3" fill="#E8EAF6" opacity="0.6"/>
  <rect x="240" y="218" width="48" height="8" rx="3" fill="#E8EAF6" opacity="0.4"/>
  <rect x="164" y="298" width="64" height="8" rx="3" fill="#E8EAF6" opacity="0.5"/>
  <rect x="240" y="298" width="48" height="8" rx="3" fill="#E8EAF6" opacity="0.35"/>
  <!-- Arrow from clip to DB -->
  <path d="M256 165 L256 155 L248 163 M256 155 L264 163" stroke="#C5CAE9" stroke-width="3" fill="none" stroke-linecap="round" stroke-linejoin="round"/>
</svg>
