<svg xmlns="http://www.w3.org/2000/svg" viewBox="0 0 1024 1024">
  <defs>
    <linearGradient id="bg02" x1="0%" y1="0%" x2="100%" y2="100%">
      <stop offset="0%" stop-color="#FEF08A"/>
      <stop offset="100%" stop-color="#EAB308"/>
    </linearGradient>
  </defs>
  <!-- Background -->
  <rect width="1024" height="1024" rx="185" fill="url(#bg02)"/>
  <!-- Lightning bolt (big, dark) -->
  <polygon points="580,210 380,530 510,530 440,810 700,430 560,430" fill="#1C1917" stroke="#292524" stroke-width="8" stroke-linejoin="round"/>
  <!-- White stars around lightning -->
  <polygon points="220,240 231,274 267,274 239,295 249,329 220,308 191,329 201,295 173,274 209,274" fill="white"/>
  <polygon points="800,210 811,244 847,244 819,265 829,299 800,278 771,299 781,265 753,244 789,244" fill="white"/>
  <polygon points="190,600 198,625 224,625 204,641 211,666 190,650 169,666 176,641 156,625 182,625" fill="white"/>
  <polygon points="840,580 848,605 874,605 854,621 861,646 840,630 819,646 826,621 806,605 832,605" fill="white"/>
  <polygon points="512,840 522,870 552,870 528,887 537,917 512,900 487,917 496,887 472,870 502,870" fill="white"/>
</svg>