<svg xmlns="http://www.w3.org/2000/svg" viewBox="0 0 1024 1024">
  <!-- 배경: 밝은 보라-분홍 -->
  <defs>
    <linearGradient id="bg_dg03" x1="0%" y1="0%" x2="100%" y2="100%">
      <stop offset="0%" stop-color="#F3E5F5"/>
      <stop offset="100%" stop-color="#AB47BC"/>
    </linearGradient>
    <radialGradient id="webGlow" cx="50%" cy="50%" r="50%">
      <stop offset="0%" stop-color="#E040FB" stop-opacity="0.3"/>
      <stop offset="100%" stop-color="#7B1FA2" stop-opacity="0"/>
    </radialGradient>
  </defs>

  <!-- 배경 -->
  <rect width="1024" height="1024" rx="120" fill="url(#bg_dg03)"/>

  <!-- 글로우 -->
  <circle cx="512" cy="512" r="460" fill="url(#webGlow)"/>

  <!-- 거미줄 — 동심원들 -->
  <circle cx="512" cy="512" r="80" fill="none" stroke="#CE93D8" stroke-width="18" opacity="0.9"/>
  <circle cx="512" cy="512" r="160" fill="none" stroke="#BA68C8" stroke-width="14" opacity="0.7"/>
  <circle cx="512" cy="512" r="240" fill="none" stroke="#AB47BC" stroke-width="12" opacity="0.6"/>
  <circle cx="512" cy="512" r="320" fill="none" stroke="#9C27B0" stroke-width="10" opacity="0.5"/>
  <circle cx="512" cy="512" r="400" fill="none" stroke="#7B1FA2" stroke-width="8" opacity="0.35"/>

  <!-- 거미줄 — 방사선들 (8방향) -->
  <line x1="512" y1="112" x2="512" y2="912" stroke="#CE93D8" stroke-width="8" opacity="0.5"/>
  <line x1="112" y1="512" x2="912" y2="512" stroke="#CE93D8" stroke-width="8" opacity="0.5"/>
  <line x1="229" y1="229" x2="795" y2="795" stroke="#CE93D8" stroke-width="8" opacity="0.4"/>
  <line x1="795" y1="229" x2="229" y2="795" stroke="#CE93D8" stroke-width="8" opacity="0.4"/>

  <!-- 교차점 노드들 (각 동심원과 방사선 교차점) -->
  <!-- 반지름 80 -->
  <circle cx="512" cy="432" r="14" fill="#7B1FA2"/>
  <circle cx="512" cy="592" r="14" fill="#7B1FA2"/>
  <circle cx="432" cy="512" r="14" fill="#7B1FA2"/>
  <circle cx="592" cy="512" r="14" fill="#7B1FA2"/>
  <circle cx="455" cy="455" r="14" fill="#7B1FA2"/>
  <circle cx="569" cy="455" r="14" fill="#7B1FA2"/>
  <circle cx="455" cy="569" r="14" fill="#7B1FA2"/>
  <circle cx="569" cy="569" r="14" fill="#7B1FA2"/>

  <!-- 반지름 160 -->
  <circle cx="512" cy="352" r="18" fill="#9C27B0"/>
  <circle cx="512" cy="672" r="18" fill="#9C27B0"/>
  <circle cx="352" cy="512" r="18" fill="#9C27B0"/>
  <circle cx="672" cy="512" r="18" fill="#9C27B0"/>
  <circle cx="399" cy="399" r="18" fill="#9C27B0"/>
  <circle cx="625" cy="399" r="18" fill="#9C27B0"/>
  <circle cx="399" cy="625" r="18" fill="#9C27B0"/>
  <circle cx="625" cy="625" r="18" fill="#9C27B0"/>

  <!-- 반지름 240 -->
  <circle cx="512" cy="272" r="20" fill="#CE93D8"/>
  <circle cx="512" cy="752" r="20" fill="#CE93D8"/>
  <circle cx="272" cy="512" r="20" fill="#CE93D8"/>
  <circle cx="752" cy="512" r="20" fill="#CE93D8"/>
  <circle cx="342" cy="342" r="20" fill="#CE93D8"/>
  <circle cx="682" cy="342" r="20" fill="#CE93D8"/>
  <circle cx="342" cy="682" r="20" fill="#CE93D8"/>
  <circle cx="682" cy="682" r="20" fill="#CE93D8"/>

  <!-- 반지름 320 외곽 하이라이트 노드들 -->
  <circle cx="512" cy="192" r="24" fill="white" stroke="#9C27B0" stroke-width="8"/>
  <circle cx="512" cy="832" r="24" fill="white" stroke="#9C27B0" stroke-width="8"/>
  <circle cx="192" cy="512" r="24" fill="white" stroke="#9C27B0" stroke-width="8"/>
  <circle cx="832" cy="512" r="24" fill="white" stroke="#9C27B0" stroke-width="8"/>

  <!-- 중앙 노드 (가장 크게) -->
  <circle cx="512" cy="512" r="54" fill="#4A148C" stroke="#E040FB" stroke-width="16"/>
  <circle cx="512" cy="512" r="32" fill="#7B1FA2"/>
  <circle cx="512" cy="512" r="16" fill="#E040FB"/>

  <!-- 레이블 -->
  <text x="512" y="950" text-anchor="middle" font-family="Segoe UI, Arial, sans-serif" font-size="44" font-weight="900" fill="#4A148C" opacity="0.8">Dep.Graph</text>
</svg>
