<svg xmlns="http://www.w3.org/2000/svg" viewBox="0 0 512 512">
  <defs>
    <linearGradient id="bg" x1="0" y1="0" x2="1" y2="1">
      <stop offset="0%" stop-color="#BF360C"/>
      <stop offset="100%" stop-color="#FF6D00"/>
    </linearGradient>
    <linearGradient id="kb" x1="0" y1="0" x2="0" y2="1">
      <stop offset="0%" stop-color="#2C2C2C"/>
      <stop offset="100%" stop-color="#1A1A1A"/>
    </linearGradient>
  </defs>
  <rect width="512" height="512" rx="80" fill="url(#bg)"/>
  <!-- Keyboard body -->
  <rect x="96" y="210" width="320" height="160" rx="14" fill="url(#kb)"/>
  <!-- Key rows -->
  <!-- Row 1 -->
  <rect x="110" y="224" width="24" height="22" rx="4" fill="#FF7043"/><rect x="140" y="224" width="24" height="22" rx="4" fill="#FF7043"/><rect x="170" y="224" width="24" height="22" rx="4" fill="#FF7043"/><rect x="200" y="224" width="24" height="22" rx="4" fill="#FF7043"/><rect x="230" y="224" width="24" height="22" rx="4" fill="#FF8A65"/><rect x="260" y="224" width="24" height="22" rx="4" fill="#FF7043"/><rect x="290" y="224" width="24" height="22" rx="4" fill="#FF7043"/><rect x="320" y="224" width="24" height="22" rx="4" fill="#FF7043"/><rect x="350" y="224" width="62" height="22" rx="4" fill="#FF5722"/>
  <!-- Row 2 -->
  <rect x="110" y="254" width="36" height="22" rx="4" fill="#FF5722"/><rect x="152" y="254" width="24" height="22" rx="4" fill="#FF7043"/><rect x="182" y="254" width="24" height="22" rx="4" fill="#FF7043"/><rect x="212" y="254" width="24" height="22" rx="4" fill="#FF8A65"/><rect x="242" y="254" width="24" height="22" rx="4" fill="#FF7043"/><rect x="272" y="254" width="24" height="22" rx="4" fill="#FF7043"/><rect x="302" y="254" width="24" height="22" rx="4" fill="#FF7043"/><rect x="332" y="254" width="80" height="22" rx="4" fill="#FF5722"/>
  <!-- Row 3 (spacebar) -->
  <rect x="110" y="284" width="44" height="22" rx="4" fill="#FF5722"/><rect x="160" y="284" width="24" height="22" rx="4" fill="#FF7043"/><rect x="190" y="284" width="24" height="22" rx="4" fill="#FF7043"/><rect x="220" y="284" width="24" height="22" rx="4" fill="#FF8A65"/>
  <rect x="140" y="314" width="232" height="26" rx="6" fill="#FF5722"/>
  <!-- Auto typing cursor glow -->
  <rect x="222" y="228" width="3" height="14" rx="1" fill="#FFCCBC"/>
  <!-- Speed lines -->
  <line x1="400" y1="160" x2="440" y2="160" stroke="#FFAB91" stroke-width="3" stroke-linecap="round" opacity="0.8"/>
  <line x1="410" y1="178" x2="450" y2="178" stroke="#FFAB91" stroke-width="2.5" opacity="0.6"/>
  <line x1="405" y1="142" x2="435" y2="142" stroke="#FFAB91" stroke-width="2" opacity="0.5"/>
  <!-- Auto badge -->
  <rect x="130" y="140" width="100" height="40" rx="20" fill="#E64A19"/>
  <text x="180" y="165" text-anchor="middle" font-size="16" font-weight="bold" fill="white" font-family="Arial">AUTO</text>
</svg>
