<svg xmlns="http://www.w3.org/2000/svg" viewBox="0 0 1024 1024">
  <rect x="80" y="80" width="864" height="864" rx="180" fill="#0F0A00"/>
  <!-- Puzzle pieces forming a glyph -->
  <!-- Top-left piece -->
  <path d="M200 200 L460 200 L460 340 Q460 380 500 380 Q540 380 540 340 L540 200 L820 200 L820 460 L680 460 Q640 460 640 500 Q640 540 680 540 L820 540 L820 820 L560 820 L560 680 Q560 640 520 640 Q480 640 480 680 L480 820 L200 820 L200 560 L340 560 Q380 560 380 520 Q380 480 340 480 L200 480 Z" fill="#F57F17" opacity="0.3" stroke="#F57F17" stroke-width="32"/>
  <!-- Highlighted puzzle notch areas -->
  <circle cx="500" cy="380" r="44" fill="#FFD54F" opacity="0.6"/>
  <circle cx="640" cy="500" r="44" fill="#FFD54F" opacity="0.4"/>
  <circle cx="520" cy="640" r="44" fill="#F57F17" opacity="0.7"/>
  <circle cx="340" cy="520" r="44" fill="#F57F17" opacity="0.5"/>
</svg>