<svg xmlns="http://www.w3.org/2000/svg" viewBox="0 0 1024 1024">
<rect x="80" y="80" width="864" height="864" rx="180" ry="180" fill="#0A0200"/>
<!-- 컨셉: 적외선 열 파장 -->
<!-- CPU/칩 중앙 -->
<rect x="400" y="400" width="224" height="224" rx="20" fill="#BF360C"/>
<rect x="420" y="420" width="184" height="184" rx="14" fill="#1A0400"/>
<!-- 칩 핀들 (좌우상하) -->
<rect x="360" y="436" width="40" height="20" rx="4" fill="#FF8A65"/>
<rect x="360" y="472" width="40" height="20" rx="4" fill="#FF8A65"/>
<rect x="360" y="508" width="40" height="20" rx="4" fill="#FF8A65"/>
<rect x="360" y="544" width="40" height="20" rx="4" fill="#FF8A65"/>
<rect x="360" y="580" width="40" height="20" rx="4" fill="#FF8A65"/>
<rect x="624" y="436" width="40" height="20" rx="4" fill="#FF8A65"/>
<rect x="624" y="472" width="40" height="20" rx="4" fill="#FF8A65"/>
<rect x="624" y="508" width="40" height="20" rx="4" fill="#FF8A65"/>
<rect x="624" y="544" width="40" height="20" rx="4" fill="#FF8A65"/>
<rect x="436" y="360" width="20" height="40" rx="4" fill="#FF8A65"/>
<rect x="472" y="360" width="20" height="40" rx="4" fill="#FF8A65"/>
<rect x="508" y="360" width="20" height="40" rx="4" fill="#FF8A65"/>
<rect x="544" y="360" width="20" height="40" rx="4" fill="#FF8A65"/>
<rect x="436" y="624" width="20" height="40" rx="4" fill="#FF8A65"/>
<rect x="472" y="624" width="20" height="40" rx="4" fill="#FF8A65"/>
<rect x="508" y="624" width="20" height="40" rx="4" fill="#FF8A65"/>
<!-- 열파 동심원 -->
<circle cx="512" cy="512" r="200" fill="none" stroke="#BF360C" stroke-width="20" opacity="0.5"/>
<circle cx="512" cy="512" r="280" fill="none" stroke="#BF360C" stroke-width="16" opacity="0.35"/>
<circle cx="512" cy="512" r="360" fill="none" stroke="#BF360C" stroke-width="12" opacity="0.2"/>
<!-- 칩 중심 발열 표시 -->
<circle cx="512" cy="512" r="60" fill="#FF8A65" opacity="0.4"/>
<circle cx="512" cy="512" r="36" fill="#BF360C" opacity="0.8"/>
</svg>
