<svg xmlns="http://www.w3.org/2000/svg" viewBox="0 0 1024 1024">
<rect x="80" y="80" width="864" height="864" rx="180" ry="180" fill="#0A0200"/>
<!-- 컨셉: 태양 열기 복사 -->
<!-- 태양 코로나 (외부 광선) -->
<line x1="512" y1="180" x2="512" y2="130" stroke="#BF360C" stroke-width="24" stroke-linecap="round"/>
<line x1="512" y1="844" x2="512" y2="894" stroke="#BF360C" stroke-width="24" stroke-linecap="round"/>
<line x1="180" y1="512" x2="130" y2="512" stroke="#BF360C" stroke-width="24" stroke-linecap="round"/>
<line x1="844" y1="512" x2="894" y2="512" stroke="#BF360C" stroke-width="24" stroke-linecap="round"/>
<line x1="282" y1="282" x2="247" y2="247" stroke="#BF360C" stroke-width="20" stroke-linecap="round"/>
<line x1="742" y1="742" x2="777" y2="777" stroke="#BF360C" stroke-width="20" stroke-linecap="round"/>
<line x1="742" y1="282" x2="777" y2="247" stroke="#BF360C" stroke-width="20" stroke-linecap="round"/>
<line x1="282" y1="742" x2="247" y2="777" stroke="#BF360C" stroke-width="20" stroke-linecap="round"/>
<!-- 더 짧은 중간 광선 -->
<line x1="512" y1="200" x2="512" y2="240" stroke="#FF8A65" stroke-width="20" stroke-linecap="round"/>
<line x1="512" y1="784" x2="512" y2="824" stroke="#FF8A65" stroke-width="20" stroke-linecap="round"/>
<line x1="200" y1="512" x2="240" y2="512" stroke="#FF8A65" stroke-width="20" stroke-linecap="round"/>
<line x1="784" y1="512" x2="824" y2="512" stroke="#FF8A65" stroke-width="20" stroke-linecap="round"/>
<line x1="300" y1="300" x2="328" y2="328" stroke="#FF8A65" stroke-width="16" stroke-linecap="round"/>
<line x1="724" y1="724" x2="752" y2="752" stroke="#FF8A65" stroke-width="16" stroke-linecap="round"/>
<line x1="724" y1="300" x2="752" y2="328" stroke="#FF8A65" stroke-width="16" stroke-linecap="round"/>
<line x1="300" y1="724" x2="328" y2="752" stroke="#FF8A65" stroke-width="16" stroke-linecap="round"/>
<!-- 태양 본체 -->
<circle cx="512" cy="512" r="240" fill="#BF360C"/>
<circle cx="512" cy="512" r="196" fill="#FF8A65"/>
<circle cx="512" cy="512" r="150" fill="#BF360C" opacity="0.8"/>
<!-- CPU 아이콘 (태양 과열) -->
<rect x="432" y="432" width="160" height="160" rx="16" fill="#0A0200" opacity="0.7"/>
<rect x="452" y="452" width="120" height="120" rx="10" fill="#0A0200"/>
<circle cx="512" cy="512" r="36" fill="#FF8A65" opacity="0.8"/>
</svg>
