<svg xmlns="http://www.w3.org/2000/svg" viewBox="0 0 1024 1024">
<rect x="80" y="80" width="864" height="864" rx="180" ry="180" fill="#0A0200"/>
<!-- 컨셉: 폭탄 퓨즈 타이머 -->
<!-- 폭탄 몸체 -->
<circle cx="512" cy="580" r="240" fill="#BF360C"/>
<circle cx="512" cy="580" r="206" fill="#1A0400"/>
<!-- 폭탄 몸체 하이라이트 -->
<circle cx="440" cy="510" r="60" fill="#BF360C" opacity="0.25"/>
<!-- 타이머 원형 (폭탄 안에) -->
<circle cx="512" cy="580" r="140" fill="none" stroke="#BF360C" stroke-width="24"/>
<circle cx="512" cy="580" r="140" fill="none" stroke="#FF8A65" stroke-width="24" stroke-dasharray="660 218" stroke-dashoffset="0" opacity="0.8"/>
<!-- 타이머 바늘 -->
<line x1="512" y1="580" x2="608" y2="476" stroke="#FF8A65" stroke-width="20" stroke-linecap="round"/>
<circle cx="512" cy="580" r="20" fill="#FF8A65"/>
<!-- 퓨즈 (상단) -->
<path d="M 512 340 Q 540 280 580 260 Q 620 240 640 200" fill="none" stroke="#FF8A65" stroke-width="24" stroke-linecap="round"/>
<!-- 퓨즈 불꽃 -->
<path d="M 640 200 Q 660 170 650 145 Q 680 165 685 190 Q 700 160 695 135 Q 720 160 715 185 Q 730 175 728 200 Q 710 230 680 225 Q 655 240 640 200 Z" fill="#FF8A65"/>
<!-- 경고 X 표시 -->
<line x1="450" y1="550" x2="490" y2="590" stroke="#FF8A65" stroke-width="22" stroke-linecap="round" opacity="0.5"/>
<line x1="490" y1="550" x2="450" y2="590" stroke="#FF8A65" stroke-width="22" stroke-linecap="round" opacity="0.5"/>
</svg>
