<svg xmlns="http://www.w3.org/2000/svg" viewBox="0 0 1024 1024">
<rect x="80" y="80" width="864" height="864" rx="180" ry="180" fill="#0A0200"/>
<!-- 컨셉: 불꽃 + 게이지 소모 -->
<!-- 게이지 배경 -->
<rect x="200" y="600" width="624" height="100" rx="24" fill="#1A0400" stroke="#BF360C" stroke-width="20"/>
<!-- 게이지 채움 (75%) -->
<rect x="210" y="610" width="452" height="80" rx="18" fill="#BF360C"/>
<!-- 게이지 그라디언트 효과 -->
<rect x="210" y="610" width="452" height="40" rx="18" fill="#FF8A65" opacity="0.3"/>
<!-- 게이지 눈금 -->
<line x1="356" y1="610" x2="356" y2="690" stroke="#0A0200" stroke-width="10" opacity="0.4"/>
<line x1="512" y1="610" x2="512" y2="690" stroke="#0A0200" stroke-width="10" opacity="0.4"/>
<line x1="668" y1="610" x2="668" y2="690" stroke="#0A0200" stroke-width="10" opacity="0.4"/>
<!-- 불꽃 (게이지 위) -->
<path d="M 512 600 Q 540 540 520 480 Q 560 520 570 480 Q 610 540 580 600 Q 620 560 630 510 Q 670 580 650 640 Q 640 700 580 720 Q 520 740 490 700 Q 460 660 480 620 Q 490 600 512 600 Z" fill="#FF8A65" opacity="0.9"/>
<path d="M 512 610 Q 530 570 520 540 Q 545 575 550 545 Q 570 590 555 625 Q 540 660 510 670 Q 490 650 500 620 Z" fill="#BF360C" opacity="0.7"/>
</svg>
