<svg xmlns="http://www.w3.org/2000/svg" viewBox="0 0 1024 1024">
  <rect x="80" y="80" width="864" height="864" rx="180" fill="#0A0010"/>
  <!-- 책 - 왼쪽 페이지 -->
  <rect x="240" y="260" width="240" height="500" rx="10" fill="#6A1B9A"/>
  <rect x="256" y="280" width="170" height="20" rx="4" fill="#CE93D8" opacity="0.5"/>
  <rect x="256" y="316" width="140" height="12" rx="3" fill="#CE93D8" opacity="0.3"/>
  <rect x="256" y="340" width="155" height="12" rx="3" fill="#CE93D8" opacity="0.3"/>
  <rect x="256" y="364" width="120" height="12" rx="3" fill="#CE93D8" opacity="0.3"/>
  <rect x="256" y="420" width="170" height="100" rx="6" fill="#6A1B9A" opacity="0.7" stroke="#CE93D8" stroke-width="2"/>
  <!-- 책 - 오른쪽 페이지 (넘기는 중) -->
  <path d="M480 260 Q650 310 744 260 L744 760 Q650 710 480 760 Z" fill="#CE93D8" opacity="0.15"/>
  <rect x="490" y="260" width="254" height="500" rx="10" fill="#6A1B9A" opacity="0.7"/>
  <!-- 페이지 넘김 효과 -->
  <path d="M480 400 Q560 380 640 400 Q700 420 740 380" fill="none" stroke="#CE93D8" stroke-width="10" stroke-linecap="round" opacity="0.6"/>
  <!-- 책 척추 -->
  <rect x="468" y="260" width="24" height="500" rx="6" fill="#0A0010"/>
  <rect x="474" y="260" width="12" height="500" rx="4" fill="#CE93D8" opacity="0.2"/>
</svg>