<svg xmlns="http://www.w3.org/2000/svg" viewBox="0 0 512 512">
  <defs>
    <linearGradient id="bg" x1="0%" y1="0%" x2="100%" y2="100%">
      <stop offset="0%" stop-color="#1e0a3c"/>
      <stop offset="100%" stop-color="#6d28d9"/>
    </linearGradient>
  </defs>
  <rect width="512" height="512" rx="80" fill="url(#bg)"/>
  <!-- two overlapping documents -->
  <rect x="100" y="120" width="160" height="210" rx="10" fill="#4c1d95" stroke="#a78bfa" stroke-width="2" opacity="0.85"/>
  <rect x="252" y="140" width="160" height="210" rx="10" fill="#3b0764" stroke="#c4b5fd" stroke-width="2" opacity="0.85"/>
  <!-- diff highlight in overlap area -->
  <rect x="252" y="140" width="8" height="210" fill="#a78bfa" opacity="0.3"/>
  <!-- lines -->
  <rect x="116" y="148" width="128" height="10" rx="3" fill="#c4b5fd" opacity="0.5"/>
  <rect x="116" y="166" width="110" height="10" rx="3" fill="#ff6b6b" opacity="0.7"/>
  <rect x="116" y="184" width="128" height="10" rx="3" fill="#c4b5fd" opacity="0.5"/>
  <rect x="116" y="202" width="120" height="10" rx="3" fill="#c4b5fd" opacity="0.5"/>
  <rect x="116" y="220" width="100" height="10" rx="3" fill="#ff6b6b" opacity="0.7"/>
  <rect x="268" y="168" width="128" height="10" rx="3" fill="#c4b5fd" opacity="0.5"/>
  <rect x="268" y="186" width="110" height="10" rx="3" fill="#4ade80" opacity="0.7"/>
  <rect x="268" y="204" width="128" height="10" rx="3" fill="#c4b5fd" opacity="0.5"/>
  <rect x="268" y="222" width="120" height="10" rx="3" fill="#c4b5fd" opacity="0.5"/>
  <rect x="268" y="240" width="100" height="10" rx="3" fill="#4ade80" opacity="0.7"/>
  <!-- depth indicator label -->
  <text x="256" y="410" font-family="'Segoe UI',sans-serif" font-size="28" font-weight="bold" fill="#a78bfa" text-anchor="middle">DEEP</text>
  <text x="256" y="445" font-family="'Segoe UI',sans-serif" font-size="22" fill="#7c3aed" text-anchor="middle">compare</text>
</svg>
