<svg xmlns="http://www.w3.org/2000/svg" viewBox="0 0 512 512">
  <defs>
    <linearGradient id="bg" x1="0%" y1="0%" x2="100%" y2="100%">
      <stop offset="0%" stop-color="#042f2e"/>
      <stop offset="100%" stop-color="#0d9488"/>
    </linearGradient>
  </defs>
  <rect width="512" height="512" rx="80" fill="url(#bg)"/>
  <!-- file A -->
  <rect x="72" y="100" width="148" height="200" rx="8" fill="#134e4a" stroke="#5eead4" stroke-width="2"/>
  <!-- diff side indicator -->
  <rect x="72" y="100" width="14" height="200" rx="4" fill="#ff6b6b" opacity="0.8"/>
  <rect x="94" y="118" width="110" height="10" rx="3" fill="#99f6e4" opacity="0.5"/>
  <rect x="94" y="136" width="90" height="10" rx="3" fill="#ff6b6b" opacity="0.75"/>
  <rect x="94" y="154" width="110" height="10" rx="3" fill="#99f6e4" opacity="0.5"/>
  <rect x="94" y="172" width="100" height="10" rx="3" fill="#99f6e4" opacity="0.5"/>
  <rect x="94" y="190" width="80" height="10" rx="3" fill="#ff6b6b" opacity="0.75"/>
  <rect x="94" y="208" width="110" height="10" rx="3" fill="#99f6e4" opacity="0.5"/>
  <!-- file B -->
  <rect x="292" y="100" width="148" height="200" rx="8" fill="#134e4a" stroke="#5eead4" stroke-width="2"/>
  <rect x="426" y="100" width="14" height="200" rx="4" fill="#4ade80" opacity="0.8"/>
  <rect x="308" y="118" width="110" height="10" rx="3" fill="#99f6e4" opacity="0.5"/>
  <rect x="308" y="136" width="100" height="10" rx="3" fill="#4ade80" opacity="0.75"/>
  <rect x="308" y="154" width="110" height="10" rx="3" fill="#99f6e4" opacity="0.5"/>
  <rect x="308" y="172" width="100" height="10" rx="3" fill="#99f6e4" opacity="0.5"/>
  <rect x="308" y="190" width="115" height="10" rx="3" fill="#4ade80" opacity="0.75"/>
  <rect x="308" y="208" width="110" height="10" rx="3" fill="#99f6e4" opacity="0.5"/>
  <!-- connecting lines diff -->
  <path d="M220 146 Q256 146 292 146" stroke="#2dd4bf" stroke-width="2" fill="none" stroke-dasharray="5,3"/>
  <path d="M220 200 Q256 200 292 200" stroke="#2dd4bf" stroke-width="2" fill="none" stroke-dasharray="5,3"/>
  <!-- depth level indicator -->
  <text x="256" y="180" font-family="'Segoe UI',sans-serif" font-size="26" font-weight="bold" fill="#2dd4bf" text-anchor="middle">≈</text>
  <!-- bottom depth visual -->
  <rect x="100" y="340" width="312" height="8" rx="4" fill="#0d9488" opacity="0.4"/>
  <rect x="120" y="360" width="272" height="8" rx="4" fill="#0d9488" opacity="0.3"/>
  <rect x="140" y="380" width="232" height="8" rx="4" fill="#0d9488" opacity="0.2"/>
  <text x="256" y="430" font-family="'Segoe UI',sans-serif" font-size="22" fill="#5eead4" text-anchor="middle" opacity="0.8">deep inspect</text>
</svg>
