<svg xmlns="http://www.w3.org/2000/svg" viewBox="0 0 1024 1024">
  <!-- Timeline with photo thumbnails -->
  <rect x="80" y="80" width="864" height="864" rx="180" fill="#080010"/>
  <!-- Horizontal timeline bar -->
  <rect x="160" y="496" width="704" height="32" rx="16" fill="#4A148C"/>
  <!-- Timeline dots -->
  <circle cx="260" cy="512" r="22" fill="#CE93D8"/>
  <circle cx="420" cy="512" r="22" fill="#CE93D8"/>
  <circle cx="580" cy="512" r="22" fill="#CE93D8"/>
  <circle cx="740" cy="512" r="22" fill="#CE93D8"/>
  <!-- Photo thumbnails above timeline -->
  <rect x="190" y="300" width="140" height="110" rx="12" fill="#4A148C" stroke="#CE93D8" stroke-width="6"/>
  <circle cx="230" cy="332" r="16" fill="#CE93D8" opacity="0.7"/>
  <path d="M190 380 L240 348 L290 372 L330 348 L330 410 L190 410 Z" fill="#CE93D8" opacity="0.5"/>

  <rect x="350" y="300" width="140" height="110" rx="12" fill="#4A148C" stroke="#CE93D8" stroke-width="6"/>
  <circle cx="390" cy="332" r="16" fill="#CE93D8" opacity="0.7"/>
  <path d="M350 380 L400 348 L450 372 L490 348 L490 410 L350 410 Z" fill="#CE93D8" opacity="0.5"/>

  <!-- Photo thumbnails below timeline -->
  <rect x="510" y="614" width="140" height="110" rx="12" fill="#4A148C" stroke="#CE93D8" stroke-width="6"/>
  <circle cx="550" cy="646" r="16" fill="#CE93D8" opacity="0.7"/>
  <path d="M510 694 L560 662 L610 686 L650 662 L650 724 L510 724 Z" fill="#CE93D8" opacity="0.5"/>

  <rect x="670" y="614" width="140" height="110" rx="12" fill="#4A148C" stroke="#CE93D8" stroke-width="6"/>
  <circle cx="710" cy="646" r="16" fill="#CE93D8" opacity="0.7"/>
  <path d="M670 694 L720 662 L770 686 L810 662 L810 724 L670 724 Z" fill="#CE93D8" opacity="0.5"/>

  <!-- Connectors -->
  <line x1="260" y1="490" x2="260" y2="410" stroke="#CE93D8" stroke-width="4" stroke-dasharray="8,4"/>
  <line x1="420" y1="490" x2="420" y2="410" stroke="#CE93D8" stroke-width="4" stroke-dasharray="8,4"/>
  <line x1="580" y1="534" x2="580" y2="614" stroke="#CE93D8" stroke-width="4" stroke-dasharray="8,4"/>
  <line x1="740" y1="534" x2="740" y2="614" stroke="#CE93D8" stroke-width="4" stroke-dasharray="8,4"/>
</svg>
