<svg xmlns="http://www.w3.org/2000/svg" viewBox="0 0 1024 1024">
  <defs>
    <clipPath id="bg-clip-06">
      <rect width="1024" height="1024" rx="190"/>
    </clipPath>
    <linearGradient id="bg-grad-06" x1="0" y1="0" x2="1" y2="1">
      <stop offset="0%" stop-color="#005555"/>
      <stop offset="100%" stop-color="#003344"/>
    </linearGradient>
    <linearGradient id="card-chaos-06" x1="0" y1="0" x2="0" y2="1">
      <stop offset="0%" stop-color="#2A3A3A"/>
      <stop offset="100%" stop-color="#1A2A2A"/>
    </linearGradient>
    <linearGradient id="card-order-06" x1="0" y1="0" x2="0" y2="1">
      <stop offset="0%" stop-color="#006666"/>
      <stop offset="100%" stop-color="#004444"/>
    </linearGradient>
  </defs>

  <!-- 배경 -->
  <rect width="1024" height="1024" rx="190" fill="url(#bg-grad-06)"/>

  <!-- 왼쪽 혼돈 영역 (삐뚤빼뚤 파일명들) -->
  <!-- 파일 카드 1 - 비스듬 -->
  <rect x="50" y="150" width="350" height="72" rx="10" fill="url(#card-chaos-06)" stroke="#446644" stroke-width="2"
        transform="rotate(-8 225 186)"/>
  <text x="90" y="204" font-family="'Courier New', monospace" font-size="28" fill="#778877" transform="rotate(-8 225 186)">IMG_0001.jpg</text>

  <!-- 파일 카드 2 - 비스듬 반대 -->
  <rect x="80" y="270" width="350" height="72" rx="10" fill="url(#card-chaos-06)" stroke="#446644" stroke-width="2"
        transform="rotate(5 255 306)"/>
  <text x="100" y="320" font-family="'Courier New', monospace" font-size="28" fill="#778877" transform="rotate(5 255 306)">VID_0001.mp4</text>

  <!-- 파일 카드 3 - 더 기울어짐 -->
  <rect x="30" y="390" width="350" height="72" rx="10" fill="url(#card-chaos-06)" stroke="#446644" stroke-width="2"
        transform="rotate(-12 205 426)"/>
  <text x="60" y="440" font-family="'Courier New', monospace" font-size="28" fill="#778877" transform="rotate(-12 205 426)">IMG_0002.jpg</text>

  <!-- 파일 카드 4 - 겹침 -->
  <rect x="100" y="490" width="350" height="72" rx="10" fill="url(#card-chaos-06)" stroke="#446644" stroke-width="2"
        transform="rotate(9 275 526)"/>
  <text x="130" y="540" font-family="'Courier New', monospace" font-size="28" fill="#778877" transform="rotate(9 275 526)">DSC_4521.jpg</text>

  <!-- 파일 카드 5 - 많이 기울어짐 -->
  <rect x="50" y="600" width="350" height="72" rx="10" fill="url(#card-chaos-06)" stroke="#446644" stroke-width="2"
        transform="rotate(-6 225 636)"/>
  <text x="80" y="650" font-family="'Courier New', monospace" font-size="28" fill="#778877" transform="rotate(-6 225 636)">VID_0042.mp4</text>

  <!-- 중앙 변환 아이콘 (번개 + 화살표) -->
  <path d="M 490 360 L 534 360 L 510 490 L 560 490 L 490 660 L 514 540 L 464 540 Z"
        fill="#00CCCC" stroke="#009999" stroke-width="3" stroke-linejoin="round"/>
  <!-- 화살표 -->
  <path d="M 460 510 L 564 510 L 564 480 L 616 512 L 564 544 L 564 514 L 460 514 Z"
        fill="#FFD700" stroke="#CC9900" stroke-width="2" stroke-linejoin="round"/>

  <!-- 오른쪽 정돈 영역 (반듯한 파일명들) -->
  <!-- 파일 카드 1 - 깔끔 -->
  <rect x="624" y="170" width="340" height="68" rx="10" fill="url(#card-order-06)" stroke="#00BBBB" stroke-width="2"/>
  <text x="652" y="214" font-family="'Courier New', monospace" font-size="28" fill="#66EEEE">2024-07-15.jpg</text>

  <!-- 파일 카드 2 -->
  <rect x="624" y="260" width="340" height="68" rx="10" fill="url(#card-order-06)" stroke="#00BBBB" stroke-width="2"/>
  <text x="652" y="304" font-family="'Courier New', monospace" font-size="28" fill="#66EEEE">2024-07-16.mp4</text>

  <!-- 파일 카드 3 -->
  <rect x="624" y="350" width="340" height="68" rx="10" fill="url(#card-order-06)" stroke="#00BBBB" stroke-width="2"/>
  <text x="652" y="394" font-family="'Courier New', monospace" font-size="28" fill="#66EEEE">2024-07-17.jpg</text>

  <!-- 파일 카드 4 -->
  <rect x="624" y="440" width="340" height="68" rx="10" fill="url(#card-order-06)" stroke="#00BBBB" stroke-width="2"/>
  <text x="652" y="484" font-family="'Courier New', monospace" font-size="28" fill="#66EEEE">2024-07-18.jpg</text>

  <!-- 파일 카드 5 -->
  <rect x="624" y="530" width="340" height="68" rx="10" fill="url(#card-order-06)" stroke="#00BBBB" stroke-width="2"/>
  <text x="652" y="574" font-family="'Courier New', monospace" font-size="28" fill="#66EEEE">2024-07-19.mp4</text>

  <!-- 정렬 아이콘 (오른쪽 영역의 작은 체크 표시들) -->
  <circle cx="612" cy="204" r="10" fill="#00CCCC"/>
  <path d="M 606 204 L 610 210 L 618 196" stroke="white" stroke-width="3" fill="none" stroke-linecap="round" stroke-linejoin="round"/>
  <circle cx="612" cy="294" r="10" fill="#00CCCC"/>
  <path d="M 606 294 L 610 300 L 618 286" stroke="white" stroke-width="3" fill="none" stroke-linecap="round" stroke-linejoin="round"/>
  <circle cx="612" cy="384" r="10" fill="#00CCCC"/>
  <path d="M 606 384 L 610 390 L 618 376" stroke="white" stroke-width="3" fill="none" stroke-linecap="round" stroke-linejoin="round"/>
  <circle cx="612" cy="474" r="10" fill="#00CCCC"/>
  <path d="M 606 474 L 610 480 L 618 466" stroke="white" stroke-width="3" fill="none" stroke-linecap="round" stroke-linejoin="round"/>
  <circle cx="612" cy="564" r="10" fill="#00CCCC"/>
  <path d="M 606 564 L 610 570 L 618 556" stroke="white" stroke-width="3" fill="none" stroke-linecap="round" stroke-linejoin="round"/>

  <!-- 구분선 -->
  <line x1="440" y1="100" x2="440" y2="700" stroke="#446644" stroke-width="2" stroke-dasharray="12,8" opacity="0.5"/>

  <!-- 하단 바 -->
  <rect x="80" y="790" width="864" height="80" rx="16" fill="#003333" stroke="#00CCCC" stroke-width="2"/>
  <text x="512" y="840" text-anchor="middle" font-family="'Segoe UI', Arial, sans-serif" font-size="36" font-weight="700" fill="#00CCCC">혼돈 → 정돈</text>
</svg>
