<svg xmlns="http://www.w3.org/2000/svg" viewBox="0 0 1024 1024">
  <defs>
    <clipPath id="bg-clip-08">
      <rect width="1024" height="1024" rx="190"/>
    </clipPath>
    <linearGradient id="bg-grad-08" x1="0" y1="0" x2="1" y2="1">
      <stop offset="0%" stop-color="#B0FFE8"/>
      <stop offset="100%" stop-color="#70EED4"/>
    </linearGradient>
    <linearGradient id="film-grad-08" x1="0" y1="0" x2="0" y2="1">
      <stop offset="0%" stop-color="#006655"/>
      <stop offset="100%" stop-color="#004433"/>
    </linearGradient>
    <linearGradient id="arrow-grad-08" x1="0" y1="0" x2="1" y2="0">
      <stop offset="0%" stop-color="#00AA88"/>
      <stop offset="100%" stop-color="#008866"/>
    </linearGradient>
  </defs>

  <!-- 배경 (민트 화이트) -->
  <rect width="1024" height="1024" rx="190" fill="url(#bg-grad-08)"/>

  <!-- 필름 스트립 (왼쪽 세로) -->
  <rect x="80" y="120" width="160" height="784" rx="12" fill="url(#film-grad-08)"/>
  <!-- 필름 구멍들 -->
  <rect x="96" y="148" width="30" height="44" rx="6" fill="#B0FFE8"/>
  <rect x="96" y="214" width="30" height="44" rx="6" fill="#B0FFE8"/>
  <rect x="96" y="280" width="30" height="44" rx="6" fill="#B0FFE8"/>
  <rect x="96" y="346" width="30" height="44" rx="6" fill="#B0FFE8"/>
  <rect x="96" y="412" width="30" height="44" rx="6" fill="#B0FFE8"/>
  <rect x="96" y="478" width="30" height="44" rx="6" fill="#B0FFE8"/>
  <rect x="96" y="544" width="30" height="44" rx="6" fill="#B0FFE8"/>
  <rect x="96" y="610" width="30" height="44" rx="6" fill="#B0FFE8"/>
  <rect x="96" y="676" width="30" height="44" rx="6" fill="#B0FFE8"/>
  <rect x="96" y="742" width="30" height="44" rx="6" fill="#B0FFE8"/>
  <!-- 오른쪽 구멍 -->
  <rect x="214" y="148" width="30" height="44" rx="6" fill="#B0FFE8"/>
  <rect x="214" y="214" width="30" height="44" rx="6" fill="#B0FFE8"/>
  <rect x="214" y="280" width="30" height="44" rx="6" fill="#B0FFE8"/>
  <rect x="214" y="346" width="30" height="44" rx="6" fill="#B0FFE8"/>
  <rect x="214" y="412" width="30" height="44" rx="6" fill="#B0FFE8"/>
  <rect x="214" y="478" width="30" height="44" rx="6" fill="#B0FFE8"/>
  <rect x="214" y="544" width="30" height="44" rx="6" fill="#B0FFE8"/>
  <rect x="214" y="610" width="30" height="44" rx="6" fill="#B0FFE8"/>
  <rect x="214" y="676" width="30" height="44" rx="6" fill="#B0FFE8"/>
  <rect x="214" y="742" width="30" height="44" rx="6" fill="#B0FFE8"/>
  <!-- 필름 프레임들 (사진) -->
  <rect x="130" y="160" width="80" height="60" rx="4" fill="#3AC4A4"/>
  <circle cx="150" cy="178" r="8" fill="#80FFEE"/>
  <rect x="130" y="232" width="80" height="60" rx="4" fill="#2AB090"/>
  <rect x="130" y="304" width="80" height="60" rx="4" fill="#3AC4A4"/>

  <!-- 중앙: 변환 스트림 (가로) -->
  <!-- 파일명 스트림 라인들 -->
  <rect x="260" y="220" width="500" height="54" rx="8" fill="#006655" opacity="0.15"/>
  <text x="278" y="258" font-family="'Courier New', monospace" font-size="34" fill="#005544">IMG_0001.jpg</text>
  <!-- 화살표 -->
  <path d="M 790 230 L 830 230 L 830 210 L 870 247 L 830 284 L 830 264 L 790 264 Z"
        fill="url(#arrow-grad-08)" stroke="#006644" stroke-width="2" stroke-linejoin="round"/>
  <!-- 결과 -->
  <text x="888" y="258" font-family="'Courier New', monospace" font-size="28" fill="#004433" font-weight="700">2024-07-15.jpg</text>

  <rect x="260" y="314" width="500" height="54" rx="8" fill="#006655" opacity="0.15"/>
  <text x="278" y="352" font-family="'Courier New', monospace" font-size="34" fill="#005544">VID_0001.mp4</text>
  <path d="M 790 324 L 830 324 L 830 304 L 870 341 L 830 378 L 830 358 L 790 358 Z"
        fill="url(#arrow-grad-08)" stroke="#006644" stroke-width="2" stroke-linejoin="round"/>
  <text x="888" y="352" font-family="'Courier New', monospace" font-size="28" fill="#004433" font-weight="700">2024-07-16.mp4</text>

  <rect x="260" y="408" width="500" height="54" rx="8" fill="#006655" opacity="0.15"/>
  <text x="278" y="446" font-family="'Courier New', monospace" font-size="34" fill="#005544">IMG_0002.jpg</text>
  <path d="M 790 418 L 830 418 L 830 398 L 870 435 L 830 472 L 830 452 L 790 452 Z"
        fill="url(#arrow-grad-08)" stroke="#006644" stroke-width="2" stroke-linejoin="round"/>
  <text x="888" y="446" font-family="'Courier New', monospace" font-size="28" fill="#004433" font-weight="700">2024-07-17.jpg</text>

  <rect x="260" y="502" width="500" height="54" rx="8" fill="#006655" opacity="0.15"/>
  <text x="278" y="540" font-family="'Courier New', monospace" font-size="34" fill="#005544">DSC_4521.jpg</text>
  <path d="M 790 512 L 830 512 L 830 492 L 870 529 L 830 566 L 830 546 L 790 546 Z"
        fill="url(#arrow-grad-08)" stroke="#006644" stroke-width="2" stroke-linejoin="round"/>
  <text x="888" y="540" font-family="'Courier New', monospace" font-size="28" fill="#004433" font-weight="700">2024-07-18.jpg</text>

  <!-- EXIF 라벨 -->
  <rect x="260" y="620" width="200" height="50" rx="25" fill="#00AA88" stroke="#008866" stroke-width="2"/>
  <text x="360" y="652" text-anchor="middle" font-family="'Segoe UI', Arial, sans-serif" font-size="28" font-weight="700" fill="white">EXIF</text>
  <!-- 연결선 -->
  <line x1="460" y1="645" x2="560" y2="540" stroke="#008866" stroke-width="3" stroke-dasharray="8,6"/>
  <line x1="460" y1="645" x2="560" y2="446" stroke="#008866" stroke-width="3" stroke-dasharray="8,6"/>
  <line x1="460" y1="645" x2="560" y2="352" stroke="#008866" stroke-width="3" stroke-dasharray="8,6"/>

  <!-- 하단 바 -->
  <rect x="260" y="760" width="704" height="84" rx="18" fill="#005544" stroke="#00AA88" stroke-width="2"/>
  <text x="612" y="812" text-anchor="middle" font-family="'Segoe UI', Arial, sans-serif" font-size="36" font-weight="700" fill="#B0FFE8">메타데이터 기반 일괄 정리</text>
</svg>
