<svg xmlns="http://www.w3.org/2000/svg" viewBox="0 0 1024 1024">
  <!-- icon_07: literal · 기하학 추상 · 4지선다 그리드 + 정답 체크 -->
  <rect x="0" y="0" width="1024" height="1024" rx="200" fill="#FFEBEE"/>
  <!-- 상단 문제 박스 -->
  <rect x="100" y="100" width="824" height="260" rx="36" fill="#880E4F" stroke="#4A0625" stroke-width="18"/>
  <text x="512" y="230" font-family="Arial Black, sans-serif" font-weight="900" font-size="130" fill="#FFD93D" text-anchor="middle">QUIZ</text>
  <text x="512" y="320" font-family="Arial Black, sans-serif" font-weight="700" font-size="60" fill="#FFFFFF" text-anchor="middle">Question 7 / 20</text>
  <!-- A (정답) -->
  <g>
    <rect x="100" y="420" width="400" height="220" rx="32" fill="#06D6A0" stroke="#056B4F" stroke-width="16"/>
    <circle cx="200" cy="530" r="56" fill="#FFFFFF"/>
    <text x="200" y="557" font-family="Arial Black" font-weight="900" font-size="80" fill="#056B4F" text-anchor="middle">A</text>
    <!-- 체크 -->
    <path d="M 310 530 L 360 580 L 460 470" stroke="#FFFFFF" stroke-width="30" fill="none" stroke-linecap="round" stroke-linejoin="round"/>
  </g>
  <g>
    <rect x="524" y="420" width="400" height="220" rx="32" fill="#FF6B9D" stroke="#880E4F" stroke-width="16"/>
    <circle cx="624" cy="530" r="56" fill="#FFFFFF"/>
    <text x="624" y="557" font-family="Arial Black" font-weight="900" font-size="80" fill="#880E4F" text-anchor="middle">B</text>
    <rect x="720" y="500" width="170" height="16" rx="8" fill="#FFFFFF"/>
    <rect x="720" y="540" width="140" height="16" rx="8" fill="#FFFFFF"/>
  </g>
  <g>
    <rect x="100" y="670" width="400" height="220" rx="32" fill="#3A86FF" stroke="#0D47A1" stroke-width="16"/>
    <circle cx="200" cy="780" r="56" fill="#FFFFFF"/>
    <text x="200" y="807" font-family="Arial Black" font-weight="900" font-size="80" fill="#0D47A1" text-anchor="middle">C</text>
    <rect x="296" y="750" width="170" height="16" rx="8" fill="#FFFFFF"/>
    <rect x="296" y="790" width="140" height="16" rx="8" fill="#FFFFFF"/>
  </g>
  <g>
    <rect x="524" y="670" width="400" height="220" rx="32" fill="#FFD93D" stroke="#B88A00" stroke-width="16"/>
    <circle cx="624" cy="780" r="56" fill="#FFFFFF"/>
    <text x="624" y="807" font-family="Arial Black" font-weight="900" font-size="80" fill="#B88A00" text-anchor="middle">D</text>
    <rect x="720" y="750" width="170" height="16" rx="8" fill="#FFFFFF"/>
    <rect x="720" y="790" width="140" height="16" rx="8" fill="#FFFFFF"/>
  </g>
</svg>
