<svg xmlns="http://www.w3.org/2000/svg" viewBox="0 0 512 512">
  <defs>
    <linearGradient id="bg" x1="0%" y1="0%" x2="100%" y2="100%">
      <stop offset="0%" stop-color="#1a1a1a"/>
      <stop offset="100%" stop-color="#2d2d2d"/>
    </linearGradient>
    <linearGradient id="film" x1="0%" y1="0%" x2="100%" y2="100%">
      <stop offset="0%" stop-color="#e17055"/>
      <stop offset="100%" stop-color="#d63031"/>
    </linearGradient>
    <linearGradient id="photo1" x1="0%" y1="0%" x2="100%" y2="100%">
      <stop offset="0%" stop-color="#74b9ff"/>
      <stop offset="100%" stop-color="#a29bfe"/>
    </linearGradient>
  </defs>
  <rect width="512" height="512" rx="80" fill="url(#bg)"/>
  <!-- Film strip -->
  <rect x="60" y="160" width="392" height="192" rx="8" fill="#1a1a1a" stroke="url(#film)" stroke-width="3"/>
  <!-- Film perforations left -->
  <rect x="68" y="172" width="28" height="22" rx="4" fill="#333"/>
  <rect x="68" y="204" width="28" height="22" rx="4" fill="#333"/>
  <rect x="68" y="236" width="28" height="22" rx="4" fill="#333"/>
  <rect x="68" y="268" width="28" height="22" rx="4" fill="#333"/>
  <rect x="68" y="300" width="28" height="22" rx="4" fill="#333"/>
  <!-- Film perforations right -->
  <rect x="416" y="172" width="28" height="22" rx="4" fill="#333"/>
  <rect x="416" y="204" width="28" height="22" rx="4" fill="#333"/>
  <rect x="416" y="236" width="28" height="22" rx="4" fill="#333"/>
  <rect x="416" y="268" width="28" height="22" rx="4" fill="#333"/>
  <rect x="416" y="300" width="28" height="22" rx="4" fill="#333"/>
  <!-- Photo frames in film -->
  <rect x="108" y="176" width="84" height="160" rx="4" fill="url(#photo1)" opacity="0.7"/>
  <circle cx="150" cy="230" r="24" fill="white" opacity="0.2"/>
  <path d="M108 306 L134 276 L154 292 L170 274 L192 306 Z" fill="white" opacity="0.25"/>
  <rect x="204" y="176" width="104" height="160" rx="4" fill="#fd79a8" opacity="0.6"/>
  <circle cx="256" cy="230" r="28" fill="white" opacity="0.2"/>
  <rect x="320" y="176" width="84" height="160" rx="4" fill="#fdcb6e" opacity="0.6"/>
  <circle cx="362" cy="230" r="24" fill="white" opacity="0.2"/>
  <path d="M320 296 L340 270 L356 284 L372 268 L404 296 Z" fill="white" opacity="0.25"/>
</svg>