<svg xmlns="http://www.w3.org/2000/svg" viewBox="0 0 1024 1024">
  <defs>
    <linearGradient id="bg1" x1="0" y1="0" x2="1" y2="1">
      <stop offset="0%" stop-color="#FFFFFF"/>
      <stop offset="100%" stop-color="#F3F4F6"/>
    </linearGradient>
  </defs>
  <!-- Layer 1: Background -->
  <rect width="1024" height="1024" rx="190" fill="url(#bg1)"/>

  <!-- Layer 2: 3x4 category grid (12 categories) -->
  <!-- Row 1 -->
  <rect x="88" y="100" width="198" height="172" rx="18" fill="#E53935"/>
  <text x="187" y="165" font-family="Segoe UI Emoji, sans-serif" font-size="80" text-anchor="middle">🔬</text>
  <text x="187" y="255" font-family="Arial Black, sans-serif" font-size="34" font-weight="900" fill="white" text-anchor="middle">Science</text>

  <rect x="413" y="100" width="198" height="172" rx="18" fill="#1565C0"/>
  <text x="512" y="165" font-family="Segoe UI Emoji, sans-serif" font-size="80" text-anchor="middle">🏛</text>
  <text x="512" y="255" font-family="Arial Black, sans-serif" font-size="34" font-weight="900" fill="white" text-anchor="middle">History</text>

  <rect x="738" y="100" width="198" height="172" rx="18" fill="#2E7D32"/>
  <text x="837" y="165" font-family="Segoe UI Emoji, sans-serif" font-size="80" text-anchor="middle">💻</text>
  <text x="837" y="255" font-family="Arial Black, sans-serif" font-size="34" font-weight="900" fill="white" text-anchor="middle">IT</text>

  <!-- Row 2 -->
  <rect x="88" y="296" width="198" height="172" rx="18" fill="#F57F17"/>
  <text x="187" y="361" font-family="Segoe UI Emoji, sans-serif" font-size="80" text-anchor="middle">⚽</text>
  <text x="187" y="451" font-family="Arial Black, sans-serif" font-size="34" font-weight="900" fill="white" text-anchor="middle">Sports</text>

  <rect x="413" y="296" width="198" height="172" rx="18" fill="#6A1B9A"/>
  <text x="512" y="361" font-family="Segoe UI Emoji, sans-serif" font-size="80" text-anchor="middle">🎬</text>
  <text x="512" y="451" font-family="Arial Black, sans-serif" font-size="34" font-weight="900" fill="white" text-anchor="middle">Movies</text>

  <rect x="738" y="296" width="198" height="172" rx="18" fill="#00838F"/>
  <text x="837" y="361" font-family="Segoe UI Emoji, sans-serif" font-size="80" text-anchor="middle">🎵</text>
  <text x="837" y="451" font-family="Arial Black, sans-serif" font-size="34" font-weight="900" fill="white" text-anchor="middle">Music</text>

  <!-- Row 3 -->
  <rect x="88" y="492" width="198" height="172" rx="18" fill="#AD1457"/>
  <text x="187" y="557" font-family="Segoe UI Emoji, sans-serif" font-size="80" text-anchor="middle">🍕</text>
  <text x="187" y="647" font-family="Arial Black, sans-serif" font-size="34" font-weight="900" fill="white" text-anchor="middle">Food</text>

  <rect x="413" y="492" width="198" height="172" rx="18" fill="#1B5E20"/>
  <text x="512" y="557" font-family="Segoe UI Emoji, sans-serif" font-size="80" text-anchor="middle">🌍</text>
  <text x="512" y="647" font-family="Arial Black, sans-serif" font-size="34" font-weight="900" fill="white" text-anchor="middle">Geo</text>

  <rect x="738" y="492" width="198" height="172" rx="18" fill="#E65100"/>
  <text x="837" y="557" font-family="Segoe UI Emoji, sans-serif" font-size="80" text-anchor="middle">➕</text>
  <text x="837" y="647" font-family="Arial Black, sans-serif" font-size="34" font-weight="900" fill="white" text-anchor="middle">Math</text>

  <!-- Row 4 -->
  <rect x="88" y="688" width="198" height="172" rx="18" fill="#4527A0"/>
  <text x="187" y="753" font-family="Segoe UI Emoji, sans-serif" font-size="80" text-anchor="middle">🎨</text>
  <text x="187" y="843" font-family="Arial Black, sans-serif" font-size="34" font-weight="900" fill="white" text-anchor="middle">Art</text>

  <rect x="413" y="688" width="198" height="172" rx="18" fill="#37474F"/>
  <text x="512" y="753" font-family="Segoe UI Emoji, sans-serif" font-size="80" text-anchor="middle">🎮</text>
  <text x="512" y="843" font-family="Arial Black, sans-serif" font-size="34" font-weight="900" fill="white" text-anchor="middle">Games</text>

  <rect x="738" y="688" width="198" height="172" rx="18" fill="#00695C"/>
  <text x="837" y="753" font-family="Segoe UI Emoji, sans-serif" font-size="80" text-anchor="middle">💡</text>
  <text x="837" y="843" font-family="Arial Black, sans-serif" font-size="34" font-weight="900" fill="white" text-anchor="middle">General</text>

  <!-- Layer 3: Center overlay badge -->
  <circle cx="512" cy="512" r="88" fill="#FFD600" stroke="white" stroke-width="10"/>
  <text x="512" y="548" font-family="Arial Black, sans-serif" font-size="88" font-weight="900" fill="#1A237E" text-anchor="middle">?</text>
</svg>
