<svg xmlns="http://www.w3.org/2000/svg" viewBox="0 0 1024 1024">
  <!-- Layer 1: 흰 배경 -->
  <rect width="1024" height="1024" rx="190" fill="#FAFAFA"/>
  <!-- Layer 2: 컬러풀 QR 파인더 패턴 -->
  <!-- 파인더 1 — 좌상 (레드) -->
  <rect x="128" y="128" width="272" height="272" rx="20" fill="#F44336"/>
  <rect x="164" y="164" width="200" height="200" rx="12" fill="#FAFAFA"/>
  <rect x="200" y="200" width="128" height="128" rx="8" fill="#F44336"/>
  <!-- 파인더 2 — 우상 (블루) -->
  <rect x="624" y="128" width="272" height="272" rx="20" fill="#1565C0"/>
  <rect x="660" y="164" width="200" height="200" rx="12" fill="#FAFAFA"/>
  <rect x="696" y="200" width="128" height="128" rx="8" fill="#1565C0"/>
  <!-- 파인더 3 — 좌하 (그린) -->
  <rect x="128" y="624" width="272" height="272" rx="20" fill="#2E7D32"/>
  <rect x="164" y="660" width="200" height="200" rx="12" fill="#FAFAFA"/>
  <rect x="200" y="696" width="128" height="128" rx="8" fill="#2E7D32"/>
  <!-- Layer 3: 컬러풀 데이터 모듈 -->
  <rect x="476" y="128" width="80" height="80" rx="10" fill="#E91E63"/>
  <rect x="476" y="224" width="80" height="80" rx="10" fill="#9C27B0"/>
  <rect x="572" y="476" width="80" height="80" rx="10" fill="#FF9800"/>
  <rect x="668" y="476" width="80" height="80" rx="10" fill="#4CAF50"/>
  <rect x="764" y="476" width="80" height="80" rx="10" fill="#2196F3"/>
  <rect x="476" y="476" width="80" height="80" rx="10" fill="#FF5722"/>
  <rect x="572" y="572" width="80" height="80" rx="10" fill="#F44336"/>
  <rect x="764" y="572" width="80" height="80" rx="10" fill="#9C27B0"/>
  <rect x="572" y="668" width="80" height="80" rx="10" fill="#00BCD4"/>
  <rect x="668" y="668" width="80" height="80" rx="10" fill="#FF9800"/>
  <rect x="668" y="764" width="80" height="80" rx="10" fill="#E91E63"/>
  <rect x="764" y="764" width="80" height="80" rx="10" fill="#1565C0"/>
  <rect x="764" y="668" width="80" height="80" rx="10" fill="#4CAF50"/>
  <rect x="476" y="572" width="80" height="80" rx="10" fill="#FFEB3B"/>
  <rect x="572" y="764" width="80" height="80" rx="10" fill="#8BC34A"/>
</svg>
