<svg xmlns="http://www.w3.org/2000/svg" viewBox="0 0 1024 1024">
  <rect x="80" y="80" width="864" height="864" rx="180" fill="#060006"/>
  <!-- 기어 -->
  <circle cx="512" cy="480" r="160" fill="#4A148C"/>
  <circle cx="512" cy="480" r="90" fill="#060006"/>
  <!-- 기어 톱니 -->
  <rect x="490" y="290" width="44" height="60" rx="8" fill="#4A148C"/>
  <rect x="490" y="610" width="44" height="60" rx="8" fill="#4A148C"/>
  <rect x="630" y="458" width="60" height="44" rx="8" fill="#4A148C"/>
  <rect x="334" y="458" width="60" height="44" rx="8" fill="#4A148C"/>
  <rect x="594" y="322" width="60" height="44" rx="8" transform="rotate(45, 624, 344)" fill="#4A148C"/>
  <rect x="370" y="322" width="60" height="44" rx="8" transform="rotate(-45, 400, 344)" fill="#4A148C"/>
  <rect x="594" y="594" width="60" height="44" rx="8" transform="rotate(-45, 624, 616)" fill="#4A148C"/>
  <rect x="370" y="594" width="60" height="44" rx="8" transform="rotate(45, 400, 616)" fill="#4A148C"/>
  <!-- 문서 -->
  <rect x="450" y="420" width="124" height="120" rx="10" fill="#AB47BC"/>
  <rect x="466" y="446" width="92" height="14" rx="4" fill="#E1BEE7"/>
  <rect x="466" y="470" width="72" height="12" rx="4" fill="#CE93D8"/>
  <rect x="466" y="490" width="82" height="12" rx="4" fill="#CE93D8"/>
</svg>