<svg xmlns="http://www.w3.org/2000/svg" viewBox="0 0 512 512">
  <defs>
    <linearGradient id="bg" x1="0%" y1="0%" x2="100%" y2="100%">
      <stop offset="0%" stop-color="#001200"/>
      <stop offset="100%" stop-color="#001E00"/>
    </linearGradient>
    <linearGradient id="emerald" x1="0%" y1="0%" x2="100%" y2="100%">
      <stop offset="0%" stop-color="#00E676"/>
      <stop offset="100%" stop-color="#00A854"/>
    </linearGradient>
    <radialGradient id="glow" cx="50%" cy="50%" r="50%">
      <stop offset="0%" stop-color="#00E676" stop-opacity="0.2"/>
      <stop offset="100%" stop-color="#00E676" stop-opacity="0"/>
    </radialGradient>
  </defs>
  <rect width="512" height="512" rx="80" fill="url(#bg)"/>
  <!-- Shield -->
  <path d="M256 70 L386 126 L386 260 Q386 368 256 424 Q126 368 126 260 L126 126 Z" fill="url(#emerald)" opacity="0.1" stroke="#00E676" stroke-width="3"/>
  <path d="M256 98 L364 148 L364 256 Q364 352 256 400 Q148 352 148 256 L148 148 Z" fill="#001200" stroke="#00A854" stroke-width="1.5"/>
  <!-- Network connections inside shield -->
  <!-- Center server -->
  <rect x="232" y="232" width="48" height="48" rx="6" fill="#002400" stroke="#00E676" stroke-width="2"/>
  <rect x="240" y="240" width="32" height="8" rx="2" fill="#00E676" opacity="0.6"/>
  <rect x="240" y="252" width="32" height="8" rx="2" fill="#00A854" opacity="0.6"/>
  <rect x="240" y="264" width="32" height="8" rx="2" fill="#00E676" opacity="0.6"/>
  <!-- Connected ports -->
  <circle cx="192" cy="176" r="18" fill="#002400" stroke="#00E676" stroke-width="2"/>
  <text x="192" y="181" text-anchor="middle" font-family="Consolas" font-size="10" fill="#00E676">:80</text>
  <circle cx="320" cy="176" r="18" fill="#002400" stroke="#00E676" stroke-width="2"/>
  <text x="320" y="181" text-anchor="middle" font-family="Consolas" font-size="9" fill="#00E676">:443</text>
  <circle cx="178" cy="300" r="18" fill="#002400" stroke="#00A854" stroke-width="2"/>
  <text x="178" y="305" text-anchor="middle" font-family="Consolas" font-size="10" fill="#00A854">:22</text>
  <circle cx="334" cy="300" r="18" fill="#002400" stroke="#00A854" stroke-width="2"/>
  <text x="334" y="305" text-anchor="middle" font-family="Consolas" font-size="8" fill="#00A854">:3306</text>
  <!-- Connection lines -->
  <line x1="202" y1="188" x2="236" y2="242" stroke="#00E676" stroke-width="1.5" opacity="0.5"/>
  <line x1="310" y1="188" x2="276" y2="242" stroke="#00E676" stroke-width="1.5" opacity="0.5"/>
  <line x1="190" y1="308" x2="236" y2="268" stroke="#00A854" stroke-width="1.5" opacity="0.5"/>
  <line x1="322" y1="308" x2="276" y2="268" stroke="#00A854" stroke-width="1.5" opacity="0.5"/>
  <!-- Glow -->
  <circle cx="256" cy="256" r="100" fill="url(#glow)"/>
</svg>