<svg xmlns="http://www.w3.org/2000/svg" viewBox="0 0 1024 1024">
  <defs>
    <linearGradient id="bg08" x1="0" y1="0" x2="0.2" y2="1">
      <stop offset="0%" stop-color="#059669"/>
      <stop offset="100%" stop-color="#047857"/>
    </linearGradient>
    <clipPath id="clip08"><rect width="1024" height="1024" rx="190"/></clipPath>
  </defs>
  <rect width="1024" height="1024" rx="190" fill="url(#bg08)"/>
  <g clip-path="url(#clip08)">
    <!-- Layer 2: 테이블 격자 -->
    <!-- 테이블 외곽 -->
    <rect x="130" y="220" width="764" height="580" rx="14" fill="#FFFFFF" opacity="0.1"/>
    <rect x="130" y="220" width="764" height="580" rx="14" fill="none" stroke="#FFFFFF" stroke-width="8"/>
    <!-- 헤더 행 배경 -->
    <rect x="130" y="220" width="764" height="88" rx="14" fill="#FDE68A" opacity="0.85"/>
    <rect x="130" y="262" width="764" height="46" fill="#FDE68A" opacity="0.85"/>
    <!-- 세로 구분선 -->
    <line x1="384" y1="220" x2="384" y2="800" stroke="#FFFFFF" stroke-width="6"/>
    <line x1="638" y1="220" x2="638" y2="800" stroke="#FFFFFF" stroke-width="6"/>
    <!-- 가로 구분선 -->
    <line x1="130" y1="308" x2="894" y2="308" stroke="#FFFFFF" stroke-width="6"/>
    <line x1="130" y1="453" x2="894" y2="453" stroke="#FFFFFF" stroke-width="6"/>
    <line x1="130" y1="598" x2="894" y2="598" stroke="#FFFFFF" stroke-width="6"/>
    <!-- 헤더 텍스트 -->
    <text x="257" y="277" font-family="'Segoe UI',Arial,sans-serif" font-size="36" font-weight="800" fill="#065F46" text-anchor="middle">Name</text>
    <text x="511" y="277" font-family="'Segoe UI',Arial,sans-serif" font-size="36" font-weight="800" fill="#065F46" text-anchor="middle">Type</text>
    <text x="766" y="277" font-family="'Segoe UI',Arial,sans-serif" font-size="36" font-weight="800" fill="#065F46" text-anchor="middle">Value</text>
    <!-- 데이터 행 1 -->
    <rect x="145" y="330" width="225" height="20" rx="5" fill="#FFFFFF" opacity="0.6"/>
    <rect x="400" y="330" width="220" height="20" rx="5" fill="#FFFFFF" opacity="0.5"/>
    <rect x="654" y="330" width="222" height="20" rx="5" fill="#A7F3D0" opacity="0.8"/>
    <!-- 데이터 행 2 -->
    <rect x="130" y="453" width="764" height="145" fill="#FFFFFF" opacity="0.05"/>
    <rect x="145" y="475" width="200" height="20" rx="5" fill="#FFFFFF" opacity="0.6"/>
    <rect x="400" y="475" width="180" height="20" rx="5" fill="#FFFFFF" opacity="0.5"/>
    <rect x="654" y="475" width="200" height="20" rx="5" fill="#A7F3D0" opacity="0.8"/>
    <!-- 데이터 행 3 -->
    <rect x="145" y="620" width="215" height="20" rx="5" fill="#FFFFFF" opacity="0.6"/>
    <rect x="400" y="620" width="195" height="20" rx="5" fill="#FFFFFF" opacity="0.5"/>
    <rect x="654" y="620" width="205" height="20" rx="5" fill="#A7F3D0" opacity="0.8"/>
    <!-- Layer 3: 하단 .md 표시 -->
    <text x="512" y="870" font-family="'Courier New',monospace" font-size="38" fill="#FDE68A" text-anchor="middle" font-weight="700">| md | table |</text>
  </g>
</svg>
