<svg xmlns="http://www.w3.org/2000/svg" viewBox="0 0 1024 1024">
  <defs>
    <linearGradient id="bg04" x1="0" y1="0" x2="0.3" y2="1">
      <stop offset="0%" stop-color="#B45309"/>
      <stop offset="100%" stop-color="#92400E"/>
    </linearGradient>
    <clipPath id="clip04"><rect width="1024" height="1024" rx="190"/></clipPath>
  </defs>
  <rect width="1024" height="1024" rx="190" fill="url(#bg04)"/>
  <g clip-path="url(#clip04)">
    <!-- Layer 2: 펼쳐진 책 -->
    <!-- 책 왼쪽 -->
    <path d="M150,260 Q150,820 512,820 L512,260 Z" fill="#FDE68A" opacity="0.92"/>
    <!-- 책 오른쪽 -->
    <path d="M874,260 Q874,820 512,820 L512,260 Z" fill="#FDE68A" opacity="0.78"/>
    <!-- 책 척추(중간선) -->
    <rect x="502" y="240" width="20" height="596" rx="10" fill="#92400E"/>
    <!-- 책 위 곡선 -->
    <ellipse cx="512" cy="260" rx="362" ry="30" fill="#FDE68A"/>
    <!-- Layer 3: 마크다운 텍스트 흐름 (왼쪽) -->
    <rect x="200" y="320" width="60" height="22" rx="6" fill="#B45309" opacity="0.8"/>
    <rect x="270" y="320" width="180" height="22" rx="6" fill="#B45309" opacity="0.6"/>
    <rect x="200" y="360" width="250" height="14" rx="4" fill="#B45309" opacity="0.45"/>
    <rect x="200" y="385" width="220" height="14" rx="4" fill="#B45309" opacity="0.4"/>
    <rect x="200" y="410" width="200" height="14" rx="4" fill="#B45309" opacity="0.35"/>
    <rect x="220" y="444" width="60" height="18" rx="4" fill="#B45309" opacity="0.7"/>
    <rect x="292" y="444" width="150" height="14" rx="4" fill="#B45309" opacity="0.4"/>
    <rect x="220" y="476" width="60" height="18" rx="4" fill="#B45309" opacity="0.7"/>
    <rect x="292" y="476" width="170" height="14" rx="4" fill="#B45309" opacity="0.4"/>
    <!-- 마크다운 텍스트 흐름 (오른쪽 — 렌더링) -->
    <rect x="554" y="316" width="280" height="30" rx="6" fill="#FFFFFF" opacity="0.85"/>
    <rect x="554" y="360" width="250" height="14" rx="4" fill="#FFFFFF" opacity="0.55"/>
    <rect x="554" y="385" width="220" height="14" rx="4" fill="#FFFFFF" opacity="0.5"/>
    <rect x="554" y="410" width="200" height="14" rx="4" fill="#FFFFFF" opacity="0.45"/>
    <!-- 체크박스 렌더링 -->
    <rect x="554" y="440" width="20" height="20" rx="4" fill="none" stroke="#FFFFFF" stroke-width="4"/>
    <polyline points="557,450 564,458 574,442" fill="none" stroke="#FFFFFF" stroke-width="4" stroke-linecap="round" stroke-linejoin="round"/>
    <rect x="586" y="444" width="140" height="14" rx="4" fill="#FFFFFF" opacity="0.5"/>
    <rect x="554" y="476" width="20" height="20" rx="4" fill="none" stroke="#FFFFFF" stroke-width="4"/>
    <rect x="586" y="480" width="160" height="14" rx="4" fill="#FFFFFF" opacity="0.5"/>
  </g>
</svg>
