<svg xmlns="http://www.w3.org/2000/svg" viewBox="0 0 1024 1024">
  <defs>
    <linearGradient id="bg5" x1="0%" y1="0%" x2="100%" y2="100%">
      <stop offset="0%" style="stop-color:#FF2D78"/>
      <stop offset="100%" style="stop-color:#D91A60"/>
    </linearGradient>
  </defs>
  <!-- 배경 -->
  <rect width="1024" height="1024" rx="185" fill="url(#bg5)"/>
  <!-- 태그 1 (위) -->
  <path d="M 240 240 L 680 240 L 740 320 L 680 400 L 240 400 Z" fill="white" stroke="white" stroke-width="6" stroke-linejoin="round"/>
  <circle cx="275" cy="320" r="28" fill="#FF2D78"/>
  <circle cx="620" cy="290" r="18" fill="#FF6B9D"/>
  <circle cx="560" cy="360" r="18" fill="#A78BFA"/>
  <!-- 태그 2 (중간) -->
  <path d="M 220 440 L 700 440 L 764 530 L 700 620 L 220 620 Z" fill="#FFD6E7" stroke="white" stroke-width="6" stroke-linejoin="round"/>
  <circle cx="258" cy="530" r="28" fill="#FF2D78"/>
  <circle cx="640" cy="480" r="18" fill="#34D399"/>
  <circle cx="580" cy="570" r="18" fill="#FBBF24"/>
  <!-- 태그 3 (아래) -->
  <path d="M 240 660 L 680 660 L 740 750 L 680 840 L 240 840 Z" fill="#FFC0D8" stroke="white" stroke-width="6" stroke-linejoin="round"/>
  <circle cx="275" cy="750" r="28" fill="#FF2D78"/>
  <circle cx="610" cy="700" r="18" fill="#60A5FA"/>
  <circle cx="560" cy="790" r="18" fill="#F97316"/>
</svg>
