<svg xmlns="http://www.w3.org/2000/svg" viewBox="0 0 1024 1024">
  <rect x="80" y="80" width="864" height="864" rx="180" fill="#030510"/>
  <!-- Spiral bullet pattern using arcs and dots -->
  <path d="M512,512 Q612,412 712,512 Q812,612 712,712 Q612,812 512,712 Q412,612 412,512 Q412,412 512,312 Q612,212 762,262" fill="none" stroke="#0D47A1" stroke-width="4" opacity="0.5"/>
  <!-- Bullets along spiral -->
  <circle cx="712" cy="512" r="18" fill="#42A5F5"/>
  <circle cx="762" cy="612" r="16" fill="#42A5F5" opacity="0.9"/>
  <circle cx="712" cy="712" r="16" fill="#0D47A1"/>
  <circle cx="612" cy="762" r="16" fill="#42A5F5" opacity="0.8"/>
  <circle cx="512" cy="712" r="14" fill="#0D47A1"/>
  <circle cx="412" cy="612" r="14" fill="#42A5F5" opacity="0.7"/>
  <circle cx="412" cy="512" r="14" fill="#0D47A1"/>
  <circle cx="462" cy="412" r="12" fill="#42A5F5" opacity="0.6"/>
  <circle cx="562" cy="362" r="12" fill="#0D47A1"/>
  <circle cx="662" cy="362" r="12" fill="#42A5F5" opacity="0.5"/>
  <circle cx="762" cy="412" r="11" fill="#0D47A1" opacity="0.8"/>
  <circle cx="812" cy="512" r="11" fill="#42A5F5" opacity="0.4"/>
  <!-- Center player -->
  <polygon points="512,480 490,540 512,525 534,540" fill="#ffffff"/>
  <ellipse cx="512" cy="550" rx="16" ry="10" fill="#42A5F5" opacity="0.7"/>
</svg>
