<svg xmlns="http://www.w3.org/2000/svg" viewBox="0 0 1024 1024">
  <rect x="80" y="80" width="864" height="864" rx="180" fill="#030510"/>
  <!-- Spiral bullet pattern -->
  <circle cx="512" cy="512" r="20" fill="#42A5F5"/>
  <!-- Ring 1 -->
  <circle cx="612" cy="512" r="16" fill="#0D47A1"/>
  <circle cx="562" cy="598" r="16" fill="#0D47A1"/>
  <circle cx="462" cy="598" r="16" fill="#0D47A1"/>
  <circle cx="412" cy="512" r="16" fill="#0D47A1"/>
  <circle cx="462" cy="426" r="16" fill="#0D47A1"/>
  <circle cx="562" cy="426" r="16" fill="#0D47A1"/>
  <!-- Ring 2 -->
  <circle cx="712" cy="512" r="14" fill="#42A5F5" opacity="0.7"/>
  <circle cx="680" cy="638" r="14" fill="#42A5F5" opacity="0.7"/>
  <circle cx="596" cy="730" r="14" fill="#42A5F5" opacity="0.7"/>
  <circle cx="428" cy="730" r="14" fill="#42A5F5" opacity="0.7"/>
  <circle cx="344" cy="638" r="14" fill="#42A5F5" opacity="0.7"/>
  <circle cx="312" cy="512" r="14" fill="#42A5F5" opacity="0.7"/>
  <circle cx="344" cy="386" r="14" fill="#42A5F5" opacity="0.7"/>
  <circle cx="428" cy="294" r="14" fill="#42A5F5" opacity="0.7"/>
  <circle cx="596" cy="294" r="14" fill="#42A5F5" opacity="0.7"/>
  <circle cx="680" cy="386" r="14" fill="#42A5F5" opacity="0.7"/>
  <!-- Outer ring -->
  <circle cx="812" cy="512" r="11" fill="#0D47A1" opacity="0.5"/>
  <circle cx="762" cy="690" r="11" fill="#0D47A1" opacity="0.5"/>
  <circle cx="619" cy="818" r="11" fill="#0D47A1" opacity="0.5"/>
  <circle cx="405" cy="818" r="11" fill="#0D47A1" opacity="0.5"/>
  <circle cx="262" cy="690" r="11" fill="#0D47A1" opacity="0.5"/>
  <circle cx="212" cy="512" r="11" fill="#0D47A1" opacity="0.5"/>
  <circle cx="262" cy="334" r="11" fill="#0D47A1" opacity="0.5"/>
  <circle cx="405" cy="206" r="11" fill="#0D47A1" opacity="0.5"/>
  <circle cx="619" cy="206" r="11" fill="#0D47A1" opacity="0.5"/>
  <circle cx="762" cy="334" r="11" fill="#0D47A1" opacity="0.5"/>
</svg>
