<svg xmlns="http://www.w3.org/2000/svg" viewBox="0 0 1024 1024">
  <rect x="80" y="80" width="864" height="864" rx="180" fill="#030510"/>
  <!-- Shield (hexagon) -->
  <polygon points="512,200 660,290 660,470 512,560 364,470 364,290" fill="none" stroke="#42A5F5" stroke-width="20"/>
  <polygon points="512,240 630,310 630,450 512,520 394,450 394,310" fill="#0D47A1" opacity="0.6"/>
  <!-- Shield emblem -->
  <polygon points="512,300 540,380 620,380 558,428 582,508 512,460 442,508 466,428 404,380 484,380" fill="#42A5F5"/>
  <!-- Explosion around shield -->
  <circle cx="512" cy="680" r="100" fill="none" stroke="#42A5F5" stroke-width="6" opacity="0.4"/>
  <line x1="512" y1="580" x2="512" y2="540" stroke="#42A5F5" stroke-width="6" opacity="0.7"/>
  <line x1="600" y1="620" x2="628" y2="596" stroke="#42A5F5" stroke-width="6" opacity="0.7"/>
  <line x1="636" y1="714" x2="680" y2="714" stroke="#42A5F5" stroke-width="6" opacity="0.7"/>
  <line x1="600" y1="752" x2="628" y2="778" stroke="#42A5F5" stroke-width="6" opacity="0.7"/>
  <line x1="424" y1="620" x2="396" y2="596" stroke="#42A5F5" stroke-width="6" opacity="0.7"/>
  <line x1="388" y1="714" x2="344" y2="714" stroke="#42A5F5" stroke-width="6" opacity="0.7"/>
  <line x1="424" y1="752" x2="396" y2="778" stroke="#42A5F5" stroke-width="6" opacity="0.7"/>
</svg>
