<svg xmlns="http://www.w3.org/2000/svg" viewBox="0 0 1024 1024">
  <!-- Layer 1: Background - 다크 그레이 -->
  <rect width="1024" height="1024" rx="180" fill="#121212"/>
  <!-- Layer 2: 완성 화면 (정답 + 축하) -->
  <!-- 격자 완성 표시 -->
  <rect x="120" y="160" width="784" height="500" rx="20" fill="#1E1E1E"/>
  <!-- 셀 들 (4×3) -->
  <rect x="140" y="180" width="178" height="140" rx="8" fill="#2E7D32"/>
  <text x="229" y="272" font-family="Arial Black,Arial" font-size="96" font-weight="900" fill="white" text-anchor="middle">S</text>
  <rect x="330" y="180" width="178" height="140" rx="8" fill="#2E7D32"/>
  <text x="419" y="272" font-family="Arial Black,Arial" font-size="96" font-weight="900" fill="white" text-anchor="middle">O</text>
  <rect x="520" y="180" width="178" height="140" rx="8" fill="#1A1A1A"/>
  <rect x="710" y="180" width="178" height="140" rx="8" fill="#2E7D32"/>
  <text x="799" y="272" font-family="Arial Black,Arial" font-size="96" font-weight="900" fill="white" text-anchor="middle">E</text>
  <rect x="140" y="332" width="178" height="140" rx="8" fill="#1A1A1A"/>
  <rect x="330" y="332" width="178" height="140" rx="8" fill="#2E7D32"/>
  <text x="419" y="424" font-family="Arial Black,Arial" font-size="96" font-weight="900" fill="white" text-anchor="middle">L</text>
  <rect x="520" y="332" width="178" height="140" rx="8" fill="#2E7D32"/>
  <text x="609" y="424" font-family="Arial Black,Arial" font-size="96" font-weight="900" fill="white" text-anchor="middle">V</text>
  <rect x="710" y="332" width="178" height="140" rx="8" fill="#2E7D32"/>
  <text x="799" y="424" font-family="Arial Black,Arial" font-size="96" font-weight="900" fill="white" text-anchor="middle">S</text>
  <rect x="140" y="484" width="178" height="156" rx="8" fill="#2E7D32"/>
  <text x="229" y="580" font-family="Arial Black,Arial" font-size="96" font-weight="900" fill="white" text-anchor="middle">E</text>
  <rect x="330" y="484" width="178" height="156" rx="8" fill="#1A1A1A"/>
  <rect x="520" y="484" width="178" height="156" rx="8" fill="#2E7D32"/>
  <text x="609" y="580" font-family="Arial Black,Arial" font-size="96" font-weight="900" fill="white" text-anchor="middle">E</text>
  <rect x="710" y="484" width="178" height="156" rx="8" fill="#1A1A1A"/>
  <!-- Layer 3: 완성 배지 + 점수 -->
  <text x="512" y="760" font-family="Arial Black,Arial" font-size="72" font-weight="900" fill="#69F0AE" text-anchor="middle">SOLVED! ✓</text>
  <text x="512" y="860" font-family="Arial" font-size="48" fill="#4CAF50" text-anchor="middle">Score: 1,250 pts</text>
</svg>
