<svg xmlns="http://www.w3.org/2000/svg" viewBox="0 0 1024 1024">
  <rect x="80" y="80" width="864" height="864" rx="180" fill="#0A0500"/>
  <!-- Candle flame: keep lit -->
  <!-- Candle body -->
  <rect x="412" y="560" width="200" height="280" rx="20" fill="#FF6F00"/>
  <!-- Wick -->
  <line x1="512" y1="560" x2="512" y2="500" stroke="#FFA726" stroke-width="16" stroke-linecap="round"/>
  <!-- Flame -->
  <path d="M512 500 Q580 440 560 340 Q540 260 512 200 Q484 260 464 340 Q444 440 512 500 Z" fill="#FFA726"/>
  <path d="M512 490 Q548 450 536 380 Q524 320 512 280 Q500 320 488 380 Q476 450 512 490 Z" fill="#FF6F00" opacity="0.7"/>
  <!-- Wax drips -->
  <ellipse cx="412" cy="565" rx="20" ry="12" fill="#FFA726" opacity="0.6"/>
  <ellipse cx="612" cy="570" rx="16" ry="10" fill="#FFA726" opacity="0.5"/>
  <!-- Base plate -->
  <ellipse cx="512" cy="840" rx="160" ry="22" fill="#FF6F00" opacity="0.6"/>
</svg>
