<svg viewBox="0 0 1024 1024" xmlns="http://www.w3.org/2000/svg">
  <defs>
    <linearGradient id="bg" x1="0" y1="0" x2="0" y2="1">
      <stop offset="0%" stop-color="#212121"/>
      <stop offset="100%" stop-color="#424242"/>
    </linearGradient>
  </defs>
  <!-- Layer 1: Background (dark scanner) -->
  <rect width="1024" height="1024" rx="200" fill="url(#bg)"/>
  <!-- Layer 2: Barcode bars (path encoded) -->
  <!-- Barcode outer frame -->
  <rect x="120" y="280" width="780" height="380" rx="8" fill="#1A1A1A"/>
  <!-- Barcode bars — thin and thick alternating -->
  <rect x="150" y="300" width="14" height="300" fill="white"/>
  <rect x="174" y="300" width="8" height="300" fill="white"/>
  <rect x="194" y="300" width="20" height="300" fill="white"/>
  <rect x="226" y="300" width="8" height="300" fill="white"/>
  <rect x="246" y="300" width="14" height="300" fill="white"/>
  <rect x="270" y="300" width="24" height="300" fill="white"/>
  <rect x="306" y="300" width="8" height="300" fill="white"/>
  <rect x="326" y="300" width="16" height="300" fill="white"/>
  <rect x="354" y="300" width="8" height="300" fill="white"/>
  <rect x="374" y="300" width="20" height="300" fill="white"/>
  <rect x="406" y="300" width="12" height="300" fill="white"/>
  <rect x="430" y="300" width="8" height="300" fill="white"/>
  <rect x="450" y="300" width="18" height="300" fill="white"/>
  <rect x="480" y="300" width="8" height="300" fill="white"/>
  <rect x="500" y="300" width="22" height="300" fill="white"/>
  <rect x="534" y="300" width="10" height="300" fill="white"/>
  <rect x="556" y="300" width="16" height="300" fill="white"/>
  <rect x="584" y="300" width="8" height="300" fill="white"/>
  <rect x="604" y="300" width="24" height="300" fill="white"/>
  <rect x="640" y="300" width="8" height="300" fill="white"/>
  <rect x="660" y="300" width="14" height="300" fill="white"/>
  <rect x="686" y="300" width="18" height="300" fill="white"/>
  <rect x="716" y="300" width="8" height="300" fill="white"/>
  <rect x="736" y="300" width="20" height="300" fill="white"/>
  <rect x="768" y="300" width="8" height="300" fill="white"/>
  <rect x="788" y="300" width="16" height="300" fill="white"/>
  <rect x="816" y="300" width="14" height="300" fill="white"/>
  <rect x="840" y="300" width="8" height="300" fill="white"/>
  <rect x="860" y="300" width="14" height="300" fill="white"/>
  <!-- Laser scan line -->
  <rect x="120" y="435" width="780" height="12" rx="6" fill="#FF1744" opacity="0.8"/>
  <rect x="120" y="431" width="780" height="20" rx="8" fill="#FF1744" opacity="0.15"/>
  <!-- Layer 3: Path text below barcode -->
  <text x="512" y="730" text-anchor="middle" dominant-baseline="middle" font-size="68" font-family="Consolas,monospace" fill="#69F0AE">C:\Users\file.txt</text>
  <!-- Clipboard copy icon bottom-right -->
  <circle cx="820" cy="840" r="80" fill="#FF6D00"/>
  <rect x="790" y="808" width="52" height="52" rx="8" fill="white" opacity="0.9"/>
  <rect x="804" y="822" width="52" height="52" rx="8" fill="#FF6D00" stroke="white" stroke-width="7"/>
</svg>
