<svg xmlns="http://www.w3.org/2000/svg" viewBox="0 0 1024 1024">
  <defs>
    <linearGradient id="bg09" x1="0%" y1="0%" x2="100%" y2="100%">
      <stop offset="0%" stop-color="#F59E0B"/>
      <stop offset="100%" stop-color="#D97706"/>
    </linearGradient>
  </defs>

  <!-- Background: amber/golden -->
  <rect width="1024" height="1024" rx="190" fill="url(#bg09)"/>

  <!-- Explorer address bar (large, centered) -->
  <rect x="112" y="260" width="800" height="80" rx="16" fill="white" opacity="0.96"/>
  <!-- Back/Forward buttons -->
  <rect x="126" y="274" width="52" height="52" rx="10" fill="#E5E7EB"/>
  <text x="152" y="308" font-family="Arial,sans-serif" font-size="32" fill="#374151" text-anchor="middle">‹</text>
  <rect x="188" y="274" width="52" height="52" rx="10" fill="#E5E7EB"/>
  <text x="214" y="308" font-family="Arial,sans-serif" font-size="32" fill="#9CA3AF" text-anchor="middle">›</text>

  <!-- Path text in bar (highlighted/selected) -->
  <rect x="252" y="274" width="550" height="52" rx="8" fill="#DBEAFE"/>
  <text x="264" y="308" font-family="Consolas,monospace" font-size="26" fill="#1E3A5F" font-weight="bold">C:\Users\admin\Documents</text>

  <!-- Copy button in address bar -->
  <rect x="816" y="274" width="82" height="52" rx="10" fill="#2563EB"/>
  <text x="857" y="308" font-family="Arial,sans-serif" font-size="28" fill="white" text-anchor="middle" font-weight="bold">⎘</text>

  <!-- Format selector panel below -->
  <rect x="112" y="370" width="800" height="420" rx="20" fill="white" opacity="0.92"/>

  <!-- Format options grid -->
  <!-- Row 1 -->
  <rect x="130" y="390" width="234" height="58" rx="10" fill="#EFF6FF"/>
  <rect x="130" y="390" width="8" height="58" rx="4" fill="#3B82F6"/>
  <text x="148" y="418" font-family="Consolas,monospace" font-size="20" fill="#1E3A5F" font-weight="bold">full \</text>
  <text x="148" y="438" font-family="Consolas,monospace" font-size="16" fill="#6B7280">C:\Users\ad...</text>

  <rect x="376" y="390" width="234" height="58" rx="10" fill="#FFF7ED"/>
  <rect x="376" y="390" width="8" height="58" rx="4" fill="#F59E0B"/>
  <text x="394" y="418" font-family="Consolas,monospace" font-size="20" fill="#92400E" font-weight="bold">slash /</text>
  <text x="394" y="438" font-family="Consolas,monospace" font-size="16" fill="#6B7280">C:/Users/ad...</text>

  <rect x="622" y="390" width="234" height="58" rx="10" fill="#F5F3FF"/>
  <rect x="622" y="390" width="8" height="58" rx="4" fill="#8B5CF6"/>
  <text x="640" y="418" font-family="Consolas,monospace" font-size="20" fill="#4C1D95" font-weight="bold">C#</text>
  <text x="640" y="438" font-family="Consolas,monospace" font-size="16" fill="#6B7280">C:\\Users\\a...</text>

  <!-- Row 2 -->
  <rect x="130" y="466" width="234" height="58" rx="10" fill="#F0FDF4"/>
  <rect x="130" y="466" width="8" height="58" rx="4" fill="#22C55E"/>
  <text x="148" y="494" font-family="Consolas,monospace" font-size="20" fill="#166534" font-weight="bold">filename</text>
  <text x="148" y="514" font-family="Consolas,monospace" font-size="16" fill="#6B7280">file.txt</text>

  <rect x="376" y="466" width="234" height="58" rx="10" fill="#FFF1F2"/>
  <rect x="376" y="466" width="8" height="58" rx="4" fill="#EF4444"/>
  <text x="394" y="494" font-family="Consolas,monospace" font-size="20" fill="#991B1B" font-weight="bold">no ext</text>
  <text x="394" y="514" font-family="Consolas,monospace" font-size="16" fill="#6B7280">file</text>

  <rect x="622" y="466" width="234" height="58" rx="10" fill="#F0F9FF"/>
  <rect x="622" y="390" width="8" height="134" rx="0" fill="transparent"/>
  <rect x="622" y="466" width="8" height="58" rx="4" fill="#0EA5E9"/>
  <text x="640" y="494" font-family="Consolas,monospace" font-size="20" fill="#0C4A6E" font-weight="bold">dir</text>
  <text x="640" y="514" font-family="Consolas,monospace" font-size="16" fill="#6B7280">C:\Users\admin</text>

  <!-- Row 3 -->
  <rect x="130" y="542" width="234" height="58" rx="10" fill="#FEFCE8"/>
  <rect x="130" y="542" width="8" height="58" rx="4" fill="#EAB308"/>
  <text x="148" y="570" font-family="Consolas,monospace" font-size="20" fill="#713F12" font-weight="bold">file:///</text>
  <text x="148" y="590" font-family="Consolas,monospace" font-size="14" fill="#6B7280">file:///C:/Use...</text>

  <rect x="376" y="542" width="234" height="58" rx="10" fill="#FDF4FF"/>
  <rect x="376" y="542" width="8" height="58" rx="4" fill="#D946EF"/>
  <text x="394" y="570" font-family="Consolas,monospace" font-size="20" fill="#701A75" font-weight="bold">unix</text>
  <text x="394" y="590" font-family="Consolas,monospace" font-size="16" fill="#6B7280">/c/Users/admin</text>

  <rect x="622" y="542" width="234" height="58" rx="10" fill="#FFF8F1"/>
  <rect x="622" y="542" width="8" height="58" rx="4" fill="#FB923C"/>
  <text x="640" y="570" font-family="Consolas,monospace" font-size="20" fill="#7C2D12" font-weight="bold">UNC</text>
  <text x="640" y="590" font-family="Consolas,monospace" font-size="14" fill="#6B7280">\\HOST\C$\Use...</text>
</svg>
