<svg xmlns="http://www.w3.org/2000/svg" viewBox="0 0 512 512">
  <defs>
    <linearGradient id="bg" x1="0%" y1="0%" x2="100%" y2="100%">
      <stop offset="0%" style="stop-color:#1A0A00"/>
      <stop offset="100%" style="stop-color:#3A1A00"/>
    </linearGradient>
    <linearGradient id="wing1" x1="0%" y1="0%" x2="100%" y2="100%">
      <stop offset="0%" style="stop-color:#FFAA00"/>
      <stop offset="100%" style="stop-color:#FF6600"/>
    </linearGradient>
    <linearGradient id="wing2" x1="100%" y1="0%" x2="0%" y2="100%">
      <stop offset="0%" style="stop-color:#FFAA00"/>
      <stop offset="100%" style="stop-color:#FF6600"/>
    </linearGradient>
    <radialGradient id="core" cx="50%" cy="50%" r="50%">
      <stop offset="0%" style="stop-color:#FFFFFF"/>
      <stop offset="50%" style="stop-color:#FFDD44"/>
      <stop offset="100%" style="stop-color:#FF8800"/>
    </radialGradient>
  </defs>
  <rect width="512" height="512" rx="80" fill="url(#bg)"/>
  <!-- Left wing -->
  <path d="M256 256 C200 200 100 180 80 256 C100 280 180 260 256 256Z" fill="url(#wing1)" opacity="0.9"/>
  <path d="M256 256 C210 220 120 210 100 300 C140 300 200 270 256 256Z" fill="url(#wing1)" opacity="0.7"/>
  <path d="M256 256 C220 240 150 250 140 330 C175 320 215 285 256 256Z" fill="url(#wing1)" opacity="0.5"/>
  <!-- Right wing -->
  <path d="M256 256 C312 200 412 180 432 256 C412 280 332 260 256 256Z" fill="url(#wing2)" opacity="0.9"/>
  <path d="M256 256 C302 220 392 210 412 300 C372 300 312 270 256 256Z" fill="url(#wing2)" opacity="0.7"/>
  <path d="M256 256 C292 240 362 250 372 330 C337 320 297 285 256 256Z" fill="url(#wing2)" opacity="0.5"/>
  <!-- Core circle -->
  <circle cx="256" cy="256" r="38" fill="url(#core)"/>
  <!-- Rocket arrow in core -->
  <path d="M256 230 L268 256 L256 244 L244 256 Z" fill="white" opacity="0.9"/>
</svg>
