<svg xmlns="http://www.w3.org/2000/svg" viewBox="0 0 1024 1024">
  <rect x="80" y="80" width="864" height="864" rx="180" ry="180" fill="#0A0005"/>
  <!-- 색상 스포이드 추출 -->
  <rect x="180" y="280" width="460" height="300" rx="20" fill="#880E4F" opacity="0.3"/>
  <rect x="180" y="280" width="460" height="300" rx="20" fill="none" stroke="#880E4F" stroke-width="22"/>
  <!-- 컬러 스와치 -->
  <rect x="210" y="310" width="80" height="80" rx="10" fill="#F48FB1"/>
  <rect x="310" y="310" width="80" height="80" rx="10" fill="#880E4F"/>
  <rect x="410" y="310" width="80" height="80" rx="10" fill="#F48FB1" opacity="0.5"/>
  <rect x="510" y="310" width="80" height="80" rx="10" fill="#880E4F" opacity="0.7"/>
  <!-- 스포이드 -->
  <path d="M640 720 L520 600 L540 500 L600 460 L740 600 Z" fill="#880E4F"/>
  <path d="M600 460 Q620 420 660 400 Q700 380 720 420 Q740 460 700 480 Z" fill="#F48FB1"/>
  <path d="M640 720 L600 760 Q580 790 560 780 Q540 770 560 750 L590 720 Z" fill="#F48FB1" opacity="0.7"/>
  <!-- 추출된 색 원 -->
  <circle cx="300" cy="680" r="70" fill="#F48FB1"/>
  <circle cx="300" cy="680" r="70" fill="none" stroke="#880E4F" stroke-width="16"/>
</svg>
