<svg xmlns="http://www.w3.org/2000/svg" viewBox="0 0 1024 1024">
  <rect x="80" y="80" width="864" height="864" rx="180" ry="180" fill="#030A0A"/>
  <!-- 8방향 나침반 제스처 -->
  <circle cx="512" cy="512" r="260" fill="none" stroke="#00ACC1" stroke-width="20" opacity="0.4"/>
  <circle cx="512" cy="512" r="40" fill="#00ACC1"/>
  <!-- 8방향 화살표 -->
  <path d="M512 440 L512 290" stroke="#4DD0E1" stroke-width="24" stroke-linecap="round"/>
  <path d="M490 312 L512 290 L534 312" fill="none" stroke="#4DD0E1" stroke-width="20" stroke-linecap="round" stroke-linejoin="round"/>
  <path d="M512 584 L512 734" stroke="#4DD0E1" stroke-width="24" stroke-linecap="round"/>
  <path d="M490 712 L512 734 L534 712" fill="none" stroke="#4DD0E1" stroke-width="20" stroke-linecap="round" stroke-linejoin="round"/>
  <path d="M440 512 L290 512" stroke="#4DD0E1" stroke-width="24" stroke-linecap="round"/>
  <path d="M312 490 L290 512 L312 534" fill="none" stroke="#4DD0E1" stroke-width="20" stroke-linecap="round" stroke-linejoin="round"/>
  <path d="M584 512 L734 512" stroke="#4DD0E1" stroke-width="24" stroke-linecap="round"/>
  <path d="M712 490 L734 512 L712 534" fill="none" stroke="#4DD0E1" stroke-width="20" stroke-linecap="round" stroke-linejoin="round"/>
  <!-- 대각선 4방향 (얇게) -->
  <line x1="560" y1="464" x2="684" y2="340" stroke="#00ACC1" stroke-width="14" stroke-linecap="round" opacity="0.6"/>
  <line x1="464" y1="464" x2="340" y2="340" stroke="#00ACC1" stroke-width="14" stroke-linecap="round" opacity="0.6"/>
  <line x1="560" y1="560" x2="684" y2="684" stroke="#00ACC1" stroke-width="14" stroke-linecap="round" opacity="0.6"/>
  <line x1="464" y1="560" x2="340" y2="684" stroke="#00ACC1" stroke-width="14" stroke-linecap="round" opacity="0.6"/>
</svg>
