<svg xmlns="http://www.w3.org/2000/svg" viewBox="0 0 512 512">
  <defs>
    <linearGradient id="bg" x1="0%" y1="0%" x2="100%" y2="100%">
      <stop offset="0%" stop-color="#064E3B"/>
      <stop offset="100%" stop-color="#065F46"/>
    </linearGradient>
    <linearGradient id="panel" x1="0%" y1="0%" x2="0%" y2="100%">
      <stop offset="0%" stop-color="#1a2e22"/>
      <stop offset="100%" stop-color="#0f1e17"/>
    </linearGradient>
    <linearGradient id="header" x1="0%" y1="0%" x2="100%" y2="0%">
      <stop offset="0%" stop-color="#059669"/>
      <stop offset="100%" stop-color="#10B981"/>
    </linearGradient>
  </defs>
  <rect width="512" height="512" rx="80" fill="url(#bg)"/>
  <!-- App window frame -->
  <rect x="50" y="80" width="412" height="360" rx="12" fill="url(#panel)" stroke="#059669" stroke-width="2"/>
  <!-- Title bar -->
  <rect x="50" y="80" width="412" height="36" rx="12" fill="url(#header)"/>
  <rect x="50" y="98" width="412" height="18" fill="url(#header)"/>
  <!-- Window buttons -->
  <circle cx="80" cy="98" r="7" fill="#FF5F57"/>
  <circle cx="104" cy="98" r="7" fill="#FFBD2E"/>
  <circle cx="128" cy="98" r="7" fill="#28C940"/>
  <!-- Title text -->
  <rect x="190" y="91" width="130" height="14" rx="4" fill="white" opacity="0.4"/>
  <!-- Divider -->
  <line x1="256" y1="116" x2="256" y2="440" stroke="#059669" stroke-width="2" opacity="0.7"/>
  <!-- Left panel - markdown source -->
  <rect x="60" y="124" width="12" height="10" rx="2" fill="#10B981" opacity="0.8"/>
  <rect x="76" y="124" width="70" height="10" rx="2" fill="#6EE7B7" opacity="0.6"/>
  <rect x="68" y="142" width="80" height="8" rx="2" fill="#34D399" opacity="0.5"/>
  <rect x="68" y="158" width="60" height="8" rx="2" fill="#34D399" opacity="0.4"/>
  <rect x="68" y="174" width="90" height="8" rx="2" fill="#34D399" opacity="0.4"/>
  <rect x="60" y="194" width="12" height="10" rx="2" fill="#10B981" opacity="0.8"/>
  <rect x="76" y="194" width="55" height="10" rx="2" fill="#6EE7B7" opacity="0.6"/>
  <rect x="68" y="212" width="100" height="8" rx="2" fill="#34D399" opacity="0.4"/>
  <rect x="68" y="228" width="75" height="8" rx="2" fill="#34D399" opacity="0.4"/>
  <!-- Bullet points left -->
  <circle cx="72" cy="252" r="3" fill="#10B981" opacity="0.8"/>
  <rect x="82" y="248" width="80" height="8" rx="2" fill="#34D399" opacity="0.4"/>
  <circle cx="72" cy="270" r="3" fill="#10B981" opacity="0.8"/>
  <rect x="82" y="266" width="65" height="8" rx="2" fill="#34D399" opacity="0.4"/>
  <!-- Right panel - rendered preview -->
  <!-- H1 heading -->
  <rect x="268" y="124" width="160" height="16" rx="3" fill="white" opacity="0.7"/>
  <rect x="268" y="124" width="160" height="16" rx="3" fill="#6EE7B7" opacity="0.4"/>
  <!-- Horizontal rule -->
  <line x1="268" y1="150" x2="440" y2="150" stroke="#059669" stroke-width="1.5"/>
  <!-- H2 heading -->
  <rect x="268" y="160" width="120" height="12" rx="3" fill="white" opacity="0.55"/>
  <!-- Paragraph -->
  <rect x="268" y="182" width="166" height="8" rx="2" fill="white" opacity="0.35"/>
  <rect x="268" y="198" width="155" height="8" rx="2" fill="white" opacity="0.35"/>
  <rect x="268" y="214" width="100" height="8" rx="2" fill="white" opacity="0.35"/>
  <!-- List items rendered -->
  <circle cx="278" cy="237" r="4" fill="#10B981" opacity="0.7"/>
  <rect x="290" y="233" width="140" height="8" rx="2" fill="white" opacity="0.35"/>
  <circle cx="278" cy="255" r="4" fill="#10B981" opacity="0.7"/>
  <rect x="290" y="251" width="110" height="8" rx="2" fill="white" opacity="0.35"/>
  <!-- Code block -->
  <rect x="268" y="270" width="166" height="50" rx="5" fill="#0d1f15"/>
  <rect x="278" y="282" width="80" height="7" rx="2" fill="#10B981" opacity="0.8"/>
  <rect x="278" y="297" width="120" height="7" rx="2" fill="#6EE7B7" opacity="0.5"/>
  <!-- Scroll bar -->
  <rect x="446" y="116" width="6" height="325" rx="3" fill="#059669" opacity="0.2"/>
  <rect x="446" y="140" width="6" height="80" rx="3" fill="#059669" opacity="0.7"/>
</svg>
