<svg xmlns="http://www.w3.org/2000/svg" viewBox="0 0 512 512">
  <defs>
    <linearGradient id="bg" x1="0" y1="0" x2="0" y2="1">
      <stop offset="0%" stop-color="#00b4d8"/>
      <stop offset="45%" stop-color="#48cae4"/>
      <stop offset="100%" stop-color="#023e8a"/>
    </linearGradient>
    <radialGradient id="tropsun" cx="75%" cy="15%" r="30%">
      <stop offset="0%" stop-color="#fff9c4"/>
      <stop offset="100%" stop-color="#ffd600" stop-opacity="0"/>
    </radialGradient>
  </defs>
  <rect width="512" height="512" rx="80" fill="url(#bg)"/>
  <rect width="512" height="512" rx="80" fill="url(#tropsun)" opacity="0.6"/>
  <!-- Sun -->
  <circle cx="400" cy="80" r="44" fill="#fff176"/>
  <circle cx="400" cy="80" r="34" fill="#ffee58"/>
  <!-- Palm tree -->
  <rect x="76" y="200" width="18" height="240" rx="5" fill="#5d4037"/>
  <rect x="82" y="200" width="8" height="240" rx="3" fill="#4e342e" opacity="0.4"/>
  <!-- Fronds -->
  <path d="M85 205 Q40 160 10 140 Q40 155 60 175" fill="#2e7d32" stroke="#1b5e20" stroke-width="1"/>
  <path d="M85 205 Q80 150 95 120 Q88 155 88 178" fill="#388e3c" stroke="#2e7d32" stroke-width="1"/>
  <path d="M85 205 Q130 155 160 138 Q132 158 110 180" fill="#2e7d32" stroke="#1b5e20" stroke-width="1"/>
  <path d="M85 205 Q60 190 30 195 Q55 190 72 200" fill="#43a047" stroke="#2e7d32" stroke-width="1"/>
  <path d="M85 205 Q110 185 140 190 Q112 188 95 200" fill="#43a047" stroke="#2e7d32" stroke-width="1"/>
  <!-- Coconuts -->
  <circle cx="90" cy="210" r="8" fill="#795548"/>
  <circle cx="100" cy="216" r="7" fill="#6d4c41"/>
  <!-- Sand -->
  <path d="M0 360 Q80 348 160 360 Q240 372 320 360 Q400 348 512 355 L512 512 L0 512 Z" fill="#f9a825" opacity="0.9"/>
  <path d="M0 370 Q80 360 160 370 Q240 380 320 370 Q400 360 512 366" fill="#fbc02d" opacity="0.7"/>
  <!-- Water -->
  <path d="M0 320 Q80 308 160 320 Q240 332 320 320 Q400 308 512 314 L512 360 Q400 348 320 360 Q240 372 160 360 Q80 348 0 360 Z" fill="#0077b6" opacity="0.85"/>
  <path d="M0 328 Q80 318 160 328 Q240 338 320 328 Q400 318 512 323" fill="none" stroke="#48cae4" stroke-width="2" opacity="0.6"/>
  <!-- Tropical fish 1 -->
  <ellipse cx="260" cy="350" rx="34" ry="16" fill="#ffeb3b"/>
  <path d="M292 345 L310 338 L306 356 Z" fill="#ffc107"/>
  <line x1="268" y1="338" x2="268" y2="362" stroke="#ff9800" stroke-width="2.5"/>
  <line x1="278" y1="337" x2="278" y2="363" stroke="#ff9800" stroke-width="2"/>
  <circle cx="244" cy="347" r="5" fill="white"/>
  <circle cx="246" cy="347" r="2.5" fill="#333"/>
  <!-- Tropical fish 2 -->
  <ellipse cx="360" cy="338" rx="24" ry="11" fill="#e91e63" opacity="0.85"/>
  <path d="M382 334 L396 328 L393 342 Z" fill="#c2185b" opacity="0.85"/>
  <line x1="368" y1="330" x2="368" y2="348" stroke="#ad1457" stroke-width="2"/>
  <!-- Fishing line from sky -->
  <line x1="390" y1="88" x2="370" y2="320" stroke="white" stroke-width="1.5" opacity="0.7"/>
  <!-- Hook -->
  <path d="M370 320 Q372 344 356 354 Q342 362 336 354 Q330 346 337 338 Q344 330 350 338" fill="none" stroke="#ccc" stroke-width="5" stroke-linecap="round"/>
</svg>
