<svg xmlns="http://www.w3.org/2000/svg" viewBox="0 0 512 512">
  <defs>
    <linearGradient id="bg" x1="0%" y1="0%" x2="100%" y2="100%">
      <stop offset="0%" stop-color="#0D47A1"/>
      <stop offset="100%" stop-color="#1A237E"/>
    </linearGradient>
    <linearGradient id="bar" x1="0%" y1="0%" x2="100%" y2="0%">
      <stop offset="0%" stop-color="#42A5F5"/>
      <stop offset="100%" stop-color="#1E88E5"/>
    </linearGradient>
  </defs>
  <rect width="512" height="512" rx="80" fill="url(#bg)"/>
  <!-- 코드 에디터 -->
  <rect x="72" y="118" width="368" height="210" rx="12" fill="#0D1117" stroke="#1E3A5F" stroke-width="2"/>
  <!-- 라인 넘버 -->
  <rect x="72" y="118" width="36" height="210" rx="0" fill="#111827"/>
  <rect x="72" y="118" width="36" height="12" rx="0" fill="#111827"/>
  <text x="85" y="148" text-anchor="middle" font-family="monospace" font-size="13" fill="#3D5166">1</text>
  <text x="85" y="168" text-anchor="middle" font-family="monospace" font-size="13" fill="#3D5166">2</text>
  <text x="85" y="188" text-anchor="middle" font-family="monospace" font-size="13" fill="#3D5166">3</text>
  <text x="85" y="208" text-anchor="middle" font-family="monospace" font-size="13" fill="#3D5166">4</text>
  <text x="85" y="228" text-anchor="middle" font-family="monospace" font-size="13" fill="#3D5166">5</text>
  <!-- 코드 -->
  <text x="120" y="148" font-family="monospace" font-size="13" fill="#79B8FF">function</text>
  <text x="200" y="148" font-family="monospace" font-size="13" fill="#B392F0"> idle()</text>
  <text x="120" y="168" font-family="monospace" font-size="13" fill="#FDFDFD">  let xp</text>
  <text x="168" y="168" font-family="monospace" font-size="13" fill="#79B8FF"> += </text>
  <text x="198" y="168" font-family="monospace" font-size="13" fill="#9ECBFF">rate</text>
  <text x="120" y="188" font-family="monospace" font-size="13" fill="#FDFDFD">  upgrade(</text>
  <text x="206" y="188" font-family="monospace" font-size="13" fill="#9ECBFF">"CPU"</text>
  <text x="254" y="188" font-family="monospace" font-size="13" fill="#FDFDFD">)</text>
  <!-- 경험치 바 -->
  <rect x="72" y="346" width="368" height="16" rx="8" fill="#1E3A5F"/>
  <rect x="72" y="346" width="230" height="16" rx="8" fill="url(#bar)"/>
  <text x="256" y="390" text-anchor="middle" font-family="Arial" font-size="14" fill="#90CAF9">LV.12  EXP 62%</text>
</svg>
