<svg viewBox="0 0 1024 1024" xmlns="http://www.w3.org/2000/svg">
  <!-- Layer 1: Background -->
  <rect width="1024" height="1024" rx="150" fill="#1E1E1E"/>
  <!-- Code editor frame -->
  <rect x="140" y="190" width="744" height="600" rx="18" fill="#252526"/>
  <!-- Title bar -->
  <rect x="140" y="190" width="744" height="44" rx="18" fill="#3C3C3C"/>
  <rect x="140" y="214" width="744" height="20" fill="#3C3C3C"/>
  <!-- Traffic lights -->
  <circle cx="184" cy="212" r="9" fill="#EF4444"/>
  <circle cx="212" cy="212" r="9" fill="#F59E0B"/>
  <circle cx="240" cy="212" r="9" fill="#22C55E"/>
  <!-- Tab -->
  <rect x="280" y="198" width="120" height="28" rx="5" fill="#1E1E1E"/>
  <text x="340" y="217" font-family="Consolas,monospace" font-size="14" fill="#CCCCCC" text-anchor="middle">README.md</text>
  <!-- Layer 2: Code block -->
  <rect x="160" y="264" width="704" height="110" rx="10" fill="#2D2D2D"/>
  <text x="180" y="295" font-family="Consolas,monospace" font-size="20" fill="#CE9178">```python</text>
  <text x="180" y="326" font-family="Consolas,monospace" font-size="20" fill="#9CDCFE">def </text>
  <text x="228" y="326" font-family="Consolas,monospace" font-size="20" fill="#DCDCAA">greet</text>
  <text x="310" y="326" font-family="Consolas,monospace" font-size="20" fill="#CCCCCC">(): </text>
  <text x="180" y="356" font-family="Consolas,monospace" font-size="20" fill="#CE9178">```</text>
  <!-- Inline code -->
  <text x="180" y="414" font-family="Consolas,monospace" font-size="22" fill="#6B7280">Use </text>
  <rect x="228" y="396" width="160" height="28" rx="5" fill="#2D2D2D"/>
  <text x="308" y="416" font-family="Consolas,monospace" font-size="20" fill="#F97316" text-anchor="middle">`markdown`</text>
  <!-- Layer 3: More code lines -->
  <text x="180" y="470" font-family="Consolas,monospace" font-size="22" fill="#569CD6">import </text>
  <text x="306" y="470" font-family="Consolas,monospace" font-size="22" fill="#4EC9B0">Markdig</text>
  <text x="180" y="514" font-family="Consolas,monospace" font-size="22" fill="#4EC9B0">var</text>
  <text x="226" y="514" font-family="Consolas,monospace" font-size="22" fill="#CCCCCC"> html = </text>
  <text x="360" y="514" font-family="Consolas,monospace" font-size="22" fill="#DCDCAA">Render</text>
  <text x="464" y="514" font-family="Consolas,monospace" font-size="22" fill="#CCCCCC">(md);</text>
  <text x="180" y="558" font-family="Consolas,monospace" font-size="20" fill="#6A9955">// Markdig 렌더링</text>
  <!-- Cursor -->
  <rect x="180" y="576" width="12" height="22" fill="#CCCCCC" opacity="0.8"/>
  <!-- Bottom status bar -->
  <rect x="140" y="756" width="744" height="34" rx="8" fill="#007ACC"/>
  <text x="180" y="778" font-family="Consolas,monospace" font-size="13" fill="white">Markdown · UTF-8 · LF</text>
</svg>