<svg xmlns="http://www.w3.org/2000/svg" viewBox="0 0 1024 1024">
  <rect x="80" y="80" width="864" height="864" rx="180" fill="#001A00"/>
  <!-- Choropleth regions: irregular filled polygons -->
  <polygon points="160,200 480,180 520,420 300,500 180,440" fill="#66BB6A" opacity="0.9"/>
  <polygon points="520,420 480,180 840,200 860,460 660,480" fill="#388E3C" opacity="0.85"/>
  <polygon points="300,500 520,420 660,480 620,720 340,760" fill="#388E3C" opacity="0.65"/>
  <polygon points="160,440 300,500 340,760 180,840 150,660" fill="#66BB6A" opacity="0.5"/>
  <polygon points="660,480 860,460 880,760 620,720" fill="#66BB6A" opacity="0.75"/>
  <polygon points="340,760 620,720 580,860 360,860" fill="#388E3C" opacity="0.8"/>
  <!-- Region borders -->
  <polygon points="160,200 480,180 520,420 300,500 180,440" fill="none" stroke="#001A00" stroke-width="6"/>
  <polygon points="520,420 480,180 840,200 860,460 660,480" fill="none" stroke="#001A00" stroke-width="6"/>
  <polygon points="300,500 520,420 660,480 620,720 340,760" fill="none" stroke="#001A00" stroke-width="6"/>
</svg>
