<svg xmlns="http://www.w3.org/2000/svg" viewBox="0 0 1024 1024">
  <defs>
    <linearGradient id="abg1" x1="0" y1="0" x2="1" y2="1">
      <stop offset="0%" stop-color="#9C27B0"/>
      <stop offset="100%" stop-color="#4A148C"/>
    </linearGradient>
  </defs>
  <!-- Layer 1: 딥 퍼플 배경 -->
  <rect width="1024" height="1024" rx="200" fill="url(#abg1)"/>
  <!-- Layer 2: 클립보드 아이콘 (흰색) -->
  <!-- 클립보드 본체 -->
  <rect x="248" y="284" width="528" height="604" rx="40" fill="white"/>
  <!-- 클립 (상단 고정 클립) -->
  <rect x="388" y="224" width="248" height="120" rx="40" fill="white"/>
  <rect x="428" y="256" width="168" height="80" rx="24" fill="#9C27B0"/>
  <!-- 텍스트 줄들 -->
  <rect x="316" y="420" width="392" height="32" rx="16" fill="#CE93D8"/>
  <rect x="316" y="480" width="320" height="32" rx="16" fill="#CE93D8"/>
  <rect x="316" y="540" width="360" height="32" rx="16" fill="#CE93D8"/>
  <rect x="316" y="600" width="280" height="32" rx="16" fill="#E1BEE7"/>
  <!-- Layer 3: AI 스파크 (황금 별들) -->
  <!-- 큰 별 -->
  <polygon points="760,200 780,244 828,244 790,270 804,316 760,290 716,316 730,270 692,244 740,244"
           fill="#FFD740"/>
  <!-- 중간 별 -->
  <polygon points="836,300 848,328 878,328 855,345 863,374 836,357 809,374 817,345 794,328 824,328"
           fill="#FFEE58"/>
  <!-- 작은 별 -->
  <polygon points="700,132 708,152 730,152 713,163 719,183 700,172 681,183 687,163 670,152 692,152"
           fill="#FFD740" opacity="0.9"/>
</svg>
