<svg xmlns="http://www.w3.org/2000/svg" viewBox="0 0 1024 1024">
  <defs>
    <linearGradient id="bg_mv3" x1="0%" y1="0%" x2="100%" y2="100%">
      <stop offset="0%" style="stop-color:#F97316"/>
      <stop offset="100%" style="stop-color:#EA580C"/>
    </linearGradient>
    <radialGradient id="glow3" cx="50%" cy="30%" r="50%">
      <stop offset="0%" style="stop-color:#FEF3C7;stop-opacity:0.9"/>
      <stop offset="100%" style="stop-color:#F97316;stop-opacity:0"/>
    </radialGradient>
  </defs>
  <!-- 배경 -->
  <rect width="1024" height="1024" rx="185" fill="url(#bg_mv3)"/>
  <!-- 책 왼쪽 페이지 -->
  <path d="M 512 280 C 420 280 320 300 260 340 L 260 760 C 320 730 420 720 512 720 Z" fill="white" opacity="0.95"/>
  <!-- 책 오른쪽 페이지 -->
  <path d="M 512 280 C 604 280 704 300 764 340 L 764 760 C 704 730 604 720 512 720 Z" fill="#FFF7ED" opacity="0.90"/>
  <!-- 책 중앙 홈 -->
  <line x1="512" y1="280" x2="512" y2="720" stroke="#F97316" stroke-width="8"/>
  <!-- 왼쪽 페이지 내용 -->
  <rect x="290" y="370" width="180" height="20" rx="6" fill="#FED7AA" opacity="0.8"/>
  <rect x="290" y="404" width="150" height="16" rx="5" fill="#FED7AA" opacity="0.7"/>
  <rect x="290" y="432" width="165" height="16" rx="5" fill="#FED7AA" opacity="0.6"/>
  <rect x="290" y="460" width="130" height="16" rx="5" fill="#FED7AA" opacity="0.6"/>
  <rect x="290" y="510" width="170" height="16" rx="5" fill="#FED7AA" opacity="0.5"/>
  <rect x="290" y="540" width="140" height="16" rx="5" fill="#FED7AA" opacity="0.5"/>
  <!-- 오른쪽 페이지 내용 -->
  <rect x="550" y="370" width="175" height="20" rx="6" fill="#FED7AA" opacity="0.7"/>
  <rect x="550" y="404" width="145" height="16" rx="5" fill="#FED7AA" opacity="0.6"/>
  <rect x="550" y="432" width="160" height="16" rx="5" fill="#FED7AA" opacity="0.5"/>
  <rect x="550" y="460" width="125" height="16" rx="5" fill="#FED7AA" opacity="0.5"/>
  <!-- 황금 빛 방사 -->
  <ellipse cx="512" cy="260" rx="220" ry="80" fill="url(#glow3)"/>
  <!-- 빛 줄기들 -->
  <line x1="512" y1="210" x2="512" y2="160" stroke="#FDE68A" stroke-width="14" stroke-linecap="round" opacity="0.8"/>
  <line x1="460" y1="225" x2="430" y2="180" stroke="#FDE68A" stroke-width="11" stroke-linecap="round" opacity="0.7"/>
  <line x1="564" y1="225" x2="594" y2="180" stroke="#FDE68A" stroke-width="11" stroke-linecap="round" opacity="0.7"/>
  <line x1="415" y1="262" x2="375" y2="228" stroke="#FDE68A" stroke-width="9" stroke-linecap="round" opacity="0.6"/>
  <line x1="609" y1="262" x2="649" y2="228" stroke="#FDE68A" stroke-width="9" stroke-linecap="round" opacity="0.6"/>
</svg>
