<svg xmlns="http://www.w3.org/2000/svg" viewBox="0 0 1024 1024">
  <!-- Layer 1: Background -->
  <rect width="1024" height="1024" rx="190" fill="#050515"/>
  <!-- Layer 2: 청록 다이아몬드 플레이어 (네온 글로우) -->
  <polygon points="512,80 944,512 512,944 80,512" fill="#00FFCC" opacity="0.12"/>
  <polygon points="512,80 944,512 512,944 80,512" fill="none" stroke="#00FFCC" stroke-width="10" opacity="0.4"/>
  <polygon points="512,160 864,512 512,864 160,512" fill="#00CCAA" opacity="0.25"/>
  <polygon points="512,160 864,512 512,864 160,512" fill="none" stroke="#00FFCC" stroke-width="6" opacity="0.7"/>
  <polygon points="512,240 784,512 512,784 240,512" fill="#00FFCC"/>
  <!-- Layer 3: 빨간 총알 8방향 -->
  <circle cx="512" cy="90" r="42" fill="#FF2244"/>
  <circle cx="782" cy="242" r="42" fill="#FF3355"/>
  <circle cx="934" cy="512" r="42" fill="#FF2244"/>
  <circle cx="782" cy="782" r="42" fill="#FF3355"/>
  <circle cx="512" cy="934" r="42" fill="#FF2244"/>
  <circle cx="242" cy="782" r="42" fill="#FF3355"/>
  <circle cx="90" cy="512" r="42" fill="#FF2244"/>
  <circle cx="242" cy="242" r="42" fill="#FF3355"/>
</svg>
