<svg xmlns="http://www.w3.org/2000/svg" viewBox="0 0 1024 1024">
  <!-- Layer 1: Background -->
  <rect width="1024" height="1024" rx="190" fill="#1A0A2A"/>
  <!-- Layer 2: 탄막 포위 장면 — 많은 총알들 -->
  <!-- 외곽 총알 링 -->
  <circle cx="512" cy="100" r="36" fill="#FF2244"/>
  <circle cx="696" cy="148" r="32" fill="#FF4466"/>
  <circle cx="852" cy="260" r="36" fill="#FF2244"/>
  <circle cx="924" cy="440" r="32" fill="#FF4466"/>
  <circle cx="924" cy="584" r="36" fill="#FF2244"/>
  <circle cx="852" cy="764" r="32" fill="#FF4466"/>
  <circle cx="696" cy="876" r="36" fill="#FF2244"/>
  <circle cx="512" cy="924" r="32" fill="#FF4466"/>
  <circle cx="328" cy="876" r="36" fill="#FF2244"/>
  <circle cx="172" cy="764" r="32" fill="#FF4466"/>
  <circle cx="100" cy="584" r="36" fill="#FF2244"/>
  <circle cx="100" cy="440" r="32" fill="#FF4466"/>
  <circle cx="172" cy="260" r="36" fill="#FF2244"/>
  <circle cx="328" cy="148" r="32" fill="#FF4466"/>
  <!-- 중간 링 총알 -->
  <circle cx="512" cy="220" r="28" fill="#FF8800"/>
  <circle cx="724" cy="300" r="28" fill="#FF8800"/>
  <circle cx="804" cy="512" r="28" fill="#FF8800"/>
  <circle cx="724" cy="724" r="28" fill="#FF8800"/>
  <circle cx="512" cy="804" r="28" fill="#FF8800"/>
  <circle cx="300" cy="724" r="28" fill="#FF8800"/>
  <circle cx="220" cy="512" r="28" fill="#FF8800"/>
  <circle cx="300" cy="300" r="28" fill="#FF8800"/>
  <!-- Layer 3: 중앙 다이아몬드 플레이어 -->
  <polygon points="512,360 664,512 512,664 360,512" fill="#00FFCC"/>
  <polygon points="512,360 664,512 512,664 360,512" fill="none" stroke="#00FFCC" stroke-width="8" opacity="0.5"/>
</svg>
