<svg xmlns="http://www.w3.org/2000/svg" viewBox="0 0 1024 1024">
  <rect x="80" y="80" width="864" height="864" rx="180" fill="#000D0D"/>
  <!-- File document -->
  <rect x="240" y="180" width="384" height="480" rx="16" fill="#0d2a2a"/>
  <rect x="240" y="180" width="384" height="480" rx="16" fill="none" stroke="#00838F" stroke-width="16"/>
  <!-- Folded corner -->
  <path d="M544 180 L624 260 L544 260 Z" fill="#00838F"/>
  <!-- File lines -->
  <rect x="280" y="300" width="260" height="16" rx="8" fill="#00838F" opacity="0.5"/>
  <rect x="280" y="340" width="220" height="16" rx="8" fill="#00838F" opacity="0.5"/>
  <rect x="280" y="380" width="280" height="16" rx="8" fill="#26C6DA" opacity="0.8"/>
  <rect x="280" y="420" width="200" height="16" rx="8" fill="#00838F" opacity="0.5"/>
  <rect x="280" y="460" width="240" height="16" rx="8" fill="#00838F" opacity="0.5"/>
  <rect x="280" y="500" width="260" height="16" rx="8" fill="#00838F" opacity="0.3"/>
  <!-- Eye inspecting -->
  <ellipse cx="580" cy="620" rx="220" ry="130" fill="none" stroke="#00838F" stroke-width="22"/>
  <!-- Eyelid curves -->
  <path d="M360 620 Q580 500 800 620" stroke="#00838F" stroke-width="22" fill="none" stroke-linecap="round"/>
  <path d="M360 620 Q580 740 800 620" stroke="#00838F" stroke-width="22" fill="none" stroke-linecap="round"/>
  <!-- Iris -->
  <circle cx="580" cy="620" r="70" fill="#00838F"/>
  <circle cx="580" cy="620" r="42" fill="#000D0D"/>
  <circle cx="580" cy="620" r="24" fill="#26C6DA"/>
</svg>