<svg viewBox="0 0 1024 1024" xmlns="http://www.w3.org/2000/svg">
  <defs>
    <linearGradient id="bgBS8" x1="0" y1="0" x2="1" y2="1">
      <stop offset="0" stop-color="#FBCFE8"/>
      <stop offset="1" stop-color="#A78BFA"/>
    </linearGradient>
  </defs>
  <rect x="72" y="72" width="880" height="880" rx="190" fill="url(#bgBS8)"/>
  <rect x="180" y="220" width="664" height="500" rx="36" fill="#FFFFFF" stroke="#581C87" stroke-width="16"/>
  <defs>
    <linearGradient id="skyBS8" x1="0" y1="0" x2="0" y2="1">
      <stop offset="0" stop-color="#FDE047"/>
      <stop offset="1" stop-color="#FB923C"/>
    </linearGradient>
  </defs>
  <rect x="200" y="240" width="624" height="460" rx="20" fill="url(#skyBS8)"/>
  <circle cx="700" cy="340" r="80" fill="#FEF3C7"/>
  <path d="M 200 620 Q 320 500 440 540 Q 560 580 700 500 Q 780 460 824 540 L 824 700 L 200 700 Z" fill="#065F46"/>
  <path d="M 200 680 Q 340 600 460 640 Q 580 680 700 620 Q 780 590 824 640 L 824 700 L 200 700 Z" fill="#10B981"/>
  <g transform="translate(820 180)">
    <path d="M 40 0 L 50 35 L 85 45 L 50 55 L 40 90 L 30 55 L -5 45 L 30 35 Z" fill="#FDE047" stroke="#581C87" stroke-width="4"/>
  </g>
  <g transform="translate(160 760)">
    <path d="M 30 0 L 37 26 L 63 32 L 37 38 L 30 64 L 23 38 L -3 32 L 23 26 Z" fill="#FFFFFF" stroke="#581C87" stroke-width="4"/>
  </g>
  <g transform="translate(860 720)">
    <path d="M 25 0 L 31 20 L 51 26 L 31 32 L 25 52 L 19 32 L -1 26 L 19 20 Z" fill="#FDE047" stroke="#581C87" stroke-width="4"/>
  </g>
  <rect x="180" y="760" width="664" height="140" rx="30" fill="#FFFFFF" stroke="#581C87" stroke-width="14"/>
  <text x="512" y="870" font-family="Segoe UI, sans-serif" font-size="110" font-weight="900" fill="#7C3AED" text-anchor="middle">HD ENHANCE</text>
</svg>
