<svg viewBox="0 0 1024 1024" xmlns="http://www.w3.org/2000/svg">
  <defs>
    <linearGradient id="bgBS2" x1="0" y1="0" x2="1" y2="1">
      <stop offset="0" stop-color="#FBBF24"/>
      <stop offset="1" stop-color="#F97316"/>
    </linearGradient>
  </defs>
  <rect x="72" y="72" width="880" height="880" rx="190" fill="url(#bgBS2)"/>
  <rect x="160" y="160" width="560" height="560" rx="36" fill="#FFFFFF" stroke="#7C2D12" stroke-width="16"/>
  <g transform="translate(180 180)">
    <circle cx="150" cy="140" r="70" fill="#FDE047"/>
    <path d="M 0 440 Q 140 300 280 340 Q 400 380 520 300 L 520 520 L 0 520 Z" fill="#10B981"/>
  </g>
  <circle cx="720" cy="720" r="200" fill="none" stroke="#FFFFFF" stroke-width="40"/>
  <circle cx="720" cy="720" r="180" fill="rgba(255,255,255,0.5)" stroke="#7C2D12" stroke-width="14"/>
  <circle cx="720" cy="720" r="180" fill="rgba(255,255,255,0.15)"/>
  <g transform="translate(620 620)">
    <circle cx="100" cy="100" r="80" fill="none" stroke="rgba(124,45,18,0.4)" stroke-width="6"/>
    <circle cx="80" cy="90" r="30" fill="#FDE047"/>
    <path d="M 20 170 Q 80 130 140 150 Q 180 170 200 140 L 200 180 L 0 180 Z" fill="#10B981"/>
  </g>
  <line x1="860" y1="860" x2="960" y2="960" stroke="#FFFFFF" stroke-width="48" stroke-linecap="round"/>
  <line x1="860" y1="860" x2="960" y2="960" stroke="#7C2D12" stroke-width="24" stroke-linecap="round"/>
  <text x="420" y="860" font-family="Segoe UI, sans-serif" font-size="120" font-weight="900" fill="#FFFFFF" text-anchor="middle" stroke="#7C2D12" stroke-width="8">4×</text>
</svg>
