<svg viewBox="0 0 1024 1024" xmlns="http://www.w3.org/2000/svg">
  <rect x="72" y="72" width="880" height="880" rx="190" fill="#BBF7D0"/>
  <g transform="translate(140 140)">
    <rect x="0" y="0" width="320" height="320" rx="24" fill="#FFFFFF" stroke="#15803D" stroke-width="14"/>
    <rect x="30" y="30" width="130" height="130" fill="#F472B6"/>
    <rect x="160" y="30" width="130" height="130" fill="#FBBF24"/>
    <rect x="30" y="160" width="130" height="130" fill="#60A5FA"/>
    <rect x="160" y="160" width="130" height="130" fill="#34D399"/>
  </g>
  <g transform="translate(550 540)">
    <rect x="0" y="0" width="340" height="340" rx="24" fill="#FFFFFF" stroke="#15803D" stroke-width="14"/>
    <g>
      <rect x="20" y="20" width="50" height="50" fill="#F472B6"/>
      <rect x="70" y="20" width="50" height="50" fill="#F9A8D4"/>
      <rect x="120" y="20" width="50" height="50" fill="#FBBF24"/>
      <rect x="170" y="20" width="50" height="50" fill="#FCD34D"/>
      <rect x="220" y="20" width="50" height="50" fill="#FBBF24"/>
      <rect x="270" y="20" width="50" height="50" fill="#FCD34D"/>
      <rect x="20" y="70" width="50" height="50" fill="#F9A8D4"/>
      <rect x="70" y="70" width="50" height="50" fill="#FBCFE8"/>
      <rect x="120" y="70" width="50" height="50" fill="#FCD34D"/>
      <rect x="170" y="70" width="50" height="50" fill="#FDE68A"/>
      <rect x="220" y="70" width="50" height="50" fill="#FCD34D"/>
      <rect x="270" y="70" width="50" height="50" fill="#FDE68A"/>
      <rect x="20" y="120" width="50" height="50" fill="#60A5FA"/>
      <rect x="70" y="120" width="50" height="50" fill="#93C5FD"/>
      <rect x="120" y="120" width="50" height="50" fill="#34D399"/>
      <rect x="170" y="120" width="50" height="50" fill="#6EE7B7"/>
      <rect x="220" y="120" width="50" height="50" fill="#34D399"/>
      <rect x="270" y="120" width="50" height="50" fill="#6EE7B7"/>
      <rect x="20" y="170" width="50" height="50" fill="#93C5FD"/>
      <rect x="70" y="170" width="50" height="50" fill="#BFDBFE"/>
      <rect x="120" y="170" width="50" height="50" fill="#6EE7B7"/>
      <rect x="170" y="170" width="50" height="50" fill="#A7F3D0"/>
      <rect x="220" y="170" width="50" height="50" fill="#6EE7B7"/>
      <rect x="270" y="170" width="50" height="50" fill="#A7F3D0"/>
      <rect x="20" y="220" width="50" height="50" fill="#60A5FA"/>
      <rect x="70" y="220" width="50" height="50" fill="#93C5FD"/>
      <rect x="120" y="220" width="50" height="50" fill="#34D399"/>
      <rect x="170" y="220" width="50" height="50" fill="#6EE7B7"/>
      <rect x="220" y="220" width="50" height="50" fill="#34D399"/>
      <rect x="270" y="220" width="50" height="50" fill="#6EE7B7"/>
      <rect x="20" y="270" width="50" height="50" fill="#93C5FD"/>
      <rect x="70" y="270" width="50" height="50" fill="#BFDBFE"/>
      <rect x="120" y="270" width="50" height="50" fill="#6EE7B7"/>
      <rect x="170" y="270" width="50" height="50" fill="#A7F3D0"/>
      <rect x="220" y="270" width="50" height="50" fill="#6EE7B7"/>
      <rect x="270" y="270" width="50" height="50" fill="#A7F3D0"/>
    </g>
  </g>
  <path d="M 480 400 L 560 400 L 560 360 L 640 440 L 560 520 L 560 480 L 480 480 Z" fill="#FDE047" stroke="#15803D" stroke-width="16" stroke-linejoin="round" transform="rotate(45 560 440)"/>
</svg>
