<svg xmlns="http://www.w3.org/2000/svg" viewBox="0 0 1024 1024">
  <rect x="80" y="80" width="864" height="864" rx="180" fill="#030510"/>
  <!-- Bullet pattern grid -->
  <circle cx="260" cy="300" r="28" fill="#0D47A1"/>
  <circle cx="380" cy="220" r="28" fill="#0D47A1"/>
  <circle cx="500" cy="300" r="28" fill="#0D47A1"/>
  <circle cx="620" cy="220" r="28" fill="#0D47A1"/>
  <circle cx="740" cy="300" r="28" fill="#0D47A1"/>
  <circle cx="320" cy="400" r="24" fill="#42A5F5" opacity="0.7"/>
  <circle cx="460" cy="360" r="24" fill="#42A5F5" opacity="0.7"/>
  <circle cx="580" cy="420" r="24" fill="#42A5F5" opacity="0.7"/>
  <circle cx="700" cy="370" r="24" fill="#42A5F5" opacity="0.7"/>
  <circle cx="200" cy="460" r="20" fill="#0D47A1" opacity="0.6"/>
  <circle cx="550" cy="500" r="20" fill="#0D47A1" opacity="0.6"/>
  <circle cx="800" cy="450" r="20" fill="#0D47A1" opacity="0.6"/>
  <!-- Dodge arrow (player dodging) -->
  <polygon points="512,820 412,660 462,660 462,580 562,580 562,660 612,660" fill="#42A5F5"/>
  <!-- Arrow pointing left (dodge direction) -->
  <polygon points="280,720 380,670 380,695 520,695 520,745 380,745 380,770" fill="#ffffff" opacity="0.9"/>
</svg>
