<svg xmlns="http://www.w3.org/2000/svg" viewBox="0 0 512 512">
  <defs>
    <radialGradient id="bg" cx="50%" cy="50%" r="70%">
      <stop offset="0%" stop-color="#141428"/>
      <stop offset="100%" stop-color="#080818"/>
    </radialGradient>
    <linearGradient id="edge" x1="0%" y1="0%" x2="100%" y2="0%">
      <stop offset="0%" stop-color="#ff6600"/>
      <stop offset="100%" stop-color="#ffcc00"/>
    </linearGradient>
  </defs>
  <rect width="512" height="512" rx="80" fill="url(#bg)"/>
  <!-- Edges -->
  <line x1="256" y1="256" x2="130" y2="160" stroke="#ff6600" stroke-width="2" opacity="0.6"/>
  <line x1="256" y1="256" x2="382" y2="160" stroke="#ff8800" stroke-width="2" opacity="0.6"/>
  <line x1="256" y1="256" x2="100" y2="340" stroke="#ffaa00" stroke-width="2" opacity="0.6"/>
  <line x1="256" y1="256" x2="412" y2="340" stroke="#ffcc00" stroke-width="2" opacity="0.6"/>
  <line x1="256" y1="256" x2="256" y2="120" stroke="#ff6600" stroke-width="3" opacity="0.8"/>
  <line x1="130" y1="160" x2="80" y2="220" stroke="#ff6600" stroke-width="1.5" opacity="0.4"/>
  <line x1="382" y1="160" x2="450" y2="220" stroke="#ffcc00" stroke-width="1.5" opacity="0.4"/>
  <!-- Highlighted path -->
  <line x1="256" y1="120" x2="382" y2="160" stroke="#ffcc00" stroke-width="3"/>
  <line x1="382" y1="160" x2="412" y2="340" stroke="#ffcc00" stroke-width="3"/>
  <!-- Nodes -->
  <circle cx="256" cy="256" r="22" fill="#ff6600"/>
  <circle cx="130" cy="160" r="14" fill="#cc4400"/>
  <circle cx="382" cy="160" r="14" fill="#cc6600"/>
  <circle cx="100" cy="340" r="12" fill="#884400"/>
  <circle cx="412" cy="340" r="12" fill="#886600"/>
  <circle cx="256" cy="120" r="16" fill="#ffaa00"/>
  <circle cx="80" cy="220" r="10" fill="#663300"/>
  <circle cx="450" cy="220" r="10" fill="#665500"/>
  <!-- Highlighted nodes -->
  <circle cx="256" cy="120" r="20" fill="none" stroke="#ffcc00" stroke-width="2"/>
  <circle cx="382" cy="160" r="18" fill="none" stroke="#ffcc00" stroke-width="2"/>
  <circle cx="412" cy="340" r="16" fill="none" stroke="#ffcc00" stroke-width="2"/>
  <text x="256" y="460" text-anchor="middle" font-family="monospace" font-size="30" font-weight="bold" fill="#ffaa00">NET.TRACE</text>
</svg>
