<svg xmlns="http://www.w3.org/2000/svg" viewBox="0 0 1024 1024">
  <rect x="0" y="0" width="1024" height="1024" rx="200" fill="#C9B8F0"/>
  <circle cx="220" cy="220" r="60" fill="#FFE873"/>
  <circle cx="820" cy="180" r="35" fill="#FFFFFF" opacity="0.6"/>
  <circle cx="200" cy="820" r="40" fill="#FFFFFF" opacity="0.6"/>
  <ellipse cx="512" cy="640" rx="280" ry="320" fill="#F4B248"/>
  <path d="M 290 480 Q 320 360 420 380 L 360 470 Z" fill="#F4B248"/>
  <path d="M 734 480 Q 704 360 604 380 L 664 470 Z" fill="#F4B248"/>
  <ellipse cx="512" cy="700" rx="200" ry="220" fill="#FFE0A8"/>
  <circle cx="412" cy="580" r="100" fill="#FFFFFF"/>
  <circle cx="612" cy="580" r="100" fill="#FFFFFF"/>
  <circle cx="412" cy="580" r="55" fill="#1F1F2E"/>
  <circle cx="612" cy="580" r="55" fill="#1F1F2E"/>
  <circle cx="430" cy="565" r="20" fill="#FFFFFF"/>
  <circle cx="630" cy="565" r="20" fill="#FFFFFF"/>
  <path d="M 472 700 L 552 700 L 512 770 Z" fill="#E8842B"/>
</svg>
