<svg xmlns="http://www.w3.org/2000/svg" viewBox="0 0 512 512">
  <defs>
    <linearGradient id="bg" x1="0%" y1="0%" x2="100%" y2="100%">
      <stop offset="0%" stop-color="#111122"/>
      <stop offset="100%" stop-color="#221133"/>
    </linearGradient>
  </defs>
  <rect width="512" height="512" rx="80" fill="url(#bg)"/>
  <!-- 8x8 ANSI 256-color grid preview -->
  <!-- Row 1: Standard colors -->
  <rect x="68" y="90" width="44" height="44" rx="4" fill="#000000" stroke="#444" stroke-width="1"/>
  <rect x="118" y="90" width="44" height="44" rx="4" fill="#800000" stroke="#444" stroke-width="1"/>
  <rect x="168" y="90" width="44" height="44" rx="4" fill="#008000" stroke="#444" stroke-width="1"/>
  <rect x="218" y="90" width="44" height="44" rx="4" fill="#808000" stroke="#444" stroke-width="1"/>
  <rect x="268" y="90" width="44" height="44" rx="4" fill="#000080" stroke="#444" stroke-width="1"/>
  <rect x="318" y="90" width="44" height="44" rx="4" fill="#800080" stroke="#444" stroke-width="1"/>
  <rect x="368" y="90" width="44" height="44" rx="4" fill="#008080" stroke="#444" stroke-width="1"/>
  <rect x="418" y="90" width="44" height="44" rx="4" fill="#C0C0C0" stroke="#444" stroke-width="1"/>
  <!-- Row 2: Bright colors -->
  <rect x="68" y="142" width="44" height="44" rx="4" fill="#808080" stroke="#444" stroke-width="1"/>
  <rect x="118" y="142" width="44" height="44" rx="4" fill="#FF0000" stroke="#444" stroke-width="1"/>
  <rect x="168" y="142" width="44" height="44" rx="4" fill="#00FF00" stroke="#444" stroke-width="1"/>
  <rect x="218" y="142" width="44" height="44" rx="4" fill="#FFFF00" stroke="#444" stroke-width="1"/>
  <rect x="268" y="142" width="44" height="44" rx="4" fill="#0000FF" stroke="#444" stroke-width="1"/>
  <rect x="318" y="142" width="44" height="44" rx="4" fill="#FF00FF" stroke="#444" stroke-width="1"/>
  <rect x="368" y="142" width="44" height="44" rx="4" fill="#00FFFF" stroke="#444" stroke-width="1"/>
  <rect x="418" y="142" width="44" height="44" rx="4" fill="#FFFFFF" stroke="#444" stroke-width="1"/>
  <!-- Row 3: 256-color gradient samples -->
  <rect x="68" y="194" width="44" height="44" rx="4" fill="#FF8700" stroke="#444" stroke-width="1"/>
  <rect x="118" y="194" width="44" height="44" rx="4" fill="#FF5F00" stroke="#444" stroke-width="1"/>
  <rect x="168" y="194" width="44" height="44" rx="4" fill="#D75F00" stroke="#444" stroke-width="1"/>
  <rect x="218" y="194" width="44" height="44" rx="4" fill="#AF8700" stroke="#444" stroke-width="1"/>
  <rect x="268" y="194" width="44" height="44" rx="4" fill="#5F8700" stroke="#444" stroke-width="1"/>
  <rect x="318" y="194" width="44" height="44" rx="4" fill="#005F87" stroke="#444" stroke-width="1"/>
  <rect x="368" y="194" width="44" height="44" rx="4" fill="#5F00AF" stroke="#444" stroke-width="1"/>
  <rect x="418" y="194" width="44" height="44" rx="4" fill="#AF00D7" stroke="#444" stroke-width="1"/>
  <!-- Code display -->
  <rect x="68" y="270" width="376" height="80" rx="8" fill="#0A0A16" stroke="#333" stroke-width="1"/>
  <text x="88" y="300" font-family="monospace" font-size="15" fill="#888888"># ANSI 256-color</text>
  <text x="88" y="322" font-family="monospace" font-size="15" fill="#FF8700">\033[38;5;208m</text>
  <text x="250" y="322" font-family="monospace" font-size="15" fill="#00FFFF">\033[48;5;21m</text>
  <!-- Bottom label -->
  <text x="256" y="420" font-family="monospace" font-weight="bold" font-size="28" fill="#888888" text-anchor="middle">256 · COLORS · FORGE</text>
</svg>