<svg xmlns="http://www.w3.org/2000/svg" viewBox="0 0 512 512">
  <defs>
    <linearGradient id="bg" x1="0%" y1="0%" x2="100%" y2="100%">
      <stop offset="0%" stop-color="#050510"/>
      <stop offset="100%" stop-color="#0A0520"/>
    </linearGradient>
    <linearGradient id="wave1" x1="0%" y1="0%" x2="100%" y2="0%">
      <stop offset="0%" stop-color="#FF0000"/>
      <stop offset="16%" stop-color="#FF8800"/>
      <stop offset="33%" stop-color="#FFFF00"/>
      <stop offset="50%" stop-color="#00FF00"/>
      <stop offset="66%" stop-color="#0088FF"/>
      <stop offset="83%" stop-color="#4400FF"/>
      <stop offset="100%" stop-color="#FF00FF"/>
    </linearGradient>
  </defs>
  <rect width="512" height="512" rx="80" fill="url(#bg)"/>
  <!-- Spectrum bars -->
  <rect x="60" y="150" width="28" height="212" rx="4" fill="#FF0000" opacity="0.85"/>
  <rect x="96" y="120" width="28" height="242" rx="4" fill="#FF4400" opacity="0.85"/>
  <rect x="132" y="100" width="28" height="262" rx="4" fill="#FF8800" opacity="0.85"/>
  <rect x="168" y="130" width="28" height="232" rx="4" fill="#FFCC00" opacity="0.85"/>
  <rect x="204" y="90" width="28" height="272" rx="4" fill="#FFFF00" opacity="0.85"/>
  <rect x="240" y="110" width="28" height="252" rx="4" fill="#88FF00" opacity="0.85"/>
  <rect x="276" y="80" width="28" height="282" rx="4" fill="#00FF00" opacity="0.85"/>
  <rect x="312" y="115" width="28" height="247" rx="4" fill="#00FFAA" opacity="0.85"/>
  <rect x="348" y="140" width="28" height="222" rx="4" fill="#0088FF" opacity="0.85"/>
  <rect x="384" y="160" width="28" height="202" rx="4" fill="#8800FF" opacity="0.85"/>
  <rect x="420" y="180" width="28" height="182" rx="4" fill="#FF00FF" opacity="0.85"/>
  <!-- Wave overlay -->
  <path d="M60,256 Q120,180 180,256 Q240,332 300,256 Q360,180 420,256 Q450,294 452,290" fill="none" stroke="white" stroke-width="3" opacity="0.4"/>
  <!-- ESC code label -->
  <text x="256" y="440" font-family="monospace" font-size="20" fill="#888888" text-anchor="middle">\033[38;5;196m ▓▓▓ \033[0m</text>
</svg>