<svg xmlns="http://www.w3.org/2000/svg" viewBox="0 0 512 512">
  <defs>
    <linearGradient id="bg" x1="0%" y1="0%" x2="100%" y2="100%">
      <stop offset="0%" stop-color="#1A237E"/>
      <stop offset="100%" stop-color="#283593"/>
    </linearGradient>
    <linearGradient id="wifi" x1="0%" y1="100%" x2="100%" y2="0%">
      <stop offset="0%" stop-color="#5C6BC0"/>
      <stop offset="100%" stop-color="#9FA8DA"/>
    </linearGradient>
  </defs>
  <rect width="512" height="512" rx="80" fill="url(#bg)"/>
  <!-- Large wifi symbol -->
  <path d="M140 250 Q256 140 372 250" stroke="url(#wifi)" stroke-width="20" fill="none" stroke-linecap="round"/>
  <path d="M175 285 Q256 195 337 285" stroke="url(#wifi)" stroke-width="18" fill="none" stroke-linecap="round" opacity="0.8"/>
  <path d="M210 320 Q256 255 302 320" stroke="url(#wifi)" stroke-width="16" fill="none" stroke-linecap="round" opacity="0.6"/>
  <circle cx="256" cy="355" r="22" fill="url(#wifi)"/>
  <!-- Server box below -->
  <rect x="170" y="390" width="172" height="60" rx="10" fill="#283593" stroke="#5C6BC0" stroke-width="2"/>
  <rect x="185" y="405" width="60" height="12" rx="4" fill="#9FA8DA"/>
  <rect x="185" y="423" width="40" height="8" rx="3" fill="#5C6BC0"/>
  <circle cx="312" cy="412" r="7" fill="#69F0AE"/>
  <circle cx="330" cy="412" r="7" fill="#69F0AE"/>
  <!-- Lightning bolt (fast serving) -->
  <polygon points="265,140 248,180 260,180 247,215 270,172 257,172" fill="#FFD740"/>
</svg>
