<svg xmlns="http://www.w3.org/2000/svg" viewBox="0 0 1024 1024">
  <rect x="80" y="80" width="864" height="864" rx="180" ry="180" fill="#0A0015"/>
  <!-- 거울 텍스트 반사 -->
  <line x1="512" y1="200" x2="512" y2="824" stroke="#6A1B9A" stroke-width="6" stroke-dasharray="20 12"/>
  <!-- 왼쪽 텍스트 줄 -->
  <rect x="200" y="300" width="260" height="36" rx="10" fill="#6A1B9A"/>
  <rect x="200" y="360" width="200" height="36" rx="10" fill="#6A1B9A" opacity="0.7"/>
  <rect x="200" y="420" width="240" height="36" rx="10" fill="#6A1B9A" opacity="0.5"/>
  <rect x="200" y="480" width="180" height="36" rx="10" fill="#6A1B9A" opacity="0.3"/>
  <!-- 오른쪽 거울 텍스트 줄 -->
  <rect x="564" y="300" width="260" height="36" rx="10" fill="#CE93D8"/>
  <rect x="624" y="360" width="200" height="36" rx="10" fill="#CE93D8" opacity="0.7"/>
  <rect x="584" y="420" width="240" height="36" rx="10" fill="#CE93D8" opacity="0.5"/>
  <rect x="644" y="480" width="180" height="36" rx="10" fill="#CE93D8" opacity="0.3"/>
  <!-- 반사 화살표 -->
  <path d="M420 620 Q512 580 604 620" fill="none" stroke="#CE93D8" stroke-width="16" stroke-linecap="round"/>
  <path d="M580 600 L604 620 L580 640" fill="none" stroke="#CE93D8" stroke-width="16" stroke-linecap="round" stroke-linejoin="round"/>
</svg>
