<svg xmlns="http://www.w3.org/2000/svg" viewBox="0 0 1024 1024">
  <rect x="80" y="80" width="864" height="864" rx="180" fill="#0F0500"/>
  <!-- Gear (automated rename) -->
  <path d="M512 512 m-160 0
    a160 160 0 1 0 320 0
    a160 160 0 1 0 -320 0" fill="#E64A19"/>
  <circle cx="512" cy="512" r="80" fill="#0F0500"/>
  <!-- Gear teeth -->
  <rect x="478" y="240" width="68" height="100" rx="16" fill="#E64A19"/>
  <rect x="478" y="684" width="68" height="100" rx="16" fill="#E64A19"/>
  <rect x="240" y="478" width="100" height="68" rx="16" fill="#E64A19"/>
  <rect x="684" y="478" width="100" height="68" rx="16" fill="#E64A19"/>
  <rect x="316" y="316" width="80" height="80" rx="14" fill="#E64A19" transform="rotate(45 356 356)"/>
  <rect x="628" y="628" width="80" height="80" rx="14" fill="#E64A19" transform="rotate(45 668 668)"/>
  <rect x="316" y="628" width="80" height="80" rx="14" fill="#E64A19" transform="rotate(45 356 668)"/>
  <rect x="628" y="316" width="80" height="80" rx="14" fill="#E64A19" transform="rotate(45 668 356)"/>
  <!-- Arrow in center (automated) -->
  <path d="M456 512 Q490 470 530 512" stroke="#FF8A65" stroke-width="22" fill="none" stroke-linecap="round"/>
  <path d="M516 488 L532 512 L510 524" stroke="#FF8A65" stroke-width="22" stroke-linecap="round" stroke-linejoin="round" fill="none"/>
</svg>