<svg xmlns="http://www.w3.org/2000/svg" viewBox="0 0 1024 1024">
  <defs>
    <linearGradient id="bg07s" x1="0%" y1="0%" x2="0%" y2="100%">
      <stop offset="0%" stop-color="#1A0000"/>
      <stop offset="100%" stop-color="#4A0000"/>
    </linearGradient>
  </defs>
  <!-- Layer 1: 배경 -->
  <rect width="1024" height="1024" rx="190" fill="url(#bg07s)"/>
  <!-- Layer 2: 화산 -->
  <!-- 화산 산체 -->
  <path d="M220,800 L380,420 L512,340 L644,420 L800,800 Z" fill="#4A2800"/>
  <path d="M380,420 L512,340 L644,420 Z" fill="#3A1800"/>
  <!-- 용암 흐름 -->
  <path d="M480,380 Q470,450 440,520 Q420,580 430,660 L460,680 Q450,600 470,540 Q500,460 510,390 Z" fill="#FF5500" opacity="0.9"/>
  <path d="M544,380 Q554,450 580,520 Q600,580 590,660 L560,680 Q570,600 550,540 Q522,460 514,390 Z" fill="#FF7000" opacity="0.8"/>
  <!-- 폭발 파티클들 -->
  <circle cx="450" cy="310" r="22" fill="#FF5500"/>
  <circle cx="512" cy="270" r="28" fill="#FF7700"/>
  <circle cx="574" cy="300" r="20" fill="#FF5500"/>
  <circle cx="420" cy="260" r="16" fill="#FF3300"/>
  <circle cx="610" cy="270" r="18" fill="#FF6600"/>
  <circle cx="380" cy="330" r="14" fill="#FF9900"/>
  <circle cx="640" cy="340" r="16" fill="#FFAA00"/>
  <!-- 재 파티클들 -->
  <circle cx="340" cy="280" r="12" fill="#504848" opacity="0.8"/>
  <circle cx="300" cy="350" r="10" fill="#504848" opacity="0.7"/>
  <circle cx="700" cy="300" r="11" fill="#504848" opacity="0.8"/>
  <circle cx="730" cy="380" r="9" fill="#504848" opacity="0.7"/>
  <!-- 연기 -->
  <ellipse cx="450" cy="230" rx="60" ry="40" fill="#9AAAC0" opacity="0.5"/>
  <ellipse cx="512" cy="190" rx="80" ry="55" fill="#9AAAC0" opacity="0.4"/>
  <ellipse cx="580" cy="220" rx="65" ry="42" fill="#9AAAC0" opacity="0.5"/>
  <!-- Layer 3: 용암 베이스 -->
  <path d="M220,800 Q300,760 400,780 Q512,800 624,780 Q724,760 800,800 L800,840 L220,840 Z" fill="#FF3300" opacity="0.7"/>
</svg>