<svg xmlns="http://www.w3.org/2000/svg" viewBox="0 0 1024 1024">
  <rect x="80" y="80" width="864" height="864" rx="180" ry="180" fill="#080005"/>
  <!-- DNA 이중나선 절개 -->
  <!-- 나선 왼쪽 -->
  <path d="M420 200 Q340 300 420 400 Q500 500 420 600 Q340 700 420 800" fill="none" stroke="#E040FB" stroke-width="28" stroke-linecap="round"/>
  <!-- 나선 오른쪽 -->
  <path d="M604 200 Q684 300 604 400 Q524 500 604 600 Q684 700 604 800" fill="none" stroke="#EA80FC" stroke-width="28" stroke-linecap="round"/>
  <!-- 가로 연결 바 -->
  <line x1="420" y1="260" x2="604" y2="260" stroke="#EA80FC" stroke-width="16" stroke-linecap="round"/>
  <line x1="420" y1="360" x2="604" y2="360" stroke="#E040FB" stroke-width="16" stroke-linecap="round" opacity="0.7"/>
  <line x1="420" y1="460" x2="604" y2="460" stroke="#EA80FC" stroke-width="16" stroke-linecap="round"/>
  <line x1="420" y1="560" x2="604" y2="560" stroke="#E040FB" stroke-width="16" stroke-linecap="round" opacity="0.7"/>
  <line x1="420" y1="660" x2="604" y2="660" stroke="#EA80FC" stroke-width="16" stroke-linecap="round"/>
  <line x1="420" y1="760" x2="604" y2="760" stroke="#E040FB" stroke-width="16" stroke-linecap="round" opacity="0.7"/>
  <!-- 슬라이스 -->
  <line x1="180" y1="512" x2="844" y2="512" stroke="#EA80FC" stroke-width="22" stroke-linecap="round"/>
  <path d="M800 488 L844 512 L800 536" fill="none" stroke="#EA80FC" stroke-width="18" stroke-linecap="round" stroke-linejoin="round"/>
</svg>
