<svg xmlns="http://www.w3.org/2000/svg" viewBox="0 0 512 512">
  <defs>
    <linearGradient id="bg" x1="0%" y1="0%" x2="100%" y2="100%">
      <stop offset="0%" stop-color="#004d40"/>
      <stop offset="100%" stop-color="#00695c"/>
    </linearGradient>
    <linearGradient id="box" x1="0%" y1="0%" x2="0%" y2="100%">
      <stop offset="0%" stop-color="#26a69a"/>
      <stop offset="100%" stop-color="#00897b"/>
    </linearGradient>
  </defs>
  <rect width="512" height="512" rx="80" fill="url(#bg)"/>
  <!-- Box/container -->
  <rect x="80" y="160" width="352" height="256" rx="20" fill="url(#box)" stroke="#4db6ac" stroke-width="4"/>
  <rect x="80" y="160" width="352" height="64" rx="20" fill="#00897b"/>
  <rect x="80" y="200" width="352" height="24" fill="#00897b"/>
  <!-- Lock on box -->
  <rect x="220" y="120" width="72" height="64" rx="14" fill="#ffca28" stroke="#ffd54f" stroke-width="3"/>
  <path d="M228 152 Q228 108 256 108 Q284 108 284 152" fill="none" stroke="#ffd54f" stroke-width="10" stroke-linecap="round"/>
  <circle cx="256" cy="164" r="12" fill="#e65100"/>
  <!-- Chain links -->
  <ellipse cx="160" cy="256" rx="28" ry="16" fill="none" stroke="#b2dfdb" stroke-width="8"/>
  <ellipse cx="210" cy="256" rx="28" ry="16" fill="none" stroke="#b2dfdb" stroke-width="8"/>
  <ellipse cx="302" cy="256" rx="28" ry="16" fill="none" stroke="#b2dfdb" stroke-width="8"/>
  <ellipse cx="352" cy="256" rx="28" ry="16" fill="none" stroke="#b2dfdb" stroke-width="8"/>
  <ellipse cx="256" cy="256" rx="16" ry="28" fill="none" stroke="#b2dfdb" stroke-width="8"/>
  <!-- URL indicator -->
  <text x="256" y="318" font-family="monospace" font-size="28" fill="#e0f2f1" text-anchor="middle">https://</text>
</svg>
