<svg xmlns="http://www.w3.org/2000/svg" viewBox="0 0 512 512">
  <defs>
    <linearGradient id="bg" x1="0%" y1="0%" x2="100%" y2="100%">
      <stop offset="0%" stop-color="#880e4f"/>
      <stop offset="100%" stop-color="#ad1457"/>
    </linearGradient>
    <linearGradient id="shield" x1="0%" y1="0%" x2="100%" y2="100%">
      <stop offset="0%" stop-color="#f48fb1"/>
      <stop offset="100%" stop-color="#e91e63"/>
    </linearGradient>
  </defs>
  <rect width="512" height="512" rx="80" fill="url(#bg)"/>
  <!-- Shield -->
  <path d="M256 80 L420 148 L420 280 Q420 390 256 440 Q92 390 92 280 L92 148 Z" fill="url(#shield)" stroke="#f8bbd0" stroke-width="5"/>
  <!-- Shield inner -->
  <path d="M256 112 L392 168 L392 276 Q392 368 256 412 Q120 368 120 276 L120 168 Z" fill="#c2185b" stroke="#f48fb1" stroke-width="3"/>
  <!-- Chain link inside shield -->
  <rect x="186" y="224" width="80" height="44" rx="22" fill="none" stroke="#fce4ec" stroke-width="10"/>
  <rect x="246" y="200" width="44" height="80" rx="22" fill="none" stroke="#fce4ec" stroke-width="10"/>
  <rect x="246" y="244" width="80" height="44" rx="22" fill="none" stroke="#fce4ec" stroke-width="10"/>
  <!-- Stars on shield -->
  <circle cx="256" cy="168" r="8" fill="#ffd740"/>
  <circle cx="256" cy="168" r="4" fill="#fff"/>
</svg>
