<svg xmlns="http://www.w3.org/2000/svg" viewBox="0 0 1024 1024">
  <defs>
    <linearGradient id="bg01" x1="0%" y1="0%" x2="100%" y2="100%">
      <stop offset="0%" stop-color="#EA580C"/>
      <stop offset="100%" stop-color="#F97316"/>
    </linearGradient>
    <linearGradient id="arrow01" x1="0%" y1="0%" x2="100%" y2="0%">
      <stop offset="0%" stop-color="#FEF08A"/>
      <stop offset="100%" stop-color="#FCD34D"/>
    </linearGradient>
  </defs>
  <!-- 배경 -->
  <rect width="1024" height="1024" rx="200" fill="url(#bg01)"/>
  <!-- 왼쪽 SVG 파일 -->
  <rect x="108" y="268" width="236" height="298" rx="22" fill="white" opacity="0.96"/>
  <!-- 파일 귀접기 -->
  <path d="M296 268 L344 316 L344 268 Z" fill="#FED7AA"/>
  <path d="M296 268 L344 316 H296 Z" fill="#FDBA74"/>
  <line x1="296" y1="268" x2="344" y2="316" stroke="#FB923C" stroke-width="5"/>
  <!-- SVG 레이블 -->
  <rect x="130" y="330" width="192" height="58" rx="10" fill="#FFF7ED"/>
  <text x="226" y="373" font-family="Arial Black" font-weight="900" font-size="44" fill="#EA580C" text-anchor="middle">SVG</text>
  <!-- 파일 라인들 -->
  <line x1="140" y1="420" x2="330" y2="420" stroke="#E5E7EB" stroke-width="10" stroke-linecap="round"/>
  <line x1="140" y1="452" x2="290" y2="452" stroke="#E5E7EB" stroke-width="10" stroke-linecap="round"/>
  <line x1="140" y1="484" x2="310" y2="484" stroke="#E5E7EB" stroke-width="10" stroke-linecap="round"/>
  <!-- 중앙 큰 화살표 -->
  <path d="M380 512 L644 512" stroke="url(#arrow01)" stroke-width="40" stroke-linecap="round"/>
  <polygon points="680,512 628,474 628,550" fill="#FCD34D"/>
  <!-- 화살표 윗부분 테두리 -->
  <path d="M380 512 L644 512" stroke="#FEF9C3" stroke-width="16" stroke-linecap="round" opacity="0.6"/>
  <!-- 오른쪽 ICO 파일 -->
  <rect x="680" y="268" width="236" height="298" rx="22" fill="white" opacity="0.96"/>
  <path d="M868 268 L916 316 L916 268 Z" fill="#BAE6FD"/>
  <path d="M868 268 L916 316 H868 Z" fill="#7DD3FC"/>
  <line x1="868" y1="268" x2="916" y2="316" stroke="#0284C7" stroke-width="5"/>
  <!-- ICO 레이블 -->
  <rect x="700" y="330" width="196" height="58" rx="10" fill="#F0F9FF"/>
  <text x="798" y="373" font-family="Arial Black" font-weight="900" font-size="44" fill="#0369A1" text-anchor="middle">ICO</text>
  <!-- ICO 멀티사이즈 표시 -->
  <rect x="700" y="410" width="42" height="42" rx="6" fill="#0EA5E9" opacity="0.9"/>
  <rect x="752" y="416" width="34" height="34" rx="5" fill="#38BDF8" opacity="0.9"/>
  <rect x="796" y="422" width="26" height="26" rx="4" fill="#7DD3FC" opacity="0.9"/>
  <rect x="832" y="428" width="18" height="18" rx="3" fill="#BAE6FD" opacity="0.9"/>
  <!-- 하단 포맷 -->
  <rect x="200" y="680" width="624" height="66" rx="20" fill="white" opacity="0.2"/>
  <text x="512" y="722" font-family="Arial" font-weight="bold" font-size="38" fill="white" text-anchor="middle">PNG · JPG · BMP · ICO</text>
</svg>
