<svg xmlns="http://www.w3.org/2000/svg" viewBox="0 0 1024 1024">
  <defs>
    <radialGradient id="bg04" cx="50%" cy="30%" r="70%">
      <stop offset="0%" stop-color="#9D174D"/>
      <stop offset="100%" stop-color="#831843"/>
    </radialGradient>
    <linearGradient id="hat04" x1="0%" y1="0%" x2="0%" y2="100%">
      <stop offset="0%" stop-color="#374151"/>
      <stop offset="100%" stop-color="#1F2937"/>
    </linearGradient>
  </defs>
  <rect width="1024" height="1024" rx="190" fill="url(#bg04)"/>
  <!-- 마법사 모자 챙 -->
  <ellipse cx="512" cy="680" rx="310" ry="60" fill="url(#hat04)"/>
  <!-- 모자 챙 하이라이트 -->
  <ellipse cx="512" cy="670" rx="310" ry="50" fill="none" stroke="#4B5563" stroke-width="8"/>
  <!-- 모자 본체 (원뿔) -->
  <polygon points="512,160 280,680 744,680" fill="url(#hat04)"/>
  <!-- 모자 밴드 -->
  <rect x="290" y="590" width="444" height="50" rx="0" fill="#6B21A8" opacity="0.8"/>
  <!-- 별들 뿌림 -->
  <text x="410" y="300" font-size="72" font-family="system-ui, sans-serif" fill="#FDE68A">★</text>
  <text x="560" y="420" font-size="48" font-family="system-ui, sans-serif" fill="#FDE68A" opacity="0.9">✦</text>
  <text x="330" y="480" font-size="36" font-family="system-ui, sans-serif" fill="#FDE68A" opacity="0.7">★</text>
  <text x="620" y="280" font-size="30" font-family="system-ui, sans-serif" fill="#FDE68A" opacity="0.8">✦</text>
  <!-- 별 궤적 -->
  <circle cx="200" cy="400" r="18" fill="#FDE68A" opacity="0.9"/>
  <circle cx="160" cy="500" r="12" fill="#FBBF24" opacity="0.7"/>
  <circle cx="240" cy="560" r="9" fill="#FDE68A" opacity="0.5"/>
  <circle cx="820" cy="380" r="16" fill="#FDE68A" opacity="0.9"/>
  <circle cx="855" cy="480" r="11" fill="#FBBF24" opacity="0.7"/>
  <circle cx="790" cy="560" r="8" fill="#FDE68A" opacity="0.5"/>
  <!-- 별 반짝임 (정상 부근) -->
  <path d="M512,130 L522,155 L548,162 L528,180 L534,207 L512,193 L490,207 L496,180 L476,162 L502,155 Z" fill="#FDE68A"/>
</svg>
