<svg xmlns="http://www.w3.org/2000/svg" viewBox="0 0 1024 1024">
  <defs>
    <radialGradient id="bg07" cx="50%" cy="50%" r="50%">
      <stop offset="0%" stop-color="#EC4899"/>
      <stop offset="100%" stop-color="#DB2777"/>
    </radialGradient>
  </defs>
  <rect width="1024" height="1024" rx="190" fill="url(#bg07)"/>
  <!-- 뇌 형태 -->
  <g transform="translate(512,490)">
    <!-- 뇌 좌반구 -->
    <path d="M-20,-200 C-20,-200 -180,-220 -240,-120 C-300,-20 -280,80 -200,140 C-160,170 -100,180 -60,170 L-20,170 Z" fill="white" opacity="0.95"/>
    <!-- 뇌 우반구 -->
    <path d="M20,-200 C20,-200 180,-220 240,-120 C300,-20 280,80 200,140 C160,170 100,180 60,170 L20,170 Z" fill="white" opacity="0.95"/>
    <!-- 뇌 하단 연결 -->
    <rect x="-20" y="-200" width="40" height="370" rx="20" fill="white" opacity="0.7"/>
    <!-- 뇌 주름 선들 (좌) -->
    <path d="M-180,-60 Q-200,-20 -180,30" stroke="#DB2777" stroke-width="10" fill="none" stroke-linecap="round"/>
    <path d="M-140,-100 Q-170,-60 -150,10" stroke="#DB2777" stroke-width="8" fill="none" stroke-linecap="round"/>
    <path d="M-220,20 Q-240,60 -210,100" stroke="#DB2777" stroke-width="8" fill="none" stroke-linecap="round"/>
    <!-- 뇌 주름 선들 (우) -->
    <path d="M180,-60 Q200,-20 180,30" stroke="#DB2777" stroke-width="10" fill="none" stroke-linecap="round"/>
    <path d="M140,-100 Q170,-60 150,10" stroke="#DB2777" stroke-width="8" fill="none" stroke-linecap="round"/>
    <path d="M220,20 Q240,60 210,100" stroke="#DB2777" stroke-width="8" fill="none" stroke-linecap="round"/>
    <!-- 텍스트 방울들 -->
    <!-- 방울 1: FDE68A (노랑) -->
    <g transform="translate(-280,-180)">
      <rect x="-48" y="-22" width="96" height="44" rx="22" fill="#FDE68A"/>
      <text x="0" y="7" font-family="system-ui, sans-serif" font-weight="bold" font-size="22" text-anchor="middle" fill="#92400E">AI</text>
    </g>
    <!-- 방울 2: A7F3D0 (민트) -->
    <g transform="translate(290,-160)">
      <rect x="-52" y="-22" width="104" height="44" rx="22" fill="#A7F3D0"/>
      <text x="0" y="7" font-family="system-ui, sans-serif" font-weight="bold" font-size="18" text-anchor="middle" fill="#065F46">GPT</text>
    </g>
    <!-- 방울 3: BFDBFE (파랑) -->
    <g transform="translate(-300,100)">
      <rect x="-56" y="-22" width="112" height="44" rx="22" fill="#BFDBFE"/>
      <text x="0" y="7" font-family="system-ui, sans-serif" font-weight="bold" font-size="18" text-anchor="middle" fill="#1E40AF">Write</text>
    </g>
    <!-- 방울 4 -->
    <g transform="translate(300,80)">
      <rect x="-60" y="-22" width="120" height="44" rx="22" fill="#FDE68A"/>
      <text x="0" y="7" font-family="system-ui, sans-serif" font-weight="bold" font-size="17" text-anchor="middle" fill="#92400E">Prompt</text>
    </g>
    <!-- 방울 연결선들 -->
    <line x1="-180" y1="-180" x2="-220" y2="-180" stroke="#FDE68A" stroke-width="8" stroke-linecap="round" opacity="0.7"/>
    <line x1="190" y1="-160" x2="238" y2="-160" stroke="#A7F3D0" stroke-width="8" stroke-linecap="round" opacity="0.7"/>
    <line x1="-190" y1="100" x2="-244" y2="100" stroke="#BFDBFE" stroke-width="8" stroke-linecap="round" opacity="0.7"/>
    <line x1="190" y1="80" x2="240" y2="80" stroke="#FDE68A" stroke-width="8" stroke-linecap="round" opacity="0.7"/>
  </g>
</svg>
