<svg xmlns="http://www.w3.org/2000/svg" viewBox="0 0 1024 1024">
  <rect x="80" y="80" width="864" height="864" rx="180" fill="#000A0A"/>
  <!-- 저울 지지대 -->
  <rect x="492" y="360" width="40" height="380" rx="8" fill="#00695C"/>
  <rect x="360" y="720" width="304" height="40" rx="10" fill="#00695C"/>
  <!-- 저울 막대 -->
  <rect x="280" y="350" width="464" height="30" rx="10" fill="#4DB6AC"/>
  <!-- 왼쪽 접시 - 균형 잡힌 상태 -->
  <line x1="320" y1="365" x2="320" y2="480" stroke="#00695C" stroke-width="10" stroke-linecap="round"/>
  <line x1="340" y1="480" x2="300" y2="480" stroke="#00695C" stroke-width="10" stroke-linecap="round"/>
  <ellipse cx="320" cy="520" rx="100" ry="20" fill="#00695C"/>
  <!-- 오른쪽 접시 -->
  <line x1="704" y1="365" x2="704" y2="480" stroke="#00695C" stroke-width="10" stroke-linecap="round"/>
  <line x1="724" y1="480" x2="684" y2="480" stroke="#00695C" stroke-width="10" stroke-linecap="round"/>
  <ellipse cx="704" cy="520" rx="100" ry="20" fill="#00695C"/>
  <!-- 파일 아이콘들 -->
  <rect x="270" y="430" width="60" height="75" rx="8" fill="#4DB6AC" opacity="0.8"/>
  <rect x="654" y="430" width="60" height="75" rx="8" fill="#4DB6AC" opacity="0.8"/>
  <!-- 균형 점 -->
  <circle cx="512" cy="350" r="20" fill="#4DB6AC"/>
  <!-- 체크 표시 -->
  <circle cx="512" cy="280" r="48" fill="#00695C"/>
  <polyline points="488,280 504,298 540,258" fill="none" stroke="#4DB6AC" stroke-width="20" stroke-linecap="round" stroke-linejoin="round"/>
</svg>