<svg xmlns="http://www.w3.org/2000/svg" viewBox="0 0 1024 1024">
  <rect x="80" y="80" width="864" height="864" rx="180" fill="#030A10"/>
  <!-- 4×4 grid of clipboard items (organized storage) -->
  <!-- Row 1 -->
  <rect x="160" y="180" width="160" height="120" rx="14" fill="#0277BD" opacity="0.75"/>
  <rect x="160" y="180" width="160" height="28" rx="10" fill="#0277BD" opacity="1"/>
  <rect x="172" y="222" width="100" height="12" rx="5" fill="#4FC3F7" opacity="0.5"/>
  <rect x="172" y="242" width="70" height="12" rx="5" fill="#4FC3F7" opacity="0.35"/>

  <rect x="340" y="180" width="160" height="120" rx="14" fill="#0277BD" opacity="0.7"/>
  <rect x="340" y="180" width="160" height="28" rx="10" fill="#0277BD" opacity="0.95"/>
  <rect x="352" y="222" width="80" height="12" rx="5" fill="#4FC3F7" opacity="0.5"/>
  <rect x="352" y="242" width="110" height="12" rx="5" fill="#4FC3F7" opacity="0.35"/>

  <rect x="520" y="180" width="160" height="120" rx="14" fill="#0277BD" opacity="0.65"/>
  <rect x="520" y="180" width="160" height="28" rx="10" fill="#0277BD" opacity="0.9"/>
  <rect x="532" y="222" width="120" height="12" rx="5" fill="#4FC3F7" opacity="0.45"/>

  <rect x="700" y="180" width="160" height="120" rx="14" fill="#0277BD" opacity="0.6"/>
  <rect x="700" y="180" width="160" height="28" rx="10" fill="#0277BD" opacity="0.85"/>
  <rect x="712" y="222" width="60" height="12" rx="5" fill="#4FC3F7" opacity="0.4"/>

  <!-- Row 2 -->
  <rect x="160" y="320" width="160" height="120" rx="14" fill="#0277BD" opacity="0.65"/>
  <rect x="160" y="320" width="160" height="28" rx="10" fill="#01579B" opacity="0.9"/>
  <rect x="172" y="362" width="90" height="12" rx="5" fill="#4FC3F7" opacity="0.45"/>

  <rect x="340" y="320" width="160" height="120" rx="14" fill="#0277BD" opacity="0.6"/>
  <rect x="340" y="320" width="160" height="28" rx="10" fill="#01579B" opacity="0.85"/>
  <rect x="352" y="362" width="130" height="12" rx="5" fill="#4FC3F7" opacity="0.4"/>

  <rect x="520" y="320" width="160" height="120" rx="14" fill="#0277BD" opacity="0.55"/>
  <rect x="520" y="320" width="160" height="28" rx="10" fill="#01579B" opacity="0.8"/>
  <rect x="532" y="362" width="75" height="12" rx="5" fill="#4FC3F7" opacity="0.35"/>

  <rect x="700" y="320" width="160" height="120" rx="14" fill="#0277BD" opacity="0.5"/>
  <rect x="700" y="320" width="160" height="28" rx="10" fill="#01579B" opacity="0.75"/>
  <rect x="712" y="362" width="100" height="12" rx="5" fill="#4FC3F7" opacity="0.3"/>

  <!-- Row 3 -->
  <rect x="160" y="460" width="160" height="120" rx="14" fill="#0277BD" opacity="0.5"/>
  <rect x="160" y="460" width="160" height="28" rx="10" fill="#01579B" opacity="0.7"/>
  <rect x="340" y="460" width="160" height="120" rx="14" fill="#0277BD" opacity="0.45"/>
  <rect x="340" y="460" width="160" height="28" rx="10" fill="#01579B" opacity="0.65"/>
  <rect x="520" y="460" width="160" height="120" rx="14" fill="#0277BD" opacity="0.4"/>
  <rect x="520" y="460" width="160" height="28" rx="10" fill="#01579B" opacity="0.6"/>
  <rect x="700" y="460" width="160" height="120" rx="14" fill="#0277BD" opacity="0.35"/>
  <rect x="700" y="460" width="160" height="28" rx="10" fill="#01579B" opacity="0.55"/>

  <!-- Row 4 (faint) -->
  <rect x="160" y="600" width="160" height="120" rx="14" fill="#0277BD" opacity="0.3"/>
  <rect x="340" y="600" width="160" height="120" rx="14" fill="#0277BD" opacity="0.25"/>
  <rect x="520" y="600" width="160" height="120" rx="14" fill="#0277BD" opacity="0.2"/>
  <rect x="700" y="600" width="160" height="120" rx="14" fill="#0277BD" opacity="0.18"/>

  <!-- Grid lines between cells -->
  <line x1="160" y1="310" x2="860" y2="310" stroke="#4FC3F7" stroke-width="4" opacity="0.15"/>
  <line x1="160" y1="450" x2="860" y2="450" stroke="#4FC3F7" stroke-width="4" opacity="0.12"/>
  <line x1="330" y1="180" x2="330" y2="730" stroke="#4FC3F7" stroke-width="4" opacity="0.12"/>
  <line x1="510" y1="180" x2="510" y2="730" stroke="#4FC3F7" stroke-width="4" opacity="0.12"/>
  <line x1="690" y1="180" x2="690" y2="730" stroke="#4FC3F7" stroke-width="4" opacity="0.12"/>
</svg>
