<svg xmlns="http://www.w3.org/2000/svg" viewBox="0 0 512 512">
  <defs>
    <linearGradient id="bg" x1="0%" y1="0%" x2="100%" y2="100%">
      <stop offset="0%" stop-color="#00251A"/>
      <stop offset="100%" stop-color="#004D40"/>
    </linearGradient>
    <linearGradient id="s1" x1="0%" y1="0%" x2="100%" y2="100%">
      <stop offset="0%" stop-color="#26A69A"/>
      <stop offset="100%" stop-color="#00695C"/>
    </linearGradient>
    <linearGradient id="s2" x1="0%" y1="0%" x2="100%" y2="100%">
      <stop offset="0%" stop-color="#4DB6AC"/>
      <stop offset="100%" stop-color="#26A69A"/>
    </linearGradient>
  </defs>
  <rect width="512" height="512" rx="80" fill="url(#bg)"/>
  <!-- Layered shields (depth effect) -->
  <path d="M256 95 L375 142 L375 268 Q375 362 256 430 Q137 362 137 268 L137 142 Z" fill="url(#s1)" opacity="0.4"/>
  <path d="M256 85 L372 134 L372 265 Q372 358 256 427 Q140 358 140 265 L140 134 Z" fill="url(#s1)" opacity="0.6"/>
  <path d="M256 75 L370 126 L370 262 Q370 355 256 424 Q142 355 142 262 L142 126 Z" fill="url(#s2)"/>
  <!-- Service list panel -->
  <rect x="185" y="170" width="142" height="160" rx="10" fill="#004D40" opacity="0.7"/>
  <!-- Service items -->
  <g>
    <circle cx="200" cy="196" r="6" fill="#A7FFEB"/>
    <rect x="213" y="191" width="100" height="10" rx="5" fill="#80CBC4"/>
    <circle cx="200" cy="221" r="6" fill="#A7FFEB"/>
    <rect x="213" y="216" width="80" height="10" rx="5" fill="#80CBC4"/>
    <circle cx="200" cy="246" r="6" fill="#FF6E6E"/>
    <rect x="213" y="241" width="95" height="10" rx="5" fill="#80CBC4"/>
    <circle cx="200" cy="271" r="6" fill="#A7FFEB"/>
    <rect x="213" y="266" width="85" height="10" rx="5" fill="#80CBC4"/>
    <circle cx="200" cy="296" r="6" fill="#FFD740"/>
    <rect x="213" y="291" width="70" height="10" rx="5" fill="#80CBC4"/>
  </g>
</svg>
