<svg xmlns="http://www.w3.org/2000/svg" viewBox="0 0 1024 1024">
  <rect x="80" y="80" width="864" height="864" rx="180" fill="#000A00"/>
  <!-- 솔 손잡이 -->
  <rect x="560" y="180" width="50" height="300" rx="25" fill="#1B5E20" stroke="#66BB6A" stroke-width="12" transform="rotate(35 585 330)"/>
  <!-- 솔 헤드 -->
  <rect x="300" y="420" width="300" height="100" rx="20" fill="#1B5E20" stroke="#66BB6A" stroke-width="14"/>
  <!-- 솔 털 -->
  <line x1="325" y1="520" x2="325" y2="590" stroke="#66BB6A" stroke-width="10" stroke-linecap="round"/>
  <line x1="355" y1="520" x2="355" y2="600" stroke="#66BB6A" stroke-width="10" stroke-linecap="round"/>
  <line x1="385" y1="520" x2="385" y2="595" stroke="#66BB6A" stroke-width="10" stroke-linecap="round"/>
  <line x1="415" y1="520" x2="415" y2="605" stroke="#66BB6A" stroke-width="10" stroke-linecap="round"/>
  <line x1="445" y1="520" x2="445" y2="592" stroke="#66BB6A" stroke-width="10" stroke-linecap="round"/>
  <line x1="475" y1="520" x2="475" y2="598" stroke="#66BB6A" stroke-width="10" stroke-linecap="round"/>
  <line x1="505" y1="520" x2="505" y2="590" stroke="#66BB6A" stroke-width="10" stroke-linecap="round"/>
  <line x1="535" y1="520" x2="535" y2="600" stroke="#66BB6A" stroke-width="10" stroke-linecap="round"/>
  <line x1="565" y1="520" x2="565" y2="595" stroke="#66BB6A" stroke-width="10" stroke-linecap="round"/>
  <!-- 표면 (닦이는) -->
  <rect x="240" y="640" width="460" height="80" rx="16" fill="#1B5E20" stroke="#66BB6A" stroke-width="10"/>
  <!-- 더러운 부분 (왼쪽) -->
  <circle cx="280" cy="682" r="18" fill="#000A00" opacity="0.8"/>
  <circle cx="330" cy="665" r="12" fill="#000A00" opacity="0.7"/>
  <circle cx="370" cy="690" r="15" fill="#000A00" opacity="0.6"/>
  <!-- 깨끗한 부분 (오른쪽 - 닦인 후) -->
  <circle cx="600" cy="672" r="8" fill="#66BB6A" opacity="0.4"/>
  <circle cx="640" cy="658" r="6" fill="#66BB6A" opacity="0.5"/>
  <!-- 방향 화살표 -->
  <line x1="430" y1="750" x2="620" y2="750" stroke="#66BB6A" stroke-width="10" stroke-linecap="round"/>
  <polygon points="615,733 645,750 615,767" fill="#66BB6A"/>
</svg>
