<svg xmlns="http://www.w3.org/2000/svg" viewBox="0 0 1024 1024">
  <rect x="80" y="80" width="864" height="864" rx="180" fill="#000A00"/>
  <!-- 샤워헤드 -->
  <ellipse cx="400" cy="260" rx="120" ry="50" fill="#1B5E20" stroke="#66BB6A" stroke-width="14"/>
  <rect x="490" y="220" width="50" height="80" rx="10" fill="#1B5E20" stroke="#66BB6A" stroke-width="12"/>
  <!-- 샤워 파이프 -->
  <path d="M540 260 Q680 260 680 160" fill="none" stroke="#66BB6A" stroke-width="28" stroke-linecap="round"/>
  <!-- 물줄기 -->
  <line x1="320" y1="320" x2="280" y2="440" stroke="#66BB6A" stroke-width="12" stroke-linecap="round" opacity="0.9"/>
  <line x1="355" y1="315" x2="325" y2="450" stroke="#66BB6A" stroke-width="10" stroke-linecap="round" opacity="0.8"/>
  <line x1="390" y1="312" x2="368" y2="460" stroke="#66BB6A" stroke-width="12" stroke-linecap="round" opacity="0.9"/>
  <line x1="425" y1="312" x2="412" y2="460" stroke="#66BB6A" stroke-width="10" stroke-linecap="round" opacity="0.8"/>
  <line x1="460" y1="315" x2="456" y2="462" stroke="#66BB6A" stroke-width="12" stroke-linecap="round" opacity="0.9"/>
  <!-- 물 물방울 -->
  <circle cx="290" cy="490" r="12" fill="#66BB6A" opacity="0.6"/>
  <circle cx="330" cy="500" r="9" fill="#66BB6A" opacity="0.5"/>
  <circle cx="375" cy="505" r="14" fill="#66BB6A" opacity="0.7"/>
  <circle cx="418" cy="508" r="10" fill="#66BB6A" opacity="0.6"/>
  <circle cx="460" cy="502" r="12" fill="#66BB6A" opacity="0.5"/>
  <!-- 깨끗한 화면 (아래) -->
  <rect x="260" y="580" width="460" height="200" rx="24" fill="#1B5E20" stroke="#66BB6A" stroke-width="12"/>
  <rect x="290" y="610" width="400" height="140" rx="14" fill="#000A00"/>
  <!-- 깨끗함 반짝임 -->
  <circle cx="400" cy="680" r="15" fill="#66BB6A" opacity="0.5"/>
  <circle cx="512" cy="660" r="10" fill="#66BB6A" opacity="0.7"/>
  <circle cx="620" cy="690" r="12" fill="#66BB6A" opacity="0.5"/>
</svg>
