<svg xmlns="http://www.w3.org/2000/svg" viewBox="0 0 1024 1024">
  <rect x="80" y="80" width="864" height="864" rx="180" fill="#000A00"/>
  <!-- 소용돌이 중심 -->
  <circle cx="512" cy="512" r="60" fill="#1B5E20" stroke="#66BB6A" stroke-width="16"/>
  <!-- 소용돌이 나선형 궤적 -->
  <path d="M512 452 A60 60 0 1 0 572 512 A120 120 0 1 0 392 512 A180 180 0 1 0 692 512 A240 240 0 1 0 272 512" fill="none" stroke="#66BB6A" stroke-width="22" stroke-linecap="round" opacity="0.9"/>
  <path d="M512 392 A120 120 0 1 0 632 512 A180 180 0 1 0 332 512 A240 240 0 1 0 752 512" fill="none" stroke="#66BB6A" stroke-width="14" stroke-linecap="round" opacity="0.5"/>
  <!-- 소용돌이 화살표 방향 -->
  <polygon points="512,310 490,355 534,355" fill="#66BB6A"/>
  <!-- 파티클 (제거되는 요소들) -->
  <circle cx="300" cy="300" r="20" fill="#66BB6A" opacity="0.7"/>
  <circle cx="750" cy="350" r="16" fill="#66BB6A" opacity="0.6"/>
  <circle cx="280" cy="680" r="18" fill="#66BB6A" opacity="0.5"/>
  <circle cx="730" cy="700" r="22" fill="#66BB6A" opacity="0.7"/>
  <circle cx="220" cy="500" r="14" fill="#66BB6A" opacity="0.4"/>
  <circle cx="800" cy="520" r="14" fill="#66BB6A" opacity="0.4"/>
  <!-- 소용돌이 흡수 화살표들 -->
  <line x1="300" y1="315" x2="370" y2="380" stroke="#66BB6A" stroke-width="8" stroke-linecap="round" opacity="0.5"/>
  <line x1="735" y1="360" x2="665" y2="395" stroke="#66BB6A" stroke-width="8" stroke-linecap="round" opacity="0.5"/>
</svg>
