<svg xmlns="http://www.w3.org/2000/svg" viewBox="0 0 1024 1024">
  <!-- Layer 1: 따뜻한 오렌지 배경 -->
  <defs>
    <linearGradient id="bg2" x1="0%" y1="0%" x2="100%" y2="100%">
      <stop offset="0%" stop-color="#FFF3E0"/>
      <stop offset="100%" stop-color="#FFCC80"/>
    </linearGradient>
  </defs>
  <rect width="1024" height="1024" rx="190" fill="url(#bg2)"/>
  <!-- Layer 2: 조준경 링 -->
  <circle cx="512" cy="512" r="340" fill="none" stroke="#E65100" stroke-width="36"/>
  <circle cx="512" cy="512" r="220" fill="none" stroke="#F57C00" stroke-width="24"/>
  <circle cx="512" cy="512" r="90" fill="#BF360C"/>
  <!-- 조준선 십자 -->
  <line x1="160" y1="512" x2="400" y2="512" stroke="#BF360C" stroke-width="24" stroke-linecap="round"/>
  <line x1="624" y1="512" x2="864" y2="512" stroke="#BF360C" stroke-width="24" stroke-linecap="round"/>
  <line x1="512" y1="160" x2="512" y2="400" stroke="#BF360C" stroke-width="24" stroke-linecap="round"/>
  <line x1="512" y1="624" x2="512" y2="864" stroke="#BF360C" stroke-width="24" stroke-linecap="round"/>
  <!-- Layer 3: 중심에 SVG 심볼 (잡힌 아이콘) -->
  <text x="512" y="542" font-family="'Segoe UI', Arial, sans-serif" font-weight="900" font-size="80" fill="white" text-anchor="middle">SVG</text>
  <!-- 코너 마커들 -->
  <path d="M180,180 L180,240 M180,180 L240,180" stroke="#FF8F00" stroke-width="28" stroke-linecap="round" fill="none"/>
  <path d="M844,180 L844,240 M844,180 L784,180" stroke="#FF8F00" stroke-width="28" stroke-linecap="round" fill="none"/>
  <path d="M180,844 L180,784 M180,844 L240,844" stroke="#FF8F00" stroke-width="28" stroke-linecap="round" fill="none"/>
  <path d="M844,844 L844,784 M844,844 L784,844" stroke="#FF8F00" stroke-width="28" stroke-linecap="round" fill="none"/>
</svg>
