<svg xmlns="http://www.w3.org/2000/svg" viewBox="0 0 512 512">
  <defs>
    <linearGradient id="bg" x1="0%" y1="0%" x2="100%" y2="100%">
      <stop offset="0%" stop-color="#4A148C"/>
      <stop offset="100%" stop-color="#7B1FA2"/>
    </linearGradient>
    <radialGradient id="glow" cx="50%" cy="50%" r="50%">
      <stop offset="0%" stop-color="#CE93D8" stop-opacity="0.6"/>
      <stop offset="100%" stop-color="#CE93D8" stop-opacity="0"/>
    </radialGradient>
  </defs>
  <rect width="512" height="512" rx="80" fill="url(#bg)"/>
  <circle cx="256" cy="256" r="200" fill="url(#glow)"/>
  <!-- 3x3 Matrix cells -->
  <rect x="96" y="96" width="96" height="96" rx="12" fill="#7B1FA2" stroke="#CE93D8" stroke-width="4"/>
  <rect x="208" y="96" width="96" height="96" rx="12" fill="#9C27B0" stroke="#CE93D8" stroke-width="4"/>
  <rect x="320" y="96" width="96" height="96" rx="12" fill="#7B1FA2" stroke="#CE93D8" stroke-width="4"/>
  <rect x="96" y="208" width="96" height="96" rx="12" fill="#9C27B0" stroke="#CE93D8" stroke-width="4"/>
  <rect x="208" y="208" width="96" height="96" rx="12" fill="#AB47BC" stroke="#E1BEE7" stroke-width="6"/>
  <rect x="320" y="208" width="96" height="96" rx="12" fill="#9C27B0" stroke="#CE93D8" stroke-width="4"/>
  <rect x="96" y="320" width="96" height="96" rx="12" fill="#7B1FA2" stroke="#CE93D8" stroke-width="4"/>
  <rect x="208" y="320" width="96" height="96" rx="12" fill="#9C27B0" stroke="#CE93D8" stroke-width="4"/>
  <rect x="320" y="320" width="96" height="96" rx="12" fill="#7B1FA2" stroke="#CE93D8" stroke-width="4"/>
  <!-- Cell icons -->
  <text x="144" y="156" text-anchor="middle" font-size="40" fill="#E1BEE7">A</text>
  <text x="256" y="156" text-anchor="middle" font-size="40" fill="#E1BEE7">B</text>
  <text x="368" y="156" text-anchor="middle" font-size="40" fill="#E1BEE7">C</text>
  <rect x="116" y="238" width="56" height="8" rx="4" fill="#E1BEE7" opacity="0.8"/>
  <rect x="228" y="238" width="56" height="8" rx="4" fill="#F3E5F5" opacity="0.9"/>
  <rect x="340" y="238" width="56" height="8" rx="4" fill="#E1BEE7" opacity="0.8"/>
  <rect x="116" y="254" width="40" height="8" rx="4" fill="#E1BEE7" opacity="0.5"/>
  <rect x="228" y="254" width="56" height="8" rx="4" fill="#F3E5F5" opacity="0.7"/>
  <rect x="340" y="254" width="40" height="8" rx="4" fill="#E1BEE7" opacity="0.5"/>
  <!-- Numbers in bottom cells -->
  <text x="144" y="378" text-anchor="middle" font-size="36" fill="#CE93D8" font-weight="bold">42</text>
  <text x="256" y="378" text-anchor="middle" font-size="36" fill="#CE93D8" font-weight="bold">17</text>
  <text x="368" y="378" text-anchor="middle" font-size="36" fill="#CE93D8" font-weight="bold">93</text>
</svg>
