<svg viewBox="0 0 1024 1024" xmlns="http://www.w3.org/2000/svg">
  <!-- Layer 1: Background -->
  <rect width="1024" height="1024" rx="150" fill="#F0FDF4"/>
  <!-- Drop zone dashed rectangle -->
  <rect x="160" y="560" width="700" height="280" rx="24" fill="#DCFCE7" stroke="#22C55E" stroke-width="6" stroke-dasharray="20,12"/>
  <text x="512" y="688" font-family="Arial,sans-serif" font-size="28" fill="#15803D" text-anchor="middle" opacity="0.7">드래그하여 변환</text>
  <text x="512" y="724" font-family="Arial,sans-serif" font-size="20" fill="#4ADE80" text-anchor="middle" opacity="0.6">SVG · PNG · JPG · BMP</text>
  <!-- Drop arrow -->
  <line x1="512" y1="760" x2="512" y2="800" stroke="#22C55E" stroke-width="8" stroke-linecap="round"/>
  <polygon points="488,800 512,830 536,800" fill="#22C55E"/>
  <!-- Layer 2: Hand + file -->
  <!-- Hand (simplified) -->
  <path d="M 380 280 L 380 460 Q 380 500 420 520 L 560 520 Q 600 520 620 480 L 660 380 Q 668 340 640 325 Q 614 312 600 345 L 590 375 L 590 290 Q 590 255 560 250 Q 530 245 520 280 L 520 280 L 520 270 Q 520 235 490 230 Q 460 225 450 260 L 450 270 Q 445 240 420 238 Q 392 238 380 265 Z" fill="#22C55E"/>
  <!-- File card in hand -->
  <rect x="430" y="200" width="180" height="230" rx="14" fill="#FFFFFF" stroke="#86EFAC" stroke-width="5" transform="rotate(8 520 315)"/>
  <text x="520" y="300" font-family="Arial,sans-serif" font-size="28" fill="#EA580C" text-anchor="middle" font-weight="bold" transform="rotate(8 520 300)">SVG</text>
  <rect x="450" y="315" width="140" height="10" rx="3" fill="#D1D5DB" transform="rotate(8 520 320)"/>
  <rect x="450" y="335" width="110" height="10" rx="3" fill="#D1D5DB" opacity="0.7" transform="rotate(8 520 340)"/>
  <!-- Layer 3: Arrow from hand to drop zone -->
  <line x1="540" y1="520" x2="540" y2="568" stroke="#3B82F6" stroke-width="10" stroke-linecap="round"/>
  <polygon points="516,568 540,598 564,568" fill="#3B82F6"/>
</svg>