<svg xmlns="http://www.w3.org/2000/svg" viewBox="0 0 512 512">
  <defs>
    <linearGradient id="bg" x1="0%" y1="0%" x2="100%" y2="100%">
      <stop offset="0%" stop-color="#030508"/>
      <stop offset="100%" stop-color="#0a0510"/>
    </linearGradient>
    <filter id="glow">
      <feGaussianBlur stdDeviation="4" result="blur"/>
      <feMerge><feMergeNode in="blur"/><feMergeNode in="SourceGraphic"/></feMerge>
    </filter>
  </defs>
  <rect width="512" height="512" rx="80" fill="url(#bg)"/>
  <!-- SVG 코드 뷰 + 프리뷰 분할 뷰 -->
  <!-- 좌측: 코드 에디터 -->
  <rect x="58" y="80" width="190" height="350" rx="8" fill="#06040e" stroke="#C084FC" stroke-width="1.5" opacity="0.9"/>
  <!-- 에디터 탭 -->
  <rect x="58" y="80" width="80" height="22" rx="4" fill="#1a0a2a" stroke="#C084FC" stroke-width="1" opacity="0.9"/>
  <text x="98" y="95" text-anchor="middle" font-size="9" fill="#C084FC" opacity="0.9">path.svg</text>
  <!-- 줄 번호 + 코드 -->
  <text x="70" y="120" font-size="8.5" fill="#555577" opacity="0.7">01</text>
  <text x="90" y="120" font-size="8.5" fill="#C084FC" opacity="0.9">&lt;svg</text>
  <text x="70" y="134" font-size="8.5" fill="#555577" opacity="0.7">02</text>
  <text x="90" y="134" font-size="8.5" fill="#888" opacity="0.8">  viewBox=</text>
  <text x="158" y="134" font-size="8.5" fill="#FDE047" opacity="0.8">"0 0 512"</text>
  <text x="70" y="148" font-size="8.5" fill="#555577" opacity="0.7">03</text>
  <text x="90" y="148" font-size="8.5" fill="#C084FC" opacity="0.9">&lt;defs&gt;</text>
  <text x="70" y="162" font-size="8.5" fill="#555577" opacity="0.7">04</text>
  <text x="98" y="162" font-size="8.5" fill="#A855F7" opacity="0.8">&lt;path</text>
  <!-- 현재 줄 강조 -->
  <rect x="66" y="170" width="174" height="14" rx="2" fill="#1a0a2a" opacity="0.6"/>
  <text x="70" y="180" font-size="8.5" fill="#555577" opacity="0.7">05</text>
  <text x="98" y="180" font-size="8.5" fill="#4ADE80" opacity="0.9">  d="M100,200</text>
  <text x="70" y="194" font-size="8.5" fill="#555577" opacity="0.7">06</text>
  <text x="98" y="194" font-size="8.5" fill="#4ADE80" opacity="0.8">  C150,150</text>
  <text x="70" y="208" font-size="8.5" fill="#555577" opacity="0.7">07</text>
  <text x="98" y="208" font-size="8.5" fill="#4ADE80" opacity="0.8">  200,250</text>
  <text x="70" y="222" font-size="8.5" fill="#555577" opacity="0.7">08</text>
  <text x="98" y="222" font-size="8.5" fill="#4ADE80" opacity="0.8">  300,200"</text>
  <text x="70" y="236" font-size="8.5" fill="#555577" opacity="0.7">09</text>
  <text x="98" y="236" font-size="8.5" fill="#38BDF8" opacity="0.8">  fill="none"</text>
  <text x="70" y="250" font-size="8.5" fill="#555577" opacity="0.7">10</text>
  <text x="98" y="250" font-size="8.5" fill="#38BDF8" opacity="0.8">  stroke="#C084"</text>
  <text x="70" y="264" font-size="8.5" fill="#555577" opacity="0.7">11</text>
  <text x="98" y="264" font-size="8.5" fill="#C084FC" opacity="0.9">/&gt;</text>
  <text x="70" y="278" font-size="8.5" fill="#555577" opacity="0.7">12</text>
  <text x="90" y="278" font-size="8.5" fill="#C084FC" opacity="0.9">&lt;/defs&gt;</text>
  <text x="70" y="292" font-size="8.5" fill="#555577" opacity="0.7">13</text>
  <text x="90" y="292" font-size="8.5" fill="#C084FC" opacity="0.9">&lt;/svg&gt;</text>
  <!-- 커서 -->
  <rect x="161" y="175" width="1.5" height="12" fill="#C084FC" filter="url(#glow)" opacity="0.9"/>
  <!-- 우측: 프리뷰 -->
  <rect x="264" y="80" width="190" height="350" rx="8" fill="#06040e" stroke="#C084FC" stroke-width="1.5" opacity="0.9"/>
  <!-- 프리뷰 탭 -->
  <rect x="264" y="80" width="80" height="22" rx="4" fill="#1a0a2a" stroke="#C084FC" stroke-width="1" opacity="0.9"/>
  <text x="304" y="95" text-anchor="middle" font-size="9" fill="#C084FC" opacity="0.9">Preview</text>
  <!-- 렌더링된 SVG 프리뷰 -->
  <path d="M280,220 C310,175 340,270 380,220" fill="none" stroke="#C084FC" stroke-width="3" filter="url(#glow)" opacity="0.9"/>
  <!-- 앵커 포인트 강조 -->
  <circle cx="280" cy="220" r="5" fill="#FDE047" filter="url(#glow)" opacity="0.9"/>
  <circle cx="380" cy="220" r="5" fill="#FDE047" filter="url(#glow)" opacity="0.9"/>
  <circle cx="310" cy="175" r="4" fill="#C084FC" opacity="0.7"/>
  <circle cx="340" cy="270" r="4" fill="#C084FC" opacity="0.7"/>
  <line x1="280" y1="220" x2="310" y2="175" stroke="#FDE047" stroke-width="1" stroke-dasharray="3,3" opacity="0.6"/>
  <line x1="380" y1="220" x2="340" y2="270" stroke="#FDE047" stroke-width="1" stroke-dasharray="3,3" opacity="0.6"/>
  <!-- 분리선 -->
  <line x1="252" y1="80" x2="252" y2="430" stroke="#C084FC" stroke-width="2" opacity="0.5"/>
  <!-- 하단 상태 바 -->
  <rect x="58" y="440" width="396" height="36" rx="6" fill="#0a0514" stroke="#C084FC" stroke-width="1.5" opacity="0.9"/>
  <text x="78" y="463" font-size="10" fill="#C084FC" opacity="0.8">SVG CODE EDITOR</text>
  <text x="380" y="463" text-anchor="end" font-size="10" fill="#888" opacity="0.7">Ln 5, Col 18</text>
</svg>
