<svg xmlns="http://www.w3.org/2000/svg" viewBox="0 0 512 512">
  <defs>
    <linearGradient id="bg" x1="0%" y1="0%" x2="0%" y2="100%">
      <stop offset="0%" style="stop-color:#001122"/>
      <stop offset="100%" style="stop-color:#000a11"/>
    </linearGradient>
    <linearGradient id="bar1" x1="0%" y1="0%" x2="0%" y2="100%">
      <stop offset="0%" style="stop-color:#00e5ff"/>
      <stop offset="100%" style="stop-color:#0088aa"/>
    </linearGradient>
    <linearGradient id="bar2" x1="0%" y1="0%" x2="0%" y2="100%">
      <stop offset="0%" style="stop-color:#00ff88"/>
      <stop offset="100%" style="stop-color:#008844"/>
    </linearGradient>
    <linearGradient id="bar3" x1="0%" y1="0%" x2="0%" y2="100%">
      <stop offset="0%" style="stop-color:#ffee00"/>
      <stop offset="100%" style="stop-color:#aa8800"/>
    </linearGradient>
    <linearGradient id="bar4" x1="0%" y1="0%" x2="0%" y2="100%">
      <stop offset="0%" style="stop-color:#ff5500"/>
      <stop offset="100%" style="stop-color:#aa2200"/>
    </linearGradient>
  </defs>
  <rect width="512" height="512" rx="80" fill="url(#bg)"/>
  <!-- EQ bars -->
  <rect x="68" y="192" width="52" height="240" rx="6" fill="url(#bar2)"/>
  <rect x="140" y="112" width="52" height="320" rx="6" fill="url(#bar1)"/>
  <rect x="212" y="152" width="52" height="280" rx="6" fill="url(#bar2)"/>
  <rect x="284" y="80" width="52" height="352" rx="6" fill="url(#bar3)"/>
  <rect x="356" y="140" width="52" height="292" rx="6" fill="url(#bar4)"/>
  <rect x="428" y="180" width="52" height="252" rx="6" fill="url(#bar1)"/>
  <!-- Peak indicators -->
  <rect x="68" y="176" width="52" height="8" rx="3" fill="#00ff88" opacity="0.9"/>
  <rect x="140" y="96" width="52" height="8" rx="3" fill="#00e5ff" opacity="0.9"/>
  <rect x="212" y="136" width="52" height="8" rx="3" fill="#00ff88" opacity="0.9"/>
  <rect x="284" y="64" width="52" height="8" rx="3" fill="#ffee00" opacity="0.9"/>
  <rect x="356" y="124" width="52" height="8" rx="3" fill="#ff5500" opacity="0.9"/>
  <rect x="428" y="164" width="52" height="8" rx="3" fill="#00e5ff" opacity="0.9"/>
</svg>