<svg xmlns="http://www.w3.org/2000/svg" viewBox="0 0 1024 1024">
<rect x="80" y="80" width="864" height="864" rx="180" ry="180" fill="#0A0500"/>
<!-- 컨셉: 봉인 뜯기 — 밀봉 씰 열기 -->
<!-- 봉투/패키지 -->
<rect x="220" y="300" width="584" height="420" rx="20" fill="#1A0800" stroke="#E65100" stroke-width="28"/>
<!-- 봉인 씰 (원형) -->
<circle cx="512" cy="512" r="110" fill="#E65100"/>
<circle cx="512" cy="512" r="80" fill="#1A0800"/>
<!-- 씰 패턴 (방사형) -->
<path d="M 512 432 L 512 400 M 580 452 L 604 428 M 592 512 L 624 512 M 580 572 L 604 596 M 512 592 L 512 624 M 444 572 L 420 596 M 432 512 L 400 512 M 444 452 L 420 428" stroke="#E65100" stroke-width="16" stroke-linecap="round"/>
<!-- 씰 뜯기 — 찢긴 부분 -->
<path d="M 512 402 Q 560 350 640 320 Q 700 300 740 260" fill="none" stroke="#FFAB40" stroke-width="22" stroke-linecap="round"/>
<!-- 뜯긴 테이프 조각 -->
<path d="M 600 340 Q 640 310 680 340 Q 720 370 700 400 Q 660 390 620 360 Z" fill="#FFAB40" opacity="0.8"/>
<!-- 파열선 -->
<line x1="512" y1="402" x2="470" y2="360" stroke="#FFAB40" stroke-width="16" stroke-linecap="round" opacity="0.6"/>
<line x1="530" y1="395" x2="550" y2="340" stroke="#FFAB40" stroke-width="12" stroke-linecap="round" opacity="0.6"/>
</svg>
