<svg xmlns="http://www.w3.org/2000/svg" viewBox="0 0 1024 1024">
<rect x="80" y="80" width="864" height="864" rx="180" ry="180" fill="#0A0500"/>
<!-- 컨셉: 수갑 해제 — 끊어진 수갑 -->
<!-- 왼쪽 수갑 고리 -->
<path d="M 260 440 Q 260 280 380 280 Q 500 280 500 440 L 500 560 Q 500 620 440 620 L 300 620 Q 240 620 240 560 Z" fill="none" stroke="#E65100" stroke-width="44"/>
<!-- 왼쪽 수갑 채움 -->
<rect x="242" y="440" width="276" height="180" rx="0" fill="#0A0500"/>
<rect x="264" y="462" width="232" height="136" rx="0" fill="#0A0500"/>
<!-- 연결 체인 (끊어짐) -->
<rect x="500" y="490" width="60" height="36" rx="12" fill="none" stroke="#FFAB40" stroke-width="24"/>
<!-- 끊어진 간격 -->
<!-- 오른쪽 체인 -->
<rect x="620" y="490" width="60" height="36" rx="12" fill="none" stroke="#FFAB40" stroke-width="24"/>
<!-- 파편 -->
<line x1="576" y1="480" x2="596" y2="500" stroke="#FFAB40" stroke-width="16" stroke-linecap="round"/>
<line x1="582" y1="530" x2="602" y2="510" stroke="#FFAB40" stroke-width="16" stroke-linecap="round"/>
<!-- 오른쪽 수갑 고리 -->
<path d="M 524 440 Q 524 280 644 280 Q 764 280 764 440 L 764 560 Q 764 620 704 620 L 564 620 Q 504 620 504 560 Z" fill="none" stroke="#E65100" stroke-width="44"/>
<rect x="506" y="440" width="276" height="180" rx="0" fill="#0A0500"/>
<rect x="528" y="462" width="232" height="136" rx="0" fill="#0A0500"/>
<!-- 해제 표시 화살표 -->
<path d="M 380 700 L 380 820" fill="none" stroke="#FFAB40" stroke-width="28" stroke-linecap="round"/>
<path d="M 644 700 L 644 820" fill="none" stroke="#FFAB40" stroke-width="28" stroke-linecap="round"/>
<path d="M 320 760 L 380 820 L 440 760" fill="none" stroke="#FFAB40" stroke-width="28" stroke-linecap="round" stroke-linejoin="round"/>
<path d="M 584 760 L 644 820 L 704 760" fill="none" stroke="#FFAB40" stroke-width="28" stroke-linecap="round" stroke-linejoin="round"/>
</svg>
