<svg xmlns="http://www.w3.org/2000/svg" viewBox="0 0 512 512">
  <defs>
    <linearGradient id="bg" x1="0%" y1="0%" x2="100%" y2="100%">
      <stop offset="0%" stop-color="#1a237e"/>
      <stop offset="100%" stop-color="#283593"/>
    </linearGradient>
    <linearGradient id="file1" x1="0%" y1="0%" x2="100%" y2="100%">
      <stop offset="0%" stop-color="#5c6bc0"/>
      <stop offset="100%" stop-color="#3949ab"/>
    </linearGradient>
    <linearGradient id="file2" x1="0%" y1="0%" x2="100%" y2="100%">
      <stop offset="0%" stop-color="#7986cb"/>
      <stop offset="100%" stop-color="#5c6bc0"/>
    </linearGradient>
    <linearGradient id="xGrad" x1="0%" y1="0%" x2="100%" y2="100%">
      <stop offset="0%" stop-color="#ff5252"/>
      <stop offset="100%" stop-color="#d50000"/>
    </linearGradient>
  </defs>
  <rect width="512" height="512" rx="80" fill="url(#bg)"/>
  <!-- File 1 (shadow/duplicate) -->
  <rect x="145" y="155" width="160" height="210" rx="12" fill="url(#file2)" opacity="0.7" transform="translate(20,20)"/>
  <polygon points="261,175 301,215 261,215" fill="#3949ab" opacity="0.7" transform="translate(20,20)"/>
  <!-- File 1 main -->
  <rect x="145" y="155" width="160" height="210" rx="12" fill="url(#file1)"/>
  <polygon points="261,155 301,195 261,195" fill="#3949ab"/>
  <polygon points="261,155 301,155 301,195" fill="#9fa8da"/>
  <rect x="165" y="225" width="120" height="10" rx="5" fill="#9fa8da" opacity="0.6"/>
  <rect x="165" y="245" width="100" height="10" rx="5" fill="#9fa8da" opacity="0.5"/>
  <rect x="165" y="265" width="110" height="10" rx="5" fill="#9fa8da" opacity="0.4"/>
  <text x="225" y="320" font-family="'Courier New', monospace" font-size="16" font-weight="bold" fill="#e8eaf6" text-anchor="middle">file.txt</text>
  <!-- File 2 (duplicate shifted right) -->
  <rect x="210" y="185" width="160" height="210" rx="12" fill="url(#file2)" opacity="0.85"/>
  <polygon points="326,185 366,225 326,225" fill="#283593"/>
  <polygon points="326,185 366,185 366,225" fill="#b0bec5"/>
  <rect x="230" y="255" width="120" height="10" rx="5" fill="#e8eaf6" opacity="0.5"/>
  <rect x="230" y="275" width="100" height="10" rx="5" fill="#e8eaf6" opacity="0.4"/>
  <rect x="230" y="295" width="110" height="10" rx="5" fill="#e8eaf6" opacity="0.35"/>
  <text x="290" y="350" font-family="'Courier New', monospace" font-size="16" font-weight="bold" fill="#e8eaf6" text-anchor="middle">file(2).txt</text>
  <!-- X delete badge -->
  <circle cx="390" cy="130" r="40" fill="url(#xGrad)"/>
  <line x1="368" y1="108" x2="412" y2="152" stroke="white" stroke-width="8" stroke-linecap="round"/>
  <line x1="412" y1="108" x2="368" y2="152" stroke="white" stroke-width="8" stroke-linecap="round"/>
</svg>
