<svg xmlns="http://www.w3.org/2000/svg" viewBox="0 0 1024 1024">
  <defs>
    <linearGradient id="bg2" x1="0%" y1="0%" x2="100%" y2="100%">
      <stop offset="0%" stop-color="#FFFBEB"/>
      <stop offset="100%" stop-color="#FEF3C7"/>
    </linearGradient>
  </defs>
  <!-- Background -->
  <rect width="1024" height="1024" rx="190" fill="url(#bg2)"/>
  <!-- Big sparkle center -->
  <!-- Main star burst -->
  <path d="M512,200 L540,440 L780,340 L590,512 L780,680 L540,580 L512,820 L484,580 L244,680 L434,512 L244,340 L484,440 Z" fill="#FCD34D"/>
  <!-- Inner bright -->
  <path d="M512,320 L528,450 L660,395 L572,512 L660,625 L528,572 L512,700 L496,572 L364,625 L452,512 L364,395 L496,450 Z" fill="#FBBF24"/>
  <!-- Center -->
  <circle cx="512" cy="512" r="80" fill="#F59E0B"/>
  <!-- Small sparkles around -->
  <circle cx="200" cy="240" r="30" fill="#FCD34D"/>
  <path d="M200,190 L210,240 L260,230 L220,268 L260,300 L210,292 L200,340 L190,292 L140,300 L178,268 L140,230 L190,240Z" fill="#FCD34D" opacity="0.8"/>
  <circle cx="800" cy="240" r="22" fill="#FBBF24"/>
  <path d="M800,200 L808,240 L848,230 L820,258 L848,284 L808,276 L800,316 L792,276 L752,284 L778,258 L752,230 L792,240Z" fill="#FBBF24" opacity="0.8"/>
  <circle cx="200" cy="780" r="22" fill="#FBBF24"/>
  <circle cx="800" cy="780" r="30" fill="#FCD34D"/>
  <!-- Label -->
  <text x="512" y="936" font-family="Arial,sans-serif" font-size="60" fill="#B45309" font-weight="bold" text-anchor="middle">Clean &amp; Shine</text>
</svg>
