<svg xmlns="http://www.w3.org/2000/svg" viewBox="0 0 512 512">
  <defs>
    <linearGradient id="bg" x1="0%" y1="0%" x2="100%" y2="100%">
      <stop offset="0%" stop-color="#121212"/>
      <stop offset="100%" stop-color="#1E1E1E"/>
    </linearGradient>
    <linearGradient id="left" x1="0%" y1="0%" x2="100%" y2="100%">
      <stop offset="0%" stop-color="#2C2C2C"/>
      <stop offset="100%" stop-color="#1A1A1A"/>
    </linearGradient>
    <linearGradient id="right" x1="0%" y1="0%" x2="100%" y2="100%">
      <stop offset="0%" stop-color="#3949AB"/>
      <stop offset="100%" stop-color="#1A237E"/>
    </linearGradient>
  </defs>
  <rect width="512" height="512" rx="80" fill="url(#bg)"/>
  <!-- 왼쪽 (전) 이미지 -->
  <rect x="50" y="80" width="200" height="310" rx="12" fill="url(#left)"/>
  <circle cx="120" cy="170" r="40" fill="#424242"/>
  <rect x="70" y="310" width="160" height="50" rx="0" fill="#212121"/>
  <!-- 오른쪽 (후) 이미지 -->
  <rect x="250" y="80" width="200" height="310" rx="12" fill="url(#right)"/>
  <circle cx="370" cy="170" r="45" fill="#5C6BC0"/>
  <rect x="260" y="310" width="180" height="50" rx="0" fill="#1A237E"/>
  <!-- 슬라이더 바 -->
  <rect x="50" y="430" width="400" height="14" rx="7" fill="#333333"/>
  <rect x="50" y="430" width="200" height="14" rx="7" fill="#3949AB"/>
  <!-- 슬라이더 핸들 -->
  <circle cx="250" cy="437" r="22" fill="white"/>
  <circle cx="250" cy="437" r="14" fill="#3949AB"/>
  <!-- 분리선 -->
  <line x1="250" y1="80" x2="250" y2="390" stroke="white" stroke-width="4"/>
  <circle cx="250" cy="235" r="20" fill="white"/>
  <polygon points="238,235 224,222 224,248" fill="#3949AB"/>
  <polygon points="262,235 276,222 276,248" fill="#3949AB"/>
</svg>