<svg xmlns="http://www.w3.org/2000/svg" viewBox="0 0 512 512">
  <defs>
    <linearGradient id="bg" x1="0" y1="0" x2="1" y2="1">
      <stop offset="0%" stop-color="#1A0E00"/>
      <stop offset="100%" stop-color="#0E001A"/>
    </linearGradient>
  </defs>
  <rect width="512" height="512" rx="80" fill="url(#bg)"/>
  <!-- Color wheel slices -->
  <!-- Red -->
  <path d="M256 256 L256 120 A136 136 0 0 1 374 188 Z" fill="#FF1744"/>
  <!-- Orange -->
  <path d="M256 256 L374 188 A136 136 0 0 1 392 256 Z" fill="#FF6D00"/>
  <!-- Yellow -->
  <path d="M256 256 L392 256 A136 136 0 0 1 374 324 Z" fill="#FFD600"/>
  <!-- Yellow-green -->
  <path d="M256 256 L374 324 A136 136 0 0 1 324 374 Z" fill="#76FF03"/>
  <!-- Green -->
  <path d="M256 256 L324 374 A136 136 0 0 1 188 374 Z" fill="#00E676"/>
  <!-- Cyan -->
  <path d="M256 256 L188 374 A136 136 0 0 1 138 324 Z" fill="#00E5FF"/>
  <!-- Blue -->
  <path d="M256 256 L138 324 A136 136 0 0 1 120 256 Z" fill="#2979FF"/>
  <!-- Indigo -->
  <path d="M256 256 L120 256 A136 136 0 0 1 138 188 Z" fill="#651FFF"/>
  <!-- Violet -->
  <path d="M256 256 L138 188 A136 136 0 0 1 188 138 Z" fill="#D500F9"/>
  <!-- Magenta -->
  <path d="M256 256 L188 138 A136 136 0 0 1 256 120 Z" fill="#FF1744" opacity="0.7"/>
  <!-- Center circle -->
  <circle cx="256" cy="256" r="52" fill="#1A0E00"/>
  <circle cx="256" cy="256" r="38" fill="#2A1800" stroke="#444" stroke-width="1.5"/>
  <!-- Grade triangle symbol in center -->
  <polygon points="256,238 272,264 240,264" fill="#FFD600" opacity="0.85"/>
</svg>
