<svg xmlns="http://www.w3.org/2000/svg" viewBox="0 0 1024 1024">
  <defs>
    <linearGradient id="star8" x1="0" y1="0" x2="0" y2="1">
      <stop offset="0" stop-color="#FFE873"/>
      <stop offset="1" stop-color="#FFA940"/>
    </linearGradient>
  </defs>
  <rect x="0" y="0" width="1024" height="1024" rx="200" fill="#E8DCFF"/>
  <g fill="#FFFFFF" stroke="#A875E0" stroke-width="8">
    <rect x="120" y="180" width="200" height="120" rx="20"/>
    <rect x="700" y="180" width="200" height="120" rx="20"/>
    <rect x="120" y="720" width="200" height="120" rx="20"/>
    <rect x="700" y="720" width="200" height="120" rx="20"/>
  </g>
  <g font-family="Arial Black, sans-serif" font-size="60" font-weight="900" text-anchor="middle" fill="#A875E0">
    <text x="220" y="262">★</text>
    <text x="800" y="262">★</text>
    <text x="220" y="802">★</text>
    <text x="800" y="802">★</text>
  </g>
  <path d="M 512 240 L 580 420 L 770 420 L 615 530 L 670 715 L 512 605 L 354 715 L 409 530 L 254 420 L 444 420 Z" fill="url(#star8)" stroke="#3D2A5C" stroke-width="18" stroke-linejoin="round"/>
  <text x="512" y="500" font-family="Arial Black, sans-serif" font-size="92" font-weight="900" text-anchor="middle" fill="#3D2A5C">FAV</text>
  <text x="512" y="900" font-family="Arial Black, sans-serif" font-size="76" font-weight="900" text-anchor="middle" fill="#3D2A5C">PROMPTS</text>
</svg>
