<svg xmlns="http://www.w3.org/2000/svg" viewBox="0 0 1024 1024">
  <defs>
    <linearGradient id="bg6" x1="0" y1="0" x2="0" y2="1">
      <stop offset="0" stop-color="#3D2A5C"/>
      <stop offset="1" stop-color="#1A1130"/>
    </linearGradient>
  </defs>
  <rect x="0" y="0" width="1024" height="1024" rx="200" fill="url(#bg6)"/>
  <g fill="#FFE873">
    <circle cx="180" cy="200" r="6"/>
    <circle cx="850" cy="160" r="8"/>
    <circle cx="900" cy="380" r="5"/>
    <circle cx="120" cy="450" r="7"/>
    <circle cx="780" cy="780" r="6"/>
  </g>
  <path d="M 200 240 Q 200 200 240 200 L 784 200 Q 824 200 824 240 L 824 824 Q 824 864 784 864 L 240 864 Q 200 864 200 824 Z" fill="#F4D8A8" stroke="#7A4B2A" stroke-width="14"/>
  <line x1="512" y1="200" x2="512" y2="864" stroke="#7A4B2A" stroke-width="10"/>
  <g stroke="#A875E0" stroke-width="8" fill="none">
    <line x1="260" y1="320" x2="460" y2="320"/>
    <line x1="260" y1="380" x2="440" y2="380"/>
    <line x1="260" y1="440" x2="460" y2="440"/>
    <line x1="260" y1="500" x2="420" y2="500"/>
    <line x1="260" y1="560" x2="450" y2="560"/>
  </g>
  <g stroke="#3DBE9A" stroke-width="8" fill="none">
    <line x1="564" y1="320" x2="764" y2="320"/>
    <line x1="564" y1="380" x2="744" y2="380"/>
    <line x1="564" y1="440" x2="764" y2="440"/>
    <line x1="564" y1="500" x2="724" y2="500"/>
  </g>
  <g transform="translate(512 600)">
    <circle r="120" fill="#FFE873" stroke="#FF9540" stroke-width="14"/>
    <text x="0" y="20" font-family="Arial Black, sans-serif" font-size="120" font-weight="900" text-anchor="middle" fill="#3D2A5C">P</text>
    <g stroke="#FFE873" stroke-width="10" stroke-linecap="round">
      <line x1="0" y1="-180" x2="0" y2="-140"/>
      <line x1="0" y1="140" x2="0" y2="180"/>
      <line x1="-180" y1="0" x2="-140" y2="0"/>
      <line x1="140" y1="0" x2="180" y2="0"/>
    </g>
  </g>
  <text x="512" y="950" font-family="Arial Black, sans-serif" font-size="60" font-weight="900" text-anchor="middle" fill="#FFE873">SPELLBOOK</text>
</svg>
