<svg xmlns="http://www.w3.org/2000/svg" viewBox="0 0 1024 1024">
  <defs>
    <linearGradient id="bg1" x1="0" y1="0" x2="0" y2="1">
      <stop offset="0" stop-color="#3D2E1F"/>
      <stop offset="1" stop-color="#1F1812"/>
    </linearGradient>
    <radialGradient id="spark" cx="0.5" cy="0.5" r="0.5">
      <stop offset="0" stop-color="#FFE873"/>
      <stop offset="0.5" stop-color="#FF9540"/>
      <stop offset="1" stop-color="#FF9540" stop-opacity="0"/>
    </radialGradient>
  </defs>
  <rect x="0" y="0" width="1024" height="1024" rx="200" fill="url(#bg1)"/>
  <circle cx="512" cy="600" r="280" fill="url(#spark)" opacity="0.7"/>
  <rect x="220" y="640" width="584" height="100" rx="20" fill="#5C4634"/>
  <path d="M 280 640 L 280 540 Q 280 480 360 480 L 664 480 Q 744 480 744 540 L 744 640 Z" fill="#7D8590"/>
  <path d="M 320 580 L 704 580" stroke="#3D4147" stroke-width="8"/>
  <rect x="380" y="240" width="160" height="200" rx="20" fill="#5C4634" transform="rotate(15 460 340)"/>
  <rect x="540" y="160" width="220" height="100" rx="20" fill="#9CA0AB" transform="rotate(15 650 210)"/>
  <g fill="#FFE873">
    <circle cx="700" cy="400" r="14"/>
    <circle cx="760" cy="450" r="10"/>
    <circle cx="640" cy="350" r="8"/>
    <circle cx="280" cy="380" r="12"/>
    <circle cx="240" cy="450" r="9"/>
  </g>
  <text x="512" y="900" font-family="Arial Black, sans-serif" font-size="92" font-weight="900" text-anchor="middle" fill="#FFE873">FORGE</text>
</svg>
