<svg xmlns="http://www.w3.org/2000/svg" viewBox="0 0 1024 1024">
  <defs>
    <linearGradient id="brain5" x1="0" y1="0" x2="1" y2="1">
      <stop offset="0" stop-color="#FF8FD4"/>
      <stop offset="1" stop-color="#A875E0"/>
    </linearGradient>
  </defs>
  <rect x="0" y="0" width="1024" height="1024" rx="200" fill="#E0F2FF"/>
  <path d="M 320 380 Q 240 380 240 480 Q 200 520 240 580 Q 220 660 320 700 Q 360 760 460 740 L 460 380 Z" fill="url(#brain5)" stroke="#3D2A5C" stroke-width="14"/>
  <path d="M 704 380 Q 784 380 784 480 Q 824 520 784 580 Q 804 660 704 700 Q 664 760 564 740 L 564 380 Z" fill="url(#brain5)" stroke="#3D2A5C" stroke-width="14"/>
  <line x1="512" y1="380" x2="512" y2="740" stroke="#3D2A5C" stroke-width="14"/>
  <path d="M 360 460 Q 420 480 420 540" fill="none" stroke="#FFFFFF" stroke-width="10" opacity="0.7"/>
  <path d="M 380 600 Q 440 620 440 680" fill="none" stroke="#FFFFFF" stroke-width="10" opacity="0.7"/>
  <path d="M 664 460 Q 604 480 604 540" fill="none" stroke="#FFFFFF" stroke-width="10" opacity="0.7"/>
  <path d="M 644 600 Q 584 620 584 680" fill="none" stroke="#FFFFFF" stroke-width="10" opacity="0.7"/>
  <g fill="#FFE873" stroke="#FF9540" stroke-width="6">
    <circle cx="220" cy="280" r="40"/>
    <circle cx="804" cy="280" r="40"/>
    <circle cx="120" cy="500" r="34"/>
    <circle cx="904" cy="500" r="34"/>
  </g>
  <text x="220" y="296" font-family="Arial Black, sans-serif" font-size="42" font-weight="900" text-anchor="middle" fill="#3D2A5C">P</text>
  <text x="804" y="296" font-family="Arial Black, sans-serif" font-size="42" font-weight="900" text-anchor="middle" fill="#3D2A5C">{</text>
  <text x="120" y="514" font-family="Arial Black, sans-serif" font-size="36" font-weight="900" text-anchor="middle" fill="#3D2A5C">&gt;</text>
  <text x="904" y="514" font-family="Arial Black, sans-serif" font-size="36" font-weight="900" text-anchor="middle" fill="#3D2A5C">★</text>
  <text x="512" y="900" font-family="Arial Black, sans-serif" font-size="84" font-weight="900" text-anchor="middle" fill="#3D2A5C">AI PROMPT</text>
</svg>
