<svg xmlns="http://www.w3.org/2000/svg" viewBox="0 0 1024 1024">
  <rect x="0" y="0" width="1024" height="1024" rx="200" fill="#FFF4E0"/>
  <rect x="140" y="160" width="320" height="240" rx="32" fill="#FFB36B" stroke="#3D2614" stroke-width="14"/>
  <rect x="180" y="200" width="180" height="20" rx="10" fill="#FFFFFF"/>
  <rect x="180" y="240" width="240" height="14" rx="7" fill="#FFFFFF" opacity="0.7"/>
  <rect x="180" y="270" width="200" height="14" rx="7" fill="#FFFFFF" opacity="0.7"/>
  <rect x="180" y="340" width="80" height="30" rx="15" fill="#FFFFFF"/>
  <text x="220" y="362" font-family="Arial Black, sans-serif" font-size="20" font-weight="900" text-anchor="middle" fill="#3D2614">CODE</text>

  <rect x="500" y="160" width="380" height="240" rx="32" fill="#A875E0" stroke="#3D2614" stroke-width="14"/>
  <rect x="540" y="200" width="220" height="20" rx="10" fill="#FFFFFF"/>
  <rect x="540" y="240" width="280" height="14" rx="7" fill="#FFFFFF" opacity="0.7"/>
  <rect x="540" y="270" width="240" height="14" rx="7" fill="#FFFFFF" opacity="0.7"/>
  <rect x="540" y="300" width="200" height="14" rx="7" fill="#FFFFFF" opacity="0.7"/>
  <text x="820" y="370" font-family="Arial Black, sans-serif" font-size="60" font-weight="900" text-anchor="middle" fill="#FFE873">★</text>

  <rect x="140" y="450" width="380" height="240" rx="32" fill="#3DBE9A" stroke="#3D2614" stroke-width="14"/>
  <rect x="180" y="490" width="200" height="20" rx="10" fill="#FFFFFF"/>
  <rect x="180" y="530" width="280" height="14" rx="7" fill="#FFFFFF" opacity="0.7"/>
  <rect x="180" y="560" width="240" height="14" rx="7" fill="#FFFFFF" opacity="0.7"/>

  <rect x="560" y="450" width="320" height="240" rx="32" fill="#FF6FA0" stroke="#3D2614" stroke-width="14"/>
  <rect x="600" y="490" width="160" height="20" rx="10" fill="#FFFFFF"/>
  <rect x="600" y="530" width="220" height="14" rx="7" fill="#FFFFFF" opacity="0.7"/>
  <rect x="600" y="560" width="180" height="14" rx="7" fill="#FFFFFF" opacity="0.7"/>

  <text x="512" y="850" font-family="Arial Black, sans-serif" font-size="100" font-weight="900" text-anchor="middle" fill="#3D2614">PROMPTS</text>
</svg>
