<svg xmlns="http://www.w3.org/2000/svg" viewBox="0 0 1024 1024">
  <!-- Literal: Tag + audio file icon -->
  <rect x="80" y="80" width="864" height="864" rx="160" ry="160" fill="#001A0A"/>
  <!-- Audio file -->
  <path d="M220 200 L220 800 L680 800 L680 340 L540 200 Z" fill="#0D2B1A" stroke="#00BFA5" stroke-width="22"/>
  <!-- Folded corner -->
  <path d="M540 200 L540 340 L680 340 Z" fill="#00BFA5" opacity="0.4"/>
  <!-- Music note on file -->
  <rect x="330" y="380" width="30" height="180" rx="8" fill="#00BFA5"/>
  <ellipse cx="314" cy="560" rx="56" ry="40" fill="#00BFA5" transform="rotate(-15, 314, 560)"/>
  <path d="M360 380 L460 350 L460 382 L360 412 Z" fill="#00BFA5"/>
  <!-- Tag label hanging from file -->
  <line x1="600" y1="540" x2="700" y2="440" stroke="#80CBC4" stroke-width="16" stroke-dasharray="16 8"/>
  <path d="M680 380 L680 500 L800 500 L840 440 L800 380 Z" fill="#004D40" stroke="#00BFA5" stroke-width="18"/>
  <circle cx="708" cy="440" r="18" fill="#001A0A" stroke="#00BFA5" stroke-width="10"/>
  <rect x="730" y="428" width="80" height="12" rx="6" fill="#80CBC4" opacity="0.8"/>
  <rect x="730" y="448" width="60" height="12" rx="6" fill="#80CBC4" opacity="0.6"/>
</svg>
