<svg xmlns="http://www.w3.org/2000/svg" viewBox="0 0 512 512">
  <defs>
    <linearGradient id="bg" x1="0%" y1="0%" x2="100%" y2="100%">
      <stop offset="0%" stop-color="#071108"/>
      <stop offset="100%" stop-color="#0F2010"/>
    </linearGradient>
    <filter id="glow">
      <feGaussianBlur stdDeviation="5" result="blur"/>
      <feMerge><feMergeNode in="blur"/><feMergeNode in="SourceGraphic"/></feMerge>
    </filter>
  </defs>
  <rect width="512" height="512" rx="80" fill="url(#bg)"/>
  <!-- Signal waveform -->
  <polyline points="60,256 100,256 100,180 140,180 140,256 160,256 160,180 200,180 200,256 240,256 240,140 300,140 300,256 320,256 320,180 360,180 360,256 400,256 400,180 452,180 452,256" fill="none" stroke="#39FF14" stroke-width="5" filter="url(#glow)"/>
  <!-- Dot indicators below -->
  <circle cx="120" cy="320" r="16" fill="#39FF14" filter="url(#glow)"/>
  <rect x="154" y="304" width="36" height="32" rx="6" fill="#39FF14" filter="url(#glow)"/>
  <circle cx="218" cy="320" r="16" fill="#39FF14" filter="url(#glow)"/>
  <circle cx="264" cy="320" r="16" fill="#39FF14" filter="url(#glow)"/>
  <rect x="298" y="304" width="36" height="32" rx="6" fill="#39FF14" filter="url(#glow)"/>
  <circle cx="364" cy="320" r="16" fill="#39FF14" filter="url(#glow)"/>
  <!-- Legend -->
  <circle cx="150" cy="390" r="10" fill="#39FF14"/>
  <text x="168" y="396" font-family="monospace" font-size="14" fill="#39FF14">= DIT</text>
  <rect x="240" y="380" width="22" height="20" rx="4" fill="#39FF14"/>
  <text x="270" y="396" font-family="monospace" font-size="14" fill="#39FF14">= DAH</text>
  <!-- Title -->
  <text x="256" y="450" text-anchor="middle" font-family="monospace" font-size="20" font-weight="bold" fill="#39FF14" filter="url(#glow)">MORSE.RUN</text>
</svg>