<svg xmlns="http://www.w3.org/2000/svg" viewBox="0 0 1024 1024">
  <!-- icon_02: literal · 레이어드 · yyyy/MM/dd 폴더 트리 -->
  <defs>
    <linearGradient id="bg02" x1="0" y1="0" x2="0" y2="1">
      <stop offset="0" stop-color="#FFF3E0"/>
      <stop offset="1" stop-color="#FFCC80"/>
    </linearGradient>
  </defs>
  <rect x="0" y="0" width="1024" height="1024" rx="200" fill="url(#bg02)"/>
  <!-- 레벨 1: 2026 (최상단) -->
  <g>
    <path d="M 160 220 L 300 220 L 340 180 L 700 180 Q 740 180 740 220 L 740 340 Q 740 360 720 360 L 160 360 Q 140 360 140 340 L 140 240 Q 140 220 160 220 Z" fill="#FFD93D" stroke="#B88A00" stroke-width="14"/>
    <text x="440" y="305" font-family="Arial Black, sans-serif" font-weight="900" font-size="92" fill="#B88A00" text-anchor="middle">2026</text>
  </g>
  <!-- 트리 라인 -->
  <path d="M 260 360 L 260 440 L 340 440" stroke="#6D4C41" stroke-width="10" fill="none" stroke-linecap="round"/>
  <!-- 레벨 2: 04 -->
  <g>
    <path d="M 360 400 L 460 400 L 500 360 L 820 360 Q 860 360 860 400 L 860 520 Q 860 540 840 540 L 360 540 Q 340 540 340 520 L 340 420 Q 340 400 360 400 Z" fill="#FF6B9D" stroke="#880E4F" stroke-width="14"/>
    <text x="600" y="485" font-family="Arial Black, sans-serif" font-weight="900" font-size="92" fill="#FFFFFF" text-anchor="middle">04</text>
  </g>
  <!-- 트리 라인 -->
  <path d="M 460 540 L 460 620 L 540 620" stroke="#6D4C41" stroke-width="10" fill="none" stroke-linecap="round"/>
  <!-- 레벨 3: 13 (폴더 안에 사진) -->
  <g>
    <path d="M 560 580 L 660 580 L 700 540 L 900 540 Q 940 540 940 580 L 940 880 Q 940 900 920 900 L 560 900 Q 540 900 540 880 L 540 600 Q 540 580 560 580 Z" fill="#3A86FF" stroke="#0D47A1" stroke-width="14"/>
    <text x="740" y="670" font-family="Arial Black, sans-serif" font-weight="900" font-size="88" fill="#FFFFFF" text-anchor="middle">13</text>
    <!-- 사진 썸네일 안에 -->
    <g transform="translate(740 800)">
      <rect x="-120" y="-60" width="240" height="160" rx="12" fill="#FFFFFF" stroke="#0D47A1" stroke-width="8"/>
      <rect x="-110" y="-50" width="220" height="140" fill="#81D4FA"/>
      <circle cx="60" cy="-20" r="20" fill="#FFD93D"/>
      <path d="M -110 60 L -50 10 L 0 40 L 60 -10 L 110 20 L 110 90 L -110 90 Z" fill="#4CAF50"/>
    </g>
  </g>
</svg>
