<svg xmlns="http://www.w3.org/2000/svg" viewBox="0 0 1024 1024">
  <rect x="80" y="80" width="864" height="864" rx="180" ry="180" fill="#000A14"/>
  <!-- 낙하산 급강하: 파라슈트 -->
  <!-- 파라슈트 캐노피 -->
  <path d="M512,240 Q340,240 300,420 Q512,380 724,420 Q684,240 512,240 Z" fill="#0288D1"/>
  <!-- 캐노피 내부 선 -->
  <line x1="512" y1="240" x2="420" y2="420" stroke="#000A14" stroke-width="6" opacity="0.4"/>
  <line x1="512" y1="240" x2="512" y2="420" stroke="#000A14" stroke-width="6" opacity="0.4"/>
  <line x1="512" y1="240" x2="600" y2="420" stroke="#000A14" stroke-width="6" opacity="0.4"/>
  <!-- 낙하산 줄 -->
  <line x1="420" y1="420" x2="490" y2="580" stroke="#4FC3F7" stroke-width="5"/>
  <line x1="512" y1="420" x2="512" y2="580" stroke="#4FC3F7" stroke-width="5"/>
  <line x1="600" y1="420" x2="534" y2="580" stroke="#4FC3F7" stroke-width="5"/>
  <line x1="300" y1="420" x2="490" y2="580" stroke="#4FC3F7" stroke-width="5"/>
  <line x1="724" y1="420" x2="534" y2="580" stroke="#4FC3F7" stroke-width="5"/>
  <!-- 하네스/사람 -->
  <rect x="474" y="578" width="76" height="90" rx="12" fill="#0288D1"/>
  <ellipse cx="512" cy="560" rx="34" ry="34" fill="#4FC3F7"/>
  <!-- 속도선 -->
  <line x1="512" y1="700" x2="512" y2="800" stroke="#4FC3F7" stroke-width="6" stroke-dasharray="16,12" opacity="0.5"/>
</svg>
