<svg xmlns="http://www.w3.org/2000/svg" viewBox="0 0 512 512">
  <defs>
    <linearGradient id="bg" x1="0%" y1="0%" x2="100%" y2="100%">
      <stop offset="0%" style="stop-color:#0d1117"/>
      <stop offset="100%" style="stop-color:#161b22"/>
    </linearGradient>
    <linearGradient id="accent" x1="0%" y1="0%" x2="100%" y2="100%">
      <stop offset="0%" style="stop-color:#58a6ff"/>
      <stop offset="100%" style="stop-color:#1f6feb"/>
    </linearGradient>
  </defs>
  <rect width="512" height="512" rx="80" fill="url(#bg)"/>
  <!-- Search input -->
  <rect x="48" y="60" width="416" height="52" rx="26" fill="#161b22" stroke="#30363d" stroke-width="2"/>
  <circle cx="86" cy="86" r="16" fill="none" stroke="#8b949e" stroke-width="2.5"/>
  <line x1="98" y1="98" x2="110" y2="110" stroke="#8b949e" stroke-width="2.5" stroke-linecap="round"/>
  <text x="120" y="93" font-family="sans-serif" font-size="16" fill="#8b949e">Search icons...</text>
  <!-- Filter chips -->
  <rect x="48" y="128" width="80" height="30" rx="15" fill="url(#accent)"/>
  <text x="66" y="148" font-family="sans-serif" font-size="13" fill="white">All</text>
  <rect x="140" y="128" width="90" height="30" rx="15" fill="#21262d" stroke="#30363d" stroke-width="1.5"/>
  <text x="155" y="148" font-family="sans-serif" font-size="13" fill="#8b949e">Filled</text>
  <rect x="242" y="128" width="100" height="30" rx="15" fill="#21262d" stroke="#30363d" stroke-width="1.5"/>
  <text x="257" y="148" font-family="sans-serif" font-size="13" fill="#8b949e">Outline</text>
  <rect x="354" y="128" width="80" height="30" rx="15" fill="#21262d" stroke="#30363d" stroke-width="1.5"/>
  <text x="366" y="148" font-family="sans-serif" font-size="13" fill="#8b949e">Color</text>
  <!-- Result grid -->
  <rect x="48" y="178" width="90" height="90" rx="14" fill="#161b22" stroke="#21262d" stroke-width="1.5"/>
  <text x="76" y="234" font-family="serif" font-size="42">⭐</text>
  <rect x="152" y="178" width="90" height="90" rx="14" fill="#161b22" stroke="#58a6ff" stroke-width="2"/>
  <text x="180" y="234" font-family="serif" font-size="42">🔍</text>
  <rect x="256" y="178" width="90" height="90" rx="14" fill="#161b22" stroke="#21262d" stroke-width="1.5"/>
  <text x="284" y="234" font-family="serif" font-size="42">🏠</text>
  <rect x="360" y="178" width="100" height="90" rx="14" fill="#161b22" stroke="#21262d" stroke-width="1.5"/>
  <text x="388" y="234" font-family="serif" font-size="42">🔥</text>
  <!-- Row 2 -->
  <rect x="48" y="282" width="90" height="90" rx="14" fill="#161b22" stroke="#21262d" stroke-width="1.5"/>
  <text x="76" y="338" font-family="serif" font-size="42">💡</text>
  <rect x="152" y="282" width="90" height="90" rx="14" fill="#161b22" stroke="#21262d" stroke-width="1.5"/>
  <text x="180" y="338" font-family="serif" font-size="42">🎵</text>
  <rect x="256" y="282" width="90" height="90" rx="14" fill="#161b22" stroke="#21262d" stroke-width="1.5"/>
  <text x="284" y="338" font-family="serif" font-size="42">🚀</text>
  <rect x="360" y="282" width="100" height="90" rx="14" fill="#161b22" stroke="#21262d" stroke-width="1.5"/>
  <text x="388" y="338" font-family="serif" font-size="42">💎</text>
  <!-- Count -->
  <text x="48" y="408" font-family="sans-serif" font-size="15" fill="#58a6ff">2,847 results</text>
</svg>