<svg xmlns="http://www.w3.org/2000/svg" viewBox="0 0 512 512">
  <defs>
    <radialGradient id="bg" cx="50%" cy="50%" r="60%">
      <stop offset="0%" stop-color="#2d0000"/>
      <stop offset="100%" stop-color="#160000"/>
    </radialGradient>
    <linearGradient id="red" x1="0" y1="0" x2="1" y2="1">
      <stop offset="0%" stop-color="#ef4444"/>
      <stop offset="100%" stop-color="#b91c1c"/>
    </linearGradient>
  </defs>
  <rect width="512" height="512" rx="80" fill="url(#bg)"/>
  <!-- Target rings -->
  <circle cx="256" cy="256" r="200" fill="none" stroke="#ef4444" stroke-width="2" opacity="0.2"/>
  <circle cx="256" cy="256" r="160" fill="none" stroke="#ef4444" stroke-width="2" opacity="0.3"/>
  <circle cx="256" cy="256" r="120" fill="none" stroke="#ef4444" stroke-width="2.5" opacity="0.5"/>
  <circle cx="256" cy="256" r="80" fill="none" stroke="#ef4444" stroke-width="3" opacity="0.7"/>
  <circle cx="256" cy="256" r="40" fill="#ef4444" opacity="0.8"/>
  <circle cx="256" cy="256" r="28" fill="#b91c1c"/>
  <circle cx="256" cy="256" r="14" fill="#ef4444"/>
  <!-- Crosshair lines -->
  <line x1="56" y1="256" x2="176" y2="256" stroke="#ef4444" stroke-width="2" opacity="0.6"/>
  <line x1="336" y1="256" x2="456" y2="256" stroke="#ef4444" stroke-width="2" opacity="0.6"/>
  <line x1="256" y1="56" x2="256" y2="176" stroke="#ef4444" stroke-width="2" opacity="0.6"/>
  <line x1="256" y1="336" x2="256" y2="456" stroke="#ef4444" stroke-width="2" opacity="0.6"/>
  <!-- Scattered icons at cardinal positions (hunted) -->
  <rect x="80" y="80" width="60" height="60" rx="12" fill="#2d0000" stroke="#b91c1c" stroke-width="2" opacity="0.8"/>
  <text x="92" y="124" font-size="36">🎯</text>
  <rect x="370" y="80" width="60" height="60" rx="12" fill="#2d0000" stroke="#b91c1c" stroke-width="2" opacity="0.6"/>
  <text x="382" y="124" font-size="36">🎨</text>
  <rect x="80" y="372" width="60" height="60" rx="12" fill="#2d0000" stroke="#7f1d1d" stroke-width="1.5" opacity="0.6"/>
  <text x="92" y="416" font-size="36">🔮</text>
  <rect x="370" y="372" width="60" height="60" rx="12" fill="#2d0000" stroke="#7f1d1d" stroke-width="1.5" opacity="0.6"/>
  <text x="382" y="416" font-size="36">⭐</text>
  <!-- Found icon indicator (arrow + icon) -->
  <rect x="190" y="44" width="132" height="44" rx="10" fill="#2d0000" stroke="#ef4444" stroke-width="2"/>
  <text x="200" y="74" font-family="monospace" font-size="14" fill="#ef4444">Found: 🎯</text>
  <line x1="256" y1="88" x2="256" y2="120" stroke="#ef4444" stroke-width="2" stroke-dasharray="4,3" opacity="0.7"/>
  <!-- Bottom search result strip -->
  <rect x="56" y="440" width="400" height="40" rx="10" fill="#2d0000" stroke="#ef4444" stroke-width="1.5"/>
  <text x="72" y="465" font-family="monospace" font-size="14" fill="#ef4444">Icon Hunt  •  Scanning  •  4,218 icons</text>
</svg>
