<svg xmlns="http://www.w3.org/2000/svg" viewBox="0 0 1024 1024">
  <defs>
    <linearGradient id="bg07" x1="0" y1="0" x2="1" y2="1">
      <stop offset="0%" stop-color="#F1F8E9"/>
      <stop offset="100%" stop-color="#1B5E20"/>
    </linearGradient>
  </defs>
  <!-- Layer 1: 배경 -->
  <rect width="1024" height="1024" rx="190" fill="url(#bg07)"/>
  <!-- Layer 2: 속도계 반원 -->
  <!-- 배경 반원 -->
  <path d="M 180 640 A 332 332 0 0 1 844 640" fill="none" stroke="#C8E6C9" stroke-width="60" stroke-linecap="round"/>
  <!-- 느림 구간 (빨강) -->
  <path d="M 180 640 A 332 332 0 0 1 310 356" fill="none" stroke="#EF5350" stroke-width="60" stroke-linecap="round"/>
  <!-- 중간 구간 (노랑) -->
  <path d="M 310 356 A 332 332 0 0 1 512 308" fill="none" stroke="#FDD835" stroke-width="60" stroke-linecap="round"/>
  <!-- 빠름 구간 (초록) -->
  <path d="M 512 308 A 332 332 0 0 1 844 640" fill="none" stroke="#4CAF50" stroke-width="60" stroke-linecap="round"/>
  <!-- 바늘 (빠름 방향 - 오른쪽) -->
  <line x1="512" y1="640" x2="770" y2="380" stroke="#F57F17" stroke-width="16" stroke-linecap="round"/>
  <circle cx="512" cy="640" r="36" fill="#F57F17"/>
  <circle cx="512" cy="640" r="20" fill="white"/>
  <!-- 눈금 텍스트 -->
  <text x="175" y="710" font-family="Arial Black, sans-serif" font-size="46" font-weight="900" fill="#EF5350" text-anchor="middle">느림</text>
  <text x="512" y="284" font-family="Arial Black, sans-serif" font-size="46" font-weight="900" fill="#FDD835" text-anchor="middle">보통</text>
  <text x="848" y="710" font-family="Arial Black, sans-serif" font-size="46" font-weight="900" fill="#4CAF50" text-anchor="middle">빠름</text>
  <!-- Layer 3: 상태 배지 -->
  <rect x="284" y="770" width="456" height="86" rx="22" fill="#2E7D32"/>
  <text x="512" y="827" font-family="Arial Black, Arial, sans-serif" font-size="56" font-weight="900" fill="#FDD835" text-anchor="middle">OPTIMIZED!</text>
</svg>
