<svg xmlns="http://www.w3.org/2000/svg" viewBox="0 0 1024 1024">
  <rect x="80" y="80" width="864" height="864" rx="180" fill="#000508"/>
  <!-- 별자리 점들 -->
  <circle cx="512" cy="300" r="16" fill="#4FC3F7"/>
  <circle cx="380" cy="380" r="12" fill="#4FC3F7" opacity="0.8"/>
  <circle cx="644" cy="380" r="12" fill="#4FC3F7" opacity="0.8"/>
  <circle cx="320" cy="520" r="10" fill="#4FC3F7" opacity="0.7"/>
  <circle cx="704" cy="520" r="10" fill="#4FC3F7" opacity="0.7"/>
  <circle cx="400" cy="650" r="14" fill="#4FC3F7" opacity="0.9"/>
  <circle cx="624" cy="650" r="14" fill="#4FC3F7" opacity="0.9"/>
  <circle cx="512" cy="700" r="18" fill="#4FC3F7"/>
  <!-- 별자리 연결선 -->
  <line x1="512" y1="300" x2="380" y2="380" stroke="#01579B" stroke-width="3" opacity="0.6"/>
  <line x1="512" y1="300" x2="644" y2="380" stroke="#01579B" stroke-width="3" opacity="0.6"/>
  <line x1="380" y1="380" x2="320" y2="520" stroke="#01579B" stroke-width="3" opacity="0.6"/>
  <line x1="644" y1="380" x2="704" y2="520" stroke="#01579B" stroke-width="3" opacity="0.6"/>
  <line x1="320" y1="520" x2="400" y2="650" stroke="#01579B" stroke-width="3" opacity="0.6"/>
  <line x1="704" y1="520" x2="624" y2="650" stroke="#01579B" stroke-width="3" opacity="0.6"/>
  <line x1="400" y1="650" x2="512" y2="700" stroke="#01579B" stroke-width="3" opacity="0.6"/>
  <line x1="624" y1="650" x2="512" y2="700" stroke="#01579B" stroke-width="3" opacity="0.6"/>
  <!-- 별자리 단어 (바 형태) -->
  <rect x="460" y="290" width="104" height="22" rx="6" fill="#4FC3F7" opacity="0.3"/>
  <rect x="340" y="370" width="80" height="18" rx="5" fill="#4FC3F7" opacity="0.3"/>
  <rect x="480" y="690" width="64" height="18" rx="5" fill="#4FC3F7" opacity="0.3"/>
</svg>