<svg xmlns="http://www.w3.org/2000/svg" viewBox="0 0 1024 1024">
  <!-- 코랄/오렌지 배경 — QR 코드 + 링크→QR 변환 모티프 -->
  <defs>
    <linearGradient id="bg6" x1="0" y1="0" x2="1" y2="1">
      <stop offset="0%" stop-color="#FF6B35"/>
      <stop offset="100%" stop-color="#E84545"/>
    </linearGradient>
    <linearGradient id="qrBg6" x1="0" y1="0" x2="0" y2="1">
      <stop offset="0%" stop-color="#FFF5F0"/>
      <stop offset="100%" stop-color="#FFE8E0"/>
    </linearGradient>
    <linearGradient id="linkGrad" x1="0" y1="0" x2="1" y2="0">
      <stop offset="0%" stop-color="#FFFFFF" stop-opacity="0.9"/>
      <stop offset="100%" stop-color="#FFDDCC" stop-opacity="0.9"/>
    </linearGradient>
  </defs>

  <!-- 배경 -->
  <rect width="1024" height="1024" rx="160" fill="url(#bg6)"/>
  <!-- 반투명 원 장식 -->
  <circle cx="850" cy="150" r="200" fill="#FFFFFF" opacity="0.08"/>
  <circle cx="150" cy="900" r="180" fill="#FFFFFF" opacity="0.06"/>

  <!-- 상단: URL 링크 체인 아이콘 -->
  <!-- 링크 고리 왼쪽 -->
  <rect x="140" y="140" width="280" height="120" rx="60" fill="none" stroke="#FFFFFF" stroke-width="28"/>
  <rect x="164" y="164" width="232" height="72" rx="36" fill="#FF6B35"/>
  <!-- 링크 고리 오른쪽 -->
  <rect x="320" y="140" width="280" height="120" rx="60" fill="none" stroke="#FFFFFF" stroke-width="28"/>
  <rect x="344" y="164" width="232" height="72" rx="36" fill="#FF6B35"/>
  <!-- 링크 중간 연결선 -->
  <rect x="330" y="182" width="180" height="36" rx="18" fill="#FFFFFF" opacity="0.9"/>

  <!-- 화살표 (아래) -->
  <line x1="512" y1="288" x2="512" y2="360" stroke="#FFFFFF" stroke-width="10" stroke-linecap="round"/>
  <polygon points="512,390 474,352 550,352" fill="#FFFFFF"/>

  <!-- QR 코드 패널 -->
  <rect x="152" y="394" width="720" height="506" rx="24" fill="url(#qrBg6)"/>

  <!-- 좌상 코너 파인더 -->
  <rect x="182" y="424" width="172" height="172" rx="14" fill="#CC3300"/>
  <rect x="200" y="442" width="136" height="136" rx="9" fill="url(#qrBg6)"/>
  <rect x="218" y="460" width="100" height="100" rx="6" fill="#CC3300"/>

  <!-- 우상 코너 파인더 -->
  <rect x="670" y="424" width="172" height="172" rx="14" fill="#CC3300"/>
  <rect x="688" y="442" width="136" height="136" rx="9" fill="url(#qrBg6)"/>
  <rect x="706" y="460" width="100" height="100" rx="6" fill="#CC3300"/>

  <!-- 좌하 코너 파인더 -->
  <rect x="182" y="698" width="172" height="172" rx="14" fill="#CC3300"/>
  <rect x="200" y="716" width="136" height="136" rx="9" fill="url(#qrBg6)"/>
  <rect x="218" y="734" width="100" height="100" rx="6" fill="#CC3300"/>

  <!-- 타이밍 패턴 수평 -->
  <rect x="378" y="456" width="22" height="22" rx="4" fill="#CC3300"/>
  <rect x="404" y="456" width="22" height="22" rx="4" fill="#CC3300"/>
  <rect x="430" y="456" width="22" height="22" rx="4" fill="#CC3300"/>
  <rect x="456" y="456" width="22" height="22" rx="4" fill="#CC3300"/>
  <rect x="482" y="456" width="22" height="22" rx="4" fill="#CC3300"/>
  <rect x="508" y="456" width="22" height="22" rx="4" fill="#CC3300"/>
  <rect x="534" y="456" width="22" height="22" rx="4" fill="#CC3300"/>
  <rect x="560" y="456" width="22" height="22" rx="4" fill="#CC3300"/>
  <rect x="586" y="456" width="22" height="22" rx="4" fill="#CC3300"/>
  <rect x="612" y="456" width="22" height="22" rx="4" fill="#CC3300"/>
  <rect x="638" y="456" width="22" height="22" rx="4" fill="#CC3300"/>

  <!-- 타이밍 패턴 수직 -->
  <rect x="456" y="620" width="22" height="22" rx="4" fill="#CC3300"/>
  <rect x="456" y="646" width="22" height="22" rx="4" fill="#CC3300"/>
  <rect x="456" y="672" width="22" height="22" rx="4" fill="#CC3300"/>
  <rect x="456" y="698" width="22" height="22" rx="4" fill="#CC3300"/>
  <rect x="456" y="724" width="22" height="22" rx="4" fill="#CC3300"/>
  <rect x="456" y="750" width="22" height="22" rx="4" fill="#CC3300"/>
  <rect x="456" y="776" width="22" height="22" rx="4" fill="#CC3300"/>
  <rect x="456" y="802" width="22" height="22" rx="4" fill="#CC3300"/>
  <rect x="456" y="828" width="22" height="22" rx="4" fill="#CC3300"/>
  <rect x="456" y="854" width="22" height="22" rx="4" fill="#CC3300"/>

  <!-- 데이터 모듈 (우하 영역) -->
  <rect x="510" y="620" width="16" height="16" rx="2" fill="#AA2200"/>
  <rect x="530" y="620" width="16" height="16" rx="2" fill="#AA2200"/>
  <rect x="566" y="620" width="16" height="16" rx="2" fill="#AA2200"/>
  <rect x="602" y="620" width="16" height="16" rx="2" fill="#AA2200"/>
  <rect x="638" y="620" width="16" height="16" rx="2" fill="#AA2200"/>
  <rect x="674" y="620" width="16" height="16" rx="2" fill="#AA2200"/>
  <rect x="710" y="620" width="16" height="16" rx="2" fill="#AA2200"/>
  <rect x="746" y="620" width="16" height="16" rx="2" fill="#AA2200"/>
  <rect x="830" y="620" width="16" height="16" rx="2" fill="#AA2200"/>
  <rect x="850" y="620" width="16" height="16" rx="2" fill="#AA2200"/>
  <rect x="510" y="640" width="16" height="16" rx="2" fill="#AA2200"/>
  <rect x="566" y="640" width="16" height="16" rx="2" fill="#AA2200"/>
  <rect x="620" y="640" width="16" height="16" rx="2" fill="#AA2200"/>
  <rect x="692" y="640" width="16" height="16" rx="2" fill="#AA2200"/>
  <rect x="764" y="640" width="16" height="16" rx="2" fill="#AA2200"/>
  <rect x="830" y="640" width="16" height="16" rx="2" fill="#AA2200"/>
  <rect x="530" y="660" width="16" height="16" rx="2" fill="#AA2200"/>
  <rect x="602" y="660" width="16" height="16" rx="2" fill="#AA2200"/>
  <rect x="638" y="660" width="16" height="16" rx="2" fill="#AA2200"/>
  <rect x="710" y="660" width="16" height="16" rx="2" fill="#AA2200"/>
  <rect x="782" y="660" width="16" height="16" rx="2" fill="#AA2200"/>
  <rect x="850" y="660" width="16" height="16" rx="2" fill="#AA2200"/>
  <rect x="510" y="680" width="16" height="16" rx="2" fill="#AA2200"/>
  <rect x="566" y="680" width="16" height="16" rx="2" fill="#AA2200"/>
  <rect x="656" y="680" width="16" height="16" rx="2" fill="#AA2200"/>
  <rect x="728" y="680" width="16" height="16" rx="2" fill="#AA2200"/>
  <rect x="800" y="680" width="16" height="16" rx="2" fill="#AA2200"/>
  <rect x="530" y="700" width="16" height="16" rx="2" fill="#AA2200"/>
  <rect x="602" y="700" width="16" height="16" rx="2" fill="#AA2200"/>
  <rect x="674" y="700" width="16" height="16" rx="2" fill="#AA2200"/>
  <rect x="746" y="700" width="16" height="16" rx="2" fill="#AA2200"/>
  <rect x="818" y="700" width="16" height="16" rx="2" fill="#AA2200"/>
  <rect x="510" y="720" width="16" height="16" rx="2" fill="#AA2200"/>
  <rect x="548" y="720" width="16" height="16" rx="2" fill="#AA2200"/>
  <rect x="638" y="720" width="16" height="16" rx="2" fill="#AA2200"/>
  <rect x="692" y="720" width="16" height="16" rx="2" fill="#AA2200"/>
  <rect x="764" y="720" width="16" height="16" rx="2" fill="#AA2200"/>
  <rect x="836" y="720" width="16" height="16" rx="2" fill="#AA2200"/>
  <rect x="530" y="740" width="16" height="16" rx="2" fill="#AA2200"/>
  <rect x="584" y="740" width="16" height="16" rx="2" fill="#AA2200"/>
  <rect x="656" y="740" width="16" height="16" rx="2" fill="#AA2200"/>
  <rect x="710" y="740" width="16" height="16" rx="2" fill="#AA2200"/>
  <rect x="800" y="740" width="16" height="16" rx="2" fill="#AA2200"/>
  <rect x="510" y="760" width="16" height="16" rx="2" fill="#AA2200"/>
  <rect x="566" y="760" width="16" height="16" rx="2" fill="#AA2200"/>
  <rect x="620" y="760" width="16" height="16" rx="2" fill="#AA2200"/>
  <rect x="692" y="760" width="16" height="16" rx="2" fill="#AA2200"/>
  <rect x="764" y="760" width="16" height="16" rx="2" fill="#AA2200"/>
  <rect x="836" y="760" width="16" height="16" rx="2" fill="#AA2200"/>
  <rect x="548" y="780" width="16" height="16" rx="2" fill="#AA2200"/>
  <rect x="602" y="780" width="16" height="16" rx="2" fill="#AA2200"/>
  <rect x="674" y="780" width="16" height="16" rx="2" fill="#AA2200"/>
  <rect x="728" y="780" width="16" height="16" rx="2" fill="#AA2200"/>
  <rect x="782" y="780" width="16" height="16" rx="2" fill="#AA2200"/>
  <rect x="510" y="800" width="16" height="16" rx="2" fill="#AA2200"/>
  <rect x="566" y="800" width="16" height="16" rx="2" fill="#AA2200"/>
  <rect x="620" y="800" width="16" height="16" rx="2" fill="#AA2200"/>
  <rect x="710" y="800" width="16" height="16" rx="2" fill="#AA2200"/>
  <rect x="764" y="800" width="16" height="16" rx="2" fill="#AA2200"/>
  <rect x="836" y="800" width="16" height="16" rx="2" fill="#AA2200"/>
  <rect x="530" y="820" width="16" height="16" rx="2" fill="#AA2200"/>
  <rect x="584" y="820" width="16" height="16" rx="2" fill="#AA2200"/>
  <rect x="656" y="820" width="16" height="16" rx="2" fill="#AA2200"/>
  <rect x="728" y="820" width="16" height="16" rx="2" fill="#AA2200"/>
  <rect x="800" y="820" width="16" height="16" rx="2" fill="#AA2200"/>
  <rect x="510" y="840" width="16" height="16" rx="2" fill="#AA2200"/>
  <rect x="548" y="840" width="16" height="16" rx="2" fill="#AA2200"/>
  <rect x="638" y="840" width="16" height="16" rx="2" fill="#AA2200"/>
  <rect x="692" y="840" width="16" height="16" rx="2" fill="#AA2200"/>
  <rect x="746" y="840" width="16" height="16" rx="2" fill="#AA2200"/>
  <rect x="818" y="840" width="16" height="16" rx="2" fill="#AA2200"/>
  <rect x="858" y="840" width="16" height="16" rx="2" fill="#AA2200"/>
  <rect x="530" y="860" width="16" height="16" rx="2" fill="#AA2200"/>
  <rect x="602" y="860" width="16" height="16" rx="2" fill="#AA2200"/>
  <rect x="656" y="860" width="16" height="16" rx="2" fill="#AA2200"/>
  <rect x="728" y="860" width="16" height="16" rx="2" fill="#AA2200"/>
  <rect x="800" y="860" width="16" height="16" rx="2" fill="#AA2200"/>
  <rect x="548" y="880" width="16" height="16" rx="2" fill="#AA2200"/>
  <rect x="584" y="880" width="16" height="16" rx="2" fill="#AA2200"/>
  <rect x="674" y="880" width="16" height="16" rx="2" fill="#AA2200"/>
  <rect x="764" y="880" width="16" height="16" rx="2" fill="#AA2200"/>
  <rect x="836" y="880" width="16" height="16" rx="2" fill="#AA2200"/>
</svg>
