<svg xmlns="http://www.w3.org/2000/svg" viewBox="0 0 1024 1024">
  <!-- 레드블랙 — 레이어드 구성 / QR 코드 + 로고 삽입 모티프 (로고 기능 표현) -->
  <defs>
    <linearGradient id="bg9" x1="0" y1="0" x2="1" y2="1">
      <stop offset="0%" stop-color="#1A0000"/>
      <stop offset="100%" stop-color="#0D0000"/>
    </linearGradient>
    <linearGradient id="redGrad" x1="0" y1="0" x2="1" y2="1">
      <stop offset="0%" stop-color="#FF1744"/>
      <stop offset="100%" stop-color="#B71C1C"/>
    </linearGradient>
    <linearGradient id="qrBg9" x1="0" y1="0" x2="0" y2="1">
      <stop offset="0%" stop-color="#FFFFFF"/>
      <stop offset="100%" stop-color="#FFF0F0"/>
    </linearGradient>
    <radialGradient id="logoBg" cx="50%" cy="50%" r="50%">
      <stop offset="0%" stop-color="#FF1744"/>
      <stop offset="100%" stop-color="#C62828"/>
    </radialGradient>
  </defs>

  <!-- 배경 -->
  <rect width="1024" height="1024" rx="145" fill="url(#bg9)"/>
  <!-- 빨간 빛 번짐 -->
  <circle cx="512" cy="512" r="350" fill="#FF0000" opacity="0.04"/>
  <circle cx="850" cy="850" r="200" fill="#FF1744" opacity="0.05"/>

  <!-- QR 코드 패널 -->
  <rect x="152" y="152" width="720" height="720" rx="22" fill="url(#qrBg9)"/>
  <!-- 빨간 테두리 강조 -->
  <rect x="152" y="152" width="720" height="720" rx="22" fill="none" stroke="#FF1744" stroke-width="5" opacity="0.7"/>

  <!-- 좌상 코너 파인더 -->
  <rect x="182" y="182" width="178" height="178" rx="14" fill="url(#redGrad)"/>
  <rect x="200" y="200" width="142" height="142" rx="10" fill="url(#qrBg9)"/>
  <rect x="218" y="218" width="106" height="106" rx="7" fill="url(#redGrad)"/>

  <!-- 우상 코너 파인더 -->
  <rect x="664" y="182" width="178" height="178" rx="14" fill="url(#redGrad)"/>
  <rect x="682" y="200" width="142" height="142" rx="10" fill="url(#qrBg9)"/>
  <rect x="700" y="218" width="106" height="106" rx="7" fill="url(#redGrad)"/>

  <!-- 좌하 코너 파인더 -->
  <rect x="182" y="664" width="178" height="178" rx="14" fill="url(#redGrad)"/>
  <rect x="200" y="682" width="142" height="142" rx="10" fill="url(#qrBg9)"/>
  <rect x="218" y="700" width="106" height="106" rx="7" fill="url(#redGrad)"/>

  <!-- 타이밍 패턴 -->
  <rect x="384" y="218" width="24" height="24" rx="4" fill="#9A0000"/>
  <rect x="412" y="218" width="24" height="24" rx="4" fill="#9A0000"/>
  <rect x="440" y="218" width="24" height="24" rx="4" fill="#9A0000"/>
  <rect x="468" y="218" width="24" height="24" rx="4" fill="#9A0000"/>
  <rect x="496" y="218" width="24" height="24" rx="4" fill="#9A0000"/>
  <rect x="524" y="218" width="24" height="24" rx="4" fill="#9A0000"/>
  <rect x="552" y="218" width="24" height="24" rx="4" fill="#9A0000"/>
  <rect x="580" y="218" width="24" height="24" rx="4" fill="#9A0000"/>
  <rect x="608" y="218" width="24" height="24" rx="4" fill="#9A0000"/>
  <rect x="636" y="218" width="24" height="24" rx="4" fill="#9A0000"/>

  <rect x="218" y="384" width="24" height="24" rx="4" fill="#9A0000"/>
  <rect x="218" y="412" width="24" height="24" rx="4" fill="#9A0000"/>
  <rect x="218" y="440" width="24" height="24" rx="4" fill="#9A0000"/>
  <rect x="218" y="468" width="24" height="24" rx="4" fill="#9A0000"/>
  <rect x="218" y="496" width="24" height="24" rx="4" fill="#9A0000"/>
  <rect x="218" y="524" width="24" height="24" rx="4" fill="#9A0000"/>
  <rect x="218" y="552" width="24" height="24" rx="4" fill="#9A0000"/>
  <rect x="218" y="580" width="24" height="24" rx="4" fill="#9A0000"/>
  <rect x="218" y="608" width="24" height="24" rx="4" fill="#9A0000"/>
  <rect x="218" y="636" width="24" height="24" rx="4" fill="#9A0000"/>

  <!-- 데이터 모듈 (좌측·상단 영역) -->
  <rect x="384" y="384" width="18" height="18" rx="3" fill="#8B0000"/>
  <rect x="406" y="384" width="18" height="18" rx="3" fill="#8B0000"/>
  <rect x="452" y="384" width="18" height="18" rx="3" fill="#8B0000"/>
  <rect x="476" y="384" width="18" height="18" rx="3" fill="#8B0000"/>
  <rect x="540" y="384" width="18" height="18" rx="3" fill="#8B0000"/>
  <rect x="384" y="406" width="18" height="18" rx="3" fill="#8B0000"/>
  <rect x="430" y="406" width="18" height="18" rx="3" fill="#8B0000"/>
  <rect x="498" y="406" width="18" height="18" rx="3" fill="#8B0000"/>
  <rect x="406" y="428" width="18" height="18" rx="3" fill="#8B0000"/>
  <rect x="452" y="428" width="18" height="18" rx="3" fill="#8B0000"/>
  <rect x="476" y="428" width="18" height="18" rx="3" fill="#8B0000"/>
  <rect x="520" y="428" width="18" height="18" rx="3" fill="#8B0000"/>
  <rect x="384" y="450" width="18" height="18" rx="3" fill="#8B0000"/>
  <rect x="430" y="450" width="18" height="18" rx="3" fill="#8B0000"/>
  <rect x="498" y="450" width="18" height="18" rx="3" fill="#8B0000"/>
  <rect x="542" y="450" width="18" height="18" rx="3" fill="#8B0000"/>
  <rect x="406" y="472" width="18" height="18" rx="3" fill="#8B0000"/>
  <rect x="450" y="472" width="18" height="18" rx="3" fill="#8B0000"/>
  <rect x="384" y="494" width="18" height="18" rx="3" fill="#8B0000"/>
  <rect x="428" y="494" width="18" height="18" rx="3" fill="#8B0000"/>
  <rect x="476" y="494" width="18" height="18" rx="3" fill="#8B0000"/>
  <rect x="520" y="494" width="18" height="18" rx="3" fill="#8B0000"/>
  <rect x="406" y="516" width="18" height="18" rx="3" fill="#8B0000"/>
  <rect x="452" y="516" width="18" height="18" rx="3" fill="#8B0000"/>
  <rect x="498" y="516" width="18" height="18" rx="3" fill="#8B0000"/>
  <rect x="542" y="516" width="18" height="18" rx="3" fill="#8B0000"/>
  <rect x="384" y="538" width="18" height="18" rx="3" fill="#8B0000"/>
  <rect x="428" y="538" width="18" height="18" rx="3" fill="#8B0000"/>
  <rect x="476" y="538" width="18" height="18" rx="3" fill="#8B0000"/>
  <rect x="406" y="560" width="18" height="18" rx="3" fill="#8B0000"/>
  <rect x="450" y="560" width="18" height="18" rx="3" fill="#8B0000"/>
  <rect x="496" y="560" width="18" height="18" rx="3" fill="#8B0000"/>
  <rect x="540" y="560" width="18" height="18" rx="3" fill="#8B0000"/>
  <rect x="384" y="582" width="18" height="18" rx="3" fill="#8B0000"/>
  <rect x="428" y="582" width="18" height="18" rx="3" fill="#8B0000"/>
  <rect x="474" y="582" width="18" height="18" rx="3" fill="#8B0000"/>
  <rect x="518" y="582" width="18" height="18" rx="3" fill="#8B0000"/>
  <rect x="406" y="604" width="18" height="18" rx="3" fill="#8B0000"/>
  <rect x="452" y="604" width="18" height="18" rx="3" fill="#8B0000"/>
  <rect x="498" y="604" width="18" height="18" rx="3" fill="#8B0000"/>
  <rect x="542" y="604" width="18" height="18" rx="3" fill="#8B0000"/>
  <rect x="384" y="626" width="18" height="18" rx="3" fill="#8B0000"/>
  <rect x="428" y="626" width="18" height="18" rx="3" fill="#8B0000"/>
  <rect x="476" y="626" width="18" height="18" rx="3" fill="#8B0000"/>

  <!-- 중앙 로고 (흰 원 + 빨간 "F" = Forge) — 레이어드 핵심 -->
  <circle cx="512" cy="512" r="78" fill="#FFFFFF"/>
  <circle cx="512" cy="512" r="68" fill="url(#logoBg)"/>
  <!-- "F" 글자 -->
  <text x="512" y="540" font-family="Arial Black, sans-serif" font-size="72" font-weight="900"
        fill="#FFFFFF" text-anchor="middle" dominant-baseline="middle">F</text>
  <!-- 로고 테두리 -->
  <circle cx="512" cy="512" r="78" fill="none" stroke="#FF1744" stroke-width="4" opacity="0.8"/>
</svg>
