<svg xmlns="http://www.w3.org/2000/svg" viewBox="0 0 1024 1024">
  <!-- 민트 — 공간·장면 구성 / 스마트폰 화면에 QR 코드가 표시되는 장면 -->
  <defs>
    <linearGradient id="bg10" x1="0" y1="0" x2="1" y2="1">
      <stop offset="0%" stop-color="#E0FFF8"/>
      <stop offset="100%" stop-color="#B2DFDB"/>
    </linearGradient>
    <linearGradient id="phoneBg" x1="0" y1="0" x2="1" y2="1">
      <stop offset="0%" stop-color="#00695C"/>
      <stop offset="100%" stop-color="#004D40"/>
    </linearGradient>
    <linearGradient id="screenBg" x1="0" y1="0" x2="0" y2="1">
      <stop offset="0%" stop-color="#F5FFFC"/>
      <stop offset="100%" stop-color="#E8FFF8"/>
    </linearGradient>
    <linearGradient id="mintGrad" x1="0" y1="0" x2="1" y2="1">
      <stop offset="0%" stop-color="#26A69A"/>
      <stop offset="100%" stop-color="#00796B"/>
    </linearGradient>
  </defs>

  <!-- 배경 -->
  <rect width="1024" height="1024" rx="155" fill="url(#bg10)"/>

  <!-- 장식: 물결 원 -->
  <circle cx="512" cy="512" r="430" fill="none" stroke="#26A69A" stroke-width="2" opacity="0.2"/>
  <circle cx="512" cy="512" r="360" fill="none" stroke="#00897B" stroke-width="2" opacity="0.15"/>

  <!-- 스마트폰 외곽 -->
  <rect x="300" y="60" width="424" height="760" rx="50" fill="url(#phoneBg)"/>
  <!-- 폰 하이라이트 -->
  <rect x="304" y="64" width="416" height="752" rx="48" fill="none" stroke="#4DB6AC" stroke-width="3" opacity="0.6"/>
  <!-- 폰 그림자 -->
  <rect x="312" y="820" width="400" height="8" rx="4" fill="#00695C" opacity="0.4"/>

  <!-- 폰 스크린 -->
  <rect x="320" y="110" width="384" height="660" rx="20" fill="url(#screenBg)"/>

  <!-- 카메라/노치 -->
  <rect x="460" y="80" width="104" height="18" rx="9" fill="#00332E"/>
  <circle cx="540" cy="89" r="6" fill="#004D45"/>

  <!-- 홈버튼 라인 -->
  <rect x="430" y="826" width="164" height="6" rx="3" fill="#00897B" opacity="0.5"/>

  <!-- 폰 스크린 안에 QR 코드 -->
  <!-- QR 코드 패널 -->
  <rect x="340" y="180" width="344" height="344" rx="14" fill="#FFFFFF"/>
  <rect x="340" y="180" width="344" height="344" rx="14" fill="none" stroke="#26A69A" stroke-width="2" opacity="0.5"/>

  <!-- 좌상 코너 파인더 -->
  <rect x="358" y="198" width="90" height="90" rx="8" fill="url(#mintGrad)"/>
  <rect x="368" y="208" width="70" height="70" rx="5" fill="#FFFFFF"/>
  <rect x="378" y="218" width="50" height="50" rx="4" fill="url(#mintGrad)"/>

  <!-- 우상 코너 파인더 -->
  <rect x="576" y="198" width="90" height="90" rx="8" fill="url(#mintGrad)"/>
  <rect x="586" y="208" width="70" height="70" rx="5" fill="#FFFFFF"/>
  <rect x="596" y="218" width="50" height="50" rx="4" fill="url(#mintGrad)"/>

  <!-- 좌하 코너 파인더 -->
  <rect x="358" y="416" width="90" height="90" rx="8" fill="url(#mintGrad)"/>
  <rect x="368" y="426" width="70" height="70" rx="5" fill="#FFFFFF"/>
  <rect x="378" y="436" width="50" height="50" rx="4" fill="url(#mintGrad)"/>

  <!-- 타이밍 패턴 수평 -->
  <rect x="464" y="210" width="14" height="14" rx="2" fill="#00695C"/>
  <rect x="482" y="210" width="14" height="14" rx="2" fill="#00695C"/>
  <rect x="500" y="210" width="14" height="14" rx="2" fill="#00695C"/>
  <rect x="518" y="210" width="14" height="14" rx="2" fill="#00695C"/>
  <rect x="536" y="210" width="14" height="14" rx="2" fill="#00695C"/>
  <rect x="554" y="210" width="14" height="14" rx="2" fill="#00695C"/>

  <!-- 타이밍 패턴 수직 -->
  <rect x="210" y="308" width="14" height="14" rx="2" fill="#00695C"/>

  <!-- 데이터 모듈 (우하 사분면 + 중앙) -->
  <rect x="464" y="308" width="12" height="12" rx="2" fill="#00897B"/>
  <rect x="480" y="308" width="12" height="12" rx="2" fill="#00897B"/>
  <rect x="512" y="308" width="12" height="12" rx="2" fill="#00897B"/>
  <rect x="544" y="308" width="12" height="12" rx="2" fill="#00897B"/>
  <rect x="576" y="308" width="12" height="12" rx="2" fill="#00897B"/>
  <rect x="608" y="308" width="12" height="12" rx="2" fill="#00897B"/>
  <rect x="480" y="324" width="12" height="12" rx="2" fill="#00897B"/>
  <rect x="528" y="324" width="12" height="12" rx="2" fill="#00897B"/>
  <rect x="576" y="324" width="12" height="12" rx="2" fill="#00897B"/>
  <rect x="624" y="324" width="12" height="12" rx="2" fill="#00897B"/>
  <rect x="464" y="340" width="12" height="12" rx="2" fill="#00897B"/>
  <rect x="496" y="340" width="12" height="12" rx="2" fill="#00897B"/>
  <rect x="528" y="340" width="12" height="12" rx="2" fill="#00897B"/>
  <rect x="560" y="340" width="12" height="12" rx="2" fill="#00897B"/>
  <rect x="608" y="340" width="12" height="12" rx="2" fill="#00897B"/>
  <rect x="480" y="356" width="12" height="12" rx="2" fill="#00897B"/>
  <rect x="512" y="356" width="12" height="12" rx="2" fill="#00897B"/>
  <rect x="576" y="356" width="12" height="12" rx="2" fill="#00897B"/>
  <rect x="624" y="356" width="12" height="12" rx="2" fill="#00897B"/>
  <rect x="464" y="372" width="12" height="12" rx="2" fill="#00897B"/>
  <rect x="528" y="372" width="12" height="12" rx="2" fill="#00897B"/>
  <rect x="560" y="372" width="12" height="12" rx="2" fill="#00897B"/>
  <rect x="592" y="372" width="12" height="12" rx="2" fill="#00897B"/>
  <rect x="496" y="388" width="12" height="12" rx="2" fill="#00897B"/>
  <rect x="544" y="388" width="12" height="12" rx="2" fill="#00897B"/>
  <rect x="576" y="388" width="12" height="12" rx="2" fill="#00897B"/>
  <rect x="608" y="388" width="12" height="12" rx="2" fill="#00897B"/>
  <rect x="464" y="404" width="12" height="12" rx="2" fill="#00897B"/>
  <rect x="512" y="404" width="12" height="12" rx="2" fill="#00897B"/>
  <rect x="528" y="404" width="12" height="12" rx="2" fill="#00897B"/>
  <rect x="624" y="404" width="12" height="12" rx="2" fill="#00897B"/>
  <rect x="480" y="420" width="12" height="12" rx="2" fill="#00897B"/>
  <rect x="544" y="420" width="12" height="12" rx="2" fill="#00897B"/>
  <rect x="592" y="420" width="12" height="12" rx="2" fill="#00897B"/>
  <rect x="624" y="420" width="12" height="12" rx="2" fill="#00897B"/>
  <rect x="464" y="436" width="12" height="12" rx="2" fill="#00897B"/>
  <rect x="496" y="436" width="12" height="12" rx="2" fill="#00897B"/>
  <rect x="576" y="436" width="12" height="12" rx="2" fill="#00897B"/>
  <rect x="608" y="436" width="12" height="12" rx="2" fill="#00897B"/>
  <rect x="480" y="452" width="12" height="12" rx="2" fill="#00897B"/>
  <rect x="528" y="452" width="12" height="12" rx="2" fill="#00897B"/>
  <rect x="560" y="452" width="12" height="12" rx="2" fill="#00897B"/>
  <rect x="624" y="452" width="12" height="12" rx="2" fill="#00897B"/>
  <rect x="464" y="468" width="12" height="12" rx="2" fill="#00897B"/>
  <rect x="512" y="468" width="12" height="12" rx="2" fill="#00897B"/>
  <rect x="592" y="468" width="12" height="12" rx="2" fill="#00897B"/>
  <rect x="608" y="468" width="12" height="12" rx="2" fill="#00897B"/>
  <rect x="480" y="484" width="12" height="12" rx="2" fill="#00897B"/>
  <rect x="544" y="484" width="12" height="12" rx="2" fill="#00897B"/>
  <rect x="576" y="484" width="12" height="12" rx="2" fill="#00897B"/>
  <rect x="624" y="484" width="12" height="12" rx="2" fill="#00897B"/>
  <rect x="464" y="500" width="12" height="12" rx="2" fill="#00897B"/>
  <rect x="528" y="500" width="12" height="12" rx="2" fill="#00897B"/>
  <rect x="560" y="500" width="12" height="12" rx="2" fill="#00897B"/>
  <rect x="608" y="500" width="12" height="12" rx="2" fill="#00897B"/>

  <!-- 하단 앱 이름 및 태그라인 (폰 화면 아래) -->
  <rect x="340" y="545" width="344" height="60" rx="10" fill="#E0F5F0"/>
  <text x="512" y="582" font-family="Arial, sans-serif" font-size="30" font-weight="bold"
        fill="#00695C" text-anchor="middle">QR 코드 생성기</text>

  <!-- 폰 하단 버튼 힌트 -->
  <rect x="360" y="630" width="304" height="52" rx="26" fill="url(#mintGrad)"/>
  <text x="512" y="664" font-family="Arial, sans-serif" font-size="26" font-weight="bold"
        fill="#FFFFFF" text-anchor="middle">Generate QR</text>

  <!-- 하단 앱 이름 -->
  <text x="512" y="960" font-family="Arial Black, sans-serif" font-size="52" font-weight="900"
        fill="#00695C" text-anchor="middle" opacity="0.8">QR.Forge</text>
</svg>
