<svg xmlns="http://www.w3.org/2000/svg" viewBox="0 0 1024 1024">
  <!-- 배경 -->
  <rect width="1024" height="1024" rx="128" fill="#FFFFFF"/>
  <!-- 배경 그라데이션 -->
  <defs>
    <linearGradient id="bg1" x1="0" y1="0" x2="1" y2="1">
      <stop offset="0%" stop-color="#F8F8F8"/>
      <stop offset="100%" stop-color="#E8E8E8"/>
    </linearGradient>
  </defs>
  <rect width="1024" height="1024" rx="128" fill="url(#bg1)"/>

  <!-- QR 코드 본체 (중앙) -->
  <!-- QR 외곽 테두리 -->
  <rect x="170" y="170" width="684" height="684" rx="24" fill="#1A1A1A"/>
  <rect x="190" y="190" width="644" height="644" rx="16" fill="#FFFFFF"/>

  <!-- 좌상 코너 파인더 패턴 -->
  <rect x="220" y="220" width="168" height="168" rx="12" fill="#1A1A1A"/>
  <rect x="238" y="238" width="132" height="132" rx="8" fill="#FFFFFF"/>
  <rect x="256" y="256" width="96" height="96" rx="6" fill="#1A1A1A"/>

  <!-- 우상 코너 파인더 패턴 -->
  <rect x="636" y="220" width="168" height="168" rx="12" fill="#1A1A1A"/>
  <rect x="654" y="238" width="132" height="132" rx="8" fill="#FFFFFF"/>
  <rect x="672" y="256" width="96" height="96" rx="6" fill="#1A1A1A"/>

  <!-- 좌하 코너 파인더 패턴 -->
  <rect x="220" y="636" width="168" height="168" rx="12" fill="#1A1A1A"/>
  <rect x="238" y="654" width="132" height="132" rx="8" fill="#FFFFFF"/>
  <rect x="256" y="672" width="96" height="96" rx="6" fill="#1A1A1A"/>

  <!-- 타이밍 패턴 (수평) -->
  <rect x="412" y="252" width="24" height="24" fill="#1A1A1A"/>
  <rect x="460" y="252" width="24" height="24" fill="#1A1A1A"/>
  <rect x="508" y="252" width="24" height="24" fill="#1A1A1A"/>
  <rect x="556" y="252" width="24" height="24" fill="#1A1A1A"/>
  <rect x="604" y="252" width="24" height="24" fill="#1A1A1A"/>

  <!-- 타이밍 패턴 (수직) -->
  <rect x="252" y="412" width="24" height="24" fill="#1A1A1A"/>
  <rect x="252" y="460" width="24" height="24" fill="#1A1A1A"/>
  <rect x="252" y="508" width="24" height="24" fill="#1A1A1A"/>
  <rect x="252" y="556" width="24" height="24" fill="#1A1A1A"/>
  <rect x="252" y="604" width="24" height="24" fill="#1A1A1A"/>

  <!-- 데이터 모듈들 -->
  <rect x="412" y="412" width="20" height="20" fill="#1A1A1A"/>
  <rect x="436" y="412" width="20" height="20" fill="#1A1A1A"/>
  <rect x="484" y="412" width="20" height="20" fill="#1A1A1A"/>
  <rect x="532" y="412" width="20" height="20" fill="#1A1A1A"/>
  <rect x="580" y="412" width="20" height="20" fill="#1A1A1A"/>
  <rect x="628" y="412" width="20" height="20" fill="#1A1A1A"/>
  <rect x="676" y="412" width="20" height="20" fill="#1A1A1A"/>
  <rect x="700" y="412" width="20" height="20" fill="#1A1A1A"/>
  <rect x="724" y="412" width="20" height="20" fill="#1A1A1A"/>
  <rect x="748" y="412" width="20" height="20" fill="#1A1A1A"/>

  <rect x="412" y="436" width="20" height="20" fill="#1A1A1A"/>
  <rect x="460" y="436" width="20" height="20" fill="#1A1A1A"/>
  <rect x="508" y="436" width="20" height="20" fill="#1A1A1A"/>
  <rect x="580" y="436" width="20" height="20" fill="#1A1A1A"/>
  <rect x="652" y="436" width="20" height="20" fill="#1A1A1A"/>
  <rect x="700" y="436" width="20" height="20" fill="#1A1A1A"/>
  <rect x="748" y="436" width="20" height="20" fill="#1A1A1A"/>

  <rect x="436" y="460" width="20" height="20" fill="#1A1A1A"/>
  <rect x="484" y="460" width="20" height="20" fill="#1A1A1A"/>
  <rect x="532" y="460" width="20" height="20" fill="#1A1A1A"/>
  <rect x="604" y="460" width="20" height="20" fill="#1A1A1A"/>
  <rect x="628" y="460" width="20" height="20" fill="#1A1A1A"/>
  <rect x="676" y="460" width="20" height="20" fill="#1A1A1A"/>
  <rect x="724" y="460" width="20" height="20" fill="#1A1A1A"/>

  <rect x="412" y="484" width="20" height="20" fill="#1A1A1A"/>
  <rect x="460" y="484" width="20" height="20" fill="#1A1A1A"/>
  <rect x="508" y="484" width="20" height="20" fill="#1A1A1A"/>
  <rect x="556" y="484" width="20" height="20" fill="#1A1A1A"/>
  <rect x="580" y="484" width="20" height="20" fill="#1A1A1A"/>
  <rect x="652" y="484" width="20" height="20" fill="#1A1A1A"/>
  <rect x="700" y="484" width="20" height="20" fill="#1A1A1A"/>
  <rect x="748" y="484" width="20" height="20" fill="#1A1A1A"/>

  <rect x="436" y="508" width="20" height="20" fill="#1A1A1A"/>
  <rect x="508" y="508" width="20" height="20" fill="#1A1A1A"/>
  <rect x="556" y="508" width="20" height="20" fill="#1A1A1A"/>
  <rect x="604" y="508" width="20" height="20" fill="#1A1A1A"/>
  <rect x="628" y="508" width="20" height="20" fill="#1A1A1A"/>
  <rect x="700" y="508" width="20" height="20" fill="#1A1A1A"/>
  <rect x="724" y="508" width="20" height="20" fill="#1A1A1A"/>

  <rect x="412" y="532" width="20" height="20" fill="#1A1A1A"/>
  <rect x="460" y="532" width="20" height="20" fill="#1A1A1A"/>
  <rect x="484" y="532" width="20" height="20" fill="#1A1A1A"/>
  <rect x="532" y="532" width="20" height="20" fill="#1A1A1A"/>
  <rect x="580" y="532" width="20" height="20" fill="#1A1A1A"/>
  <rect x="652" y="532" width="20" height="20" fill="#1A1A1A"/>
  <rect x="676" y="532" width="20" height="20" fill="#1A1A1A"/>
  <rect x="748" y="532" width="20" height="20" fill="#1A1A1A"/>

  <rect x="436" y="556" width="20" height="20" fill="#1A1A1A"/>
  <rect x="484" y="556" width="20" height="20" fill="#1A1A1A"/>
  <rect x="556" y="556" width="20" height="20" fill="#1A1A1A"/>
  <rect x="604" y="556" width="20" height="20" fill="#1A1A1A"/>
  <rect x="628" y="556" width="20" height="20" fill="#1A1A1A"/>
  <rect x="700" y="556" width="20" height="20" fill="#1A1A1A"/>
  <rect x="724" y="556" width="20" height="20" fill="#1A1A1A"/>

  <rect x="412" y="580" width="20" height="20" fill="#1A1A1A"/>
  <rect x="436" y="580" width="20" height="20" fill="#1A1A1A"/>
  <rect x="508" y="580" width="20" height="20" fill="#1A1A1A"/>
  <rect x="532" y="580" width="20" height="20" fill="#1A1A1A"/>
  <rect x="580" y="580" width="20" height="20" fill="#1A1A1A"/>
  <rect x="652" y="580" width="20" height="20" fill="#1A1A1A"/>
  <rect x="676" y="580" width="20" height="20" fill="#1A1A1A"/>
  <rect x="748" y="580" width="20" height="20" fill="#1A1A1A"/>

  <rect x="460" y="604" width="20" height="20" fill="#1A1A1A"/>
  <rect x="484" y="604" width="20" height="20" fill="#1A1A1A"/>
  <rect x="556" y="604" width="20" height="20" fill="#1A1A1A"/>
  <rect x="604" y="604" width="20" height="20" fill="#1A1A1A"/>
  <rect x="628" y="604" width="20" height="20" fill="#1A1A1A"/>
  <rect x="700" y="604" width="20" height="20" fill="#1A1A1A"/>

  <rect x="412" y="628" width="20" height="20" fill="#1A1A1A"/>
  <rect x="460" y="628" width="20" height="20" fill="#1A1A1A"/>
  <rect x="508" y="628" width="20" height="20" fill="#1A1A1A"/>
  <rect x="580" y="628" width="20" height="20" fill="#1A1A1A"/>
  <rect x="652" y="628" width="20" height="20" fill="#1A1A1A"/>
  <rect x="724" y="628" width="20" height="20" fill="#1A1A1A"/>
  <rect x="748" y="628" width="20" height="20" fill="#1A1A1A"/>

  <rect x="436" y="652" width="20" height="20" fill="#1A1A1A"/>
  <rect x="484" y="652" width="20" height="20" fill="#1A1A1A"/>
  <rect x="532" y="652" width="20" height="20" fill="#1A1A1A"/>
  <rect x="556" y="652" width="20" height="20" fill="#1A1A1A"/>
  <rect x="604" y="652" width="20" height="20" fill="#1A1A1A"/>
  <rect x="676" y="652" width="20" height="20" fill="#1A1A1A"/>
  <rect x="700" y="652" width="20" height="20" fill="#1A1A1A"/>
  <rect x="748" y="652" width="20" height="20" fill="#1A1A1A"/>

  <rect x="412" y="676" width="20" height="20" fill="#1A1A1A"/>
  <rect x="460" y="676" width="20" height="20" fill="#1A1A1A"/>
  <rect x="508" y="676" width="20" height="20" fill="#1A1A1A"/>
  <rect x="556" y="676" width="20" height="20" fill="#1A1A1A"/>
  <rect x="628" y="676" width="20" height="20" fill="#1A1A1A"/>
  <rect x="652" y="676" width="20" height="20" fill="#1A1A1A"/>
  <rect x="724" y="676" width="20" height="20" fill="#1A1A1A"/>

  <rect x="436" y="700" width="20" height="20" fill="#1A1A1A"/>
  <rect x="484" y="700" width="20" height="20" fill="#1A1A1A"/>
  <rect x="532" y="700" width="20" height="20" fill="#1A1A1A"/>
  <rect x="604" y="700" width="20" height="20" fill="#1A1A1A"/>
  <rect x="676" y="700" width="20" height="20" fill="#1A1A1A"/>
  <rect x="748" y="700" width="20" height="20" fill="#1A1A1A"/>
</svg>
