<svg xmlns="http://www.w3.org/2000/svg" viewBox="0 0 1024 1024">
  <rect x="80" y="80" width="864" height="864" rx="180" fill="#050A05"/>
  <!-- Shield -->
  <path d="M512 170 L760 270 L760 520 Q760 700 512 840 Q264 700 264 520 L264 270 Z" fill="#2E7D32" opacity="0.85"/>
  <path d="M512 220 L720 304 L720 520 Q720 670 512 790 Q304 670 304 520 L304 304 Z" fill="#050A05"/>
  <!-- Variable symbol $ -->
  <path d="M512 330 L512 710" stroke="#81C784" stroke-width="18" stroke-linecap="round"/>
  <path d="M420 390 Q380 390 380 440 Q380 490 512 490 Q644 490 644 545 Q644 600 560 600 L420 600" fill="none" stroke="#81C784" stroke-width="24" stroke-linecap="round"/>
  <!-- Check on shield top -->
  <circle cx="512" cy="230" r="40" fill="#2E7D32"/>
  <path d="M494 230 L506 242 L534 214" fill="none" stroke="#81C784" stroke-width="12" stroke-linecap="round" stroke-linejoin="round"/>
</svg>
