<svg xmlns="http://www.w3.org/2000/svg" viewBox="0 0 512 512">
  <defs>
    <linearGradient id="bg" x1="0%" y1="0%" x2="100%" y2="100%">
      <stop offset="0%" stop-color="#1a237e"/>
      <stop offset="100%" stop-color="#283593"/>
    </linearGradient>
    <linearGradient id="fg" x1="0%" y1="0%" x2="100%" y2="100%">
      <stop offset="0%" stop-color="#82b1ff"/>
      <stop offset="100%" stop-color="#e8eaf6"/>
    </linearGradient>
    <linearGradient id="stream1" x1="0%" y1="0%" x2="0%" y2="100%">
      <stop offset="0%" stop-color="#ff80ab"/>
      <stop offset="100%" stop-color="#ff4081"/>
    </linearGradient>
    <linearGradient id="stream2" x1="0%" y1="0%" x2="0%" y2="100%">
      <stop offset="0%" stop-color="#69f0ae"/>
      <stop offset="100%" stop-color="#00e676"/>
    </linearGradient>
    <linearGradient id="stream3" x1="0%" y1="0%" x2="0%" y2="100%">
      <stop offset="0%" stop-color="#80d8ff"/>
      <stop offset="100%" stop-color="#40c4ff"/>
    </linearGradient>
  </defs>
  <rect width="512" height="512" rx="80" fill="url(#bg)"/>
  <!-- 세 개의 입력 스트림 -->
  <rect x="70" y="80" width="80" height="180" rx="8" fill="url(#stream1)" opacity="0.85"/>
  <rect x="216" y="80" width="80" height="180" rx="8" fill="url(#stream2)" opacity="0.85"/>
  <rect x="362" y="80" width="80" height="180" rx="8" fill="url(#stream3)" opacity="0.85"/>
  <!-- 로그 라인 표현 -->
  <line x1="80" y1="110" x2="140" y2="110" stroke="white" stroke-width="4" opacity="0.6"/>
  <line x1="80" y1="130" x2="140" y2="130" stroke="white" stroke-width="4" opacity="0.6"/>
  <line x1="80" y1="150" x2="120" y2="150" stroke="white" stroke-width="4" opacity="0.6"/>
  <line x1="80" y1="170" x2="140" y2="170" stroke="white" stroke-width="4" opacity="0.6"/>
  <line x1="226" y1="110" x2="286" y2="110" stroke="white" stroke-width="4" opacity="0.6"/>
  <line x1="226" y1="130" x2="270" y2="130" stroke="white" stroke-width="4" opacity="0.6"/>
  <line x1="226" y1="150" x2="286" y2="150" stroke="white" stroke-width="4" opacity="0.6"/>
  <line x1="226" y1="170" x2="265" y2="170" stroke="white" stroke-width="4" opacity="0.6"/>
  <line x1="372" y1="110" x2="432" y2="110" stroke="white" stroke-width="4" opacity="0.6"/>
  <line x1="372" y1="130" x2="425" y2="130" stroke="white" stroke-width="4" opacity="0.6"/>
  <line x1="372" y1="150" x2="432" y2="150" stroke="white" stroke-width="4" opacity="0.6"/>
  <line x1="372" y1="170" x2="410" y2="170" stroke="white" stroke-width="4" opacity="0.6"/>
  <!-- 수렴 화살표 -->
  <path d="M110 260 L110 310 L246 350" fill="none" stroke="url(#stream1)" stroke-width="8" stroke-linecap="round" stroke-linejoin="round"/>
  <path d="M256 260 L256 350" fill="none" stroke="url(#stream2)" stroke-width="8" stroke-linecap="round"/>
  <path d="M402 260 L402 310 L266 350" fill="none" stroke="url(#stream3)" stroke-width="8" stroke-linecap="round" stroke-linejoin="round"/>
  <!-- 병합된 출력 -->
  <rect x="136" y="350" width="240" height="110" rx="12" fill="url(#fg)" opacity="0.9"/>
  <line x1="155" y1="375" x2="360" y2="375" stroke="#283593" stroke-width="5"/>
  <line x1="155" y1="395" x2="340" y2="395" stroke="#283593" stroke-width="5"/>
  <line x1="155" y1="415" x2="355" y2="415" stroke="#283593" stroke-width="5"/>
  <line x1="155" y1="435" x2="330" y2="435" stroke="#283593" stroke-width="5"/>
</svg>
