<svg xmlns="http://www.w3.org/2000/svg" viewBox="0 0 512 512">
  <defs>
    <linearGradient id="bg" x1="0%" y1="0%" x2="100%" y2="100%">
      <stop offset="0%" stop-color="#37474f"/>
      <stop offset="100%" stop-color="#263238"/>
    </linearGradient>
  </defs>
  <rect width="512" height="512" rx="80" fill="url(#bg)"/>
  <!-- Stacked log files (perspective) -->
  <!-- File 3 (back) -->
  <path d="M130 130 L370 130 L390 300 L110 300 Z" fill="#1565c0" stroke="#42a5f5" stroke-width="2" opacity="0.6"/>
  <!-- File 2 (middle) -->
  <path d="M110 160 L350 160 L370 330 L90 330 Z" fill="#6a1b9a" stroke="#ab47bc" stroke-width="2" opacity="0.7"/>
  <!-- File 1 (front) -->
  <path d="M90 190 L330 190 L350 360 L70 360 Z" fill="#1b5e20" stroke="#66bb6a" stroke-width="2" opacity="0.9"/>
  <!-- Lines on front file -->
  <rect x="90" y="210" width="220" height="8" rx="4" fill="#a5d6a7" opacity="0.8"/>
  <rect x="90" y="230" width="200" height="8" rx="4" fill="#ef5350" opacity="0.8"/>
  <rect x="90" y="250" width="210" height="8" rx="4" fill="#a5d6a7" opacity="0.8"/>
  <rect x="90" y="270" width="190" height="8" rx="4" fill="#ffd740" opacity="0.8"/>
  <rect x="90" y="290" width="215" height="8" rx="4" fill="#a5d6a7" opacity="0.8"/>
  <rect x="90" y="310" width="185" height="8" rx="4" fill="#a5d6a7" opacity="0.8"/>
  <!-- Merge arrow -->
  <path d="M380 280 Q430 280 430 370 L430 380" fill="none" stroke="#ffd740" stroke-width="5" stroke-linecap="round"/>
  <polygon points="422,380 430,400 438,380" fill="#ffd740"/>
  <!-- Output single merged file -->
  <rect x="370" y="400" width="110" height="80" rx="10" fill="#ff4081" stroke="#ff80ab" stroke-width="3"/>
  <rect x="382" y="414" width="86" height="7" rx="3" fill="#fce4ec"/>
  <rect x="382" y="428" width="86" height="7" rx="3" fill="#fce4ec"/>
  <rect x="382" y="442" width="86" height="7" rx="3" fill="#fce4ec"/>
  <rect x="382" y="456" width="86" height="7" rx="3" fill="#fce4ec"/>
</svg>
