<svg xmlns="http://www.w3.org/2000/svg" viewBox="0 0 1024 1024">
  <rect x="80" y="80" width="864" height="864" rx="180" fill="#000A05"/>
  <!-- Infinity loop shape -->
  <path d="M512 512 Q380 380 280 440 Q180 500 280 580 Q380 660 512 512 Q644 380 744 440 Q844 500 744 580 Q644 660 512 512" fill="none" stroke="#1B5E20" stroke-width="36"/>
  <!-- Code blocks on the loop path -->
  <rect x="200" y="492" width="80" height="28" rx="10" fill="#66BB6A"/>
  <rect x="744" y="492" width="80" height="28" rx="10" fill="#A5D6A7"/>
  <rect x="380" y="400" width="60" height="24" rx="8" fill="#66BB6A" fill-opacity="0.8"/>
  <rect x="580" y="400" width="60" height="24" rx="8" fill="#A5D6A7" fill-opacity="0.8"/>
  <rect x="380" y="600" width="60" height="24" rx="8" fill="#A5D6A7" fill-opacity="0.7"/>
  <rect x="580" y="600" width="60" height="24" rx="8" fill="#66BB6A" fill-opacity="0.7"/>
  <!-- Center dot -->
  <circle cx="512" cy="512" r="30" fill="#1B5E20"/>
  <!-- Direction arrows on loop -->
  <polygon points="512,395 490,430 534,430" fill="#66BB6A" fill-opacity="0.7"/>
  <polygon points="512,629 490,594 534,594" fill="#66BB6A" fill-opacity="0.7"/>
</svg>