<svg xmlns="http://www.w3.org/2000/svg" viewBox="0 0 1024 1024">
  <rect x="80" y="80" width="864" height="864" rx="180" fill="#000A05"/>
  <!-- Closed eyes (sleeping) -->
  <path d="M310 420 Q380 380 450 420" fill="none" stroke="#1B5E20" stroke-width="28" stroke-linecap="round"/>
  <path d="M574 420 Q644 380 714 420" fill="none" stroke="#1B5E20" stroke-width="28" stroke-linecap="round"/>
  <!-- Zzz -->
  <text x="720" y="320" font-family="Arial" font-size="80" font-weight="bold" fill="#A5D6A7" fill-opacity="0.8">z</text>
  <text x="750" y="250" font-family="Arial" font-size="60" font-weight="bold" fill="#66BB6A" fill-opacity="0.6">z</text>
  <text x="775" y="195" font-family="Arial" font-size="44" font-weight="bold" fill="#A5D6A7" fill-opacity="0.4">z</text>
  <!-- Code streaming down like rain -->
  <rect x="200" y="540" width="80" height="16" rx="6" fill="#1B5E20" fill-opacity="0.8"/>
  <rect x="200" y="580" width="60" height="16" rx="6" fill="#66BB6A" fill-opacity="0.7"/>
  <rect x="200" y="620" width="90" height="16" rx="6" fill="#1B5E20" fill-opacity="0.6"/>
  <rect x="200" y="660" width="50" height="16" rx="6" fill="#66BB6A" fill-opacity="0.5"/>
  <rect x="340" y="560" width="90" height="16" rx="6" fill="#66BB6A" fill-opacity="0.8"/>
  <rect x="340" y="600" width="60" height="16" rx="6" fill="#1B5E20" fill-opacity="0.7"/>
  <rect x="340" y="640" width="80" height="16" rx="6" fill="#66BB6A" fill-opacity="0.6"/>
  <rect x="500" y="540" width="70" height="16" rx="6" fill="#1B5E20" fill-opacity="0.8"/>
  <rect x="500" y="580" width="100" height="16" rx="6" fill="#A5D6A7" fill-opacity="0.7"/>
  <rect x="500" y="620" width="55" height="16" rx="6" fill="#1B5E20" fill-opacity="0.6"/>
  <rect x="660" y="560" width="85" height="16" rx="6" fill="#66BB6A" fill-opacity="0.7"/>
  <rect x="660" y="600" width="65" height="16" rx="6" fill="#1B5E20" fill-opacity="0.6"/>
  <!-- Production counter -->
  <rect x="350" y="760" width="324" height="60" rx="14" fill="#1B5E20" fill-opacity="0.5"/>
  <!-- Up arrow -->
  <polygon points="512,790 480,820 544,820" fill="#A5D6A7"/>
</svg>