<svg xmlns="http://www.w3.org/2000/svg" viewBox="0 0 1024 1024">
  <rect x="80" y="80" width="864" height="864" rx="180" fill="#000A05"/>
  <!-- 점 애니메이션: bouncing activity dots pattern -->
  <!-- Wave of dots suggesting animation/activity -->
  <!-- Row 1 (top) - calm -->
  <circle cx="240" cy="500" r="22" fill="#1B5E20"/>
  <circle cx="310" cy="500" r="22" fill="#1B5E20"/>
  <circle cx="380" cy="500" r="22" fill="#1B5E20"/>
  <circle cx="450" cy="500" r="22" fill="#1B5E20"/>
  <circle cx="520" cy="500" r="22" fill="#1B5E20"/>
  <circle cx="590" cy="500" r="22" fill="#1B5E20"/>
  <circle cx="660" cy="500" r="22" fill="#1B5E20"/>
  <circle cx="730" cy="500" r="22" fill="#1B5E20"/>
  <circle cx="784" cy="500" r="22" fill="#1B5E20"/>
  <!-- Row 2 (middle) - active wave -->
  <circle cx="240" cy="600" r="22" fill="#A5D6A7" opacity="0.4"/>
  <circle cx="310" cy="550" r="28" fill="#A5D6A7" opacity="0.6"/>
  <circle cx="380" cy="490" r="34" fill="#A5D6A7" opacity="0.8"/>
  <circle cx="450" cy="430" r="38" fill="#A5D6A7"/>
  <circle cx="520" cy="390" r="42" fill="#A5D6A7"/>
  <circle cx="590" cy="430" r="38" fill="#A5D6A7"/>
  <circle cx="660" cy="490" r="34" fill="#A5D6A7" opacity="0.8"/>
  <circle cx="730" cy="550" r="28" fill="#A5D6A7" opacity="0.6"/>
  <circle cx="784" cy="600" r="22" fill="#A5D6A7" opacity="0.4"/>
  <!-- Row 3 (bottom) - calm -->
  <circle cx="240" cy="700" r="14" fill="#1B5E20" opacity="0.6"/>
  <circle cx="310" cy="700" r="14" fill="#1B5E20" opacity="0.6"/>
  <circle cx="380" cy="700" r="14" fill="#1B5E20" opacity="0.6"/>
  <circle cx="450" cy="700" r="14" fill="#1B5E20" opacity="0.6"/>
  <circle cx="520" cy="700" r="14" fill="#1B5E20" opacity="0.6"/>
  <circle cx="590" cy="700" r="14" fill="#1B5E20" opacity="0.6"/>
  <circle cx="660" cy="700" r="14" fill="#1B5E20" opacity="0.6"/>
  <circle cx="730" cy="700" r="14" fill="#1B5E20" opacity="0.6"/>
  <circle cx="784" cy="700" r="14" fill="#1B5E20" opacity="0.6"/>
</svg>