<svg xmlns="http://www.w3.org/2000/svg" viewBox="0 0 1024 1024">
  <rect x="80" y="80" width="864" height="864" rx="180" fill="#000A05"/>
  <!-- 미니게이지: 3 mini circular gauges -->
  <!-- Gauge 1 (CPU) -->
  <circle cx="280" cy="420" r="150" fill="none" stroke="#1B5E20" stroke-width="28"/>
  <path d="M280 420 m-150 0 a150 150 0 0 1 130 -75" fill="none" stroke="#A5D6A7" stroke-width="28" stroke-linecap="round"/>
  <line x1="280" y1="420" x2="280" y2="288" stroke="#A5D6A7" stroke-width="10" stroke-linecap="round"/>
  <circle cx="280" cy="420" r="18" fill="#A5D6A7"/>
  <line x1="240" y1="595" x2="320" y2="595" stroke="#1B5E20" stroke-width="6" stroke-linecap="round"/>
  <!-- Gauge 2 (RAM) -->
  <circle cx="512" cy="440" r="150" fill="none" stroke="#1B5E20" stroke-width="28"/>
  <path d="M512 440 m-150 0 a150 150 0 0 1 150 -150" fill="none" stroke="#A5D6A7" stroke-width="28" stroke-linecap="round"/>
  <line x1="512" y1="440" x2="512" y2="290" stroke="#A5D6A7" stroke-width="10" stroke-linecap="round"/>
  <circle cx="512" cy="440" r="18" fill="#A5D6A7"/>
  <line x1="472" y1="615" x2="552" y2="615" stroke="#1B5E20" stroke-width="6" stroke-linecap="round"/>
  <!-- Gauge 3 (GPU) -->
  <circle cx="744" cy="420" r="150" fill="none" stroke="#1B5E20" stroke-width="28"/>
  <path d="M744 420 m-150 0 a150 150 0 0 1 106 -106" fill="none" stroke="#A5D6A7" stroke-width="28" stroke-linecap="round"/>
  <line x1="744" y1="420" x2="690" y2="340" stroke="#A5D6A7" stroke-width="10" stroke-linecap="round"/>
  <circle cx="744" cy="420" r="18" fill="#A5D6A7"/>
  <line x1="704" y1="595" x2="784" y2="595" stroke="#1B5E20" stroke-width="6" stroke-linecap="round"/>
  <!-- Labels row -->
  <rect x="200" y="640" width="624" height="50" rx="12" fill="#1B5E20" opacity="0.3"/>
</svg>