<svg xmlns="http://www.w3.org/2000/svg" viewBox="0 0 1024 1024">
  <rect x="80" y="80" width="864" height="864" rx="180" fill="#080A10"/>
  <!-- Puzzle piece as menu component -->
  <path d="M280 360 L440 360 L440 320 Q440 280 480 280 Q520 280 520 320 L520 360 L680 360 L680 520 L640 520 Q600 520 600 560 Q600 600 640 600 L680 600 L680 760 L520 760 L520 800 Q520 840 480 840 Q440 840 440 800 L440 760 L280 760 L280 600 L320 600 Q360 600 360 560 Q360 520 320 520 L280 520 Z" fill="#37474F" stroke="#90A4AE" stroke-width="12"/>
  <!-- List lines on puzzle -->
  <rect x="340" y="440" width="160" height="16" rx="4" fill="#90A4AE"/>
  <rect x="340" y="478" width="120" height="16" rx="4" fill="#90A4AE"/>
  <rect x="340" y="516" width="140" height="16" rx="4" fill="#90A4AE"/>
</svg>