<svg xmlns="http://www.w3.org/2000/svg" viewBox="0 0 1024 1024">
  <rect x="80" y="80" width="864" height="864" rx="180" fill="#080A10"/>
  <!-- Comb: organize menu items -->
  <rect x="200" y="380" width="624" height="60" rx="12" fill="#37474F"/>
  <rect x="240" y="260" width="44" height="140" rx="8" fill="#90A4AE"/>
  <rect x="320" y="260" width="44" height="140" rx="8" fill="#90A4AE"/>
  <rect x="400" y="260" width="44" height="140" rx="8" fill="#90A4AE"/>
  <rect x="480" y="260" width="44" height="140" rx="8" fill="#90A4AE"/>
  <rect x="560" y="260" width="44" height="140" rx="8" fill="#90A4AE"/>
  <rect x="640" y="260" width="44" height="140" rx="8" fill="#90A4AE"/>
  <rect x="720" y="260" width="44" height="140" rx="8" fill="#90A4AE"/>
  <!-- Menu items below -->
  <rect x="240" y="460" width="540" height="26" rx="6" fill="#37474F"/>
  <rect x="240" y="506" width="400" height="26" rx="6" fill="#37474F"/>
  <rect x="240" y="552" width="480" height="26" rx="6" fill="#37474F"/>
  <rect x="240" y="598" width="320" height="26" rx="6" fill="#37474F"/>
</svg>