<svg xmlns="http://www.w3.org/2000/svg" viewBox="0 0 1024 1024">
  <rect x="80" y="80" width="864" height="864" rx="180" fill="#050005"/>
  <!-- 자물쇠 몸체 -->
  <rect x="300" y="450" width="424" height="340" rx="40" fill="#4A148C" stroke="#9C27B0" stroke-width="16"/>
  <!-- 자물쇠 고리 -->
  <path d="M360 450 L360 330 Q360 220 512 220 Q664 220 664 330 L664 450" fill="none" stroke="#9C27B0" stroke-width="52" stroke-linecap="round"/>
  <path d="M360 450 L360 330 Q360 250 512 250 Q774 250 664 330 L664 450" fill="none" stroke="#4A148C" stroke-width="20" stroke-linecap="round"/>
  <!-- 열쇠 구멍 -->
  <circle cx="512" cy="580" r="45" fill="#050005" stroke="#9C27B0" stroke-width="6"/>
  <rect x="494" y="615" width="36" height="60" rx="8" fill="#050005" stroke="#9C27B0" stroke-width="6"/>
  <!-- 레지스트리 트리 패턴 -->
  <rect x="340" y="730" width="60" height="20" rx="4" fill="#9C27B0"/>
  <rect x="420" y="730" width="80" height="20" rx="4" fill="#9C27B0" opacity="0.7"/>
  <rect x="520" y="730" width="60" height="20" rx="4" fill="#9C27B0" opacity="0.5"/>
  <rect x="600" y="730" width="80" height="20" rx="4" fill="#9C27B0" opacity="0.7"/>
  <!-- 수직 연결선 -->
  <line x1="370" y1="720" x2="370" y2="700" stroke="#9C27B0" stroke-width="6"/>
  <line x1="460" y1="720" x2="460" y2="700" stroke="#9C27B0" stroke-width="6"/>
  <line x1="550" y1="720" x2="550" y2="700" stroke="#9C27B0" stroke-width="6"/>
  <line x1="640" y1="720" x2="640" y2="700" stroke="#9C27B0" stroke-width="6"/>
  <line x1="370" y1="700" x2="640" y2="700" stroke="#9C27B0" stroke-width="6"/>
</svg>
