<svg xmlns="http://www.w3.org/2000/svg" viewBox="0 0 1024 1024">
  <rect x="80" y="80" width="864" height="864" rx="180" fill="#050005"/>
  <!-- 금고 원형 -->
  <circle cx="512" cy="450" r="240" fill="#4A148C" stroke="#9C27B0" stroke-width="16"/>
  <circle cx="512" cy="450" r="190" fill="#050005" stroke="#9C27B0" stroke-width="8"/>
  <!-- 다이얼 -->
  <circle cx="512" cy="450" r="120" fill="#4A148C" stroke="#9C27B0" stroke-width="10"/>
  <circle cx="512" cy="450" r="30" fill="#9C27B0"/>
  <!-- 백업 화살표 (원형) -->
  <path d="M340 760 Q340 840 440 840 Q540 840 560 760" fill="none" stroke="#9C27B0" stroke-width="22" stroke-linecap="round"/>
  <!-- 화살표 머리 (왼쪽) -->
  <polygon points="340,760 300,790 340,820" fill="#9C27B0"/>
  <!-- 화살표 머리 (오른쪽) -->
  <polygon points="560,760 600,790 560,820" fill="#9C27B0"/>
  <!-- 백업 데이터 아이콘 -->
  <rect x="440" y="780" width="144" height="14" rx="7" fill="#9C27B0" opacity="0.6"/>
  <!-- 다이얼 눈금 -->
  <line x1="512" y1="340" x2="512" y2="360" stroke="#9C27B0" stroke-width="8" stroke-linecap="round"/>
  <line x1="512" y1="540" x2="512" y2="560" stroke="#9C27B0" stroke-width="8" stroke-linecap="round"/>
  <line x1="402" y1="450" x2="422" y2="450" stroke="#9C27B0" stroke-width="8" stroke-linecap="round"/>
  <line x1="602" y1="450" x2="622" y2="450" stroke="#9C27B0" stroke-width="8" stroke-linecap="round"/>
  <!-- 포인터 바늘 -->
  <line x1="512" y1="450" x2="580" y2="390" stroke="#9C27B0" stroke-width="12" stroke-linecap="round"/>
</svg>
