<?xml version="1.0" encoding="UTF-8"?>
<svg xmlns="http://www.w3.org/2000/svg" viewBox="0 0 512 512">
  <defs>
    <linearGradient id="bg" x1="0%" y1="0%" x2="100%" y2="100%">
      <stop offset="0%" stop-color="#001025"/>
      <stop offset="100%" stop-color="#001840"/>
    </linearGradient>
    <linearGradient id="wave" x1="0%" y1="0%" x2="100%" y2="0%">
      <stop offset="0%" stop-color="#0055FF"/>
      <stop offset="100%" stop-color="#00AAFF"/>
    </linearGradient>
  </defs>
  <rect width="512" height="512" rx="80" fill="url(#bg)"/>
  <!-- Wave path -->
  <path d="M40 280 Q80 240 120 280 Q160 320 200 280 Q240 240 280 280 Q320 320 360 280 Q400 240 440 280 Q480 320 520 280" fill="none" stroke="url(#wave)" stroke-width="6" opacity="0.4"/>
  <path d="M40 310 Q80 270 120 310 Q160 350 200 310 Q240 270 280 310 Q320 350 360 310 Q400 270 440 310 Q480 350 520 310" fill="none" stroke="url(#wave)" stroke-width="4" opacity="0.25"/>
  <!-- Characters on wave -->
  <text x="66" y="228" text-anchor="middle" fill="#4488FF" font-size="50" font-family="serif" font-weight="bold">A</text>
  <text x="146" y="180" text-anchor="middle" fill="#66AAFF" font-size="50" font-family="serif" font-weight="bold">&#x3042;</text>
  <text x="226" y="155" text-anchor="middle" fill="#88CCFF" font-size="48" font-family="serif">&#x4E2D;</text>
  <text x="306" y="170" text-anchor="middle" fill="#66AAFF" font-size="50" font-family="serif">&#x0391;</text>
  <text x="386" y="200" text-anchor="middle" fill="#4488FF" font-size="50" font-family="serif">&#x0410;</text>
  <!-- Code points below -->
  <text x="66" y="248" text-anchor="middle" fill="#224488" font-size="12" font-family="monospace">U+0041</text>
  <text x="146" y="248" text-anchor="middle" fill="#224488" font-size="12" font-family="monospace">U+3042</text>
  <text x="226" y="248" text-anchor="middle" fill="#224488" font-size="12" font-family="monospace">U+4E2D</text>
  <text x="306" y="248" text-anchor="middle" fill="#224488" font-size="12" font-family="monospace">U+0391</text>
  <text x="386" y="248" text-anchor="middle" fill="#224488" font-size="12" font-family="monospace">U+0410</text>
  <!-- Search bar -->
  <rect x="72" y="380" width="368" height="52" rx="26" fill="#0A1A30" stroke="#0066CC" stroke-width="2"/>
  <text x="110" y="413" fill="#0066CC" font-size="20" font-family="monospace">&#x1F50D; Search glyph...</text>
  <!-- Tag label -->
  <text x="256" y="470" text-anchor="middle" fill="#224488" font-size="14" font-family="monospace">Unicode · CJK · Latin · Cyrillic</text>
</svg>
