<svg xmlns="http://www.w3.org/2000/svg" viewBox="0 0 1024 1024">
  <defs>
    <linearGradient id="abg2" x1="0" y1="0" x2="1" y2="1">
      <stop offset="0%" stop-color="#00BCD4"/>
      <stop offset="100%" stop-color="#006064"/>
    </linearGradient>
  </defs>
  <!-- Layer 1: 시안/틸 배경 -->
  <rect width="1024" height="1024" rx="190" fill="url(#abg2)"/>
  <!-- Layer 2: 클립보드 (왼쪽) -->
  <rect x="148" y="284" width="440" height="560" rx="36" fill="white" opacity="0.95"/>
  <!-- 클립 -->
  <rect x="268" y="224" width="200" height="104" rx="36" fill="white" opacity="0.95"/>
  <rect x="300" y="252" width="136" height="64" rx="20" fill="#006064"/>
  <!-- 텍스트 라인 -->
  <rect x="200" y="408" width="320" height="28" rx="14" fill="#B2EBF2"/>
  <rect x="200" y="460" width="260" height="28" rx="14" fill="#B2EBF2"/>
  <rect x="200" y="512" width="300" height="28" rx="14" fill="#B2EBF2"/>
  <rect x="200" y="564" width="220" height="28" rx="14" fill="#E0F7FA"/>
  <!-- Layer 3: 팝업 메뉴 (오른쪽, 레이어드) -->
  <rect x="480" y="320" width="360" height="380" rx="24" fill="#E0F7FA" opacity="0.97"/>
  <rect x="480" y="320" width="360" height="380" rx="24" fill="none" stroke="white" stroke-width="3"/>
  <!-- 메뉴 항목들 -->
  <rect x="508" y="360" width="44" height="44" rx="22" fill="#00BCD4"/>
  <rect x="564" y="368" width="240" height="28" rx="14" fill="#00ACC1"/>
  <rect x="508" y="424" width="44" height="44" rx="22" fill="#26C6DA"/>
  <rect x="564" y="432" width="200" height="28" rx="14" fill="#B2EBF2"/>
  <rect x="508" y="488" width="44" height="44" rx="22" fill="#80DEEA"/>
  <rect x="564" y="496" width="220" height="28" rx="14" fill="#B2EBF2"/>
  <!-- 구분선 -->
  <rect x="508" y="556" width="296" height="2" rx="1" fill="#80DEEA"/>
  <rect x="508" y="576" width="44" height="44" rx="22" fill="#E0F7FA"/>
  <rect x="564" y="584" width="180" height="28" rx="14" fill="#B2EBF2" opacity="0.6"/>
  <!-- 텍스트 레이블 (메뉴 항목) -->
  <text x="564" y="392" font-family="Arial, sans-serif" font-size="26" fill="#006064" font-weight="bold">Summarize</text>
  <text x="564" y="456" font-family="Arial, sans-serif" font-size="26" fill="#006064">Translate</text>
  <text x="564" y="520" font-family="Arial, sans-serif" font-size="26" fill="#006064">Proofread</text>
</svg>
